<?xml version="1.0" encoding="UTF-8"?>
<svg id="a" width="330" height="68" version="1.1" viewBox="0 0 87.313 17.992" xmlns="http://www.w3.org/2000/svg"><g id="b" transform="translate(-69.109 -91.446)"><path id="c" d="m91.461 93.125v1.6433h1.9792v1.1627h-1.9792v2.7388q0 0.38758 0.18603 0.55811 0.1912 0.16536 0.63045 0.16536h1.1627v1.1627h-1.2712q-1.3022 0-1.7622-0.41342-0.45992-0.41857-0.45992-1.5451v-2.6665h-1.4779v-1.1627h1.4779v-1.6433z" style="font-feature-settings:normal;font-variant-caps:normal;font-variant-ligatures:normal;font-variant-numeric:normal"/><path id="d" d="m97.941 101.18q-0.30489 0.81649-0.73381 1.1886-0.42375 0.37724-1.0335 0.37724h-1.2506v-1.1524h0.61495q0.46509 0 0.68213-0.1602 0.21704-0.15503 0.43925-0.72863l0.11369-0.31006-2.2014-5.6276h1.5916l1.3229 3.7569 1.2661-3.7569h1.5916z" style="font-feature-settings:normal;font-variant-caps:normal;font-variant-ligatures:normal;font-variant-numeric:normal"/><path id="e" d="m102.92 99.739v3.0179h-1.509v-7.9892h1.509v0.86816q0.23772-0.50126 0.62529-0.75448 0.38757-0.25322 0.9095-0.25322 0.99219 0 1.54 0.79582 0.54777 0.79582 0.54777 2.2428 0 1.4676-0.5581 2.2531-0.55294 0.78549-1.5813 0.78549-0.46509 0-0.83716-0.23771-0.3669-0.24288-0.64596-0.72864zm2.1084-2.0826q0-0.83716-0.27905-1.3126-0.27905-0.47542-0.76998-0.47542t-0.77515 0.47542q-0.28422 0.47542-0.28422 1.3126 0 0.83716 0.28422 1.3126 0.28422 0.47542 0.77515 0.47542t0.76998-0.47542q0.27905-0.47542 0.27905-1.3126z" style="font-feature-settings:normal;font-variant-caps:normal;font-variant-ligatures:normal;font-variant-numeric:normal"/><path id="f" d="m112.71 100.27q-0.5271 0.21704-1.0749 0.32556t-1.1576 0.10852q-1.4521 0-2.2221-0.77515-0.76481-0.78031-0.76481-2.2428 0-1.4159 0.73897-2.2376 0.73898-0.82166 2.0154-0.82166 1.2867 0 1.9947 0.76481 0.71313 0.75964 0.71313 2.1446v0.61495h-3.9222q5e-3 0.68213 0.40307 1.018 0.39791 0.3359 1.1886 0.3359 0.52194 0 1.0284-0.14986 0.50643-0.14986 1.0594-0.47542zm-1.2816-3.2556q-0.0104-0.59944-0.31006-0.90434-0.29456-0.31006-0.87333-0.31006-0.52194 0-0.83199 0.3204-0.31006 0.31522-0.36691 0.89917z" style="font-feature-settings:normal;font-variant-caps:normal;font-variant-ligatures:normal;font-variant-numeric:normal"/><path id="g" d="m117.47 95.59v-3.0747h1.509v8.0409h-1.509v-0.85783q-0.24288 0.50126-0.63045 0.75447-0.38241 0.25322-0.90434 0.25322-0.99219 0-1.54-0.79582-0.54777-0.79582-0.54777-2.2428 0-1.4676 0.55294-2.2531 0.5581-0.78548 1.5865-0.78548 0.46509 0 0.832 0.24288 0.37207 0.23771 0.65112 0.7183zm-2.1084 2.0877q0 0.83716 0.27905 1.3126 0.27905 0.47542 0.76998 0.47542t0.77515-0.47542q0.28422-0.47542 0.28422-1.3126 0-0.83716-0.28422-1.3126-0.28422-0.47542-0.77515-0.47542t-0.76998 0.47542q-0.27905 0.47542-0.27905 1.3126z" style="font-feature-settings:normal;font-variant-caps:normal;font-variant-ligatures:normal;font-variant-numeric:normal"/><path id="h" d="m125.45 100.27q-0.5271 0.21704-1.0749 0.32556t-1.1576 0.10852q-1.4521 0-2.2221-0.77515-0.76481-0.78031-0.76481-2.2428 0-1.4159 0.73897-2.2376t2.0154-0.82166q1.2868 0 1.9947 0.76481 0.71313 0.75964 0.71313 2.1446v0.61495h-3.9222q5e-3 0.68213 0.40307 1.018 0.39791 0.3359 1.1886 0.3359 0.52193 0 1.0284-0.14986 0.50643-0.14986 1.0594-0.47542zm-1.2816-3.2556q-0.0103-0.59944-0.31006-0.90434-0.29455-0.31006-0.87333-0.31006-0.52193 0-0.83199 0.3204-0.31005 0.31522-0.3669 0.89917z" style="font-feature-settings:normal;font-variant-caps:normal;font-variant-ligatures:normal;font-variant-numeric:normal"/><path id="i" d="m129.94 94.262v0.50643h1.7777v1.1627h-1.7777v4.625h-1.5141v-4.625h-1.4056v-1.1627h1.4056v-0.40308q0-1.0439 0.43408-1.4469 0.43408-0.40308 1.6123-0.40308h1.2454v1.1627h-1.1834q-0.34107 0-0.46509 0.12402-0.11886 0.12402-0.12919 0.45992z" style="font-feature-settings:normal;font-variant-caps:normal;font-variant-ligatures:normal;font-variant-numeric:normal"/><path id="j" d="m138.42 94.768h2.9972v4.625h1.881v1.1627h-5.2813v-1.1627h1.8862v-3.4623h-1.4831zm1.4831-2.8164h1.5141v1.7673h-1.5141z" style="font-feature-settings:normal;font-variant-caps:normal;font-variant-ligatures:normal;font-variant-numeric:normal"/><path id="k" d="m149.19 96.799v3.7569h-1.5038v-3.5243q0-0.63046-0.18086-0.89917-0.1757-0.27389-0.57878-0.27389-0.40824 0-0.64595 0.3669-0.23255 0.3669-0.23255 1.018v3.3125h-1.5038v-5.7878h1.5038v0.86816q0.1602-0.48059 0.54777-0.74414 0.38757-0.26355 0.93534-0.26355 0.82166 0 1.2402 0.54777 0.41858 0.5426 0.41858 1.6226z" style="font-feature-settings:normal;font-variant-caps:normal;font-variant-ligatures:normal;font-variant-numeric:normal"/><path id="l" d="m153.59 93.125v1.6433h1.9792v1.1627h-1.9792v2.7388q0 0.38758 0.18604 0.55811 0.1912 0.16536 0.63045 0.16536h1.1627v1.1627h-1.2712q-1.3022 0-1.7622-0.41342-0.45992-0.41857-0.45992-1.5451v-2.6665h-1.4779v-1.1627h1.4779v-1.6433z" style="font-feature-settings:normal;font-variant-caps:normal;font-variant-ligatures:normal;font-variant-numeric:normal"/><path id="m" d="m86.126 107.92-4.8508 1.5185-3.0968-7.8456-4.6786 7.1988h-3.3323l6.6084-11.094-0.82961-2.0809h-2.123v-2.4746h4.3024l4.9633 13.02 2.1934-0.71708z" stroke-width=".084362"/></g></svg>
