<?xml version="1.0" encoding="UTF-8" standalone="no"?>
<!-- Created with Inkscape (http://www.inkscape.org/) -->

<svg
   width="330"
   height="68"
   viewBox="0 0 87.312502 17.991666"
   version="1.1"
   id="svg8"
   inkscape:version="1.2.2 (b0a8486541, 2022-12-01)"
   sodipodi:docname="typedefint-vectorized-white.svg"
   inkscape:export-filename="/home/oberstet/scm/oberstet/typedefint-organize/typedefint-vectorized.png"
   inkscape:export-xdpi="90"
   inkscape:export-ydpi="90"
   xmlns:inkscape="http://www.inkscape.org/namespaces/inkscape"
   xmlns:sodipodi="http://sodipodi.sourceforge.net/DTD/sodipodi-0.dtd"
   xmlns="http://www.w3.org/2000/svg"
   xmlns:svg="http://www.w3.org/2000/svg"
   xmlns:rdf="http://www.w3.org/1999/02/22-rdf-syntax-ns#"
   xmlns:cc="http://creativecommons.org/ns#"
   xmlns:dc="http://purl.org/dc/elements/1.1/">
  <defs
     id="defs2" />
  <sodipodi:namedview
     id="base"
     pagecolor="#ffcfa3"
     bordercolor="#666666"
     borderopacity="1.0"
     inkscape:pageopacity="0"
     inkscape:pageshadow="2"
     inkscape:zoom="1.4"
     inkscape:cx="128.92857"
     inkscape:cy="14.642857"
     inkscape:document-units="mm"
     inkscape:current-layer="layer1"
     showgrid="false"
     fit-margin-top="0"
     fit-margin-left="0"
     fit-margin-right="0"
     fit-margin-bottom="0"
     units="px"
     inkscape:window-width="1920"
     inkscape:window-height="1128"
     inkscape:window-x="1050"
     inkscape:window-y="240"
     inkscape:window-maximized="1"
     inkscape:showpageshadow="2"
     inkscape:pagecheckerboard="0"
     inkscape:deskcolor="#d1d1d1" />
  <metadata
     id="metadata5">
    <rdf:RDF>
      <cc:Work
         rdf:about="">
        <dc:format>image/svg+xml</dc:format>
        <dc:type
           rdf:resource="http://purl.org/dc/dcmitype/StillImage" />
      </cc:Work>
    </rdf:RDF>
  </metadata>
  <g
     inkscape:label="Ebene 1"
     inkscape:groupmode="layer"
     id="layer1"
     transform="translate(-69.109296,-91.44562)">
    <path
       inkscape:connector-curvature="0"
       id="path818"
       style="font-style:normal;font-variant:normal;font-weight:bold;font-stretch:normal;font-size:40px;line-height:1.25;font-family:'Bitstream Vera Sans Mono';-inkscape-font-specification:'Bitstream Vera Sans Mono, Bold';font-variant-ligatures:normal;font-variant-caps:normal;font-variant-numeric:normal;font-feature-settings:normal;text-align:start;letter-spacing:0px;word-spacing:0px;writing-mode:lr-tb;text-anchor:start;fill:#ffffff;fill-opacity:1;stroke:none;stroke-width:0.26458332"
       d="m 91.461165,93.124694 v 1.643311 h 1.979208 v 1.16272 h -1.979208 v 2.73885 q 0,0.387575 0.186034,0.558107 0.191204,0.165364 0.630454,0.165364 h 1.16272 v 1.162724 h -1.271241 q -1.302248,0 -1.762167,-0.41342 -0.45992,-0.418574 -0.45992,-1.545123 v -2.666502 h -1.477947 v -1.16272 h 1.477947 v -1.643311 z" />
    <path
       inkscape:connector-curvature="0"
       id="path820"
       style="font-style:normal;font-variant:normal;font-weight:bold;font-stretch:normal;font-size:40px;line-height:1.25;font-family:'Bitstream Vera Sans Mono';-inkscape-font-specification:'Bitstream Vera Sans Mono, Bold';font-variant-ligatures:normal;font-variant-caps:normal;font-variant-numeric:normal;font-feature-settings:normal;text-align:start;letter-spacing:0px;word-spacing:0px;writing-mode:lr-tb;text-anchor:start;fill:#ffffff;fill-opacity:1;stroke:none;stroke-width:0.26458332"
       d="m 97.94139,101.18105 q -0.304892,0.81649 -0.733806,1.18856 -0.423746,0.37724 -1.033528,0.37724 h -1.250569 v -1.15239 h 0.614947 q 0.46509,0 0.68213,-0.1602 0.21704,-0.15503 0.439251,-0.72863 l 0.113686,-0.31006 -2.201415,-5.627565 h 1.591635 l 1.322917,3.756877 1.266071,-3.756877 h 1.591631 z" />
    <path
       inkscape:connector-curvature="0"
       id="path822"
       style="font-style:normal;font-variant:normal;font-weight:bold;font-stretch:normal;font-size:40px;line-height:1.25;font-family:'Bitstream Vera Sans Mono';-inkscape-font-specification:'Bitstream Vera Sans Mono, Bold';font-variant-ligatures:normal;font-variant-caps:normal;font-variant-numeric:normal;font-feature-settings:normal;text-align:start;letter-spacing:0px;word-spacing:0px;writing-mode:lr-tb;text-anchor:start;fill:#ffffff;fill-opacity:1;stroke:none;stroke-width:0.26458332"
       d="m 102.923,99.739277 v 3.017903 h -1.50895 v -7.989175 h 1.50895 v 0.868164 q 0.23772,-0.501261 0.62529,-0.754475 0.38757,-0.253217 0.9095,-0.253217 0.99219,0 1.53996,0.795819 0.54777,0.795817 0.54777,2.242757 0,1.467609 -0.5581,2.253091 -0.55294,0.785486 -1.5813,0.785486 -0.46509,0 -0.83716,-0.23771 -0.3669,-0.24288 -0.64596,-0.728643 z m 2.1084,-2.082559 q 0,-0.83716 -0.27905,-1.312582 -0.27905,-0.475424 -0.76998,-0.475424 -0.49093,0 -0.77515,0.475424 -0.28422,0.475422 -0.28422,1.312582 0,0.837158 0.28422,1.31258 0.28422,0.475424 0.77515,0.475424 0.49093,0 0.76998,-0.475424 0.27905,-0.475422 0.27905,-1.31258 z" />
    <path
       inkscape:connector-curvature="0"
       id="path824"
       style="font-style:normal;font-variant:normal;font-weight:bold;font-stretch:normal;font-size:40px;line-height:1.25;font-family:'Bitstream Vera Sans Mono';-inkscape-font-specification:'Bitstream Vera Sans Mono, Bold';font-variant-ligatures:normal;font-variant-caps:normal;font-variant-numeric:normal;font-feature-settings:normal;text-align:start;letter-spacing:0px;word-spacing:0px;writing-mode:lr-tb;text-anchor:start;fill:#ffffff;fill-opacity:1;stroke:none;stroke-width:0.26458332"
       d="m 112.70535,100.27155 q -0.5271,0.21704 -1.07487,0.32556 -0.54777,0.10852 -1.15755,0.10852 -1.45211,0 -2.22209,-0.775149 -0.76481,-0.780314 -0.76481,-2.242759 0,-1.415933 0.73897,-2.237589 0.73898,-0.821656 2.01539,-0.821656 1.28674,0 1.99471,0.764813 0.71313,0.759642 0.71313,2.144572 v 0.61495 h -3.92224 q 0.005,0.682128 0.40307,1.018024 0.39791,0.335897 1.18856,0.335897 0.52194,0 1.02836,-0.14986 0.50643,-0.149863 1.05937,-0.475425 z m -1.28157,-3.255621 q -0.0104,-0.599445 -0.31006,-0.904338 -0.29456,-0.310057 -0.87333,-0.310057 -0.52194,0 -0.83199,0.320395 -0.31006,0.315224 -0.36691,0.899168 z" />
    <path
       inkscape:connector-curvature="0"
       id="path826"
       style="font-style:normal;font-variant:normal;font-weight:bold;font-stretch:normal;font-size:40px;line-height:1.25;font-family:'Bitstream Vera Sans Mono';-inkscape-font-specification:'Bitstream Vera Sans Mono, Bold';font-variant-ligatures:normal;font-variant-caps:normal;font-variant-numeric:normal;font-feature-settings:normal;text-align:start;letter-spacing:0px;word-spacing:0px;writing-mode:lr-tb;text-anchor:start;fill:#ffffff;fill-opacity:1;stroke:none;stroke-width:0.26458332"
       d="m 117.46992,95.589661 v -3.074749 h 1.50895 v 8.040858 h -1.50895 v -0.857834 q -0.24288,0.501264 -0.63045,0.754474 -0.38241,0.25322 -0.90434,0.25322 -0.99219,0 -1.53996,-0.795821 -0.54777,-0.795816 -0.54777,-2.242756 0,-1.467612 0.55294,-2.253094 0.5581,-0.785482 1.58646,-0.785482 0.46509,0 0.832,0.24288 0.37207,0.237712 0.65112,0.718304 z m -2.1084,2.087727 q 0,0.837157 0.27905,1.312582 0.27905,0.475421 0.76998,0.475421 0.49093,0 0.77515,-0.475421 0.28422,-0.475425 0.28422,-1.312582 0,-0.837158 -0.28422,-1.312582 -0.28422,-0.475422 -0.77515,-0.475422 -0.49093,0 -0.76998,0.475422 -0.27905,0.475424 -0.27905,1.312582 z" />
    <path
       inkscape:connector-curvature="0"
       id="path828"
       style="font-style:normal;font-variant:normal;font-weight:bold;font-stretch:normal;font-size:40px;line-height:1.25;font-family:'Bitstream Vera Sans Mono';-inkscape-font-specification:'Bitstream Vera Sans Mono, Bold';font-variant-ligatures:normal;font-variant-caps:normal;font-variant-numeric:normal;font-feature-settings:normal;text-align:start;letter-spacing:0px;word-spacing:0px;writing-mode:lr-tb;text-anchor:start;fill:#ffffff;fill-opacity:1;stroke:none;stroke-width:0.26458332"
       d="m 125.44876,100.27155 q -0.5271,0.21704 -1.07487,0.32556 -0.54777,0.10852 -1.15755,0.10852 -1.45211,0 -2.22209,-0.775149 -0.76481,-0.780314 -0.76481,-2.242759 0,-1.415933 0.73897,-2.237589 0.73897,-0.821656 2.01538,-0.821656 1.28675,0 1.99472,0.764813 0.71313,0.759642 0.71313,2.144572 v 0.61495 h -3.92224 q 0.005,0.682128 0.40307,1.018024 0.39791,0.335897 1.18856,0.335897 0.52193,0 1.02836,-0.14986 0.50643,-0.149863 1.05937,-0.475425 z m -1.28158,-3.255621 q -0.0103,-0.599445 -0.31006,-0.904338 -0.29455,-0.310057 -0.87333,-0.310057 -0.52193,0 -0.83199,0.320395 -0.31005,0.315224 -0.3669,0.899168 z" />
    <path
       inkscape:connector-curvature="0"
       id="path830"
       style="font-style:normal;font-variant:normal;font-weight:bold;font-stretch:normal;font-size:40px;line-height:1.25;font-family:'Bitstream Vera Sans Mono';-inkscape-font-specification:'Bitstream Vera Sans Mono, Bold';font-variant-ligatures:normal;font-variant-caps:normal;font-variant-numeric:normal;font-feature-settings:normal;text-align:start;letter-spacing:0px;word-spacing:0px;writing-mode:lr-tb;text-anchor:start;fill:#ffffff;fill-opacity:1;stroke:none;stroke-width:0.26458332"
       d="m 129.94461,94.261577 v 0.506428 h 1.77767 v 1.16272 h -1.77767 v 4.625045 h -1.51412 v -4.625045 h -1.4056 v -1.16272 h 1.4056 v -0.403076 q 0,-1.043864 0.43408,-1.44694 0.43408,-0.403077 1.61231,-0.403077 h 1.2454 v 1.162719 h -1.18339 q -0.34107,0 -0.46509,0.124024 -0.11886,0.124023 -0.12919,0.459922 z" />
    <path
       inkscape:connector-curvature="0"
       id="path832"
       style="font-style:normal;font-variant:normal;font-weight:bold;font-stretch:normal;font-size:40px;line-height:1.25;font-family:'Bitstream Vera Sans Mono';-inkscape-font-specification:'Bitstream Vera Sans Mono, Bold';font-variant-ligatures:normal;font-variant-caps:normal;font-variant-numeric:normal;font-feature-settings:normal;text-align:start;letter-spacing:0px;word-spacing:0px;writing-mode:lr-tb;text-anchor:start;fill:#ffffff;fill-opacity:1;stroke:none;stroke-width:0.26458332"
       d="m 138.42367,94.768005 h 2.99723 v 4.625041 h 1.88102 v 1.162724 h -5.28133 v -1.162724 h 1.88619 v -3.462321 h -1.48311 z m 1.48311,-2.816365 h 1.51412 v 1.767332 h -1.51412 z" />
    <path
       inkscape:connector-curvature="0"
       id="path834"
       style="font-style:normal;font-variant:normal;font-weight:bold;font-stretch:normal;font-size:40px;line-height:1.25;font-family:'Bitstream Vera Sans Mono';-inkscape-font-specification:'Bitstream Vera Sans Mono, Bold';font-variant-ligatures:normal;font-variant-caps:normal;font-variant-numeric:normal;font-feature-settings:normal;text-align:start;letter-spacing:0px;word-spacing:0px;writing-mode:lr-tb;text-anchor:start;fill:#ffffff;fill-opacity:1;stroke:none;stroke-width:0.26458332"
       d="m 149.18787,96.798889 v 3.756881 h -1.50379 v -3.524336 q 0,-0.630455 -0.18086,-0.899171 -0.1757,-0.273886 -0.57878,-0.273886 -0.40824,0 -0.64595,0.366903 -0.23255,0.366903 -0.23255,1.018027 v 3.312463 h -1.50378 v -5.787765 h 1.50378 v 0.868164 q 0.1602,-0.480591 0.54777,-0.74414 0.38757,-0.263552 0.93534,-0.263552 0.82166,0 1.24024,0.547773 0.41858,0.542602 0.41858,1.622639 z" />
    <path
       inkscape:connector-curvature="0"
       id="path836"
       style="font-style:normal;font-variant:normal;font-weight:bold;font-stretch:normal;font-size:40px;line-height:1.25;font-family:'Bitstream Vera Sans Mono';-inkscape-font-specification:'Bitstream Vera Sans Mono, Bold';font-variant-ligatures:normal;font-variant-caps:normal;font-variant-numeric:normal;font-feature-settings:normal;text-align:start;letter-spacing:0px;word-spacing:0px;writing-mode:lr-tb;text-anchor:start;fill:#ffffff;fill-opacity:1;stroke:none;stroke-width:0.26458332"
       d="m 153.5907,93.124694 v 1.643311 h 1.97921 v 1.16272 h -1.97921 v 2.73885 q 0,0.387575 0.18604,0.558107 0.1912,0.165364 0.63045,0.165364 h 1.16272 v 1.162724 h -1.27124 q -1.30225,0 -1.76217,-0.41342 -0.45992,-0.418574 -0.45992,-1.545123 v -2.666502 h -1.47794 v -1.16272 h 1.47794 v -1.643311 z" />
    <path
       style="fill:#ffffff;stroke-width:0.08436164"
       d="m 86.126152,107.91878 -4.850794,1.51851 -3.096832,-7.84555 -4.678612,7.19883 h -3.332285 l 6.608385,-11.093556 -0.829612,-2.080949 h -2.123045 v -2.47458 H 78.1258 l 4.963333,13.019705 2.193403,-0.71708 z"
       id="polygon4536"
       inkscape:connector-curvature="0" />
  </g>
</svg>
