<?xml version="1.0" encoding="UTF-8" standalone="no"?>
<!-- Created with Inkscape (http://www.inkscape.org/) -->

<svg
   xmlns:dc="http://purl.org/dc/elements/1.1/"
   xmlns:cc="http://creativecommons.org/ns#"
   xmlns:rdf="http://www.w3.org/1999/02/22-rdf-syntax-ns#"
   xmlns:svg="http://www.w3.org/2000/svg"
   xmlns="http://www.w3.org/2000/svg"
   xmlns:sodipodi="http://sodipodi.sourceforge.net/DTD/sodipodi-0.dtd"
   xmlns:inkscape="http://www.inkscape.org/namespaces/inkscape"
   width="1086.1412"
   height="612.84485"
   id="svg3065"
   version="1.1"
   inkscape:version="0.48.4 r9939"
   sodipodi:docname="crossbar_deployment_03.svg">
  <defs
     id="defs3067" />
  <sodipodi:namedview
     id="base"
     pagecolor="#ffffff"
     bordercolor="#666666"
     borderopacity="1.0"
     inkscape:pageopacity="0.0"
     inkscape:pageshadow="2"
     inkscape:zoom="0.7"
     inkscape:cx="614.42106"
     inkscape:cy="356.07612"
     inkscape:document-units="px"
     inkscape:current-layer="layer1"
     showgrid="false"
     fit-margin-top="10"
     fit-margin-left="10"
     fit-margin-bottom="10"
     fit-margin-right="10"
     inkscape:window-width="1440"
     inkscape:window-height="838"
     inkscape:window-x="-8"
     inkscape:window-y="-8"
     inkscape:window-maximized="1" />
  <metadata
     id="metadata3070">
    <rdf:RDF>
      <cc:Work
         rdf:about="">
        <dc:format>image/svg+xml</dc:format>
        <dc:type
           rdf:resource="http://purl.org/dc/dcmitype/StillImage" />
        <dc:title />
      </cc:Work>
    </rdf:RDF>
  </metadata>
  <g
     inkscape:label="Ebene 1"
     inkscape:groupmode="layer"
     id="layer1"
     transform="translate(127.85361,-447.35605)">
    <g
       id="g3080"
       transform="translate(-119.75923,455.48105)">
      <path
         id="path3082"
         d="m 1044.4531,474.375 c 13.0469,0 23.5938,-10.625 23.5938,-23.67188 l 0,0 0,-283.4375 c 0,-13.04687 -10.5469,-23.59374 -23.5938,-23.59374 l 0,0 -812.65622,0 c -13.04688,0 -23.59376,10.54687 -23.59376,23.59374 l 0,283.4375 c 0,13.04688 10.54688,23.67188 23.59376,23.67188 l 0,0 812.65622,0 z"
         style="fill:#d9d9d9;fill-opacity:1;fill-rule:evenodd;stroke:none"
         inkscape:connector-curvature="0" />
      <path
         id="path3084"
         d="m 260.15625,261.71875 0,70.9375 118.125,0 0,-70.9375 -118.125,0 z"
         style="fill:#404040;fill-opacity:1;fill-rule:evenodd;stroke:none"
         inkscape:connector-curvature="0" />
      <text
         id="text3086"
         style="font-size:15px;font-style:normal;font-weight:bold;text-align:start;text-anchor:start;fill:#ffc000;font-family:Arial"
         y="283.75"
         x="277.5"
         xml:space="preserve">Component</text>
      <text
         id="text3088"
         style="font-size:15px;font-style:normal;font-weight:bold;text-align:start;text-anchor:start;fill:#ffc000;font-family:Arial"
         y="301.25"
         x="302.5"
         xml:space="preserve">Host</text>
      <text
         id="text3090"
         style="font-size:15px;font-style:normal;font-weight:normal;text-align:start;text-anchor:start;fill:#ffc000;font-family:Arial"
         y="320"
         x="295"
         xml:space="preserve">Worker</text>
      <path
         id="path3092"
         d="m 1011.3281,403.51562 c 13.0469,0 23.6719,-10.625 23.6719,-23.67187 l 0,0 0,0 C 1035,366.79688 1024.375,356.25 1011.3281,356.25 l 0,0 -118.04685,0 c -13.04687,0 -23.67187,10.54688 -23.67187,23.59375 l 0,0 c 0,13.04687 10.625,23.67187 23.67187,23.67187 l 0,0 118.04685,0 z"
         style="fill:#8c8c8c;fill-opacity:1;fill-rule:evenodd;stroke:none"
         inkscape:connector-curvature="0" />
      <text
         id="text3094"
         style="font-size:15px;font-style:normal;font-weight:normal;text-align:start;text-anchor:start;fill:#ffffff;font-family:Arial"
         y="383.75"
         x="885"
         xml:space="preserve">Key </text>
      <text
         id="text3096"
         style="font-size:15px;font-style:normal;font-weight:normal;text-align:start;text-anchor:start;fill:#ffffff;font-family:Arial"
         y="383.75"
         x="915"
         xml:space="preserve">&amp; </text>
      <text
         id="text3098"
         style="font-size:15px;font-style:normal;font-weight:normal;text-align:start;text-anchor:start;fill:#ffffff;font-family:Arial"
         y="383.75"
         x="930"
         xml:space="preserve">Configuration</text>
      <path
         id="path3100"
         d="m 401.875,261.71875 0,70.9375 115.23438,0 0,-70.9375 -115.23438,0 z"
         style="fill:#404040;fill-opacity:1;fill-rule:evenodd;stroke:none"
         inkscape:connector-curvature="0" />
      <text
         id="text3102"
         style="font-size:15px;font-style:normal;font-weight:bold;text-align:start;text-anchor:start;fill:#ffc000;font-family:Arial"
         y="283.75"
         x="417.5"
         xml:space="preserve">Component</text>
      <text
         id="text3104"
         style="font-size:15px;font-style:normal;font-weight:bold;text-align:start;text-anchor:start;fill:#ffc000;font-family:Arial"
         y="301.25"
         x="442.5"
         xml:space="preserve">Host</text>
      <text
         id="text3106"
         style="font-size:15px;font-style:normal;font-weight:normal;text-align:start;text-anchor:start;fill:#ffc000;font-family:Arial"
         y="320"
         x="435"
         xml:space="preserve">Worker</text>
      <path
         id="path3108"
         d="m 616.25,261.71875 0,70.9375 118.125,0 0,-70.9375 -118.125,0 z"
         style="fill:#404040;fill-opacity:1;fill-rule:evenodd;stroke:none"
         inkscape:connector-curvature="0" />
      <text
         id="text3110"
         style="font-size:16.25px;font-style:normal;font-weight:bold;text-align:start;text-anchor:start;fill:#ffc000;font-family:Arial"
         y="292.5"
         x="648.75"
         xml:space="preserve">Router</text>
      <text
         id="text3112"
         style="font-size:16.25px;font-style:normal;font-weight:normal;text-align:start;text-anchor:start;fill:#ffc000;font-family:Arial"
         y="312.5"
         x="648.75"
         xml:space="preserve">Worker</text>
      <path
         id="path3114"
         d="m 803.51562,403.51562 c 13.04688,0 23.59376,-10.625 23.59376,-23.67187 l 0,0 0,0 c 0,-13.04687 -10.54688,-23.59375 -23.59376,-23.59375 l -252.42187,0 C 538.04688,356.25 527.5,366.79688 527.5,379.84375 l 0,0 c 0,13.04687 10.54688,23.67187 23.59375,23.67187 l 252.42187,0 z"
         style="fill:#ffc000;fill-opacity:1;fill-rule:evenodd;stroke:none"
         inkscape:connector-curvature="0" />
      <text
         id="text3116"
         style="font-size:15px;font-style:normal;font-weight:normal;text-align:start;text-anchor:start;fill:#000000;font-family:Arial"
         y="383.75"
         x="597.5"
         xml:space="preserve">One or more Transports</text>
      <path
         id="path3118"
         d="m 867.26562,190.85938 0,141.79687 167.73438,0 0,-141.79687 -167.73438,0 z"
         style="fill:#404040;fill-opacity:1;fill-rule:evenodd;stroke:none"
         inkscape:connector-curvature="0" />
      <text
         id="text3120"
         style="font-size:20px;font-style:normal;font-weight:normal;text-align:start;text-anchor:start;fill:#ffc000;font-family:Arial"
         y="256.25"
         x="927.5"
         xml:space="preserve">Node</text>
      <text
         id="text3122"
         style="font-size:20px;font-style:normal;font-weight:normal;text-align:start;text-anchor:start;fill:#ffc000;font-family:Arial"
         y="280"
         x="907.5"
         xml:space="preserve">Controller</text>
      <path
         id="path3124"
         d="m 744.45312,403.51562 -14.21874,14.14063 9.375,0 0,127.57813 9.60937,0 0,-127.57813 9.375,0 -14.14063,-14.14063 z"
         style="fill:#bfbfbf;fill-opacity:1;fill-rule:evenodd;stroke:none"
         inkscape:connector-curvature="0" />
      <path
         id="path3126"
         d="m 673.59375,403.51562 -14.21875,14.14063 9.375,0 0,127.57813 9.60938,0 0,-127.57813 9.375,0 -14.14063,-14.14063 z"
         style="fill:#bfbfbf;fill-opacity:1;fill-rule:evenodd;stroke:none"
         inkscape:connector-curvature="0" />
      <path
         id="path3128"
         d="m 602.65625,403.51562 -14.14063,14.14063 9.375,0 0,127.57813 9.60938,0 0,-127.57813 9.375,0 -14.21875,-14.14063 z"
         style="fill:#bfbfbf;fill-opacity:1;fill-rule:evenodd;stroke:none"
         inkscape:connector-curvature="0" />
      <path
         id="path3130"
         d="m 1020.7812,96.40625 c 13.0469,0 23.6719,-10.546875 23.6719,-23.59375 l 0,0 0,-47.265625 C 1044.4531,12.5 1033.8281,1.875 1020.7812,1.875 l 0,0 -139.37495,0 c -13.04687,0 -23.59375,10.625 -23.59375,23.671875 l 0,0 0,47.265625 c 0,13.046875 10.54688,23.59375 23.59375,23.59375 l 0,0 139.37495,0 z"
         style="fill:#ff6600;fill-opacity:1;fill-rule:evenodd;stroke:none"
         inkscape:connector-curvature="0" />
      <text
         id="text3132"
         style="font-size:20px;font-style:normal;font-weight:normal;text-align:start;text-anchor:start;fill:#ffffff;font-family:Arial"
         y="42.5"
         x="892.5"
         xml:space="preserve">Management</text>
      <text
         id="text3134"
         style="font-size:20px;font-style:normal;font-weight:normal;text-align:start;text-anchor:start;fill:#ffffff;font-family:Arial"
         y="67.5"
         x="917.5"
         xml:space="preserve">Service</text>
      <text
         id="text3136"
         style="font-size:23.75px;font-style:normal;font-weight:bold;text-align:start;text-anchor:start;fill:#404040;font-family:Arial"
         y="457.5"
         x="835"
         xml:space="preserve">Crossbar</text>
      <text
         id="text3138"
         style="font-size:23.75px;font-style:normal;font-weight:bold;text-align:start;text-anchor:start;fill:#404040;font-family:Arial"
         y="457.5"
         x="937.5"
         xml:space="preserve">.</text>
      <text
         id="text3140"
         style="font-size:23.75px;font-style:normal;font-weight:bold;text-align:start;text-anchor:start;fill:#404040;font-family:Arial"
         y="457.5"
         x="943.75"
         xml:space="preserve">io </text>
      <text
         id="text3142"
         style="font-size:23.75px;font-style:normal;font-weight:normal;text-align:start;text-anchor:start;fill:#404040;font-family:Arial"
         y="457.5"
         x="971.25"
         xml:space="preserve">Node</text>
      <path
         id="path3144"
         d="M 951.09375,96.40625 938.125,109.375 l 8.59375,0 0,81.48438 8.82813,0 0,-81.48438 8.51562,0 -12.96875,-12.96875 z"
         style="fill:#ff6600;fill-opacity:1;fill-rule:evenodd;stroke:none"
         inkscape:connector-curvature="0" />
      <path
         id="path3146"
         d="M 951.09375,96.40625 938.125,109.375 l 8.59375,0 0,81.48438 8.82813,0 0,-81.48438 8.51562,0 -12.96875,-12.96875 z"
         style="fill:none;stroke:#ff6600;stroke-width:0.390625px;stroke-linecap:round;stroke-linejoin:round;stroke-opacity:1;stroke-dasharray:none"
         inkscape:connector-curvature="0" />
      <path
         id="path3148"
         d="m 319.60938,238.125 -14.14063,10.625 9.375,0 0,12.96875 9.60937,0 0,-12.96875 9.375,0 -14.21874,-10.625 z"
         style="fill:#737373;fill-opacity:1;fill-rule:evenodd;stroke:none"
         inkscape:connector-curvature="0" />
      <path
         id="path3150"
         d="m 461.32812,238.125 -14.14062,10.625 9.375,0 0,12.96875 9.60938,0 0,-12.96875 9.375,0 -14.21876,-10.625 z"
         style="fill:#737373;fill-opacity:1;fill-rule:evenodd;stroke:none"
         inkscape:connector-curvature="0" />
      <path
         id="path3152"
         d="m 675.3125,332.65625 -14.14062,10.625 9.375,0 0,12.96875 9.60937,0 0,-12.96875 9.375,0 -14.21875,-10.625 z"
         style="fill:#737373;fill-opacity:1;fill-rule:evenodd;stroke:none"
         inkscape:connector-curvature="0" />
      <path
         id="path3154"
         d="m 674.76562,238.125 -14.21874,10.625 9.375,0 0,12.96875 9.6875,0 0,-12.96875 9.29687,0 -14.14063,-10.625 z"
         style="fill:#737373;fill-opacity:1;fill-rule:evenodd;stroke:none"
         inkscape:connector-curvature="0" />
      <path
         id="path3156"
         d="m 803.51562,238.125 c 13.04688,0 23.59376,-10.54688 23.59376,-23.59375 l 0,0 0,0 c 0,-13.04687 -10.54688,-23.67187 -23.59376,-23.67187 l -543.35937,0 c -13.04687,0 -23.59375,10.625 -23.59375,23.67187 l 0,0 c 0,13.04687 10.54688,23.59375 23.59375,23.59375 l 0,0 543.35937,0 z"
         style="fill:#ffc000;fill-opacity:1;fill-rule:evenodd;stroke:none"
         inkscape:connector-curvature="0" />
      <text
         id="text3158"
         style="font-size:15px;font-style:normal;font-weight:normal;text-align:start;text-anchor:start;fill:#000000;font-family:Arial"
         y="218.75"
         x="352.5"
         xml:space="preserve">WAMP over Unix Domain Socket or Loopback TCP</text>
      <text
         id="text3160"
         style="font-size:15px;font-style:normal;font-weight:normal;text-align:start;text-anchor:start;fill:#000000;font-family:Arial"
         y="218.75"
         x="692.5"
         xml:space="preserve">/</text>
      <text
         id="text3162"
         style="font-size:15px;font-style:normal;font-weight:normal;text-align:start;text-anchor:start;fill:#000000;font-family:Arial"
         y="218.75"
         x="697.5"
         xml:space="preserve">IP</text>
      <text
         id="text3164"
         style="font-size:23.75px;font-style:normal;font-weight:normal;text-align:start;text-anchor:start;fill:#000000;font-family:Arial"
         y="590"
         x="587.5"
         xml:space="preserve">Application Clients</text>
      <path
         id="path3166"
         d="m 2.109375,104.84375 0,-36.40625 284.453125,0 0,97.03125 -113.90625,0 87.5,131.71875 -144.14063,-131.71875 -113.906245,0 0,-60.625 z"
         style="fill:#ffffff;fill-opacity:1;fill-rule:evenodd;stroke:none"
         inkscape:connector-curvature="0" />
      <path
         id="path3168"
         d="m 2.109375,104.84375 0,-36.40625 284.453125,0 0,97.03125 -113.90625,0 87.5,131.71875 -144.14063,-131.71875 -113.906245,0 0,-60.625 z"
         style="fill:none;stroke:#000000;stroke-width:0.390625px;stroke-linecap:round;stroke-linejoin:round;stroke-opacity:1;stroke-dasharray:none"
         inkscape:connector-curvature="0" />
      <text
         id="text3170"
         style="font-size:16.25px;font-style:normal;font-weight:normal;text-align:start;text-anchor:start;fill:#000000;font-family:Arial"
         y="102.5"
         x="8.75"
         xml:space="preserve">Multiple application components can </text>
      <text
         id="text3172"
         style="font-size:16.25px;font-style:normal;font-weight:normal;text-align:start;text-anchor:start;fill:#000000;font-family:Arial"
         y="122.5"
         x="8.75"
         xml:space="preserve">be run in workers together with </text>
      <text
         id="text3174"
         style="font-size:16.25px;font-style:normal;font-weight:normal;text-align:start;text-anchor:start;fill:#000000;font-family:Arial"
         y="142.5"
         x="8.75"
         xml:space="preserve">routers in a single node</text>
    </g>
  </g>
</svg>
