<?xml version="1.0" encoding="UTF-8" standalone="no"?>
<!-- Created with Inkscape (http://www.inkscape.org/) -->

<svg
   xmlns:dc="http://purl.org/dc/elements/1.1/"
   xmlns:cc="http://creativecommons.org/ns#"
   xmlns:rdf="http://www.w3.org/1999/02/22-rdf-syntax-ns#"
   xmlns:svg="http://www.w3.org/2000/svg"
   xmlns="http://www.w3.org/2000/svg"
   xmlns:sodipodi="http://sodipodi.sourceforge.net/DTD/sodipodi-0.dtd"
   xmlns:inkscape="http://www.inkscape.org/namespaces/inkscape"
   width="1075.6725"
   height="612.84485"
   id="svg3065"
   version="1.1"
   inkscape:version="0.48.4 r9939"
   sodipodi:docname="crossbar_deployment_07.svg">
  <defs
     id="defs3067" />
  <sodipodi:namedview
     id="base"
     pagecolor="#ffffff"
     bordercolor="#666666"
     borderopacity="1.0"
     inkscape:pageopacity="0.0"
     inkscape:pageshadow="2"
     inkscape:zoom="0.7"
     inkscape:cx="701.75867"
     inkscape:cy="360.80644"
     inkscape:document-units="px"
     inkscape:current-layer="layer1"
     showgrid="false"
     fit-margin-top="10"
     fit-margin-left="10"
     fit-margin-bottom="10"
     fit-margin-right="10"
     inkscape:window-width="1440"
     inkscape:window-height="838"
     inkscape:window-x="-8"
     inkscape:window-y="-8"
     inkscape:window-maximized="1" />
  <metadata
     id="metadata3070">
    <rdf:RDF>
      <cc:Work
         rdf:about="">
        <dc:format>image/svg+xml</dc:format>
        <dc:type
           rdf:resource="http://purl.org/dc/dcmitype/StillImage" />
        <dc:title></dc:title>
      </cc:Work>
    </rdf:RDF>
  </metadata>
  <g
     inkscape:label="Ebene 1"
     inkscape:groupmode="layer"
     id="layer1"
     transform="translate(215.19123,-223.51494)">
    <g
       id="g3995"
       transform="translate(-207.09685,231.63994)">
      <path
         id="path3997"
         d="m 1033.9844,474.375 c 13.0468,0 23.5937,-10.625 23.5937,-23.67188 l 0,0 0,-283.4375 c 0,-13.04687 -10.5469,-23.59374 -23.5937,-23.59374 l 0,0 -812.57815,0 c -13.04687,0 -23.59375,10.54687 -23.59375,23.59374 l 0,283.4375 c 0,13.04688 10.54688,23.67188 23.59375,23.67188 l 0,0 812.57815,0 z"
         style="fill:#d9d9d9;fill-opacity:1;fill-rule:evenodd;stroke:none"
         inkscape:connector-curvature="0" />
      <path
         id="path3999"
         d="m 249.76562,261.71875 0,70.9375 118.125,0 0,-70.9375 -118.125,0 z"
         style="fill:#404040;fill-opacity:1;fill-rule:evenodd;stroke:none"
         inkscape:connector-curvature="0" />
      <text
         id="text4001"
         style="font-size:16.25px;font-style:normal;font-weight:bold;text-align:start;text-anchor:start;fill:#ffc000;font-family:Arial"
         y="292.5"
         x="263.75"
         xml:space="preserve">Application </text>
      <text
         id="text4003"
         style="font-size:16.25px;font-style:normal;font-weight:bold;text-align:start;text-anchor:start;fill:#ffc000;font-family:Arial"
         y="312.5"
         x="280"
         xml:space="preserve">Worker</text>
      <path
         id="path4005"
         d="m 1000.9375,403.51562 c 13.0469,0 23.5937,-10.625 23.5937,-23.67187 l 0,0 0,0 c 0,-13.04687 -10.5468,-23.59375 -23.5937,-23.59375 l 0,0 -118.125,0 c -13.04688,0 -23.59375,10.54688 -23.59375,23.59375 l 0,0 c 0,13.04687 10.54687,23.67187 23.59375,23.67187 l 118.125,0 z"
         style="fill:#8c8c8c;fill-opacity:1;fill-rule:evenodd;stroke:none"
         inkscape:connector-curvature="0" />
      <text
         id="text4007"
         style="font-size:15px;font-style:normal;font-weight:normal;text-align:start;text-anchor:start;fill:#ffffff;font-family:Arial"
         y="383.75"
         x="875"
         xml:space="preserve">Key </text>
      <text
         id="text4009"
         style="font-size:15px;font-style:normal;font-weight:normal;text-align:start;text-anchor:start;fill:#ffffff;font-family:Arial"
         y="383.75"
         x="905"
         xml:space="preserve">&amp; </text>
      <text
         id="text4011"
         style="font-size:15px;font-style:normal;font-weight:normal;text-align:start;text-anchor:start;fill:#ffffff;font-family:Arial"
         y="383.75"
         x="918.75"
         xml:space="preserve">Configuration</text>
      <path
         id="path4013"
         d="m 391.48438,261.71875 0,70.9375 118.125,0 0,-70.9375 -118.125,0 z"
         style="fill:#404040;fill-opacity:1;fill-rule:evenodd;stroke:none"
         inkscape:connector-curvature="0" />
      <text
         id="text4015"
         style="font-size:16.25px;font-style:normal;font-weight:bold;text-align:start;text-anchor:start;fill:#ffc000;font-family:Arial"
         y="292.5"
         x="405"
         xml:space="preserve">Application </text>
      <text
         id="text4017"
         style="font-size:16.25px;font-style:normal;font-weight:bold;text-align:start;text-anchor:start;fill:#ffc000;font-family:Arial"
         y="312.5"
         x="421.25"
         xml:space="preserve">Worker</text>
      <path
         id="path4019"
         d="m 533.20312,261.71875 0,70.9375 118.125,0 0,-70.9375 -118.125,0 z"
         style="fill:#404040;fill-opacity:1;fill-rule:evenodd;stroke:none"
         inkscape:connector-curvature="0" />
      <text
         id="text4021"
         style="font-size:16.25px;font-style:normal;font-weight:normal;text-align:start;text-anchor:start;fill:#ffc000;font-family:Arial"
         y="292.5"
         x="567.5"
         xml:space="preserve">Router</text>
      <text
         id="text4023"
         style="font-size:16.25px;font-style:normal;font-weight:normal;text-align:start;text-anchor:start;fill:#ffc000;font-family:Arial"
         y="312.5"
         x="565"
         xml:space="preserve">Worker</text>
      <path
         id="path4025"
         d="m 674.92188,261.71875 0,70.9375 118.125,0 0,-70.9375 -118.125,0 z"
         style="fill:#404040;fill-opacity:1;fill-rule:evenodd;stroke:none"
         inkscape:connector-curvature="0" />
      <text
         id="text4027"
         style="font-size:16.25px;font-style:normal;font-weight:normal;text-align:start;text-anchor:start;fill:#ffc000;font-family:Arial"
         y="292.5"
         x="708.75"
         xml:space="preserve">Router</text>
      <text
         id="text4029"
         style="font-size:16.25px;font-style:normal;font-weight:normal;text-align:start;text-anchor:start;fill:#ffc000;font-family:Arial"
         y="312.5"
         x="707.5"
         xml:space="preserve">Worker</text>
      <path
         id="path4031"
         d="m 793.04688,403.51562 c 13.04687,0 23.59374,-10.625 23.59374,-23.67187 l 0,0 0,0 c 0,-13.04687 -10.54687,-23.59375 -23.59374,-23.59375 l -252.34376,0 c -13.04687,0 -23.59374,10.54688 -23.59374,23.59375 l 0,0 0,0 c 0,13.04687 10.54687,23.67187 23.59374,23.67187 l 0,0 252.34376,0 z"
         style="fill:#ffc000;fill-opacity:1;fill-rule:evenodd;stroke:none"
         inkscape:connector-curvature="0" />
      <text
         id="text4033"
         style="font-size:15px;font-style:normal;font-weight:normal;text-align:start;text-anchor:start;fill:#000000;font-family:Arial"
         y="383.75"
         x="546.25"
         xml:space="preserve">All Workers listen on same TCP port</text>
      <path
         id="path4035"
         d="m 856.79688,190.85938 0,141.79687 167.73432,0 0,-141.79687 -167.73432,0 z"
         style="fill:#404040;fill-opacity:1;fill-rule:evenodd;stroke:none"
         inkscape:connector-curvature="0" />
      <text
         id="text4037"
         style="font-size:20px;font-style:normal;font-weight:normal;text-align:start;text-anchor:start;fill:#ffc000;font-family:Arial"
         y="267.5"
         x="870"
         xml:space="preserve">Node Controller</text>
      <path
         id="path4039"
         d="m 733.98438,403.51562 -14.14063,14.14063 9.29687,0 0,127.57813 9.6875,0 0,-127.57813 9.375,0 -14.21874,-14.14063 z"
         style="fill:#bfbfbf;fill-opacity:1;fill-rule:evenodd;stroke:none"
         inkscape:connector-curvature="0" />
      <path
         id="path4041"
         d="m 663.125,403.51562 -14.14062,14.14063 9.29687,0 0,127.57813 9.6875,0 0,-127.57813 9.29687,0 -14.14062,-14.14063 z"
         style="fill:#bfbfbf;fill-opacity:1;fill-rule:evenodd;stroke:none"
         inkscape:connector-curvature="0" />
      <path
         id="path4043"
         d="m 592.26562,403.51562 -14.14062,14.14063 9.29688,0 0,127.57813 9.6875,0 0,-127.57813 9.29687,0 -14.14063,-14.14063 z"
         style="fill:#bfbfbf;fill-opacity:1;fill-rule:evenodd;stroke:none"
         inkscape:connector-curvature="0" />
      <path
         id="path4045"
         d="m 1010.3906,96.40625 c 13.0469,0 23.5938,-10.546875 23.5938,-23.59375 l 0,0 0,-47.265625 C 1033.9844,12.5 1023.4375,1.875 1010.3906,1.875 l 0,0 -139.37498,0 c -13.04687,0 -23.67187,10.625 -23.67187,23.671875 l 0,0 0,47.265625 c 0,13.046875 10.625,23.59375 23.67187,23.59375 l 0,0 139.37498,0 z"
         style="fill:#ff6600;fill-opacity:1;fill-rule:evenodd;stroke:none"
         inkscape:connector-curvature="0" />
      <text
         id="text4047"
         style="font-size:20px;font-style:normal;font-weight:normal;text-align:start;text-anchor:start;fill:#ffffff;font-family:Arial"
         y="42.5"
         x="882.5"
         xml:space="preserve">Management</text>
      <text
         id="text4049"
         style="font-size:20px;font-style:normal;font-weight:normal;text-align:start;text-anchor:start;fill:#ffffff;font-family:Arial"
         y="67.5"
         x="907.5"
         xml:space="preserve">Service</text>
      <text
         id="text4051"
         style="font-size:23.75px;font-style:normal;font-weight:bold;text-align:start;text-anchor:start;fill:#404040;font-family:Arial"
         y="457.5"
         x="825"
         xml:space="preserve">Crossbar</text>
      <text
         id="text4053"
         style="font-size:23.75px;font-style:normal;font-weight:bold;text-align:start;text-anchor:start;fill:#404040;font-family:Arial"
         y="457.5"
         x="927.5"
         xml:space="preserve">.</text>
      <text
         id="text4055"
         style="font-size:23.75px;font-style:normal;font-weight:bold;text-align:start;text-anchor:start;fill:#404040;font-family:Arial"
         y="457.5"
         x="933.75"
         xml:space="preserve">io </text>
      <text
         id="text4057"
         style="font-size:23.75px;font-style:normal;font-weight:normal;text-align:start;text-anchor:start;fill:#404040;font-family:Arial"
         y="457.5"
         x="961.25"
         xml:space="preserve">Node</text>
      <path
         id="path4059"
         d="m 940.70312,96.40625 -12.96874,12.96875 8.51562,0 0,81.48438 8.82812,0 0,-81.48438 8.59376,0 -12.96876,-12.96875 z"
         style="fill:#ff6600;fill-opacity:1;fill-rule:evenodd;stroke:none"
         inkscape:connector-curvature="0" />
      <path
         id="path4061"
         d="m 940.70312,96.40625 -12.96874,12.96875 8.51562,0 0,81.48438 8.82812,0 0,-81.48438 8.59376,0 -12.96876,-12.96875 z"
         style="fill:none;stroke:#ff6600;stroke-width:0.390625px;stroke-linecap:round;stroke-linejoin:round;stroke-opacity:1;stroke-dasharray:none"
         inkscape:connector-curvature="0" />
      <path
         id="path4063"
         d="m 659.60938,96.40625 c 13.04687,0 23.59374,-10.546875 23.59374,-23.59375 l 0,0 0,-47.265625 C 683.20312,12.5 672.65625,1.875 659.60938,1.875 l 0,0 -70.85938,0 c -13.04688,0 -23.67188,10.625 -23.67188,23.671875 l 0,0 0,47.265625 c 0,13.046875 10.625,23.59375 23.67188,23.59375 l 70.85938,0 z"
         style="fill:#d9d9d9;fill-opacity:1;fill-rule:evenodd;stroke:none"
         inkscape:connector-curvature="0" />
      <text
         id="text4065"
         style="font-size:16.25px;font-style:normal;font-weight:bold;text-align:start;text-anchor:start;fill:#595959;font-family:Arial"
         y="43.75"
         x="577.5"
         xml:space="preserve">Crossbar</text>
      <text
         id="text4067"
         style="font-size:16.25px;font-style:normal;font-weight:bold;text-align:start;text-anchor:start;fill:#595959;font-family:Arial"
         y="43.75"
         x="651.25"
         xml:space="preserve">.</text>
      <text
         id="text4069"
         style="font-size:16.25px;font-style:normal;font-weight:bold;text-align:start;text-anchor:start;fill:#595959;font-family:Arial"
         y="43.75"
         x="655"
         xml:space="preserve">io</text>
      <text
         id="text4071"
         style="font-size:16.25px;font-style:normal;font-weight:normal;text-align:start;text-anchor:start;fill:#595959;font-family:Arial"
         y="63.75"
         x="603.75"
         xml:space="preserve">Node</text>
      <path
         id="path4073"
         d="M 309.21875,238.125 295,248.75 l 9.375,0 0,12.96875 9.60938,0 0,-12.96875 9.375,0 -14.14063,-10.625 z"
         style="fill:#737373;fill-opacity:1;fill-rule:evenodd;stroke:none"
         inkscape:connector-curvature="0" />
      <path
         id="path4075"
         d="m 450.9375,238.125 -14.21875,10.625 9.375,0 0,12.96875 9.6875,0 0,-12.96875 9.29687,0 -14.14062,-10.625 z"
         style="fill:#737373;fill-opacity:1;fill-rule:evenodd;stroke:none"
         inkscape:connector-curvature="0" />
      <path
         id="path4077"
         d="m 592.26562,332.65625 -14.14062,10.625 9.29688,0 0,12.96875 9.6875,0 0,-12.96875 9.29687,0 -14.14063,-10.625 z"
         style="fill:#737373;fill-opacity:1;fill-rule:evenodd;stroke:none"
         inkscape:connector-curvature="0" />
      <path
         id="path4079"
         d="m 563.90625,238.125 -14.14063,10.625 9.29688,0 0,12.96875 9.6875,0 0,-12.96875 9.375,0 -14.21875,-10.625 z"
         style="fill:#737373;fill-opacity:1;fill-rule:evenodd;stroke:none"
         inkscape:connector-curvature="0" />
      <path
         id="path4081"
         d="m 622.96875,96.40625 -14.14063,14.14063 9.29688,0 0,151.17187 9.6875,0 0,-151.17187 9.29688,0 -14.14063,-14.14063 z"
         style="fill:#737373;fill-opacity:1;fill-rule:evenodd;stroke:none"
         inkscape:connector-curvature="0" />
      <path
         id="path4083"
         d="m 733.98438,332.65625 -14.14063,10.625 9.29687,0 0,12.96875 9.6875,0 0,-12.96875 9.375,0 -14.21874,-10.625 z"
         style="fill:#737373;fill-opacity:1;fill-rule:evenodd;stroke:none"
         inkscape:connector-curvature="0" />
      <path
         id="path4085"
         d="m 705.625,238.125 -14.14062,10.625 9.375,0 0,12.96875 9.60937,0 0,-12.96875 9.375,0 -14.21875,-10.625 z"
         style="fill:#737373;fill-opacity:1;fill-rule:evenodd;stroke:none"
         inkscape:connector-curvature="0" />
      <path
         id="path4087"
         d="m 764.6875,96.40625 -14.14062,14.14063 9.375,0 0,151.17187 9.60937,0 0,-151.17187 9.375,0 -14.21875,-14.14063 z"
         style="fill:#737373;fill-opacity:1;fill-rule:evenodd;stroke:none"
         inkscape:connector-curvature="0" />
      <path
         id="path4089"
         d="m 793.04688,238.125 c 13.04687,0 23.59374,-10.54688 23.59374,-23.59375 l 0,0 0,0 c 0,-13.04687 -10.54687,-23.67187 -23.59374,-23.67187 l -543.28126,0 c -13.04687,0 -23.67187,10.625 -23.67187,23.67187 l 0,0 0,0 c 0,13.04687 10.625,23.59375 23.67187,23.59375 l 0,0 543.28126,0 z"
         style="fill:#ffc000;fill-opacity:1;fill-rule:evenodd;stroke:none"
         inkscape:connector-curvature="0" />
      <text
         id="text4091"
         style="font-size:15px;font-style:normal;font-weight:normal;text-align:start;text-anchor:start;fill:#000000;font-family:Arial"
         y="218.75"
         x="341.25"
         xml:space="preserve">WAMP over Unix Domain Socket or Loopback TCP</text>
      <text
         id="text4093"
         style="font-size:15px;font-style:normal;font-weight:normal;text-align:start;text-anchor:start;fill:#000000;font-family:Arial"
         y="218.75"
         x="682.5"
         xml:space="preserve">/</text>
      <text
         id="text4095"
         style="font-size:15px;font-style:normal;font-weight:normal;text-align:start;text-anchor:start;fill:#000000;font-family:Arial"
         y="218.75"
         x="686.25"
         xml:space="preserve">IP</text>
      <path
         id="path4097"
         d="m 800.15625,96.40625 c 13.04687,0 23.59375,-10.546875 23.59375,-23.59375 l 0,0 0,-47.265625 C 823.75,12.5 813.20312,1.875 800.15625,1.875 l 0,0 -70.85937,0 C 716.25,1.875 705.625,12.5 705.625,25.546875 l 0,0 0,47.265625 c 0,13.046875 10.625,23.59375 23.67188,23.59375 l 0,0 70.85937,0 z"
         style="fill:#d9d9d9;fill-opacity:1;fill-rule:evenodd;stroke:none"
         inkscape:connector-curvature="0" />
      <text
         id="text4099"
         style="font-size:16.25px;font-style:normal;font-weight:bold;text-align:start;text-anchor:start;fill:#595959;font-family:Arial"
         y="43.75"
         x="718.75"
         xml:space="preserve">Crossbar</text>
      <text
         id="text4101"
         style="font-size:16.25px;font-style:normal;font-weight:bold;text-align:start;text-anchor:start;fill:#595959;font-family:Arial"
         y="43.75"
         x="791.25"
         xml:space="preserve">.</text>
      <text
         id="text4103"
         style="font-size:16.25px;font-style:normal;font-weight:bold;text-align:start;text-anchor:start;fill:#595959;font-family:Arial"
         y="43.75"
         x="796.25"
         xml:space="preserve">io</text>
      <text
         id="text4105"
         style="font-size:16.25px;font-style:normal;font-weight:normal;text-align:start;text-anchor:start;fill:#595959;font-family:Arial"
         y="63.75"
         x="745"
         xml:space="preserve">Node</text>
      <text
         id="text4107"
         style="font-size:23.75px;font-style:normal;font-weight:normal;text-align:start;text-anchor:start;fill:#000000;font-family:Arial"
         y="590"
         x="577.5"
         xml:space="preserve">Application Clients</text>
      <path
         id="path4109"
         d="m 2.109375,119.76562 0,-27.499995 273.984375,0 0,73.203125 -108.59375,0 82.26562,131.71875 -138.98437,-131.71875 -108.671875,0 0,-45.70313 z"
         style="fill:#ffffff;fill-opacity:1;fill-rule:evenodd;stroke:none"
         inkscape:connector-curvature="0" />
      <path
         id="path4111"
         d="m 2.109375,119.76562 0,-27.499995 273.984375,0 0,73.203125 -108.59375,0 82.26562,131.71875 -138.98437,-131.71875 -108.671875,0 0,-45.70313 z"
         style="fill:none;stroke:#000000;stroke-width:0.390625px;stroke-linecap:round;stroke-linejoin:round;stroke-opacity:1;stroke-dasharray:none"
         inkscape:connector-curvature="0" />
      <text
         id="text4113"
         style="font-size:16.25px;font-style:normal;font-weight:normal;text-align:start;text-anchor:start;fill:#000000;font-family:Arial"
         y="113.75"
         x="18.75"
         xml:space="preserve">Multiple application components</text>
      <text
         id="text4115"
         style="font-size:16.25px;font-style:normal;font-weight:normal;text-align:start;text-anchor:start;fill:#000000;font-family:Arial"
         y="113.75"
         x="255"
         xml:space="preserve">, </text>
      <text
         id="text4117"
         style="font-size:16.25px;font-style:normal;font-weight:normal;text-align:start;text-anchor:start;fill:#000000;font-family:Arial"
         y="133.75"
         x="10"
         xml:space="preserve">optionally together with routers can </text>
      <text
         id="text4119"
         style="font-size:16.25px;font-style:normal;font-weight:normal;text-align:start;text-anchor:start;fill:#000000;font-family:Arial"
         y="153.75"
         x="76.25"
         xml:space="preserve">be run on a node</text>
    </g>
  </g>
</svg>
