<?xml version="1.0" encoding="UTF-8" standalone="no"?>
<!-- Created with Inkscape (http://www.inkscape.org/) -->

<svg
   xmlns:dc="http://purl.org/dc/elements/1.1/"
   xmlns:cc="http://creativecommons.org/ns#"
   xmlns:rdf="http://www.w3.org/1999/02/22-rdf-syntax-ns#"
   xmlns:svg="http://www.w3.org/2000/svg"
   xmlns="http://www.w3.org/2000/svg"
   xmlns:sodipodi="http://sodipodi.sourceforge.net/DTD/sodipodi-0.dtd"
   xmlns:inkscape="http://www.inkscape.org/namespaces/inkscape"
   width="879.84375"
   height="612.84485"
   id="svg3065"
   version="1.1"
   inkscape:version="0.48.4 r9939"
   sodipodi:docname="crossbar_deployment_02.svg">
  <defs
     id="defs3067" />
  <sodipodi:namedview
     id="base"
     pagecolor="#ffffff"
     bordercolor="#666666"
     borderopacity="1.0"
     inkscape:pageopacity="0.0"
     inkscape:pageshadow="2"
     inkscape:zoom="0.98994949"
     inkscape:cx="426.09324"
     inkscape:cy="352.17132"
     inkscape:document-units="px"
     inkscape:current-layer="layer1"
     showgrid="false"
     fit-margin-top="10"
     fit-margin-left="10"
     fit-margin-bottom="10"
     fit-margin-right="10"
     inkscape:window-width="1440"
     inkscape:window-height="838"
     inkscape:window-x="-8"
     inkscape:window-y="-8"
     inkscape:window-maximized="1" />
  <metadata
     id="metadata3070">
    <rdf:RDF>
      <cc:Work
         rdf:about="">
        <dc:format>image/svg+xml</dc:format>
        <dc:type
           rdf:resource="http://purl.org/dc/dcmitype/StillImage" />
        <dc:title />
      </cc:Work>
    </rdf:RDF>
  </metadata>
  <g
     inkscape:label="Ebene 1"
     inkscape:groupmode="layer"
     id="layer1"
     transform="translate(-47.299107,-263.79076)">
    <g
       id="g3021"
       transform="translate(55.424107,271.91576)">
      <path
         id="path3023"
         d="m 838.125,474.375 c 13.04688,0 23.59375,-10.625 23.59375,-23.67188 l 0,0 0,-283.4375 c 0,-13.04687 -10.54687,-23.59374 -23.59375,-23.59374 l 0,0 -812.578125,0 C 12.5,143.67188 1.875,154.21875 1.875,167.26562 l 0,283.4375 C 1.875,463.75 12.5,474.375 25.546875,474.375 l 0,0 812.578125,0 z"
         style="fill:#d9d9d9;fill-opacity:1;fill-rule:evenodd;stroke:none"
         inkscape:connector-curvature="0" />
      <path
         id="path3025"
         d="m 805.07812,403.51562 c 13.04688,0 23.59376,-10.625 23.59376,-23.67187 l 0,0 0,0 c 0,-13.04687 -10.54688,-23.59375 -23.59376,-23.59375 l -118.125,0 c -13.04687,0 -23.59374,10.54688 -23.59374,23.59375 l 0,0 c 0,13.04687 10.54687,23.67187 23.59374,23.67187 l 0,0 118.125,0 z"
         style="fill:#8c8c8c;fill-opacity:1;fill-rule:evenodd;stroke:none"
         inkscape:connector-curvature="0" />
      <text
         id="text3027"
         style="font-size:15px;font-style:normal;font-weight:normal;text-align:start;text-anchor:start;fill:#ffffff;font-family:Arial"
         y="383.75"
         x="678.75"
         xml:space="preserve">Key </text>
      <text
         id="text3029"
         style="font-size:15px;font-style:normal;font-weight:normal;text-align:start;text-anchor:start;fill:#ffffff;font-family:Arial"
         y="383.75"
         x="708.75"
         xml:space="preserve">&amp; </text>
      <text
         id="text3031"
         style="font-size:15px;font-style:normal;font-weight:normal;text-align:start;text-anchor:start;fill:#ffffff;font-family:Arial"
         y="383.75"
         x="723.75"
         xml:space="preserve">Configuration</text>
      <path
         id="path3033"
         d="m 410.9375,261.71875 0,70.9375 118.125,0 0,-70.9375 -118.125,0 z"
         style="fill:#404040;fill-opacity:1;fill-rule:evenodd;stroke:none"
         inkscape:connector-curvature="0" />
      <text
         id="text3035"
         style="font-size:16.25px;font-style:normal;font-weight:bold;text-align:start;text-anchor:start;fill:#ffc000;font-family:Arial"
         y="292.5"
         x="443.75"
         xml:space="preserve">Router</text>
      <text
         id="text3037"
         style="font-size:16.25px;font-style:normal;font-weight:normal;text-align:start;text-anchor:start;fill:#ffc000;font-family:Arial"
         y="312.5"
         x="443.75"
         xml:space="preserve">Worker</text>
      <path
         id="path3039"
         d="m 597.1875,403.51562 c 13.04688,0 23.59375,-10.625 23.59375,-23.67187 l 0,0 0,0 c 0,-13.04687 -10.54687,-23.59375 -23.59375,-23.59375 l 0,0 -252.34375,0 c -13.04687,0 -23.67187,10.54688 -23.67187,23.59375 l 0,0 c 0,13.04687 10.625,23.67187 23.67187,23.67187 l 252.34375,0 z"
         style="fill:#ffc000;fill-opacity:1;fill-rule:evenodd;stroke:none"
         inkscape:connector-curvature="0" />
      <text
         id="text3041"
         style="font-size:15px;font-style:normal;font-weight:normal;text-align:start;text-anchor:start;fill:#000000;font-family:Arial"
         y="383.75"
         x="391.25"
         xml:space="preserve">One or more Transports</text>
      <path
         id="path3043"
         d="m 660.9375,190.85938 0,141.79687 167.73438,0 0,-141.79687 -167.73438,0 z"
         style="fill:#404040;fill-opacity:1;fill-rule:evenodd;stroke:none"
         inkscape:connector-curvature="0" />
      <text
         id="text3045"
         style="font-size:20px;font-style:normal;font-weight:normal;text-align:start;text-anchor:start;fill:#ffc000;font-family:Arial"
         y="256.25"
         x="721.25"
         xml:space="preserve">Node</text>
      <text
         id="text3047"
         style="font-size:20px;font-style:normal;font-weight:normal;text-align:start;text-anchor:start;fill:#ffc000;font-family:Arial"
         y="280"
         x="701.25"
         xml:space="preserve">Controller</text>
      <path
         id="path3049"
         d="m 538.125,403.51562 -14.14062,14.14063 9.29687,0 0,127.57813 9.6875,0 0,-127.57813 9.375,0 -14.21875,-14.14063 z"
         style="fill:#bfbfbf;fill-opacity:1;fill-rule:evenodd;stroke:none"
         inkscape:connector-curvature="0" />
      <path
         id="path3051"
         d="m 467.26562,403.51562 -14.14062,14.14063 9.29688,0 0,127.57813 9.6875,0 0,-127.57813 9.29687,0 -14.14063,-14.14063 z"
         style="fill:#bfbfbf;fill-opacity:1;fill-rule:evenodd;stroke:none"
         inkscape:connector-curvature="0" />
      <path
         id="path3053"
         d="m 396.40625,403.51562 -14.14063,14.14063 9.29688,0 0,127.57813 9.6875,0 0,-127.57813 9.29688,0 -14.14063,-14.14063 z"
         style="fill:#bfbfbf;fill-opacity:1;fill-rule:evenodd;stroke:none"
         inkscape:connector-curvature="0" />
      <path
         id="path3055"
         d="m 814.53125,96.40625 c 13.04687,0 23.59375,-10.546875 23.59375,-23.59375 l 0,0 0,-47.265625 C 838.125,12.5 827.57812,1.875 814.53125,1.875 l 0,0 -139.375,0 c -13.04687,0 -23.67187,10.625 -23.67187,23.671875 l 0,0 0,47.265625 c 0,13.046875 10.625,23.59375 23.67187,23.59375 l 0,0 139.375,0 z"
         style="fill:#ff6600;fill-opacity:1;fill-rule:evenodd;stroke:none"
         inkscape:connector-curvature="0" />
      <text
         id="text3057"
         style="font-size:20px;font-style:normal;font-weight:normal;text-align:start;text-anchor:start;fill:#ffffff;font-family:Arial"
         y="42.5"
         x="686.25"
         xml:space="preserve">Management</text>
      <text
         id="text3059"
         style="font-size:20px;font-style:normal;font-weight:normal;text-align:start;text-anchor:start;fill:#ffffff;font-family:Arial"
         y="67.5"
         x="711.25"
         xml:space="preserve">Service</text>
      <text
         id="text3061"
         style="font-size:23.75px;font-style:normal;font-weight:bold;text-align:start;text-anchor:start;fill:#404040;font-family:Arial"
         y="457.5"
         x="628.75"
         xml:space="preserve">Crossbar</text>
      <text
         id="text3063"
         style="font-size:23.75px;font-style:normal;font-weight:bold;text-align:start;text-anchor:start;fill:#404040;font-family:Arial"
         y="457.5"
         x="731.25"
         xml:space="preserve">.</text>
      <text
         id="text3065"
         style="font-size:23.75px;font-style:normal;font-weight:bold;text-align:start;text-anchor:start;fill:#404040;font-family:Arial"
         y="457.5"
         x="737.5"
         xml:space="preserve">io </text>
      <text
         id="text3067"
         style="font-size:23.75px;font-style:normal;font-weight:normal;text-align:start;text-anchor:start;fill:#404040;font-family:Arial"
         y="457.5"
         x="765"
         xml:space="preserve">Node</text>
      <path
         id="path3069"
         d="M 744.84375,96.40625 731.875,109.375 l 8.51562,0 0,81.48438 8.82813,0 0,-81.48438 8.59375,0 -12.96875,-12.96875 z"
         style="fill:#ff6600;fill-opacity:1;fill-rule:evenodd;stroke:none"
         inkscape:connector-curvature="0" />
      <path
         id="path3071"
         d="M 744.84375,96.40625 731.875,109.375 l 8.51562,0 0,81.48438 8.82813,0 0,-81.48438 8.59375,0 -12.96875,-12.96875 z"
         style="fill:none;stroke:#ff6600;stroke-width:0.390625px;stroke-linecap:round;stroke-linejoin:round;stroke-opacity:1;stroke-dasharray:none"
         inkscape:connector-curvature="0" />
      <path
         id="path3073"
         d="m 470,332.65625 -14.14062,10.625 9.375,0 0,12.96875 9.60937,0 0,-12.96875 9.375,0 L 470,332.65625 z"
         style="fill:#737373;fill-opacity:1;fill-rule:evenodd;stroke:none"
         inkscape:connector-curvature="0" />
      <text
         id="text3075"
         style="font-size:23.75px;font-style:normal;font-weight:normal;text-align:start;text-anchor:start;fill:#000000;font-family:Arial"
         y="590"
         x="381.25"
         xml:space="preserve">Application Clients</text>
      <path
         id="path3077"
         d="m 148.75,202.89062 0,-22.65624 236.25,0 0,60.23437 -89.76562,0 115.70312,56.71875 -172.42188,-56.71875 -89.76562,0 0,-37.57813 z"
         style="fill:#ffffff;fill-opacity:1;fill-rule:evenodd;stroke:none"
         inkscape:connector-curvature="0" />
      <path
         id="path3079"
         d="m 148.75,202.89062 0,-22.65624 236.25,0 0,60.23437 -89.76562,0 115.70312,56.71875 -172.42188,-56.71875 -89.76562,0 0,-37.57813 z"
         style="fill:none;stroke:#000000;stroke-width:0.390625px;stroke-linecap:round;stroke-linejoin:round;stroke-opacity:1;stroke-dasharray:none"
         inkscape:connector-curvature="0" />
      <text
         id="text3081"
         style="font-size:16.25px;font-style:normal;font-weight:normal;text-align:start;text-anchor:start;fill:#000000;font-family:Arial"
         y="205"
         x="155"
         xml:space="preserve">A node can host one or more </text>
      <text
         id="text3083"
         style="font-size:16.25px;font-style:normal;font-weight:normal;text-align:start;text-anchor:start;fill:#000000;font-family:Arial"
         y="225"
         x="155"
         xml:space="preserve">workers</text>
      <text
         id="text3085"
         style="font-size:16.25px;font-style:normal;font-weight:normal;text-align:start;text-anchor:start;fill:#000000;font-family:Arial"
         y="225"
         x="213.75"
         xml:space="preserve">, </text>
      <text
         id="text3087"
         style="font-size:16.25px;font-style:normal;font-weight:normal;text-align:start;text-anchor:start;fill:#000000;font-family:Arial"
         y="225"
         x="222.5"
         xml:space="preserve">like WAMP routers</text>
    </g>
  </g>
</svg>
