<?xml version="1.0" encoding="UTF-8" standalone="no"?>
<!-- Created with Inkscape (http://www.inkscape.org/) -->

<svg
   xmlns:dc="http://purl.org/dc/elements/1.1/"
   xmlns:cc="http://creativecommons.org/ns#"
   xmlns:rdf="http://www.w3.org/1999/02/22-rdf-syntax-ns#"
   xmlns:svg="http://www.w3.org/2000/svg"
   xmlns="http://www.w3.org/2000/svg"
   xmlns:sodipodi="http://sodipodi.sourceforge.net/DTD/sodipodi-0.dtd"
   xmlns:inkscape="http://www.inkscape.org/namespaces/inkscape"
   width="1086.7419"
   height="613.17828"
   id="svg3065"
   version="1.1"
   inkscape:version="0.48.4 r9939"
   sodipodi:docname="crossbar_deployment_03.svg">
  <defs
     id="defs3067" />
  <sodipodi:namedview
     id="base"
     pagecolor="#ffffff"
     bordercolor="#666666"
     borderopacity="1.0"
     inkscape:pageopacity="0.0"
     inkscape:pageshadow="2"
     inkscape:zoom="0.7"
     inkscape:cx="617.79681"
     inkscape:cy="352.66526"
     inkscape:document-units="px"
     inkscape:current-layer="layer1"
     showgrid="false"
     fit-margin-top="10"
     fit-margin-left="10"
     fit-margin-bottom="10"
     fit-margin-right="10"
     inkscape:window-width="1680"
     inkscape:window-height="988"
     inkscape:window-x="-8"
     inkscape:window-y="320"
     inkscape:window-maximized="1" />
  <metadata
     id="metadata3070">
    <rdf:RDF>
      <cc:Work
         rdf:about="">
        <dc:format>image/svg+xml</dc:format>
        <dc:type
           rdf:resource="http://purl.org/dc/dcmitype/StillImage" />
        <dc:title />
      </cc:Work>
    </rdf:RDF>
  </metadata>
  <g
     inkscape:label="Ebene 1"
     inkscape:groupmode="layer"
     id="layer1"
     transform="translate(131.22936,-443.61174)">
    <g
       id="g3034"
       transform="translate(-123.13498,451.73569)">
      <path
         id="path3036"
         d="m 1045.0406,474.64183 c 13.0542,0 23.607,-10.63098 23.607,-23.68519 l 0,0 0,-283.59693 c 0,-13.05422 -10.5528,-23.60702 -23.607,-23.60702 l 0,0 -813.11334,0 c -13.05422,0 -23.60703,10.5528 -23.60703,23.60702 l 0,283.59693 c 0,13.05421 10.55281,23.68519 23.60703,23.68519 l 0,0 813.11334,0 z"
         style="fill:#d9d9d9;fill-opacity:1;fill-rule:evenodd;stroke:none"
         inkscape:connector-curvature="0" />
      <path
         id="path3038"
         d="m 260.30258,261.86596 0,70.9774 118.19144,0 0,-70.9774 -118.19144,0 z"
         style="fill:#404040;fill-opacity:1;fill-rule:evenodd;stroke:none"
         inkscape:connector-curvature="0" />
      <text
         id="text3040"
         style="font-size:15.00843716px;font-style:normal;font-weight:bold;text-align:start;text-anchor:start;fill:#ffc000;font-family:Arial"
         y="292.66452"
         x="297.66733"
         xml:space="preserve">Guest</text>
      <text
         id="text3042"
         style="font-size:15.00843716px;font-style:normal;font-weight:normal;text-align:start;text-anchor:start;fill:#ffc000;font-family:Arial"
         y="311.42508"
         x="295.16592"
         xml:space="preserve">Worker</text>
      <path
         id="path3044"
         d="m 1011.897,403.74259 c 13.0542,0 23.6852,-10.63097 23.6852,-23.68519 l 0,0 0,0 c 0,-13.05421 -10.631,-23.60702 -23.6852,-23.60702 l 0,0 -118.1133,0 c -13.05421,0 -23.68519,10.55281 -23.68519,23.60702 l 0,0 c 0,13.05422 10.63098,23.68519 23.68519,23.68519 l 0,0 118.1133,0 z"
         style="fill:#8c8c8c;fill-opacity:1;fill-rule:evenodd;stroke:none"
         inkscape:connector-curvature="0" />
      <text
         id="text3046"
         style="font-size:15.00843716px;font-style:normal;font-weight:normal;text-align:start;text-anchor:start;fill:#ffffff;font-family:Arial"
         y="383.96585"
         x="885.4978"
         xml:space="preserve">Key </text>
      <text
         id="text3048"
         style="font-size:15.00843716px;font-style:normal;font-weight:normal;text-align:start;text-anchor:start;fill:#ffffff;font-family:Arial"
         y="383.96585"
         x="915.51465"
         xml:space="preserve">&amp; </text>
      <text
         id="text3050"
         style="font-size:15.00843716px;font-style:normal;font-weight:normal;text-align:start;text-anchor:start;fill:#ffffff;font-family:Arial"
         y="383.96585"
         x="930.52307"
         xml:space="preserve">Configuration</text>
      <path
         id="path3052"
         d="m 402.10105,261.86596 0,70.9774 115.29919,0 0,-70.9774 -115.29919,0 z"
         style="fill:#404040;fill-opacity:1;fill-rule:evenodd;stroke:none"
         inkscape:connector-curvature="0" />
      <text
         id="text3054"
         style="font-size:15.00843716px;font-style:normal;font-weight:bold;text-align:start;text-anchor:start;fill:#ffc000;font-family:Arial"
         y="292.66452"
         x="425.23904"
         xml:space="preserve">Container</text>
      <text
         id="text3056"
         style="font-size:15.00843716px;font-style:normal;font-weight:normal;text-align:start;text-anchor:start;fill:#ffc000;font-family:Arial"
         y="311.42508"
         x="435.24469"
         xml:space="preserve">Worker</text>
      <path
         id="path3058"
         d="m 616.59663,261.86596 0,70.9774 118.19144,0 0,-70.9774 -118.19144,0 z"
         style="fill:#404040;fill-opacity:1;fill-rule:evenodd;stroke:none"
         inkscape:connector-curvature="0" />
      <text
         id="text3060"
         style="font-size:16.25914001px;font-style:normal;font-weight:bold;text-align:start;text-anchor:start;fill:#ffc000;font-family:Arial"
         y="292.66452"
         x="649.11493"
         xml:space="preserve">Router</text>
      <text
         id="text3062"
         style="font-size:16.25914001px;font-style:normal;font-weight:normal;text-align:start;text-anchor:start;fill:#ffc000;font-family:Arial"
         y="312.67578"
         x="649.11493"
         xml:space="preserve">Worker</text>
      <path
         id="path3064"
         d="m 803.96758,403.74259 c 13.05422,0 23.60703,-10.63097 23.60703,-23.68519 l 0,0 0,0 c 0,-13.05421 -10.55281,-23.60702 -23.60703,-23.60702 l -252.56385,0 c -13.05422,0 -23.60702,10.55281 -23.60702,23.60702 l 0,0 c 0,13.05422 10.5528,23.68519 23.60702,23.68519 l 252.56385,0 z"
         style="fill:#ffc000;fill-opacity:1;fill-rule:evenodd;stroke:none"
         inkscape:connector-curvature="0" />
      <text
         id="text3066"
         style="font-size:15.00843716px;font-style:normal;font-weight:normal;text-align:start;text-anchor:start;fill:#000000;font-family:Arial"
         y="383.96585"
         x="597.83606"
         xml:space="preserve">One or more Transports</text>
      <path
         id="path3068"
         d="m 867.75344,190.96673 0,141.87663 167.82876,0 0,-141.87663 -167.82876,0 z"
         style="fill:#404040;fill-opacity:1;fill-rule:evenodd;stroke:none"
         inkscape:connector-curvature="0" />
      <text
         id="text3070"
         style="font-size:20.01124954px;font-style:normal;font-weight:normal;text-align:start;text-anchor:start;fill:#ffc000;font-family:Arial"
         y="256.39413"
         x="928.02173"
         xml:space="preserve">Node</text>
      <text
         id="text3072"
         style="font-size:20.01124954px;font-style:normal;font-weight:normal;text-align:start;text-anchor:start;fill:#ffc000;font-family:Arial"
         y="280.1575"
         x="908.01044"
         xml:space="preserve">Controller</text>
      <path
         id="path3074"
         d="m 744.87186,403.74259 -14.22674,14.14858 9.38027,0 0,127.64989 9.61478,0 0,-127.64989 9.38027,0 -14.14858,-14.14858 z"
         style="fill:#bfbfbf;fill-opacity:1;fill-rule:evenodd;stroke:none"
         inkscape:connector-curvature="0" />
      <path
         id="path3076"
         d="m 673.97263,403.74259 -14.22675,14.14858 9.38028,0 0,127.64989 9.61478,0 0,-127.64989 9.38027,0 -14.14858,-14.14858 z"
         style="fill:#bfbfbf;fill-opacity:1;fill-rule:evenodd;stroke:none"
         inkscape:connector-curvature="0" />
      <path
         id="path3078"
         d="m 602.99523,403.74259 -14.14858,14.14858 9.38027,0 0,127.64989 9.61478,0 0,-127.64989 9.38028,0 -14.22675,-14.14858 z"
         style="fill:#bfbfbf;fill-opacity:1;fill-rule:evenodd;stroke:none"
         inkscape:connector-curvature="0" />
      <path
         id="path3080"
         d="m 1021.3554,96.460476 c 13.0542,0 23.6852,-10.552807 23.6852,-23.607021 l 0,0 0,-47.29221 c 0,-13.054214 -10.631,-23.6851904 -23.6852,-23.6851904 l 0,0 -139.45338,0 c -13.05421,0 -23.60702,10.6309764 -23.60702,23.6851904 l 0,0 0,47.29221 c 0,13.054214 10.55281,23.607021 23.60702,23.607021 l 0,0 139.45338,0 z"
         style="fill:#ff6600;fill-opacity:1;fill-rule:evenodd;stroke:none"
         inkscape:connector-curvature="0" />
      <text
         id="text3082"
         style="font-size:20.01124954px;font-style:normal;font-weight:normal;text-align:start;text-anchor:start;fill:#ffffff;font-family:Arial"
         y="42.523907"
         x="893.00201"
         xml:space="preserve">Management</text>
      <text
         id="text3084"
         style="font-size:20.01124954px;font-style:normal;font-weight:normal;text-align:start;text-anchor:start;fill:#ffffff;font-family:Arial"
         y="67.537964"
         x="918.01605"
         xml:space="preserve">Service</text>
      <text
         id="text3086"
         style="font-size:23.76335907px;font-style:normal;font-weight:bold;text-align:start;text-anchor:start;fill:#404040;font-family:Arial"
         y="457.75732"
         x="835.46967"
         xml:space="preserve">Crossbar</text>
      <text
         id="text3088"
         style="font-size:23.76335907px;font-style:normal;font-weight:bold;text-align:start;text-anchor:start;fill:#404040;font-family:Arial"
         y="457.75732"
         x="938.02734"
         xml:space="preserve">.</text>
      <text
         id="text3090"
         style="font-size:23.76335907px;font-style:normal;font-weight:bold;text-align:start;text-anchor:start;fill:#404040;font-family:Arial"
         y="457.75732"
         x="944.28082"
         xml:space="preserve">io </text>
      <text
         id="text3092"
         style="font-size:23.76335907px;font-style:normal;font-weight:normal;text-align:start;text-anchor:start;fill:#404040;font-family:Arial"
         y="457.75732"
         x="971.79633"
         xml:space="preserve">Node</text>
      <path
         id="path3094"
         d="m 951.62872,96.460476 -12.97605,12.976044 8.59859,0 0,81.53021 8.83309,0 0,-81.53021 8.52041,0 -12.97604,-12.976044 z"
         style="fill:#ff6600;fill-opacity:1;fill-rule:evenodd;stroke:none"
         inkscape:connector-curvature="0" />
      <path
         id="path3096"
         d="m 951.62872,96.460476 -12.97605,12.976044 8.59859,0 0,81.53021 8.83309,0 0,-81.53021 8.52041,0 -12.97604,-12.976044 z"
         style="fill:none;stroke:#ff6600;stroke-width:0.3908447px;stroke-linecap:round;stroke-linejoin:round;stroke-opacity:1;stroke-dasharray:none"
         inkscape:connector-curvature="0" />
      <path
         id="path3098"
         d="m 319.78915,238.25894 -14.14858,10.63098 9.38027,0 0,12.97604 9.61478,0 0,-12.97604 9.38028,0 -14.22675,-10.63098 z"
         style="fill:#737373;fill-opacity:1;fill-rule:evenodd;stroke:none"
         inkscape:connector-curvature="0" />
      <path
         id="path3100"
         d="m 461.58761,238.25894 -14.14858,10.63098 9.38028,0 0,12.97604 9.61478,0 0,-12.97604 9.38027,0 -14.22675,-10.63098 z"
         style="fill:#737373;fill-opacity:1;fill-rule:evenodd;stroke:none"
         inkscape:connector-curvature="0" />
      <path
         id="path3102"
         d="m 675.69235,332.84336 -14.14858,10.63098 9.38027,0 0,12.97604 9.61478,0 0,-12.97604 9.38028,0 -14.22675,-10.63098 z"
         style="fill:#737373;fill-opacity:1;fill-rule:evenodd;stroke:none"
         inkscape:connector-curvature="0" />
      <path
         id="path3104"
         d="m 675.14517,238.25894 -14.22675,10.63098 9.38027,0 0,12.97604 9.69295,0 0,-12.97604 9.3021,0 -14.14857,-10.63098 z"
         style="fill:#737373;fill-opacity:1;fill-rule:evenodd;stroke:none"
         inkscape:connector-curvature="0" />
      <path
         id="path3106"
         d="m 803.96758,238.25894 c 13.05422,0 23.60703,-10.55281 23.60703,-23.60702 l 0,0 0,0 c 0,-13.05421 -10.55281,-23.68519 -23.60703,-23.68519 l -543.665,0 c -13.05421,0 -23.60702,10.63098 -23.60702,23.68519 l 0,0 c 0,13.05421 10.55281,23.60702 23.60702,23.60702 l 0,0 543.665,0 z"
         style="fill:#ffc000;fill-opacity:1;fill-rule:evenodd;stroke:none"
         inkscape:connector-curvature="0" />
      <text
         id="text3108"
         style="font-size:15.00843716px;font-style:normal;font-weight:normal;text-align:start;text-anchor:start;fill:#000000;font-family:Arial"
         y="218.87305"
         x="352.69827"
         xml:space="preserve">WAMP over Unix Domain Socket or Loopback TCP</text>
      <text
         id="text3110"
         style="font-size:15.00843716px;font-style:normal;font-weight:normal;text-align:start;text-anchor:start;fill:#000000;font-family:Arial"
         y="218.87305"
         x="692.88953"
         xml:space="preserve">/</text>
      <text
         id="text3112"
         style="font-size:15.00843716px;font-style:normal;font-weight:normal;text-align:start;text-anchor:start;fill:#000000;font-family:Arial"
         y="218.87305"
         x="697.89233"
         xml:space="preserve">IP</text>
      <text
         id="text3114"
         style="font-size:23.76335907px;font-style:normal;font-weight:normal;text-align:start;text-anchor:start;fill:#000000;font-family:Arial"
         y="590.33185"
         x="587.83044"
         xml:space="preserve">Application Clients</text>
      <path
         id="path3116"
         d="m 2.1105615,104.90272 0,-36.426725 284.6131185,0 0,97.085825 -113.97031,0 87.54921,131.79284 -144.2217,-131.79284 -113.9703185,0 0,-60.6591 z"
         style="fill:#ffffff;fill-opacity:1;fill-rule:evenodd;stroke:none"
         inkscape:connector-curvature="0" />
      <path
         id="path3118"
         d="m 2.1105615,104.90272 0,-36.426725 284.6131185,0 0,97.085825 -113.97031,0 87.54921,131.79284 -144.2217,-131.79284 -113.9703185,0 0,-60.6591 z"
         style="fill:none;stroke:#000000;stroke-width:0.3908447px;stroke-linecap:round;stroke-linejoin:round;stroke-opacity:1;stroke-dasharray:none"
         inkscape:connector-curvature="0" />
      <text
         id="text3120"
         style="font-size:16.25914001px;font-style:normal;font-weight:normal;text-align:start;text-anchor:start;fill:#000000;font-family:Arial"
         y="102.55765"
         x="8.7549219"
         xml:space="preserve">Multiple application components can </text>
      <text
         id="text3122"
         style="font-size:16.25914001px;font-style:normal;font-weight:normal;text-align:start;text-anchor:start;fill:#000000;font-family:Arial"
         y="122.5689"
         x="8.7549219"
         xml:space="preserve">be run in workers together with </text>
      <text
         id="text3124"
         style="font-size:16.25914001px;font-style:normal;font-weight:normal;text-align:start;text-anchor:start;fill:#000000;font-family:Arial"
         y="142.58015"
         x="8.7549219"
         xml:space="preserve">routers in a single node</text>
    </g>
  </g>
</svg>
