<?xml version="1.0" encoding="UTF-8" standalone="no"?>
<!-- Created with Inkscape (http://www.inkscape.org/) -->

<svg
   xmlns:dc="http://purl.org/dc/elements/1.1/"
   xmlns:cc="http://creativecommons.org/ns#"
   xmlns:rdf="http://www.w3.org/1999/02/22-rdf-syntax-ns#"
   xmlns:svg="http://www.w3.org/2000/svg"
   xmlns="http://www.w3.org/2000/svg"
   xmlns:sodipodi="http://sodipodi.sourceforge.net/DTD/sodipodi-0.dtd"
   xmlns:inkscape="http://www.inkscape.org/namespaces/inkscape"
   width="865.5625"
   height="546.71997"
   id="svg2"
   version="1.1"
   inkscape:version="0.48.4 r9939"
   sodipodi:docname="crossbar_application_scenario_1.svg">
  <defs
     id="defs4" />
  <sodipodi:namedview
     id="base"
     pagecolor="#ffffff"
     bordercolor="#666666"
     borderopacity="1.0"
     inkscape:pageopacity="0.0"
     inkscape:pageshadow="2"
     inkscape:zoom="0.98994949"
     inkscape:cx="356.10206"
     inkscape:cy="245.73833"
     inkscape:document-units="px"
     inkscape:current-layer="layer1"
     showgrid="false"
     fit-margin-top="10"
     fit-margin-bottom="10"
     fit-margin-left="10"
     fit-margin-right="10"
     inkscape:window-width="1680"
     inkscape:window-height="988"
     inkscape:window-x="-8"
     inkscape:window-y="320"
     inkscape:window-maximized="1" />
  <metadata
     id="metadata7">
    <rdf:RDF>
      <cc:Work
         rdf:about="">
        <dc:format>image/svg+xml</dc:format>
        <dc:type
           rdf:resource="http://purl.org/dc/dcmitype/StillImage" />
        <dc:title />
      </cc:Work>
    </rdf:RDF>
  </metadata>
  <g
     inkscape:label="Ebene 1"
     inkscape:groupmode="layer"
     id="layer1"
     transform="translate(525.60508,-102.59423)">
    <g
       id="g3038"
       transform="translate(-517.57383,110.68861)">
      <path
         id="path3040"
         d="m 822.10278,192.45194 c 13.05421,0 23.60702,-10.55281 23.60702,-23.60702 l 0,0 0,-104.590048 c 0,-13.054214 -10.55281,-23.68519 -23.60702,-23.68519 l 0,0 -173.53506,0 c -13.05421,0 -23.60702,10.630976 -23.60702,23.68519 l 0,0 0,104.590048 c 0,13.05421 10.55281,23.60702 23.60702,23.60702 l 0,0 173.53506,0 z"
         style="fill:#f2f2f2;fill-opacity:1;fill-rule:evenodd;stroke:none"
         inkscape:connector-curvature="0" />
      <path
         id="path3042"
         d="m 822.10278,192.45194 c 13.05421,0 23.60702,-10.55281 23.60702,-23.60702 l 0,0 0,-104.590048 c 0,-13.054214 -10.55281,-23.68519 -23.60702,-23.68519 l 0,0 -173.53506,0 c -13.05421,0 -23.60702,10.630976 -23.60702,23.68519 l 0,0 0,104.590048 c 0,13.05421 10.55281,23.60702 23.60702,23.60702 l 0,0 173.53506,0 z"
         style="fill:none;stroke:#000000;stroke-width:3.59577131px;stroke-linecap:round;stroke-linejoin:round;stroke-opacity:1;stroke-dasharray:none"
         inkscape:connector-curvature="0" />
      <text
         id="text3044"
         style="font-size:23.76335907px;font-style:normal;font-weight:normal;text-align:start;text-anchor:start;fill:#000000;font-family:Arial"
         y="110.06187"
         x="667.87543"
         xml:space="preserve">Your existing</text>
      <text
         id="text3046"
         style="font-size:23.76335907px;font-style:normal;font-weight:normal;text-align:start;text-anchor:start;fill:#000000;font-family:Arial"
         y="137.57735"
         x="650.3656"
         xml:space="preserve">Web Application</text>
      <path
         id="path3048"
         d="m 138.04635,474.79816 c 13.05422,0 23.68519,-10.5528 23.68519,-23.60702 l 0,0 0,-387.639789 c 0,-13.054213 -10.63097,-23.607021 -23.68519,-23.607021 l 0,0 -110.68722,0 c -13.054213,0 -23.6070207,10.552808 -23.6070207,23.607021 l 0,0 0,387.639789 c 0,13.05422 10.5528077,23.60702 23.6070207,23.60702 l 0,0 110.68722,0 z"
         style="fill:#f2f2f2;fill-opacity:1;fill-rule:evenodd;stroke:none"
         inkscape:connector-curvature="0" />
      <path
         id="path3050"
         d="m 138.04635,474.79816 c 13.05422,0 23.68519,-10.5528 23.68519,-23.60702 l 0,0 0,-387.639789 c 0,-13.054213 -10.63097,-23.607021 -23.68519,-23.607021 l 0,0 -110.68722,0 c -13.054213,0 -23.6070207,10.552808 -23.6070207,23.607021 l 0,0 0,387.639789 c 0,13.05422 10.5528077,23.60702 23.6070207,23.60702 l 0,0 110.68722,0 z"
         style="fill:none;stroke:#000000;stroke-width:3.59577131px;stroke-linecap:round;stroke-linejoin:round;stroke-opacity:1;stroke-dasharray:none"
         inkscape:connector-curvature="0" />
      <text
         id="text3052"
         style="font-size:23.76335907px;font-style:normal;font-weight:normal;text-align:start;text-anchor:start;fill:#000000;font-family:Arial"
         y="250.14063"
         x="58.783047"
         xml:space="preserve">Web </text>
      <text
         id="text3054"
         style="font-size:23.76335907px;font-style:normal;font-weight:normal;text-align:start;text-anchor:start;fill:#000000;font-family:Arial"
         y="278.9068"
         x="36.27039"
         xml:space="preserve">Frontend</text>
      <path
         id="path3056"
         d="m 607.91987,116.54989 -446.18833,0 0,-0.31267"
         style="fill:none;stroke:#262626;stroke-width:2.0323925px;stroke-linecap:round;stroke-linejoin:round;stroke-opacity:1;stroke-dasharray:none"
         inkscape:connector-curvature="0" />
      <path
         id="path3058"
         d="m 606.35649,110.29638 18.60421,6.25351 -18.60421,6.17535 0,-12.42886 z"
         style="fill:#262626;fill-opacity:1;fill-rule:evenodd;stroke:none"
         inkscape:connector-curvature="0" />
      <path
         id="path3060"
         d="m 735.33525,192.45194 0,17.74435 -0.31267,0 0,80.51401"
         style="fill:none;stroke:#262626;stroke-width:2.0323925px;stroke-linecap:round;stroke-linejoin:round;stroke-opacity:1;stroke-dasharray:none"
         inkscape:connector-curvature="0" />
      <path
         id="path3062"
         d="m 741.27609,289.14692 -6.25351,18.60421 -6.17535,-18.60421 12.42886,0 z"
         style="fill:#262626;fill-opacity:1;fill-rule:evenodd;stroke:none"
         inkscape:connector-curvature="0" />
      <path
         id="path3064"
         d="m 821.32109,476.12704 c 13.05421,0 23.60702,-10.55281 23.60702,-23.60703 l 0,0 0,-121.16186 c 0,-13.05421 -10.55281,-23.60702 -23.60702,-23.60702 l 0,0 -172.51886,0 c -13.05421,0 -23.68519,10.55281 -23.68519,23.60702 l 0,0 0,121.16186 c 0,13.05422 10.63098,23.60703 23.68519,23.60703 l 0,0 172.51886,0 z"
         style="fill:#ffe100;fill-opacity:1;fill-rule:evenodd;stroke:none"
         inkscape:connector-curvature="0" />
      <path
         id="path3066"
         d="m 821.32109,476.12704 c 13.05421,0 23.60702,-10.55281 23.60702,-23.60703 l 0,0 0,-121.16186 c 0,-13.05421 -10.55281,-23.60702 -23.60702,-23.60702 l 0,0 -172.51886,0 c -13.05421,0 -23.68519,10.55281 -23.68519,23.60702 l 0,0 0,121.16186 c 0,13.05422 10.63098,23.60703 23.68519,23.60703 l 0,0 172.51886,0 z"
         style="fill:none;stroke:#ffc000;stroke-width:5.23731899px;stroke-linecap:round;stroke-linejoin:round;stroke-opacity:1;stroke-dasharray:none"
         inkscape:connector-curvature="0" />
      <path
         id="path3068"
         d="m 674.75432,441.81087 c -2.18873,0.46901 -4.29929,0.62535 -6.25351,0.62535 -0.78169,0 -1.56338,0 -2.2669,-0.0782 -0.70352,-0.0782 -1.48521,-0.23451 -2.34507,-0.46901 -0.85986,-0.23451 -1.56338,-0.54718 -2.18873,-0.93803 -0.62535,-0.31268 -1.09437,-0.93803 -1.56338,-1.56338 -0.39085,-0.70352 -0.62535,-1.56338 -0.62535,-2.5014 l 0,-8.52042 c 0,-3.83028 2.97042,-5.7845 8.98943,-5.7845 1.40704,0 3.5176,0.15634 6.09717,0.62535 l 0,3.5176 c -2.34507,-0.62535 -4.37746,-0.85986 -6.01901,-0.85986 -0.70352,0 -1.2507,0 -1.71971,0.0782 -0.39085,0 -0.85986,0.0782 -1.32887,0.23451 -0.46902,0.15634 -0.78169,0.46901 -1.0162,0.78169 -0.23451,0.39084 -0.31268,0.78169 -0.31268,1.32887 l 0,8.28591 c 0,1.71972 1.56338,2.57957 4.76831,2.57957 1.40704,0 3.28309,-0.31267 5.7845,-0.85985 l 0,3.5176 z"
         style="fill:#000000;fill-opacity:1;fill-rule:evenodd;stroke:none"
         inkscape:connector-curvature="0" />
      <path
         id="path3070"
         d="m 686.94868,431.10172 -1.48521,0 c -1.17254,0 -2.0324,0.15634 -2.65775,0.46902 -0.62535,0.39084 -0.93803,1.01619 -0.93803,1.95422 l 0,8.67675 -4.29929,0 0,-14.46125 4.06479,0 0,2.57957 c 0.0782,-0.70352 0.46901,-1.40704 1.2507,-1.95422 0.85986,-0.62535 1.64155,-0.93803 2.50141,-0.93803 l 1.56338,0 0,3.67394 z"
         style="fill:#000000;fill-opacity:1;fill-rule:evenodd;stroke:none"
         inkscape:connector-curvature="0" />
      <path
         id="path3072"
         d="m 703.52049,432.97778 0,4.22112 c 0,0.93803 -0.15634,1.71972 -0.46901,2.42324 -0.23451,0.62535 -0.62535,1.17253 -1.09437,1.56338 -0.39084,0.39084 -0.93802,0.62535 -1.64154,0.85986 -0.78169,0.15633 -1.40705,0.31267 -1.95423,0.31267 -0.62535,0.0782 -1.32887,0.0782 -2.11056,0.0782 -0.85986,0 -1.56338,0 -2.11056,-0.0782 -0.62535,0 -1.2507,-0.15634 -1.95423,-0.31267 -0.70352,-0.23451 -1.32887,-0.46902 -1.71971,-0.85986 -0.46902,-0.39085 -0.78169,-0.93803 -1.09437,-1.56338 -0.31267,-0.70352 -0.46901,-1.48521 -0.46901,-2.42324 l 0,-4.22112 c 0,-1.0162 0.15634,-1.87606 0.46901,-2.57958 0.31268,-0.70352 0.70352,-1.2507 1.09437,-1.56338 0.46901,-0.39084 1.09436,-0.70352 1.79788,-0.93802 0.70352,-0.15634 1.32888,-0.31268 1.87606,-0.39085 0.62535,0 1.2507,-0.0782 2.11056,-0.0782 0.78169,0 1.48521,0.0782 2.03239,0.0782 0.54719,0.0782 1.25071,0.23451 1.95423,0.39085 0.70352,0.2345 1.2507,0.54718 1.71971,0.93802 0.46902,0.31268 0.78169,0.85986 1.09437,1.56338 0.31267,0.70352 0.46901,1.56338 0.46901,2.57958 z m -4.29929,4.7683 0,-5.47182 c 0,-0.78169 -0.23451,-1.32887 -0.62535,-1.64155 -0.39085,-0.31268 -1.17254,-0.46901 -2.34507,-0.46901 -1.2507,0 -2.03239,0.15633 -2.42324,0.46901 -0.39084,0.31268 -0.54718,0.85986 -0.54718,1.64155 l 0,5.47182 c 0,0.70352 0.15634,1.25071 0.54718,1.56338 0.39085,0.31268 1.17254,0.46902 2.42324,0.46902 1.17253,0 1.95422,-0.15634 2.34507,-0.46902 0.39084,-0.31267 0.62535,-0.85986 0.62535,-1.56338 z"
         style="fill:#000000;fill-opacity:1;fill-rule:evenodd;stroke:none"
         inkscape:connector-curvature="0" />
      <path
         id="path3074"
         d="m 719.31062,436.57355 0,1.79789 c 0,0.70352 -0.15634,1.32887 -0.39085,1.79788 -0.2345,0.54718 -0.62535,0.93803 -1.01619,1.2507 -0.39085,0.31268 -0.93803,0.46902 -1.56338,0.62536 -0.70352,0.2345 -1.32887,0.31267 -1.95423,0.31267 -0.54718,0.0782 -1.2507,0.0782 -2.11056,0.0782 -1.56338,0 -3.43943,-0.15634 -5.62816,-0.39084 l 0,-2.89226 c 2.73591,0.39085 4.61197,0.62536 5.70633,0.62536 0.85986,0 1.48521,-0.0782 1.95423,-0.31268 0.46901,-0.15634 0.70352,-0.46901 0.70352,-0.93803 l 0,-0.93802 c 0,-0.46902 -0.0782,-0.78169 -0.39085,-1.0162 -0.23451,-0.23451 -0.78169,-0.31268 -1.64155,-0.31268 l -1.87605,0 c -1.48521,0 -2.65774,-0.31267 -3.5176,-0.93802 -0.85986,-0.62536 -1.25071,-1.48521 -1.25071,-2.65775 l 0,-1.71971 c 0,-1.32888 0.62536,-2.2669 1.87606,-2.73592 1.2507,-0.46901 2.97042,-0.78169 5.31549,-0.78169 0.93802,0 2.65774,0.15634 5.08098,0.31268 l 0,2.73591 c -3.12676,-0.2345 -4.84648,-0.31267 -5.23732,-0.31267 -1.17254,0 -1.95422,0.0782 -2.2669,0.2345 -0.31268,0.15634 -0.46901,0.46902 -0.46901,0.93803 l 0,0.78169 c 0,0.23451 0.0782,0.46901 0.31267,0.70352 0.31268,0.15634 0.62535,0.23451 1.17254,0.23451 l 1.87605,0 c 3.59577,0 5.31549,1.17253 5.31549,3.5176 z"
         style="fill:#000000;fill-opacity:1;fill-rule:evenodd;stroke:none"
         inkscape:connector-curvature="0" />
      <path
         id="path3076"
         d="m 734.94441,436.57355 0,1.79789 c 0,0.70352 -0.15634,1.32887 -0.39085,1.79788 -0.31267,0.54718 -0.62535,0.93803 -1.01619,1.2507 -0.39085,0.31268 -0.93803,0.46902 -1.64155,0.62536 -0.62535,0.2345 -1.2507,0.31267 -1.87606,0.31267 -0.54718,0.0782 -1.2507,0.0782 -2.11056,0.0782 -1.56338,0 -3.43943,-0.15634 -5.62816,-0.39084 l 0,-2.89226 c 2.73591,0.39085 4.61197,0.62536 5.70633,0.62536 0.85986,0 1.48521,-0.0782 1.95422,-0.31268 0.46902,-0.15634 0.70353,-0.46901 0.70353,-0.93803 l 0,-0.93802 c 0,-0.46902 -0.0782,-0.78169 -0.39085,-1.0162 -0.23451,-0.23451 -0.78169,-0.31268 -1.64155,-0.31268 l -1.87605,0 c -1.48521,0 -2.65775,-0.31267 -3.5176,-0.93802 -0.85986,-0.62536 -1.25071,-1.48521 -1.25071,-2.65775 l 0,-1.71971 c 0,-1.32888 0.62535,-2.2669 1.87606,-2.73592 1.2507,-0.46901 2.97042,-0.78169 5.23732,-0.78169 1.01619,0 2.65774,0.15634 5.15915,0.31268 l 0,2.73591 c -3.12676,-0.2345 -4.84648,-0.31267 -5.23732,-0.31267 -1.25071,0 -1.95423,0.0782 -2.2669,0.2345 -0.31268,0.15634 -0.54718,0.46902 -0.54718,0.93803 l 0,0.78169 c 0,0.23451 0.15633,0.46901 0.39084,0.70352 0.31268,0.15634 0.62535,0.23451 1.17253,0.23451 l 1.87606,0 c 3.5176,0 5.31549,1.17253 5.31549,3.5176 z"
         style="fill:#000000;fill-opacity:1;fill-rule:evenodd;stroke:none"
         inkscape:connector-curvature="0" />
      <path
         id="path3078"
         d="m 752.92326,432.27426 0,4.7683 c 0,1.95423 -0.62535,3.36127 -1.79788,4.22113 -1.17254,0.78169 -3.04859,1.17253 -5.70633,1.17253 -2.73592,0 -4.61197,-0.39084 -5.70634,-1.2507 -1.01619,-0.85986 -1.56338,-2.2669 -1.56338,-4.14296 l 0,-15.71195 4.37746,0 0,7.81689 c 0.23451,-0.62535 0.70353,-1.09437 1.40705,-1.32887 0.70352,-0.23451 1.79788,-0.39085 3.20492,-0.39085 1.25071,0 2.2669,0.15634 3.04859,0.31268 0.78169,0.23451 1.32887,0.54718 1.71972,1.0162 0.39084,0.39084 0.70352,0.93802 0.78169,1.48521 0.15634,0.46901 0.2345,1.17253 0.2345,2.03239 z m -4.37746,5.31549 0,-5.31549 c 0,-0.93803 -0.15633,-1.48521 -0.46901,-1.79789 -0.39085,-0.2345 -1.2507,-0.31267 -2.57958,-0.31267 -1.2507,0 -2.03239,0.15633 -2.42323,0.46901 -0.39085,0.31268 -0.54719,0.85986 -0.54719,1.64155 l 0,5.31549 c 0,0.85985 0.15634,1.48521 0.54719,1.71971 0.39084,0.31268 1.17253,0.46902 2.42323,0.46902 1.25071,0 2.11057,-0.15634 2.50141,-0.46902 0.39085,-0.2345 0.54718,-0.85986 0.54718,-1.71971 z"
         style="fill:#000000;fill-opacity:1;fill-rule:evenodd;stroke:none"
         inkscape:connector-curvature="0" />
      <path
         id="path3080"
         d="m 769.26057,442.20171 -4.29929,0 0,-1.32887 c -0.31267,0.54718 -0.78169,0.93803 -1.32887,1.2507 -0.62535,0.23451 -1.71972,0.31268 -3.2831,0.31268 -1.95422,0 -3.20492,-0.23451 -3.83027,-0.85986 -0.62536,-0.62535 -1.0162,-1.87605 -1.0162,-3.75211 0,-1.64155 0.39084,-2.89225 1.0162,-3.5176 0.62535,-0.70352 1.79788,-1.0162 3.5176,-1.0162 l 4.84647,0 0,-1.01619 c 0,-0.85986 -0.15634,-1.40704 -0.62535,-1.71972 -0.39084,-0.31267 -1.2507,-0.39084 -2.50141,-0.39084 -1.2507,0 -2.97042,0.0782 -5.08098,0.31267 l 0,-2.73591 c 1.64155,-0.15634 3.43944,-0.31268 5.47183,-0.31268 2.65774,0 4.5338,0.39085 5.54999,1.0162 1.0162,0.62535 1.56338,1.87605 1.56338,3.83028 l 0,9.92745 z m -4.37746,-3.75211 0,-2.73591 -2.97042,0 c -0.93802,0 -1.56338,0.0782 -1.79788,0.31268 -0.23451,0.2345 -0.31268,0.78169 -0.31268,1.71971 0,0.93803 0.0782,1.48521 0.39085,1.71972 0.2345,0.15634 0.85985,0.31268 1.87605,0.31268 0.46901,0 0.85986,0 1.09437,0 0.2345,-0.0782 0.46901,-0.0782 0.78169,-0.0782 0.2345,-0.0782 0.46901,-0.15634 0.54718,-0.23451 0.15634,-0.0782 0.2345,-0.23451 0.31267,-0.39084 0.0782,-0.15634 0.0782,-0.31268 0.0782,-0.62536 z"
         style="fill:#000000;fill-opacity:1;fill-rule:evenodd;stroke:none"
         inkscape:connector-curvature="0" />
      <path
         id="path3082"
         d="m 782.47112,431.10172 -1.48521,0 c -1.17253,0 -2.11056,0.15634 -2.65774,0.46902 -0.62535,0.39084 -0.93803,1.01619 -0.93803,1.95422 l 0,8.67675 -4.29929,0 0,-14.46125 4.14296,0 0,2.57957 c 0,-0.70352 0.39084,-1.40704 1.17253,-1.95422 0.85986,-0.62535 1.64155,-0.93803 2.50141,-0.93803 l 1.56337,0 0,3.67394 z"
         style="fill:#000000;fill-opacity:1;fill-rule:evenodd;stroke:none"
         inkscape:connector-curvature="0" />
      <path
         id="path3084"
         d="m 785.0507,438.91862 0,3.28309 3.43943,0 0,-3.28309 -3.43943,0 z"
         style="fill:#000000;fill-opacity:1;fill-rule:evenodd;stroke:none"
         inkscape:connector-curvature="0" />
      <path
         id="path3086"
         d="m 795.52534,425.31722 -2.65775,0 0,-2.73591 2.65775,0 0,2.73591 z m 0,16.88449 -2.65775,0 0,-14.46125 2.65775,0 0,14.46125 z"
         style="fill:#000000;fill-opacity:1;fill-rule:evenodd;stroke:none"
         inkscape:connector-curvature="0" />
      <path
         id="path3088"
         d="m 812.87884,432.58693 0,5.00282 c 0,0.93802 -0.0782,1.64154 -0.31267,2.2669 -0.15634,0.62535 -0.46902,1.09436 -0.78169,1.48521 -0.39085,0.31267 -0.85986,0.54718 -1.48521,0.70352 -0.62535,0.2345 -1.17254,0.31267 -1.79789,0.39084 -0.54718,0 -1.32887,0 -2.18873,0 -1.2507,0 -2.18873,0 -2.81408,-0.0782 -0.70352,-0.0782 -1.32887,-0.31267 -1.95422,-0.62535 -0.70352,-0.31268 -1.17254,-0.78169 -1.48521,-1.48521 -0.23451,-0.62535 -0.39085,-1.56338 -0.39085,-2.65774 l 0,-5.00282 c 0,-0.93802 0.0782,-1.71971 0.31268,-2.34506 0.2345,-0.70353 0.54718,-1.17254 0.85986,-1.56338 0.31267,-0.39085 0.78169,-0.62536 1.40704,-0.78169 0.62535,-0.23451 1.2507,-0.31268 1.79788,-0.39085 0.54719,0 1.25071,-0.0782 2.2669,-0.0782 0.93803,0 1.64155,0.0782 2.18873,0.0782 0.54719,0.0782 1.17254,0.15634 1.79789,0.39085 0.62535,0.15633 1.09436,0.39084 1.40704,0.78169 0.39084,0.39084 0.62535,0.85985 0.85986,1.56338 0.2345,0.62535 0.31267,1.40704 0.31267,2.34506 z m -2.73591,5.39366 0,-5.7845 c 0,-1.32887 -0.23451,-2.18873 -0.78169,-2.50141 -0.54718,-0.31267 -1.56338,-0.46901 -3.04859,-0.46901 -1.56338,0 -2.57957,0.15634 -3.12676,0.46901 -0.54718,0.31268 -0.78168,1.17254 -0.78168,2.50141 l 0,5.7845 c 0,0.62535 0.0782,1.17253 0.2345,1.56338 0.0782,0.31268 0.39085,0.62535 0.70352,0.78169 0.39085,0.15634 0.78169,0.31267 1.17254,0.31267 0.39084,0.0782 1.01619,0.0782 1.79788,0.0782 0.70352,0 1.32887,0 1.71972,-0.0782 0.39084,0 0.78169,-0.15633 1.17253,-0.31267 0.39085,-0.15634 0.62535,-0.46901 0.78169,-0.78169 0.15634,-0.39085 0.15634,-0.93803 0.15634,-1.56338 z"
         style="fill:#000000;fill-opacity:1;fill-rule:evenodd;stroke:none"
         inkscape:connector-curvature="0" />
      <path
         id="path3090"
         d="m 700.70641,340.19124 0,64.88023 64.88022,0 0,-64.88023 -64.88022,0 z"
         style="fill:#000000;fill-opacity:1;fill-rule:evenodd;stroke:none"
         inkscape:connector-curvature="0" />
      <path
         id="path3092"
         d="m 700.70641,353.94898 0,6.48802 15.32111,-0.0782 10.16197,10.16196 4.69013,-4.69013 -12.03802,-12.03802 -18.13519,0.15634 z"
         style="fill:#ffe100;fill-opacity:1;fill-rule:evenodd;stroke:none"
         inkscape:connector-curvature="0" />
      <path
         id="path3094"
         d="m 740.02539,375.05459 -4.69014,4.69014 11.64717,11.64717 18.60421,0 0,-6.48802 -15.71195,0 -9.84929,-9.84929 z"
         style="fill:#ffe100;fill-opacity:1;fill-rule:evenodd;stroke:none"
         inkscape:connector-curvature="0" />
      <path
         id="path3096"
         d="m 747.45144,353.87081 -30.9549,31.11124 -15.79013,0 0,6.48802 18.52604,0 31.03307,-31.03307 15.32111,0 0,-6.56619 -18.13519,0 z"
         style="fill:#ffe100;fill-opacity:1;fill-rule:evenodd;stroke:none"
         inkscape:connector-curvature="0" />
      <path
         id="path3098"
         d="m 183.30617,390.53204 441.81087,1.40704"
         style="fill:none;stroke:#ffc000;stroke-width:3.59577131px;stroke-linecap:round;stroke-linejoin:round;stroke-opacity:1;stroke-dasharray:none"
         inkscape:connector-curvature="0" />
      <path
         id="path3100"
         d="m 185.2604,398.34894 -23.37252,-7.89507 23.45069,-7.73872 -0.0782,15.63379 z"
         style="fill:#ffc000;fill-opacity:1;fill-rule:evenodd;stroke:none"
         inkscape:connector-curvature="0" />
      <path
         id="path3102"
         d="m 248.81175,469.17 0,-35.56687 108.02948,0 81.60837,-42.2894 -24.85772,42.2894 108.02948,0 0,94.81893 -272.80961,0 0,-59.25206 z"
         style="fill:#ffffff;fill-opacity:1;fill-rule:evenodd;stroke:none"
         inkscape:connector-curvature="0" />
      <path
         id="path3104"
         d="m 248.81175,469.17 0,-35.56687 108.02948,0 81.60837,-42.2894 -24.85772,42.2894 108.02948,0 0,94.81893 -272.80961,0 0,-59.25206 z"
         style="fill:none;stroke:#000000;stroke-width:0.3908447px;stroke-linecap:round;stroke-linejoin:round;stroke-opacity:1;stroke-dasharray:none"
         inkscape:connector-curvature="0" />
      <text
         id="text3106"
         style="font-size:20.01124954px;font-style:normal;font-weight:normal;text-align:start;text-anchor:start;fill:#000000;font-family:Arial"
         y="462.76016"
         x="255.14343"
         xml:space="preserve">Real</text>
      <text
         id="text3108"
         style="font-size:20.01124954px;font-style:normal;font-weight:normal;text-align:start;text-anchor:start;fill:#000000;font-family:Arial"
         y="462.76016"
         x="296.41663"
         xml:space="preserve">-</text>
      <text
         id="text3110"
         style="font-size:20.01124954px;font-style:normal;font-weight:normal;text-align:start;text-anchor:start;fill:#000000;font-family:Arial"
         y="462.76016"
         x="302.67014"
         xml:space="preserve">time data updates and </text>
      <text
         id="text3112"
         style="font-size:20.01124954px;font-style:normal;font-weight:normal;text-align:start;text-anchor:start;fill:#000000;font-family:Arial"
         y="486.5235"
         x="255.14343"
         xml:space="preserve">notifications sent over </text>
      <text
         id="text3114"
         style="font-size:20.01124954px;font-style:normal;font-weight:normal;text-align:start;text-anchor:start;fill:#000000;font-family:Arial"
         y="511.53757"
         x="255.14343"
         xml:space="preserve">WAMP</text>
      <text
         id="text3116"
         style="font-size:20.01124954px;font-style:normal;font-weight:normal;text-align:start;text-anchor:start;fill:#000000;font-family:Arial"
         y="511.53757"
         x="317.67859"
         xml:space="preserve">/</text>
      <text
         id="text3118"
         style="font-size:20.01124954px;font-style:normal;font-weight:normal;text-align:start;text-anchor:start;fill:#000000;font-family:Arial"
         y="511.53757"
         x="322.6814"
         xml:space="preserve">WebSocket</text>
      <path
         id="path3120"
         d="m 243.41809,29.000678 0,-26.8901165 295.2441,0 0,71.7590905 -119.28581,0 13.13238,42.680238 -69.80486,-42.680238 -119.28581,0 0,-44.868974 z"
         style="fill:#ffffff;fill-opacity:1;fill-rule:evenodd;stroke:none"
         inkscape:connector-curvature="0" />
      <path
         id="path3122"
         d="m 243.41809,29.000678 0,-26.8901165 295.2441,0 0,71.7590905 -119.28581,0 13.13238,42.680238 -69.80486,-42.680238 -119.28581,0 0,-44.868974 z"
         style="fill:none;stroke:#000000;stroke-width:0.3908447px;stroke-linecap:round;stroke-linejoin:round;stroke-opacity:1;stroke-dasharray:none"
         inkscape:connector-curvature="0" />
      <text
         id="text3124"
         style="font-size:20.01124954px;font-style:normal;font-weight:normal;text-align:start;text-anchor:start;fill:#000000;font-family:Arial"
         y="32.51828"
         x="250.14063"
         xml:space="preserve">Request</text>
      <text
         id="text3126"
         style="font-size:20.01124954px;font-style:normal;font-weight:normal;text-align:start;text-anchor:start;fill:#000000;font-family:Arial"
         y="32.51828"
         x="325.1828"
         xml:space="preserve">/</text>
      <text
         id="text3128"
         style="font-size:20.01124954px;font-style:normal;font-weight:normal;text-align:start;text-anchor:start;fill:#000000;font-family:Arial"
         y="32.51828"
         x="330.18561"
         xml:space="preserve">response interaction </text>
      <text
         id="text3130"
         style="font-size:20.01124954px;font-style:normal;font-weight:normal;text-align:start;text-anchor:start;fill:#000000;font-family:Arial"
         y="56.281639"
         x="250.14063"
         xml:space="preserve">over HTTP or Ajax</text>
      <path
         id="path3132"
         d="m 371.06797,217.23149 0,-35.4887 226.92445,0 0,35.4887 137.03016,35.41054 -137.03016,-11.80352 0,35.41054 -226.92445,0 0,-59.01756 z"
         style="fill:#ffffff;fill-opacity:1;fill-rule:evenodd;stroke:none"
         inkscape:connector-curvature="0" />
      <path
         id="path3134"
         d="m 371.06797,217.23149 0,-35.4887 226.92445,0 0,35.4887 137.03016,35.41054 -137.03016,-11.80352 0,35.41054 -226.92445,0 0,-59.01756 z"
         style="fill:none;stroke:#000000;stroke-width:0.3908447px;stroke-linecap:round;stroke-linejoin:round;stroke-opacity:1;stroke-dasharray:none"
         inkscape:connector-curvature="0" />
      <text
         id="text3136"
         style="font-size:20.01124954px;font-style:normal;font-weight:normal;text-align:start;text-anchor:start;fill:#000000;font-family:Arial"
         y="211.36882"
         x="377.71234"
         xml:space="preserve">Inject WAMP events via </text>
      <text
         id="text3138"
         style="font-size:20.01124954px;font-style:normal;font-weight:normal;text-align:start;text-anchor:start;fill:#000000;font-family:Arial"
         y="235.13219"
         x="377.71234"
         xml:space="preserve">plain old HTTP</text>
      <text
         id="text3140"
         style="font-size:20.01124954px;font-style:normal;font-weight:normal;text-align:start;text-anchor:start;fill:#000000;font-family:Arial"
         y="235.13219"
         x="510.28687"
         xml:space="preserve">/</text>
      <text
         id="text3142"
         style="font-size:20.01124954px;font-style:normal;font-weight:normal;text-align:start;text-anchor:start;fill:#000000;font-family:Arial"
         y="235.13219"
         x="515.28967"
         xml:space="preserve">POST </text>
      <text
         id="text3144"
         style="font-size:20.01124954px;font-style:normal;font-weight:normal;text-align:start;text-anchor:start;fill:#000000;font-family:Arial"
         y="258.89554"
         x="377.71234"
         xml:space="preserve">requests</text>
    </g>
  </g>
</svg>
