<?xml version="1.0" encoding="UTF-8" standalone="no"?>
<!-- Created with Inkscape (http://www.inkscape.org/) -->

<svg
   xmlns:dc="http://purl.org/dc/elements/1.1/"
   xmlns:cc="http://creativecommons.org/ns#"
   xmlns:rdf="http://www.w3.org/1999/02/22-rdf-syntax-ns#"
   xmlns:svg="http://www.w3.org/2000/svg"
   xmlns="http://www.w3.org/2000/svg"
   xmlns:sodipodi="http://sodipodi.sourceforge.net/DTD/sodipodi-0.dtd"
   xmlns:inkscape="http://www.inkscape.org/namespaces/inkscape"
   width="1064.1808"
   height="460.87753"
   id="svg3065"
   version="1.1"
   inkscape:version="0.48.4 r9939"
   sodipodi:docname="crossbar_deployment_08.svg">
  <defs
     id="defs3067" />
  <sodipodi:namedview
     id="base"
     pagecolor="#ffffff"
     bordercolor="#666666"
     borderopacity="1.0"
     inkscape:pageopacity="0.0"
     inkscape:pageshadow="2"
     inkscape:zoom="0.7"
     inkscape:cx="698.13476"
     inkscape:cy="222.66471"
     inkscape:document-units="px"
     inkscape:current-layer="layer1"
     showgrid="false"
     fit-margin-top="10"
     fit-margin-left="10"
     fit-margin-bottom="10"
     fit-margin-right="10"
     inkscape:window-width="1680"
     inkscape:window-height="988"
     inkscape:window-x="-8"
     inkscape:window-y="320"
     inkscape:window-maximized="1" />
  <metadata
     id="metadata3070">
    <rdf:RDF>
      <cc:Work
         rdf:about="">
        <dc:format>image/svg+xml</dc:format>
        <dc:type
           rdf:resource="http://purl.org/dc/dcmitype/StillImage" />
        <dc:title />
      </cc:Work>
    </rdf:RDF>
  </metadata>
  <g
     inkscape:label="Ebene 1"
     inkscape:groupmode="layer"
     id="layer1"
     transform="translate(211.56732,-237.34054)">
    <g
       id="g3049"
       transform="translate(-203.44337,245.4368)">
      <path
         id="path3051"
         d="m 630.58887,416.48413 0,23.68519 -104.04287,0 0,-296.26029 -210.19629,0 0,23.68518"
         style="fill:none;stroke:#b59f00;stroke-width:5.23731899px;stroke-linecap:round;stroke-linejoin:round;stroke-opacity:1;stroke-dasharray:none"
         inkscape:connector-curvature="0" />
      <path
         id="path3053"
         d="m 1022.4498,377.16515 c 13.0542,0 23.607,-10.5528 23.607,-23.60702 l 0,0 0,-136.1703 c 0,-13.05421 -10.5528,-23.60702 -23.607,-23.60702 l 0,0 -429.61653,0 c -13.05422,0 -23.68519,10.55281 -23.68519,23.60702 l 0,136.1703 c 0,13.05422 10.63097,23.60702 23.68519,23.60702 l 0,0 429.61653,0 z"
         style="fill:#d9d9d9;fill-opacity:1;fill-rule:evenodd;stroke:none"
         inkscape:connector-curvature="0" />
      <path
         id="path3055"
         d="m 630.74521,298.60536 -14.14858,5.86268 9.3021,0 0,7.19154 9.69295,0 0,-7.19154 9.3021,0 -14.14857,-5.86268 z"
         style="fill:#737373;fill-opacity:1;fill-rule:evenodd;stroke:none"
         inkscape:connector-curvature="0" />
      <path
         id="path3057"
         d="m 597.99242,259.28639 0,39.31897 65.50557,0 0,-39.31897 -65.50557,0 z"
         style="fill:#404040;fill-opacity:1;fill-rule:evenodd;stroke:none"
         inkscape:connector-curvature="0" />
      <path
         id="path3059"
         d="m 1014.6329,337.92434 c 7.2697,0 13.1324,-5.86267 13.1324,-13.13238 0,-7.26971 -5.8627,-13.13238 -13.1324,-13.13238 l 0,0 -65.50559,0 c -7.26971,0 -13.13238,5.86267 -13.13238,13.13238 0,7.26971 5.86267,13.13238 13.13238,13.13238 l 65.50559,0 z"
         style="fill:#8c8c8c;fill-opacity:1;fill-rule:evenodd;stroke:none"
         inkscape:connector-curvature="0" />
      <path
         id="path3061"
         d="m 676.63038,259.28639 0,39.31897 65.50557,0 0,-39.31897 -65.50557,0 z"
         style="fill:#404040;fill-opacity:1;fill-rule:evenodd;stroke:none"
         inkscape:connector-curvature="0" />
      <path
         id="path3063"
         d="m 755.19016,259.28639 0,39.31897 65.50558,0 0,-39.31897 -65.50558,0 z"
         style="fill:#404040;fill-opacity:1;fill-rule:evenodd;stroke:none"
         inkscape:connector-curvature="0" />
      <path
         id="path3065"
         d="m 833.82812,259.28639 0,39.31897 65.50558,0 0,-39.31897 -65.50558,0 z"
         style="fill:#404040;fill-opacity:1;fill-rule:evenodd;stroke:none"
         inkscape:connector-curvature="0" />
      <path
         id="path3067"
         d="m 899.3337,337.92434 c 7.26971,0 13.13238,-5.86267 13.13238,-13.13238 0,-7.26971 -5.86267,-13.13238 -13.13238,-13.13238 l 0,0 -301.34128,0 c -7.26971,0 -13.13238,5.86267 -13.13238,13.13238 0,7.26971 5.86267,13.13238 13.13238,13.13238 l 301.34128,0 z"
         style="fill:#ffc000;fill-opacity:1;fill-rule:evenodd;stroke:none"
         inkscape:connector-curvature="0" />
      <path
         id="path3069"
         d="m 934.74423,219.96741 0,78.63795 93.02107,0 0,-78.63795 -93.02107,0 z"
         style="fill:#404040;fill-opacity:1;fill-rule:evenodd;stroke:none"
         inkscape:connector-curvature="0" />
      <path
         id="path3071"
         d="m 630.74521,337.92434 -14.14858,14.14858 9.3021,0 0,64.41121 9.69295,0 0,-64.41121 9.3021,0 -14.14857,-14.14858 z"
         style="fill:#bfbfbf;fill-opacity:1;fill-rule:evenodd;stroke:none"
         inkscape:connector-curvature="0" />
      <path
         id="path3073"
         d="m 670.06418,337.92434 -14.22674,14.14858 9.38027,0 0,64.41121 9.61478,0 0,-64.41121 9.38027,0 -14.14858,-14.14858 z"
         style="fill:#bfbfbf;fill-opacity:1;fill-rule:evenodd;stroke:none"
         inkscape:connector-curvature="0" />
      <path
         id="path3075"
         d="m 866.58091,337.92434 -14.14858,14.14858 9.3021,0 0,64.41121 9.69295,0 0,-64.41121 9.30211,0 -14.14858,-14.14858 z"
         style="fill:#bfbfbf;fill-opacity:1;fill-rule:evenodd;stroke:none"
         inkscape:connector-curvature="0" />
      <path
         id="path3077"
         d="m 827.26193,337.92434 -14.14858,14.14858 9.3021,0 0,64.41121 9.69295,0 0,-64.41121 9.38028,0 -14.22675,-14.14858 z"
         style="fill:#bfbfbf;fill-opacity:1;fill-rule:evenodd;stroke:none"
         inkscape:connector-curvature="0" />
      <path
         id="path3079"
         d="m 709.38316,337.92434 -14.22675,14.14858 9.38028,0 0,64.41121 9.61478,0 0,-64.41121 9.38027,0 -14.14858,-14.14858 z"
         style="fill:#bfbfbf;fill-opacity:1;fill-rule:evenodd;stroke:none"
         inkscape:connector-curvature="0" />
      <path
         id="path3081"
         d="m 748.62397,337.92434 -14.14858,14.14858 9.38028,0 0,64.41121 9.61478,0 0,-64.41121 9.38027,0 -14.22675,-14.14858 z"
         style="fill:#bfbfbf;fill-opacity:1;fill-rule:evenodd;stroke:none"
         inkscape:connector-curvature="0" />
      <path
         id="path3083"
         d="m 787.94295,337.92434 -14.14858,14.14858 9.38028,0 0,64.41121 9.61478,0 0,-64.41121 9.38027,0 -14.22675,-14.14858 z"
         style="fill:#bfbfbf;fill-opacity:1;fill-rule:evenodd;stroke:none"
         inkscape:connector-curvature="0" />
      <text
         id="text3085"
         style="font-size:13.7577343px;font-style:normal;font-weight:bold;text-align:start;text-anchor:start;fill:#404040;font-family:Arial"
         y="367.7067"
         x="915.51465"
         xml:space="preserve">Crossbar</text>
      <text
         id="text3087"
         style="font-size:13.7577343px;font-style:normal;font-weight:bold;text-align:start;text-anchor:start;fill:#404040;font-family:Arial"
         y="367.7067"
         x="974.29773"
         xml:space="preserve">.</text>
      <text
         id="text3089"
         style="font-size:13.7577343px;font-style:normal;font-weight:bold;text-align:start;text-anchor:start;fill:#404040;font-family:Arial"
         y="367.7067"
         x="978.0498"
         xml:space="preserve">io </text>
      <text
         id="text3091"
         style="font-size:13.7577343px;font-style:normal;font-weight:normal;text-align:start;text-anchor:start;fill:#404040;font-family:Arial"
         y="367.7067"
         x="993.05829"
         xml:space="preserve">Node</text>
      <path
         id="path3093"
         d="m 615.03325,246.154 -14.22675,5.94084 9.38027,0 0,7.19155 9.61478,0 0,-7.19155 9.38028,0 -14.14858,-5.94084 z"
         style="fill:#737373;fill-opacity:1;fill-rule:evenodd;stroke:none"
         inkscape:connector-curvature="0" />
      <path
         id="path3095"
         d="m 647.78603,167.59421 -14.22674,14.14858 9.38027,0 0,77.5436 9.69295,0 0,-77.5436 9.3021,0 -14.14858,-14.14858 z"
         style="fill:#737373;fill-opacity:1;fill-rule:evenodd;stroke:none"
         inkscape:connector-curvature="0" />
      <path
         id="path3097"
         d="m 709.38316,298.60536 -14.22675,5.86268 9.38028,0 0,7.19154 9.61478,0 0,-7.19154 9.38027,0 -14.14858,-5.86268 z"
         style="fill:#737373;fill-opacity:1;fill-rule:evenodd;stroke:none"
         inkscape:connector-curvature="0" />
      <path
         id="path3099"
         d="m 693.59304,246.154 -14.14858,5.94084 9.38027,0 0,7.19155 9.61478,0 0,-7.19155 9.38027,0 -14.22674,-5.94084 z"
         style="fill:#737373;fill-opacity:1;fill-rule:evenodd;stroke:none"
         inkscape:connector-curvature="0" />
      <path
         id="path3101"
         d="m 726.42399,167.59421 -14.22675,14.14858 9.38028,0 0,77.5436 9.61478,0 0,-77.5436 9.38027,0 -14.14858,-14.14858 z"
         style="fill:#737373;fill-opacity:1;fill-rule:evenodd;stroke:none"
         inkscape:connector-curvature="0" />
      <path
         id="path3103"
         d="m 787.94295,298.60536 -14.14858,5.86268 9.38028,0 0,7.19154 9.61478,0 0,-7.19154 9.38027,0 -14.22675,-5.86268 z"
         style="fill:#737373;fill-opacity:1;fill-rule:evenodd;stroke:none"
         inkscape:connector-curvature="0" />
      <path
         id="path3105"
         d="m 772.23099,246.154 -14.14858,5.94084 9.30211,0 0,7.19155 9.69295,0 0,-7.19155 9.38027,0 -14.22675,-5.94084 z"
         style="fill:#737373;fill-opacity:1;fill-rule:evenodd;stroke:none"
         inkscape:connector-curvature="0" />
      <path
         id="path3107"
         d="m 804.98378,167.59421 -14.14858,14.14858 9.38027,0 0,77.5436 9.61478,0 0,-77.5436 9.38028,0 -14.22675,-14.14858 z"
         style="fill:#737373;fill-opacity:1;fill-rule:evenodd;stroke:none"
         inkscape:connector-curvature="0" />
      <path
         id="path3109"
         d="m 866.58091,298.60536 -14.14858,5.86268 9.3021,0 0,7.19154 9.69295,0 0,-7.19154 9.30211,0 -14.14858,-5.86268 z"
         style="fill:#737373;fill-opacity:1;fill-rule:evenodd;stroke:none"
         inkscape:connector-curvature="0" />
      <path
         id="path3111"
         d="m 850.86895,246.154 -14.22675,5.94084 9.38028,0 0,7.19155 9.69294,0 0,-7.19155 9.30211,0 -14.14858,-5.94084 z"
         style="fill:#737373;fill-opacity:1;fill-rule:evenodd;stroke:none"
         inkscape:connector-curvature="0" />
      <path
         id="path3113"
         d="m 883.62174,167.59421 -14.22675,14.14858 9.38027,0 0,77.5436 9.69295,0 0,-77.5436 9.30211,0 -14.14858,-14.14858 z"
         style="fill:#737373;fill-opacity:1;fill-rule:evenodd;stroke:none"
         inkscape:connector-curvature="0" />
      <path
         id="path3115"
         d="m 899.3337,246.154 c 7.26971,0 13.13238,-5.86267 13.13238,-13.05421 0,-7.26971 -5.86267,-13.13238 -13.13238,-13.13238 l -301.34128,0 c -7.26971,0 -13.13238,5.86267 -13.13238,13.13238 0,7.19154 5.86267,13.05421 13.13238,13.05421 l 0,0 301.34128,0 z"
         style="fill:#ffc000;fill-opacity:1;fill-rule:evenodd;stroke:none"
         inkscape:connector-curvature="0" />
      <path
         id="path3117"
         d="m 455.17776,377.16515 c 13.05421,0 23.68519,-10.5528 23.68519,-23.60702 l 0,0 0,-136.1703 c 0,-13.05421 -10.63098,-23.60702 -23.68519,-23.60702 l 0,0 -429.616515,0 c -13.054214,0 -23.6851904,10.55281 -23.6851904,23.60702 l 0,136.1703 c 0,13.05422 10.6309764,23.60702 23.6851904,23.60702 l 0,0 429.616515,0 z"
         style="fill:#d9d9d9;fill-opacity:1;fill-rule:evenodd;stroke:none"
         inkscape:connector-curvature="0" />
      <path
         id="path3119"
         d="m 63.473182,298.60536 -14.148579,5.86268 9.380274,0 0,7.19154 9.61478,0 0,-7.19154 9.380273,0 -14.226748,-5.86268 z"
         style="fill:#737373;fill-opacity:1;fill-rule:evenodd;stroke:none"
         inkscape:connector-curvature="0" />
      <path
         id="path3121"
         d="m 30.720395,259.28639 0,39.31897 65.505574,0 0,-39.31897 -65.505574,0 z"
         style="fill:#404040;fill-opacity:1;fill-rule:evenodd;stroke:none"
         inkscape:connector-curvature="0" />
      <path
         id="path3123"
         d="m 447.36086,337.92434 c 7.26972,0 13.13239,-5.86267 13.13239,-13.13238 0,-7.26971 -5.86267,-13.13238 -13.13239,-13.13238 l 0,0 -65.50557,0 c -7.19154,0 -13.05421,5.86267 -13.05421,13.13238 0,7.26971 5.86267,13.13238 13.05421,13.13238 l 0,0 65.50557,0 z"
         style="fill:#8c8c8c;fill-opacity:1;fill-rule:evenodd;stroke:none"
         inkscape:connector-curvature="0" />
      <path
         id="path3125"
         d="m 109.35835,259.28639 0,39.31897 65.50558,0 0,-39.31897 -65.50558,0 z"
         style="fill:#404040;fill-opacity:1;fill-rule:evenodd;stroke:none"
         inkscape:connector-curvature="0" />
      <path
         id="path3127"
         d="m 187.99631,259.28639 0,39.31897 65.50557,0 0,-39.31897 -65.50557,0 z"
         style="fill:#404040;fill-opacity:1;fill-rule:evenodd;stroke:none"
         inkscape:connector-curvature="0" />
      <path
         id="path3129"
         d="m 266.5561,259.28639 0,39.31897 65.50557,0 0,-39.31897 -65.50557,0 z"
         style="fill:#404040;fill-opacity:1;fill-rule:evenodd;stroke:none"
         inkscape:connector-curvature="0" />
      <path
         id="path3131"
         d="m 332.06167,337.92434 c 7.26971,0 13.13238,-5.86267 13.13238,-13.13238 0,-7.26971 -5.86267,-13.13238 -13.13238,-13.13238 l 0,0 -301.341275,0 c -7.191543,0 -13.054214,5.86267 -13.054214,13.13238 0,7.26971 5.862671,13.13238 13.054214,13.13238 l 0,0 301.341275,0 z"
         style="fill:#ffc000;fill-opacity:1;fill-rule:evenodd;stroke:none"
         inkscape:connector-curvature="0" />
      <path
         id="path3133"
         d="m 367.4722,219.96741 0,78.63795 93.02105,0 0,-78.63795 -93.02105,0 z"
         style="fill:#404040;fill-opacity:1;fill-rule:evenodd;stroke:none"
         inkscape:connector-curvature="0" />
      <path
         id="path3135"
         d="m 63.473182,337.92434 -14.148579,14.14858 9.380274,0 0,64.41121 9.61478,0 0,-64.41121 9.380273,0 -14.226748,-14.14858 z"
         style="fill:#bfbfbf;fill-opacity:1;fill-rule:evenodd;stroke:none"
         inkscape:connector-curvature="0" />
      <path
         id="path3137"
         d="m 102.79216,337.92434 -14.148578,14.14858 9.302104,0 0,64.41121 9.692954,0 0,-64.41121 9.38027,0 -14.22675,-14.14858 z"
         style="fill:#bfbfbf;fill-opacity:1;fill-rule:evenodd;stroke:none"
         inkscape:connector-curvature="0" />
      <path
         id="path3139"
         d="m 299.30888,337.92434 -14.14857,14.14858 9.38027,0 0,64.41121 9.61478,0 0,-64.41121 9.38027,0 -14.22675,-14.14858 z"
         style="fill:#bfbfbf;fill-opacity:1;fill-rule:evenodd;stroke:none"
         inkscape:connector-curvature="0" />
      <path
         id="path3141"
         d="m 259.98991,337.92434 -14.14858,14.14858 9.38027,0 0,64.41121 9.61478,0 0,-64.41121 9.38027,0 -14.22674,-14.14858 z"
         style="fill:#bfbfbf;fill-opacity:1;fill-rule:evenodd;stroke:none"
         inkscape:connector-curvature="0" />
      <path
         id="path3143"
         d="m 142.11114,337.92434 -14.14858,14.14858 9.3021,0 0,64.41121 9.69295,0 0,-64.41121 9.30211,0 -14.14858,-14.14858 z"
         style="fill:#bfbfbf;fill-opacity:1;fill-rule:evenodd;stroke:none"
         inkscape:connector-curvature="0" />
      <path
         id="path3145"
         d="m 181.43012,337.92434 -14.22675,14.14858 9.38027,0 0,64.41121 9.61478,0 0,-64.41121 9.38028,0 -14.14858,-14.14858 z"
         style="fill:#bfbfbf;fill-opacity:1;fill-rule:evenodd;stroke:none"
         inkscape:connector-curvature="0" />
      <path
         id="path3147"
         d="m 220.7491,337.92434 -14.22675,14.14858 9.38027,0 0,64.41121 9.61478,0 0,-64.41121 9.38028,0 -14.14858,-14.14858 z"
         style="fill:#bfbfbf;fill-opacity:1;fill-rule:evenodd;stroke:none"
         inkscape:connector-curvature="0" />
      <text
         id="text3149"
         style="font-size:13.7577343px;font-style:normal;font-weight:bold;text-align:start;text-anchor:start;fill:#404040;font-family:Arial"
         y="367.7067"
         x="347.69547"
         xml:space="preserve">Crossbar</text>
      <text
         id="text3151"
         style="font-size:13.7577343px;font-style:normal;font-weight:bold;text-align:start;text-anchor:start;fill:#404040;font-family:Arial"
         y="367.7067"
         x="406.47852"
         xml:space="preserve">.</text>
      <text
         id="text3153"
         style="font-size:13.7577343px;font-style:normal;font-weight:bold;text-align:start;text-anchor:start;fill:#404040;font-family:Arial"
         y="367.7067"
         x="410.23062"
         xml:space="preserve">io </text>
      <text
         id="text3155"
         style="font-size:13.7577343px;font-style:normal;font-weight:normal;text-align:start;text-anchor:start;fill:#404040;font-family:Arial"
         y="367.7067"
         x="425.23904"
         xml:space="preserve">Node</text>
      <path
         id="path3157"
         d="m 47.761224,246.154 -14.148578,5.94084 9.302104,0 0,7.19155 9.692949,0 0,-7.19155 9.380273,0 -14.226748,-5.94084 z"
         style="fill:#737373;fill-opacity:1;fill-rule:evenodd;stroke:none"
         inkscape:connector-curvature="0" />
      <path
         id="path3159"
         d="m 80.514012,167.59421 -14.148579,14.14858 9.302104,0 0,77.5436 9.692949,0 0,-77.5436 9.380274,0 -14.226748,-14.14858 z"
         style="fill:#737373;fill-opacity:1;fill-rule:evenodd;stroke:none"
         inkscape:connector-curvature="0" />
      <path
         id="path3161"
         d="m 142.11114,298.60536 -14.14858,5.86268 9.3021,0 0,7.19154 9.69295,0 0,-7.19154 9.30211,0 -14.14858,-5.86268 z"
         style="fill:#737373;fill-opacity:1;fill-rule:evenodd;stroke:none"
         inkscape:connector-curvature="0" />
      <path
         id="path3163"
         d="m 126.39918,246.154 -14.22675,5.94084 9.38028,0 0,7.19155 9.61478,0 0,-7.19155 9.38027,0 -14.14858,-5.94084 z"
         style="fill:#737373;fill-opacity:1;fill-rule:evenodd;stroke:none"
         inkscape:connector-curvature="0" />
      <path
         id="path3165"
         d="m 159.15197,167.59421 -14.22675,14.14858 9.38027,0 0,77.5436 9.69295,0 0,-77.5436 9.30211,0 -14.14858,-14.14858 z"
         style="fill:#737373;fill-opacity:1;fill-rule:evenodd;stroke:none"
         inkscape:connector-curvature="0" />
      <path
         id="path3167"
         d="m 220.7491,298.60536 -14.22675,5.86268 9.38027,0 0,7.19154 9.61478,0 0,-7.19154 9.38028,0 -14.14858,-5.86268 z"
         style="fill:#737373;fill-opacity:1;fill-rule:evenodd;stroke:none"
         inkscape:connector-curvature="0" />
      <path
         id="path3169"
         d="m 204.95897,246.154 -14.14858,5.94084 9.38027,0 0,7.19155 9.61478,0 0,-7.19155 9.38028,0 -14.22675,-5.94084 z"
         style="fill:#737373;fill-opacity:1;fill-rule:evenodd;stroke:none"
         inkscape:connector-curvature="0" />
      <path
         id="path3171"
         d="m 237.78993,167.59421 -14.22675,14.14858 9.38027,0 0,77.5436 9.61478,0 0,-77.5436 9.38027,0 -14.14857,-14.14858 z"
         style="fill:#737373;fill-opacity:1;fill-rule:evenodd;stroke:none"
         inkscape:connector-curvature="0" />
      <path
         id="path3173"
         d="m 299.30888,298.60536 -14.14857,5.86268 9.38027,0 0,7.19154 9.61478,0 0,-7.19154 9.38027,0 -14.22675,-5.86268 z"
         style="fill:#737373;fill-opacity:1;fill-rule:evenodd;stroke:none"
         inkscape:connector-curvature="0" />
      <path
         id="path3175"
         d="m 283.59693,246.154 -14.14858,5.94084 9.3021,0 0,7.19155 9.69295,0 0,-7.19155 9.38027,0 -14.22674,-5.94084 z"
         style="fill:#737373;fill-opacity:1;fill-rule:evenodd;stroke:none"
         inkscape:connector-curvature="0" />
      <path
         id="path3177"
         d="m 316.34971,167.59421 -14.14857,14.14858 9.38027,0 0,77.5436 9.61478,0 0,-77.5436 9.38027,0 -14.22675,-14.14858 z"
         style="fill:#737373;fill-opacity:1;fill-rule:evenodd;stroke:none"
         inkscape:connector-curvature="0" />
      <path
         id="path3179"
         d="m 332.06167,246.154 c 7.26971,0 13.13238,-5.86267 13.13238,-13.05421 0,-7.26971 -5.86267,-13.13238 -13.13238,-13.13238 l -301.341275,0 c -7.191543,0 -13.054214,5.86267 -13.054214,13.13238 0,7.19154 5.862671,13.05421 13.054214,13.05421 l 0,0 301.341275,0 z"
         style="fill:#ffc000;fill-opacity:1;fill-rule:evenodd;stroke:none"
         inkscape:connector-curvature="0" />
      <path
         id="path3181"
         d="m 530.14177,29.62603 0,-27.5154685 218.63854,0 0,73.2443005 -81.99922,0 -140.23509,68.554168 85.595,-68.554168 -81.99923,0 0,-45.728832 z"
         style="fill:#ffffff;fill-opacity:1;fill-rule:evenodd;stroke:none"
         inkscape:connector-curvature="0" />
      <path
         id="path3183"
         d="m 530.14177,29.62603 0,-27.5154685 218.63854,0 0,73.2443005 -81.99922,0 -140.23509,68.554168 85.595,-68.554168 -81.99923,0 0,-45.728832 z"
         style="fill:none;stroke:#000000;stroke-width:0.3908447px;stroke-linecap:round;stroke-linejoin:round;stroke-opacity:1;stroke-dasharray:none"
         inkscape:connector-curvature="0" />
      <text
         id="text3185"
         style="font-size:16.25914001px;font-style:normal;font-weight:normal;text-align:start;text-anchor:start;fill:#000000;font-family:Arial"
         y="33.768986"
         x="561.56567"
         xml:space="preserve">Router</text>
      <text
         id="text3187"
         style="font-size:16.25914001px;font-style:normal;font-weight:normal;text-align:start;text-anchor:start;fill:#000000;font-family:Arial"
         y="33.768986"
         x="611.59381"
         xml:space="preserve">-</text>
      <text
         id="text3189"
         style="font-size:16.25914001px;font-style:normal;font-weight:normal;text-align:start;text-anchor:start;fill:#000000;font-family:Arial"
         y="33.768986"
         x="617.84735"
         xml:space="preserve">to</text>
      <text
         id="text3191"
         style="font-size:16.25914001px;font-style:normal;font-weight:normal;text-align:start;text-anchor:start;fill:#000000;font-family:Arial"
         y="33.768986"
         x="631.60504"
         xml:space="preserve">-</text>
      <text
         id="text3193"
         style="font-size:16.25914001px;font-style:normal;font-weight:normal;text-align:start;text-anchor:start;fill:#000000;font-family:Arial"
         y="33.768986"
         x="636.60791"
         xml:space="preserve">Router link </text>
      <text
         id="text3195"
         style="font-size:16.25914001px;font-style:normal;font-weight:normal;text-align:start;text-anchor:start;fill:#000000;font-family:Arial"
         y="53.780231"
         x="541.55444"
         xml:space="preserve">connecting different nodes</text>
    </g>
  </g>
</svg>
