<?xml version="1.0" encoding="UTF-8" standalone="no"?>
<!-- Created with Inkscape (http://www.inkscape.org/) -->

<svg
   xmlns:dc="http://purl.org/dc/elements/1.1/"
   xmlns:cc="http://creativecommons.org/ns#"
   xmlns:rdf="http://www.w3.org/1999/02/22-rdf-syntax-ns#"
   xmlns:svg="http://www.w3.org/2000/svg"
   xmlns="http://www.w3.org/2000/svg"
   xmlns:sodipodi="http://sodipodi.sourceforge.net/DTD/sodipodi-0.dtd"
   xmlns:inkscape="http://www.inkscape.org/namespaces/inkscape"
   width="867.34375"
   height="607.34375"
   id="svg2"
   version="1.1"
   inkscape:version="0.48.4 r9939"
   sodipodi:docname="crossbar_application_scenario_3.svg">
  <defs
     id="defs4" />
  <sodipodi:namedview
     id="base"
     pagecolor="#ffffff"
     bordercolor="#666666"
     borderopacity="1.0"
     inkscape:pageopacity="0.0"
     inkscape:pageshadow="2"
     inkscape:zoom="0.98994949"
     inkscape:cx="389.2568"
     inkscape:cy="339.78967"
     inkscape:document-units="px"
     inkscape:current-layer="layer1"
     showgrid="false"
     fit-margin-top="10"
     fit-margin-bottom="10"
     fit-margin-left="10"
     fit-margin-right="10"
     inkscape:window-width="1680"
     inkscape:window-height="988"
     inkscape:window-x="-8"
     inkscape:window-y="320"
     inkscape:window-maximized="1" />
  <metadata
     id="metadata7">
    <rdf:RDF>
      <cc:Work
         rdf:about="">
        <dc:format>image/svg+xml</dc:format>
        <dc:type
           rdf:resource="http://purl.org/dc/dcmitype/StillImage" />
        <dc:title />
      </cc:Work>
    </rdf:RDF>
  </metadata>
  <g
     inkscape:label="Ebene 1"
     inkscape:groupmode="layer"
     id="layer1"
     transform="translate(558.75982,-136.02176)">
    <g
       id="g3050"
       transform="translate(-550.72857,144.05301)">
      <path
         id="path3052"
         d="m 823.8225,377.47783 c 13.05421,0 23.68519,-10.55281 23.68519,-23.60702 l 0,0 0,-120.69285 c 0,-13.05422 -10.63098,-23.60702 -23.68519,-23.60702 l 0,0 -108.65484,0 c -13.05421,0 -23.68519,10.5528 -23.68519,23.60702 l 0,120.69285 c 0,13.05421 10.63098,23.60702 23.68519,23.60702 l 0,0 108.65484,0 z"
         style="fill:#f2f2f2;fill-opacity:1;fill-rule:evenodd;stroke:none"
         inkscape:connector-curvature="0" />
      <path
         id="path3054"
         d="m 823.8225,377.47783 c 13.05421,0 23.68519,-10.55281 23.68519,-23.60702 l 0,0 0,-120.69285 c 0,-13.05422 -10.63098,-23.60702 -23.68519,-23.60702 l 0,0 -108.65484,0 c -13.05421,0 -23.68519,10.5528 -23.68519,23.60702 l 0,120.69285 c 0,13.05421 10.63098,23.60702 23.68519,23.60702 l 0,0 108.65484,0 z"
         style="fill:none;stroke:#000000;stroke-width:3.59577131px;stroke-linecap:round;stroke-linejoin:round;stroke-opacity:1;stroke-dasharray:none"
         inkscape:connector-curvature="0" />
      <text
         id="text3056"
         style="font-size:21.26195335px;font-style:normal;font-weight:normal;text-align:start;text-anchor:start;fill:#000000;font-family:Arial"
         y="286.41101"
         x="716.65289"
         xml:space="preserve">Application</text>
      <text
         id="text3058"
         style="font-size:21.26195335px;font-style:normal;font-weight:normal;text-align:start;text-anchor:start;fill:#000000;font-family:Arial"
         y="312.67578"
         x="726.65851"
         xml:space="preserve">Backend</text>
      <path
         id="path3060"
         d="m 138.04635,169.15759 c 13.05422,0 23.68519,-10.5528 23.68519,-23.60702 l 0,0 0,-118.19144 c 0,-13.054213 -10.63097,-23.6070207 -23.68519,-23.6070207 l 0,0 -110.68722,0 c -13.054213,0 -23.6070207,10.5528077 -23.6070207,23.6070207 l 0,0 0,118.19144 c 0,13.05422 10.5528077,23.60702 23.6070207,23.60702 l 0,0 110.68722,0 z"
         style="fill:#f2f2f2;fill-opacity:1;fill-rule:evenodd;stroke:none"
         inkscape:connector-curvature="0" />
      <path
         id="path3062"
         d="m 138.04635,169.15759 c 13.05422,0 23.68519,-10.5528 23.68519,-23.60702 l 0,0 0,-118.19144 c 0,-13.054213 -10.63097,-23.6070207 -23.68519,-23.6070207 l 0,0 -110.68722,0 c -13.054213,0 -23.6070207,10.5528077 -23.6070207,23.6070207 l 0,0 0,118.19144 c 0,13.05422 10.5528077,23.60702 23.6070207,23.60702 l 0,0 110.68722,0 z"
         style="fill:none;stroke:#000000;stroke-width:3.59577131px;stroke-linecap:round;stroke-linejoin:round;stroke-opacity:1;stroke-dasharray:none"
         inkscape:connector-curvature="0" />
      <text
         id="text3064"
         style="font-size:23.76335907px;font-style:normal;font-weight:normal;text-align:start;text-anchor:start;fill:#000000;font-family:Arial"
         y="78.794296"
         x="32.51828"
         xml:space="preserve">Frontend</text>
      <text
         id="text3066"
         style="font-size:23.76335907px;font-style:normal;font-weight:normal;text-align:start;text-anchor:start;fill:#000000;font-family:Arial"
         y="78.794296"
         x="126.32101"
         xml:space="preserve">: </text>
      <text
         id="text3068"
         style="font-size:23.76335907px;font-style:normal;font-weight:bold;text-align:start;text-anchor:start;fill:#000000;font-family:Arial"
         y="107.56047"
         x="36.27039"
         xml:space="preserve">Browser</text>
      <path
         id="path3070"
         d="m 560.47133,377.71234 c 13.05421,0 23.60702,-10.55281 23.60702,-23.60703 l 0,0 0,-121.16186 c 0,-13.05421 -10.55281,-23.60702 -23.60702,-23.60702 l 0,0 -172.59703,0 c -13.05422,0 -23.60702,10.55281 -23.60702,23.60702 l 0,0 0,121.16186 c 0,13.05422 10.5528,23.60703 23.60702,23.60703 l 0,0 172.59703,0 z"
         style="fill:#ffe100;fill-opacity:1;fill-rule:evenodd;stroke:none"
         inkscape:connector-curvature="0" />
      <path
         id="path3072"
         d="m 560.47133,377.71234 c 13.05421,0 23.60702,-10.55281 23.60702,-23.60703 l 0,0 0,-121.16186 c 0,-13.05421 -10.55281,-23.60702 -23.60702,-23.60702 l 0,0 -172.59703,0 c -13.05422,0 -23.60702,10.55281 -23.60702,23.60702 l 0,0 0,121.16186 c 0,13.05422 10.5528,23.60703 23.60702,23.60703 l 0,0 172.59703,0 z"
         style="fill:none;stroke:#ffc000;stroke-width:5.23731899px;stroke-linecap:round;stroke-linejoin:round;stroke-opacity:1;stroke-dasharray:none"
         inkscape:connector-curvature="0" />
      <path
         id="path3074"
         d="m 413.82639,343.39617 c -2.11056,0.46901 -4.22113,0.70352 -6.17535,0.70352 -0.78169,0 -1.56338,-0.0782 -2.2669,-0.15634 -0.70352,-0.0782 -1.48521,-0.23451 -2.34507,-0.39084 -0.85986,-0.23451 -1.64155,-0.54719 -2.18873,-0.93803 -0.62535,-0.39085 -1.17253,-0.93803 -1.56338,-1.64155 -0.39084,-0.70352 -0.62535,-1.56338 -0.62535,-2.5014 l 0,-8.52042 c 0,-3.83028 2.97042,-5.7845 8.98943,-5.7845 1.40704,0 3.43943,0.23451 6.09718,0.62535 l 0,3.5176 c -2.34507,-0.54718 -4.37746,-0.85986 -6.09718,-0.85986 -0.62535,0 -1.17253,0 -1.64155,0.0782 -0.39084,0 -0.85986,0.15634 -1.32887,0.31268 -0.46901,0.15634 -0.78169,0.39084 -1.0162,0.70352 -0.2345,0.39084 -0.39084,0.85986 -0.39084,1.40704 l 0,8.20774 c 0,1.71972 1.64155,2.57957 4.84647,2.57957 1.40705,0 3.2831,-0.2345 5.70634,-0.85985 l 0,3.5176 z"
         style="fill:#000000;fill-opacity:1;fill-rule:evenodd;stroke:none"
         inkscape:connector-curvature="0" />
      <path
         id="path3076"
         d="m 426.09891,332.68702 -1.48521,0 c -1.17253,0 -2.11056,0.15634 -2.65774,0.54719 -0.62535,0.39084 -0.93803,1.01619 -0.93803,1.87605 l 0,8.67675 -4.29929,0 0,-14.46125 4.06478,0 0,2.57957 c 0.0782,-0.70352 0.46902,-1.40704 1.25071,-1.95422 0.78169,-0.62535 1.64154,-0.85986 2.5014,-0.85986 l 1.56338,0 0,3.59577 z"
         style="fill:#000000;fill-opacity:1;fill-rule:evenodd;stroke:none"
         inkscape:connector-curvature="0" />
      <path
         id="path3078"
         d="m 442.67073,334.56308 0,4.29929 c 0,0.85986 -0.15634,1.71972 -0.46902,2.34507 -0.2345,0.70352 -0.62535,1.17253 -1.09436,1.56338 -0.39085,0.39084 -1.0162,0.62535 -1.71972,0.85986 -0.70352,0.15633 -1.32887,0.31267 -1.87605,0.39084 -0.62535,0 -1.32888,0.0782 -2.11056,0.0782 -0.85986,0 -1.56338,-0.0782 -2.18873,-0.0782 -0.54719,-0.0782 -1.17254,-0.23451 -1.87606,-0.39084 -0.70352,-0.23451 -1.32887,-0.46902 -1.71972,-0.85986 -0.46901,-0.39085 -0.85985,-0.85986 -1.09436,-1.56338 -0.31268,-0.62535 -0.46902,-1.48521 -0.46902,-2.34507 l 0,-4.29929 c 0,-1.0162 0.15634,-1.79789 0.46902,-2.50141 0.31267,-0.70352 0.70352,-1.2507 1.09436,-1.64155 0.46902,-0.39084 1.09437,-0.70352 1.71972,-0.85985 0.78169,-0.23451 1.40704,-0.39085 1.95422,-0.39085 0.54719,-0.0782 1.25071,-0.0782 2.11057,-0.0782 0.78168,0 1.48521,0 2.03239,0.0782 0.54718,0 1.17253,0.15634 1.95422,0.39085 0.70352,0.15633 1.2507,0.46901 1.71972,0.85985 0.39084,0.39085 0.78169,0.93803 1.09436,1.64155 0.31268,0.70352 0.46902,1.48521 0.46902,2.50141 z m -4.37746,4.7683 0,-5.47182 c 0,-0.78169 -0.15634,-1.32887 -0.54719,-1.64155 -0.39084,-0.31268 -1.17253,-0.46901 -2.34506,-0.46901 -1.25071,0 -2.0324,0.15633 -2.42324,0.46901 -0.39085,0.31268 -0.54718,0.85986 -0.54718,1.64155 l 0,5.47182 c 0,0.78169 0.15633,1.25071 0.54718,1.56338 0.39084,0.31268 1.17253,0.46902 2.42324,0.46902 1.17253,0 1.95422,-0.15634 2.34506,-0.46902 0.39085,-0.31267 0.54719,-0.78169 0.54719,-1.56338 z"
         style="fill:#000000;fill-opacity:1;fill-rule:evenodd;stroke:none"
         inkscape:connector-curvature="0" />
      <path
         id="path3080"
         d="m 458.46085,338.15885 0,1.79789 c 0,0.70352 -0.15633,1.32887 -0.39084,1.87605 -0.31268,0.46901 -0.62535,0.85986 -1.0162,1.17253 -0.39084,0.31268 -0.93802,0.54719 -1.56338,0.70352 -0.70352,0.15634 -1.32887,0.23451 -1.95422,0.31268 -0.54718,0 -1.2507,0.0782 -2.11056,0.0782 -1.56338,0 -3.43943,-0.15634 -5.70633,-0.46901 l 0,-2.89226 c 2.81408,0.39085 4.69013,0.62536 5.7845,0.62536 0.85986,0 1.48521,-0.0782 1.95422,-0.23451 0.46902,-0.15634 0.70352,-0.54718 0.70352,-1.0162 l 0,-0.93802 c 0,-0.39085 -0.15634,-0.78169 -0.39084,-1.0162 -0.23451,-0.23451 -0.78169,-0.31268 -1.64155,-0.31268 l -1.87606,0 c -1.48521,0 -2.65774,-0.31267 -3.5176,-0.93802 -0.85986,-0.54719 -1.2507,-1.48521 -1.2507,-2.65775 l 0,-1.71971 c 0,-1.32888 0.62535,-2.18873 1.87605,-2.73592 1.25071,-0.46901 2.97042,-0.70352 5.23732,-0.70352 1.0162,0 2.65775,0.0782 5.15915,0.23451 l 0,2.81408 c -3.12675,-0.23451 -4.84647,-0.39084 -5.23732,-0.39084 -1.2507,0 -1.95422,0.0782 -2.2669,0.2345 -0.39084,0.15634 -0.54718,0.46902 -0.54718,1.0162 l 0,0.70352 c 0,0.23451 0.15634,0.46901 0.39085,0.70352 0.2345,0.15634 0.62535,0.31268 1.17253,0.31268 l 1.87606,0 c 3.5176,0 5.31548,1.09436 5.31548,3.43943 z"
         style="fill:#000000;fill-opacity:1;fill-rule:evenodd;stroke:none"
         inkscape:connector-curvature="0" />
      <path
         id="path3082"
         d="m 474.09464,338.15885 0,1.79789 c 0,0.70352 -0.15634,1.32887 -0.39084,1.87605 -0.31268,0.46901 -0.62535,0.85986 -1.0162,1.17253 -0.39084,0.31268 -0.93803,0.54719 -1.64155,0.70352 -0.62535,0.15634 -1.2507,0.23451 -1.87605,0.31268 -0.54718,0 -1.32887,0.0782 -2.11056,0.0782 -1.56338,0 -3.43944,-0.15634 -5.70634,-0.46901 l 0,-2.89226 c 2.81409,0.39085 4.69014,0.62536 5.78451,0.62536 0.85985,0 1.48521,-0.0782 1.95422,-0.23451 0.46901,-0.15634 0.70352,-0.54718 0.70352,-1.0162 l 0,-0.93802 c 0,-0.39085 -0.15634,-0.78169 -0.39084,-1.0162 -0.23451,-0.23451 -0.78169,-0.31268 -1.64155,-0.31268 l -1.87606,0 c -1.48521,0 -2.65774,-0.31267 -3.5176,-0.93802 -0.85986,-0.54719 -1.2507,-1.48521 -1.2507,-2.65775 l 0,-1.71971 c 0,-1.32888 0.62535,-2.18873 1.87605,-2.73592 1.25071,-0.46901 2.97042,-0.70352 5.23732,-0.70352 0.93803,0 2.65775,0.0782 5.15915,0.23451 l 0,2.81408 c -3.12676,-0.23451 -4.84647,-0.39084 -5.23732,-0.39084 -1.2507,0 -1.95422,0.0782 -2.34507,0.2345 -0.31267,0.15634 -0.46901,0.46902 -0.46901,1.0162 l 0,0.70352 c 0,0.23451 0.15634,0.46901 0.39085,0.70352 0.2345,0.15634 0.62535,0.31268 1.17253,0.31268 l 1.87605,0 c 3.51761,0 5.31549,1.09436 5.31549,3.43943 z"
         style="fill:#000000;fill-opacity:1;fill-rule:evenodd;stroke:none"
         inkscape:connector-curvature="0" />
      <path
         id="path3084"
         d="m 492.0735,333.93773 0,4.69013 c 0,1.95423 -0.62535,3.36127 -1.79789,4.22113 -1.17253,0.78169 -3.04859,1.2507 -5.70633,1.2507 -2.73591,0 -4.61197,-0.46901 -5.70633,-1.32887 -1.0162,-0.85986 -1.56338,-2.2669 -1.56338,-4.14296 l 0,-15.71195 4.37746,0 0,7.89506 c 0.23451,-0.70352 0.70352,-1.09437 1.40704,-1.40704 0.70352,-0.23451 1.79789,-0.31268 3.20493,-0.31268 1.2507,0 2.2669,0.0782 3.04859,0.23451 0.70352,0.23451 1.32887,0.54718 1.71971,1.0162 0.39085,0.39084 0.70352,0.93802 0.78169,1.48521 0.15634,0.46901 0.23451,1.2507 0.23451,2.11056 z m -4.37746,5.23732 0,-5.31549 c 0,-0.93803 -0.15634,-1.48521 -0.46902,-1.71972 -0.39084,-0.23451 -1.2507,-0.39084 -2.65774,-0.39084 -1.17253,0 -1.95422,0.15633 -2.34507,0.46901 -0.39084,0.31268 -0.54718,0.85986 -0.54718,1.64155 l 0,5.31549 c 0,0.85985 0.15634,1.48521 0.54718,1.71971 0.31268,0.31268 1.17254,0.46902 2.42324,0.46902 1.2507,0 2.11056,-0.15634 2.50141,-0.46902 0.39084,-0.2345 0.54718,-0.85986 0.54718,-1.71971 z"
         style="fill:#000000;fill-opacity:1;fill-rule:evenodd;stroke:none"
         inkscape:connector-curvature="0" />
      <path
         id="path3086"
         d="m 508.41081,343.78701 -4.29929,0 0,-1.32887 c -0.31268,0.54718 -0.78169,1.0162 -1.32888,1.2507 -0.62535,0.23451 -1.71971,0.39085 -3.28309,0.39085 -1.95422,0 -3.20493,-0.31268 -3.90845,-0.93803 -0.62535,-0.62535 -0.93803,-1.79788 -0.93803,-3.75211 0,-1.64155 0.31268,-2.89225 1.0162,-3.5176 0.62535,-0.70352 1.79789,-1.0162 3.5176,-1.0162 l 4.84648,0 0,-0.93802 c 0,-0.85986 -0.23451,-1.48521 -0.62535,-1.79789 -0.39085,-0.23451 -1.25071,-0.39084 -2.57958,-0.39084 -1.17253,0 -2.89225,0.15633 -5.00281,0.39084 l 0,-2.81408 c 1.64155,-0.15634 3.43943,-0.23451 5.47182,-0.23451 2.65775,0 4.5338,0.31268 5.55,0.93803 1.0162,0.62535 1.56338,1.95422 1.56338,3.83028 l 0,9.92745 z m -4.37746,-3.67394 0,-2.81408 -2.97042,0 c -0.93803,0 -1.56338,0.0782 -1.79789,0.31268 -0.2345,0.2345 -0.31267,0.78169 -0.31267,1.71971 0,0.93803 0.0782,1.56338 0.31267,1.71972 0.31268,0.23451 0.93803,0.31268 1.95423,0.31268 0.46901,0 0.85985,0 1.09436,0 0.23451,0 0.46901,-0.0782 0.78169,-0.0782 0.23451,-0.0782 0.46901,-0.0782 0.54718,-0.23451 0.0782,-0.0782 0.15634,-0.15634 0.31268,-0.31268 0.0782,-0.2345 0.0782,-0.39084 0.0782,-0.62535 z"
         style="fill:#000000;fill-opacity:1;fill-rule:evenodd;stroke:none"
         inkscape:connector-curvature="0" />
      <path
         id="path3088"
         d="m 521.62136,332.68702 -1.48521,0 c -1.17253,0 -2.11056,0.15634 -2.65774,0.54719 -0.62536,0.39084 -0.93803,1.01619 -0.93803,1.87605 l 0,8.67675 -4.37746,0 0,-14.46125 4.14295,0 0,2.57957 c 0.0782,-0.70352 0.46902,-1.40704 1.25071,-1.95422 0.78168,-0.62535 1.64154,-0.85986 2.5014,-0.85986 l 1.56338,0 0,3.59577 z"
         style="fill:#000000;fill-opacity:1;fill-rule:evenodd;stroke:none"
         inkscape:connector-curvature="0" />
      <path
         id="path3090"
         d="m 524.20094,340.58209 0,3.20492 3.43943,0 0,-3.20492 -3.43943,0 z"
         style="fill:#000000;fill-opacity:1;fill-rule:evenodd;stroke:none"
         inkscape:connector-curvature="0" />
      <path
         id="path3092"
         d="m 534.67557,326.98069 -2.65774,0 0,-2.81408 2.65774,0 0,2.81408 z m 0,16.80632 -2.65774,0 0,-14.46125 2.65774,0 0,14.46125 z"
         style="fill:#000000;fill-opacity:1;fill-rule:evenodd;stroke:none"
         inkscape:connector-curvature="0" />
      <path
         id="path3094"
         d="m 552.02908,334.2504 0,4.92465 c 0,0.93802 -0.0782,1.71971 -0.31268,2.2669 -0.2345,0.62535 -0.46901,1.09436 -0.78169,1.48521 -0.39084,0.31267 -0.85985,0.54718 -1.48521,0.78168 -0.62535,0.15634 -1.2507,0.23451 -1.79788,0.31268 -0.54718,0 -1.32887,0.0782 -2.18873,0.0782 -1.25071,0 -2.18873,-0.0782 -2.81408,-0.15634 -0.70352,-0.0782 -1.32888,-0.31267 -2.0324,-0.54718 -0.62535,-0.31268 -1.09436,-0.85986 -1.40704,-1.48521 -0.2345,-0.70352 -0.39084,-1.56338 -0.39084,-2.73591 l 0,-4.92465 c 0,-1.01619 0.0782,-1.79788 0.31267,-2.42323 0.23451,-0.70353 0.46902,-1.17254 0.85986,-1.56338 0.31268,-0.31268 0.78169,-0.62536 1.40704,-0.78169 0.62535,-0.23451 1.25071,-0.31268 1.79789,-0.39085 0.54718,0 1.2507,0 2.2669,0 0.93803,0 1.64155,0 2.18873,0 0.54718,0.0782 1.17253,0.15634 1.79788,0.39085 0.62536,0.15633 1.09437,0.46901 1.40705,0.78169 0.31267,0.39084 0.62535,0.85985 0.85985,1.56338 0.23451,0.62535 0.31268,1.40704 0.31268,2.42323 z m -2.73591,5.31549 0,-5.7845 c 0,-1.32887 -0.23451,-2.18873 -0.78169,-2.50141 -0.54719,-0.31267 -1.56338,-0.46901 -3.04859,-0.46901 -1.56338,0 -2.57958,0.15634 -3.12676,0.46901 -0.54718,0.31268 -0.78169,1.17254 -0.78169,2.50141 l 0,5.7845 c 0,0.70352 0,1.17253 0.15634,1.56338 0.15634,0.39084 0.39084,0.62535 0.78169,0.78169 0.39084,0.15634 0.78169,0.31267 1.17253,0.31267 0.39085,0.0782 1.0162,0.0782 1.79789,0.0782 0.70352,0 1.32887,0 1.71971,-0.0782 0.39085,0 0.78169,-0.15633 1.17254,-0.31267 0.39084,-0.15634 0.62535,-0.39085 0.78169,-0.78169 0.0782,-0.39085 0.15634,-0.85986 0.15634,-1.56338 z"
         style="fill:#000000;fill-opacity:1;fill-rule:evenodd;stroke:none"
         inkscape:connector-curvature="0" />
      <path
         id="path3096"
         d="m 439.85665,241.77654 0,64.88023 64.80205,0 0,-64.88023 -64.80205,0 z"
         style="fill:#000000;fill-opacity:1;fill-rule:evenodd;stroke:none"
         inkscape:connector-curvature="0" />
      <path
         id="path3098"
         d="m 439.85665,255.53428 0,6.48802 15.24294,-0.0782 10.16196,10.24013 4.76831,-4.69014 -12.03802,-12.11618 -18.13519,0.15634 z"
         style="fill:#ffe100;fill-opacity:1;fill-rule:evenodd;stroke:none"
         inkscape:connector-curvature="0" />
      <path
         id="path3100"
         d="m 479.17562,276.63989 -4.69013,4.69014 11.64717,11.64717 18.52604,0 0,-6.48802 -15.63379,0 -9.84929,-9.84929 z"
         style="fill:#ffe100;fill-opacity:1;fill-rule:evenodd;stroke:none"
         inkscape:connector-curvature="0" />
      <path
         id="path3102"
         d="m 486.60167,255.45611 -30.9549,31.11124 -15.79012,0 0,6.48802 18.52603,0 31.03308,-31.03307 15.24294,0 0,-6.56619 -18.05703,0 z"
         style="fill:#ffe100;fill-opacity:1;fill-rule:evenodd;stroke:none"
         inkscape:connector-curvature="0" />
      <path
         id="path3104"
         d="M 176.66181,101.77596 349.25884,278.20327"
         style="fill:none;stroke:#ffc000;stroke-width:3.59577131px;stroke-linecap:round;stroke-linejoin:round;stroke-opacity:1;stroke-dasharray:none"
         inkscape:connector-curvature="0" />
      <path
         id="path3106"
         d="M 172.51886,108.65483 161.73154,86.454852 183.61885,97.711179 172.51886,108.65483 z"
         style="fill:#ffc000;fill-opacity:1;fill-rule:evenodd;stroke:none"
         inkscape:connector-curvature="0" />
      <path
         id="path3108"
         d="m 353.47996,271.3244 10.78732,22.19998 -21.96548,-11.25632 11.17816,-10.94366 z"
         style="fill:#ffc000;fill-opacity:1;fill-rule:evenodd;stroke:none"
         inkscape:connector-curvature="0" />
      <path
         id="path3110"
         d="m 220.35825,170.01745 0,40.0225 85.28232,0 0,-40.0225 -85.28232,0 z"
         style="fill:#ffffff;fill-opacity:1;fill-rule:evenodd;stroke:none"
         inkscape:connector-curvature="0" />
      <text
         id="text3112"
         style="font-size:16.25914001px;font-style:normal;font-weight:normal;text-align:start;text-anchor:start;fill:#000000;font-family:Arial"
         y="185.10406"
         x="236.38289"
         xml:space="preserve">WAMP</text>
      <text
         id="text3114"
         style="font-size:16.25914001px;font-style:normal;font-weight:normal;text-align:start;text-anchor:start;fill:#000000;font-family:Arial"
         y="205.11531"
         x="220.12373"
         xml:space="preserve">WebSocket</text>
      <path
         id="path3116"
         d="m 367.70671,506.53475 0,-30.09504 264.68004,0 0,80.35767 -264.68004,0 0,-30.17321 -144.06536,-86.37668 144.06536,66.28726 z"
         style="fill:#ffffff;fill-opacity:1;fill-rule:evenodd;stroke:none"
         inkscape:connector-curvature="0" />
      <path
         id="path3118"
         d="m 367.70671,506.53475 0,-30.09504 264.68004,0 0,80.35767 -264.68004,0 0,-30.17321 -144.06536,-86.37668 144.06536,66.28726 z"
         style="fill:none;stroke:#000000;stroke-width:0.3908447px;stroke-linecap:round;stroke-linejoin:round;stroke-opacity:1;stroke-dasharray:none"
         inkscape:connector-curvature="0" />
      <text
         id="text3120"
         style="font-size:16.25914001px;font-style:normal;font-weight:normal;text-align:start;text-anchor:start;fill:#000000;font-family:Arial"
         y="501.53195"
         x="373.96024"
         xml:space="preserve">Serve frontends of different </text>
      <text
         id="text3122"
         style="font-size:16.25914001px;font-style:normal;font-weight:normal;text-align:start;text-anchor:start;fill:#000000;font-family:Arial"
         y="521.54321"
         x="373.96024"
         xml:space="preserve">technologies with the </text>
      <text
         id="text3124"
         style="font-size:16.25914001px;font-style:normal;font-weight:bold;text-align:start;text-anchor:start;fill:#000000;font-family:Arial"
         y="521.54321"
         x="535.3009"
         xml:space="preserve">same </text>
      <text
         id="text3126"
         style="font-size:16.25914001px;font-style:normal;font-weight:normal;text-align:start;text-anchor:start;fill:#000000;font-family:Arial"
         y="541.55444"
         x="373.96024"
         xml:space="preserve">backend over the </text>
      <text
         id="text3128"
         style="font-size:16.25914001px;font-style:normal;font-weight:bold;text-align:start;text-anchor:start;fill:#000000;font-family:Arial"
         y="541.55444"
         x="506.53476"
         xml:space="preserve">same </text>
      <text
         id="text3130"
         style="font-size:16.25914001px;font-style:normal;font-weight:normal;text-align:start;text-anchor:start;fill:#000000;font-family:Arial"
         y="541.55444"
         x="554.06146"
         xml:space="preserve">protocol</text>
      <path
         id="path3132"
         d="m 605.57481,293.52438 64.48937,0"
         style="fill:none;stroke:#ffc000;stroke-width:3.59577131px;stroke-linecap:round;stroke-linejoin:round;stroke-opacity:1;stroke-dasharray:none"
         inkscape:connector-curvature="0" />
      <path
         id="path3134"
         d="m 607.52903,301.34128 -23.45068,-7.8169 23.45068,-7.81689 0,15.63379 z"
         style="fill:#ffc000;fill-opacity:1;fill-rule:evenodd;stroke:none"
         inkscape:connector-curvature="0" />
      <path
         id="path3136"
         d="m 668.10996,285.70749 23.37251,7.81689 -23.37251,7.8169 0,-15.63379 z"
         style="fill:#ffc000;fill-opacity:1;fill-rule:evenodd;stroke:none"
         inkscape:connector-curvature="0" />
      <path
         id="path3138"
         d="m 138.04635,374.82008 c 13.05422,0 23.68519,-10.63097 23.68519,-23.68519 l 0,0 0,-118.19144 c 0,-13.05421 -10.63097,-23.60702 -23.68519,-23.60702 l 0,0 -110.68722,0 c -13.054213,0 -23.6070207,10.55281 -23.6070207,23.60702 l 0,0 0,118.19144 c 0,13.05422 10.5528077,23.68519 23.6070207,23.68519 l 0,0 110.68722,0 z"
         style="fill:#f2f2f2;fill-opacity:1;fill-rule:evenodd;stroke:none"
         inkscape:connector-curvature="0" />
      <path
         id="path3140"
         d="m 138.04635,374.82008 c 13.05422,0 23.68519,-10.63097 23.68519,-23.68519 l 0,0 0,-118.19144 c 0,-13.05421 -10.63097,-23.60702 -23.68519,-23.60702 l 0,0 -110.68722,0 c -13.054213,0 -23.6070207,10.55281 -23.6070207,23.60702 l 0,0 0,118.19144 c 0,13.05422 10.5528077,23.68519 23.6070207,23.68519 l 0,0 110.68722,0 z"
         style="fill:none;stroke:#000000;stroke-width:3.59577131px;stroke-linecap:round;stroke-linejoin:round;stroke-opacity:1;stroke-dasharray:none"
         inkscape:connector-curvature="0" />
      <text
         id="text3142"
         style="font-size:23.76335907px;font-style:normal;font-weight:normal;text-align:start;text-anchor:start;fill:#000000;font-family:Arial"
         y="285.16031"
         x="32.51828"
         xml:space="preserve">Frontend</text>
      <text
         id="text3144"
         style="font-size:23.76335907px;font-style:normal;font-weight:normal;text-align:start;text-anchor:start;fill:#000000;font-family:Arial"
         y="285.16031"
         x="126.32101"
         xml:space="preserve">: </text>
      <text
         id="text3146"
         style="font-size:23.76335907px;font-style:normal;font-weight:bold;text-align:start;text-anchor:start;fill:#000000;font-family:Arial"
         y="312.67578"
         x="46.276016"
         xml:space="preserve">Hybrid</text>
      <path
         id="path3148"
         d="m 138.04635,587.51778 c 13.05422,0 23.68519,-10.63098 23.68519,-23.68519 l 0,0 0,-118.11327 c 0,-13.05422 -10.63097,-23.68519 -23.68519,-23.68519 l 0,0 -110.68722,0 c -13.054213,0 -23.6070207,10.63097 -23.6070207,23.68519 l 0,0 0,118.11327 c 0,13.05421 10.5528077,23.68519 23.6070207,23.68519 l 0,0 110.68722,0 z"
         style="fill:#f2f2f2;fill-opacity:1;fill-rule:evenodd;stroke:none"
         inkscape:connector-curvature="0" />
      <path
         id="path3150"
         d="m 138.04635,587.51778 c 13.05422,0 23.68519,-10.63098 23.68519,-23.68519 l 0,0 0,-118.11327 c 0,-13.05422 -10.63097,-23.68519 -23.68519,-23.68519 l 0,0 -110.68722,0 c -13.054213,0 -23.6070207,10.63097 -23.6070207,23.68519 l 0,0 0,118.11327 c 0,13.05421 10.5528077,23.68519 23.6070207,23.68519 l 0,0 110.68722,0 z"
         style="fill:none;stroke:#000000;stroke-width:3.59577131px;stroke-linecap:round;stroke-linejoin:round;stroke-opacity:1;stroke-dasharray:none"
         inkscape:connector-curvature="0" />
      <text
         id="text3152"
         style="font-size:23.76335907px;font-style:normal;font-weight:normal;text-align:start;text-anchor:start;fill:#000000;font-family:Arial"
         y="497.77982"
         x="32.51828"
         xml:space="preserve">Frontend</text>
      <text
         id="text3154"
         style="font-size:23.76335907px;font-style:normal;font-weight:normal;text-align:start;text-anchor:start;fill:#000000;font-family:Arial"
         y="497.77982"
         x="126.32101"
         xml:space="preserve">: </text>
      <text
         id="text3156"
         style="font-size:23.76335907px;font-style:normal;font-weight:bold;text-align:start;text-anchor:start;fill:#000000;font-family:Arial"
         y="525.29529"
         x="46.276016"
         xml:space="preserve">Mobile</text>
      <path
         id="path3158"
         d="m 183.14983,292.19551 159.69916,1.17254"
         style="fill:none;stroke:#ffc000;stroke-width:3.59577131px;stroke-linecap:round;stroke-linejoin:round;stroke-opacity:1;stroke-dasharray:none"
         inkscape:connector-curvature="0" />
      <path
         id="path3160"
         d="m 185.02589,300.01241 -23.29435,-7.97324 23.45069,-7.58238 -0.15634,15.55562 z"
         style="fill:#ffc000;fill-opacity:1;fill-rule:evenodd;stroke:none"
         inkscape:connector-curvature="0" />
      <path
         id="path3162"
         d="m 340.89476,285.55115 23.37252,7.97323 -23.45069,7.66056 0.0782,-15.63379 z"
         style="fill:#ffc000;fill-opacity:1;fill-rule:evenodd;stroke:none"
         inkscape:connector-curvature="0" />
      <path
         id="path3164"
         d="m 220.35825,272.80961 0,40.0225 85.28232,0 0,-40.0225 -85.28232,0 z"
         style="fill:#ffffff;fill-opacity:1;fill-rule:evenodd;stroke:none"
         inkscape:connector-curvature="0" />
      <text
         id="text3166"
         style="font-size:16.25914001px;font-style:normal;font-weight:normal;text-align:start;text-anchor:start;fill:#000000;font-family:Arial"
         y="287.66171"
         x="236.38289"
         xml:space="preserve">WAMP</text>
      <text
         id="text3168"
         style="font-size:16.25914001px;font-style:normal;font-weight:normal;text-align:start;text-anchor:start;fill:#000000;font-family:Arial"
         y="307.67297"
         x="220.12373"
         xml:space="preserve">WebSocket</text>
      <path
         id="path3170"
         d="M 176.58364,489.25942 349.41518,309.00183"
         style="fill:none;stroke:#ffc000;stroke-width:3.59577131px;stroke-linecap:round;stroke-linejoin:round;stroke-opacity:1;stroke-dasharray:none"
         inkscape:connector-curvature="0" />
      <path
         id="path3172"
         d="m 183.54068,493.3242 -21.80914,11.49084 10.55281,-22.35632 11.25633,10.86548 z"
         style="fill:#ffc000;fill-opacity:1;fill-rule:evenodd;stroke:none"
         inkscape:connector-curvature="0" />
      <path
         id="path3174"
         d="m 342.45814,305.01522 21.80914,-11.49084 -10.55281,22.35632 -11.25633,-10.86548 z"
         style="fill:#ffc000;fill-opacity:1;fill-rule:evenodd;stroke:none"
         inkscape:connector-curvature="0" />
      <path
         id="path3176"
         d="m 220.35825,379.11938 0,40.0225 85.28232,0 0,-40.0225 -85.28232,0 z"
         style="fill:#ffffff;fill-opacity:1;fill-rule:evenodd;stroke:none"
         inkscape:connector-curvature="0" />
      <text
         id="text3178"
         style="font-size:16.25914001px;font-style:normal;font-weight:normal;text-align:start;text-anchor:start;fill:#000000;font-family:Arial"
         y="393.97147"
         x="236.38289"
         xml:space="preserve">WAMP</text>
      <text
         id="text3180"
         style="font-size:16.25914001px;font-style:normal;font-weight:normal;text-align:start;text-anchor:start;fill:#000000;font-family:Arial"
         y="413.98273"
         x="220.12373"
         xml:space="preserve">WebSocket</text>
    </g>
  </g>
</svg>
