<?xml version="1.0" encoding="UTF-8" standalone="no"?>
<!-- Created with Inkscape (http://www.inkscape.org/) -->

<svg
   xmlns:dc="http://purl.org/dc/elements/1.1/"
   xmlns:cc="http://creativecommons.org/ns#"
   xmlns:rdf="http://www.w3.org/1999/02/22-rdf-syntax-ns#"
   xmlns:svg="http://www.w3.org/2000/svg"
   xmlns="http://www.w3.org/2000/svg"
   xmlns:sodipodi="http://sodipodi.sourceforge.net/DTD/sodipodi-0.dtd"
   xmlns:inkscape="http://www.inkscape.org/namespaces/inkscape"
   width="930.71875"
   height="593.28125"
   id="svg2"
   version="1.1"
   inkscape:version="0.48.4 r9939"
   sodipodi:docname="crossbar_application_scenario_5.svg">
  <defs
     id="defs4" />
  <sodipodi:namedview
     id="base"
     pagecolor="#ffffff"
     bordercolor="#666666"
     borderopacity="1.0"
     inkscape:pageopacity="0.0"
     inkscape:pageshadow="2"
     inkscape:zoom="0.98994949"
     inkscape:cx="384.88967"
     inkscape:cy="336.40781"
     inkscape:document-units="px"
     inkscape:current-layer="layer1"
     showgrid="false"
     fit-margin-top="10"
     fit-margin-bottom="10"
     fit-margin-left="10"
     fit-margin-right="10"
     inkscape:window-width="1680"
     inkscape:window-height="988"
     inkscape:window-x="-8"
     inkscape:window-y="320"
     inkscape:window-maximized="1" />
  <metadata
     id="metadata7">
    <rdf:RDF>
      <cc:Work
         rdf:about="">
        <dc:format>image/svg+xml</dc:format>
        <dc:type
           rdf:resource="http://purl.org/dc/dcmitype/StillImage" />
        <dc:title />
      </cc:Work>
    </rdf:RDF>
  </metadata>
  <g
     inkscape:label="Ebene 1"
     inkscape:groupmode="layer"
     id="layer1"
     transform="translate(554.39269,-429.54509)">
    <g
       id="g3042"
       transform="translate(-546.36144,437.57634)">
      <path
         id="path3044"
         d="m 887.29568,171.659 c 13.05421,0 23.60702,-10.55281 23.60702,-23.60702 l 0,0 0,-120.69285 c 0,-13.054213 -10.55281,-23.6070207 -23.60702,-23.6070207 l 0,0 -108.733,0 c -13.05422,0 -23.60702,10.5528077 -23.60702,23.6070207 l 0,0 0,120.69285 c 0,13.05421 10.5528,23.60702 23.60702,23.60702 l 0,0 108.733,0 z"
         style="fill:#f2f2f2;fill-opacity:1;fill-rule:evenodd;stroke:none"
         inkscape:connector-curvature="0" />
      <path
         id="path3046"
         d="m 887.29568,171.659 c 13.05421,0 23.60702,-10.55281 23.60702,-23.60702 l 0,0 0,-120.69285 c 0,-13.054213 -10.55281,-23.6070207 -23.60702,-23.6070207 l 0,0 -108.733,0 c -13.05422,0 -23.60702,10.5528077 -23.60702,23.6070207 l 0,0 0,120.69285 c 0,13.05421 10.5528,23.60702 23.60702,23.60702 l 0,0 108.733,0 z"
         style="fill:none;stroke:#000000;stroke-width:3.59577131px;stroke-linecap:round;stroke-linejoin:round;stroke-opacity:1;stroke-dasharray:none"
         inkscape:connector-curvature="0" />
      <text
         id="text3048"
         style="font-size:21.26195335px;font-style:normal;font-weight:normal;text-align:start;text-anchor:start;fill:#000000;font-family:Arial"
         y="67.537964"
         x="790.44434"
         xml:space="preserve">Backend </text>
      <text
         id="text3050"
         style="font-size:21.26195335px;font-style:normal;font-weight:normal;text-align:start;text-anchor:start;fill:#000000;font-family:Arial"
         y="93.802734"
         x="765.4303"
         xml:space="preserve">Component </text>
      <text
         id="text3052"
         style="font-size:21.26195335px;font-style:normal;font-weight:normal;text-align:start;text-anchor:start;fill:#000000;font-family:Arial"
         y="93.802734"
         x="882.9964"
         xml:space="preserve">1</text>
      <text
         id="text3054"
         style="font-size:21.26195335px;font-style:normal;font-weight:normal;text-align:start;text-anchor:start;fill:#000000;font-family:Arial"
         y="93.802734"
         x="895.50342"
         xml:space="preserve">: </text>
      <text
         id="text3056"
         style="font-size:21.26195335px;font-style:normal;font-weight:bold;text-align:start;text-anchor:start;fill:#000000;font-family:Arial"
         y="120.0675"
         x="796.69788"
         xml:space="preserve">Python</text>
      <path
         id="path3058"
         d="m 138.04635,371.30248 c 13.05422,0 23.68519,-10.55281 23.68519,-23.60702 l 0,0 0,-118.19144 c 0,-13.05422 -10.63097,-23.60702 -23.68519,-23.60702 l 0,0 -110.68722,0 c -13.054213,0 -23.6070207,10.5528 -23.6070207,23.60702 l 0,0 0,118.19144 c 0,13.05421 10.5528077,23.60702 23.6070207,23.60702 l 0,0 110.68722,0 z"
         style="fill:#f2f2f2;fill-opacity:1;fill-rule:evenodd;stroke:none"
         inkscape:connector-curvature="0" />
      <path
         id="path3060"
         d="m 138.04635,371.30248 c 13.05422,0 23.68519,-10.55281 23.68519,-23.60702 l 0,0 0,-118.19144 c 0,-13.05422 -10.63097,-23.60702 -23.68519,-23.60702 l 0,0 -110.68722,0 c -13.054213,0 -23.6070207,10.5528 -23.6070207,23.60702 l 0,0 0,118.19144 c 0,13.05421 10.5528077,23.60702 23.6070207,23.60702 l 0,0 110.68722,0 z"
         style="fill:none;stroke:#000000;stroke-width:3.59577131px;stroke-linecap:round;stroke-linejoin:round;stroke-opacity:1;stroke-dasharray:none"
         inkscape:connector-curvature="0" />
      <text
         id="text3062"
         style="font-size:23.76335907px;font-style:normal;font-weight:normal;text-align:start;text-anchor:start;fill:#000000;font-family:Arial"
         y="295.16592"
         x="36.27039"
         xml:space="preserve">Frontend</text>
      <path
         id="path3064"
         d="m 560.47133,374.2729 c 13.05421,0 23.60702,-10.55281 23.60702,-23.60702 l 0,0 0,-121.16186 c 0,-13.05422 -10.55281,-23.60702 -23.60702,-23.60702 l 0,0 -172.59703,0 c -13.05422,0 -23.60702,10.5528 -23.60702,23.60702 l 0,0 0,121.16186 c 0,13.05421 10.5528,23.60702 23.60702,23.60702 l 0,0 172.59703,0 z"
         style="fill:#ffe100;fill-opacity:1;fill-rule:evenodd;stroke:none"
         inkscape:connector-curvature="0" />
      <path
         id="path3066"
         d="m 560.47133,374.2729 c 13.05421,0 23.60702,-10.55281 23.60702,-23.60702 l 0,0 0,-121.16186 c 0,-13.05422 -10.55281,-23.60702 -23.60702,-23.60702 l 0,0 -172.59703,0 c -13.05422,0 -23.60702,10.5528 -23.60702,23.60702 l 0,0 0,121.16186 c 0,13.05421 10.5528,23.60702 23.60702,23.60702 l 0,0 172.59703,0 z"
         style="fill:none;stroke:#ffc000;stroke-width:5.23731899px;stroke-linecap:round;stroke-linejoin:round;stroke-opacity:1;stroke-dasharray:none"
         inkscape:connector-curvature="0" />
      <path
         id="path3068"
         d="m 413.82639,339.95674 c -2.11056,0.39084 -4.22113,0.62535 -6.17535,0.62535 -0.78169,0 -1.56338,0 -2.2669,-0.0782 -0.70352,-0.0782 -1.48521,-0.23451 -2.34507,-0.46902 -0.85986,-0.2345 -1.64155,-0.54718 -2.18873,-0.93802 -0.62535,-0.39085 -1.17253,-0.93803 -1.56338,-1.64155 -0.39084,-0.70352 -0.62535,-1.48521 -0.62535,-2.50141 l 0,-8.44224 c 0,-3.90845 2.97042,-5.86267 8.98943,-5.86267 1.40704,0 3.43943,0.2345 6.09718,0.70352 l 0,3.43943 c -2.34507,-0.54718 -4.37746,-0.78169 -6.09718,-0.78169 -0.62535,0 -1.17253,0 -1.64155,0 -0.39084,0.0782 -0.85986,0.15634 -1.32887,0.31268 -0.46901,0.15633 -0.78169,0.39084 -1.0162,0.78169 -0.2345,0.31267 -0.39084,0.78169 -0.39084,1.32887 l 0,8.20774 c 0,1.79788 1.64155,2.65774 4.84647,2.65774 1.40705,0 3.2831,-0.31267 5.70634,-0.85986 l 0,3.51761 z"
         style="fill:#000000;fill-opacity:1;fill-rule:evenodd;stroke:none"
         inkscape:connector-curvature="0" />
      <path
         id="path3070"
         d="m 426.09891,329.16942 -1.48521,0 c -1.17253,0 -2.11056,0.23451 -2.65774,0.54718 -0.62535,0.39085 -0.93803,1.0162 -0.93803,1.87606 l 0,8.67675 -4.29929,0 0,-14.38308 4.06478,0 0,2.5014 c 0.0782,-0.70352 0.46902,-1.32887 1.25071,-1.95422 0.78169,-0.54718 1.64154,-0.85986 2.5014,-0.85986 l 1.56338,0 0,3.59577 z"
         style="fill:#000000;fill-opacity:1;fill-rule:evenodd;stroke:none"
         inkscape:connector-curvature="0" />
      <path
         id="path3072"
         d="m 442.67073,331.12364 0,4.22113 c 0,0.93803 -0.15634,1.71971 -0.46902,2.42323 -0.2345,0.62536 -0.62535,1.17254 -1.09436,1.56338 -0.39085,0.31268 -1.0162,0.62536 -1.71972,0.78169 -0.70352,0.23451 -1.32887,0.39085 -1.87605,0.39085 -0.62535,0.0782 -1.32888,0.0782 -2.11056,0.0782 -0.85986,0 -1.56338,0 -2.18873,-0.0782 -0.54719,0 -1.17254,-0.15634 -1.87606,-0.39085 -0.70352,-0.15633 -1.32887,-0.46901 -1.71972,-0.78169 -0.46901,-0.39084 -0.85985,-0.93802 -1.09436,-1.56338 -0.31268,-0.70352 -0.46902,-1.4852 -0.46902,-2.42323 l 0,-4.22113 c 0,-1.01619 0.15634,-1.87605 0.46902,-2.57957 0.31267,-0.70352 0.70352,-1.2507 1.09436,-1.64155 0.46902,-0.39084 1.09437,-0.62535 1.71972,-0.85986 0.78169,-0.2345 1.40704,-0.31267 1.95422,-0.39084 0.54719,0 1.25071,-0.0782 2.11057,-0.0782 0.78168,0 1.48521,0.0782 2.03239,0.0782 0.54718,0.0782 1.17253,0.15634 1.95422,0.39084 0.70352,0.23451 1.2507,0.46902 1.71972,0.85986 0.39084,0.39085 0.78169,0.93803 1.09436,1.64155 0.31268,0.70352 0.46902,1.56338 0.46902,2.57957 z m -4.37746,4.69014 0,-5.39366 c 0,-0.78169 -0.15634,-1.32887 -0.54719,-1.64154 -0.39084,-0.31268 -1.17253,-0.46902 -2.34506,-0.46902 -1.25071,0 -2.0324,0.15634 -2.42324,0.46902 -0.39085,0.31267 -0.54718,0.85985 -0.54718,1.64154 l 0,5.39366 c 0,0.78169 0.15633,1.32887 0.54718,1.64155 0.39084,0.31267 1.17253,0.39084 2.42324,0.39084 1.17253,0 1.95422,-0.0782 2.34506,-0.39084 0.39085,-0.31268 0.54719,-0.85986 0.54719,-1.64155 z"
         style="fill:#000000;fill-opacity:1;fill-rule:evenodd;stroke:none"
         inkscape:connector-curvature="0" />
      <path
         id="path3074"
         d="m 458.46085,334.64125 0,1.87605 c 0,0.70352 -0.15633,1.32887 -0.39084,1.79789 -0.31268,0.54718 -0.62535,0.93802 -1.0162,1.2507 -0.39084,0.23451 -0.93802,0.46901 -1.56338,0.62535 -0.70352,0.15634 -1.32887,0.31268 -1.95422,0.31268 -0.54718,0.0782 -1.2507,0.0782 -2.11056,0.0782 -1.56338,0 -3.43943,-0.15634 -5.70633,-0.46902 l 0,-2.89225 c 2.81408,0.46902 4.69013,0.62535 5.7845,0.62535 0.85986,0 1.48521,-0.0782 1.95422,-0.2345 0.46902,-0.15634 0.70352,-0.46902 0.70352,-1.0162 l 0,-0.85986 c 0,-0.46901 -0.15634,-0.78169 -0.39084,-1.01619 -0.23451,-0.23451 -0.78169,-0.39085 -1.64155,-0.39085 l -1.87606,0 c -1.48521,0 -2.65774,-0.23451 -3.5176,-0.85986 -0.85986,-0.62535 -1.2507,-1.48521 -1.2507,-2.65774 l 0,-1.79789 c 0,-1.2507 0.62535,-2.18873 1.87605,-2.65774 1.25071,-0.54718 2.97042,-0.78169 5.23732,-0.78169 1.0162,0 2.65775,0.0782 5.15915,0.23451 l 0,2.81408 c -3.12675,-0.23451 -4.84647,-0.31268 -5.23732,-0.31268 -1.2507,0 -1.95422,0 -2.2669,0.23451 -0.39084,0.15634 -0.54718,0.46901 -0.54718,0.93803 l 0,0.78169 c 0,0.2345 0.15634,0.46901 0.39085,0.62535 0.2345,0.2345 0.62535,0.31267 1.17253,0.31267 l 1.87606,0 c 3.5176,0 5.31548,1.17254 5.31548,3.43944 z"
         style="fill:#000000;fill-opacity:1;fill-rule:evenodd;stroke:none"
         inkscape:connector-curvature="0" />
      <path
         id="path3076"
         d="m 474.09464,334.64125 0,1.87605 c 0,0.70352 -0.15634,1.32887 -0.39084,1.79789 -0.31268,0.54718 -0.62535,0.93802 -1.0162,1.2507 -0.39084,0.23451 -0.93803,0.46901 -1.64155,0.62535 -0.62535,0.15634 -1.2507,0.31268 -1.87605,0.31268 -0.54718,0.0782 -1.32887,0.0782 -2.11056,0.0782 -1.56338,0 -3.43944,-0.15634 -5.70634,-0.46902 l 0,-2.89225 c 2.81409,0.46902 4.69014,0.62535 5.78451,0.62535 0.85985,0 1.48521,-0.0782 1.95422,-0.2345 0.46901,-0.15634 0.70352,-0.46902 0.70352,-1.0162 l 0,-0.85986 c 0,-0.46901 -0.15634,-0.78169 -0.39084,-1.01619 -0.23451,-0.23451 -0.78169,-0.39085 -1.64155,-0.39085 l -1.87606,0 c -1.48521,0 -2.65774,-0.23451 -3.5176,-0.85986 -0.85986,-0.62535 -1.2507,-1.48521 -1.2507,-2.65774 l 0,-1.79789 c 0,-1.2507 0.62535,-2.18873 1.87605,-2.65774 1.25071,-0.54718 2.97042,-0.78169 5.23732,-0.78169 0.93803,0 2.65775,0.0782 5.15915,0.23451 l 0,2.81408 c -3.12676,-0.23451 -4.84647,-0.31268 -5.23732,-0.31268 -1.2507,0 -1.95422,0 -2.34507,0.23451 -0.31267,0.15634 -0.46901,0.46901 -0.46901,0.93803 l 0,0.78169 c 0,0.2345 0.15634,0.46901 0.39085,0.62535 0.2345,0.2345 0.62535,0.31267 1.17253,0.31267 l 1.87605,0 c 3.51761,0 5.31549,1.17254 5.31549,3.43944 z"
         style="fill:#000000;fill-opacity:1;fill-rule:evenodd;stroke:none"
         inkscape:connector-curvature="0" />
      <path
         id="path3078"
         d="m 492.0735,330.42012 0,4.76831 c 0,1.95422 -0.62535,3.36126 -1.79789,4.14295 -1.17253,0.85986 -3.04859,1.25071 -5.70633,1.25071 -2.73591,0 -4.61197,-0.39085 -5.70633,-1.25071 -1.0162,-0.93802 -1.56338,-2.2669 -1.56338,-4.14295 l 0,-15.71196 4.37746,0 0,7.8169 c 0.23451,-0.62536 0.70352,-1.09437 1.40704,-1.32888 0.70352,-0.2345 1.79789,-0.39084 3.20493,-0.39084 1.2507,0 2.2669,0.0782 3.04859,0.31268 0.70352,0.15633 1.32887,0.54718 1.71971,0.93802 0.39085,0.46902 0.70352,0.93803 0.78169,1.48521 0.15634,0.54719 0.23451,1.25071 0.23451,2.11056 z m -4.37746,5.31549 0,-5.31549 c 0,-0.93802 -0.15634,-1.56337 -0.46902,-1.79788 -0.39084,-0.23451 -1.2507,-0.31268 -2.65774,-0.31268 -1.17253,0 -1.95422,0.0782 -2.34507,0.39085 -0.39084,0.39084 -0.54718,0.93802 -0.54718,1.71971 l 0,5.31549 c 0,0.85986 0.15634,1.40704 0.54718,1.71972 0.31268,0.31267 1.17254,0.39084 2.42324,0.39084 1.2507,0 2.11056,-0.0782 2.50141,-0.39084 0.39084,-0.31268 0.54718,-0.85986 0.54718,-1.71972 z"
         style="fill:#000000;fill-opacity:1;fill-rule:evenodd;stroke:none"
         inkscape:connector-curvature="0" />
      <path
         id="path3080"
         d="m 508.41081,340.26941 -4.29929,0 0,-1.32887 c -0.31268,0.62535 -0.78169,1.0162 -1.32888,1.2507 -0.62535,0.31268 -1.71971,0.39085 -3.28309,0.39085 -1.95422,0 -3.20493,-0.31268 -3.90845,-0.85986 -0.62535,-0.62535 -0.93803,-1.87606 -0.93803,-3.75211 0,-1.71972 0.31268,-2.89225 1.0162,-3.5176 0.62535,-0.70352 1.79789,-1.0162 3.5176,-1.0162 l 4.84648,0 0,-1.0162 c 0,-0.85985 -0.23451,-1.40704 -0.62535,-1.71971 -0.39085,-0.31268 -1.25071,-0.39085 -2.57958,-0.39085 -1.17253,0 -2.89225,0.0782 -5.00281,0.31268 l 0,-2.73591 c 1.64155,-0.23451 3.43943,-0.31268 5.47182,-0.31268 2.65775,0 4.5338,0.31268 5.55,0.93803 1.0162,0.70352 1.56338,1.95422 1.56338,3.83028 l 0,9.92745 z m -4.37746,-3.67394 0,-2.81408 -2.97042,0 c -0.93803,0 -1.56338,0.15634 -1.79789,0.31267 -0.2345,0.23451 -0.31267,0.85986 -0.31267,1.79789 0,0.93803 0.0782,1.48521 0.31267,1.71972 0.31268,0.15633 0.93803,0.2345 1.95423,0.2345 0.46901,0 0.85985,0 1.09436,0 0.23451,0 0.46901,0 0.78169,-0.0782 0.23451,0 0.46901,-0.0782 0.54718,-0.15633 0.0782,-0.0782 0.15634,-0.23451 0.31268,-0.39085 0.0782,-0.15634 0.0782,-0.39084 0.0782,-0.62535 z"
         style="fill:#000000;fill-opacity:1;fill-rule:evenodd;stroke:none"
         inkscape:connector-curvature="0" />
      <path
         id="path3082"
         d="m 521.62136,329.16942 -1.48521,0 c -1.17253,0 -2.11056,0.23451 -2.65774,0.54718 -0.62536,0.39085 -0.93803,1.0162 -0.93803,1.87606 l 0,8.67675 -4.37746,0 0,-14.38308 4.14295,0 0,2.5014 c 0.0782,-0.70352 0.46902,-1.32887 1.25071,-1.95422 0.78168,-0.54718 1.64154,-0.85986 2.5014,-0.85986 l 1.56338,0 0,3.59577 z"
         style="fill:#000000;fill-opacity:1;fill-rule:evenodd;stroke:none"
         inkscape:connector-curvature="0" />
      <path
         id="path3084"
         d="m 524.20094,337.06448 0,3.20493 3.43943,0 0,-3.20493 -3.43943,0 z"
         style="fill:#000000;fill-opacity:1;fill-rule:evenodd;stroke:none"
         inkscape:connector-curvature="0" />
      <path
         id="path3086"
         d="m 534.67557,323.46309 -2.65774,0 0,-2.81408 2.65774,0 0,2.81408 z m 0,16.80632 -2.65774,0 0,-14.38308 2.65774,0 0,14.38308 z"
         style="fill:#000000;fill-opacity:1;fill-rule:evenodd;stroke:none"
         inkscape:connector-curvature="0" />
      <path
         id="path3088"
         d="m 552.02908,330.7328 0,5.00281 c 0,0.85986 -0.0782,1.64155 -0.31268,2.2669 -0.2345,0.62535 -0.46901,1.09437 -0.78169,1.40704 -0.39084,0.39085 -0.85985,0.62535 -1.48521,0.78169 -0.62535,0.15634 -1.2507,0.31268 -1.79788,0.31268 -0.54718,0.0782 -1.32887,0.0782 -2.18873,0.0782 -1.25071,0 -2.18873,0 -2.81408,-0.0782 -0.70352,-0.0782 -1.32888,-0.31268 -2.0324,-0.62535 -0.62535,-0.31268 -1.09436,-0.78169 -1.40704,-1.48521 -0.2345,-0.62536 -0.39084,-1.56338 -0.39084,-2.65775 l 0,-5.00281 c 0,-0.93803 0.0782,-1.79789 0.31267,-2.42324 0.23451,-0.62535 0.46902,-1.17253 0.85986,-1.48521 0.31268,-0.39084 0.78169,-0.62535 1.40704,-0.85986 0.62535,-0.15633 1.25071,-0.31267 1.79789,-0.31267 0.54718,-0.0782 1.2507,-0.0782 2.2669,-0.0782 0.93803,0 1.64155,0 2.18873,0.0782 0.54718,0 1.17253,0.15634 1.79788,0.31267 0.62536,0.23451 1.09437,0.46902 1.40705,0.85986 0.31267,0.31268 0.62535,0.85986 0.85985,1.48521 0.23451,0.62535 0.31268,1.48521 0.31268,2.42324 z m -2.73591,5.39366 0,-5.86267 c 0,-1.32888 -0.23451,-2.11057 -0.78169,-2.42324 -0.54719,-0.31268 -1.56338,-0.46901 -3.04859,-0.46901 -1.56338,0 -2.57958,0.15633 -3.12676,0.46901 -0.54718,0.31267 -0.78169,1.09436 -0.78169,2.42324 l 0,5.86267 c 0,0.62535 0,1.17253 0.15634,1.48521 0.15634,0.39084 0.39084,0.70352 0.78169,0.85986 0.39084,0.15633 0.78169,0.2345 1.17253,0.31267 0.39085,0 1.0162,0.0782 1.79789,0.0782 0.70352,0 1.32887,-0.0782 1.71971,-0.0782 0.39085,-0.0782 0.78169,-0.15634 1.17254,-0.31267 0.39084,-0.15634 0.62535,-0.46902 0.78169,-0.85986 0.0782,-0.31268 0.15634,-0.85986 0.15634,-1.48521 z"
         style="fill:#000000;fill-opacity:1;fill-rule:evenodd;stroke:none"
         inkscape:connector-curvature="0" />
      <path
         id="path3090"
         d="m 439.85665,238.25894 0,64.95839 64.80205,0 0,-64.95839 -64.80205,0 z"
         style="fill:#000000;fill-opacity:1;fill-rule:evenodd;stroke:none"
         inkscape:connector-curvature="0" />
      <path
         id="path3092"
         d="m 439.85665,252.01667 0,6.48803 15.24294,0 10.16196,10.16196 4.76831,-4.69014 -12.03802,-12.03802 -18.13519,0.0782 z"
         style="fill:#ffe100;fill-opacity:1;fill-rule:evenodd;stroke:none"
         inkscape:connector-curvature="0" />
      <path
         id="path3094"
         d="m 479.17562,273.20046 -4.69013,4.69013 11.64717,11.64718 18.52604,0 0,-6.48803 -15.63379,0 -9.84929,-9.84928 z"
         style="fill:#ffe100;fill-opacity:1;fill-rule:evenodd;stroke:none"
         inkscape:connector-curvature="0" />
      <path
         id="path3096"
         d="m 486.60167,251.9385 -30.9549,31.11124 -15.79012,0 0,6.48803 18.52603,0 31.03308,-31.03307 15.24294,0 0,-6.5662 -18.05703,0 z"
         style="fill:#ffe100;fill-opacity:1;fill-rule:evenodd;stroke:none"
         inkscape:connector-curvature="0" />
      <path
         id="path3098"
         d="m 183.14983,288.75608 159.69916,1.17253"
         style="fill:none;stroke:#ffc000;stroke-width:3.59577131px;stroke-linecap:round;stroke-linejoin:round;stroke-opacity:1;stroke-dasharray:none"
         inkscape:connector-curvature="0" />
      <path
         id="path3100"
         d="m 185.02589,296.57297 -23.29435,-7.97323 23.45069,-7.66056 -0.15634,15.63379 z"
         style="fill:#ffc000;fill-opacity:1;fill-rule:evenodd;stroke:none"
         inkscape:connector-curvature="0" />
      <path
         id="path3102"
         d="m 340.89476,282.11172 23.37252,7.97323 -23.45069,7.58239 0.0782,-15.55562 z"
         style="fill:#ffc000;fill-opacity:1;fill-rule:evenodd;stroke:none"
         inkscape:connector-curvature="0" />
      <path
         id="path3104"
         d="m 220.35825,269.29201 0,40.0225 85.28232,0 0,-40.0225 -85.28232,0 z"
         style="fill:#ffffff;fill-opacity:1;fill-rule:evenodd;stroke:none"
         inkscape:connector-curvature="0" />
      <text
         id="text3106"
         style="font-size:16.25914001px;font-style:normal;font-weight:normal;text-align:start;text-anchor:start;fill:#000000;font-family:Arial"
         y="283.90961"
         x="236.38289"
         xml:space="preserve">WAMP</text>
      <text
         id="text3108"
         style="font-size:16.25914001px;font-style:normal;font-weight:normal;text-align:start;text-anchor:start;fill:#000000;font-family:Arial"
         y="303.92084"
         x="220.12373"
         xml:space="preserve">WebSocket</text>
      <path
         id="path3110"
         d="m 159.30831,88.01823 0,-38.146444 264.75821,0 0,101.619624 -104.04287,0 10.70915,138.35903 -67.38163,-138.35903 -104.04286,0 0,-63.47318 z"
         style="fill:#ffffff;fill-opacity:1;fill-rule:evenodd;stroke:none"
         inkscape:connector-curvature="0" />
      <path
         id="path3112"
         d="m 159.30831,88.01823 0,-38.146444 264.75821,0 0,101.619624 -104.04287,0 10.70915,138.35903 -67.38163,-138.35903 -104.04286,0 0,-63.47318 z"
         style="fill:none;stroke:#000000;stroke-width:0.3908447px;stroke-linecap:round;stroke-linejoin:round;stroke-opacity:1;stroke-dasharray:none"
         inkscape:connector-curvature="0" />
      <text
         id="text3114"
         style="font-size:16.25914001px;font-style:normal;font-weight:normal;text-align:start;text-anchor:start;fill:#000000;font-family:Arial"
         y="75.042183"
         x="166.34351"
         xml:space="preserve">Language</text>
      <text
         id="text3116"
         style="font-size:16.25914001px;font-style:normal;font-weight:normal;text-align:start;text-anchor:start;fill:#000000;font-family:Arial"
         y="75.042183"
         x="240.13499"
         xml:space="preserve">/</text>
      <text
         id="text3118"
         style="font-size:16.25914001px;font-style:normal;font-weight:normal;text-align:start;text-anchor:start;fill:#000000;font-family:Arial"
         y="75.042183"
         x="245.13782"
         xml:space="preserve">run</text>
      <text
         id="text3120"
         style="font-size:16.25914001px;font-style:normal;font-weight:normal;text-align:start;text-anchor:start;fill:#000000;font-family:Arial"
         y="75.042183"
         x="268.90118"
         xml:space="preserve">-</text>
      <text
         id="text3122"
         style="font-size:16.25914001px;font-style:normal;font-weight:normal;text-align:start;text-anchor:start;fill:#000000;font-family:Arial"
         y="75.042183"
         x="273.90399"
         xml:space="preserve">time of backend </text>
      <text
         id="text3124"
         style="font-size:16.25914001px;font-style:normal;font-weight:normal;text-align:start;text-anchor:start;fill:#000000;font-family:Arial"
         y="95.053436"
         x="166.34351"
         xml:space="preserve">components is completely </text>
      <text
         id="text3126"
         style="font-size:16.25914001px;font-style:normal;font-weight:bold;text-align:start;text-anchor:start;fill:#000000;font-family:Arial"
         y="115.06468"
         x="166.34351"
         xml:space="preserve">transparent </text>
      <text
         id="text3128"
         style="font-size:16.25914001px;font-style:normal;font-weight:normal;text-align:start;text-anchor:start;fill:#000000;font-family:Arial"
         y="115.06468"
         x="262.64764"
         xml:space="preserve">to other components </text>
      <text
         id="text3130"
         style="font-size:16.25914001px;font-style:normal;font-weight:normal;text-align:start;text-anchor:start;fill:#000000;font-family:Arial"
         y="135.07593"
         x="166.34351"
         xml:space="preserve">(</text>
      <text
         id="text3132"
         style="font-size:16.25914001px;font-style:normal;font-weight:normal;text-align:start;text-anchor:start;fill:#000000;font-family:Arial"
         y="135.07593"
         x="171.34631"
         xml:space="preserve">e</text>
      <text
         id="text3134"
         style="font-size:16.25914001px;font-style:normal;font-weight:normal;text-align:start;text-anchor:start;fill:#000000;font-family:Arial"
         y="135.07593"
         x="181.35194"
         xml:space="preserve">.</text>
      <text
         id="text3136"
         style="font-size:16.25914001px;font-style:normal;font-weight:normal;text-align:start;text-anchor:start;fill:#000000;font-family:Arial"
         y="135.07593"
         x="185.10406"
         xml:space="preserve">g</text>
      <text
         id="text3138"
         style="font-size:16.25914001px;font-style:normal;font-weight:normal;text-align:start;text-anchor:start;fill:#000000;font-family:Arial"
         y="135.07593"
         x="195.10968"
         xml:space="preserve">. </text>
      <text
         id="text3140"
         style="font-size:16.25914001px;font-style:normal;font-weight:normal;text-align:start;text-anchor:start;fill:#000000;font-family:Arial"
         y="135.07593"
         x="203.86459"
         xml:space="preserve">frontends</text>
      <text
         id="text3142"
         style="font-size:16.25914001px;font-style:normal;font-weight:normal;text-align:start;text-anchor:start;fill:#000000;font-family:Arial"
         y="135.07593"
         x="273.90399"
         xml:space="preserve">).</text>
      <path
         id="path3144"
         d="m 887.29568,371.30248 c 13.05421,0 23.60702,-10.55281 23.60702,-23.60702 l 0,0 0,-120.69285 c 0,-13.05421 -10.55281,-23.60702 -23.60702,-23.60702 l 0,0 -108.733,0 c -13.05422,0 -23.60702,10.55281 -23.60702,23.60702 l 0,120.69285 c 0,13.05421 10.5528,23.60702 23.60702,23.60702 l 0,0 108.733,0 z"
         style="fill:#f2f2f2;fill-opacity:1;fill-rule:evenodd;stroke:none"
         inkscape:connector-curvature="0" />
      <path
         id="path3146"
         d="m 887.29568,371.30248 c 13.05421,0 23.60702,-10.55281 23.60702,-23.60702 l 0,0 0,-120.69285 c 0,-13.05421 -10.55281,-23.60702 -23.60702,-23.60702 l 0,0 -108.733,0 c -13.05422,0 -23.60702,10.55281 -23.60702,23.60702 l 0,120.69285 c 0,13.05421 10.5528,23.60702 23.60702,23.60702 l 0,0 108.733,0 z"
         style="fill:none;stroke:#000000;stroke-width:3.59577131px;stroke-linecap:round;stroke-linejoin:round;stroke-opacity:1;stroke-dasharray:none"
         inkscape:connector-curvature="0" />
      <text
         id="text3148"
         style="font-size:21.26195335px;font-style:normal;font-weight:normal;text-align:start;text-anchor:start;fill:#000000;font-family:Arial"
         y="267.65045"
         x="790.44434"
         xml:space="preserve">Backend </text>
      <text
         id="text3150"
         style="font-size:21.26195335px;font-style:normal;font-weight:normal;text-align:start;text-anchor:start;fill:#000000;font-family:Arial"
         y="293.91522"
         x="765.4303"
         xml:space="preserve">Component </text>
      <text
         id="text3152"
         style="font-size:21.26195335px;font-style:normal;font-weight:normal;text-align:start;text-anchor:start;fill:#000000;font-family:Arial"
         y="293.91522"
         x="882.9964"
         xml:space="preserve">2</text>
      <text
         id="text3154"
         style="font-size:21.26195335px;font-style:normal;font-weight:normal;text-align:start;text-anchor:start;fill:#000000;font-family:Arial"
         y="293.91522"
         x="895.50342"
         xml:space="preserve">: </text>
      <text
         id="text3156"
         style="font-size:21.26195335px;font-style:normal;font-weight:bold;text-align:start;text-anchor:start;fill:#000000;font-family:Arial"
         y="320.17999"
         x="792.94574"
         xml:space="preserve">NodeJS</text>
      <path
         id="path3158"
         d="m 887.29568,573.44737 c 13.05421,0 23.60702,-10.55281 23.60702,-23.60702 l 0,0 0,-120.69285 c 0,-13.05421 -10.55281,-23.60702 -23.60702,-23.60702 l 0,0 -108.733,0 c -13.05422,0 -23.60702,10.55281 -23.60702,23.60702 l 0,120.69285 c 0,13.05421 10.5528,23.60702 23.60702,23.60702 l 0,0 108.733,0 z"
         style="fill:#f2f2f2;fill-opacity:1;fill-rule:evenodd;stroke:none"
         inkscape:connector-curvature="0" />
      <path
         id="path3160"
         d="m 887.29568,573.44737 c 13.05421,0 23.60702,-10.55281 23.60702,-23.60702 l 0,0 0,-120.69285 c 0,-13.05421 -10.55281,-23.60702 -23.60702,-23.60702 l 0,0 -108.733,0 c -13.05422,0 -23.60702,10.55281 -23.60702,23.60702 l 0,120.69285 c 0,13.05421 10.5528,23.60702 23.60702,23.60702 l 0,0 108.733,0 z"
         style="fill:none;stroke:#000000;stroke-width:3.59577131px;stroke-linecap:round;stroke-linejoin:round;stroke-opacity:1;stroke-dasharray:none"
         inkscape:connector-curvature="0" />
      <text
         id="text3162"
         style="font-size:21.26195335px;font-style:normal;font-weight:normal;text-align:start;text-anchor:start;fill:#000000;font-family:Arial"
         y="470.26437"
         x="790.44434"
         xml:space="preserve">Backend </text>
      <text
         id="text3164"
         style="font-size:21.26195335px;font-style:normal;font-weight:normal;text-align:start;text-anchor:start;fill:#000000;font-family:Arial"
         y="496.52914"
         x="765.4303"
         xml:space="preserve">Component </text>
      <text
         id="text3166"
         style="font-size:21.26195335px;font-style:normal;font-weight:normal;text-align:start;text-anchor:start;fill:#000000;font-family:Arial"
         y="496.52914"
         x="882.9964"
         xml:space="preserve">3</text>
      <text
         id="text3168"
         style="font-size:21.26195335px;font-style:normal;font-weight:normal;text-align:start;text-anchor:start;fill:#000000;font-family:Arial"
         y="496.52914"
         x="895.50342"
         xml:space="preserve">: </text>
      <text
         id="text3170"
         style="font-size:21.26195335px;font-style:normal;font-weight:bold;text-align:start;text-anchor:start;fill:#000000;font-family:Arial"
         y="521.54321"
         x="812.95703"
         xml:space="preserve">C</text>
      <text
         id="text3172"
         style="font-size:21.26195335px;font-style:normal;font-weight:bold;text-align:start;text-anchor:start;fill:#000000;font-family:Arial"
         y="521.54321"
         x="827.96545"
         xml:space="preserve">++</text>
      <path
         id="path3174"
         d="M 597.91425,273.66947 741.11975,104.12103"
         style="fill:none;stroke:#ffc000;stroke-width:3.59577131px;stroke-linecap:round;stroke-linejoin:round;stroke-opacity:1;stroke-dasharray:none"
         inkscape:connector-curvature="0" />
      <path
         id="path3176"
         d="m 605.18396,277.18707 -21.10561,12.89788 9.14576,-22.98167 11.95985,10.08379 z"
         style="fill:#ffc000;fill-opacity:1;fill-rule:evenodd;stroke:none"
         inkscape:connector-curvature="0" />
      <path
         id="path3178"
         d="m 733.85004,100.52526 21.10562,-12.819705 -9.14577,22.903505 -11.95985,-10.0838 z"
         style="fill:#ffc000;fill-opacity:1;fill-rule:evenodd;stroke:none"
         inkscape:connector-curvature="0" />
      <path
         id="path3180"
         d="m 626.83676,168.84492 0,40.0225 85.28232,0 0,-40.0225 -85.28232,0 z"
         style="fill:#ffffff;fill-opacity:1;fill-rule:evenodd;stroke:none"
         inkscape:connector-curvature="0" />
      <text
         id="text3182"
         style="font-size:16.25914001px;font-style:normal;font-weight:normal;text-align:start;text-anchor:start;fill:#000000;font-family:Arial"
         y="183.85336"
         x="644.11206"
         xml:space="preserve">WAMP</text>
      <text
         id="text3184"
         style="font-size:16.25914001px;font-style:normal;font-weight:normal;text-align:start;text-anchor:start;fill:#000000;font-family:Arial"
         y="203.86459"
         x="626.60223"
         xml:space="preserve">WebSocket</text>
      <path
         id="path3186"
         d="M 605.57481,289.6941 733.4592,287.66171"
         style="fill:none;stroke:#ffc000;stroke-width:3.59577131px;stroke-linecap:round;stroke-linejoin:round;stroke-opacity:1;stroke-dasharray:none"
         inkscape:connector-curvature="0" />
      <path
         id="path3188"
         d="m 607.6072,297.511 -23.52885,-7.42605 23.29434,-8.20774 0.23451,15.63379 z"
         style="fill:#ffc000;fill-opacity:1;fill-rule:evenodd;stroke:none"
         inkscape:connector-curvature="0" />
      <path
         id="path3190"
         d="m 731.4268,279.92299 23.52886,7.42605 -23.29435,8.12957 -0.23451,-15.55562 z"
         style="fill:#ffc000;fill-opacity:1;fill-rule:evenodd;stroke:none"
         inkscape:connector-curvature="0" />
      <path
         id="path3192"
         d="m 626.83676,268.66666 0,40.0225 85.28232,0 0,-40.0225 -85.28232,0 z"
         style="fill:#ffffff;fill-opacity:1;fill-rule:evenodd;stroke:none"
         inkscape:connector-curvature="0" />
      <text
         id="text3194"
         style="font-size:16.25914001px;font-style:normal;font-weight:normal;text-align:start;text-anchor:start;fill:#000000;font-family:Arial"
         y="283.90961"
         x="644.11206"
         xml:space="preserve">WAMP</text>
      <text
         id="text3196"
         style="font-size:16.25914001px;font-style:normal;font-weight:normal;text-align:start;text-anchor:start;fill:#000000;font-family:Arial"
         y="303.92084"
         x="626.60223"
         xml:space="preserve">WebSocket</text>
      <path
         id="path3198"
         d="M 598.07059,306.34409 740.96342,473.15662"
         style="fill:none;stroke:#ffc000;stroke-width:3.59577131px;stroke-linecap:round;stroke-linejoin:round;stroke-opacity:1;stroke-dasharray:none"
         inkscape:connector-curvature="0" />
      <path
         id="path3200"
         d="m 593.38045,312.91028 -9.3021,-22.82533 21.18378,12.66337 -11.88168,10.16196 z"
         style="fill:#ffc000;fill-opacity:1;fill-rule:evenodd;stroke:none"
         inkscape:connector-curvature="0" />
      <path
         id="path3202"
         d="m 745.65355,466.59042 9.30211,22.9035 -21.18379,-12.74153 11.88168,-10.16197 z"
         style="fill:#ffc000;fill-opacity:1;fill-rule:evenodd;stroke:none"
         inkscape:connector-curvature="0" />
      <path
         id="path3204"
         d="m 626.83676,369.7391 0,40.0225 85.28232,0 0,-40.0225 -85.28232,0 z"
         style="fill:#ffffff;fill-opacity:1;fill-rule:evenodd;stroke:none"
         inkscape:connector-curvature="0" />
      <text
         id="text3206"
         style="font-size:16.25914001px;font-style:normal;font-weight:normal;text-align:start;text-anchor:start;fill:#000000;font-family:Arial"
         y="385.21655"
         x="644.11206"
         xml:space="preserve">WAMP</text>
      <text
         id="text3208"
         style="font-size:16.25914001px;font-style:normal;font-weight:normal;text-align:start;text-anchor:start;fill:#000000;font-family:Arial"
         y="405.22781"
         x="626.60223"
         xml:space="preserve">WebSocket</text>
      <path
         id="path3210"
         d="m 353.16729,462.91648 0,-30.17321 203.23925,0 0,30.17321 156.18155,-22.9035 -156.18155,42.99292 0,30.09505 -203.23925,0 0,-50.18447 z"
         style="fill:#ffffff;fill-opacity:1;fill-rule:evenodd;stroke:none"
         inkscape:connector-curvature="0" />
      <path
         id="path3212"
         d="m 353.16729,462.91648 0,-30.17321 203.23925,0 0,30.17321 156.18155,-22.9035 -156.18155,42.99292 0,30.09505 -203.23925,0 0,-50.18447 z"
         style="fill:none;stroke:#000000;stroke-width:0.3908447px;stroke-linecap:round;stroke-linejoin:round;stroke-opacity:1;stroke-dasharray:none"
         inkscape:connector-curvature="0" />
      <text
         id="text3214"
         style="font-size:16.25914001px;font-style:normal;font-weight:normal;text-align:start;text-anchor:start;fill:#000000;font-family:Arial"
         y="457.75732"
         x="360.20248"
         xml:space="preserve">Implement application </text>
      <text
         id="text3216"
         style="font-size:16.25914001px;font-style:normal;font-weight:normal;text-align:start;text-anchor:start;fill:#000000;font-family:Arial"
         y="477.76859"
         x="360.20248"
         xml:space="preserve">components in </text>
      <text
         id="text3218"
         style="font-size:16.25914001px;font-style:normal;font-weight:bold;text-align:start;text-anchor:start;fill:#000000;font-family:Arial"
         y="477.76859"
         x="472.76578"
         xml:space="preserve">different </text>
      <text
         id="text3220"
         style="font-size:16.25914001px;font-style:normal;font-weight:normal;text-align:start;text-anchor:start;fill:#000000;font-family:Arial"
         y="497.77982"
         x="360.20248"
         xml:space="preserve">languages</text>
      <text
         id="text3222"
         style="font-size:16.25914001px;font-style:normal;font-weight:normal;text-align:start;text-anchor:start;fill:#000000;font-family:Arial"
         y="497.77982"
         x="436.49539"
         xml:space="preserve">/</text>
      <text
         id="text3224"
         style="font-size:16.25914001px;font-style:normal;font-weight:normal;text-align:start;text-anchor:start;fill:#000000;font-family:Arial"
         y="497.77982"
         x="441.4982"
         xml:space="preserve">run</text>
      <text
         id="text3226"
         style="font-size:16.25914001px;font-style:normal;font-weight:normal;text-align:start;text-anchor:start;fill:#000000;font-family:Arial"
         y="497.77982"
         x="465.26154"
         xml:space="preserve">-</text>
      <text
         id="text3228"
         style="font-size:16.25914001px;font-style:normal;font-weight:normal;text-align:start;text-anchor:start;fill:#000000;font-family:Arial"
         y="497.77982"
         x="471.51508"
         xml:space="preserve">times</text>
      <text
         id="text3230"
         style="font-size:16.25914001px;font-style:normal;font-weight:normal;text-align:start;text-anchor:start;fill:#000000;font-family:Arial"
         y="497.77982"
         x="510.28687"
         xml:space="preserve">.</text>
    </g>
  </g>
</svg>
