<?xml version="1.0" encoding="UTF-8" standalone="no"?>
<!-- Created with Inkscape (http://www.inkscape.org/) -->

<svg
   xmlns:dc="http://purl.org/dc/elements/1.1/"
   xmlns:cc="http://creativecommons.org/ns#"
   xmlns:rdf="http://www.w3.org/1999/02/22-rdf-syntax-ns#"
   xmlns:svg="http://www.w3.org/2000/svg"
   xmlns="http://www.w3.org/2000/svg"
   xmlns:sodipodi="http://sodipodi.sourceforge.net/DTD/sodipodi-0.dtd"
   xmlns:inkscape="http://www.inkscape.org/namespaces/inkscape"
   width="1115.8756"
   height="481.09436"
   id="svg2"
   version="1.1"
   inkscape:version="0.48.4 r9939"
   sodipodi:docname="crossbar_application_scenario_1.svg">
  <defs
     id="defs4" />
  <sodipodi:namedview
     id="base"
     pagecolor="#ffffff"
     bordercolor="#666666"
     borderopacity="1.0"
     inkscape:pageopacity="0.0"
     inkscape:pageshadow="2"
     inkscape:zoom="0.98994949"
     inkscape:cx="556.68596"
     inkscape:cy="285.5263"
     inkscape:document-units="px"
     inkscape:current-layer="layer1"
     showgrid="false"
     fit-margin-top="10"
     fit-margin-bottom="10"
     fit-margin-left="10"
     fit-margin-right="10"
     inkscape:window-width="1680"
     inkscape:window-height="988"
     inkscape:window-x="-8"
     inkscape:window-y="320"
     inkscape:window-maximized="1" />
  <metadata
     id="metadata7">
    <rdf:RDF>
      <cc:Work
         rdf:about="">
        <dc:format>image/svg+xml</dc:format>
        <dc:type
           rdf:resource="http://purl.org/dc/dcmitype/StillImage" />
        <dc:title />
      </cc:Work>
    </rdf:RDF>
  </metadata>
  <g
     inkscape:label="Ebene 1"
     inkscape:groupmode="layer"
     id="layer1"
     transform="translate(726.18898,-208.00785)">
    <g
       id="g3028"
       transform="translate(-718.15773,216.10223)">
      <path
         id="path3030"
         d="m 822.10278,461.19677 c 13.05421,0 23.60702,-10.55281 23.60702,-23.60702 l 0,0 0,-104.59005 c 0,-13.05421 -10.55281,-23.60702 -23.60702,-23.60702 l 0,0 -173.53506,0 c -13.05421,0 -23.60702,10.55281 -23.60702,23.60702 l 0,0 0,104.59005 c 0,13.05421 10.55281,23.60702 23.60702,23.60702 l 0,0 173.53506,0 z"
         style="fill:#f2f2f2;fill-opacity:1;fill-rule:evenodd;stroke:none"
         inkscape:connector-curvature="0" />
      <path
         id="path3032"
         d="m 822.10278,461.19677 c 13.05421,0 23.60702,-10.55281 23.60702,-23.60702 l 0,0 0,-104.59005 c 0,-13.05421 -10.55281,-23.60702 -23.60702,-23.60702 l 0,0 -173.53506,0 c -13.05421,0 -23.60702,10.55281 -23.60702,23.60702 l 0,0 0,104.59005 c 0,13.05421 10.55281,23.60702 23.60702,23.60702 l 0,0 173.53506,0 z"
         style="fill:none;stroke:#000000;stroke-width:3.59577131px;stroke-linecap:round;stroke-linejoin:round;stroke-opacity:1;stroke-dasharray:none"
         inkscape:connector-curvature="0" />
      <text
         id="text3034"
         style="font-size:23.76335907px;font-style:normal;font-weight:normal;text-align:start;text-anchor:start;fill:#000000;font-family:Arial"
         y="377.71234"
         x="667.87543"
         xml:space="preserve">Your existing</text>
      <text
         id="text3036"
         style="font-size:23.76335907px;font-style:normal;font-weight:normal;text-align:start;text-anchor:start;fill:#000000;font-family:Arial"
         y="406.47852"
         x="650.3656"
         xml:space="preserve">Web Application</text>
      <path
         id="path3038"
         d="m 138.04635,460.64958 c 13.05422,0 23.68519,-10.63097 23.68519,-23.68519 l 0,0 0,-387.561618 c 0,-13.054213 -10.63097,-23.68519 -23.68519,-23.68519 l 0,0 -110.68722,0 c -13.054213,0 -23.6070207,10.630977 -23.6070207,23.68519 l 0,0 0,387.561618 c 0,13.05422 10.5528077,23.68519 23.6070207,23.68519 l 0,0 110.68722,0 z"
         style="fill:#f2f2f2;fill-opacity:1;fill-rule:evenodd;stroke:none"
         inkscape:connector-curvature="0" />
      <path
         id="path3040"
         d="m 138.04635,460.64958 c 13.05422,0 23.68519,-10.63097 23.68519,-23.68519 l 0,0 0,-387.561618 c 0,-13.054213 -10.63097,-23.68519 -23.68519,-23.68519 l 0,0 -110.68722,0 c -13.054213,0 -23.6070207,10.630977 -23.6070207,23.68519 l 0,0 0,387.561618 c 0,13.05422 10.5528077,23.68519 23.6070207,23.68519 l 0,0 110.68722,0 z"
         style="fill:none;stroke:#000000;stroke-width:3.59577131px;stroke-linecap:round;stroke-linejoin:round;stroke-opacity:1;stroke-dasharray:none"
         inkscape:connector-curvature="0" />
      <text
         id="text3042"
         style="font-size:23.76335907px;font-style:normal;font-weight:normal;text-align:start;text-anchor:start;fill:#000000;font-family:Arial"
         y="236.38289"
         x="58.783047"
         xml:space="preserve">Web </text>
      <text
         id="text3044"
         style="font-size:23.76335907px;font-style:normal;font-weight:normal;text-align:start;text-anchor:start;fill:#000000;font-family:Arial"
         y="263.89835"
         x="36.27039"
         xml:space="preserve">Frontend</text>
      <path
         id="path3046"
         d="m 607.91987,385.29472 -446.18833,0 0,-0.31267"
         style="fill:none;stroke:#262626;stroke-width:2.0323925px;stroke-linecap:round;stroke-linejoin:round;stroke-opacity:1;stroke-dasharray:none"
         inkscape:connector-curvature="0" />
      <path
         id="path3048"
         d="m 606.35649,379.11938 18.60421,6.17534 -18.60421,6.17535 0,-12.35069 z"
         style="fill:#262626;fill-opacity:1;fill-rule:evenodd;stroke:none"
         inkscape:connector-curvature="0" />
      <path
         id="path3050"
         d="m 735.33525,309.39268 -0.39084,-98.18019"
         style="fill:none;stroke:#262626;stroke-width:2.0323925px;stroke-linecap:round;stroke-linejoin:round;stroke-opacity:1;stroke-dasharray:none"
         inkscape:connector-curvature="0" />
      <path
         id="path3052"
         d="m 728.69089,212.77586 6.17535,-18.6042 6.25351,18.52604 -12.42886,0.0782 z"
         style="fill:#262626;fill-opacity:1;fill-rule:evenodd;stroke:none"
         inkscape:connector-curvature="0" />
      <path
         id="path3054"
         d="m 821.08658,194.17166 c 13.05422,0 23.68519,-10.63098 23.68519,-23.68519 l 0,0 0,-121.083698 c 0,-13.054213 -10.63097,-23.68519 -23.68519,-23.68519 l 0,0 -172.51886,0 c -13.05421,0 -23.60702,10.630977 -23.60702,23.68519 l 0,0 0,121.083698 c 0,13.05421 10.55281,23.68519 23.60702,23.68519 l 0,0 172.51886,0 z"
         style="fill:#ffe100;fill-opacity:1;fill-rule:evenodd;stroke:none"
         inkscape:connector-curvature="0" />
      <path
         id="path3056"
         d="m 821.08658,194.17166 c 13.05422,0 23.68519,-10.63098 23.68519,-23.68519 l 0,0 0,-121.083698 c 0,-13.054213 -10.63097,-23.68519 -23.68519,-23.68519 l 0,0 -172.51886,0 c -13.05421,0 -23.60702,10.630977 -23.60702,23.68519 l 0,0 0,121.083698 c 0,13.05421 10.55281,23.68519 23.60702,23.68519 l 0,0 172.51886,0 z"
         style="fill:none;stroke:#ffc000;stroke-width:5.23731899px;stroke-linecap:round;stroke-linejoin:round;stroke-opacity:1;stroke-dasharray:none"
         inkscape:connector-curvature="0" />
      <path
         id="path3058"
         d="m 674.51981,159.77732 c -2.18873,0.46901 -4.22112,0.70352 -6.25351,0.70352 -0.78169,0 -1.48521,-0.0782 -2.18873,-0.0782 -0.70352,-0.0782 -1.48521,-0.2345 -2.34507,-0.46901 -0.85986,-0.23451 -1.64155,-0.54718 -2.2669,-0.93803 -0.54718,-0.39084 -1.09437,-0.93803 -1.48521,-1.64155 -0.39084,-0.70352 -0.62535,-1.56338 -0.62535,-2.5014 l 0,-8.44225 c 0,-3.90845 2.97042,-5.86267 8.91126,-5.86267 1.48521,0 3.5176,0.23451 6.17534,0.70352 l 0,3.43943 c -2.34506,-0.54718 -4.37746,-0.85985 -6.09717,-0.85985 -0.62535,0 -1.25071,0.0782 -1.64155,0.0782 -0.39085,0.0782 -0.85986,0.15633 -1.32887,0.31267 -0.46902,0.15634 -0.85986,0.39085 -1.0162,0.78169 -0.23451,0.31268 -0.39084,0.78169 -0.39084,1.32887 l 0,8.20774 c 0,1.71972 1.64154,2.65775 4.7683,2.65775 1.40704,0 3.36127,-0.31268 5.7845,-0.85986 l 0,3.43943 z"
         style="fill:#000000;fill-opacity:1;fill-rule:evenodd;stroke:none"
         inkscape:connector-curvature="0" />
      <path
         id="path3060"
         d="m 686.79234,149.06818 -1.48521,0 c -1.25071,0 -2.11056,0.15633 -2.73592,0.54718 -0.54718,0.39084 -0.85985,1.01619 -0.85985,1.87605 l 0,8.67676 -4.37746,0 0,-14.38309 4.14295,0 0,2.50141 c 0,-0.70352 0.46901,-1.32888 1.2507,-1.95423 0.78169,-0.54718 1.64155,-0.85986 2.50141,-0.85986 l 1.56338,0 0,3.59578 z"
         style="fill:#000000;fill-opacity:1;fill-rule:evenodd;stroke:none"
         inkscape:connector-curvature="0" />
      <path
         id="path3062"
         d="m 703.36415,150.94423 0,4.29929 c 0,0.93803 -0.15633,1.71972 -0.46901,2.42324 -0.31268,0.62535 -0.62535,1.17253 -1.09437,1.48521 -0.46901,0.39084 -1.01619,0.70352 -1.71971,0.85986 -0.70352,0.2345 -1.32887,0.31267 -1.95423,0.39084 -0.54718,0.0782 -1.2507,0.0782 -2.11056,0.0782 -0.78169,0 -1.48521,0 -2.11056,-0.0782 -0.54718,-0.0782 -1.2507,-0.15634 -1.95422,-0.39084 -0.70352,-0.15634 -1.25071,-0.46902 -1.71972,-0.85986 -0.39084,-0.31268 -0.78169,-0.85986 -1.09436,-1.48521 -0.23451,-0.70352 -0.39085,-1.48521 -0.39085,-2.42324 l 0,-4.29929 c 0,-0.93803 0.15634,-1.79789 0.46902,-2.50141 0.31267,-0.70352 0.62535,-1.2507 1.09436,-1.64154 0.46901,-0.39085 1.0162,-0.62536 1.71972,-0.85986 0.70352,-0.23451 1.40704,-0.31268 1.95422,-0.39085 0.54718,-0.0782 1.2507,-0.0782 2.03239,-0.0782 0.85986,0 1.48521,0 2.11056,0.0782 0.54719,0.0782 1.17254,0.15634 1.87606,0.39085 0.70352,0.2345 1.32887,0.46901 1.79788,0.85986 0.39085,0.39084 0.78169,0.93802 1.09437,1.64154 0.31268,0.70352 0.46901,1.56338 0.46901,2.50141 z m -4.37746,4.76831 0,-5.39366 c 0,-0.78169 -0.15633,-1.32887 -0.54718,-1.64155 -0.39084,-0.39084 -1.2507,-0.54718 -2.42324,-0.54718 -1.17253,0 -1.95422,0.15634 -2.34507,0.54718 -0.39084,0.31268 -0.62535,0.85986 -0.62535,1.64155 l 0,5.39366 c 0,0.78168 0.23451,1.32887 0.62535,1.56337 0.39085,0.31268 1.17254,0.46902 2.34507,0.46902 1.25071,0 2.0324,-0.15634 2.42324,-0.46902 0.39085,-0.2345 0.54718,-0.78169 0.54718,-1.56337 z"
         style="fill:#000000;fill-opacity:1;fill-rule:evenodd;stroke:none"
         inkscape:connector-curvature="0" />
      <path
         id="path3064"
         d="m 719.15428,154.54 0,1.79789 c 0,0.78169 -0.15634,1.32887 -0.39084,1.87605 -0.31268,0.54718 -0.62536,0.93803 -1.0162,1.17254 -0.46901,0.31267 -0.93803,0.54718 -1.64155,0.70352 -0.62535,0.15633 -1.2507,0.2345 -1.87605,0.31267 -0.62535,0.0782 -1.32888,0.0782 -2.11056,0.0782 -1.56338,0 -3.43944,-0.15634 -5.70634,-0.46901 l 0,-2.89225 c 2.81408,0.46901 4.69014,0.62535 5.7845,0.62535 0.85986,0 1.48521,-0.0782 1.95423,-0.23451 0.46901,-0.15634 0.70352,-0.46901 0.70352,-1.0162 l 0,-0.85985 c 0,-0.46902 -0.15634,-0.78169 -0.39085,-1.0162 -0.2345,-0.23451 -0.78169,-0.39084 -1.64154,-0.39084 l -1.87606,0 c -1.56338,0 -2.73591,-0.23451 -3.5176,-0.85986 -0.85986,-0.62535 -1.32887,-1.48521 -1.32887,-2.65775 l 0,-1.79788 c 0,-1.32887 0.70352,-2.18873 1.87605,-2.73592 1.2507,-0.46901 3.04859,-0.70352 5.31549,-0.70352 0.93803,0 2.65774,0.0782 5.15915,0.23451 l 0,2.81408 c -3.12676,-0.2345 -4.84647,-0.39084 -5.23732,-0.39084 -1.2507,0 -2.03239,0.0782 -2.34507,0.31267 -0.31267,0.15634 -0.46901,0.46902 -0.46901,0.93803 l 0,0.78169 c 0,0.23451 0.15634,0.46901 0.39084,0.62535 0.23451,0.23451 0.62536,0.31268 1.17254,0.31268 l 1.87605,0 c 3.5176,0 5.31549,1.17253 5.31549,3.43943 z"
         style="fill:#000000;fill-opacity:1;fill-rule:evenodd;stroke:none"
         inkscape:connector-curvature="0" />
      <path
         id="path3066"
         d="m 734.7099,154.54 0,1.79789 c 0,0.78169 -0.0782,1.32887 -0.39084,1.87605 -0.23451,0.54718 -0.54719,0.93803 -1.0162,1.17254 -0.39085,0.31267 -0.93803,0.54718 -1.56338,0.70352 -0.62535,0.15633 -1.2507,0.2345 -1.87605,0.31267 -0.62536,0.0782 -1.32888,0.0782 -2.11057,0.0782 -1.56337,0 -3.5176,-0.15634 -5.70633,-0.46901 l 0,-2.89225 c 2.73591,0.46901 4.69014,0.62535 5.70633,0.62535 0.85986,0 1.56338,-0.0782 2.0324,-0.23451 0.46901,-0.15634 0.70352,-0.46901 0.70352,-1.0162 l 0,-0.85985 c 0,-0.46902 -0.15634,-0.78169 -0.39085,-1.0162 -0.2345,-0.23451 -0.85986,-0.39084 -1.71971,-0.39084 l -1.79789,0 c -1.56338,0 -2.73591,-0.23451 -3.59577,-0.85986 -0.78169,-0.62535 -1.2507,-1.48521 -1.2507,-2.65775 l 0,-1.79788 c 0,-1.32887 0.62535,-2.18873 1.87605,-2.73592 1.2507,-0.46901 3.04859,-0.70352 5.31549,-0.70352 0.93803,0 2.65774,0.0782 5.08098,0.23451 l 0,2.81408 c -3.04859,-0.2345 -4.76831,-0.39084 -5.15915,-0.39084 -1.2507,0 -2.03239,0.0782 -2.34507,0.31267 -0.31267,0.15634 -0.46901,0.46902 -0.46901,0.93803 l 0,0.78169 c 0,0.23451 0.15634,0.46901 0.39084,0.62535 0.23451,0.23451 0.62535,0.31268 1.09437,0.31268 l 1.95422,0 c 3.5176,0 5.23732,1.17253 5.23732,3.43943 z"
         style="fill:#000000;fill-opacity:1;fill-rule:evenodd;stroke:none"
         inkscape:connector-curvature="0" />
      <path
         id="path3068"
         d="m 752.68876,150.31888 0,4.7683 c 0,1.95423 -0.54719,3.36127 -1.71972,4.14296 -1.17253,0.85986 -3.12676,1.2507 -5.70633,1.2507 -2.73592,0 -4.69014,-0.46901 -5.70634,-1.32887 -1.09436,-0.85986 -1.56337,-2.18873 -1.56337,-4.06479 l 0,-15.79012 4.29929,0 0,7.89506 c 0.31267,-0.62535 0.78169,-1.09436 1.48521,-1.32887 0.70352,-0.23451 1.71971,-0.39085 3.20492,-0.39085 1.25071,0 2.18873,0.0782 2.97042,0.31268 0.78169,0.15634 1.40705,0.46901 1.79789,0.93803 0.39084,0.46901 0.62535,0.93802 0.78169,1.48521 0.15634,0.54718 0.15634,1.2507 0.15634,2.11056 z m -4.29929,5.31549 0,-5.31549 c 0,-0.93803 -0.15634,-1.56338 -0.54719,-1.79789 -0.31267,-0.2345 -1.17253,-0.39084 -2.57957,-0.39084 -1.17254,0 -2.03239,0.15634 -2.42324,0.46901 -0.31268,0.31268 -0.54718,0.93803 -0.54718,1.71972 l 0,5.31549 c 0,0.85985 0.2345,1.40704 0.54718,1.71971 0.39085,0.23451 1.2507,0.39085 2.50141,0.39085 1.2507,0 2.03239,-0.15634 2.5014,-0.39085 0.31268,-0.31267 0.54719,-0.85986 0.54719,-1.71971 z"
         style="fill:#000000;fill-opacity:1;fill-rule:evenodd;stroke:none"
         inkscape:connector-curvature="0" />
      <path
         id="path3070"
         d="m 769.02607,160.16817 -4.22113,0 0,-1.32888 c -0.31267,0.62535 -0.78169,1.0162 -1.40704,1.25071 -0.54718,0.2345 -1.64155,0.39084 -3.20492,0.39084 -1.95423,0 -3.2831,-0.31267 -3.90845,-0.93803 -0.62535,-0.54718 -0.93803,-1.79788 -0.93803,-3.67394 0,-1.71971 0.31268,-2.89225 1.0162,-3.59577 0.62535,-0.62535 1.79788,-0.93803 3.43943,-0.93803 l 4.92464,0 0,-1.01619 c 0,-0.85986 -0.2345,-1.40704 -0.62535,-1.71972 -0.39084,-0.31267 -1.2507,-0.46901 -2.57957,-0.46901 -1.25071,0 -2.89225,0.15634 -5.08098,0.39084 l 0,-2.73591 c 1.64154,-0.23451 3.5176,-0.31268 5.54999,-0.31268 2.65775,0 4.45563,0.31268 5.55,0.93803 1.01619,0.70352 1.48521,1.95422 1.48521,3.83028 l 0,9.92746 z m -4.2993,-3.67395 0,-2.81408 -2.97042,0 c -0.93802,0 -1.56337,0.0782 -1.79788,0.31268 -0.23451,0.23451 -0.39085,0.85986 -0.39085,1.79788 0,0.93803 0.15634,1.48521 0.39085,1.64155 0.23451,0.23451 0.85986,0.31268 1.87605,0.31268 0.54719,0 0.85986,0 1.09437,0 0.23451,0 0.54718,0 0.78169,-0.0782 0.31267,0 0.46901,-0.0782 0.62535,-0.15634 0.0782,-0.15634 0.15634,-0.23451 0.23451,-0.39084 0.0782,-0.15634 0.15633,-0.39085 0.15633,-0.62536 z"
         style="fill:#000000;fill-opacity:1;fill-rule:evenodd;stroke:none"
         inkscape:connector-curvature="0" />
      <path
         id="path3072"
         d="m 782.31479,149.06818 -1.48521,0 c -1.17254,0 -2.11056,0.15633 -2.73592,0.54718 -0.54718,0.39084 -0.85985,1.01619 -0.85985,1.87605 l 0,8.67676 -4.37747,0 0,-14.38309 4.14296,0 0,2.50141 c 0,-0.70352 0.46901,-1.32888 1.2507,-1.95423 0.78169,-0.54718 1.64155,-0.85986 2.50141,-0.85986 l 1.56338,0 0,3.59578 z"
         style="fill:#000000;fill-opacity:1;fill-rule:evenodd;stroke:none"
         inkscape:connector-curvature="0" />
      <path
         id="path3074"
         d="m 784.81619,156.96324 0,3.20493 3.43944,0 0,-3.20493 -3.43944,0 z"
         style="fill:#000000;fill-opacity:1;fill-rule:evenodd;stroke:none"
         inkscape:connector-curvature="0" />
      <path
         id="path3076"
         d="m 795.369,143.36184 -2.65774,0 0,-2.81408 2.65774,0 0,2.81408 z m 0,16.80633 -2.65774,0 0,-14.38309 2.65774,0 0,14.38309 z"
         style="fill:#000000;fill-opacity:1;fill-rule:evenodd;stroke:none"
         inkscape:connector-curvature="0" />
      <path
         id="path3078"
         d="m 812.72251,150.63155 0,5.00282 c 0,0.85985 -0.0782,1.64154 -0.31268,2.2669 -0.23451,0.62535 -0.46901,1.09436 -0.85986,1.40704 -0.31267,0.31267 -0.78169,0.62535 -1.40704,0.78169 -0.62535,0.15633 -1.2507,0.31267 -1.79789,0.31267 -0.54718,0.0782 -1.32887,0.0782 -2.26689,0.0782 -1.17254,0 -2.11057,-0.0782 -2.73592,-0.15634 -0.70352,-0.0782 -1.32887,-0.2345 -2.03239,-0.54718 -0.62535,-0.31268 -1.09437,-0.78169 -1.40704,-1.48521 -0.31268,-0.70352 -0.46901,-1.56338 -0.46901,-2.65774 l 0,-5.00282 c 0,-0.93802 0.15633,-1.79788 0.39084,-2.42323 0.23451,-0.62535 0.46901,-1.17254 0.85986,-1.48521 0.31267,-0.39085 0.78169,-0.62535 1.40704,-0.85986 0.62535,-0.15634 1.17253,-0.31268 1.79789,-0.31268 0.46901,-0.0782 1.2507,-0.0782 2.18873,-0.0782 0.93802,0 1.71971,0 2.26689,0.0782 0.54719,0 1.09437,0.15634 1.79789,0.31268 0.62535,0.23451 1.09437,0.46901 1.40704,0.85986 0.31268,0.31267 0.62535,0.85986 0.85986,1.48521 0.23451,0.62535 0.31268,1.48521 0.31268,2.42323 z m -2.73592,5.39366 0,-5.86267 c 0,-1.32887 -0.2345,-2.11056 -0.78169,-2.42324 -0.54718,-0.39084 -1.56338,-0.54718 -3.12675,-0.54718 -1.48521,0 -2.57958,0.15634 -3.04859,0.54718 -0.54719,0.31268 -0.85986,1.09437 -0.85986,2.42324 l 0,5.86267 c 0,0.62535 0.0782,1.09437 0.23451,1.48521 0.15633,0.39085 0.39084,0.70352 0.78168,0.85986 0.39085,0.15634 0.78169,0.23451 1.17254,0.31268 0.39084,0 0.93803,0 1.71972,0 0.78169,0 1.40704,0 1.79788,0 0.39085,-0.0782 0.78169,-0.15634 1.09437,-0.31268 0.39084,-0.15634 0.70352,-0.46901 0.78169,-0.85986 0.15633,-0.39084 0.2345,-0.85986 0.2345,-1.48521 z"
         style="fill:#000000;fill-opacity:1;fill-rule:evenodd;stroke:none"
         inkscape:connector-curvature="0" />
      <path
         id="path3080"
         d="m 700.55007,58.157694 0,64.958396 64.80206,0 0,-64.958396 -64.80206,0 z"
         style="fill:#000000;fill-opacity:1;fill-rule:evenodd;stroke:none"
         inkscape:connector-curvature="0" />
      <path
         id="path3082"
         d="m 700.55007,71.915428 0,6.488022 15.24295,0 10.16196,10.161963 4.69014,-4.690137 -11.95985,-12.038017 -18.1352,0.07817 z"
         style="fill:#ffe100;fill-opacity:1;fill-rule:evenodd;stroke:none"
         inkscape:connector-curvature="0" />
      <path
         id="path3084"
         d="m 739.86905,93.099212 -4.69014,4.690136 11.64718,11.647172 18.52604,0 0,-6.56619 -15.71196,0 -9.77112,-9.771118 z"
         style="fill:#ffe100;fill-opacity:1;fill-rule:evenodd;stroke:none"
         inkscape:connector-curvature="0" />
      <path
         id="path3086"
         d="m 747.21693,71.837259 -30.87673,31.111241 -15.79013,0 0,6.48802 18.52604,0 31.03307,-31.03307 15.24295,0 0,-6.566191 -18.1352,0 z"
         style="fill:#ffe100;fill-opacity:1;fill-rule:evenodd;stroke:none"
         inkscape:connector-curvature="0" />
      <path
         id="path3088"
         d="M 183.14983,108.57666 624.9607,109.9837"
         style="fill:none;stroke:#ffc000;stroke-width:3.59577131px;stroke-linecap:round;stroke-linejoin:round;stroke-opacity:1;stroke-dasharray:none"
         inkscape:connector-curvature="0" />
      <path
         id="path3090"
         d="m 185.10406,116.31539 -23.37252,-7.8169 23.37252,-7.73872 0,15.55562 z"
         style="fill:#ffc000;fill-opacity:1;fill-rule:evenodd;stroke:none"
         inkscape:connector-curvature="0" />
      <path
         id="path3092"
         d="m 263.35117,29.000678 0,-26.8901165 252.87653,0 0,71.7590905 -98.10202,0 39.0063,35.410528 -95.75695,-35.410528 -98.02386,0 0,-44.868974 z"
         style="fill:#ffffff;fill-opacity:1;fill-rule:evenodd;stroke:none"
         inkscape:connector-curvature="0" />
      <path
         id="path3094"
         d="m 263.35117,29.000678 0,-26.8901165 252.87653,0 0,71.7590905 -98.10202,0 39.0063,35.410528 -95.75695,-35.410528 -98.02386,0 0,-44.868974 z"
         style="fill:none;stroke:#000000;stroke-width:0.3908447px;stroke-linecap:round;stroke-linejoin:round;stroke-opacity:1;stroke-dasharray:none"
         inkscape:connector-curvature="0" />
      <text
         id="text3096"
         style="font-size:16.25914001px;font-style:normal;font-weight:normal;text-align:start;text-anchor:start;fill:#000000;font-family:Arial"
         y="22.512655"
         x="270.15186"
         xml:space="preserve">Real</text>
      <text
         id="text3098"
         style="font-size:16.25914001px;font-style:normal;font-weight:normal;text-align:start;text-anchor:start;fill:#000000;font-family:Arial"
         y="22.512655"
         x="303.92084"
         xml:space="preserve">-</text>
      <text
         id="text3100"
         style="font-size:16.25914001px;font-style:normal;font-weight:normal;text-align:start;text-anchor:start;fill:#000000;font-family:Arial"
         y="22.512655"
         x="310.17438"
         xml:space="preserve">time data updates and </text>
      <text
         id="text3102"
         style="font-size:16.25914001px;font-style:normal;font-weight:normal;text-align:start;text-anchor:start;fill:#000000;font-family:Arial"
         y="42.523907"
         x="270.15186"
         xml:space="preserve">notifications sent over WAMP</text>
      <text
         id="text3104"
         style="font-size:16.25914001px;font-style:normal;font-weight:normal;text-align:start;text-anchor:start;fill:#000000;font-family:Arial"
         y="42.523907"
         x="487.7742"
         xml:space="preserve">/</text>
      <text
         id="text3106"
         style="font-size:16.25914001px;font-style:normal;font-weight:normal;text-align:start;text-anchor:start;fill:#000000;font-family:Arial"
         y="62.535156"
         x="270.15186"
         xml:space="preserve">WebSocket</text>
      <path
         id="path3108"
         d="m 271.55891,300.40325 0,-26.89012 252.9547,0 0,71.75909 -98.10202,0 -75.66754,40.0225 18.91688,-40.0225 -98.10202,0 0,-44.86897 z"
         style="fill:#ffffff;fill-opacity:1;fill-rule:evenodd;stroke:none"
         inkscape:connector-curvature="0" />
      <path
         id="path3110"
         d="m 271.55891,300.40325 0,-26.89012 252.9547,0 0,71.75909 -98.10202,0 -75.66754,40.0225 18.91688,-40.0225 -98.10202,0 0,-44.86897 z"
         style="fill:none;stroke:#000000;stroke-width:0.3908447px;stroke-linecap:round;stroke-linejoin:round;stroke-opacity:1;stroke-dasharray:none"
         inkscape:connector-curvature="0" />
      <text
         id="text3112"
         style="font-size:16.25914001px;font-style:normal;font-weight:normal;text-align:start;text-anchor:start;fill:#000000;font-family:Arial"
         y="303.92084"
         x="277.6561"
         xml:space="preserve">Request</text>
      <text
         id="text3114"
         style="font-size:16.25914001px;font-style:normal;font-weight:normal;text-align:start;text-anchor:start;fill:#000000;font-family:Arial"
         y="303.92084"
         x="340.19125"
         xml:space="preserve">/</text>
      <text
         id="text3116"
         style="font-size:16.25914001px;font-style:normal;font-weight:normal;text-align:start;text-anchor:start;fill:#000000;font-family:Arial"
         y="303.92084"
         x="345.19406"
         xml:space="preserve">response interaction </text>
      <text
         id="text3118"
         style="font-size:16.25914001px;font-style:normal;font-weight:normal;text-align:start;text-anchor:start;fill:#000000;font-family:Arial"
         y="323.9321"
         x="277.6561"
         xml:space="preserve">over HTTP or Ajax</text>
      <path
         id="path3120"
         d="m 844.77177,241.77654 0,-26.96828 252.87653,0 0,71.83726 -252.87653,0 0,-26.96829 -109.90553,2.42324 109.90553,-20.32393 z"
         style="fill:#ffffff;fill-opacity:1;fill-rule:evenodd;stroke:none"
         inkscape:connector-curvature="0" />
      <path
         id="path3122"
         d="m 844.77177,241.77654 0,-26.96828 252.87653,0 0,71.83726 -252.87653,0 0,-26.96829 -109.90553,2.42324 109.90553,-20.32393 z"
         style="fill:none;stroke:#000000;stroke-width:0.3908447px;stroke-linecap:round;stroke-linejoin:round;stroke-opacity:1;stroke-dasharray:none"
         inkscape:connector-curvature="0" />
      <text
         id="text3124"
         style="font-size:16.25914001px;font-style:normal;font-weight:normal;text-align:start;text-anchor:start;fill:#000000;font-family:Arial"
         y="245.13782"
         x="851.72882"
         xml:space="preserve">Inject WAMP events via plain </text>
      <text
         id="text3126"
         style="font-size:16.25914001px;font-style:normal;font-weight:normal;text-align:start;text-anchor:start;fill:#000000;font-family:Arial"
         y="265.14905"
         x="851.72882"
         xml:space="preserve">old HTTP</text>
      <text
         id="text3128"
         style="font-size:16.25914001px;font-style:normal;font-weight:normal;text-align:start;text-anchor:start;fill:#000000;font-family:Arial"
         y="265.14905"
         x="921.76819"
         xml:space="preserve">/</text>
      <text
         id="text3130"
         style="font-size:16.25914001px;font-style:normal;font-weight:normal;text-align:start;text-anchor:start;fill:#000000;font-family:Arial"
         y="265.14905"
         x="926.771"
         xml:space="preserve">POST requests</text>
    </g>
  </g>
</svg>
