<?xml version="1.0" encoding="UTF-8" standalone="no"?>
<!-- Created with Inkscape (http://www.inkscape.org/) -->

<svg
   xmlns:dc="http://purl.org/dc/elements/1.1/"
   xmlns:cc="http://creativecommons.org/ns#"
   xmlns:rdf="http://www.w3.org/1999/02/22-rdf-syntax-ns#"
   xmlns:svg="http://www.w3.org/2000/svg"
   xmlns="http://www.w3.org/2000/svg"
   xmlns:sodipodi="http://sodipodi.sourceforge.net/DTD/sodipodi-0.dtd"
   xmlns:inkscape="http://www.inkscape.org/namespaces/inkscape"
   width="872.42188"
   height="618.12317"
   id="svg3065"
   version="1.1"
   inkscape:version="0.48.4 r9939"
   sodipodi:docname="crossbar_deployment_04.svg">
  <defs
     id="defs3067" />
  <sodipodi:namedview
     id="base"
     pagecolor="#ffffff"
     bordercolor="#666666"
     borderopacity="1.0"
     inkscape:pageopacity="0.0"
     inkscape:pageshadow="2"
     inkscape:zoom="0.7"
     inkscape:cx="597.55714"
     inkscape:cy="341.57242"
     inkscape:document-units="px"
     inkscape:current-layer="layer1"
     showgrid="false"
     fit-margin-top="10"
     fit-margin-left="10"
     fit-margin-bottom="10"
     fit-margin-right="10"
     inkscape:window-width="1440"
     inkscape:window-height="838"
     inkscape:window-x="-8"
     inkscape:window-y="-8"
     inkscape:window-maximized="1" />
  <metadata
     id="metadata3070">
    <rdf:RDF>
      <cc:Work
         rdf:about="">
        <dc:format>image/svg+xml</dc:format>
        <dc:type
           rdf:resource="http://purl.org/dc/dcmitype/StillImage" />
        <dc:title></dc:title>
      </cc:Work>
    </rdf:RDF>
  </metadata>
  <g
     inkscape:label="Ebene 1"
     inkscape:groupmode="layer"
     id="layer1"
     transform="translate(110.98969,-199.0026)">
    <g
       id="g3569"
       transform="translate(-102.86469,207.1276)">
      <path
         id="path3571"
         d="m 830.625,474.375 c 13.04688,0 23.67188,-10.625 23.67188,-23.67188 l 0,0 0,-283.4375 c 0,-13.04687 -10.625,-23.59374 -23.67188,-23.59374 l 0,0 -805.078125,0 C 12.5,143.67188 1.875,154.21875 1.875,167.26562 l 0,283.4375 C 1.875,463.75 12.5,474.375 25.546875,474.375 l 0,0 805.078125,0 z"
         style="fill:#d9d9d9;fill-opacity:1;fill-rule:evenodd;stroke:none"
         inkscape:connector-curvature="0" />
      <path
         id="path3573"
         d="m 797.57812,403.51562 c 13.04688,0 23.59376,-10.625 23.59376,-23.67187 l 0,0 0,0 c 0,-13.04687 -10.54688,-23.59375 -23.59376,-23.59375 l 0,0 -118.125,0 c -13.04687,0 -23.59374,10.54688 -23.59374,23.59375 l 0,0 c 0,13.04687 10.54687,23.67187 23.59374,23.67187 l 118.125,0 z"
         style="fill:#8c8c8c;fill-opacity:1;fill-rule:evenodd;stroke:none"
         inkscape:connector-curvature="0" />
      <text
         id="text3575"
         style="font-size:15px;font-style:normal;font-weight:normal;text-align:start;text-anchor:start;fill:#ffffff;font-family:Arial"
         y="383.75"
         x="671.25"
         xml:space="preserve">Key </text>
      <text
         id="text3577"
         style="font-size:15px;font-style:normal;font-weight:normal;text-align:start;text-anchor:start;fill:#ffffff;font-family:Arial"
         y="383.75"
         x="701.25"
         xml:space="preserve">&amp; </text>
      <text
         id="text3579"
         style="font-size:15px;font-style:normal;font-weight:normal;text-align:start;text-anchor:start;fill:#ffffff;font-family:Arial"
         y="383.75"
         x="716.25"
         xml:space="preserve">Configuration</text>
      <path
         id="path3581"
         d="m 471.5625,261.71875 0,70.9375 118.125,0 0,-70.9375 -118.125,0 z"
         style="fill:#404040;fill-opacity:1;fill-rule:evenodd;stroke:none"
         inkscape:connector-curvature="0" />
      <text
         id="text3583"
         style="font-size:16.25px;font-style:normal;font-weight:bold;text-align:start;text-anchor:start;fill:#ffc000;font-family:Arial"
         y="292.5"
         x="503.75"
         xml:space="preserve">Bridge </text>
      <text
         id="text3585"
         style="font-size:16.25px;font-style:normal;font-weight:bold;text-align:start;text-anchor:start;fill:#ffc000;font-family:Arial"
         y="312.5"
         x="502.5"
         xml:space="preserve">Worker</text>
      <path
         id="path3587"
         d="m 653.51562,190.85938 0,141.79687 167.65626,0 0,-141.79687 -167.65626,0 z"
         style="fill:#404040;fill-opacity:1;fill-rule:evenodd;stroke:none"
         inkscape:connector-curvature="0" />
      <text
         id="text3589"
         style="font-size:20px;font-style:normal;font-weight:normal;text-align:start;text-anchor:start;fill:#ffc000;font-family:Arial"
         y="267.5"
         x="667.5"
         xml:space="preserve">Node Controller</text>
      <path
         id="path3591"
         d="m 807.03125,96.40625 c 13.04687,0 23.59375,-10.546875 23.59375,-23.59375 l 0,0 0,-47.265625 C 830.625,12.5 820.07812,1.875 807.03125,1.875 l 0,0 -139.375,0 c -13.04687,0 -23.59375,10.625 -23.59375,23.671875 l 0,0 0,47.265625 c 0,13.046875 10.54688,23.59375 23.59375,23.59375 l 0,0 139.375,0 z"
         style="fill:#ff6600;fill-opacity:1;fill-rule:evenodd;stroke:none"
         inkscape:connector-curvature="0" />
      <text
         id="text3593"
         style="font-size:20px;font-style:normal;font-weight:normal;text-align:start;text-anchor:start;fill:#ffffff;font-family:Arial"
         y="42.5"
         x="678.75"
         xml:space="preserve">Management</text>
      <text
         id="text3595"
         style="font-size:20px;font-style:normal;font-weight:normal;text-align:start;text-anchor:start;fill:#ffffff;font-family:Arial"
         y="67.5"
         x="703.75"
         xml:space="preserve">Service</text>
      <text
         id="text3597"
         style="font-size:23.75px;font-style:normal;font-weight:bold;text-align:start;text-anchor:start;fill:#404040;font-family:Arial"
         y="457.5"
         x="621.25"
         xml:space="preserve">Crossbar</text>
      <text
         id="text3599"
         style="font-size:23.75px;font-style:normal;font-weight:bold;text-align:start;text-anchor:start;fill:#404040;font-family:Arial"
         y="457.5"
         x="723.75"
         xml:space="preserve">.</text>
      <text
         id="text3601"
         style="font-size:23.75px;font-style:normal;font-weight:bold;text-align:start;text-anchor:start;fill:#404040;font-family:Arial"
         y="457.5"
         x="730"
         xml:space="preserve">io </text>
      <text
         id="text3603"
         style="font-size:23.75px;font-style:normal;font-weight:normal;text-align:start;text-anchor:start;fill:#404040;font-family:Arial"
         y="457.5"
         x="757.5"
         xml:space="preserve">Node</text>
      <path
         id="path3605"
         d="M 737.34375,96.40625 724.375,109.375 l 8.51562,0 0,81.48438 8.82813,0 0,-81.48438 8.59375,0 -12.96875,-12.96875 z"
         style="fill:#ff6600;fill-opacity:1;fill-rule:evenodd;stroke:none"
         inkscape:connector-curvature="0" />
      <path
         id="path3607"
         d="M 737.34375,96.40625 724.375,109.375 l 8.51562,0 0,81.48438 8.82813,0 0,-81.48438 8.59375,0 -12.96875,-12.96875 z"
         style="fill:none;stroke:#ff6600;stroke-width:0.390625px;stroke-linecap:round;stroke-linejoin:round;stroke-opacity:1;stroke-dasharray:none"
         inkscape:connector-curvature="0" />
      <path
         id="path3609"
         d="m 531.01562,96.40625 -14.14062,14.14063 9.375,0 0,151.17187 9.60938,0 0,-151.17187 9.375,0 -14.21876,-14.14063 z"
         style="fill:#737373;fill-opacity:1;fill-rule:evenodd;stroke:none"
         inkscape:connector-curvature="0" />
      <path
         id="path3611"
         d="m 566.48438,96.40625 c 13.04687,0 23.59374,-10.546875 23.59374,-23.59375 l 0,0 0,-47.265625 C 590.07812,12.5 579.53125,1.875 566.48438,1.875 l 0,0 -70.85938,0 c -13.04688,0 -23.67188,10.625 -23.67188,23.671875 l 0,0 0,47.265625 c 0,13.046875 10.625,23.59375 23.67188,23.59375 l 70.85938,0 z"
         style="fill:#d9d9d9;fill-opacity:1;fill-rule:evenodd;stroke:none"
         inkscape:connector-curvature="0" />
      <text
         id="text3613"
         style="font-size:16.25px;font-style:normal;font-weight:bold;text-align:start;text-anchor:start;fill:#595959;font-family:Arial"
         y="43.75"
         x="485"
         xml:space="preserve">Crossbar</text>
      <text
         id="text3615"
         style="font-size:16.25px;font-style:normal;font-weight:bold;text-align:start;text-anchor:start;fill:#595959;font-family:Arial"
         y="43.75"
         x="557.5"
         xml:space="preserve">.</text>
      <text
         id="text3617"
         style="font-size:16.25px;font-style:normal;font-weight:bold;text-align:start;text-anchor:start;fill:#595959;font-family:Arial"
         y="43.75"
         x="562.5"
         xml:space="preserve">io</text>
      <text
         id="text3619"
         style="font-size:16.25px;font-style:normal;font-weight:normal;text-align:start;text-anchor:start;fill:#595959;font-family:Arial"
         y="63.75"
         x="511.25"
         xml:space="preserve">Node</text>
      <path
         id="path3621"
         d="m 530.625,332.65625 -14.14062,14.14063 9.375,0 0.39062,194.14062 9.60938,-0.0781 -0.39063,-194.0625 9.375,0 -14.21875,-14.14063 z"
         style="fill:#a6a6a6;fill-opacity:1;fill-rule:evenodd;stroke:none"
         inkscape:connector-curvature="0" />
      <text
         id="text3623"
         style="font-size:23.75px;font-style:normal;font-weight:normal;text-align:start;text-anchor:start;fill:#000000;font-family:Arial"
         y="595"
         x="455"
         xml:space="preserve">Bridge Targets</text>
      <path
         id="path3625"
         d="m 157.8125,390 0,-27.42188 108.67188,0 205.07812,-65.39062 -148.35938,65.39062 108.59376,0 0,73.20313 -273.98438,0 0,-45.78125 z"
         style="fill:#ffffff;fill-opacity:1;fill-rule:evenodd;stroke:none"
         inkscape:connector-curvature="0" />
      <path
         id="path3627"
         d="m 157.8125,390 0,-27.42188 108.67188,0 205.07812,-65.39062 -148.35938,65.39062 108.59376,0 0,73.20313 -273.98438,0 0,-45.78125 z"
         style="fill:none;stroke:#000000;stroke-width:0.390625px;stroke-linecap:round;stroke-linejoin:round;stroke-opacity:1;stroke-dasharray:none"
         inkscape:connector-curvature="0" />
      <text
         id="text3629"
         style="font-size:16.25px;font-style:normal;font-weight:normal;text-align:start;text-anchor:start;fill:#000000;font-family:Arial"
         y="383.75"
         x="175"
         xml:space="preserve">Bridges like to databases</text>
      <text
         id="text3631"
         style="font-size:16.25px;font-style:normal;font-weight:normal;text-align:start;text-anchor:start;fill:#000000;font-family:Arial"
         y="383.75"
         x="361.25"
         xml:space="preserve">, </text>
      <text
         id="text3633"
         style="font-size:16.25px;font-style:normal;font-weight:normal;text-align:start;text-anchor:start;fill:#000000;font-family:Arial"
         y="383.75"
         x="370"
         xml:space="preserve">REST </text>
      <text
         id="text3635"
         style="font-size:16.25px;font-style:normal;font-weight:normal;text-align:start;text-anchor:start;fill:#000000;font-family:Arial"
         y="403.75"
         x="197.5"
         xml:space="preserve">and SRDP are started and </text>
      <text
         id="text3637"
         style="font-size:16.25px;font-style:normal;font-weight:normal;text-align:start;text-anchor:start;fill:#000000;font-family:Arial"
         y="423.75"
         x="167.5"
         xml:space="preserve">monitored from the node controller</text>
    </g>
  </g>
</svg>
