<?xml version="1.0" encoding="UTF-8" standalone="no"?>
<!-- Created with Inkscape (http://www.inkscape.org/) -->

<svg
   xmlns:dc="http://purl.org/dc/elements/1.1/"
   xmlns:cc="http://creativecommons.org/ns#"
   xmlns:rdf="http://www.w3.org/1999/02/22-rdf-syntax-ns#"
   xmlns:svg="http://www.w3.org/2000/svg"
   xmlns="http://www.w3.org/2000/svg"
   xmlns:sodipodi="http://sodipodi.sourceforge.net/DTD/sodipodi-0.dtd"
   xmlns:inkscape="http://www.inkscape.org/namespaces/inkscape"
   width="978.59436"
   height="574.37811"
   id="svg2"
   version="1.1"
   inkscape:version="0.48.4 r9939"
   sodipodi:docname="crossbar_application_scenario_4.svg">
  <defs
     id="defs4" />
  <sodipodi:namedview
     id="base"
     pagecolor="#ffffff"
     bordercolor="#666666"
     borderopacity="1.0"
     inkscape:pageopacity="0.0"
     inkscape:pageshadow="2"
     inkscape:zoom="0.98994949"
     inkscape:cx="380.16058"
     inkscape:cy="209.46318"
     inkscape:document-units="px"
     inkscape:current-layer="layer1"
     showgrid="false"
     fit-margin-top="10"
     fit-margin-bottom="10"
     fit-margin-left="10"
     fit-margin-right="10"
     inkscape:window-width="1680"
     inkscape:window-height="988"
     inkscape:window-x="-8"
     inkscape:window-y="320"
     inkscape:window-maximized="1" />
  <metadata
     id="metadata7">
    <rdf:RDF>
      <cc:Work
         rdf:about="">
        <dc:format>image/svg+xml</dc:format>
        <dc:type
           rdf:resource="http://purl.org/dc/dcmitype/StillImage" />
        <dc:title />
      </cc:Work>
    </rdf:RDF>
  </metadata>
  <g
     inkscape:label="Ebene 1"
     inkscape:groupmode="layer"
     id="layer1"
     transform="translate(549.6636,-240.69139)">
    <g
       id="g3038"
       transform="translate(-541.56922,248.78577)">
      <path
         id="path3040"
         d="m 935.0569,190.10687 c 13.05422,0 23.60702,-10.63098 23.60702,-23.68519 l 0,0 0,-104.511877 c 0,-13.054213 -10.5528,-23.68519 -23.60702,-23.68519 l 0,0 -173.53505,0 c -13.05422,0 -23.68519,10.630977 -23.68519,23.68519 l 0,0 0,104.511877 c 0,13.05421 10.63097,23.68519 23.68519,23.68519 l 173.53505,0 z"
         style="fill:#f2f2f2;fill-opacity:1;fill-rule:evenodd;stroke:none"
         inkscape:connector-curvature="0" />
      <path
         id="path3042"
         d="m 935.0569,190.10687 c 13.05422,0 23.60702,-10.63098 23.60702,-23.68519 l 0,0 0,-104.511877 c 0,-13.054213 -10.5528,-23.68519 -23.60702,-23.68519 l 0,0 -173.53505,0 c -13.05422,0 -23.68519,10.630977 -23.68519,23.68519 l 0,0 0,104.511877 c 0,13.05421 10.63097,23.68519 23.68519,23.68519 l 173.53505,0 z"
         style="fill:none;stroke:#000000;stroke-width:3.59577131px;stroke-linecap:round;stroke-linejoin:round;stroke-opacity:1;stroke-dasharray:none"
         inkscape:connector-curvature="0" />
      <text
         id="text3044"
         style="font-size:23.76335907px;font-style:normal;font-weight:normal;text-align:start;text-anchor:start;fill:#000000;font-family:Arial"
         y="107.56047"
         x="780.43872"
         xml:space="preserve">Your existing</text>
      <text
         id="text3046"
         style="font-size:23.76335907px;font-style:normal;font-weight:normal;text-align:start;text-anchor:start;fill:#000000;font-family:Arial"
         y="135.07593"
         x="764.17957"
         xml:space="preserve">Web Application</text>
      <path
         id="path3048"
         d="m 251.00048,472.45309 c 13.05421,0 23.60702,-10.5528 23.60702,-23.60702 l 0,0 0,-387.639787 c 0,-13.054214 -10.55281,-23.607021 -23.60702,-23.607021 l -110.7654,0 c -13.05421,0 -23.60702,10.552807 -23.60702,23.607021 l 0,0 0,387.639787 c 0,13.05422 10.55281,23.60702 23.60702,23.60702 l 0,0 110.7654,0 z"
         style="fill:#f2f2f2;fill-opacity:1;fill-rule:evenodd;stroke:none"
         inkscape:connector-curvature="0" />
      <path
         id="path3050"
         d="m 251.00048,472.45309 c 13.05421,0 23.60702,-10.5528 23.60702,-23.60702 l 0,0 0,-387.639787 c 0,-13.054214 -10.55281,-23.607021 -23.60702,-23.607021 l -110.7654,0 c -13.05421,0 -23.60702,10.552807 -23.60702,23.607021 l 0,0 0,387.639787 c 0,13.05422 10.55281,23.60702 23.60702,23.60702 l 0,0 110.7654,0 z"
         style="fill:none;stroke:#000000;stroke-width:3.59577131px;stroke-linecap:round;stroke-linejoin:round;stroke-opacity:1;stroke-dasharray:none"
         inkscape:connector-curvature="0" />
      <text
         id="text3052"
         style="font-size:23.76335907px;font-style:normal;font-weight:normal;text-align:start;text-anchor:start;fill:#000000;font-family:Arial"
         y="247.63921"
         x="171.34631"
         xml:space="preserve">Web </text>
      <text
         id="text3054"
         style="font-size:23.76335907px;font-style:normal;font-weight:normal;text-align:start;text-anchor:start;fill:#000000;font-family:Arial"
         y="276.40536"
         x="148.83366"
         xml:space="preserve">Frontend</text>
      <path
         id="path3056"
         d="m 720.79583,114.12666 -446.18833,0 0,-0.23451"
         style="fill:none;stroke:#262626;stroke-width:2.0323925px;stroke-linecap:round;stroke-linejoin:round;stroke-opacity:1;stroke-dasharray:none"
         inkscape:connector-curvature="0" />
      <path
         id="path3058"
         d="m 719.23245,107.95131 18.60421,6.17535 -18.60421,6.25351 0,-12.42886 z"
         style="fill:#262626;fill-opacity:1;fill-rule:evenodd;stroke:none"
         inkscape:connector-curvature="0" />
      <path
         id="path3060"
         d="m 934.19704,473.78197 c 13.05422,0 23.68519,-10.55281 23.68519,-23.60702 l 0,0 0,-121.16187 c 0,-13.05421 -10.63097,-23.60702 -23.68519,-23.60702 l 0,0 -172.51885,0 c -13.05422,0 -23.60703,10.55281 -23.60703,23.60702 l 0,0 0,121.16187 c 0,13.05421 10.55281,23.60702 23.60703,23.60702 l 172.51885,0 z"
         style="fill:#ffe100;fill-opacity:1;fill-rule:evenodd;stroke:none"
         inkscape:connector-curvature="0" />
      <path
         id="path3062"
         d="m 934.19704,473.78197 c 13.05422,0 23.68519,-10.55281 23.68519,-23.60702 l 0,0 0,-121.16187 c 0,-13.05421 -10.63097,-23.60702 -23.68519,-23.60702 l 0,0 -172.51885,0 c -13.05422,0 -23.60703,10.55281 -23.60703,23.60702 l 0,0 0,121.16187 c 0,13.05421 10.55281,23.60702 23.60703,23.60702 l 172.51885,0 z"
         style="fill:none;stroke:#ffc000;stroke-width:5.23731899px;stroke-linecap:round;stroke-linejoin:round;stroke-opacity:1;stroke-dasharray:none"
         inkscape:connector-curvature="0" />
      <path
         id="path3064"
         d="m 787.63027,439.4658 c -2.18873,0.39085 -4.22112,0.62535 -6.25351,0.62535 -0.78169,0 -1.56338,0 -2.18873,-0.0782 -0.70352,-0.0782 -1.48521,-0.2345 -2.42324,-0.46901 -0.85986,-0.23451 -1.56338,-0.54718 -2.18873,-0.93803 -0.54718,-0.39084 -1.09436,-0.93803 -1.48521,-1.64155 -0.46901,-0.70352 -0.62535,-1.48521 -0.62535,-2.42323 l 0,-8.52042 c 0,-3.90844 2.97042,-5.86267 8.91126,-5.86267 1.48521,0 3.5176,0.23451 6.17535,0.70352 l 0,3.43944 c -2.42324,-0.54719 -4.45563,-0.78169 -6.09718,-0.78169 -0.70352,0 -1.2507,0 -1.64155,0 -0.39084,0.0782 -0.85986,0.15633 -1.32887,0.31267 -0.46902,0.15634 -0.85986,0.46902 -1.0162,0.78169 -0.2345,0.31268 -0.39084,0.78169 -0.39084,1.32887 l 0,8.20774 c 0,1.79789 1.64155,2.65775 4.7683,2.65775 1.40704,0 3.36127,-0.31268 5.7845,-0.85986 l 0,3.5176 z"
         style="fill:#000000;fill-opacity:1;fill-rule:evenodd;stroke:none"
         inkscape:connector-curvature="0" />
      <path
         id="path3066"
         d="m 799.9028,428.67849 -1.48521,0 c -1.2507,0 -2.11056,0.2345 -2.73591,0.54718 -0.54719,0.39084 -0.85986,1.0162 -0.85986,1.95422 l 0,8.59859 -4.37746,0 0,-14.38309 4.14295,0 0,2.50141 c 0,-0.70352 0.46901,-1.32888 1.2507,-1.95423 0.78169,-0.54718 1.64155,-0.85986 2.50141,-0.85986 l 1.56338,0 0,3.59578 z"
         style="fill:#000000;fill-opacity:1;fill-rule:evenodd;stroke:none"
         inkscape:connector-curvature="0" />
      <path
         id="path3068"
         d="m 816.47462,430.63271 0,4.22112 c 0,0.93803 -0.15634,1.71972 -0.46902,2.42324 -0.31267,0.62535 -0.62535,1.17253 -1.09436,1.56338 -0.46902,0.31267 -1.0162,0.62535 -1.71972,0.78169 -0.70352,0.23451 -1.32887,0.39084 -1.95422,0.39084 -0.54719,0.0782 -1.25071,0.0782 -2.11057,0.0782 -0.85985,0 -1.56337,0 -2.11056,-0.0782 -0.54718,0 -1.2507,-0.15633 -1.95422,-0.39084 -0.70352,-0.15634 -1.2507,-0.46902 -1.71972,-0.78169 -0.39084,-0.39085 -0.78169,-0.93803 -1.09436,-1.56338 -0.31268,-0.70352 -0.39085,-1.48521 -0.39085,-2.42324 l 0,-4.22112 c 0,-1.0162 0.15634,-1.87605 0.46902,-2.57958 0.2345,-0.70352 0.62535,-1.2507 1.09436,-1.64154 0.46902,-0.31268 1.0162,-0.62535 1.71972,-0.85986 0.70352,-0.23451 1.32887,-0.31268 1.95422,-0.39085 0.54718,0 1.2507,-0.0782 2.03239,-0.0782 0.85986,0 1.48521,0.0782 2.11057,0.0782 0.54718,0.0782 1.17253,0.15634 1.87605,0.39085 0.70352,0.23451 1.32887,0.54718 1.71972,0.85986 0.46901,0.39084 0.85986,0.93802 1.17253,1.64154 0.31268,0.70353 0.46902,1.56338 0.46902,2.57958 z m -4.37747,4.76831 0,-5.47183 c 0,-0.78169 -0.15633,-1.32887 -0.54718,-1.64155 -0.46901,-0.31267 -1.2507,-0.46901 -2.42324,-0.46901 -1.17253,0 -1.95422,0.15634 -2.34506,0.46901 -0.39085,0.31268 -0.62536,0.85986 -0.62536,1.64155 l 0,5.47183 c 0,0.70352 0.23451,1.2507 0.54719,1.56337 0.46901,0.31268 1.2507,0.46902 2.42323,0.46902 1.25071,0 2.0324,-0.15634 2.42324,-0.46902 0.39085,-0.31267 0.54718,-0.85985 0.54718,-1.56337 z"
         style="fill:#000000;fill-opacity:1;fill-rule:evenodd;stroke:none"
         inkscape:connector-curvature="0" />
      <path
         id="path3070"
         d="m 832.26474,434.15031 0,1.87606 c 0,0.70352 -0.15634,1.32887 -0.46901,1.79788 -0.23451,0.54719 -0.54718,0.93803 -0.93803,1.25071 -0.46901,0.2345 -0.93803,0.46901 -1.64155,0.62535 -0.62535,0.15634 -1.2507,0.31267 -1.87605,0.31267 -0.62535,0.0782 -1.32887,0.0782 -2.11056,0.0782 -1.56338,0 -3.43944,-0.15634 -5.70634,-0.46901 l 0,-2.89225 c 2.73592,0.46901 4.69014,0.70352 5.78451,0.70352 0.85985,0 1.48521,-0.15634 1.95422,-0.31268 0.46901,-0.15634 0.70352,-0.46901 0.70352,-1.01619 l 0,-0.85986 c 0,-0.46902 -0.15634,-0.78169 -0.39084,-1.0162 -0.23451,-0.23451 -0.78169,-0.39084 -1.64155,-0.39084 l -1.87606,0 c -1.56338,0 -2.73591,-0.23451 -3.5176,-0.85986 -0.85986,-0.62535 -1.32887,-1.48521 -1.32887,-2.65775 l 0,-1.79788 c 0,-1.2507 0.62535,-2.18873 1.87605,-2.65775 1.25071,-0.54718 3.04859,-0.78169 5.31549,-0.78169 0.93803,0 2.65775,0.0782 5.15915,0.31268 l 0,2.73591 c -3.12676,-0.2345 -4.84647,-0.31267 -5.23732,-0.31267 -1.2507,0 -2.03239,0.0782 -2.34507,0.2345 -0.31267,0.15634 -0.46901,0.46902 -0.46901,0.93803 l 0,0.78169 c 0,0.23451 0.15634,0.46902 0.39084,0.62535 0.23451,0.23451 0.62536,0.31268 1.17254,0.31268 l 1.87605,0 c 3.51761,0 5.31549,1.17253 5.31549,3.43943 z"
         style="fill:#000000;fill-opacity:1;fill-rule:evenodd;stroke:none"
         inkscape:connector-curvature="0" />
      <path
         id="path3072"
         d="m 847.82036,434.15031 0,1.87606 c 0,0.70352 -0.0782,1.32887 -0.39084,1.79788 -0.23451,0.54719 -0.54719,0.93803 -1.0162,1.25071 -0.39084,0.2345 -0.93803,0.46901 -1.56338,0.62535 -0.62535,0.15634 -1.2507,0.31267 -1.87605,0.31267 -0.62535,0.0782 -1.32888,0.0782 -2.11056,0.0782 -1.56338,0 -3.51761,-0.15634 -5.70634,-0.46901 l 0,-2.89225 c 2.73592,0.46901 4.69014,0.70352 5.70634,0.70352 0.85985,0 1.56337,-0.15634 2.03239,-0.31268 0.46901,-0.15634 0.70352,-0.46901 0.70352,-1.01619 l 0,-0.85986 c 0,-0.46902 -0.15634,-0.78169 -0.39085,-1.0162 -0.2345,-0.23451 -0.85985,-0.39084 -1.71971,-0.39084 l -1.79789,0 c -1.56338,0 -2.73591,-0.23451 -3.59577,-0.85986 -0.78169,-0.62535 -1.2507,-1.48521 -1.2507,-2.65775 l 0,-1.79788 c 0,-1.2507 0.62535,-2.18873 1.87605,-2.65775 1.2507,-0.54718 3.04859,-0.78169 5.31549,-0.78169 0.93803,0 2.65774,0.0782 5.08098,0.31268 l 0,2.73591 c -3.04859,-0.2345 -4.84647,-0.31267 -5.23732,-0.31267 -1.17253,0 -1.95422,0.0782 -2.2669,0.2345 -0.31267,0.15634 -0.46901,0.46902 -0.46901,0.93803 l 0,0.78169 c 0,0.23451 0.15634,0.46902 0.39084,0.62535 0.23451,0.23451 0.62535,0.31268 1.09437,0.31268 l 1.95422,0 c 3.5176,0 5.23732,1.17253 5.23732,3.43943 z"
         style="fill:#000000;fill-opacity:1;fill-rule:evenodd;stroke:none"
         inkscape:connector-curvature="0" />
      <path
         id="path3074"
         d="m 865.79922,429.92919 0,4.7683 c 0,1.95423 -0.54718,3.36127 -1.71972,4.14296 -1.17253,0.85986 -3.12676,1.2507 -5.70633,1.2507 -2.73591,0 -4.69014,-0.39084 -5.70633,-1.2507 -1.09437,-0.93803 -1.56338,-2.2669 -1.56338,-4.14296 l 0,-15.71195 4.29929,0 0,7.81689 c 0.23451,-0.62535 0.78169,-1.09436 1.48521,-1.32887 0.70352,-0.23451 1.71972,-0.39085 3.20493,-0.39085 1.2507,0 2.18873,0.15634 2.97042,0.31268 0.78168,0.23451 1.40704,0.54718 1.79788,0.93803 0.39085,0.46901 0.62535,0.93803 0.78169,1.48521 0.15634,0.54718 0.15634,1.2507 0.15634,2.11056 z m -4.29929,5.31549 0,-5.31549 c 0,-0.93803 -0.15634,-1.56338 -0.54719,-1.79789 -0.31267,-0.2345 -1.17253,-0.31267 -2.57957,-0.31267 -1.2507,0 -2.03239,0.0782 -2.42324,0.46901 -0.31267,0.31268 -0.54718,0.85986 -0.54718,1.64155 l 0,5.31549 c 0,0.85986 0.23451,1.40704 0.54718,1.71971 0.39085,0.31268 1.17254,0.46902 2.50141,0.46902 1.2507,0 2.03239,-0.15634 2.42324,-0.46902 0.39084,-0.31267 0.62535,-0.85985 0.62535,-1.71971 z"
         style="fill:#000000;fill-opacity:1;fill-rule:evenodd;stroke:none"
         inkscape:connector-curvature="0" />
      <path
         id="path3076"
         d="m 882.13653,439.77848 -4.22113,0 0,-1.25071 c -0.31267,0.54719 -0.78168,0.93803 -1.40704,1.17254 -0.54718,0.31267 -1.64154,0.39084 -3.20492,0.39084 -1.95423,0 -3.2831,-0.31267 -3.90845,-0.85986 -0.62535,-0.62535 -0.93803,-1.87605 -0.93803,-3.75211 0,-1.71971 0.31268,-2.89225 0.93803,-3.5176 0.70352,-0.70352 1.87605,-1.01619 3.5176,-1.01619 l 4.92465,0 0,-1.0162 c 0,-0.85986 -0.23451,-1.40704 -0.62536,-1.71972 -0.39084,-0.31267 -1.2507,-0.39084 -2.57957,-0.39084 -1.2507,0 -2.89225,0.0782 -5.08098,0.31267 l 0,-2.73591 c 1.64155,-0.15634 3.5176,-0.31268 5.54999,-0.31268 2.65775,0 4.45563,0.31268 5.55,1.0162 1.01619,0.62535 1.48521,1.87606 1.48521,3.75211 l 0,9.92746 z m -4.29929,-3.67394 0,-2.81409 -2.97042,0 c -0.93803,0 -1.56338,0.15634 -1.79789,0.31268 -0.23451,0.23451 -0.39084,0.85986 -0.39084,1.79789 0,0.93802 0.15633,1.48521 0.39084,1.71971 0.23451,0.15634 0.85986,0.31268 1.87605,0.31268 0.54719,0 0.85986,-0.0782 1.09437,-0.0782 0.23451,0 0.54718,0 0.78169,-0.0782 0.31268,0 0.46901,-0.0782 0.62535,-0.15634 0.0782,-0.0782 0.15634,-0.2345 0.23451,-0.39084 0.0782,-0.15634 0.15634,-0.39085 0.15634,-0.62535 z"
         style="fill:#000000;fill-opacity:1;fill-rule:evenodd;stroke:none"
         inkscape:connector-curvature="0" />
      <path
         id="path3078"
         d="m 895.42525,428.67849 -1.48521,0 c -1.2507,0 -2.11056,0.2345 -2.73591,0.54718 -0.54719,0.39084 -0.85986,1.0162 -0.85986,1.95422 l 0,8.59859 -4.37746,0 0,-14.38309 4.14295,0 0,2.50141 c 0,-0.70352 0.39084,-1.32888 1.2507,-1.95423 0.78169,-0.54718 1.64155,-0.85986 2.50141,-0.85986 l 1.56338,0 0,3.59578 z"
         style="fill:#000000;fill-opacity:1;fill-rule:evenodd;stroke:none"
         inkscape:connector-curvature="0" />
      <path
         id="path3080"
         d="m 897.92665,436.57355 0,3.20493 3.43944,0 0,-3.20493 -3.43944,0 z"
         style="fill:#000000;fill-opacity:1;fill-rule:evenodd;stroke:none"
         inkscape:connector-curvature="0" />
      <path
         id="path3082"
         d="m 908.47946,422.97215 -2.65774,0 0,-2.81408 2.65774,0 0,2.81408 z m 0,16.80633 -2.65774,0 0,-14.38309 2.65774,0 0,14.38309 z"
         style="fill:#000000;fill-opacity:1;fill-rule:evenodd;stroke:none"
         inkscape:connector-curvature="0" />
      <path
         id="path3084"
         d="m 925.83297,430.24187 0,5.00281 c 0,0.85986 -0.0782,1.64155 -0.31268,2.2669 -0.23451,0.62535 -0.46901,1.09436 -0.85986,1.40704 -0.31267,0.39084 -0.78169,0.62535 -1.40704,0.78169 -0.62535,0.15634 -1.2507,0.31267 -1.79788,0.31267 -0.54719,0.0782 -1.32888,0.0782 -2.2669,0.0782 -1.17254,0 -2.11056,0 -2.73592,-0.0782 -0.70352,-0.0782 -1.32887,-0.31267 -2.03239,-0.62535 -0.62535,-0.31267 -1.17253,-0.78169 -1.40704,-1.48521 -0.31268,-0.62535 -0.46901,-1.56338 -0.46901,-2.65774 l 0,-5.00281 c 0,-0.93803 0.15633,-1.71972 0.39084,-2.42324 0.23451,-0.62535 0.46902,-1.17254 0.78169,-1.48521 0.39085,-0.39085 0.85986,-0.62535 1.48521,-0.85986 0.62535,-0.15634 1.17253,-0.23451 1.71972,-0.31268 0.54718,-0.0782 1.32887,-0.0782 2.2669,-0.0782 0.93802,0 1.71971,0 2.2669,0.0782 0.54718,0.0782 1.09436,0.15634 1.79788,0.31268 0.62535,0.23451 1.09437,0.46901 1.40704,0.85986 0.31268,0.31267 0.62535,0.85986 0.85986,1.48521 0.15634,0.70352 0.31268,1.48521 0.31268,2.42324 z m -2.73592,5.39365 0,-5.86267 c 0,-1.32887 -0.2345,-2.11056 -0.78169,-2.42324 -0.54718,-0.31267 -1.56337,-0.46901 -3.12675,-0.46901 -1.48521,0 -2.57958,0.15634 -3.04859,0.46901 -0.54718,0.31268 -0.85986,1.09437 -0.85986,2.42324 l 0,5.86267 c 0,0.62535 0.0782,1.17254 0.23451,1.48521 0.15633,0.39085 0.39084,0.70352 0.78169,0.85986 0.39084,0.15634 0.78169,0.23451 1.17253,0.31268 0.39084,0 0.93803,0.0782 1.71972,0.0782 0.78169,0 1.40704,-0.0782 1.79788,-0.0782 0.39085,-0.0782 0.78169,-0.15634 1.09437,-0.31268 0.39084,-0.15634 0.70352,-0.46901 0.78169,-0.85986 0.15634,-0.31267 0.2345,-0.85986 0.2345,-1.48521 z"
         style="fill:#000000;fill-opacity:1;fill-rule:evenodd;stroke:none"
         inkscape:connector-curvature="0" />
      <path
         id="path3086"
         d="m 813.66053,337.768 0,64.9584 64.80206,0 0,-64.9584 -64.80206,0 z"
         style="fill:#000000;fill-opacity:1;fill-rule:evenodd;stroke:none"
         inkscape:connector-curvature="0" />
      <path
         id="path3088"
         d="m 813.66053,351.60391 0,6.40985 15.24295,0 10.16196,10.16196 4.69014,-4.69013 -12.03802,-12.03802 -18.05703,0.15634 z"
         style="fill:#ffe100;fill-opacity:1;fill-rule:evenodd;stroke:none"
         inkscape:connector-curvature="0" />
      <path
         id="path3090"
         d="m 852.97951,372.70952 -4.69013,4.69014 11.569,11.64717 18.60421,0 0,-6.48802 -15.71196,0 -9.77112,-9.84929 z"
         style="fill:#ffe100;fill-opacity:1;fill-rule:evenodd;stroke:none"
         inkscape:connector-curvature="0" />
      <path
         id="path3092"
         d="m 860.32739,351.44757 -30.87673,31.11124 -15.79013,0 0,6.48802 18.52604,0 31.03307,-31.03307 15.24295,0 0,-6.56619 -18.1352,0 z"
         style="fill:#ffe100;fill-opacity:1;fill-rule:evenodd;stroke:none"
         inkscape:connector-curvature="0" />
      <path
         id="path3094"
         d="m 296.2603,388.18697 420.31441,1.32888"
         style="fill:none;stroke:#ffc000;stroke-width:3.59577131px;stroke-linecap:round;stroke-linejoin:round;stroke-opacity:1;stroke-dasharray:none"
         inkscape:connector-curvature="0" />
      <path
         id="path3096"
         d="m 298.21452,396.00387 -23.45068,-7.89507 23.45068,-7.73872 0,15.63379 z"
         style="fill:#ffc000;fill-opacity:1;fill-rule:evenodd;stroke:none"
         inkscape:connector-curvature="0" />
      <path
         id="path3098"
         d="m 714.69865,381.69895 23.37251,7.89506 -23.45068,7.73873 0.0782,-15.63379 z"
         style="fill:#ffc000;fill-opacity:1;fill-rule:evenodd;stroke:none"
         inkscape:connector-curvature="0" />
      <path
         id="path3100"
         d="m 361.76587,460.88409 0,-29.62603 108.02948,0 81.53021,-42.2894 -24.77956,42.2894 108.02948,0 0,79.0288 -272.80961,0 0,-49.40277 z"
         style="fill:#ffffff;fill-opacity:1;fill-rule:evenodd;stroke:none"
         inkscape:connector-curvature="0" />
      <path
         id="path3102"
         d="m 361.76587,460.88409 0,-29.62603 108.02948,0 81.53021,-42.2894 -24.77956,42.2894 108.02948,0 0,79.0288 -272.80961,0 0,-49.40277 z"
         style="fill:none;stroke:#000000;stroke-width:0.3908447px;stroke-linecap:round;stroke-linejoin:round;stroke-opacity:1;stroke-dasharray:none"
         inkscape:connector-curvature="0" />
      <text
         id="text3104"
         style="font-size:16.25914001px;font-style:normal;font-weight:normal;text-align:start;text-anchor:start;fill:#000000;font-family:Arial"
         y="455.25592"
         x="368.9574"
         xml:space="preserve">Chat runs over WAMP and </text>
      <text
         id="text3106"
         style="font-size:16.25914001px;font-style:normal;font-weight:normal;text-align:start;text-anchor:start;fill:#000000;font-family:Arial"
         y="475.26718"
         x="368.9574"
         xml:space="preserve">requires no backend </text>
      <text
         id="text3108"
         style="font-size:16.25914001px;font-style:normal;font-weight:normal;text-align:start;text-anchor:start;fill:#000000;font-family:Arial"
         y="475.26718"
         x="524.04462"
         xml:space="preserve">(</text>
      <text
         id="text3110"
         style="font-size:16.25914001px;font-style:normal;font-weight:normal;text-align:start;text-anchor:start;fill:#000000;font-family:Arial"
         y="475.26718"
         x="530.2981"
         xml:space="preserve">other than a </text>
      <text
         id="text3112"
         style="font-size:16.25914001px;font-style:normal;font-weight:normal;text-align:start;text-anchor:start;fill:#000000;font-family:Arial"
         y="495.27844"
         x="368.9574"
         xml:space="preserve">WAMP Router like Crossbar</text>
      <text
         id="text3114"
         style="font-size:16.25914001px;font-style:normal;font-weight:normal;text-align:start;text-anchor:start;fill:#000000;font-family:Arial"
         y="495.27844"
         x="576.57416"
         xml:space="preserve">.</text>
      <text
         id="text3116"
         style="font-size:16.25914001px;font-style:normal;font-weight:normal;text-align:start;text-anchor:start;fill:#000000;font-family:Arial"
         y="495.27844"
         x="581.57697"
         xml:space="preserve">io</text>
      <text
         id="text3118"
         style="font-size:16.25914001px;font-style:normal;font-weight:normal;text-align:start;text-anchor:start;fill:#000000;font-family:Arial"
         y="495.27844"
         x="594.08398"
         xml:space="preserve">)</text>
      <path
         id="path3120"
         d="m 451.19114,23.68519 0,-21.5746285 238.49345,0 0,57.6105115 -90.91048,0 139.06255,22.747162 -195.73504,-22.747162 -90.91048,0 0,-36.035883 z"
         style="fill:#ffffff;fill-opacity:1;fill-rule:evenodd;stroke:none"
         inkscape:connector-curvature="0" />
      <path
         id="path3122"
         d="m 451.19114,23.68519 0,-21.5746285 238.49345,0 0,57.6105115 -90.91048,0 139.06255,22.747162 -195.73504,-22.747162 -90.91048,0 0,-36.035883 z"
         style="fill:none;stroke:#000000;stroke-width:0.3908447px;stroke-linecap:round;stroke-linejoin:round;stroke-opacity:1;stroke-dasharray:none"
         inkscape:connector-curvature="0" />
      <text
         id="text3124"
         style="font-size:16.25914001px;font-style:normal;font-weight:normal;text-align:start;text-anchor:start;fill:#000000;font-family:Arial"
         y="26.264765"
         x="457.75732"
         xml:space="preserve">Existing Web app stays </text>
      <text
         id="text3126"
         style="font-size:16.25914001px;font-style:normal;font-weight:normal;text-align:start;text-anchor:start;fill:#000000;font-family:Arial"
         y="46.276016"
         x="457.75732"
         xml:space="preserve">unmodified</text>
      <path
         id="path3128"
         d="m 77.778099,252.01667 8.754921,0 c 0.312676,0 0.625352,0.31268 0.625352,0.62536 0,0.31267 -0.312676,0.62535 -0.625352,0.62535 l -8.754921,0 c -0.390845,0 -0.625352,-0.31268 -0.625352,-0.62535 0,-0.31268 0.234507,-0.62536 0.625352,-0.62536 z m 15.008437,0 8.754924,0 c 0.31267,0 0.62535,0.31268 0.62535,0.62536 0,0.31267 -0.31268,0.62535 -0.62535,0.62535 l -8.754924,0 c -0.390845,0 -0.625352,-0.31268 -0.625352,-0.62535 0,-0.31268 0.234507,-0.62536 0.625352,-0.62536 z m 15.008434,0 8.75492,0 c 0.31268,0 0.62536,0.31268 0.62536,0.62536 0,0.31267 -0.31268,0.62535 -0.62536,0.62535 l -8.75492,0 c -0.39084,0 -0.62535,-0.31268 -0.62535,-0.62535 0,-0.31268 0.23451,-0.62536 0.62535,-0.62536 z m 15.00844,0 8.75492,0 c 0.31268,0 0.62535,0.31268 0.62535,0.62536 0,0.31267 -0.31267,0.62535 -0.62535,0.62535 l -8.75492,0 c -0.39084,0 -0.62535,-0.31268 -0.62535,-0.62535 0,-0.31268 0.23451,-0.62536 0.62535,-0.62536 z m 15.00844,0 8.75492,0 c 0.31267,0 0.62535,0.31268 0.62535,0.62536 0,0.31267 -0.31268,0.62535 -0.62535,0.62535 l -8.75492,0 c -0.39085,0 -0.62535,-0.31268 -0.62535,-0.62535 0,-0.31268 0.2345,-0.62536 0.62535,-0.62536 z m 15.00843,0 8.75493,0 c 0.31267,0 0.62535,0.31268 0.62535,0.62536 0,0.31267 -0.31268,0.62535 -0.62535,0.62535 l -8.75493,0 c -0.39084,0 -0.62535,-0.31268 -0.62535,-0.62535 0,-0.31268 0.23451,-0.62536 0.62535,-0.62536 z m 15.00844,0 8.75492,0 c 0.31268,0 0.62535,0.31268 0.62535,0.62536 0,0.31267 -0.31267,0.62535 -0.62535,0.62535 l -8.75492,0 c -0.39084,0 -0.62535,-0.31268 -0.62535,-0.62535 0,-0.31268 0.23451,-0.62536 0.62535,-0.62536 z m 15.00844,0 8.75492,0 c 0.31268,0 0.62535,0.31268 0.62535,0.62536 0,0.31267 -0.31267,0.62535 -0.62535,0.62535 l -8.75492,0 c -0.39085,0 -0.62535,-0.31268 -0.62535,-0.62535 0,-0.31268 0.2345,-0.62536 0.62535,-0.62536 z m 15.00844,0 8.75492,0 c 0.31267,0 0.62535,0.31268 0.62535,0.62536 0,0.31267 -0.31268,0.62535 -0.62535,0.62535 l -8.75492,0 c -0.39085,0 -0.62536,-0.31268 -0.62536,-0.62535 0,-0.31268 0.23451,-0.62536 0.62536,-0.62536 z m 15.00843,0 8.75492,0 c 0.31268,0 0.62536,0.31268 0.62536,0.62536 0,0.31267 -0.31268,0.62535 -0.62536,0.62535 l -8.75492,0 c -0.39084,0 -0.62535,-0.31268 -0.62535,-0.62535 0,-0.31268 0.23451,-0.62536 0.62535,-0.62536 z m 15.00844,0 8.75492,0 c 0.31268,0 0.62535,0.31268 0.62535,0.62536 0,0.31267 -0.31267,0.62535 -0.62535,0.62535 l -8.75492,0 c -0.39084,0 -0.62535,-0.31268 -0.62535,-0.62535 0,-0.31268 0.23451,-0.62536 0.62535,-0.62536 z m 15.00844,0 8.75492,0 c 0.31267,0 0.62535,0.31268 0.62535,0.62536 0,0.31267 -0.31268,0.62535 -0.62535,0.62535 l -8.75492,0 c -0.39085,0 -0.62535,-0.31268 -0.62535,-0.62535 0,-0.31268 0.2345,-0.62536 0.62535,-0.62536 z m 15.00843,0 8.75493,0 c 0.31267,0 0.62535,0.31268 0.62535,0.62536 0,0.31267 -0.31268,0.62535 -0.62535,0.62535 l -8.75493,0 c -0.39084,0 -0.62535,-0.31268 -0.62535,-0.62535 0,-0.31268 0.23451,-0.62536 0.62535,-0.62536 z m 15.00844,0 8.75492,0 c 0.31268,0 0.62536,0.31268 0.62536,0.62536 0,0.31267 -0.31268,0.62535 -0.62536,0.62535 l -8.75492,0 c -0.39084,0 -0.62535,-0.31268 -0.62535,-0.62535 0,-0.31268 0.23451,-0.62536 0.62535,-0.62536 z m 15.00844,0 8.75492,0 c 0.31268,0 0.62535,0.31268 0.62535,0.62536 0,0.31267 -0.31267,0.62535 -0.62535,0.62535 l -8.75492,0 c -0.39085,0 -0.62535,-0.31268 -0.62535,-0.62535 0,-0.31268 0.2345,-0.62536 0.62535,-0.62536 z m 15.00844,0 8.75492,0 c 0.31267,0 0.62535,0.31268 0.62535,0.62536 0,0.31267 -0.31268,0.62535 -0.62535,0.62535 l -8.75492,0 c -0.39085,0 -0.62536,-0.31268 -0.62536,-0.62535 0,-0.31268 0.23451,-0.62536 0.62536,-0.62536 z m 15.00843,0 8.75492,0 c 0.31268,0 0.62536,0.31268 0.62536,0.62536 0,0.31267 -0.31268,0.62535 -0.62536,0.62535 l -8.75492,0 c -0.39084,0 -0.62535,-0.31268 -0.62535,-0.62535 0,-0.31268 0.23451,-0.62536 0.62535,-0.62536 z m 15.00844,0 8.75492,0 c 0.31268,0 0.62535,0.31268 0.62535,0.62536 0,0.31267 -0.31267,0.62535 -0.62535,0.62535 l -8.75492,0 c -0.39084,0 -0.62535,-0.31268 -0.62535,-0.62535 0,-0.31268 0.23451,-0.62536 0.62535,-0.62536 z m 15.00844,0 8.75492,0 c 0.31268,0 0.62535,0.31268 0.62535,0.62536 0,0.31267 -0.31267,0.62535 -0.62535,0.62535 l -8.75492,0 c -0.39085,0 -0.62535,-0.31268 -0.62535,-0.62535 0,-0.31268 0.2345,-0.62536 0.62535,-0.62536 z m 15.00843,0 8.75493,0 c 0.31267,0 0.62535,0.31268 0.62535,0.62536 0,0.31267 -0.31268,0.62535 -0.62535,0.62535 l -8.75493,0 c -0.39084,0 -0.62535,-0.31268 -0.62535,-0.62535 0,-0.31268 0.23451,-0.62536 0.62535,-0.62536 z m 15.00844,0 8.75492,0 c 0.31268,0 0.62536,0.31268 0.62536,0.62536 0,0.31267 -0.31268,0.62535 -0.62536,0.62535 l -8.75492,0 c -0.39084,0 -0.62535,-0.31268 -0.62535,-0.62535 0,-0.31268 0.23451,-0.62536 0.62535,-0.62536 z m 15.00844,0 8.75492,0 c 0.31268,0 0.62535,0.31268 0.62535,0.62536 0,0.31267 -0.31267,0.62535 -0.62535,0.62535 l -8.75492,0 c -0.39085,0 -0.62535,-0.31268 -0.62535,-0.62535 0,-0.31268 0.2345,-0.62536 0.62535,-0.62536 z m 15.00844,0 8.75492,0 c 0.31267,0 0.62535,0.31268 0.62535,0.62536 0,0.31267 -0.31268,0.62535 -0.62535,0.62535 l -8.75492,0 c -0.39085,0 -0.62536,-0.31268 -0.62536,-0.62535 0,-0.31268 0.23451,-0.62536 0.62536,-0.62536 z m 15.00843,0 8.75493,0 c 0.31267,0 0.62535,0.31268 0.62535,0.62536 0,0.31267 -0.31268,0.62535 -0.62535,0.62535 l -8.75493,0 c -0.39084,0 -0.62535,-0.31268 -0.62535,-0.62535 0,-0.31268 0.23451,-0.62536 0.62535,-0.62536 z m 15.00844,0 8.75492,0 c 0.31268,0 0.62535,0.31268 0.62535,0.62536 0,0.31267 -0.31267,0.62535 -0.62535,0.62535 l -8.75492,0 c -0.39084,0 -0.62535,-0.31268 -0.62535,-0.62535 0,-0.31268 0.23451,-0.62536 0.62535,-0.62536 z m 15.00844,0 8.75492,0 c 0.31268,0 0.62535,0.31268 0.62535,0.62536 0,0.31267 -0.31267,0.62535 -0.62535,0.62535 l -8.75492,0 c -0.39085,0 -0.62535,-0.31268 -0.62535,-0.62535 0,-0.31268 0.2345,-0.62536 0.62535,-0.62536 z m 15.00843,0 8.75493,0 c 0.31267,0 0.62535,0.31268 0.62535,0.62536 0,0.31267 -0.31268,0.62535 -0.62535,0.62535 l -8.75493,0 c -0.39084,0 -0.62535,-0.31268 -0.62535,-0.62535 0,-0.31268 0.23451,-0.62536 0.62535,-0.62536 z m 15.00844,0 8.75492,0 c 0.31268,0 0.62536,0.31268 0.62536,0.62536 0,0.31267 -0.31268,0.62535 -0.62536,0.62535 l -8.75492,0 c -0.39084,0 -0.62535,-0.31268 -0.62535,-0.62535 0,-0.31268 0.23451,-0.62536 0.62535,-0.62536 z m 15.00844,0 8.75492,0 c 0.31268,0 0.62535,0.31268 0.62535,0.62536 0,0.31267 -0.31267,0.62535 -0.62535,0.62535 l -8.75492,0 c -0.39085,0 -0.62535,-0.31268 -0.62535,-0.62535 0,-0.31268 0.2345,-0.62536 0.62535,-0.62536 z m 15.00844,0 8.75492,0 c 0.31267,0 0.62535,0.31268 0.62535,0.62536 0,0.31267 -0.31268,0.62535 -0.62535,0.62535 l -8.75492,0 c -0.39085,0 -0.62536,-0.31268 -0.62536,-0.62535 0,-0.31268 0.23451,-0.62536 0.62536,-0.62536 z m 15.00843,0 8.75493,0 c 0.31267,0 0.62535,0.31268 0.62535,0.62536 0,0.31267 -0.31268,0.62535 -0.62535,0.62535 l -8.75493,0 c -0.39084,0 -0.62535,-0.31268 -0.62535,-0.62535 0,-0.31268 0.23451,-0.62536 0.62535,-0.62536 z m 15.00844,0 8.75492,0 c 0.31268,0 0.62535,0.31268 0.62535,0.62536 0,0.31267 -0.31267,0.62535 -0.62535,0.62535 l -8.75492,0 c -0.39084,0 -0.62535,-0.31268 -0.62535,-0.62535 0,-0.31268 0.23451,-0.62536 0.62535,-0.62536 z m 15.00844,0 8.75492,0 c 0.31268,0 0.62535,0.31268 0.62535,0.62536 0,0.31267 -0.31267,0.62535 -0.62535,0.62535 l -8.75492,0 c -0.39085,0 -0.62535,-0.31268 -0.62535,-0.62535 0,-0.31268 0.2345,-0.62536 0.62535,-0.62536 z m 15.00843,0 8.75493,0 c 0.31267,0 0.62535,0.31268 0.62535,0.62536 0,0.31267 -0.31268,0.62535 -0.62535,0.62535 l -8.75493,0 c -0.39084,0 -0.62535,-0.31268 -0.62535,-0.62535 0,-0.31268 0.23451,-0.62536 0.62535,-0.62536 z m 15.00844,0 8.75492,0 c 0.31268,0 0.62536,0.31268 0.62536,0.62536 0,0.31267 -0.31268,0.62535 -0.62536,0.62535 l -8.75492,0 c -0.39084,0 -0.62535,-0.31268 -0.62535,-0.62535 0,-0.31268 0.23451,-0.62536 0.62535,-0.62536 z m 15.00844,0 8.75492,0 c 0.31268,0 0.62535,0.31268 0.62535,0.62536 0,0.31267 -0.31267,0.62535 -0.62535,0.62535 l -8.75492,0 c -0.39085,0 -0.62535,-0.31268 -0.62535,-0.62535 0,-0.31268 0.2345,-0.62536 0.62535,-0.62536 z m 15.00844,0 8.75492,0 c 0.31267,0 0.62535,0.31268 0.62535,0.62536 0,0.31267 -0.31268,0.62535 -0.62535,0.62535 l -8.75492,0 c -0.39085,0 -0.62536,-0.31268 -0.62536,-0.62535 0,-0.31268 0.23451,-0.62536 0.62536,-0.62536 z m 15.00843,0 8.75493,0 c 0.31267,0 0.62535,0.31268 0.62535,0.62536 0,0.31267 -0.31268,0.62535 -0.62535,0.62535 l -8.75493,0 c -0.39084,0 -0.62535,-0.31268 -0.62535,-0.62535 0,-0.31268 0.23451,-0.62536 0.62535,-0.62536 z m 15.00844,0 8.75492,0 c 0.31268,0 0.62535,0.31268 0.62535,0.62536 0,0.31267 -0.31267,0.62535 -0.62535,0.62535 l -8.75492,0 c -0.39084,0 -0.62535,-0.31268 -0.62535,-0.62535 0,-0.31268 0.23451,-0.62536 0.62535,-0.62536 z m 15.00844,0 8.75492,0 c 0.31268,0 0.62535,0.31268 0.62535,0.62536 0,0.31267 -0.31267,0.62535 -0.62535,0.62535 l -8.75492,0 c -0.39085,0 -0.62535,-0.31268 -0.62535,-0.62535 0,-0.31268 0.2345,-0.62536 0.62535,-0.62536 z m 15.00844,0 8.75492,0 c 0.31267,0 0.62535,0.31268 0.62535,0.62536 0,0.31267 -0.31268,0.62535 -0.62535,0.62535 l -8.75492,0 c -0.39085,0 -0.62536,-0.31268 -0.62536,-0.62535 0,-0.31268 0.23451,-0.62536 0.62536,-0.62536 z m 15.00843,0 8.75492,0 c 0.31268,0 0.62536,0.31268 0.62536,0.62536 0,0.31267 -0.31268,0.62535 -0.62536,0.62535 l -8.75492,0 c -0.39084,0 -0.62535,-0.31268 -0.62535,-0.62535 0,-0.31268 0.23451,-0.62536 0.62535,-0.62536 z m 15.00844,0 8.75492,0 c 0.31268,0 0.62535,0.31268 0.62535,0.62536 0,0.31267 -0.31267,0.62535 -0.62535,0.62535 l -8.75492,0 c -0.39085,0 -0.62535,-0.31268 -0.62535,-0.62535 0,-0.31268 0.2345,-0.62536 0.62535,-0.62536 z m 15.00844,0 8.75492,0 c 0.31267,0 0.62535,0.31268 0.62535,0.62536 0,0.31267 -0.31268,0.62535 -0.62535,0.62535 l -8.75492,0 c -0.39085,0 -0.62536,-0.31268 -0.62536,-0.62535 0,-0.31268 0.23451,-0.62536 0.62536,-0.62536 z m 15.00843,0 8.75493,0 c 0.31267,0 0.62535,0.31268 0.62535,0.62536 0,0.31267 -0.31268,0.62535 -0.62535,0.62535 l -8.75493,0 c -0.39084,0 -0.62535,-0.31268 -0.62535,-0.62535 0,-0.31268 0.23451,-0.62536 0.62535,-0.62536 z m 15.00844,0 8.75492,0 c 0.31268,0 0.62535,0.31268 0.62535,0.62536 0,0.31267 -0.31267,0.62535 -0.62535,0.62535 l -8.75492,0 c -0.39084,0 -0.62535,-0.31268 -0.62535,-0.62535 0,-0.31268 0.23451,-0.62536 0.62535,-0.62536 z m 15.00844,0 8.75492,0 c 0.31268,0 0.62535,0.31268 0.62535,0.62536 0,0.31267 -0.31267,0.62535 -0.62535,0.62535 l -8.75492,0 c -0.39085,0 -0.62535,-0.31268 -0.62535,-0.62535 0,-0.31268 0.2345,-0.62536 0.62535,-0.62536 z m 15.00844,0 8.75492,0 c 0.31267,0 0.62535,0.31268 0.62535,0.62536 0,0.31267 -0.31268,0.62535 -0.62535,0.62535 l -8.75492,0 c -0.39085,0 -0.62536,-0.31268 -0.62536,-0.62535 0,-0.31268 0.23451,-0.62536 0.62536,-0.62536 z m 15.00843,0 8.75492,0 c 0.31268,0 0.62536,0.31268 0.62536,0.62536 0,0.31267 -0.31268,0.62535 -0.62536,0.62535 l -8.75492,0 c -0.39084,0 -0.62535,-0.31268 -0.62535,-0.62535 0,-0.31268 0.23451,-0.62536 0.62535,-0.62536 z m 15.00844,0 8.75492,0 c 0.31268,0 0.62535,0.31268 0.62535,0.62536 0,0.31267 -0.31267,0.62535 -0.62535,0.62535 l -8.75492,0 c -0.39085,0 -0.62535,-0.31268 -0.62535,-0.62535 0,-0.31268 0.2345,-0.62536 0.62535,-0.62536 z m 15.00844,0 8.75492,0 c 0.31267,0 0.62535,0.31268 0.62535,0.62536 0,0.31267 -0.31268,0.62535 -0.62535,0.62535 l -8.75492,0 c -0.39085,0 -0.62535,-0.31268 -0.62535,-0.62535 0,-0.31268 0.2345,-0.62536 0.62535,-0.62536 z m 15.00843,0 8.75493,0 c 0.31267,0 0.62535,0.31268 0.62535,0.62536 0,0.31267 -0.31268,0.62535 -0.62535,0.62535 l -8.75493,0 c -0.39084,0 -0.62535,-0.31268 -0.62535,-0.62535 0,-0.31268 0.23451,-0.62536 0.62535,-0.62536 z m 15.00844,0 8.75492,0 c 0.31268,0 0.62535,0.31268 0.62535,0.62536 0,0.31267 -0.31267,0.62535 -0.62535,0.62535 l -8.75492,0 c -0.39084,0 -0.62535,-0.31268 -0.62535,-0.62535 0,-0.31268 0.23451,-0.62536 0.62535,-0.62536 z m 15.00844,0 8.75492,0 c 0.31268,0 0.62535,0.31268 0.62535,0.62536 0,0.31267 -0.31267,0.62535 -0.62535,0.62535 l -8.75492,0 c -0.39085,0 -0.62535,-0.31268 -0.62535,-0.62535 0,-0.31268 0.2345,-0.62536 0.62535,-0.62536 z m 15.00844,0 8.75492,0 c 0.31267,0 0.62535,0.31268 0.62535,0.62536 0,0.31267 -0.31268,0.62535 -0.62535,0.62535 l -8.75492,0 c -0.39085,0 -0.62536,-0.31268 -0.62536,-0.62535 0,-0.31268 0.23451,-0.62536 0.62536,-0.62536 z"
         style="fill:#000000;fill-opacity:1;fill-rule:nonzero;stroke:#000000;stroke-width:1.2507031px;stroke-linecap:butt;stroke-linejoin:bevel;stroke-opacity:1;stroke-dasharray:none"
         inkscape:connector-curvature="0" />
      <path
         id="path3130"
         d="m 251.15682,420.54892 c 13.05421,0 23.60702,-10.55281 23.60702,-23.60702 l 0,0 0,-17.66619 c 0,-13.05421 -10.55281,-23.68519 -23.60702,-23.68519 l 0,0 -47.13588,0 c -13.05421,0 -23.68519,10.63098 -23.68519,23.68519 l 0,0 0,17.66619 c 0,13.05421 10.63098,23.60702 23.68519,23.60702 l 0,0 47.13588,0 z"
         style="fill:#f2f2f2;fill-opacity:1;fill-rule:evenodd;stroke:none"
         inkscape:connector-curvature="0" />
      <path
         id="path3132"
         d="m 251.15682,420.54892 c 13.05421,0 23.60702,-10.55281 23.60702,-23.60702 l 0,0 0,-17.66619 c 0,-13.05421 -10.55281,-23.68519 -23.60702,-23.68519 l 0,0 -47.13588,0 c -13.05421,0 -23.68519,10.63098 -23.68519,23.68519 l 0,0 0,17.66619 c 0,13.05421 10.63098,23.60702 23.68519,23.60702 l 0,0 47.13588,0 z"
         style="fill:none;stroke:#000000;stroke-width:2.0323925px;stroke-linecap:round;stroke-linejoin:round;stroke-opacity:1;stroke-dasharray:none"
         inkscape:connector-curvature="0" />
      <text
         id="text3134"
         style="font-size:23.76335907px;font-style:normal;font-weight:normal;text-align:start;text-anchor:start;fill:#000000;font-family:Arial"
         y="395.22217"
         x="202.61391"
         xml:space="preserve">Chat</text>
      <path
         id="path3136"
         d="m 2.1105615,520.05798 0,-21.57463 90.9104815,0 134.528747,-77.93443 -77.77809,77.93443 90.83231,0 0,57.61051 -238.4934485,0 0,-36.03588 z"
         style="fill:#ffffff;fill-opacity:1;fill-rule:evenodd;stroke:none"
         inkscape:connector-curvature="0" />
      <path
         id="path3138"
         d="m 2.1105615,520.05798 0,-21.57463 90.9104815,0 134.528747,-77.93443 -77.77809,77.93443 90.83231,0 0,57.61051 -238.4934485,0 0,-36.03588 z"
         style="fill:none;stroke:#000000;stroke-width:0.3908447px;stroke-linecap:round;stroke-linejoin:round;stroke-opacity:1;stroke-dasharray:none"
         inkscape:connector-curvature="0" />
      <text
         id="text3140"
         style="font-size:16.25914001px;font-style:normal;font-weight:normal;text-align:start;text-anchor:start;fill:#000000;font-family:Arial"
         y="522.79388"
         x="8.7549219"
         xml:space="preserve">Within the frontend</text>
      <text
         id="text3142"
         style="font-size:16.25914001px;font-style:normal;font-weight:normal;text-align:start;text-anchor:start;fill:#000000;font-family:Arial"
         y="522.79388"
         x="148.83366"
         xml:space="preserve">, </text>
      <text
         id="text3144"
         style="font-size:16.25914001px;font-style:normal;font-weight:normal;text-align:start;text-anchor:start;fill:#000000;font-family:Arial"
         y="522.79388"
         x="157.58859"
         xml:space="preserve">only the </text>
      <text
         id="text3146"
         style="font-size:16.25914001px;font-style:normal;font-weight:normal;text-align:start;text-anchor:start;fill:#000000;font-family:Arial"
         y="542.80511"
         x="8.7549219"
         xml:space="preserve">„chat“ code is </text>
      <text
         id="text3148"
         style="font-size:16.25914001px;font-style:normal;font-weight:bold;text-align:start;text-anchor:start;fill:#000000;font-family:Arial"
         y="542.80511"
         x="113.81398"
         xml:space="preserve">added</text>
    </g>
  </g>
</svg>
