<?xml version="1.0" encoding="UTF-8" standalone="no"?>
<!-- Created with Inkscape (http://www.inkscape.org/) -->

<svg
   xmlns:dc="http://purl.org/dc/elements/1.1/"
   xmlns:cc="http://creativecommons.org/ns#"
   xmlns:rdf="http://www.w3.org/1999/02/22-rdf-syntax-ns#"
   xmlns:svg="http://www.w3.org/2000/svg"
   xmlns="http://www.w3.org/2000/svg"
   xmlns:sodipodi="http://sodipodi.sourceforge.net/DTD/sodipodi-0.dtd"
   xmlns:inkscape="http://www.inkscape.org/namespaces/inkscape"
   width="879.84375"
   height="492.5"
   id="svg2"
   version="1.1"
   inkscape:version="0.48.4 r9939"
   sodipodi:docname="crossbar_deployment_01.svg">
  <defs
     id="defs4" />
  <sodipodi:namedview
     id="base"
     pagecolor="#ffffff"
     bordercolor="#666666"
     borderopacity="1.0"
     inkscape:pageopacity="0.0"
     inkscape:pageshadow="2"
     inkscape:zoom="0.98994949"
     inkscape:cx="377.91644"
     inkscape:cy="229.57097"
     inkscape:document-units="px"
     inkscape:current-layer="layer1"
     showgrid="false"
     fit-margin-top="10"
     fit-margin-bottom="10"
     fit-margin-left="10"
     fit-margin-right="10"
     inkscape:window-width="1440"
     inkscape:window-height="838"
     inkscape:window-x="-8"
     inkscape:window-y="-8"
     inkscape:window-maximized="1" />
  <metadata
     id="metadata7">
    <rdf:RDF>
      <cc:Work
         rdf:about="">
        <dc:format>image/svg+xml</dc:format>
        <dc:type
           rdf:resource="http://purl.org/dc/dcmitype/StillImage" />
        <dc:title />
      </cc:Work>
    </rdf:RDF>
  </metadata>
  <g
     inkscape:label="Ebene 1"
     inkscape:groupmode="layer"
     id="layer1"
     transform="translate(706.01341,-17.408305)">
    <g
       id="g3152"
       transform="translate(-697.88841,25.533305)">
      <path
         id="path3154"
         d="m 838.125,474.375 c 13.04688,0 23.59375,-10.625 23.59375,-23.67188 l 0,0 0,-283.4375 c 0,-13.04687 -10.54687,-23.59374 -23.59375,-23.59374 l 0,0 -812.578125,0 C 12.5,143.67188 1.875,154.21875 1.875,167.26562 l 0,283.4375 C 1.875,463.75 12.5,474.375 25.546875,474.375 l 0,0 812.578125,0 z"
         style="fill:#d9d9d9;fill-opacity:1;fill-rule:evenodd;stroke:none"
         inkscape:connector-curvature="0" />
      <path
         id="path3156"
         d="m 805.07812,403.51562 c 13.04688,0 23.59376,-10.625 23.59376,-23.67187 l 0,0 0,0 c 0,-13.04687 -10.54688,-23.59375 -23.59376,-23.59375 l -118.125,0 c -13.04687,0 -23.59374,10.54688 -23.59374,23.59375 l 0,0 c 0,13.04687 10.54687,23.67187 23.59374,23.67187 l 0,0 118.125,0 z"
         style="fill:#8c8c8c;fill-opacity:1;fill-rule:evenodd;stroke:none"
         inkscape:connector-curvature="0" />
      <text
         id="text3158"
         style="font-size:15px;font-style:normal;font-weight:normal;text-align:start;text-anchor:start;fill:#ffffff;font-family:Arial"
         y="383.75"
         x="678.75"
         xml:space="preserve">Key </text>
      <text
         id="text3160"
         style="font-size:15px;font-style:normal;font-weight:normal;text-align:start;text-anchor:start;fill:#ffffff;font-family:Arial"
         y="383.75"
         x="708.75"
         xml:space="preserve">&amp; </text>
      <text
         id="text3162"
         style="font-size:15px;font-style:normal;font-weight:normal;text-align:start;text-anchor:start;fill:#ffffff;font-family:Arial"
         y="383.75"
         x="723.75"
         xml:space="preserve">Configuration</text>
      <path
         id="path3164"
         d="m 660.9375,190.85938 0,141.79687 167.73438,0 0,-141.79687 -167.73438,0 z"
         style="fill:#404040;fill-opacity:1;fill-rule:evenodd;stroke:none"
         inkscape:connector-curvature="0" />
      <text
         id="text3166"
         style="font-size:20px;font-style:normal;font-weight:normal;text-align:start;text-anchor:start;fill:#ffc000;font-family:Arial"
         y="256.25"
         x="721.25"
         xml:space="preserve">Node</text>
      <text
         id="text3168"
         style="font-size:20px;font-style:normal;font-weight:normal;text-align:start;text-anchor:start;fill:#ffc000;font-family:Arial"
         y="280"
         x="701.25"
         xml:space="preserve">Controller</text>
      <path
         id="path3170"
         d="m 814.53125,96.40625 c 13.04687,0 23.59375,-10.546875 23.59375,-23.59375 l 0,0 0,-47.265625 C 838.125,12.5 827.57812,1.875 814.53125,1.875 l 0,0 -139.375,0 c -13.04687,0 -23.67187,10.625 -23.67187,23.671875 l 0,0 0,47.265625 c 0,13.046875 10.625,23.59375 23.67187,23.59375 l 0,0 139.375,0 z"
         style="fill:#ff6600;fill-opacity:1;fill-rule:evenodd;stroke:none"
         inkscape:connector-curvature="0" />
      <text
         id="text3172"
         style="font-size:20px;font-style:normal;font-weight:normal;text-align:start;text-anchor:start;fill:#ffffff;font-family:Arial"
         y="42.5"
         x="686.25"
         xml:space="preserve">Management</text>
      <text
         id="text3174"
         style="font-size:20px;font-style:normal;font-weight:normal;text-align:start;text-anchor:start;fill:#ffffff;font-family:Arial"
         y="67.5"
         x="711.25"
         xml:space="preserve">Service</text>
      <text
         id="text3176"
         style="font-size:23.75px;font-style:normal;font-weight:bold;text-align:start;text-anchor:start;fill:#404040;font-family:Arial"
         y="457.5"
         x="628.75"
         xml:space="preserve">Crossbar</text>
      <text
         id="text3178"
         style="font-size:23.75px;font-style:normal;font-weight:bold;text-align:start;text-anchor:start;fill:#404040;font-family:Arial"
         y="457.5"
         x="731.25"
         xml:space="preserve">.</text>
      <text
         id="text3180"
         style="font-size:23.75px;font-style:normal;font-weight:bold;text-align:start;text-anchor:start;fill:#404040;font-family:Arial"
         y="457.5"
         x="737.5"
         xml:space="preserve">io </text>
      <text
         id="text3182"
         style="font-size:23.75px;font-style:normal;font-weight:normal;text-align:start;text-anchor:start;fill:#404040;font-family:Arial"
         y="457.5"
         x="765"
         xml:space="preserve">Node</text>
      <path
         id="path3184"
         d="M 744.84375,96.40625 731.875,109.375 l 8.51562,0 0,81.48438 8.82813,0 0,-81.48438 8.59375,0 -12.96875,-12.96875 z"
         style="fill:#ff6600;fill-opacity:1;fill-rule:evenodd;stroke:none"
         inkscape:connector-curvature="0" />
      <path
         id="path3186"
         d="M 744.84375,96.40625 731.875,109.375 l 8.51562,0 0,81.48438 8.82813,0 0,-81.48438 8.59375,0 -12.96875,-12.96875 z"
         style="fill:none;stroke:#ff6600;stroke-width:0.390625px;stroke-linecap:round;stroke-linejoin:round;stroke-opacity:1;stroke-dasharray:none"
         inkscape:connector-curvature="0" />
      <path
         id="path3188"
         d="m 332.65625,252.89062 0,-40.78124 219.6875,0 0,40.78124 108.59375,8.82813 -108.59375,18.35937 0,40.70313 -219.6875,0 0,-67.89063 z"
         style="fill:#ffffff;fill-opacity:1;fill-rule:evenodd;stroke:none"
         inkscape:connector-curvature="0" />
      <path
         id="path3190"
         d="m 332.65625,252.89062 0,-40.78124 219.6875,0 0,40.78124 108.59375,8.82813 -108.59375,18.35937 0,40.70313 -219.6875,0 0,-67.89063 z"
         style="fill:none;stroke:#000000;stroke-width:0.390625px;stroke-linecap:round;stroke-linejoin:round;stroke-opacity:1;stroke-dasharray:none"
         inkscape:connector-curvature="0" />
      <text
         id="text3192"
         style="font-size:16.25px;font-style:normal;font-weight:normal;text-align:start;text-anchor:start;fill:#000000;font-family:Arial"
         y="241.25"
         x="338.75"
         xml:space="preserve">A node runs from a local </text>
      <text
         id="text3194"
         style="font-size:16.25px;font-style:normal;font-weight:normal;text-align:start;text-anchor:start;fill:#000000;font-family:Arial"
         y="261.25"
         x="338.75"
         xml:space="preserve">configuration and optionally </text>
      <text
         id="text3196"
         style="font-size:16.25px;font-style:normal;font-weight:normal;text-align:start;text-anchor:start;fill:#000000;font-family:Arial"
         y="281.25"
         x="338.75"
         xml:space="preserve">connects to a remote </text>
      <text
         id="text3198"
         style="font-size:16.25px;font-style:normal;font-weight:normal;text-align:start;text-anchor:start;fill:#000000;font-family:Arial"
         y="301.25"
         x="338.75"
         xml:space="preserve">management service</text>
    </g>
  </g>
</svg>
