<?xml version="1.0" encoding="UTF-8" standalone="no"?>
<!-- Created with Inkscape (http://www.inkscape.org/) -->

<svg
   xmlns:dc="http://purl.org/dc/elements/1.1/"
   xmlns:cc="http://creativecommons.org/ns#"
   xmlns:rdf="http://www.w3.org/1999/02/22-rdf-syntax-ns#"
   xmlns:svg="http://www.w3.org/2000/svg"
   xmlns="http://www.w3.org/2000/svg"
   xmlns:sodipodi="http://sodipodi.sourceforge.net/DTD/sodipodi-0.dtd"
   xmlns:inkscape="http://www.inkscape.org/namespaces/inkscape"
   width="1062.3438"
   height="431.71875"
   id="svg2"
   version="1.1"
   inkscape:version="0.48.4 r9939"
   sodipodi:docname="crossbar_application_scenario_6.svg">
  <defs
     id="defs4" />
  <sodipodi:namedview
     id="base"
     pagecolor="#ffffff"
     bordercolor="#666666"
     borderopacity="1.0"
     inkscape:pageopacity="0.0"
     inkscape:pageshadow="2"
     inkscape:zoom="0.98994949"
     inkscape:cx="491.31848"
     inkscape:cy="152.9288"
     inkscape:document-units="px"
     inkscape:current-layer="layer1"
     showgrid="false"
     fit-margin-top="10"
     fit-margin-bottom="10"
     fit-margin-left="10"
     fit-margin-right="10"
     inkscape:window-width="1680"
     inkscape:window-height="988"
     inkscape:window-x="-8"
     inkscape:window-y="320"
     inkscape:window-maximized="1" />
  <metadata
     id="metadata7">
    <rdf:RDF>
      <cc:Work
         rdf:about="">
        <dc:format>image/svg+xml</dc:format>
        <dc:type
           rdf:resource="http://purl.org/dc/dcmitype/StillImage" />
        <dc:title />
      </cc:Work>
    </rdf:RDF>
  </metadata>
  <g
     inkscape:label="Ebene 1"
     inkscape:groupmode="layer"
     id="layer1"
     transform="translate(583.32139,-407.62858)">
    <g
       id="g3762"
       transform="translate(-575.29014,415.72233)">
      <path
         id="path3764"
         d="m 920.36114,172.44069 c 13.05421,0 23.68519,-10.55281 23.68519,-23.60702 l 0,0 0,-120.69285 c 0,-13.054214 -10.63098,-23.6070213 -23.68519,-23.6070213 l 0,0 -108.733,0 c -13.05421,0 -23.60702,10.5528073 -23.60702,23.6070213 l 0,0 0,120.69285 c 0,13.05421 10.55281,23.60702 23.60702,23.60702 l 108.733,0 z"
         style="fill:#f2f2f2;fill-opacity:1;fill-rule:evenodd;stroke:none"
         inkscape:connector-curvature="0" />
      <path
         id="path3766"
         d="m 920.36114,172.44069 c 13.05421,0 23.68519,-10.55281 23.68519,-23.60702 l 0,0 0,-120.69285 c 0,-13.054214 -10.63098,-23.6070213 -23.68519,-23.6070213 l 0,0 -108.733,0 c -13.05421,0 -23.60702,10.5528073 -23.60702,23.6070213 l 0,0 0,120.69285 c 0,13.05421 10.55281,23.60702 23.60702,23.60702 l 108.733,0 z"
         style="fill:none;stroke:#000000;stroke-width:3.59577131px;stroke-linecap:round;stroke-linejoin:round;stroke-opacity:1;stroke-dasharray:none"
         inkscape:connector-curvature="0" />
      <text
         id="text3768"
         style="font-size:21.26195335px;font-style:normal;font-weight:normal;text-align:start;text-anchor:start;fill:#000000;font-family:Arial"
         y="68.788673"
         x="831.71759"
         xml:space="preserve">WAMP </text>
      <text
         id="text3770"
         style="font-size:21.26195335px;font-style:normal;font-weight:normal;text-align:start;text-anchor:start;fill:#000000;font-family:Arial"
         y="95.053436"
         x="824.21332"
         xml:space="preserve">Backend</text>
      <text
         id="text3772"
         style="font-size:21.26195335px;font-style:normal;font-weight:normal;text-align:start;text-anchor:start;fill:#000000;font-family:Arial"
         y="121.3182"
         x="804.20209"
         xml:space="preserve">Components</text>
      <path
         id="path3774"
         d="m 138.04635,411.01231 c 13.05422,0 23.68519,-10.55281 23.68519,-23.60703 l 0,0 0,-359.26446 c 0,-13.054214 -10.63097,-23.6070213 -23.68519,-23.6070213 l 0,0 -110.68722,0 c -13.054213,0 -23.6070207,10.5528073 -23.6070207,23.6070213 l 0,0 0,359.26446 c 0,13.05422 10.5528077,23.60703 23.6070207,23.60703 l 0,0 110.68722,0 z"
         style="fill:#f2f2f2;fill-opacity:1;fill-rule:evenodd;stroke:none"
         inkscape:connector-curvature="0" />
      <path
         id="path3776"
         d="m 138.04635,411.01231 c 13.05422,0 23.68519,-10.55281 23.68519,-23.60703 l 0,0 0,-359.26446 c 0,-13.054214 -10.63097,-23.6070213 -23.68519,-23.6070213 l 0,0 -110.68722,0 c -13.054213,0 -23.6070207,10.5528073 -23.6070207,23.6070213 l 0,0 0,359.26446 c 0,13.05422 10.5528077,23.60703 23.6070207,23.60703 l 0,0 110.68722,0 z"
         style="fill:none;stroke:#000000;stroke-width:3.59577131px;stroke-linecap:round;stroke-linejoin:round;stroke-opacity:1;stroke-dasharray:none"
         inkscape:connector-curvature="0" />
      <text
         id="text3778"
         style="font-size:23.76335907px;font-style:normal;font-weight:normal;text-align:start;text-anchor:start;fill:#000000;font-family:Arial"
         y="200.1125"
         x="32.51828"
         xml:space="preserve">Frontend</text>
      <text
         id="text3780"
         style="font-size:23.76335907px;font-style:normal;font-weight:normal;text-align:start;text-anchor:start;fill:#000000;font-family:Arial"
         y="200.1125"
         x="126.32101"
         xml:space="preserve">: </text>
      <text
         id="text3782"
         style="font-size:23.76335907px;font-style:normal;font-weight:bold;text-align:start;text-anchor:start;fill:#000000;font-family:Arial"
         y="228.87868"
         x="36.27039"
         xml:space="preserve">Browser</text>
      <path
         id="path3784"
         d="m 560.47133,411.01231 c 13.05421,0 23.60702,-10.55281 23.60702,-23.60703 l 0,0 0,-359.26446 c 0,-13.054214 -10.55281,-23.6070213 -23.60702,-23.6070213 l 0,0 -172.59703,0 c -13.05422,0 -23.60702,10.5528073 -23.60702,23.6070213 l 0,0 0,359.26446 c 0,13.05422 10.5528,23.60703 23.60702,23.60703 l 0,0 172.59703,0 z"
         style="fill:#ffe100;fill-opacity:1;fill-rule:evenodd;stroke:none"
         inkscape:connector-curvature="0" />
      <path
         id="path3786"
         d="m 560.47133,411.01231 c 13.05421,0 23.60702,-10.55281 23.60702,-23.60703 l 0,0 0,-359.26446 c 0,-13.054214 -10.55281,-23.6070213 -23.60702,-23.6070213 l 0,0 -172.59703,0 c -13.05422,0 -23.60702,10.5528073 -23.60702,23.6070213 l 0,0 0,359.26446 c 0,13.05422 10.5528,23.60703 23.60702,23.60703 l 0,0 172.59703,0 z"
         style="fill:none;stroke:#ffc000;stroke-width:5.23731899px;stroke-linecap:round;stroke-linejoin:round;stroke-opacity:1;stroke-dasharray:none"
         inkscape:connector-curvature="0" />
      <path
         id="path3788"
         d="m 413.82639,138.59354 c -2.11056,0.39084 -4.22113,0.62535 -6.17535,0.62535 -0.78169,0 -1.56338,0 -2.2669,-0.0782 -0.70352,-0.0782 -1.48521,-0.23451 -2.34507,-0.46901 -0.85986,-0.23451 -1.64155,-0.54719 -2.18873,-0.93803 -0.62535,-0.39085 -1.17253,-0.93803 -1.56338,-1.64155 -0.39084,-0.70352 -0.62535,-1.48521 -0.62535,-2.42324 l 0,-8.52041 c 0,-3.90845 2.97042,-5.7845 8.98943,-5.7845 1.40704,0 3.43943,0.15633 6.09718,0.62535 l 0,3.43943 c -2.34507,-0.54718 -4.37746,-0.78169 -6.09718,-0.78169 -0.62535,0 -1.17253,0 -1.64155,0.0782 -0.39084,0 -0.85986,0.0782 -1.32887,0.23451 -0.46901,0.15634 -0.78169,0.46901 -1.0162,0.78169 -0.2345,0.31267 -0.39084,0.78169 -0.39084,1.32887 l 0,8.28591 c 0,1.71971 1.64155,2.57957 4.84647,2.57957 1.40705,0 3.2831,-0.31267 5.70634,-0.85986 l 0,3.51761 z"
         style="fill:#000000;fill-opacity:1;fill-rule:evenodd;stroke:none"
         inkscape:connector-curvature="0" />
      <path
         id="path3790"
         d="m 426.09891,127.80622 -1.48521,0 c -1.17253,0 -2.11056,0.23451 -2.65774,0.54719 -0.62535,0.39084 -0.93803,1.01619 -0.93803,1.95422 l 0,8.59858 -4.29929,0 0,-14.38308 4.06478,0 0,2.57957 c 0.0782,-0.78169 0.46902,-1.40704 1.25071,-1.95422 0.78169,-0.62535 1.64154,-0.93803 2.5014,-0.93803 l 1.56338,0 0,3.59577 z"
         style="fill:#000000;fill-opacity:1;fill-rule:evenodd;stroke:none"
         inkscape:connector-curvature="0" />
      <path
         id="path3792"
         d="m 442.67073,129.76045 0,4.22112 c 0,0.93803 -0.15634,1.71972 -0.46902,2.42324 -0.2345,0.62535 -0.62535,1.17253 -1.09436,1.56338 -0.39085,0.31267 -1.0162,0.62535 -1.71972,0.85985 -0.70352,0.15634 -1.32887,0.31268 -1.87605,0.31268 -0.62535,0.0782 -1.32888,0.0782 -2.11056,0.0782 -0.85986,0 -1.56338,0 -2.18873,-0.0782 -0.54719,0 -1.17254,-0.15634 -1.87606,-0.31268 -0.70352,-0.2345 -1.32887,-0.54718 -1.71972,-0.85985 -0.46901,-0.39085 -0.85985,-0.93803 -1.09436,-1.56338 -0.31268,-0.70352 -0.46902,-1.48521 -0.46902,-2.42324 l 0,-4.22112 c 0,-1.0162 0.15634,-1.87606 0.46902,-2.57958 0.31267,-0.70352 0.70352,-1.2507 1.09436,-1.56338 0.46902,-0.39084 1.09437,-0.70352 1.71972,-0.93803 0.78169,-0.15633 1.40704,-0.31267 1.95422,-0.39084 0.54719,0 1.25071,-0.0782 2.11057,-0.0782 0.78168,0 1.48521,0.0782 2.03239,0.0782 0.54718,0.0782 1.17253,0.23451 1.95422,0.39084 0.70352,0.23451 1.2507,0.54719 1.71972,0.93803 0.39084,0.31268 0.78169,0.85986 1.09436,1.56338 0.31268,0.70352 0.46902,1.56338 0.46902,2.57958 z m -4.37746,4.7683 0,-5.47182 c 0,-0.78169 -0.15634,-1.32888 -0.54719,-1.64155 -0.39084,-0.31268 -1.17253,-0.46902 -2.34506,-0.46902 -1.25071,0 -2.0324,0.15634 -2.42324,0.46902 -0.39085,0.31267 -0.54718,0.85986 -0.54718,1.64155 l 0,5.47182 c 0,0.70352 0.15633,1.2507 0.54718,1.56338 0.39084,0.31268 1.17253,0.46901 2.42324,0.46901 1.17253,0 1.95422,-0.15633 2.34506,-0.46901 0.39085,-0.31268 0.54719,-0.85986 0.54719,-1.56338 z"
         style="fill:#000000;fill-opacity:1;fill-rule:evenodd;stroke:none"
         inkscape:connector-curvature="0" />
      <path
         id="path3794"
         d="m 458.46085,133.35622 0,1.79788 c 0,0.70352 -0.15633,1.32888 -0.39084,1.79789 -0.31268,0.54718 -0.62535,0.93803 -1.0162,1.2507 -0.39084,0.23451 -0.93802,0.46902 -1.56338,0.62535 -0.70352,0.15634 -1.32887,0.31268 -1.95422,0.31268 -0.54718,0.0782 -1.2507,0.0782 -2.11056,0.0782 -1.56338,0 -3.43943,-0.15634 -5.70633,-0.39085 l 0,-2.89225 c 2.81408,0.39085 4.69013,0.62535 5.7845,0.62535 0.85986,0 1.48521,-0.0782 1.95422,-0.31267 0.46902,-0.15634 0.70352,-0.46902 0.70352,-0.93803 l 0,-0.93803 c 0,-0.46901 -0.15634,-0.78169 -0.39084,-1.01619 -0.23451,-0.23451 -0.78169,-0.31268 -1.64155,-0.31268 l -1.87606,0 c -1.48521,0 -2.65774,-0.31267 -3.5176,-0.93803 -0.85986,-0.62535 -1.2507,-1.48521 -1.2507,-2.65774 l 0,-1.71972 c 0,-1.32887 0.62535,-2.2669 1.87605,-2.73591 1.25071,-0.46901 2.97042,-0.78169 5.23732,-0.78169 1.0162,0 2.65775,0.0782 5.15915,0.31268 l 0,2.73591 c -3.12675,-0.23451 -4.84647,-0.31268 -5.23732,-0.31268 -1.2507,0 -1.95422,0.0782 -2.2669,0.23451 -0.39084,0.15634 -0.54718,0.46901 -0.54718,0.93803 l 0,0.78169 c 0,0.2345 0.15634,0.46901 0.39085,0.70352 0.2345,0.15634 0.62535,0.23451 1.17253,0.23451 l 1.87606,0 c 3.5176,0 5.31548,1.17253 5.31548,3.5176 z"
         style="fill:#000000;fill-opacity:1;fill-rule:evenodd;stroke:none"
         inkscape:connector-curvature="0" />
      <path
         id="path3796"
         d="m 474.09464,133.35622 0,1.79788 c 0,0.70352 -0.15634,1.32888 -0.39084,1.79789 -0.31268,0.54718 -0.62535,0.93803 -1.0162,1.2507 -0.39084,0.23451 -0.93803,0.46902 -1.64155,0.62535 -0.62535,0.15634 -1.2507,0.31268 -1.87605,0.31268 -0.54718,0.0782 -1.32887,0.0782 -2.11056,0.0782 -1.56338,0 -3.43944,-0.15634 -5.70634,-0.39085 l 0,-2.89225 c 2.81409,0.39085 4.69014,0.62535 5.78451,0.62535 0.85985,0 1.48521,-0.0782 1.95422,-0.31267 0.46901,-0.15634 0.70352,-0.46902 0.70352,-0.93803 l 0,-0.93803 c 0,-0.46901 -0.15634,-0.78169 -0.39084,-1.01619 -0.23451,-0.23451 -0.78169,-0.31268 -1.64155,-0.31268 l -1.87606,0 c -1.48521,0 -2.65774,-0.31267 -3.5176,-0.93803 -0.85986,-0.62535 -1.2507,-1.48521 -1.2507,-2.65774 l 0,-1.71972 c 0,-1.32887 0.62535,-2.2669 1.87605,-2.73591 1.25071,-0.46901 2.97042,-0.78169 5.23732,-0.78169 0.93803,0 2.65775,0.0782 5.15915,0.31268 l 0,2.73591 c -3.12676,-0.23451 -4.84647,-0.31268 -5.23732,-0.31268 -1.2507,0 -1.95422,0.0782 -2.34507,0.23451 -0.31267,0.15634 -0.46901,0.46901 -0.46901,0.93803 l 0,0.78169 c 0,0.2345 0.15634,0.46901 0.39085,0.70352 0.2345,0.15634 0.62535,0.23451 1.17253,0.23451 l 1.87605,0 c 3.51761,0 5.31549,1.17253 5.31549,3.5176 z"
         style="fill:#000000;fill-opacity:1;fill-rule:evenodd;stroke:none"
         inkscape:connector-curvature="0" />
      <path
         id="path3798"
         d="m 492.0735,129.05693 0,4.7683 c 0,1.95422 -0.62535,3.36127 -1.79789,4.22112 -1.17253,0.78169 -3.04859,1.17254 -5.70633,1.17254 -2.73591,0 -4.61197,-0.39085 -5.70633,-1.2507 -1.0162,-0.85986 -1.56338,-2.2669 -1.56338,-4.14296 l 0,-15.71196 4.37746,0 0,7.8169 c 0.23451,-0.62535 0.70352,-1.09437 1.40704,-1.32887 0.70352,-0.23451 1.79789,-0.39085 3.20493,-0.39085 1.2507,0 2.2669,0.15634 3.04859,0.31268 0.70352,0.2345 1.32887,0.54718 1.71971,1.01619 0.39085,0.39085 0.70352,0.93803 0.78169,1.40704 0.15634,0.54719 0.23451,1.25071 0.23451,2.11057 z m -4.37746,5.31548 0,-5.31548 c 0,-0.93803 -0.15634,-1.48521 -0.46902,-1.79789 -0.39084,-0.23451 -1.2507,-0.31268 -2.65774,-0.31268 -1.17253,0 -1.95422,0.15634 -2.34507,0.46902 -0.39084,0.31267 -0.54718,0.85986 -0.54718,1.64155 l 0,5.31548 c 0,0.85986 0.15634,1.40704 0.54718,1.71972 0.31268,0.31268 1.17254,0.46901 2.42324,0.46901 1.2507,0 2.11056,-0.15633 2.50141,-0.46901 0.39084,-0.31268 0.54718,-0.85986 0.54718,-1.71972 z"
         style="fill:#000000;fill-opacity:1;fill-rule:evenodd;stroke:none"
         inkscape:connector-curvature="0" />
      <path
         id="path3800"
         d="m 508.41081,138.90621 -4.29929,0 0,-1.2507 c -0.31268,0.54718 -0.78169,0.93803 -1.32888,1.2507 -0.62535,0.23451 -1.71971,0.31268 -3.28309,0.31268 -1.95422,0 -3.20493,-0.31268 -3.90845,-0.85986 -0.62535,-0.62535 -0.93803,-1.87605 -0.93803,-3.75211 0,-1.71972 0.31268,-2.89225 1.0162,-3.5176 0.62535,-0.70352 1.79789,-1.0162 3.5176,-1.0162 l 4.84648,0 0,-1.01619 c 0,-0.85986 -0.23451,-1.40705 -0.62535,-1.71972 -0.39085,-0.31268 -1.25071,-0.39085 -2.57958,-0.39085 -1.17253,0 -2.89225,0.0782 -5.00281,0.31268 l 0,-2.73591 c 1.64155,-0.15634 3.43943,-0.31268 5.47182,-0.31268 2.65775,0 4.5338,0.31268 5.55,1.0162 1.0162,0.62535 1.56338,1.87605 1.56338,3.83028 l 0,9.84928 z m -4.37746,-3.67394 0,-2.73591 -2.97042,0 c -0.93803,0 -1.56338,0.0782 -1.79789,0.31268 -0.2345,0.15633 -0.31267,0.78168 -0.31267,1.71971 0,0.93803 0.0782,1.48521 0.31267,1.71972 0.31268,0.15634 0.93803,0.31267 1.95423,0.31267 0.46901,0 0.85985,-0.0782 1.09436,-0.0782 0.23451,0 0.46901,0 0.78169,0 0.23451,-0.0782 0.46901,-0.15634 0.54718,-0.23451 0.0782,-0.0782 0.15634,-0.23451 0.31268,-0.39085 0.0782,-0.15633 0.0782,-0.31267 0.0782,-0.62535 z"
         style="fill:#000000;fill-opacity:1;fill-rule:evenodd;stroke:none"
         inkscape:connector-curvature="0" />
      <path
         id="path3802"
         d="m 521.62136,127.80622 -1.48521,0 c -1.17253,0 -2.11056,0.23451 -2.65774,0.54719 -0.62536,0.39084 -0.93803,1.01619 -0.93803,1.95422 l 0,8.59858 -4.37746,0 0,-14.38308 4.14295,0 0,2.57957 c 0.0782,-0.78169 0.46902,-1.40704 1.25071,-1.95422 0.78168,-0.62535 1.64154,-0.93803 2.5014,-0.93803 l 1.56338,0 0,3.59577 z"
         style="fill:#000000;fill-opacity:1;fill-rule:evenodd;stroke:none"
         inkscape:connector-curvature="0" />
      <path
         id="path3804"
         d="m 524.20094,135.70129 0,3.20492 3.43943,0 0,-3.20492 -3.43943,0 z"
         style="fill:#000000;fill-opacity:1;fill-rule:evenodd;stroke:none"
         inkscape:connector-curvature="0" />
      <path
         id="path3806"
         d="m 534.67557,122.09989 -2.65774,0 0,-2.73591 2.65774,0 0,2.73591 z m 0,16.80632 -2.65774,0 0,-14.38308 2.65774,0 0,14.38308 z"
         style="fill:#000000;fill-opacity:1;fill-rule:evenodd;stroke:none"
         inkscape:connector-curvature="0" />
      <path
         id="path3808"
         d="m 552.02908,129.3696 0,5.00281 c 0,0.93803 -0.0782,1.64155 -0.31268,2.2669 -0.2345,0.62535 -0.46901,1.09437 -0.78169,1.40704 -0.39084,0.39085 -0.85985,0.62536 -1.48521,0.78169 -0.62535,0.23451 -1.2507,0.31268 -1.79788,0.31268 -0.54718,0.0782 -1.32887,0.0782 -2.18873,0.0782 -1.25071,0 -2.18873,0 -2.81408,-0.0782 -0.70352,-0.0782 -1.32888,-0.31268 -2.0324,-0.62535 -0.62535,-0.31268 -1.09436,-0.78169 -1.40704,-1.48521 -0.2345,-0.62535 -0.39084,-1.56338 -0.39084,-2.65775 l 0,-5.00281 c 0,-0.93803 0.0782,-1.71972 0.31267,-2.42324 0.23451,-0.62535 0.46902,-1.09436 0.85986,-1.48521 0.31268,-0.39084 0.78169,-0.62535 1.40704,-0.78169 0.62535,-0.2345 1.25071,-0.31267 1.79789,-0.39084 0.54718,0 1.2507,-0.0782 2.2669,-0.0782 0.93803,0 1.64155,0.0782 2.18873,0.0782 0.54718,0.0782 1.17253,0.15634 1.79788,0.39084 0.62536,0.15634 1.09437,0.39085 1.40705,0.78169 0.31267,0.39085 0.62535,0.85986 0.85985,1.48521 0.23451,0.70352 0.31268,1.48521 0.31268,2.42324 z m -2.73591,5.39366 0,-5.86267 c 0,-1.32887 -0.23451,-2.11056 -0.78169,-2.42324 -0.54719,-0.31268 -1.56338,-0.46901 -3.04859,-0.46901 -1.56338,0 -2.57958,0.15633 -3.12676,0.46901 -0.54718,0.31268 -0.78169,1.09437 -0.78169,2.42324 l 0,5.86267 c 0,0.62535 0,1.17253 0.15634,1.48521 0.15634,0.39084 0.39084,0.70352 0.78169,0.85986 0.39084,0.15633 0.78169,0.2345 1.17253,0.31267 0.39085,0.0782 1.0162,0.0782 1.79789,0.0782 0.70352,0 1.32887,0 1.71971,-0.0782 0.39085,-0.0782 0.78169,-0.15634 1.17254,-0.31267 0.39084,-0.15634 0.62535,-0.46902 0.78169,-0.85986 0.0782,-0.31268 0.15634,-0.85986 0.15634,-1.48521 z"
         style="fill:#000000;fill-opacity:1;fill-rule:evenodd;stroke:none"
         inkscape:connector-curvature="0" />
      <path
         id="path3810"
         d="m 439.85665,36.895741 0,64.958389 64.80205,0 0,-64.958389 -64.80205,0 z"
         style="fill:#000000;fill-opacity:1;fill-rule:evenodd;stroke:none"
         inkscape:connector-curvature="0" />
      <path
         id="path3812"
         d="m 439.85665,50.731644 0,6.409854 15.24294,0 10.16196,10.161962 4.76831,-4.690136 -12.03802,-12.038018 -18.13519,0.156338 z"
         style="fill:#ffe100;fill-opacity:1;fill-rule:evenodd;stroke:none"
         inkscape:connector-curvature="0" />
      <path
         id="path3814"
         d="m 479.17562,71.837259 -4.69013,4.690137 11.64717,11.647172 18.52604,0 0,-6.488022 -15.63379,0 -9.84929,-9.849287 z"
         style="fill:#ffe100;fill-opacity:1;fill-rule:evenodd;stroke:none"
         inkscape:connector-curvature="0" />
      <path
         id="path3816"
         d="m 486.60167,50.653475 -30.9549,31.033071 -15.79012,0 0,6.566191 18.52603,0 31.03308,-31.111239 15.24294,0 0,-6.488023 -18.05703,0 z"
         style="fill:#ffe100;fill-opacity:1;fill-rule:evenodd;stroke:none"
         inkscape:connector-curvature="0" />
      <path
         id="path3818"
         d="m 183.14983,89.581609 159.62099,0"
         style="fill:none;stroke:#ffc000;stroke-width:3.59577131px;stroke-linecap:round;stroke-linejoin:round;stroke-opacity:1;stroke-dasharray:none"
         inkscape:connector-curvature="0" />
      <path
         id="path3820"
         d="m 185.10406,97.398504 -23.37252,-7.816895 23.37252,-7.816894 0,15.633789 z"
         style="fill:#ffc000;fill-opacity:1;fill-rule:evenodd;stroke:none"
         inkscape:connector-curvature="0" />
      <path
         id="path3822"
         d="m 340.89476,81.764715 23.37252,7.816894 -23.37252,7.816895 0,-15.633789 z"
         style="fill:#ffc000;fill-opacity:1;fill-rule:evenodd;stroke:none"
         inkscape:connector-curvature="0" />
      <path
         id="path3824"
         d="m 220.35825,69.57036 0,40.0225 85.28232,0 0,-40.0225 -85.28232,0 z"
         style="fill:#ffffff;fill-opacity:1;fill-rule:evenodd;stroke:none"
         inkscape:connector-curvature="0" />
      <text
         id="text3826"
         style="font-size:16.25914001px;font-style:normal;font-weight:normal;text-align:start;text-anchor:start;fill:#000000;font-family:Arial"
         y="85.047813"
         x="236.38289"
         xml:space="preserve">WAMP</text>
      <text
         id="text3828"
         style="font-size:16.25914001px;font-style:normal;font-weight:normal;text-align:start;text-anchor:start;fill:#000000;font-family:Arial"
         y="105.05906"
         x="220.12373"
         xml:space="preserve">WebSocket</text>
      <path
         id="path3830"
         d="m 864.47035,309.08 0,-50.49713 179.63225,0 0,134.76325 -179.63225,0 0,-50.5753 -52.06052,-40.41335 52.06052,6.72253 z"
         style="fill:#ffffff;fill-opacity:1;fill-rule:evenodd;stroke:none"
         inkscape:connector-curvature="0" />
      <path
         id="path3832"
         d="m 864.47035,309.08 0,-50.49713 179.63225,0 0,134.76325 -179.63225,0 0,-50.5753 -52.06052,-40.41335 52.06052,6.72253 z"
         style="fill:none;stroke:#000000;stroke-width:0.3908447px;stroke-linecap:round;stroke-linejoin:round;stroke-opacity:1;stroke-dasharray:none"
         inkscape:connector-curvature="0" />
      <text
         id="text3834"
         style="font-size:16.25914001px;font-style:normal;font-weight:normal;text-align:start;text-anchor:start;fill:#000000;font-family:Arial"
         y="291.41382"
         x="870.48938"
         xml:space="preserve">Crossbar</text>
      <text
         id="text3836"
         style="font-size:16.25914001px;font-style:normal;font-weight:normal;text-align:start;text-anchor:start;fill:#000000;font-family:Arial"
         y="291.41382"
         x="939.27802"
         xml:space="preserve">.</text>
      <text
         id="text3838"
         style="font-size:16.25914001px;font-style:normal;font-weight:normal;text-align:start;text-anchor:start;fill:#000000;font-family:Arial"
         y="291.41382"
         x="943.03015"
         xml:space="preserve">io includes </text>
      <text
         id="text3840"
         style="font-size:16.25914001px;font-style:normal;font-weight:normal;text-align:start;text-anchor:start;fill:#000000;font-family:Arial"
         y="311.42508"
         x="870.48938"
         xml:space="preserve">full</text>
      <text
         id="text3842"
         style="font-size:16.25914001px;font-style:normal;font-weight:normal;text-align:start;text-anchor:start;fill:#000000;font-family:Arial"
         y="311.42508"
         x="893.00201"
         xml:space="preserve">-</text>
      <text
         id="text3844"
         style="font-size:16.25914001px;font-style:normal;font-weight:normal;text-align:start;text-anchor:start;fill:#000000;font-family:Arial"
         y="311.42508"
         x="898.00482"
         xml:space="preserve">stack services</text>
      <text
         id="text3846"
         style="font-size:16.25914001px;font-style:normal;font-weight:normal;text-align:start;text-anchor:start;fill:#000000;font-family:Arial"
         y="311.42508"
         x="1003.0639"
         xml:space="preserve">, </text>
      <text
         id="text3848"
         style="font-size:16.25914001px;font-style:normal;font-weight:normal;text-align:start;text-anchor:start;fill:#000000;font-family:Arial"
         y="331.43631"
         x="870.48938"
         xml:space="preserve">e</text>
      <text
         id="text3850"
         style="font-size:16.25914001px;font-style:normal;font-weight:normal;text-align:start;text-anchor:start;fill:#000000;font-family:Arial"
         y="331.43631"
         x="880.495"
         xml:space="preserve">.</text>
      <text
         id="text3852"
         style="font-size:16.25914001px;font-style:normal;font-weight:normal;text-align:start;text-anchor:start;fill:#000000;font-family:Arial"
         y="331.43631"
         x="885.4978"
         xml:space="preserve">g</text>
      <text
         id="text3854"
         style="font-size:16.25914001px;font-style:normal;font-weight:normal;text-align:start;text-anchor:start;fill:#000000;font-family:Arial"
         y="331.43631"
         x="894.25269"
         xml:space="preserve">. </text>
      <text
         id="text3856"
         style="font-size:16.25914001px;font-style:normal;font-weight:normal;text-align:start;text-anchor:start;fill:#000000;font-family:Arial"
         y="331.43631"
         x="903.00763"
         xml:space="preserve">to serve static </text>
      <text
         id="text3858"
         style="font-size:16.25914001px;font-style:normal;font-weight:normal;text-align:start;text-anchor:start;fill:#000000;font-family:Arial"
         y="351.44757"
         x="870.48938"
         xml:space="preserve">Web content or CGI </text>
      <text
         id="text3860"
         style="font-size:16.25914001px;font-style:normal;font-weight:normal;text-align:start;text-anchor:start;fill:#000000;font-family:Arial"
         y="371.45883"
         x="870.48938"
         xml:space="preserve">scripts</text>
      <path
         id="path3862"
         d="m 639.89097,315.09901 0,94.50625 156.02521,0 0,-94.50625 -156.02521,0 z"
         style="fill:#f2f2f2;fill-opacity:1;fill-rule:evenodd;stroke:none"
         inkscape:connector-curvature="0" />
      <path
         id="path3864"
         d="m 641.92336,408.58907 1.95423,0 c 0.54718,0 1.01619,0.46901 1.01619,1.01619 0,0.54719 -0.46901,1.0162 -1.01619,1.0162 l -1.95423,0 c -0.54718,0 -1.01619,-0.46901 -1.01619,-1.0162 0,-0.54718 0.46901,-1.01619 1.01619,-1.01619 z m 6.01901,0 1.95423,0 c 0.54718,0 1.01619,0.46901 1.01619,1.01619 0,0.54719 -0.46901,1.0162 -1.01619,1.0162 l -1.95423,0 c -0.54718,0 -1.01619,-0.46901 -1.01619,-1.0162 0,-0.54718 0.46901,-1.01619 1.01619,-1.01619 z m 5.94084,0 2.0324,0 c 0.54718,0 1.01619,0.46901 1.01619,1.01619 0,0.54719 -0.46901,1.0162 -1.01619,1.0162 l -2.0324,0 c -0.54718,0 -0.93802,-0.46901 -0.93802,-1.0162 0,-0.54718 0.39084,-1.01619 0.93802,-1.01619 z m 6.01901,0 2.03239,0 c 0.54719,0 1.0162,0.46901 1.0162,1.01619 0,0.54719 -0.46901,1.0162 -1.0162,1.0162 l -2.03239,0 c -0.54718,0 -1.0162,-0.46901 -1.0162,-1.0162 0,-0.54718 0.46902,-1.01619 1.0162,-1.01619 z m 6.01901,0 2.03239,0 c 0.54719,0 0.93803,0.46901 0.93803,1.01619 0,0.54719 -0.39084,1.0162 -0.93803,1.0162 l -2.03239,0 c -0.54718,0 -1.0162,-0.46901 -1.0162,-1.0162 0,-0.54718 0.46902,-1.01619 1.0162,-1.01619 z m 6.01901,0 1.95422,0 c 0.54718,0 1.0162,0.46901 1.0162,1.01619 0,0.54719 -0.46902,1.0162 -1.0162,1.0162 l -1.95422,0 c -0.54718,0 -1.0162,-0.46901 -1.0162,-1.0162 0,-0.54718 0.46902,-1.01619 1.0162,-1.01619 z m 6.01901,0 1.95422,0 c 0.54718,0 1.0162,0.46901 1.0162,1.01619 0,0.54719 -0.46902,1.0162 -1.0162,1.0162 l -1.95422,0 c -0.54719,0 -1.0162,-0.46901 -1.0162,-1.0162 0,-0.54718 0.46901,-1.01619 1.0162,-1.01619 z m 5.94084,0 2.03239,0 c 0.54718,0 1.0162,0.46901 1.0162,1.01619 0,0.54719 -0.46902,1.0162 -1.0162,1.0162 l -2.03239,0 c -0.54719,0 -0.93803,-0.46901 -0.93803,-1.0162 0,-0.54718 0.39084,-1.01619 0.93803,-1.01619 z m 6.01901,0 2.03239,0 c 0.54718,0 1.01619,0.46901 1.01619,1.01619 0,0.54719 -0.46901,1.0162 -1.01619,1.0162 l -2.03239,0 c -0.54719,0 -1.0162,-0.46901 -1.0162,-1.0162 0,-0.54718 0.46901,-1.01619 1.0162,-1.01619 z m 6.019,0 2.0324,0 c 0.54718,0 0.93802,0.46901 0.93802,1.01619 0,0.54719 -0.39084,1.0162 -0.93802,1.0162 l -2.0324,0 c -0.54718,0 -1.01619,-0.46901 -1.01619,-1.0162 0,-0.54718 0.46901,-1.01619 1.01619,-1.01619 z m 6.01901,0 1.95423,0 c 0.54718,0 1.01619,0.46901 1.01619,1.01619 0,0.54719 -0.46901,1.0162 -1.01619,1.0162 l -1.95423,0 c -0.54718,0 -1.01619,-0.46901 -1.01619,-1.0162 0,-0.54718 0.46901,-1.01619 1.01619,-1.01619 z m 6.01901,0 1.95423,0 c 0.54718,0 1.01619,0.46901 1.01619,1.01619 0,0.54719 -0.46901,1.0162 -1.01619,1.0162 l -1.95423,0 c -0.54718,0 -1.01619,-0.46901 -1.01619,-1.0162 0,-0.54718 0.46901,-1.01619 1.01619,-1.01619 z m 5.94084,0 2.03239,0 c 0.54719,0 1.0162,0.46901 1.0162,1.01619 0,0.54719 -0.46901,1.0162 -1.0162,1.0162 l -2.03239,0 c -0.54718,0 -0.93803,-0.46901 -0.93803,-1.0162 0,-0.54718 0.39085,-1.01619 0.93803,-1.01619 z m 6.01901,0 2.03239,0 c 0.54718,0 1.0162,0.46901 1.0162,1.01619 0,0.54719 -0.46902,1.0162 -1.0162,1.0162 l -2.03239,0 c -0.54718,0 -1.0162,-0.46901 -1.0162,-1.0162 0,-0.54718 0.46902,-1.01619 1.0162,-1.01619 z m 6.01901,0 2.03239,0 c 0.54718,0 0.93803,0.46901 0.93803,1.01619 0,0.54719 -0.39085,1.0162 -0.93803,1.0162 l -2.03239,0 c -0.54718,0 -1.0162,-0.46901 -1.0162,-1.0162 0,-0.54718 0.46902,-1.01619 1.0162,-1.01619 z m 6.01901,0 1.95422,0 c 0.54718,0 1.0162,0.46901 1.0162,1.01619 0,0.54719 -0.46902,1.0162 -1.0162,1.0162 l -1.95422,0 c -0.54719,0 -1.0162,-0.46901 -1.0162,-1.0162 0,-0.54718 0.46901,-1.01619 1.0162,-1.01619 z m 6.01901,0 1.95422,0 c 0.54718,0 1.0162,0.46901 1.0162,1.01619 0,0.54719 -0.46902,1.0162 -1.0162,1.0162 l -1.95422,0 c -0.54719,0 -1.0162,-0.46901 -1.0162,-1.0162 0,-0.54718 0.46901,-1.01619 1.0162,-1.01619 z m 5.94084,0 2.03239,0 c 0.54718,0 1.01619,0.46901 1.01619,1.01619 0,0.54719 -0.46901,1.0162 -1.01619,1.0162 l -2.03239,0 c -0.54719,0 -0.93803,-0.46901 -0.93803,-1.0162 0,-0.54718 0.39084,-1.01619 0.93803,-1.01619 z m 6.019,0 2.0324,0 c 0.54718,0 1.01619,0.46901 1.01619,1.01619 0,0.54719 -0.46901,1.0162 -1.01619,1.0162 l -2.0324,0 c -0.54718,0 -1.01619,-0.46901 -1.01619,-1.0162 0,-0.54718 0.46901,-1.01619 1.01619,-1.01619 z m 6.01901,0 2.0324,0 c 0.54718,0 0.93802,0.46901 0.93802,1.01619 0,0.54719 -0.39084,1.0162 -0.93802,1.0162 l -2.0324,0 c -0.54718,0 -1.01619,-0.46901 -1.01619,-1.0162 0,-0.54718 0.46901,-1.01619 1.01619,-1.01619 z m 6.01901,0 1.95423,0 c 0.54718,0 1.01619,0.46901 1.01619,1.01619 0,0.54719 -0.46901,1.0162 -1.01619,1.0162 l -1.95423,0 c -0.54718,0 -1.01619,-0.46901 -1.01619,-1.0162 0,-0.54718 0.46901,-1.01619 1.01619,-1.01619 z m 6.01901,0 1.95422,0 c 0.54719,0 1.0162,0.46901 1.0162,1.01619 0,0.54719 -0.46901,1.0162 -1.0162,1.0162 l -1.95422,0 c -0.54718,0 -1.0162,-0.46901 -1.0162,-1.0162 0,-0.54718 0.46902,-1.01619 1.0162,-1.01619 z m 5.94084,0 2.03239,0 c 0.54718,0 1.0162,0.46901 1.0162,1.01619 0,0.54719 -0.46902,1.0162 -1.0162,1.0162 l -2.03239,0 c -0.54718,0 -0.93803,-0.46901 -0.93803,-1.0162 0,-0.54718 0.39085,-1.01619 0.93803,-1.01619 z m 6.01901,0 2.03239,0 c 0.54718,0 1.0162,0.46901 1.0162,1.01619 0,0.54719 -0.46902,1.0162 -1.0162,1.0162 l -2.03239,0 c -0.54718,0 -1.0162,-0.46901 -1.0162,-1.0162 0,-0.54718 0.46902,-1.01619 1.0162,-1.01619 z m 6.01901,0 2.03239,0 c 0.54718,0 0.93803,0.46901 0.93803,1.01619 0,0.54719 -0.39085,1.0162 -0.93803,1.0162 l -2.03239,0 c -0.54719,0 -1.0162,-0.46901 -1.0162,-1.0162 0,-0.54718 0.46901,-1.01619 1.0162,-1.01619 z m 6.01901,0 1.95422,0 c 0.54718,0 1.0162,0.46901 1.0162,1.01619 0,0.54719 -0.46902,1.0162 -1.0162,1.0162 l -1.95422,0 c -0.54719,0 -1.0162,-0.46901 -1.0162,-1.0162 0,-0.54718 0.46901,-1.01619 1.0162,-1.01619 z m 2.89225,-1.09437 0,-1.95422 c 0,-0.54718 0.46901,-1.0162 1.01619,-1.0162 0.54719,0 1.0162,0.46902 1.0162,1.0162 l 0,1.95422 c 0,0.54719 -0.46901,1.0162 -1.0162,1.0162 -0.54718,0 -1.01619,-0.46901 -1.01619,-1.0162 z m 0,-5.94084 0,-2.03239 c 0,-0.54718 0.46901,-1.0162 1.01619,-1.0162 0.54719,0 1.0162,0.46902 1.0162,1.0162 l 0,2.03239 c 0,0.54719 -0.46901,0.93803 -1.0162,0.93803 -0.54718,0 -1.01619,-0.39084 -1.01619,-0.93803 z m 0,-6.01901 0,-2.03239 c 0,-0.54718 0.46901,-1.01619 1.01619,-1.01619 0.54719,0 1.0162,0.46901 1.0162,1.01619 l 0,2.03239 c 0,0.54719 -0.46901,1.0162 -1.0162,1.0162 -0.54718,0 -1.01619,-0.46901 -1.01619,-1.0162 z m 0,-6.019 0,-2.0324 c 0,-0.54718 0.46901,-0.93802 1.01619,-0.93802 0.54719,0 1.0162,0.39084 1.0162,0.93802 l 0,2.0324 c 0,0.54718 -0.46901,1.01619 -1.0162,1.01619 -0.54718,0 -1.01619,-0.46901 -1.01619,-1.01619 z m 0,-6.01901 0,-1.95423 c 0,-0.54718 0.46901,-1.01619 1.01619,-1.01619 0.54719,0 1.0162,0.46901 1.0162,1.01619 l 0,1.95423 c 0,0.54718 -0.46901,1.01619 -1.0162,1.01619 -0.54718,0 -1.01619,-0.46901 -1.01619,-1.01619 z m 0,-6.01901 0,-1.95423 c 0,-0.54718 0.46901,-1.01619 1.01619,-1.01619 0.54719,0 1.0162,0.46901 1.0162,1.01619 l 0,1.95423 c 0,0.54718 -0.46901,1.01619 -1.0162,1.01619 -0.54718,0 -1.01619,-0.46901 -1.01619,-1.01619 z m 0,-5.94084 0,-2.03239 c 0,-0.54719 0.46901,-1.0162 1.01619,-1.0162 0.54719,0 1.0162,0.46901 1.0162,1.0162 l 0,2.03239 c 0,0.54718 -0.46901,0.93803 -1.0162,0.93803 -0.54718,0 -1.01619,-0.39085 -1.01619,-0.93803 z m 0,-6.01901 0,-2.03239 c 0,-0.54719 0.46901,-1.0162 1.01619,-1.0162 0.54719,0 1.0162,0.46901 1.0162,1.0162 l 0,2.03239 c 0,0.54718 -0.46901,1.0162 -1.0162,1.0162 -0.54718,0 -1.01619,-0.46902 -1.01619,-1.0162 z m 0,-6.01901 0,-2.03239 c 0,-0.54718 0.46901,-0.93803 1.01619,-0.93803 0.54719,0 1.0162,0.39085 1.0162,0.93803 l 0,2.03239 c 0,0.54718 -0.46901,1.0162 -1.0162,1.0162 -0.54718,0 -1.01619,-0.46902 -1.01619,-1.0162 z m 0,-6.01901 0,-1.95422 c 0,-0.54718 0.46901,-1.0162 1.01619,-1.0162 0.54719,0 1.0162,0.46902 1.0162,1.0162 l 0,1.95422 c 0,0.54719 -0.46901,1.0162 -1.0162,1.0162 -0.54718,0 -1.01619,-0.46901 -1.01619,-1.0162 z m 0,-6.01901 0,-1.95422 c 0,-0.54718 0.46901,-1.0162 1.01619,-1.0162 0.54719,0 1.0162,0.46902 1.0162,1.0162 l 0,1.95422 c 0,0.54719 -0.46901,1.0162 -1.0162,1.0162 -0.54718,0 -1.01619,-0.46901 -1.01619,-1.0162 z m 0,-5.94084 0,-2.03239 c 0,-0.54718 0.46901,-1.01619 1.01619,-1.01619 0.54719,0 1.0162,0.46901 1.0162,1.01619 l 0,2.03239 c 0,0.54719 -0.46901,0.93803 -1.0162,0.93803 -0.54718,0 -1.01619,-0.39084 -1.01619,-0.93803 z m 0,-6.019 0,-2.0324 c 0,-0.54718 0.46901,-1.01619 1.01619,-1.01619 0.54719,0 1.0162,0.46901 1.0162,1.01619 l 0,2.0324 c 0,0.54718 -0.46901,1.01619 -1.0162,1.01619 -0.54718,0 -1.01619,-0.46901 -1.01619,-1.01619 z m 0,-6.01901 0,-2.0324 c 0,-0.54718 0.46901,-0.93802 1.01619,-0.93802 0.54719,0 1.0162,0.39084 1.0162,0.93802 l 0,2.0324 c 0,0.54718 -0.46901,1.01619 -1.0162,1.01619 -0.54718,0 -1.01619,-0.46901 -1.01619,-1.01619 z m 0,-6.01901 0,-1.95423 c 0,-0.54718 0.46901,-1.01619 1.01619,-1.01619 0.54719,0 1.0162,0.46901 1.0162,1.01619 l 0,1.95423 c 0,0.54718 -0.46901,1.01619 -1.0162,1.01619 -0.54718,0 -1.01619,-0.46901 -1.01619,-1.01619 z m 0,-6.01901 0,-1.95422 c 0,-0.54719 0.46901,-1.0162 1.01619,-1.0162 0.54719,0 1.0162,0.46901 1.0162,1.0162 l 0,1.95422 c 0,0.54718 -0.46901,1.0162 -1.0162,1.0162 -0.54718,0 -1.01619,-0.46902 -1.01619,-1.0162 z m -2.57958,-1.32887 -2.03239,0 c -0.54718,0 -1.0162,-0.46902 -1.0162,-1.0162 0,-0.54718 0.46902,-1.01619 1.0162,-1.01619 l 2.03239,0 c 0.54718,0 0.93803,0.46901 0.93803,1.01619 0,0.54718 -0.39085,1.0162 -0.93803,1.0162 z m -6.01901,0 -2.03239,0 c -0.54718,0 -1.0162,-0.46902 -1.0162,-1.0162 0,-0.54718 0.46902,-1.01619 1.0162,-1.01619 l 2.03239,0 c 0.54719,0 1.0162,0.46901 1.0162,1.01619 0,0.54718 -0.46901,1.0162 -1.0162,1.0162 z m -6.01901,0 -2.03239,0 c -0.54718,0 -0.93803,-0.46902 -0.93803,-1.0162 0,-0.54718 0.39085,-1.01619 0.93803,-1.01619 l 2.03239,0 c 0.54719,0 1.0162,0.46901 1.0162,1.01619 0,0.54718 -0.46901,1.0162 -1.0162,1.0162 z m -6.019,0 -1.95423,0 c -0.54718,0 -1.01619,-0.46902 -1.01619,-1.0162 0,-0.54718 0.46901,-1.01619 1.01619,-1.01619 l 1.95423,0 c 0.54718,0 1.01619,0.46901 1.01619,1.01619 0,0.54718 -0.46901,1.0162 -1.01619,1.0162 z m -6.01901,0 -1.95423,0 c -0.54718,0 -1.01619,-0.46902 -1.01619,-1.0162 0,-0.54718 0.46901,-1.01619 1.01619,-1.01619 l 1.95423,0 c 0.54718,0 1.01619,0.46901 1.01619,1.01619 0,0.54718 -0.46901,1.0162 -1.01619,1.0162 z m -5.94084,0 -2.0324,0 c -0.54718,0 -1.01619,-0.46902 -1.01619,-1.0162 0,-0.54718 0.46901,-1.01619 1.01619,-1.01619 l 2.0324,0 c 0.54718,0 0.93802,0.46901 0.93802,1.01619 0,0.54718 -0.39084,1.0162 -0.93802,1.0162 z m -6.01901,0 -2.03239,0 c -0.54719,0 -1.0162,-0.46902 -1.0162,-1.0162 0,-0.54718 0.46901,-1.01619 1.0162,-1.01619 l 2.03239,0 c 0.54718,0 1.01619,0.46901 1.01619,1.01619 0,0.54718 -0.46901,1.0162 -1.01619,1.0162 z m -6.01901,0 -2.03239,0 c -0.54719,0 -0.93803,-0.46902 -0.93803,-1.0162 0,-0.54718 0.39084,-1.01619 0.93803,-1.01619 l 2.03239,0 c 0.54718,0 1.0162,0.46901 1.0162,1.01619 0,0.54718 -0.46902,1.0162 -1.0162,1.0162 z m -6.01901,0 -1.95422,0 c -0.54718,0 -1.0162,-0.46902 -1.0162,-1.0162 0,-0.54718 0.46902,-1.01619 1.0162,-1.01619 l 1.95422,0 c 0.54718,0 1.0162,0.46901 1.0162,1.01619 0,0.54718 -0.46902,1.0162 -1.0162,1.0162 z m -6.01901,0 -1.95422,0 c -0.54718,0 -1.0162,-0.46902 -1.0162,-1.0162 0,-0.54718 0.46902,-1.01619 1.0162,-1.01619 l 1.95422,0 c 0.54719,0 1.0162,0.46901 1.0162,1.01619 0,0.54718 -0.46901,1.0162 -1.0162,1.0162 z m -5.94084,0 -2.03239,0 c -0.54718,0 -1.0162,-0.46902 -1.0162,-1.0162 0,-0.54718 0.46902,-1.01619 1.0162,-1.01619 l 2.03239,0 c 0.54719,0 0.93803,0.46901 0.93803,1.01619 0,0.54718 -0.39084,1.0162 -0.93803,1.0162 z m -6.01901,0 -2.03239,0 c -0.54718,0 -1.01619,-0.46902 -1.01619,-1.0162 0,-0.54718 0.46901,-1.01619 1.01619,-1.01619 l 2.03239,0 c 0.54719,0 1.0162,0.46901 1.0162,1.01619 0,0.54718 -0.46901,1.0162 -1.0162,1.0162 z m -6.019,0 -2.0324,0 c -0.54718,0 -0.93802,-0.46902 -0.93802,-1.0162 0,-0.54718 0.39084,-1.01619 0.93802,-1.01619 l 2.0324,0 c 0.54718,0 1.01619,0.46901 1.01619,1.01619 0,0.54718 -0.46901,1.0162 -1.01619,1.0162 z m -6.01901,0 -1.95423,0 c -0.54718,0 -1.01619,-0.46902 -1.01619,-1.0162 0,-0.54718 0.46901,-1.01619 1.01619,-1.01619 l 1.95423,0 c 0.54718,0 1.01619,0.46901 1.01619,1.01619 0,0.54718 -0.46901,1.0162 -1.01619,1.0162 z m -6.01901,0 -1.95423,0 c -0.54718,0 -1.01619,-0.46902 -1.01619,-1.0162 0,-0.54718 0.46901,-1.01619 1.01619,-1.01619 l 1.95423,0 c 0.54718,0 1.01619,0.46901 1.01619,1.01619 0,0.54718 -0.46901,1.0162 -1.01619,1.0162 z m -5.94084,0 -2.03239,0 c -0.54719,0 -1.0162,-0.46902 -1.0162,-1.0162 0,-0.54718 0.46901,-1.01619 1.0162,-1.01619 l 2.03239,0 c 0.54718,0 0.93803,0.46901 0.93803,1.01619 0,0.54718 -0.39085,1.0162 -0.93803,1.0162 z m -6.01901,0 -2.03239,0 c -0.54719,0 -1.0162,-0.46902 -1.0162,-1.0162 0,-0.54718 0.46901,-1.01619 1.0162,-1.01619 l 2.03239,0 c 0.54718,0 1.0162,0.46901 1.0162,1.01619 0,0.54718 -0.46902,1.0162 -1.0162,1.0162 z m -6.01901,0 -2.03239,0 c -0.54718,0 -0.93803,-0.46902 -0.93803,-1.0162 0,-0.54718 0.39085,-1.01619 0.93803,-1.01619 l 2.03239,0 c 0.54718,0 1.0162,0.46901 1.0162,1.01619 0,0.54718 -0.46902,1.0162 -1.0162,1.0162 z m -6.01901,0 -1.95422,0 c -0.54718,0 -1.0162,-0.46902 -1.0162,-1.0162 0,-0.54718 0.46902,-1.01619 1.0162,-1.01619 l 1.95422,0 c 0.54719,0 1.0162,0.46901 1.0162,1.01619 0,0.54718 -0.46901,1.0162 -1.0162,1.0162 z m -6.01901,0 -1.95422,0 c -0.54718,0 -1.0162,-0.46902 -1.0162,-1.0162 0,-0.54718 0.46902,-1.01619 1.0162,-1.01619 l 1.95422,0 c 0.54719,0 1.0162,0.46901 1.0162,1.01619 0,0.54718 -0.46901,1.0162 -1.0162,1.0162 z m -5.94084,0 -2.03239,0 c -0.54718,0 -1.01619,-0.46902 -1.01619,-1.0162 0,-0.54718 0.46901,-1.01619 1.01619,-1.01619 l 2.03239,0 c 0.54719,0 0.93803,0.46901 0.93803,1.01619 0,0.54718 -0.39084,1.0162 -0.93803,1.0162 z m -6.019,0 -2.0324,0 c -0.54718,0 -1.01619,-0.46902 -1.01619,-1.0162 0,-0.54718 0.46901,-1.01619 1.01619,-1.01619 l 2.0324,0 c 0.54718,0 1.01619,0.46901 1.01619,1.01619 0,0.54718 -0.46901,1.0162 -1.01619,1.0162 z m -6.01901,0 -2.0324,0 c -0.54718,0 -0.93802,-0.46902 -0.93802,-1.0162 0,-0.54718 0.39084,-1.01619 0.93802,-1.01619 l 2.0324,0 c 0.54718,0 1.01619,0.46901 1.01619,1.01619 0,0.54718 -0.46901,1.0162 -1.01619,1.0162 z m -6.01901,0 -1.95423,0 c -0.54718,0 -1.01619,-0.46902 -1.01619,-1.0162 0,-0.54718 0.46901,-1.01619 1.01619,-1.01619 l 1.95423,0 c 0.54718,0 1.01619,0.46901 1.01619,1.01619 0,0.54718 -0.46901,1.0162 -1.01619,1.0162 z m -6.01901,0 -1.95422,0 c -0.54719,0 -1.0162,-0.46902 -1.0162,-1.0162 0,-0.54718 0.46901,-1.01619 1.0162,-1.01619 l 1.95422,0 c 0.54718,0 1.0162,0.46901 1.0162,1.01619 0,0.54718 -0.46902,1.0162 -1.0162,1.0162 z m -5.94084,0 -2.03239,0 c -0.54719,0 -1.0162,-0.46902 -1.0162,-1.0162 0,-0.54718 0.46901,-1.01619 1.0162,-1.01619 l 2.03239,0 c 0.54718,0 0.93803,0.46901 0.93803,1.01619 0,0.54718 -0.39085,1.0162 -0.93803,1.0162 z m -1.32887,2.65774 0,2.03239 c 0,0.54719 -0.46902,1.0162 -1.0162,1.0162 -0.54718,0 -1.01619,-0.46901 -1.01619,-1.0162 l 0,-2.03239 c 0,-0.54718 0.46901,-1.01619 1.01619,-1.01619 0.54718,0 1.0162,0.46901 1.0162,1.01619 z m 0,6.01901 0,2.03239 c 0,0.54719 -0.46902,0.93803 -1.0162,0.93803 -0.54718,0 -1.01619,-0.39084 -1.01619,-0.93803 l 0,-2.03239 c 0,-0.54718 0.46901,-1.0162 1.01619,-1.0162 0.54718,0 1.0162,0.46902 1.0162,1.0162 z m 0,6.01901 0,1.95422 c 0,0.54719 -0.46902,1.0162 -1.0162,1.0162 -0.54718,0 -1.01619,-0.46901 -1.01619,-1.0162 l 0,-1.95422 c 0,-0.54718 0.46901,-1.0162 1.01619,-1.0162 0.54718,0 1.0162,0.46902 1.0162,1.0162 z m 0,6.01901 0,1.95422 c 0,0.54718 -0.46902,1.0162 -1.0162,1.0162 -0.54718,0 -1.01619,-0.46902 -1.01619,-1.0162 l 0,-1.95422 c 0,-0.62535 0.46901,-1.0162 1.01619,-1.0162 0.54718,0 1.0162,0.39085 1.0162,1.0162 z m 0,5.94084 0,2.03239 c 0,0.54718 -0.46902,1.0162 -1.0162,1.0162 -0.54718,0 -1.01619,-0.46902 -1.01619,-1.0162 l 0,-2.03239 c 0,-0.54719 0.46901,-0.93803 1.01619,-0.93803 0.54718,0 1.0162,0.39084 1.0162,0.93803 z m 0,6.01901 0,2.03239 c 0,0.54718 -0.46902,1.01619 -1.0162,1.01619 -0.54718,0 -1.01619,-0.46901 -1.01619,-1.01619 l 0,-2.03239 c 0,-0.54719 0.46901,-1.0162 1.01619,-1.0162 0.54718,0 1.0162,0.46901 1.0162,1.0162 z m 0,6.019 0,2.0324 c 0,0.54718 -0.46902,0.93802 -1.0162,0.93802 -0.54718,0 -1.01619,-0.39084 -1.01619,-0.93802 l 0,-2.0324 c 0,-0.54718 0.46901,-1.01619 1.01619,-1.01619 0.54718,0 1.0162,0.46901 1.0162,1.01619 z m 0,6.01901 0,1.95423 c 0,0.54718 -0.46902,1.01619 -1.0162,1.01619 -0.54718,0 -1.01619,-0.46901 -1.01619,-1.01619 l 0,-1.95423 c 0,-0.54718 0.46901,-1.01619 1.01619,-1.01619 0.54718,0 1.0162,0.46901 1.0162,1.01619 z m 0,6.01901 0,1.95423 c 0,0.54718 -0.46902,1.01619 -1.0162,1.01619 -0.54718,0 -1.01619,-0.46901 -1.01619,-1.01619 l 0,-1.95423 c 0,-0.62535 0.46901,-1.01619 1.01619,-1.01619 0.54718,0 1.0162,0.39084 1.0162,1.01619 z m 0,5.94084 0,2.03239 c 0,0.54719 -0.46902,1.0162 -1.0162,1.0162 -0.54718,0 -1.01619,-0.46901 -1.01619,-1.0162 l 0,-2.03239 c 0,-0.54718 0.46901,-0.93803 1.01619,-0.93803 0.54718,0 1.0162,0.39085 1.0162,0.93803 z m 0,6.01901 0,2.03239 c 0,0.54719 -0.46902,1.0162 -1.0162,1.0162 -0.54718,0 -1.01619,-0.46901 -1.01619,-1.0162 l 0,-2.03239 c 0,-0.54718 0.46901,-1.0162 1.01619,-1.0162 0.54718,0 1.0162,0.46902 1.0162,1.0162 z m 0,6.01901 0,2.03239 c 0,0.54718 -0.46902,0.93803 -1.0162,0.93803 -0.54718,0 -1.01619,-0.39085 -1.01619,-0.93803 l 0,-2.03239 c 0,-0.54718 0.46901,-1.0162 1.01619,-1.0162 0.54718,0 1.0162,0.46902 1.0162,1.0162 z m 0,6.01901 0,1.95422 c 0,0.54718 -0.46902,1.0162 -1.0162,1.0162 -0.54718,0 -1.01619,-0.46902 -1.01619,-1.0162 l 0,-1.95422 c 0,-0.54718 0.46901,-1.0162 1.01619,-1.0162 0.54718,0 1.0162,0.46902 1.0162,1.0162 z m 0,6.01901 0,1.95422 c 0,0.54718 -0.46902,1.0162 -1.0162,1.0162 -0.54718,0 -1.01619,-0.46902 -1.01619,-1.0162 l 0,-1.95422 c 0,-0.62536 0.46901,-1.0162 1.01619,-1.0162 0.54718,0 1.0162,0.39084 1.0162,1.0162 z m 0,5.94084 0,2.03239 c 0,0.54718 -0.46902,1.01619 -1.0162,1.01619 -0.54718,0 -1.01619,-0.46901 -1.01619,-1.01619 l 0,-2.03239 c 0,-0.54719 0.46901,-0.93803 1.01619,-0.93803 0.54718,0 1.0162,0.39084 1.0162,0.93803 z m 0,6.019 0,0.78169 c 0,0.54719 -0.46902,1.0162 -1.0162,1.0162 -0.54718,0 -1.01619,-0.46901 -1.01619,-1.0162 l 0,-0.78169 c 0,-0.54718 0.46901,-1.01619 1.01619,-1.01619 0.54718,0 1.0162,0.46901 1.0162,1.01619 z"
         style="fill:#262626;fill-opacity:1;fill-rule:nonzero;stroke:#262626;stroke-width:1.2507031px;stroke-linecap:butt;stroke-linejoin:bevel;stroke-opacity:1;stroke-dasharray:none"
         inkscape:connector-curvature="0" />
      <text
         id="text3866"
         style="font-size:21.26195335px;font-style:normal;font-weight:normal;text-align:start;text-anchor:start;fill:#000000;font-family:Arial"
         y="368.9574"
         x="667.87543"
         xml:space="preserve">CGI Script</text>
      <path
         id="path3868"
         d="m 639.89097,196.90757 0,94.50625 156.02521,0 0,-94.50625 -156.02521,0 z"
         style="fill:#f2f2f2;fill-opacity:1;fill-rule:evenodd;stroke:none"
         inkscape:connector-curvature="0" />
      <path
         id="path3870"
         d="m 641.92336,290.47579 1.95423,0 c 0.54718,0 1.01619,0.39085 1.01619,0.93803 0,0.54718 -0.46901,1.0162 -1.01619,1.0162 l -1.95423,0 c -0.54718,0 -1.01619,-0.46902 -1.01619,-1.0162 0,-0.54718 0.46901,-0.93803 1.01619,-0.93803 z m 6.01901,0 1.95423,0 c 0.54718,0 1.01619,0.39085 1.01619,0.93803 0,0.54718 -0.46901,1.0162 -1.01619,1.0162 l -1.95423,0 c -0.54718,0 -1.01619,-0.46902 -1.01619,-1.0162 0,-0.54718 0.46901,-0.93803 1.01619,-0.93803 z m 5.94084,0 2.0324,0 c 0.54718,0 1.01619,0.39085 1.01619,0.93803 0,0.54718 -0.46901,1.0162 -1.01619,1.0162 l -2.0324,0 c -0.54718,0 -0.93802,-0.46902 -0.93802,-1.0162 0,-0.54718 0.39084,-0.93803 0.93802,-0.93803 z m 6.01901,0 2.03239,0 c 0.54719,0 1.0162,0.39085 1.0162,0.93803 0,0.54718 -0.46901,1.0162 -1.0162,1.0162 l -2.03239,0 c -0.54718,0 -1.0162,-0.46902 -1.0162,-1.0162 0,-0.54718 0.46902,-0.93803 1.0162,-0.93803 z m 6.01901,0 2.03239,0 c 0.54719,0 0.93803,0.39085 0.93803,0.93803 0,0.54718 -0.39084,1.0162 -0.93803,1.0162 l -2.03239,0 c -0.54718,0 -1.0162,-0.46902 -1.0162,-1.0162 0,-0.54718 0.46902,-0.93803 1.0162,-0.93803 z m 6.01901,0 1.95422,0 c 0.54718,0 1.0162,0.39085 1.0162,0.93803 0,0.54718 -0.46902,1.0162 -1.0162,1.0162 l -1.95422,0 c -0.54718,0 -1.0162,-0.46902 -1.0162,-1.0162 0,-0.54718 0.46902,-0.93803 1.0162,-0.93803 z m 6.01901,0 1.95422,0 c 0.54718,0 1.0162,0.39085 1.0162,0.93803 0,0.54718 -0.46902,1.0162 -1.0162,1.0162 l -1.95422,0 c -0.54719,0 -1.0162,-0.46902 -1.0162,-1.0162 0,-0.54718 0.46901,-0.93803 1.0162,-0.93803 z m 5.94084,0 2.03239,0 c 0.54718,0 1.0162,0.39085 1.0162,0.93803 0,0.54718 -0.46902,1.0162 -1.0162,1.0162 l -2.03239,0 c -0.54719,0 -0.93803,-0.46902 -0.93803,-1.0162 0,-0.54718 0.39084,-0.93803 0.93803,-0.93803 z m 6.01901,0 2.03239,0 c 0.54718,0 1.01619,0.39085 1.01619,0.93803 0,0.54718 -0.46901,1.0162 -1.01619,1.0162 l -2.03239,0 c -0.54719,0 -1.0162,-0.46902 -1.0162,-1.0162 0,-0.54718 0.46901,-0.93803 1.0162,-0.93803 z m 6.019,0 2.0324,0 c 0.54718,0 0.93802,0.39085 0.93802,0.93803 0,0.54718 -0.39084,1.0162 -0.93802,1.0162 l -2.0324,0 c -0.54718,0 -1.01619,-0.46902 -1.01619,-1.0162 0,-0.54718 0.46901,-0.93803 1.01619,-0.93803 z m 6.01901,0 1.95423,0 c 0.54718,0 1.01619,0.39085 1.01619,0.93803 0,0.54718 -0.46901,1.0162 -1.01619,1.0162 l -1.95423,0 c -0.54718,0 -1.01619,-0.46902 -1.01619,-1.0162 0,-0.54718 0.46901,-0.93803 1.01619,-0.93803 z m 6.01901,0 1.95423,0 c 0.54718,0 1.01619,0.39085 1.01619,0.93803 0,0.54718 -0.46901,1.0162 -1.01619,1.0162 l -1.95423,0 c -0.54718,0 -1.01619,-0.46902 -1.01619,-1.0162 0,-0.54718 0.46901,-0.93803 1.01619,-0.93803 z m 5.94084,0 2.03239,0 c 0.54719,0 1.0162,0.39085 1.0162,0.93803 0,0.54718 -0.46901,1.0162 -1.0162,1.0162 l -2.03239,0 c -0.54718,0 -0.93803,-0.46902 -0.93803,-1.0162 0,-0.54718 0.39085,-0.93803 0.93803,-0.93803 z m 6.01901,0 2.03239,0 c 0.54718,0 1.0162,0.39085 1.0162,0.93803 0,0.54718 -0.46902,1.0162 -1.0162,1.0162 l -2.03239,0 c -0.54718,0 -1.0162,-0.46902 -1.0162,-1.0162 0,-0.54718 0.46902,-0.93803 1.0162,-0.93803 z m 6.01901,0 2.03239,0 c 0.54718,0 0.93803,0.39085 0.93803,0.93803 0,0.54718 -0.39085,1.0162 -0.93803,1.0162 l -2.03239,0 c -0.54718,0 -1.0162,-0.46902 -1.0162,-1.0162 0,-0.54718 0.46902,-0.93803 1.0162,-0.93803 z m 6.01901,0 1.95422,0 c 0.54718,0 1.0162,0.39085 1.0162,0.93803 0,0.54718 -0.46902,1.0162 -1.0162,1.0162 l -1.95422,0 c -0.54719,0 -1.0162,-0.46902 -1.0162,-1.0162 0,-0.54718 0.46901,-0.93803 1.0162,-0.93803 z m 6.01901,0 1.95422,0 c 0.54718,0 1.0162,0.39085 1.0162,0.93803 0,0.54718 -0.46902,1.0162 -1.0162,1.0162 l -1.95422,0 c -0.54719,0 -1.0162,-0.46902 -1.0162,-1.0162 0,-0.54718 0.46901,-0.93803 1.0162,-0.93803 z m 5.94084,0 2.03239,0 c 0.54718,0 1.01619,0.39085 1.01619,0.93803 0,0.54718 -0.46901,1.0162 -1.01619,1.0162 l -2.03239,0 c -0.54719,0 -0.93803,-0.46902 -0.93803,-1.0162 0,-0.54718 0.39084,-0.93803 0.93803,-0.93803 z m 6.019,0 2.0324,0 c 0.54718,0 1.01619,0.39085 1.01619,0.93803 0,0.54718 -0.46901,1.0162 -1.01619,1.0162 l -2.0324,0 c -0.54718,0 -1.01619,-0.46902 -1.01619,-1.0162 0,-0.54718 0.46901,-0.93803 1.01619,-0.93803 z m 6.01901,0 2.0324,0 c 0.54718,0 0.93802,0.39085 0.93802,0.93803 0,0.54718 -0.39084,1.0162 -0.93802,1.0162 l -2.0324,0 c -0.54718,0 -1.01619,-0.46902 -1.01619,-1.0162 0,-0.54718 0.46901,-0.93803 1.01619,-0.93803 z m 6.01901,0 1.95423,0 c 0.54718,0 1.01619,0.39085 1.01619,0.93803 0,0.54718 -0.46901,1.0162 -1.01619,1.0162 l -1.95423,0 c -0.54718,0 -1.01619,-0.46902 -1.01619,-1.0162 0,-0.54718 0.46901,-0.93803 1.01619,-0.93803 z m 6.01901,0 1.95422,0 c 0.54719,0 1.0162,0.39085 1.0162,0.93803 0,0.54718 -0.46901,1.0162 -1.0162,1.0162 l -1.95422,0 c -0.54718,0 -1.0162,-0.46902 -1.0162,-1.0162 0,-0.54718 0.46902,-0.93803 1.0162,-0.93803 z m 5.94084,0 2.03239,0 c 0.54718,0 1.0162,0.39085 1.0162,0.93803 0,0.54718 -0.46902,1.0162 -1.0162,1.0162 l -2.03239,0 c -0.54718,0 -0.93803,-0.46902 -0.93803,-1.0162 0,-0.54718 0.39085,-0.93803 0.93803,-0.93803 z m 6.01901,0 2.03239,0 c 0.54718,0 1.0162,0.39085 1.0162,0.93803 0,0.54718 -0.46902,1.0162 -1.0162,1.0162 l -2.03239,0 c -0.54718,0 -1.0162,-0.46902 -1.0162,-1.0162 0,-0.54718 0.46902,-0.93803 1.0162,-0.93803 z m 6.01901,0 2.03239,0 c 0.54718,0 0.93803,0.39085 0.93803,0.93803 0,0.54718 -0.39085,1.0162 -0.93803,1.0162 l -2.03239,0 c -0.54719,0 -1.0162,-0.46902 -1.0162,-1.0162 0,-0.54718 0.46901,-0.93803 1.0162,-0.93803 z m 6.01901,0 1.95422,0 c 0.54718,0 1.0162,0.39085 1.0162,0.93803 0,0.54718 -0.46902,1.0162 -1.0162,1.0162 l -1.95422,0 c -0.54719,0 -1.0162,-0.46902 -1.0162,-1.0162 0,-0.54718 0.46901,-0.93803 1.0162,-0.93803 z m 2.89225,-1.09436 0,-2.03239 c 0,-0.54719 0.46901,-1.0162 1.01619,-1.0162 0.54719,0 1.0162,0.46901 1.0162,1.0162 l 0,2.03239 c 0,0.54718 -0.46901,0.93803 -1.0162,0.93803 -0.54718,0 -1.01619,-0.39085 -1.01619,-0.93803 z m 0,-6.01901 0,-2.03239 c 0,-0.54718 0.46901,-1.0162 1.01619,-1.0162 0.54719,0 1.0162,0.46902 1.0162,1.0162 l 0,2.03239 c 0,0.54718 -0.46901,1.0162 -1.0162,1.0162 -0.54718,0 -1.01619,-0.46902 -1.01619,-1.0162 z m 0,-6.01901 0,-2.03239 c 0,-0.54718 0.46901,-0.93803 1.01619,-0.93803 0.54719,0 1.0162,0.39085 1.0162,0.93803 l 0,2.03239 c 0,0.54718 -0.46901,1.0162 -1.0162,1.0162 -0.54718,0 -1.01619,-0.46902 -1.01619,-1.0162 z m 0,-6.01901 0,-1.95422 c 0,-0.54718 0.46901,-1.0162 1.01619,-1.0162 0.54719,0 1.0162,0.46902 1.0162,1.0162 l 0,1.95422 c 0,0.54719 -0.46901,1.0162 -1.0162,1.0162 -0.54718,0 -1.01619,-0.46901 -1.01619,-1.0162 z m 0,-6.01901 0,-1.95422 c 0,-0.54718 0.46901,-1.0162 1.01619,-1.0162 0.54719,0 1.0162,0.46902 1.0162,1.0162 l 0,1.95422 c 0,0.54719 -0.46901,1.0162 -1.0162,1.0162 -0.54718,0 -1.01619,-0.46901 -1.01619,-1.0162 z m 0,-5.94084 0,-2.03239 c 0,-0.54718 0.46901,-1.01619 1.01619,-1.01619 0.54719,0 1.0162,0.46901 1.0162,1.01619 l 0,2.03239 c 0,0.54719 -0.46901,0.93803 -1.0162,0.93803 -0.54718,0 -1.01619,-0.39084 -1.01619,-0.93803 z m 0,-6.019 0,-2.0324 c 0,-0.54718 0.46901,-1.01619 1.01619,-1.01619 0.54719,0 1.0162,0.46901 1.0162,1.01619 l 0,2.0324 c 0,0.54718 -0.46901,1.01619 -1.0162,1.01619 -0.54718,0 -1.01619,-0.46901 -1.01619,-1.01619 z m 0,-6.01901 0,-2.0324 c 0,-0.54718 0.46901,-0.93802 1.01619,-0.93802 0.54719,0 1.0162,0.39084 1.0162,0.93802 l 0,2.0324 c 0,0.54718 -0.46901,1.01619 -1.0162,1.01619 -0.54718,0 -1.01619,-0.46901 -1.01619,-1.01619 z m 0,-6.01901 0,-1.95422 c 0,-0.54719 0.46901,-1.0162 1.01619,-1.0162 0.54719,0 1.0162,0.46901 1.0162,1.0162 l 0,1.95422 c 0,0.54718 -0.46901,1.01619 -1.0162,1.01619 -0.54718,0 -1.01619,-0.46901 -1.01619,-1.01619 z m 0,-6.01901 0,-1.95422 c 0,-0.54719 0.46901,-1.0162 1.01619,-1.0162 0.54719,0 1.0162,0.46901 1.0162,1.0162 l 0,1.95422 c 0,0.54718 -0.46901,1.0162 -1.0162,1.0162 -0.54718,0 -1.01619,-0.46902 -1.01619,-1.0162 z m 0,-5.94084 0,-2.03239 c 0,-0.54718 0.46901,-1.0162 1.01619,-1.0162 0.54719,0 1.0162,0.46902 1.0162,1.0162 l 0,2.03239 c 0,0.54718 -0.46901,0.93803 -1.0162,0.93803 -0.54718,0 -1.01619,-0.39085 -1.01619,-0.93803 z m 0,-6.01901 0,-2.03239 c 0,-0.54718 0.46901,-1.0162 1.01619,-1.0162 0.54719,0 1.0162,0.46902 1.0162,1.0162 l 0,2.03239 c 0,0.54718 -0.46901,1.0162 -1.0162,1.0162 -0.54718,0 -1.01619,-0.46902 -1.01619,-1.0162 z m 0,-6.01901 0,-2.03239 c 0,-0.54718 0.46901,-0.93803 1.01619,-0.93803 0.54719,0 1.0162,0.39085 1.0162,0.93803 l 0,2.03239 c 0,0.54719 -0.46901,1.0162 -1.0162,1.0162 -0.54718,0 -1.01619,-0.46901 -1.01619,-1.0162 z m 0,-6.01901 0,-1.95422 c 0,-0.54718 0.46901,-1.0162 1.01619,-1.0162 0.54719,0 1.0162,0.46902 1.0162,1.0162 l 0,1.95422 c 0,0.54719 -0.46901,1.0162 -1.0162,1.0162 -0.54718,0 -1.01619,-0.46901 -1.01619,-1.0162 z m 0,-6.019 0,-1.95423 c 0,-0.54718 0.46901,-1.01619 1.01619,-1.01619 0.54719,0 1.0162,0.46901 1.0162,1.01619 l 0,1.95423 c 0,0.54718 -0.46901,1.01619 -1.0162,1.01619 -0.54718,0 -1.01619,-0.46901 -1.01619,-1.01619 z m 0,-5.94084 0,-2.0324 c 0,-0.54718 0.46901,-1.01619 1.01619,-1.01619 0.54719,0 1.0162,0.46901 1.0162,1.01619 l 0,2.0324 c 0,0.54718 -0.46901,0.93802 -1.0162,0.93802 -0.54718,0 -1.01619,-0.39084 -1.01619,-0.93802 z m -2.57958,-1.40704 -2.03239,0 c -0.54718,0 -1.0162,-0.46902 -1.0162,-1.0162 0,-0.54718 0.46902,-1.0162 1.0162,-1.0162 l 2.03239,0 c 0.54718,0 0.93803,0.46902 0.93803,1.0162 0,0.54718 -0.39085,1.0162 -0.93803,1.0162 z m -6.01901,0 -2.03239,0 c -0.54718,0 -1.0162,-0.46902 -1.0162,-1.0162 0,-0.54718 0.46902,-1.0162 1.0162,-1.0162 l 2.03239,0 c 0.54719,0 1.0162,0.46902 1.0162,1.0162 0,0.54718 -0.46901,1.0162 -1.0162,1.0162 z m -6.01901,0 -2.03239,0 c -0.54718,0 -0.93803,-0.46902 -0.93803,-1.0162 0,-0.54718 0.39085,-1.0162 0.93803,-1.0162 l 2.03239,0 c 0.54719,0 1.0162,0.46902 1.0162,1.0162 0,0.54718 -0.46901,1.0162 -1.0162,1.0162 z m -6.019,0 -1.95423,0 c -0.54718,0 -1.01619,-0.46902 -1.01619,-1.0162 0,-0.54718 0.46901,-1.0162 1.01619,-1.0162 l 1.95423,0 c 0.54718,0 1.01619,0.46902 1.01619,1.0162 0,0.54718 -0.46901,1.0162 -1.01619,1.0162 z m -6.01901,0 -1.95423,0 c -0.54718,0 -1.01619,-0.46902 -1.01619,-1.0162 0,-0.54718 0.46901,-1.0162 1.01619,-1.0162 l 1.95423,0 c 0.54718,0 1.01619,0.46902 1.01619,1.0162 0,0.54718 -0.46901,1.0162 -1.01619,1.0162 z m -5.94084,0 -2.0324,0 c -0.54718,0 -1.01619,-0.46902 -1.01619,-1.0162 0,-0.54718 0.46901,-1.0162 1.01619,-1.0162 l 2.0324,0 c 0.54718,0 0.93802,0.46902 0.93802,1.0162 0,0.54718 -0.39084,1.0162 -0.93802,1.0162 z m -6.01901,0 -2.03239,0 c -0.54719,0 -1.0162,-0.46902 -1.0162,-1.0162 0,-0.54718 0.46901,-1.0162 1.0162,-1.0162 l 2.03239,0 c 0.54718,0 1.01619,0.46902 1.01619,1.0162 0,0.54718 -0.46901,1.0162 -1.01619,1.0162 z m -6.01901,0 -2.03239,0 c -0.54719,0 -0.93803,-0.46902 -0.93803,-1.0162 0,-0.54718 0.39084,-1.0162 0.93803,-1.0162 l 2.03239,0 c 0.54718,0 1.0162,0.46902 1.0162,1.0162 0,0.54718 -0.46902,1.0162 -1.0162,1.0162 z m -6.01901,0 -1.95422,0 c -0.54718,0 -1.0162,-0.46902 -1.0162,-1.0162 0,-0.54718 0.46902,-1.0162 1.0162,-1.0162 l 1.95422,0 c 0.54718,0 1.0162,0.46902 1.0162,1.0162 0,0.54718 -0.46902,1.0162 -1.0162,1.0162 z m -6.01901,0 -1.95422,0 c -0.54718,0 -1.0162,-0.46902 -1.0162,-1.0162 0,-0.54718 0.46902,-1.0162 1.0162,-1.0162 l 1.95422,0 c 0.54719,0 1.0162,0.46902 1.0162,1.0162 0,0.54718 -0.46901,1.0162 -1.0162,1.0162 z m -5.94084,0 -2.03239,0 c -0.54718,0 -1.0162,-0.46902 -1.0162,-1.0162 0,-0.54718 0.46902,-1.0162 1.0162,-1.0162 l 2.03239,0 c 0.54719,0 0.93803,0.46902 0.93803,1.0162 0,0.54718 -0.39084,1.0162 -0.93803,1.0162 z m -6.01901,0 -2.03239,0 c -0.54718,0 -1.01619,-0.46902 -1.01619,-1.0162 0,-0.54718 0.46901,-1.0162 1.01619,-1.0162 l 2.03239,0 c 0.54719,0 1.0162,0.46902 1.0162,1.0162 0,0.54718 -0.46901,1.0162 -1.0162,1.0162 z m -6.019,0 -2.0324,0 c -0.54718,0 -0.93802,-0.46902 -0.93802,-1.0162 0,-0.54718 0.39084,-1.0162 0.93802,-1.0162 l 2.0324,0 c 0.54718,0 1.01619,0.46902 1.01619,1.0162 0,0.54718 -0.46901,1.0162 -1.01619,1.0162 z m -6.01901,0 -1.95423,0 c -0.54718,0 -1.01619,-0.46902 -1.01619,-1.0162 0,-0.54718 0.46901,-1.0162 1.01619,-1.0162 l 1.95423,0 c 0.54718,0 1.01619,0.46902 1.01619,1.0162 0,0.54718 -0.46901,1.0162 -1.01619,1.0162 z m -6.01901,0 -1.95423,0 c -0.54718,0 -1.01619,-0.46902 -1.01619,-1.0162 0,-0.54718 0.46901,-1.0162 1.01619,-1.0162 l 1.95423,0 c 0.54718,0 1.01619,0.46902 1.01619,1.0162 0,0.54718 -0.46901,1.0162 -1.01619,1.0162 z m -5.94084,0 -2.03239,0 c -0.54719,0 -1.0162,-0.46902 -1.0162,-1.0162 0,-0.54718 0.46901,-1.0162 1.0162,-1.0162 l 2.03239,0 c 0.54718,0 0.93803,0.46902 0.93803,1.0162 0,0.54718 -0.39085,1.0162 -0.93803,1.0162 z m -6.01901,0 -2.03239,0 c -0.54719,0 -1.0162,-0.46902 -1.0162,-1.0162 0,-0.54718 0.46901,-1.0162 1.0162,-1.0162 l 2.03239,0 c 0.54718,0 1.0162,0.46902 1.0162,1.0162 0,0.54718 -0.46902,1.0162 -1.0162,1.0162 z m -6.01901,0 -2.03239,0 c -0.54718,0 -0.93803,-0.46902 -0.93803,-1.0162 0,-0.54718 0.39085,-1.0162 0.93803,-1.0162 l 2.03239,0 c 0.54718,0 1.0162,0.46902 1.0162,1.0162 0,0.54718 -0.46902,1.0162 -1.0162,1.0162 z m -6.01901,0 -1.95422,0 c -0.54718,0 -1.0162,-0.46902 -1.0162,-1.0162 0,-0.54718 0.46902,-1.0162 1.0162,-1.0162 l 1.95422,0 c 0.54719,0 1.0162,0.46902 1.0162,1.0162 0,0.54718 -0.46901,1.0162 -1.0162,1.0162 z m -6.01901,0 -1.95422,0 c -0.54718,0 -1.0162,-0.46902 -1.0162,-1.0162 0,-0.54718 0.46902,-1.0162 1.0162,-1.0162 l 1.95422,0 c 0.54719,0 1.0162,0.46902 1.0162,1.0162 0,0.54718 -0.46901,1.0162 -1.0162,1.0162 z m -5.94084,0 -2.03239,0 c -0.54718,0 -1.01619,-0.46902 -1.01619,-1.0162 0,-0.54718 0.46901,-1.0162 1.01619,-1.0162 l 2.03239,0 c 0.54719,0 0.93803,0.46902 0.93803,1.0162 0,0.54718 -0.39084,1.0162 -0.93803,1.0162 z m -6.019,0 -2.0324,0 c -0.54718,0 -1.01619,-0.46902 -1.01619,-1.0162 0,-0.54718 0.46901,-1.0162 1.01619,-1.0162 l 2.0324,0 c 0.54718,0 1.01619,0.46902 1.01619,1.0162 0,0.54718 -0.46901,1.0162 -1.01619,1.0162 z m -6.01901,0 -2.0324,0 c -0.54718,0 -0.93802,-0.46902 -0.93802,-1.0162 0,-0.54718 0.39084,-1.0162 0.93802,-1.0162 l 2.0324,0 c 0.54718,0 1.01619,0.46902 1.01619,1.0162 0,0.54718 -0.46901,1.0162 -1.01619,1.0162 z m -6.01901,0 -1.95423,0 c -0.54718,0 -1.01619,-0.46902 -1.01619,-1.0162 0,-0.54718 0.46901,-1.0162 1.01619,-1.0162 l 1.95423,0 c 0.54718,0 1.01619,0.46902 1.01619,1.0162 0,0.54718 -0.46901,1.0162 -1.01619,1.0162 z m -6.01901,0 -1.95422,0 c -0.54719,0 -1.0162,-0.46902 -1.0162,-1.0162 0,-0.54718 0.46901,-1.0162 1.0162,-1.0162 l 1.95422,0 c 0.54718,0 1.0162,0.46902 1.0162,1.0162 0,0.54718 -0.46902,1.0162 -1.0162,1.0162 z m -5.94084,0 -2.03239,0 c -0.54719,0 -1.0162,-0.46902 -1.0162,-1.0162 0,-0.54718 0.46901,-1.0162 1.0162,-1.0162 l 2.03239,0 c 0.54718,0 0.93803,0.46902 0.93803,1.0162 0,0.54718 -0.39085,1.0162 -0.93803,1.0162 z m -1.32887,2.65774 0,2.03239 c 0,0.54718 -0.46902,1.0162 -1.0162,1.0162 -0.54718,0 -1.01619,-0.46902 -1.01619,-1.0162 l 0,-2.03239 c 0,-0.54718 0.46901,-0.93803 1.01619,-0.93803 0.54718,0 1.0162,0.39085 1.0162,0.93803 z m 0,6.01901 0,2.03239 c 0,0.54718 -0.46902,1.0162 -1.0162,1.0162 -0.54718,0 -1.01619,-0.46902 -1.01619,-1.0162 l 0,-2.03239 c 0,-0.54718 0.46901,-1.0162 1.01619,-1.0162 0.54718,0 1.0162,0.46902 1.0162,1.0162 z m 0,6.01901 0,2.03239 c 0,0.54718 -0.46902,0.93803 -1.0162,0.93803 -0.54718,0 -1.01619,-0.39085 -1.01619,-0.93803 l 0,-2.03239 c 0,-0.54719 0.46901,-1.0162 1.01619,-1.0162 0.54718,0 1.0162,0.46901 1.0162,1.0162 z m 0,6.01901 0,1.95422 c 0,0.54718 -0.46902,1.01619 -1.0162,1.01619 -0.54718,0 -1.01619,-0.46901 -1.01619,-1.01619 l 0,-1.95422 c 0,-0.54719 0.46901,-1.0162 1.01619,-1.0162 0.54718,0 1.0162,0.46901 1.0162,1.0162 z m 0,6.019 0,1.95423 c 0,0.54718 -0.46902,1.01619 -1.0162,1.01619 -0.54718,0 -1.01619,-0.46901 -1.01619,-1.01619 l 0,-1.95423 c 0,-0.62535 0.46901,-1.01619 1.01619,-1.01619 0.54718,0 1.0162,0.39084 1.0162,1.01619 z m 0,5.94084 0,2.0324 c 0,0.54718 -0.46902,1.01619 -1.0162,1.01619 -0.54718,0 -1.01619,-0.46901 -1.01619,-1.01619 l 0,-2.0324 c 0,-0.54718 0.46901,-0.93802 1.01619,-0.93802 0.54718,0 1.0162,0.39084 1.0162,0.93802 z m 0,6.01901 0,2.03239 c 0,0.54719 -0.46902,1.0162 -1.0162,1.0162 -0.54718,0 -1.01619,-0.46901 -1.01619,-1.0162 l 0,-2.03239 c 0,-0.54718 0.46901,-1.01619 1.01619,-1.01619 0.54718,0 1.0162,0.46901 1.0162,1.01619 z m 0,6.01901 0,2.03239 c 0,0.54719 -0.46902,0.93803 -1.0162,0.93803 -0.54718,0 -1.01619,-0.39084 -1.01619,-0.93803 l 0,-2.03239 c 0,-0.54718 0.46901,-1.0162 1.01619,-1.0162 0.54718,0 1.0162,0.46902 1.0162,1.0162 z m 0,6.01901 0,1.95422 c 0,0.54719 -0.46902,1.0162 -1.0162,1.0162 -0.54718,0 -1.01619,-0.46901 -1.01619,-1.0162 l 0,-1.95422 c 0,-0.54718 0.46901,-1.0162 1.01619,-1.0162 0.54718,0 1.0162,0.46902 1.0162,1.0162 z m 0,6.01901 0,1.95422 c 0,0.54718 -0.46902,1.0162 -1.0162,1.0162 -0.54718,0 -1.01619,-0.46902 -1.01619,-1.0162 l 0,-1.95422 c 0,-0.62535 0.46901,-1.0162 1.01619,-1.0162 0.54718,0 1.0162,0.39085 1.0162,1.0162 z m 0,5.94084 0,2.03239 c 0,0.54718 -0.46902,1.0162 -1.0162,1.0162 -0.54718,0 -1.01619,-0.46902 -1.01619,-1.0162 l 0,-2.03239 c 0,-0.54718 0.46901,-0.93803 1.01619,-0.93803 0.54718,0 1.0162,0.39085 1.0162,0.93803 z m 0,6.01901 0,2.03239 c 0,0.54718 -0.46902,1.0162 -1.0162,1.0162 -0.54718,0 -1.01619,-0.46902 -1.01619,-1.0162 l 0,-2.03239 c 0,-0.54719 0.46901,-1.0162 1.01619,-1.0162 0.54718,0 1.0162,0.46901 1.0162,1.0162 z m 0,6.01901 0,2.03239 c 0,0.54718 -0.46902,0.93802 -1.0162,0.93802 -0.54718,0 -1.01619,-0.39084 -1.01619,-0.93802 l 0,-2.03239 c 0,-0.54719 0.46901,-1.0162 1.01619,-1.0162 0.54718,0 1.0162,0.46901 1.0162,1.0162 z m 0,6.019 0,1.95423 c 0,0.54718 -0.46902,1.01619 -1.0162,1.01619 -0.54718,0 -1.01619,-0.46901 -1.01619,-1.01619 l 0,-1.95423 c 0,-0.54718 0.46901,-1.01619 1.01619,-1.01619 0.54718,0 1.0162,0.46901 1.0162,1.01619 z m 0,6.01901 0,1.95423 c 0,0.54718 -0.46902,1.01619 -1.0162,1.01619 -0.54718,0 -1.01619,-0.46901 -1.01619,-1.01619 l 0,-1.95423 c 0,-0.62535 0.46901,-1.01619 1.01619,-1.01619 0.54718,0 1.0162,0.39084 1.0162,1.01619 z m 0,5.94084 0,0.78169 c 0,0.54718 -0.46902,1.0162 -1.0162,1.0162 -0.54718,0 -1.01619,-0.46902 -1.01619,-1.0162 l 0,-0.78169 c 0,-0.54718 0.46901,-0.93803 1.01619,-0.93803 0.54718,0 1.0162,0.39085 1.0162,0.93803 z"
         style="fill:#262626;fill-opacity:1;fill-rule:nonzero;stroke:#262626;stroke-width:1.2507031px;stroke-linecap:butt;stroke-linejoin:bevel;stroke-opacity:1;stroke-dasharray:none"
         inkscape:connector-curvature="0" />
      <text
         id="text3872"
         style="font-size:21.26195335px;font-style:normal;font-weight:normal;text-align:start;text-anchor:start;fill:#000000;font-family:Arial"
         y="237.63359"
         x="665.37402"
         xml:space="preserve">Static Web </text>
      <text
         id="text3874"
         style="font-size:21.26195335px;font-style:normal;font-weight:normal;text-align:start;text-anchor:start;fill:#000000;font-family:Arial"
         y="263.89835"
         x="680.38251"
         xml:space="preserve">Content</text>
      <path
         id="path3876"
         d="m 583.84384,243.10541 2.03239,0 c 0.54718,0 1.0162,0.46902 1.0162,1.0162 0,0.54718 -0.46902,1.0162 -1.0162,1.0162 l -2.03239,0 c -0.54718,0 -1.0162,-0.46902 -1.0162,-1.0162 0.0782,-0.54718 0.46902,-1.0162 1.0162,-1.0162 z m 6.01901,0 2.03239,0 c 0.54718,0 1.0162,0.46902 0.93803,1.0162 0,0.54718 -0.39085,1.0162 -0.93803,1.0162 l -2.03239,0 c -0.54718,0 -1.0162,-0.46902 -1.0162,-1.0162 0,-0.54718 0.46902,-1.0162 1.0162,-1.0162 z m 6.01901,0 2.03239,0 c 0.54718,0 0.93803,0.46902 0.93803,1.0162 0,0.54718 -0.39085,1.0162 -1.0162,1.0162 l -1.95422,0 c -0.54719,0 -1.0162,-0.46902 -1.0162,-1.0162 0,-0.54718 0.46901,-1.0162 1.0162,-1.0162 z m 6.01901,0 1.95422,0 c 0.54718,0 1.01619,0.46902 1.01619,1.0162 0,0.54718 -0.46901,1.0162 -1.01619,1.0162 l -1.95422,0 c -0.54719,0 -1.0162,-0.46902 -1.0162,-1.0162 0,-0.54718 0.46901,-1.0162 1.0162,-1.0162 z m 6.019,0 1.95423,0 c 0.54718,0.0782 1.01619,0.46902 1.01619,1.0162 0,0.54718 -0.46901,1.0162 -1.01619,1.0162 l -2.0324,0 c -0.54718,0 -0.93802,-0.46902 -0.93802,-1.0162 0,-0.54718 0.39084,-1.0162 1.01619,-1.0162 z m 5.94084,0.0782 2.0324,0 c 0.54718,0 1.01619,0.39085 1.01619,0.93803 0,0.54718 -0.46901,1.0162 -1.01619,1.0162 l -2.0324,0 c -0.54718,0 -1.01619,-0.46902 -1.01619,-1.0162 0,-0.54718 0.46901,-0.93803 1.01619,-0.93803 z m 6.01901,0 2.03239,0 c 0.54719,0 1.0162,0.39085 0.93803,0.93803 0,0.62535 -0.39084,1.0162 -0.93803,1.0162 l -2.03239,0 c -0.54718,0 -1.01619,-0.46902 -1.01619,-1.0162 0,-0.54718 0.46901,-0.93803 1.01619,-0.93803 z m 6.01901,0 2.03239,0 c 0.54719,0 0.93803,0.39085 0.93803,1.0162 0,0.54718 -0.39084,0.93803 -1.0162,0.93803 l -1.95422,0 c -0.54718,0 -1.0162,-0.39085 -1.0162,-1.0162 0,-0.54718 0.46902,-0.93803 1.0162,-0.93803 z m 6.01901,0 1.95422,0 c 0.54719,0 1.0162,0.46902 1.0162,1.0162 0,0.54718 -0.46901,0.93803 -1.0162,0.93803 l -1.95422,0 c -0.54718,0 -1.0162,-0.39085 -1.0162,-0.93803 0,-0.54718 0.46902,-1.0162 1.0162,-1.0162 z m 6.01901,0 1.95422,0 c 0.54718,0 1.0162,0.46902 1.0162,1.0162 0,0.54718 -0.46902,1.0162 -1.0162,1.0162 l -2.03239,-0.0782 c -0.54718,0 -0.93803,-0.39085 -0.93803,-0.93803 0,-0.54718 0.39085,-1.0162 1.0162,-1.0162 z"
         style="fill:#262626;fill-opacity:1;fill-rule:nonzero;stroke:#262626;stroke-width:1.2507031px;stroke-linecap:butt;stroke-linejoin:bevel;stroke-opacity:1;stroke-dasharray:none"
         inkscape:connector-curvature="0" />
      <path
         id="path3878"
         d="m 606.90368,88.487244 159.69915,0"
         style="fill:none;stroke:#ffc000;stroke-width:3.59577131px;stroke-linecap:round;stroke-linejoin:round;stroke-opacity:1;stroke-dasharray:none"
         inkscape:connector-curvature="0" />
      <path
         id="path3880"
         d="m 608.8579,96.304138 -23.37251,-7.816894 23.37251,-7.816894 0,15.633788 z"
         style="fill:#ffc000;fill-opacity:1;fill-rule:evenodd;stroke:none"
         inkscape:connector-curvature="0" />
      <path
         id="path3882"
         d="m 764.64861,80.67035 23.37251,7.816894 -23.37251,7.816894 0,-15.633788 z"
         style="fill:#ffc000;fill-opacity:1;fill-rule:evenodd;stroke:none"
         inkscape:connector-curvature="0" />
      <path
         id="path3884"
         d="m 644.11209,68.475995 0,40.022495 85.28232,0 0,-40.022495 -85.28232,0 z"
         style="fill:#ffffff;fill-opacity:1;fill-rule:evenodd;stroke:none"
         inkscape:connector-curvature="0" />
      <text
         id="text3886"
         style="font-size:16.25914001px;font-style:normal;font-weight:normal;text-align:start;text-anchor:start;fill:#000000;font-family:Arial"
         y="83.797104"
         x="660.37122"
         xml:space="preserve">WAMP</text>
      <text
         id="text3888"
         style="font-size:16.25914001px;font-style:normal;font-weight:normal;text-align:start;text-anchor:start;fill:#000000;font-family:Arial"
         y="103.80836"
         x="644.11206"
         xml:space="preserve">WebSocket</text>
      <path
         id="path3890"
         d="m 583.84384,361.29686 2.03239,0 c 0.54718,0 1.0162,0.46901 1.0162,1.01619 0,0.54719 -0.46902,1.0162 -1.0162,1.0162 l -2.03239,0 c -0.54718,0 -1.0162,-0.46901 -1.0162,-1.0162 0.0782,-0.54718 0.46902,-1.01619 1.0162,-1.01619 z m 6.01901,0 2.03239,0 c 0.54718,0 1.0162,0.46901 0.93803,1.01619 0,0.54719 -0.39085,1.0162 -0.93803,1.0162 l -2.03239,0 c -0.54718,0 -1.0162,-0.46901 -1.0162,-1.0162 0,-0.54718 0.46902,-1.01619 1.0162,-1.01619 z m 6.01901,0 2.03239,0 c 0.54718,0 0.93803,0.46901 0.93803,1.01619 0,0.54719 -0.39085,1.0162 -1.0162,1.0162 l -1.95422,0 c -0.54719,0 -1.0162,-0.46901 -1.0162,-1.0162 0,-0.54718 0.46901,-1.01619 1.0162,-1.01619 z m 6.01901,0 1.95422,0 c 0.54718,0 1.01619,0.46901 1.01619,1.01619 0,0.54719 -0.46901,1.0162 -1.01619,1.0162 l -1.95422,0 c -0.54719,0 -1.0162,-0.46901 -1.0162,-1.0162 0,-0.54718 0.46901,-1.01619 1.0162,-1.01619 z m 6.019,0 1.95423,0 c 0.54718,0 1.01619,0.46901 1.01619,1.01619 0,0.54719 -0.46901,1.0162 -1.01619,1.0162 l -2.0324,0 c -0.54718,0 -0.93802,-0.46901 -0.93802,-1.0162 0,-0.54718 0.39084,-1.01619 1.01619,-1.01619 z m 5.94084,0 2.0324,0 c 0.54718,0 1.01619,0.46901 1.01619,1.01619 0,0.54719 -0.46901,1.0162 -1.01619,1.0162 l -2.0324,0 c -0.54718,0 -1.01619,-0.46901 -1.01619,-1.0162 0,-0.54718 0.46901,-1.01619 1.01619,-1.01619 z m 6.01901,0 2.03239,0 c 0.54719,0 1.0162,0.46901 0.93803,1.01619 0,0.54719 -0.39084,1.0162 -0.93803,1.0162 l -2.03239,0 c -0.54718,0 -1.01619,-0.46901 -1.01619,-1.0162 0,-0.54718 0.46901,-1.01619 1.01619,-1.01619 z m 6.01901,0.0782 2.03239,0 c 0.54719,0 0.93803,0.39084 0.93803,0.93802 0,0.54719 -0.39084,1.0162 -1.0162,1.0162 l -1.95422,0 c -0.54718,0 -1.0162,-0.46901 -1.0162,-1.0162 0,-0.54718 0.46902,-0.93802 1.0162,-0.93802 z m 6.01901,0 1.95422,0 c 0.54719,0 1.0162,0.39084 1.0162,0.93802 0,0.62535 -0.46901,1.0162 -1.0162,1.0162 l -1.95422,0 c -0.54718,0 -1.0162,-0.46901 -1.0162,-1.0162 0,-0.54718 0.46902,-0.93802 1.0162,-0.93802 z m 6.01901,0 1.95422,0 c 0.54718,0 1.0162,0.39084 1.0162,1.01619 0,0.54718 -0.46902,0.93803 -1.0162,0.93803 l -2.03239,0 c -0.54718,0 -0.93803,-0.39085 -0.93803,-1.0162 0,-0.54718 0.39085,-0.93802 1.0162,-0.93802 z"
         style="fill:#262626;fill-opacity:1;fill-rule:nonzero;stroke:#262626;stroke-width:1.2507031px;stroke-linecap:butt;stroke-linejoin:bevel;stroke-opacity:1;stroke-dasharray:none"
         inkscape:connector-curvature="0" />
      <path
         id="path3892"
         d="m 161.73154,240.83851 181.03928,0"
         style="fill:none;stroke:#262626;stroke-width:3.59577131px;stroke-linecap:round;stroke-linejoin:round;stroke-opacity:1;stroke-dasharray:none"
         inkscape:connector-curvature="0" />
      <path
         id="path3894"
         d="m 340.89476,233.09979 23.37252,7.73872 -23.37252,7.8169 0,-15.55562 z"
         style="fill:#262626;fill-opacity:1;fill-rule:evenodd;stroke:none"
         inkscape:connector-curvature="0" />
      <path
         id="path3896"
         d="m 241.22936,230.83289 0,20.01125 43.5401,0 0,-20.01125 -43.5401,0 z"
         style="fill:#ffffff;fill-opacity:1;fill-rule:evenodd;stroke:none"
         inkscape:connector-curvature="0" />
      <text
         id="text3898"
         style="font-size:16.25914001px;font-style:normal;font-weight:normal;text-align:start;text-anchor:start;fill:#000000;font-family:Arial"
         y="246.3885"
         x="241.3857"
         xml:space="preserve">HTTP</text>
      <path
         id="path3900"
         d="m 161.73154,363.79826 181.03928,0"
         style="fill:none;stroke:#262626;stroke-width:3.59577131px;stroke-linecap:round;stroke-linejoin:round;stroke-opacity:1;stroke-dasharray:none"
         inkscape:connector-curvature="0" />
      <path
         id="path3902"
         d="m 340.89476,355.98137 23.37252,7.81689 -23.37252,7.73873 0,-15.55562 z"
         style="fill:#262626;fill-opacity:1;fill-rule:evenodd;stroke:none"
         inkscape:connector-curvature="0" />
      <path
         id="path3904"
         d="m 241.22936,353.79264 0,20.01125 43.5401,0 0,-20.01125 -43.5401,0 z"
         style="fill:#ffffff;fill-opacity:1;fill-rule:evenodd;stroke:none"
         inkscape:connector-curvature="0" />
      <text
         id="text3906"
         style="font-size:16.25914001px;font-style:normal;font-weight:normal;text-align:start;text-anchor:start;fill:#000000;font-family:Arial"
         y="368.9574"
         x="241.3857"
         xml:space="preserve">HTTP</text>
    </g>
  </g>
</svg>
