<?xml version="1.0" encoding="UTF-8" standalone="no"?>
<!-- Created with Inkscape (http://www.inkscape.org/) -->

<svg
   xmlns:dc="http://purl.org/dc/elements/1.1/"
   xmlns:cc="http://creativecommons.org/ns#"
   xmlns:rdf="http://www.w3.org/1999/02/22-rdf-syntax-ns#"
   xmlns:svg="http://www.w3.org/2000/svg"
   xmlns="http://www.w3.org/2000/svg"
   xmlns:sodipodi="http://sodipodi.sourceforge.net/DTD/sodipodi-0.dtd"
   xmlns:inkscape="http://www.inkscape.org/namespaces/inkscape"
   width="865.5625"
   height="516.78247"
   id="svg2"
   version="1.1"
   inkscape:version="0.48.4 r9939"
   sodipodi:docname="crossbar_application_scenario_1.svg">
  <defs
     id="defs4" />
  <sodipodi:namedview
     id="base"
     pagecolor="#ffffff"
     bordercolor="#666666"
     borderopacity="1.0"
     inkscape:pageopacity="0.0"
     inkscape:pageshadow="2"
     inkscape:zoom="0.98994949"
     inkscape:cx="351.48775"
     inkscape:cy="231.38831"
     inkscape:document-units="px"
     inkscape:current-layer="layer1"
     showgrid="false"
     fit-margin-top="10"
     fit-margin-bottom="10"
     fit-margin-left="10"
     fit-margin-right="10"
     inkscape:window-width="1680"
     inkscape:window-height="988"
     inkscape:window-x="-8"
     inkscape:window-y="320"
     inkscape:window-maximized="1" />
  <metadata
     id="metadata7">
    <rdf:RDF>
      <cc:Work
         rdf:about="">
        <dc:format>image/svg+xml</dc:format>
        <dc:type
           rdf:resource="http://purl.org/dc/dcmitype/StillImage" />
        <dc:title />
      </cc:Work>
    </rdf:RDF>
  </metadata>
  <g
     inkscape:label="Ebene 1"
     inkscape:groupmode="layer"
     id="layer1"
     transform="translate(520.99077,-118.18168)">
    <g
       id="g3204"
       transform="translate(-512.95952,126.27606)">
      <path
         id="path3206"
         d="m 822.10278,178.22519 c 13.05421,0 23.60702,-10.55281 23.60702,-23.60702 l 0,0 0,-104.590046 c 0,-13.054214 -10.55281,-23.607021 -23.60702,-23.607021 l 0,0 -173.53506,0 c -13.05421,0 -23.60702,10.552807 -23.60702,23.607021 l 0,0 0,104.590046 c 0,13.05421 10.55281,23.60702 23.60702,23.60702 l 0,0 173.53506,0 z"
         style="fill:#f2f2f2;fill-opacity:1;fill-rule:evenodd;stroke:none"
         inkscape:connector-curvature="0" />
      <path
         id="path3208"
         d="m 822.10278,178.22519 c 13.05421,0 23.60702,-10.55281 23.60702,-23.60702 l 0,0 0,-104.590046 c 0,-13.054214 -10.55281,-23.607021 -23.60702,-23.607021 l 0,0 -173.53506,0 c -13.05421,0 -23.60702,10.552807 -23.60702,23.607021 l 0,0 0,104.590046 c 0,13.05421 10.55281,23.60702 23.60702,23.60702 l 0,0 173.53506,0 z"
         style="fill:none;stroke:#000000;stroke-width:3.59577131px;stroke-linecap:round;stroke-linejoin:round;stroke-opacity:1;stroke-dasharray:none"
         inkscape:connector-curvature="0" />
      <text
         id="text3210"
         style="font-size:23.76335907px;font-style:normal;font-weight:normal;text-align:start;text-anchor:start;fill:#000000;font-family:Arial"
         y="95.053436"
         x="667.87543"
         xml:space="preserve">Your existing</text>
      <text
         id="text3212"
         style="font-size:23.76335907px;font-style:normal;font-weight:normal;text-align:start;text-anchor:start;fill:#000000;font-family:Arial"
         y="123.81961"
         x="650.3656"
         xml:space="preserve">Web Application</text>
      <path
         id="path3214"
         d="m 138.04635,460.64958 c 13.05422,0 23.68519,-10.63097 23.68519,-23.68519 l 0,0 0,-387.561618 c 0,-13.054213 -10.63097,-23.68519 -23.68519,-23.68519 l 0,0 -110.68722,0 c -13.054213,0 -23.6070207,10.630977 -23.6070207,23.68519 l 0,0 0,387.561618 c 0,13.05422 10.5528077,23.68519 23.6070207,23.68519 l 0,0 110.68722,0 z"
         style="fill:#f2f2f2;fill-opacity:1;fill-rule:evenodd;stroke:none"
         inkscape:connector-curvature="0" />
      <path
         id="path3216"
         d="m 138.04635,460.64958 c 13.05422,0 23.68519,-10.63097 23.68519,-23.68519 l 0,0 0,-387.561618 c 0,-13.054213 -10.63097,-23.68519 -23.68519,-23.68519 l 0,0 -110.68722,0 c -13.054213,0 -23.6070207,10.630977 -23.6070207,23.68519 l 0,0 0,387.561618 c 0,13.05422 10.5528077,23.68519 23.6070207,23.68519 l 0,0 110.68722,0 z"
         style="fill:none;stroke:#000000;stroke-width:3.59577131px;stroke-linecap:round;stroke-linejoin:round;stroke-opacity:1;stroke-dasharray:none"
         inkscape:connector-curvature="0" />
      <text
         id="text3218"
         style="font-size:23.76335907px;font-style:normal;font-weight:normal;text-align:start;text-anchor:start;fill:#000000;font-family:Arial"
         y="236.38289"
         x="58.783047"
         xml:space="preserve">Web </text>
      <text
         id="text3220"
         style="font-size:23.76335907px;font-style:normal;font-weight:normal;text-align:start;text-anchor:start;fill:#000000;font-family:Arial"
         y="263.89835"
         x="36.27039"
         xml:space="preserve">Frontend</text>
      <path
         id="path3222"
         d="m 607.91987,102.32315 -446.18833,0 0,-0.23451"
         style="fill:none;stroke:#262626;stroke-width:2.0323925px;stroke-linecap:round;stroke-linejoin:round;stroke-opacity:1;stroke-dasharray:none"
         inkscape:connector-curvature="0" />
      <path
         id="path3224"
         d="m 606.35649,96.147801 18.60421,6.175349 -18.60421,6.25351 0,-12.428859 z"
         style="fill:#262626;fill-opacity:1;fill-rule:evenodd;stroke:none"
         inkscape:connector-curvature="0" />
      <path
         id="path3226"
         d="m 735.33525,178.22519 0,17.74435 -0.31267,0 0,80.51401"
         style="fill:none;stroke:#262626;stroke-width:2.0323925px;stroke-linecap:round;stroke-linejoin:round;stroke-opacity:1;stroke-dasharray:none"
         inkscape:connector-curvature="0" />
      <path
         id="path3228"
         d="m 741.27609,274.92017 -6.25351,18.60421 -6.17535,-18.60421 12.42886,0 z"
         style="fill:#262626;fill-opacity:1;fill-rule:evenodd;stroke:none"
         inkscape:connector-curvature="0" />
      <path
         id="path3230"
         d="m 821.32109,461.97846 c 13.05421,0 23.60702,-10.63098 23.60702,-23.68519 l 0,0 0,-121.0837 c 0,-13.05421 -10.55281,-23.68519 -23.60702,-23.68519 l 0,0 -172.51886,0 c -13.05421,0 -23.68519,10.63098 -23.68519,23.68519 l 0,0 0,121.0837 c 0,13.05421 10.63098,23.68519 23.68519,23.68519 l 0,0 172.51886,0 z"
         style="fill:#ffe100;fill-opacity:1;fill-rule:evenodd;stroke:none"
         inkscape:connector-curvature="0" />
      <path
         id="path3232"
         d="m 821.32109,461.97846 c 13.05421,0 23.60702,-10.63098 23.60702,-23.68519 l 0,0 0,-121.0837 c 0,-13.05421 -10.55281,-23.68519 -23.60702,-23.68519 l 0,0 -172.51886,0 c -13.05421,0 -23.68519,10.63098 -23.68519,23.68519 l 0,0 0,121.0837 c 0,13.05421 10.63098,23.68519 23.68519,23.68519 l 0,0 172.51886,0 z"
         style="fill:none;stroke:#ffc000;stroke-width:5.23731899px;stroke-linecap:round;stroke-linejoin:round;stroke-opacity:1;stroke-dasharray:none"
         inkscape:connector-curvature="0" />
      <path
         id="path3234"
         d="m 674.75432,427.58412 c -2.18873,0.46901 -4.29929,0.70352 -6.25351,0.70352 -0.78169,0 -1.56338,0 -2.2669,-0.0782 -0.70352,-0.0782 -1.48521,-0.2345 -2.34507,-0.46901 -0.85986,-0.23451 -1.56338,-0.54718 -2.18873,-0.93803 -0.62535,-0.39084 -1.09437,-0.93803 -1.56338,-1.64155 -0.39085,-0.70352 -0.62535,-1.56338 -0.62535,-2.5014 l 0,-8.44225 c 0,-3.90845 2.97042,-5.86267 8.98943,-5.86267 1.40704,0 3.5176,0.23451 6.09717,0.70352 l 0,3.43943 c -2.34507,-0.54718 -4.37746,-0.85985 -6.01901,-0.85985 -0.70352,0 -1.2507,0.0782 -1.71971,0.0782 -0.39085,0.0782 -0.85986,0.15633 -1.32887,0.31267 -0.46902,0.15634 -0.78169,0.39085 -1.0162,0.78169 -0.23451,0.31268 -0.31268,0.78169 -0.31268,1.32887 l 0,8.20774 c 0,1.71972 1.56338,2.65775 4.76831,2.65775 1.40704,0 3.28309,-0.31268 5.7845,-0.85986 l 0,3.43943 z"
         style="fill:#000000;fill-opacity:1;fill-rule:evenodd;stroke:none"
         inkscape:connector-curvature="0" />
      <path
         id="path3236"
         d="m 686.94868,416.87498 -1.48521,0 c -1.17254,0 -2.0324,0.15633 -2.65775,0.54718 -0.62535,0.39084 -0.93803,1.01619 -0.93803,1.87605 l 0,8.67676 -4.29929,0 0,-14.38309 4.06479,0 0,2.50141 c 0.0782,-0.70352 0.46901,-1.32888 1.2507,-1.95423 0.85986,-0.54718 1.64155,-0.85986 2.50141,-0.85986 l 1.56338,0 0,3.59578 z"
         style="fill:#000000;fill-opacity:1;fill-rule:evenodd;stroke:none"
         inkscape:connector-curvature="0" />
      <path
         id="path3238"
         d="m 703.52049,418.75103 0,4.29929 c 0,0.93803 -0.15634,1.71972 -0.46901,2.42324 -0.23451,0.62535 -0.62535,1.17253 -1.09437,1.48521 -0.39084,0.39084 -0.93802,0.70352 -1.64154,0.85986 -0.78169,0.2345 -1.40705,0.31267 -1.95423,0.39084 -0.62535,0.0782 -1.32887,0.0782 -2.11056,0.0782 -0.85986,0 -1.56338,0 -2.11056,-0.0782 -0.62535,-0.0782 -1.2507,-0.15634 -1.95423,-0.39084 -0.70352,-0.15634 -1.32887,-0.46902 -1.71971,-0.85986 -0.46902,-0.31268 -0.78169,-0.85986 -1.09437,-1.48521 -0.31267,-0.70352 -0.46901,-1.48521 -0.46901,-2.42324 l 0,-4.29929 c 0,-0.93803 0.15634,-1.79789 0.46901,-2.50141 0.31268,-0.70352 0.70352,-1.2507 1.09437,-1.64154 0.46901,-0.39085 1.09436,-0.62536 1.79788,-0.85986 0.70352,-0.23451 1.32888,-0.31268 1.87606,-0.39085 0.62535,-0.0782 1.2507,-0.0782 2.11056,-0.0782 0.78169,0 1.48521,0 2.03239,0.0782 0.54719,0.0782 1.25071,0.15634 1.95423,0.39085 0.70352,0.2345 1.2507,0.46901 1.71971,0.85986 0.46902,0.39084 0.78169,0.93802 1.09437,1.64154 0.31267,0.70352 0.46901,1.56338 0.46901,2.50141 z m -4.29929,4.76831 0,-5.39366 c 0,-0.78169 -0.23451,-1.32887 -0.62535,-1.64155 -0.39085,-0.39084 -1.17254,-0.54718 -2.34507,-0.54718 -1.2507,0 -2.03239,0.15634 -2.42324,0.54718 -0.39084,0.31268 -0.54718,0.85986 -0.54718,1.64155 l 0,5.39366 c 0,0.78169 0.15634,1.32887 0.54718,1.64154 0.39085,0.23451 1.17254,0.39085 2.42324,0.39085 1.17253,0 1.95422,-0.15634 2.34507,-0.39085 0.39084,-0.31267 0.62535,-0.85985 0.62535,-1.64154 z"
         style="fill:#000000;fill-opacity:1;fill-rule:evenodd;stroke:none"
         inkscape:connector-curvature="0" />
      <path
         id="path3240"
         d="m 719.31062,422.3468 0,1.79789 c 0,0.78169 -0.15634,1.32887 -0.39085,1.87605 -0.2345,0.54718 -0.62535,0.93803 -1.01619,1.17254 -0.39085,0.31267 -0.93803,0.54718 -1.56338,0.70352 -0.70352,0.15633 -1.32887,0.2345 -1.95423,0.31267 -0.54718,0.0782 -1.2507,0.0782 -2.11056,0.0782 -1.56338,0 -3.43943,-0.15634 -5.62816,-0.46901 l 0,-2.89225 c 2.73591,0.46901 4.61197,0.62535 5.70633,0.62535 0.85986,0 1.48521,-0.0782 1.95423,-0.23451 0.46901,-0.15634 0.70352,-0.46901 0.70352,-1.01619 l 0,-0.85986 c 0,-0.46902 -0.0782,-0.78169 -0.39085,-1.0162 -0.23451,-0.23451 -0.78169,-0.39084 -1.64155,-0.39084 l -1.87605,0 c -1.48521,0 -2.65774,-0.23451 -3.5176,-0.85986 -0.85986,-0.62535 -1.25071,-1.48521 -1.25071,-2.65775 l 0,-1.79788 c 0,-1.32887 0.62536,-2.18873 1.87606,-2.65775 1.2507,-0.54718 2.97042,-0.78169 5.31549,-0.78169 0.93802,0 2.65774,0.0782 5.08098,0.23451 l 0,2.81408 c -3.12676,-0.2345 -4.84648,-0.39084 -5.23732,-0.39084 -1.17254,0 -1.95422,0.0782 -2.2669,0.31267 -0.31268,0.15634 -0.46901,0.46902 -0.46901,0.93803 l 0,0.78169 c 0,0.23451 0.0782,0.46901 0.31267,0.62535 0.31268,0.23451 0.62535,0.31268 1.17254,0.31268 l 1.87605,0 c 3.59577,0 5.31549,1.17253 5.31549,3.43943 z"
         style="fill:#000000;fill-opacity:1;fill-rule:evenodd;stroke:none"
         inkscape:connector-curvature="0" />
      <path
         id="path3242"
         d="m 734.94441,422.3468 0,1.79789 c 0,0.78169 -0.15634,1.32887 -0.39085,1.87605 -0.31267,0.54718 -0.62535,0.93803 -1.01619,1.17254 -0.39085,0.31267 -0.93803,0.54718 -1.64155,0.70352 -0.62535,0.15633 -1.2507,0.2345 -1.87606,0.31267 -0.54718,0.0782 -1.2507,0.0782 -2.11056,0.0782 -1.56338,0 -3.43943,-0.15634 -5.62816,-0.46901 l 0,-2.89225 c 2.73591,0.46901 4.61197,0.62535 5.70633,0.62535 0.85986,0 1.48521,-0.0782 1.95422,-0.23451 0.46902,-0.15634 0.70353,-0.46901 0.70353,-1.01619 l 0,-0.85986 c 0,-0.46902 -0.0782,-0.78169 -0.39085,-1.0162 -0.23451,-0.23451 -0.78169,-0.39084 -1.64155,-0.39084 l -1.87605,0 c -1.48521,0 -2.65775,-0.23451 -3.5176,-0.85986 -0.85986,-0.62535 -1.25071,-1.48521 -1.25071,-2.65775 l 0,-1.79788 c 0,-1.32887 0.62535,-2.18873 1.87606,-2.65775 1.2507,-0.54718 2.97042,-0.78169 5.23732,-0.78169 1.01619,0 2.65774,0.0782 5.15915,0.23451 l 0,2.81408 c -3.12676,-0.2345 -4.84648,-0.39084 -5.23732,-0.39084 -1.25071,0 -1.95423,0.0782 -2.2669,0.31267 -0.31268,0.15634 -0.54718,0.46902 -0.54718,0.93803 l 0,0.78169 c 0,0.23451 0.15633,0.46901 0.39084,0.62535 0.31268,0.23451 0.62535,0.31268 1.17253,0.31268 l 1.87606,0 c 3.5176,0 5.31549,1.17253 5.31549,3.43943 z"
         style="fill:#000000;fill-opacity:1;fill-rule:evenodd;stroke:none"
         inkscape:connector-curvature="0" />
      <path
         id="path3244"
         d="m 752.92326,418.12568 0,4.7683 c 0,1.95423 -0.62535,3.36127 -1.79788,4.14296 -1.17254,0.85986 -3.04859,1.2507 -5.70633,1.2507 -2.73592,0 -4.61197,-0.46901 -5.70634,-1.32887 -1.01619,-0.85986 -1.56338,-2.18873 -1.56338,-4.06479 l 0,-15.71195 4.37746,0 0,7.81689 c 0.23451,-0.62535 0.70353,-1.09436 1.40705,-1.32887 0.70352,-0.23451 1.79788,-0.39085 3.20492,-0.39085 1.25071,0 2.2669,0.0782 3.04859,0.31268 0.78169,0.15634 1.32887,0.46901 1.71972,0.93803 0.39084,0.46901 0.70352,0.93802 0.78169,1.48521 0.15634,0.54718 0.2345,1.2507 0.2345,2.11056 z m -4.37746,5.31549 0,-5.31549 c 0,-0.93803 -0.15633,-1.56338 -0.46901,-1.79789 -0.39085,-0.2345 -1.2507,-0.39084 -2.57958,-0.39084 -1.2507,0 -2.03239,0.15634 -2.42323,0.46901 -0.39085,0.31268 -0.54719,0.93803 -0.54719,1.71972 l 0,5.31549 c 0,0.85986 0.15634,1.40704 0.54719,1.71971 0.39084,0.23451 1.17253,0.39085 2.42323,0.39085 1.25071,0 2.11057,-0.15634 2.50141,-0.39085 0.39085,-0.31267 0.54718,-0.85985 0.54718,-1.71971 z"
         style="fill:#000000;fill-opacity:1;fill-rule:evenodd;stroke:none"
         inkscape:connector-curvature="0" />
      <path
         id="path3246"
         d="m 769.26057,427.97497 -4.29929,0 0,-1.32888 c -0.31267,0.62536 -0.78169,1.0162 -1.32887,1.25071 -0.62535,0.2345 -1.71972,0.39084 -3.2831,0.39084 -1.95422,0 -3.20492,-0.31267 -3.83027,-0.85986 -0.62536,-0.62535 -1.0162,-1.87605 -1.0162,-3.75211 0,-1.71971 0.39084,-2.89225 1.0162,-3.59577 0.62535,-0.62535 1.79788,-0.93802 3.5176,-0.93802 l 4.84647,0 0,-1.0162 c 0,-0.85986 -0.15634,-1.40704 -0.62535,-1.71972 -0.39084,-0.31267 -1.2507,-0.46901 -2.50141,-0.46901 -1.2507,0 -2.97042,0.15634 -5.08098,0.39084 l 0,-2.73591 c 1.64155,-0.23451 3.43944,-0.31268 5.47183,-0.31268 2.65774,0 4.5338,0.31268 5.54999,0.93803 1.0162,0.70352 1.56338,1.95423 1.56338,3.83028 l 0,9.92746 z m -4.37746,-3.67394 0,-2.81409 -2.97042,0 c -0.93802,0 -1.56338,0.15634 -1.79788,0.31268 -0.23451,0.23451 -0.31268,0.85986 -0.31268,1.79788 0,0.93803 0.0782,1.48521 0.39085,1.64155 0.2345,0.23451 0.85985,0.31268 1.87605,0.31268 0.46901,0 0.85986,0 1.09437,0 0.2345,0 0.46901,0 0.78169,-0.0782 0.2345,0 0.46901,-0.0782 0.54718,-0.15634 0.15634,-0.15634 0.2345,-0.23451 0.31267,-0.39084 0.0782,-0.15634 0.0782,-0.39085 0.0782,-0.62535 z"
         style="fill:#000000;fill-opacity:1;fill-rule:evenodd;stroke:none"
         inkscape:connector-curvature="0" />
      <path
         id="path3248"
         d="m 782.47112,416.87498 -1.48521,0 c -1.17253,0 -2.11056,0.15633 -2.65774,0.54718 -0.62535,0.39084 -0.93803,1.01619 -0.93803,1.87605 l 0,8.67676 -4.29929,0 0,-14.38309 4.14296,0 0,2.50141 c 0,-0.70352 0.39084,-1.32888 1.17253,-1.95423 0.85986,-0.54718 1.64155,-0.85986 2.50141,-0.85986 l 1.56337,0 0,3.59578 z"
         style="fill:#000000;fill-opacity:1;fill-rule:evenodd;stroke:none"
         inkscape:connector-curvature="0" />
      <path
         id="path3250"
         d="m 785.0507,424.77004 0,3.20493 3.43943,0 0,-3.20493 -3.43943,0 z"
         style="fill:#000000;fill-opacity:1;fill-rule:evenodd;stroke:none"
         inkscape:connector-curvature="0" />
      <path
         id="path3252"
         d="m 795.52534,411.16864 -2.65775,0 0,-2.81408 2.65775,0 0,2.81408 z m 0,16.80633 -2.65775,0 0,-14.38309 2.65775,0 0,14.38309 z"
         style="fill:#000000;fill-opacity:1;fill-rule:evenodd;stroke:none"
         inkscape:connector-curvature="0" />
      <path
         id="path3254"
         d="m 812.87884,418.43835 0,5.00282 c 0,0.85986 -0.0782,1.64154 -0.31267,2.2669 -0.15634,0.62535 -0.46902,1.09436 -0.78169,1.40704 -0.39085,0.31267 -0.85986,0.62535 -1.48521,0.78169 -0.62535,0.15633 -1.17254,0.31267 -1.79789,0.31267 -0.54718,0.0782 -1.32887,0.0782 -2.18873,0.0782 -1.2507,0 -2.18873,0 -2.81408,-0.15634 -0.70352,-0.0782 -1.32887,-0.2345 -1.95422,-0.54718 -0.70352,-0.31267 -1.17254,-0.78169 -1.48521,-1.48521 -0.23451,-0.70352 -0.39085,-1.56338 -0.39085,-2.65774 l 0,-5.00282 c 0,-0.93802 0.0782,-1.79788 0.31268,-2.42323 0.2345,-0.62535 0.54718,-1.17254 0.85986,-1.48521 0.31267,-0.39085 0.78169,-0.62535 1.40704,-0.85986 0.62535,-0.15634 1.2507,-0.31268 1.79788,-0.31268 0.54719,-0.0782 1.25071,-0.0782 2.2669,-0.0782 0.93803,0 1.64155,0 2.18873,0.0782 0.54719,0 1.17254,0.15634 1.79789,0.31268 0.62535,0.23451 1.09436,0.46901 1.40704,0.85986 0.39084,0.31267 0.62535,0.85986 0.85986,1.48521 0.2345,0.62535 0.31267,1.48521 0.31267,2.42323 z m -2.73591,5.39366 0,-5.86267 c 0,-1.32887 -0.23451,-2.11056 -0.78169,-2.42324 -0.54718,-0.39084 -1.56338,-0.54718 -3.04859,-0.54718 -1.56338,0 -2.57957,0.15634 -3.12676,0.54718 -0.54718,0.31268 -0.78168,1.09437 -0.78168,2.42324 l 0,5.86267 c 0,0.62535 0.0782,1.09437 0.2345,1.48521 0.0782,0.39085 0.39085,0.70352 0.70352,0.85986 0.39085,0.15634 0.78169,0.23451 1.17254,0.31268 0.39084,0 1.01619,0 1.79788,0 0.70352,0 1.32887,0 1.71972,0 0.39084,-0.0782 0.78169,-0.15634 1.17253,-0.31268 0.39085,-0.15634 0.62535,-0.46901 0.78169,-0.85986 0.15634,-0.39084 0.15634,-0.85986 0.15634,-1.48521 z"
         style="fill:#000000;fill-opacity:1;fill-rule:evenodd;stroke:none"
         inkscape:connector-curvature="0" />
      <path
         id="path3256"
         d="m 700.70641,325.96449 0,64.9584 64.88022,0 0,-64.9584 -64.88022,0 z"
         style="fill:#000000;fill-opacity:1;fill-rule:evenodd;stroke:none"
         inkscape:connector-curvature="0" />
      <path
         id="path3258"
         d="m 700.70641,339.72223 0,6.48802 15.32111,0 10.16197,10.16196 4.69013,-4.69013 -12.03802,-12.03802 -18.13519,0.0782 z"
         style="fill:#ffe100;fill-opacity:1;fill-rule:evenodd;stroke:none"
         inkscape:connector-curvature="0" />
      <path
         id="path3260"
         d="m 740.02539,360.90601 -4.69014,4.69014 11.64717,11.64717 18.60421,0 0,-6.56619 -15.71195,0 -9.84929,-9.77112 z"
         style="fill:#ffe100;fill-opacity:1;fill-rule:evenodd;stroke:none"
         inkscape:connector-curvature="0" />
      <path
         id="path3262"
         d="m 747.45144,339.64406 -30.9549,31.11124 -15.79013,0 0,6.48802 18.52604,0 31.03307,-31.03307 15.32111,0 0,-6.56619 -18.13519,0 z"
         style="fill:#ffe100;fill-opacity:1;fill-rule:evenodd;stroke:none"
         inkscape:connector-curvature="0" />
      <path
         id="path3264"
         d="m 183.30617,376.38346 441.81087,1.40704"
         style="fill:none;stroke:#ffc000;stroke-width:3.59577131px;stroke-linecap:round;stroke-linejoin:round;stroke-opacity:1;stroke-dasharray:none"
         inkscape:connector-curvature="0" />
      <path
         id="path3266"
         d="m 185.2604,384.12219 -23.37252,-7.8169 23.45069,-7.73872 -0.0782,15.55562 z"
         style="fill:#ffc000;fill-opacity:1;fill-rule:evenodd;stroke:none"
         inkscape:connector-curvature="0" />
      <path
         id="path3268"
         d="m 248.81175,449.08058 0,-29.62603 108.02948,0 81.60837,-42.2894 -24.85772,42.2894 108.02948,0 0,79.0288 -272.80961,0 0,-49.40277 z"
         style="fill:#ffffff;fill-opacity:1;fill-rule:evenodd;stroke:none"
         inkscape:connector-curvature="0" />
      <path
         id="path3270"
         d="m 248.81175,449.08058 0,-29.62603 108.02948,0 81.60837,-42.2894 -24.85772,42.2894 108.02948,0 0,79.0288 -272.80961,0 0,-49.40277 z"
         style="fill:none;stroke:#000000;stroke-width:0.3908447px;stroke-linecap:round;stroke-linejoin:round;stroke-opacity:1;stroke-dasharray:none"
         inkscape:connector-curvature="0" />
      <text
         id="text3272"
         style="font-size:16.25914001px;font-style:normal;font-weight:normal;text-align:start;text-anchor:start;fill:#000000;font-family:Arial"
         y="443.9996"
         x="255.14343"
         xml:space="preserve">Real</text>
      <text
         id="text3274"
         style="font-size:16.25914001px;font-style:normal;font-weight:normal;text-align:start;text-anchor:start;fill:#000000;font-family:Arial"
         y="443.9996"
         x="290.16312"
         xml:space="preserve">-</text>
      <text
         id="text3276"
         style="font-size:16.25914001px;font-style:normal;font-weight:normal;text-align:start;text-anchor:start;fill:#000000;font-family:Arial"
         y="443.9996"
         x="295.16592"
         xml:space="preserve">time data updates and </text>
      <text
         id="text3278"
         style="font-size:16.25914001px;font-style:normal;font-weight:normal;text-align:start;text-anchor:start;fill:#000000;font-family:Arial"
         y="464.01086"
         x="255.14343"
         xml:space="preserve">notifications sent over WAMP</text>
      <text
         id="text3280"
         style="font-size:16.25914001px;font-style:normal;font-weight:normal;text-align:start;text-anchor:start;fill:#000000;font-family:Arial"
         y="464.01086"
         x="472.76578"
         xml:space="preserve">/</text>
      <text
         id="text3282"
         style="font-size:16.25914001px;font-style:normal;font-weight:normal;text-align:start;text-anchor:start;fill:#000000;font-family:Arial"
         y="484.02209"
         x="255.14343"
         xml:space="preserve">WebSocket</text>
      <path
         id="path3284"
         d="m 300.16874,23.68519 0,-21.5746285 238.49345,0 0,57.6105115 -90.91048,0 32.04927,42.602077 -88.72176,-42.602077 -90.91048,0 0,-36.035883 z"
         style="fill:#ffffff;fill-opacity:1;fill-rule:evenodd;stroke:none"
         inkscape:connector-curvature="0" />
      <path
         id="path3286"
         d="m 300.16874,23.68519 0,-21.5746285 238.49345,0 0,57.6105115 -90.91048,0 32.04927,42.602077 -88.72176,-42.602077 -90.91048,0 0,-36.035883 z"
         style="fill:none;stroke:#000000;stroke-width:0.3908447px;stroke-linecap:round;stroke-linejoin:round;stroke-opacity:1;stroke-dasharray:none"
         inkscape:connector-curvature="0" />
      <text
         id="text3288"
         style="font-size:16.25914001px;font-style:normal;font-weight:normal;text-align:start;text-anchor:start;fill:#000000;font-family:Arial"
         y="26.264765"
         x="306.42227"
         xml:space="preserve">Request</text>
      <text
         id="text3290"
         style="font-size:16.25914001px;font-style:normal;font-weight:normal;text-align:start;text-anchor:start;fill:#000000;font-family:Arial"
         y="26.264765"
         x="368.9574"
         xml:space="preserve">/</text>
      <text
         id="text3292"
         style="font-size:16.25914001px;font-style:normal;font-weight:normal;text-align:start;text-anchor:start;fill:#000000;font-family:Arial"
         y="26.264765"
         x="373.96024"
         xml:space="preserve">response interaction </text>
      <text
         id="text3294"
         style="font-size:16.25914001px;font-style:normal;font-weight:normal;text-align:start;text-anchor:start;fill:#000000;font-family:Arial"
         y="46.276016"
         x="306.42227"
         xml:space="preserve">over HTTP or Ajax</text>
      <path
         id="path3296"
         d="m 385.21655,197.68926 0,-30.09505 189.09068,0 0,30.09505 160.71535,40.80419 -160.71535,-20.71477 0,30.17321 -189.09068,0 0,-50.26263 z"
         style="fill:#ffffff;fill-opacity:1;fill-rule:evenodd;stroke:none"
         inkscape:connector-curvature="0" />
      <path
         id="path3298"
         d="m 385.21655,197.68926 0,-30.09505 189.09068,0 0,30.09505 160.71535,40.80419 -160.71535,-20.71477 0,30.17321 -189.09068,0 0,-50.26263 z"
         style="fill:none;stroke:#000000;stroke-width:0.3908447px;stroke-linecap:round;stroke-linejoin:round;stroke-opacity:1;stroke-dasharray:none"
         inkscape:connector-curvature="0" />
      <text
         id="text3300"
         style="font-size:16.25914001px;font-style:normal;font-weight:normal;text-align:start;text-anchor:start;fill:#000000;font-family:Arial"
         y="192.60828"
         x="391.47006"
         xml:space="preserve">Inject WAMP events </text>
      <text
         id="text3302"
         style="font-size:16.25914001px;font-style:normal;font-weight:normal;text-align:start;text-anchor:start;fill:#000000;font-family:Arial"
         y="212.61954"
         x="391.47006"
         xml:space="preserve">via plain old HTTP</text>
      <text
         id="text3304"
         style="font-size:16.25914001px;font-style:normal;font-weight:normal;text-align:start;text-anchor:start;fill:#000000;font-family:Arial"
         y="212.61954"
         x="527.79669"
         xml:space="preserve">/</text>
      <text
         id="text3306"
         style="font-size:16.25914001px;font-style:normal;font-weight:normal;text-align:start;text-anchor:start;fill:#000000;font-family:Arial"
         y="232.63078"
         x="391.47006"
         xml:space="preserve">POST requests</text>
    </g>
  </g>
</svg>
