<?xml version="1.0" encoding="UTF-8" standalone="no"?>
<!-- Created with Inkscape (http://www.inkscape.org/) -->

<svg
   xmlns:dc="http://purl.org/dc/elements/1.1/"
   xmlns:cc="http://creativecommons.org/ns#"
   xmlns:rdf="http://www.w3.org/1999/02/22-rdf-syntax-ns#"
   xmlns:svg="http://www.w3.org/2000/svg"
   xmlns="http://www.w3.org/2000/svg"
   xmlns:sodipodi="http://sodipodi.sourceforge.net/DTD/sodipodi-0.dtd"
   xmlns:inkscape="http://www.inkscape.org/namespaces/inkscape"
   width="786.02545"
   height="367.3486"
   id="svg2"
   version="1.1"
   inkscape:version="0.48.4 r9939"
   sodipodi:docname="crossbar_deployment_00b.svg">
  <defs
     id="defs4" />
  <sodipodi:namedview
     id="base"
     pagecolor="#ffffff"
     bordercolor="#666666"
     borderopacity="1.0"
     inkscape:pageopacity="0.0"
     inkscape:pageshadow="2"
     inkscape:zoom="0.98994949"
     inkscape:cx="456.4905"
     inkscape:cy="104.23327"
     inkscape:document-units="px"
     inkscape:current-layer="layer1"
     showgrid="false"
     fit-margin-top="10"
     fit-margin-bottom="10"
     fit-margin-left="10"
     fit-margin-right="10"
     inkscape:window-width="1680"
     inkscape:window-height="988"
     inkscape:window-x="-8"
     inkscape:window-y="320"
     inkscape:window-maximized="1" />
  <metadata
     id="metadata7">
    <rdf:RDF>
      <cc:Work
         rdf:about="">
        <dc:format>image/svg+xml</dc:format>
        <dc:type
           rdf:resource="http://purl.org/dc/dcmitype/StillImage" />
        <dc:title />
      </cc:Work>
    </rdf:RDF>
  </metadata>
  <g
     inkscape:label="Ebene 1"
     inkscape:groupmode="layer"
     id="layer1"
     transform="translate(625.99352,-140.46061)">
    <g
       id="g3028"
       transform="translate(-617.89977,148.58456)">
      <path
         id="path3030"
         d="m 262.10047,1.8760546 0,307.2821154 505.83123,0 0,-307.2821154 -505.83123,0 z"
         style="fill:#729fdc;fill-opacity:1;fill-rule:evenodd;stroke:none"
         inkscape:connector-curvature="0" />
      <text
         id="text3032"
         style="font-size:23.76335907px;font-style:normal;font-weight:bold;text-align:start;text-anchor:start;fill:#404040;font-family:Arial"
         y="348.94617"
         x="489.0249"
         xml:space="preserve">Host</text>
      <path
         id="path3034"
         d="m 481.05168,285.55115 c 13.05421,0 23.68519,-10.63098 23.68519,-23.68519 l 0,0 0,-221.843461 c 0,-13.054213 -10.63098,-23.607021 -23.68519,-23.607021 l 0,0 -174.70759,0 c -13.05421,0 -23.68519,10.552808 -23.68519,23.607021 l 0,0 0,221.843461 c 0,13.05421 10.63098,23.68519 23.68519,23.68519 l 0,0 174.70759,0 z"
         style="fill:#d9d9d9;fill-opacity:1;fill-rule:evenodd;stroke:none"
         inkscape:connector-curvature="0" />
      <text
         id="text3036"
         style="font-size:20.01124954px;font-style:normal;font-weight:bold;text-align:start;text-anchor:start;fill:#404040;font-family:Arial"
         y="268.90118"
         x="307.67297"
         xml:space="preserve">Crossbar</text>
      <text
         id="text3038"
         style="font-size:20.01124954px;font-style:normal;font-weight:bold;text-align:start;text-anchor:start;fill:#404040;font-family:Arial"
         y="268.90118"
         x="395.22217"
         xml:space="preserve">.</text>
      <text
         id="text3040"
         style="font-size:20.01124954px;font-style:normal;font-weight:bold;text-align:start;text-anchor:start;fill:#404040;font-family:Arial"
         y="268.90118"
         x="400.22498"
         xml:space="preserve">io </text>
      <text
         id="text3042"
         style="font-size:20.01124954px;font-style:normal;font-weight:normal;text-align:start;text-anchor:start;fill:#404040;font-family:Arial"
         y="268.90118"
         x="423.98834"
         xml:space="preserve">Node</text>
      <path
         id="path3044"
         d="m 314.08282,189.16884 0,22.51266 c 0,6.25351 34.94151,11.25633 78.0126,11.25633 43.07109,0 78.01261,-5.00282 78.01261,-11.25633 0,0 0,0 0,0 l 0,0 0,-22.51266 c 0,-6.17534 -34.94152,-11.25632 -78.01261,-11.25632 -43.07109,0 -78.0126,5.08098 -78.0126,11.25632 z"
         style="fill:#ffde00;fill-opacity:1;fill-rule:evenodd;stroke:none"
         inkscape:connector-curvature="0" />
      <path
         id="path3046"
         d="m 314.08282,189.16884 0,22.51266 c 0,6.25351 34.94151,11.25633 78.0126,11.25633 43.07109,0 78.01261,-5.00282 78.01261,-11.25633 0,0 0,0 0,0 l 0,0 0,-22.51266 c 0,-6.17534 -34.94152,-11.25632 -78.01261,-11.25632 -43.07109,0 -78.0126,5.08098 -78.0126,11.25632 z"
         style="fill:none;stroke:#000000;stroke-width:1.17253411px;stroke-linecap:round;stroke-linejoin:round;stroke-opacity:1;stroke-dasharray:none"
         inkscape:connector-curvature="0" />
      <path
         id="path3048"
         d="m 314.08282,189.16884 c 0,6.25352 34.94151,11.25633 78.0126,11.25633 43.07109,0 78.01261,-5.00281 78.01261,-11.25633 0,0 0,0 0,0"
         style="fill:none;stroke:#000000;stroke-width:1.17253411px;stroke-linecap:round;stroke-linejoin:round;stroke-opacity:1;stroke-dasharray:none"
         inkscape:connector-curvature="0" />
      <path
         id="path3050"
         d="m 392.72077,149.69353 -0.62535,0 0,28.21899"
         style="fill:none;stroke:#000000;stroke-width:2.0323925px;stroke-linecap:round;stroke-linejoin:round;stroke-opacity:1;stroke-dasharray:none"
         inkscape:connector-curvature="0" />
      <path
         id="path3052"
         d="m 460.64958,146.4886 c 13.05422,0 23.60703,-10.55281 23.60703,-23.60702 l 0,0 0,-62.300649 c 0,-13.054213 -10.55281,-23.607021 -23.60703,-23.607021 l 0,0 -137.10832,0 c -13.05422,0 -23.60702,10.552808 -23.60702,23.607021 l 0,0 0,62.300649 c 0,13.05421 10.5528,23.60702 23.60702,23.60702 l 0,0 137.10832,0 z"
         style="fill:#ffe100;fill-opacity:1;fill-rule:evenodd;stroke:none"
         inkscape:connector-curvature="0" />
      <path
         id="path3054"
         d="m 460.64958,146.4886 c 13.05422,0 23.60703,-10.55281 23.60703,-23.60702 l 0,0 0,-62.300649 c 0,-13.054213 -10.55281,-23.607021 -23.60703,-23.607021 l 0,0 -137.10832,0 c -13.05422,0 -23.60702,10.552808 -23.60702,23.607021 l 0,0 0,62.300649 c 0,13.05421 10.5528,23.60702 23.60702,23.60702 l 0,0 137.10832,0 z"
         style="fill:none;stroke:#ffc000;stroke-width:5.23731899px;stroke-linecap:round;stroke-linejoin:round;stroke-opacity:1;stroke-dasharray:none"
         inkscape:connector-curvature="0" />
      <path
         id="path3056"
         d="m 363.32925,64.176703 0,54.405587 54.32742,0 0,-54.405587 -54.32742,0 z"
         style="fill:#000000;fill-opacity:1;fill-rule:evenodd;stroke:none"
         inkscape:connector-curvature="0" />
      <path
         id="path3058"
         d="m 363.32925,75.667537 0,5.471826 12.81971,0 8.52041,8.520415 3.90845,-3.908447 -10.0838,-10.161963 -15.16477,0.07817 z"
         style="fill:#ffe100;fill-opacity:1;fill-rule:evenodd;stroke:none"
         inkscape:connector-curvature="0" />
      <path
         id="path3060"
         d="m 396.31654,93.411888 -3.98661,3.908447 9.77112,9.771115 15.55562,0 0,-5.39365 -13.13239,0 -8.20774,-8.285912 z"
         style="fill:#ffe100;fill-opacity:1;fill-rule:evenodd;stroke:none"
         inkscape:connector-curvature="0" />
      <path
         id="path3062"
         d="m 402.49189,75.667537 -25.95209,26.030263 -13.21055,0 0,5.47182 15.47745,0 26.10843,-26.030257 12.74154,0 0,-5.471826 -15.16478,0 z"
         style="fill:#ffe100;fill-opacity:1;fill-rule:evenodd;stroke:none"
         inkscape:connector-curvature="0" />
      <path
         id="path3064"
         d="m 724.54794,285.55115 c 13.05421,0 23.60702,-10.63098 23.60702,-23.68519 l 0,0 0,-221.843461 c 0,-13.054213 -10.55281,-23.607021 -23.60702,-23.607021 l 0,0 -174.78576,0 c -13.05421,0 -23.60702,10.552808 -23.60702,23.607021 l 0,0 0,221.843461 c 0,13.05421 10.55281,23.68519 23.60702,23.68519 l 174.78576,0 z"
         style="fill:#d9d9d9;fill-opacity:1;fill-rule:evenodd;stroke:none"
         inkscape:connector-curvature="0" />
      <text
         id="text3066"
         style="font-size:20.01124954px;font-style:normal;font-weight:bold;text-align:start;text-anchor:start;fill:#404040;font-family:Arial"
         y="268.90118"
         x="550.30939"
         xml:space="preserve">Crossbar</text>
      <text
         id="text3068"
         style="font-size:20.01124954px;font-style:normal;font-weight:bold;text-align:start;text-anchor:start;fill:#404040;font-family:Arial"
         y="268.90118"
         x="639.10925"
         xml:space="preserve">.</text>
      <text
         id="text3070"
         style="font-size:20.01124954px;font-style:normal;font-weight:bold;text-align:start;text-anchor:start;fill:#404040;font-family:Arial"
         y="268.90118"
         x="644.11206"
         xml:space="preserve">io </text>
      <text
         id="text3072"
         style="font-size:20.01124954px;font-style:normal;font-weight:normal;text-align:start;text-anchor:start;fill:#404040;font-family:Arial"
         y="268.90118"
         x="667.87543"
         xml:space="preserve">Node</text>
      <path
         id="path3074"
         d="m 557.57907,189.16884 0,22.51266 c 0,6.25351 34.86335,11.25633 77.93444,11.25633 43.07109,0 78.01261,-5.00282 78.01261,-11.25633 0,0 0,0 0,0 l 0,-22.51266 c 0,-6.17534 -34.94152,-11.25632 -78.01261,-11.25632 -43.07109,0 -77.93444,5.08098 -77.93444,11.25632 z"
         style="fill:#ffde00;fill-opacity:1;fill-rule:evenodd;stroke:none"
         inkscape:connector-curvature="0" />
      <path
         id="path3076"
         d="m 557.57907,189.16884 0,22.51266 c 0,6.25351 34.86335,11.25633 77.93444,11.25633 43.07109,0 78.01261,-5.00282 78.01261,-11.25633 0,0 0,0 0,0 l 0,-22.51266 c 0,-6.17534 -34.94152,-11.25632 -78.01261,-11.25632 -43.07109,0 -77.93444,5.08098 -77.93444,11.25632 z"
         style="fill:none;stroke:#000000;stroke-width:1.17253411px;stroke-linecap:round;stroke-linejoin:round;stroke-opacity:1;stroke-dasharray:none"
         inkscape:connector-curvature="0" />
      <path
         id="path3078"
         d="m 557.57907,189.16884 c 0,6.25352 34.86335,11.25633 77.93444,11.25633 43.07109,0 78.01261,-5.00281 78.01261,-11.25633 0,0 0,0 0,0"
         style="fill:none;stroke:#000000;stroke-width:1.17253411px;stroke-linecap:round;stroke-linejoin:round;stroke-opacity:1;stroke-dasharray:none"
         inkscape:connector-curvature="0" />
      <path
         id="path3080"
         d="m 636.13886,149.69353 -0.62535,0 0,28.21899"
         style="fill:none;stroke:#000000;stroke-width:2.0323925px;stroke-linecap:round;stroke-linejoin:round;stroke-opacity:1;stroke-dasharray:none"
         inkscape:connector-curvature="0" />
      <path
         id="path3082"
         d="m 704.06767,146.4886 c 13.05422,0 23.68519,-10.55281 23.68519,-23.60702 l 0,0 0,-62.300649 c 0,-13.054213 -10.63097,-23.607021 -23.68519,-23.607021 l 0,0 -137.10832,0 c -13.05422,0 -23.60702,10.552808 -23.60702,23.607021 l 0,0 0,62.300649 c 0,13.05421 10.5528,23.60702 23.60702,23.60702 l 0,0 137.10832,0 z"
         style="fill:#ffe100;fill-opacity:1;fill-rule:evenodd;stroke:none"
         inkscape:connector-curvature="0" />
      <path
         id="path3084"
         d="m 704.06767,146.4886 c 13.05422,0 23.68519,-10.55281 23.68519,-23.60702 l 0,0 0,-62.300649 c 0,-13.054213 -10.63097,-23.607021 -23.68519,-23.607021 l 0,0 -137.10832,0 c -13.05422,0 -23.60702,10.552808 -23.60702,23.607021 l 0,0 0,62.300649 c 0,13.05421 10.5528,23.60702 23.60702,23.60702 l 0,0 137.10832,0 z"
         style="fill:none;stroke:#ffc000;stroke-width:5.23731899px;stroke-linecap:round;stroke-linejoin:round;stroke-opacity:1;stroke-dasharray:none"
         inkscape:connector-curvature="0" />
      <path
         id="path3086"
         d="m 606.74734,64.176703 0,54.405587 54.40558,0 0,-54.405587 -54.40558,0 z"
         style="fill:#000000;fill-opacity:1;fill-rule:evenodd;stroke:none"
         inkscape:connector-curvature="0" />
      <path
         id="path3088"
         d="m 606.74734,75.667537 0,5.471826 12.81971,0 8.52041,8.520415 3.98662,-3.908447 -10.16197,-10.161963 -15.16477,0.07817 z"
         style="fill:#ffe100;fill-opacity:1;fill-rule:evenodd;stroke:none"
         inkscape:connector-curvature="0" />
      <path
         id="path3090"
         d="m 639.73463,93.411888 -3.90844,3.908447 9.69295,9.771115 15.63378,0 0,-5.39365 -13.21055,0 -8.20774,-8.285912 z"
         style="fill:#ffe100;fill-opacity:1;fill-rule:evenodd;stroke:none"
         inkscape:connector-curvature="0" />
      <path
         id="path3092"
         d="m 645.90998,75.667537 -25.87392,26.030263 -13.28872,0 0,5.47182 15.55562,0 26.03026,-26.030257 12.8197,0 0,-5.471826 -15.24294,0 z"
         style="fill:#ffe100;fill-opacity:1;fill-rule:evenodd;stroke:none"
         inkscape:connector-curvature="0" />
      <path
         id="path3094"
         d="m 2.1105615,78.247112 0,-29.078847 212.6976985,0 0,77.387255 -79.73233,0 179.00689,73.86965 -232.161767,-73.86965 -79.8104915,0 0,-48.308408 z"
         style="fill:#ffffff;fill-opacity:1;fill-rule:evenodd;stroke:none"
         inkscape:connector-curvature="0" />
      <path
         id="path3096"
         d="m 2.1105615,78.247112 0,-29.078847 212.6976985,0 0,77.387255 -79.73233,0 179.00689,73.86965 -232.161767,-73.86965 -79.8104915,0 0,-48.308408 z"
         style="fill:none;stroke:#000000;stroke-width:0.3908447px;stroke-linecap:round;stroke-linejoin:round;stroke-opacity:1;stroke-dasharray:none"
         inkscape:connector-curvature="0" />
      <text
         id="text3098"
         style="font-size:16.25914001px;font-style:normal;font-weight:normal;text-align:start;text-anchor:start;fill:#000000;font-family:Arial"
         y="72.540779"
         x="8.7549219"
         xml:space="preserve">Each Crossbar</text>
      <text
         id="text3100"
         style="font-size:16.25914001px;font-style:normal;font-weight:normal;text-align:start;text-anchor:start;fill:#000000;font-family:Arial"
         y="72.540779"
         x="118.81679"
         xml:space="preserve">.</text>
      <text
         id="text3102"
         style="font-size:16.25914001px;font-style:normal;font-weight:normal;text-align:start;text-anchor:start;fill:#000000;font-family:Arial"
         y="72.540779"
         x="123.81961"
         xml:space="preserve">io node </text>
      <text
         id="text3104"
         style="font-size:16.25914001px;font-style:normal;font-weight:normal;text-align:start;text-anchor:start;fill:#000000;font-family:Arial"
         y="92.552032"
         x="8.7549219"
         xml:space="preserve">has it’s own</text>
      <text
         id="text3106"
         style="font-size:16.25914001px;font-style:normal;font-weight:normal;text-align:start;text-anchor:start;fill:#000000;font-family:Arial"
         y="92.552032"
         x="96.304138"
         xml:space="preserve">, </text>
      <text
         id="text3108"
         style="font-size:16.25914001px;font-style:normal;font-weight:normal;text-align:start;text-anchor:start;fill:#000000;font-family:Arial"
         y="92.552032"
         x="105.05906"
         xml:space="preserve">dedicated </text>
      <text
         id="text3110"
         style="font-size:16.25914001px;font-style:normal;font-weight:bold;text-align:start;text-anchor:start;fill:#000000;font-family:Arial"
         y="112.56328"
         x="8.7549219"
         xml:space="preserve">node data directory</text>
    </g>
  </g>
</svg>
