<?xml version="1.0" encoding="UTF-8" standalone="no"?>
<svg xmlns:rdf="http://www.w3.org/1999/02/22-rdf-syntax-ns#" xmlns="http://www.w3.org/2000/svg" version="1.1" xmlns:cc="http://creativecommons.org/ns#" xmlns:dc="http://purl.org/dc/elements/1.1/" viewBox="0 0 879.38 643.59">
<g transform="translate(546.21 -405.41)">
<g transform="translate(-538.18 413.51)">
<path d="m138.05 221.92c13.054 0 23.685-10.553 23.685-23.607v-118.19c0-13.054-10.631-23.685-23.685-23.685h-110.69c-13.054 0-23.607 10.631-23.607 23.685v118.19c0 13.054 10.553 23.607 23.607 23.607h110.69z" fill-rule="evenodd" fill="#f2f2f2"/>
<path stroke-linejoin="round" d="m138.05 221.92c13.054 0 23.685-10.553 23.685-23.607v0-118.19c0-13.054-10.631-23.685-23.685-23.685v0h-110.69c-13.054 0-23.607 10.631-23.607 23.685v0 118.19c0 13.054 10.553 23.607 23.607 23.607v0h110.69z" stroke="#000" stroke-linecap="round" stroke-width="3.5958px" fill="none"/>
<text font-weight="bold" xml:space="preserve" font-size="23.763px" y="132.57452" x="56.281639" font-family="Arial" fill="#000000">User </text>
<text font-weight="bold" xml:space="preserve" font-size="23.763px" y="160.09" x="33.768986" font-family="Arial" fill="#000000">Interface</text>
<path d="m522.32 425.79c13.054 0 23.607-10.631 23.607-23.607v-121.16c0-13.054-10.553-23.607-23.607-23.607h-172.52c-13.054 0-23.685 10.553-23.685 23.607v121.16c0 12.976 10.631 23.607 23.685 23.607h172.52z" fill-rule="evenodd" fill="#ffe100"/>
<path stroke-linejoin="round" d="m522.32 425.79c13.054 0 23.607-10.631 23.607-23.607v0-121.16c0-13.054-10.553-23.607-23.607-23.607h-172.52c-13.054 0-23.685 10.553-23.685 23.607v0 121.16c0 12.976 10.631 23.607 23.685 23.607v0h172.52z" stroke="#ffc000" stroke-linecap="round" stroke-width="5.2373px" fill="none"/>
<path d="m375.76 391.47c-2.1887 0.39084-4.2993 0.62535-6.2535 0.62535-0.78169 0-1.5634 0-2.2669-0.0782-0.70352-0.0782-1.4852-0.23451-2.3451-0.46901-0.85986-0.23451-1.5634-0.54718-2.1887-0.93803-0.62535-0.39084-1.0944-0.93803-1.5634-1.6416-0.39085-0.70352-0.62535-1.4852-0.62535-2.5014v-8.4422c0-3.9084 3.0486-5.8627 8.9894-5.8627 1.4852 0 3.5176 0.23451 6.0972 0.70352v3.4394c-2.3451-0.54718-4.3775-0.78169-6.019-0.78169h-1.6415c-0.46902 0.0782-0.93803 0.15634-1.407 0.31268-0.46902 0.15634-0.78169 0.39085-1.0162 0.78169-0.23451 0.31268-0.31268 0.78169-0.31268 1.3289v8.2077c0 1.7979 1.5634 2.6578 4.7683 2.6578 1.407 0 3.3613-0.31268 5.7845-0.85986v3.5176z" fill-rule="evenodd"/>
<path d="m387.95 380.68h-1.4852c-1.1725 0-2.0324 0.23451-2.6578 0.54719-0.62535 0.39084-0.93802 1.0162-0.93802 1.876v8.6768h-4.2993v-14.383h4.143v2.5014c0-0.70352 0.39084-1.3289 1.1725-1.9542 0.85986-0.54718 1.6416-0.85986 2.5796-0.85986h1.4852v3.5958z" fill-rule="evenodd"/>
<path d="m404.52 382.64v4.2211c0 0.93803-0.0782 1.7197-0.39084 2.4232-0.31268 0.62535-0.70352 1.1725-1.0944 1.5634-0.46901 0.31267-1.0162 0.62535-1.7197 0.78169-0.70352 0.2345-1.407 0.39084-1.9542 0.39084-0.62535 0.0782-1.2507 0.0782-2.1106 0.0782-0.85986 0-1.5634 0-2.1106-0.0782-0.62535 0-1.2507-0.15634-1.9542-0.39084-0.70352-0.15634-1.2507-0.46902-1.7197-0.78169-0.46901-0.39085-0.78169-0.93803-1.0944-1.5634-0.31267-0.70352-0.46901-1.4852-0.46901-2.4232v-4.2211c0-1.0162 0.15634-1.8761 0.46901-2.5796 0.31268-0.70352 0.70352-1.2507 1.1725-1.6415 0.39084-0.39085 1.0162-0.62536 1.7197-0.85986 0.70353-0.23451 1.3289-0.31268 1.8761-0.39085 0.62535-0.0782 1.2507-0.0782 2.1106-0.0782 0.78169 0 1.4852 0 2.0324 0.0782 0.54719 0.0782 1.2507 0.15634 1.9542 0.39085 0.70352 0.2345 1.2507 0.46901 1.7197 0.85986 0.46902 0.39084 0.78169 0.93802 1.0944 1.6415 0.31267 0.70352 0.46901 1.5634 0.46901 2.5796zm-4.2993 4.6901v-5.3937c0-0.78169-0.23451-1.3289-0.62535-1.6416-0.39085-0.31268-1.1725-0.54718-2.3451-0.54718-1.1725 0-2.0324 0.2345-2.4232 0.54718-0.39084 0.31268-0.54718 0.85986-0.54718 1.6416v5.3937c0 0.78168 0.15634 1.3289 0.54718 1.6415 0.39085 0.31268 1.1725 0.39085 2.4232 0.39085 1.1725 0 1.9542-0.0782 2.3451-0.39085 0.39084-0.31267 0.62535-0.85986 0.62535-1.6415z" fill-rule="evenodd"/>
<path d="m420.31 386.15v1.8761c0 0.70352-0.15634 1.3289-0.39085 1.7979-0.2345 0.54718-0.62535 0.93803-1.0162 1.2507-0.39085 0.23451-0.93803 0.46902-1.5634 0.62536-0.70352 0.15633-1.3289 0.31267-1.8761 0.31267-0.62535 0.0782-1.3289 0.0782-2.1106 0.0782-1.6415 0-3.5176-0.15634-5.7063-0.46901v-2.8922c2.7359 0.46901 4.612 0.62535 5.7063 0.62535 0.85986 0 1.5634-0.0782 1.9542-0.23451 0.46901-0.15634 0.70352-0.46901 0.70352-1.0162v-0.85985c0-0.46902-0.0782-0.78169-0.31268-1.0162-0.31267-0.23451-0.85986-0.39084-1.7197-0.39084h-1.876c-1.4852 0-2.6577-0.23451-3.5176-0.85986-0.85986-0.62535-1.2507-1.4852-1.2507-2.6578v-1.7979c0-1.2507 0.62536-2.1887 1.8761-2.6578 1.2507-0.54718 3.0486-0.78169 5.3155-0.78169 0.93802 0 2.6577 0.0782 5.081 0.23451v2.8141c-3.0486-0.2345-4.8465-0.39084-5.2373-0.39084-1.1725 0-1.9542 0.0782-2.2669 0.31267-0.31268 0.15634-0.46901 0.46902-0.46901 0.93803v0.78169c0 0.23451 0.0782 0.46901 0.39084 0.62535 0.23451 0.23451 0.62535 0.31268 1.0944 0.31268h1.9542c3.5176 0 5.2373 1.1725 5.2373 3.4394z" fill-rule="evenodd"/>
<path d="m435.95 386.15v1.8761c0 0.70352-0.15634 1.3289-0.39085 1.7979-0.31267 0.54718-0.62535 0.93803-1.0162 1.2507-0.39085 0.23451-0.93803 0.46902-1.5634 0.62536-0.70352 0.15633-1.3289 0.31267-1.9542 0.31267-0.54718 0.0782-1.2507 0.0782-2.1106 0.0782-1.5634 0-3.4394-0.15634-5.6282-0.46901v-2.8922c2.7359 0.46901 4.612 0.62535 5.7063 0.62535 0.85986 0 1.4852-0.0782 1.9542-0.23451 0.46901-0.15634 0.70352-0.46901 0.70352-1.0162v-0.85985c0-0.46902-0.0782-0.78169-0.39085-1.0162-0.23451-0.23451-0.78169-0.39084-1.6416-0.39084h-1.876c-1.4852 0-2.6578-0.23451-3.5176-0.85986-0.85986-0.62535-1.2507-1.4852-1.2507-2.6578v-1.7979c0-1.2507 0.62535-2.1887 1.8761-2.6578 1.2507-0.54718 2.9704-0.78169 5.3155-0.78169 0.93802 0 2.6577 0.0782 5.081 0.23451v2.8141c-3.1268-0.2345-4.8465-0.39084-5.2373-0.39084-1.1725 0-1.9542 0.0782-2.2669 0.31267-0.31268 0.15634-0.46901 0.46902-0.46901 0.93803v0.78169c0 0.23451 0.0782 0.46901 0.31267 0.62535 0.31268 0.23451 0.62535 0.31268 1.1725 0.31268h1.876c3.5176 0 5.3155 1.1725 5.3155 3.4394z" fill-rule="evenodd"/>
<path d="m453.93 381.93v4.7683c0 1.9542-0.62536 3.3613-1.7979 4.143-1.1725 0.85986-3.0486 1.2507-5.7063 1.2507-2.7359 0-4.612-0.39084-5.7063-1.2507-1.0162-0.93803-1.5634-2.2669-1.5634-4.143v-15.712h4.3775v7.8169c0.2345-0.62535 0.70352-1.0944 1.407-1.3289 0.70352-0.23451 1.7979-0.39085 3.2831-0.39085 1.1725 0 2.1887 0.0782 2.9704 0.31268 0.78169 0.15634 1.3289 0.54718 1.7197 0.93803 0.39084 0.46901 0.70352 0.93802 0.85986 1.4852 0.0782 0.54718 0.15634 1.2507 0.15634 2.1106zm-4.3775 5.3155v-5.3155c0-0.93803-0.15633-1.5634-0.46901-1.7979-0.39084-0.2345-1.2507-0.39084-2.5796-0.39084-1.2507 0-2.0324 0.15634-2.4232 0.46901-0.39085 0.39085-0.54718 0.93803-0.54718 1.7197v5.3155c0 0.85985 0.15633 1.407 0.54718 1.7197 0.39084 0.31268 1.1725 0.39085 2.4232 0.39085s2.1106-0.0782 2.5014-0.39085c0.39085-0.31267 0.54718-0.85986 0.54718-1.7197z" fill-rule="evenodd"/>
<path d="m470.26 391.78h-4.2993v-1.3289c-0.31267 0.62535-0.70352 1.0162-1.3289 1.2507-0.62535 0.31267-1.7197 0.39084-3.2831 0.39084-1.9542 0-3.2049-0.31268-3.8303-0.85986-0.62536-0.62535-0.93803-1.876-0.93803-3.7521 0-1.7197 0.31267-2.8922 0.93803-3.5176 0.62535-0.70352 1.7979-1.0162 3.5176-1.0162h4.8465v-1.0162c0-0.85986-0.15633-1.407-0.54718-1.7197-0.46901-0.31267-1.3289-0.46901-2.5796-0.46901s-2.9704 0.15634-5.081 0.39084v-2.7359c1.6416-0.23451 3.5176-0.31268 5.4718-0.31268 2.6577 0 4.5338 0.31268 5.55 0.93803 1.0162 0.70352 1.5634 1.9542 1.5634 3.8303v9.9274zm-4.3775-3.6739v-2.8141h-2.9704c-0.93802 0-1.4852 0.15634-1.7197 0.31268-0.23451 0.23451-0.39085 0.85986-0.39085 1.7979 0 0.93803 0.15634 1.4852 0.39085 1.7197 0.2345 0.15634 0.85986 0.23451 1.876 0.23451h1.0944c0.2345 0 0.46901 0 0.78169-0.0782 0.2345 0 0.46901-0.0782 0.54718-0.15634 0.15634-0.0782 0.23451-0.23451 0.31267-0.39084 0.0782-0.15634 0.0782-0.39085 0.0782-0.62536z" fill-rule="evenodd"/>
<path d="m483.47 380.68h-1.4852c-1.1725 0-2.0324 0.23451-2.6578 0.54719-0.62535 0.39084-0.93803 1.0162-0.93803 1.876v8.6768h-4.2993v-14.383h4.143v2.5014c0-0.70352 0.39084-1.3289 1.1725-1.9542 0.85986-0.54718 1.6416-0.85986 2.5014-0.85986h1.5634v3.5958z" fill-rule="evenodd"/>
<path d="m486.05 388.58v3.2049h3.4394v-3.2049h-3.4394z" fill-rule="evenodd"/>
<path d="m496.53 374.98h-2.6577v-2.8141h2.6577v2.8141zm0 16.806h-2.6577v-14.383h2.6577v14.383z" fill-rule="evenodd"/>
<path d="m513.96 382.25v5.0028c0 0.85985-0.15633 1.6415-0.39084 2.2669-0.15634 0.62535-0.46901 1.0944-0.78169 1.407-0.39085 0.39084-0.85986 0.62535-1.4852 0.78169-0.62535 0.15633-1.1725 0.31267-1.7979 0.31267-0.54718 0.0782-1.2507 0.0782-2.1887 0.0782-1.1725 0-2.1106 0-2.8141-0.0782-0.62535-0.0782-1.3289-0.31267-1.9542-0.62535-0.70352-0.31268-1.1725-0.78169-1.407-1.4852-0.31268-0.62535-0.46902-1.5634-0.46902-2.6577v-5.0028c0-0.93802 0.0782-1.7979 0.31268-2.4232 0.23451-0.62535 0.54718-1.1725 0.85986-1.4852 0.31267-0.39085 0.78169-0.62535 1.407-0.85986 0.70352-0.15634 1.2507-0.31268 1.7979-0.31268 0.54719-0.0782 1.3289-0.0782 2.2669-0.0782 0.93803 0 1.6416 0 2.1887 0.0782 0.54719 0 1.1725 0.15634 1.7979 0.31268 0.62535 0.23451 1.0944 0.46901 1.407 0.85986 0.39085 0.31267 0.62535 0.85986 0.85986 1.4852 0.23451 0.62535 0.39084 1.4852 0.39084 2.4232zm-2.8141 5.3937v-5.8627c0-1.3289-0.23451-2.1106-0.78169-2.4232-0.46901-0.31267-1.5634-0.46901-3.0486-0.46901-1.5634 0-2.5796 0.15634-3.1268 0.46901-0.54719 0.31268-0.78169 1.0944-0.78169 2.4232v5.8627c0 0.62535 0.0782 1.1725 0.2345 1.4852 0.0782 0.39085 0.39085 0.70352 0.78169 0.85986 0.31268 0.15634 0.70352 0.23451 1.0944 0.31268 0.39084 0 1.0162 0.0782 1.7979 0.0782 0.78169 0 1.3289-0.0782 1.7197-0.0782 0.39084-0.0782 0.78169-0.15634 1.1725-0.31268 0.39085-0.15634 0.62536-0.46901 0.78169-0.85986 0.15634-0.31267 0.15634-0.85986 0.15634-1.4852z" fill-rule="evenodd"/>
<path d="m401.71 289.77v64.958h64.88v-64.958h-64.88z" fill-rule="evenodd"/>
<path d="m401.71 303.53v6.488h15.321l10.162 10.162 4.6901-4.6901-12.038-12.038-18.135 0.0782z" fill-rule="evenodd" fill="#ffe100"/>
<path d="m441.03 324.71-4.6901 4.6901 11.647 11.647h18.604v-6.488h-15.712l-9.8493-9.8493z" fill-rule="evenodd" fill="#ffe100"/>
<path d="m448.46 303.45-30.955 31.111h-15.79v6.488h18.526l31.033-31.033h15.321v-6.5662h-18.135z" fill-rule="evenodd" fill="#ffe100"/>
<path stroke-linejoin="round" d="m175.25 155.87 137.35 169.08" stroke="#ffc000" stroke-linecap="round" stroke-width="3.5958px" fill="none"/>
<path d="m170.41 162.28-8.6768-23.06 20.793 13.211-12.116 9.8493z" fill-rule="evenodd" fill="#ffc000"/>
<path d="m317.44 318.46 8.6768 23.138-20.793-13.289 12.116-9.8493z" fill-rule="evenodd" fill="#ffc000"/>
<path d="m201.29 220.36v40.022h85.282v-40.022h-85.282z" fill-rule="evenodd" fill="#fff"/>
<text xml:space="preserve" font-size="16.259px" y="235.13219" x="217.62234" font-family="Arial" fill="#000000">WAMP</text>
<text xml:space="preserve" font-size="16.259px" y="255.14343" x="201.3632" font-family="Arial" fill="#000000">WebSocket</text>
<path d="m267.03 40.257v-38.146h264.76v101.62h-104.04l-179.55 104.04 122.88-104.04h-104.04v-63.473z" fill-rule="evenodd" fill="#fff"/>
<path stroke-linejoin="round" d="m267.03 40.257v-38.146h264.76v101.62h-104.04l-179.55 104.04 122.88-104.04h-104.04v-63.473z" stroke="#000" stroke-linecap="round" stroke-width=".39084px" fill="none"/>
<text xml:space="preserve" font-size="16.259px" y="27.515469" x="273.90399" font-family="Arial" fill="#000000">Crossbar</text>
<text xml:space="preserve" font-size="16.259px" y="27.515469" x="341.44196" font-family="Arial" fill="#000000">.</text>
<text xml:space="preserve" font-size="16.259px" y="27.515469" x="346.44476" font-family="Arial" fill="#000000">io connects both user </text>
<text xml:space="preserve" font-size="16.259px" y="47.526718" x="273.90399" font-family="Arial" fill="#000000">interface frontends and IoT </text>
<text xml:space="preserve" font-size="16.259px" y="67.537964" x="273.90399" font-family="Arial" fill="#000000">sensors</text>
<text xml:space="preserve" font-size="16.259px" y="67.537964" x="332.68701" font-family="Arial" fill="#000000">/</text>
<text xml:space="preserve" font-size="16.259px" y="67.537964" x="336.43912" font-family="Arial" fill="#000000">actors </text>
<text xml:space="preserve" font-size="16.259px" y="67.537964" x="386.46725" font-family="Arial" fill="#000000">–</text>
<text xml:space="preserve" font-size="16.259px" y="67.537964" x="400.22498" font-family="Arial" fill="#000000">seamlessly</text>
<text xml:space="preserve" font-size="16.259px" y="67.537964" x="482.77139" font-family="Arial" fill="#000000">, </text>
<text xml:space="preserve" font-size="16.259px" y="67.537964" x="492.77701" font-family="Arial" fill="#000000">and </text>
<text xml:space="preserve" font-size="16.259px" y="87.549217" x="273.90399" font-family="Arial" fill="#000000">in real</text>
<text xml:space="preserve" font-size="16.259px" y="87.549217" x="318.92929" font-family="Arial" fill="#000000">-</text>
<text xml:space="preserve" font-size="16.259px" y="87.549217" x="325.1828" font-family="Arial" fill="#000000">time</text>
<path d="m835.86 422.82c13.054 0 23.685-10.553 23.685-23.607v-120.69c0-13.054-10.631-23.607-23.685-23.607h-108.65c-13.054 0-23.685 10.553-23.685 23.607v120.69c0 13.054 10.631 23.607 23.685 23.607h108.65z" fill-rule="evenodd" fill="#f2f2f2"/>
<path stroke-linejoin="round" d="m835.86 422.82c13.054 0 23.685-10.553 23.685-23.607v0-120.69c0-13.054-10.631-23.607-23.685-23.607v0h-108.65c-13.054 0-23.685 10.553-23.685 23.607v120.69c0 13.054 10.631 23.607 23.685 23.607v0h108.65z" stroke="#000" stroke-linecap="round" stroke-width="3.5958px" fill="none"/>
<text xml:space="preserve" font-size="21.262px" y="332.68701" x="739.16553" font-family="Arial" fill="#000000">Backend </text>
<text xml:space="preserve" font-size="21.262px" y="357.70108" x="720.40497" font-family="Arial" fill="#000000">Components</text>
<path stroke-linejoin="round" d="m567.43 341.21 114.67-1.96" stroke="#ffc000" stroke-linecap="round" stroke-width="3.5958px" fill="none"/>
<path d="m569.54 348.95-23.607-7.3479 23.294-8.2077 0.31267 15.556z" fill-rule="evenodd" fill="#ffc000"/>
<path d="m679.99 331.44 23.529 7.426-23.294 8.2077-0.23451-15.634z" fill-rule="evenodd" fill="#ffc000"/>
<path d="m582.12 320.18v40.022h85.282v-40.022h-85.282z" fill-rule="evenodd" fill="#fff"/>
<text xml:space="preserve" font-size="16.259px" y="335.18842" x="599.08679" font-family="Arial" fill="#000000">WAMP</text>
<text xml:space="preserve" font-size="16.259px" y="355.19968" x="581.57697" font-family="Arial" fill="#000000">WebSocket</text>
<path d="m138.05 422.82c13.054 0 23.685-10.553 23.685-23.607v-118.19c0-13.054-10.631-23.607-23.685-23.607h-110.69c-13.054 0-23.607 10.553-23.607 23.607v118.19c0 13.054 10.553 23.607 23.607 23.607h110.69z" fill-rule="evenodd" fill="#f2f2f2"/>
<path stroke-linejoin="round" d="m138.05 422.82c13.054 0 23.685-10.553 23.685-23.607v0-118.19c0-13.054-10.631-23.607-23.685-23.607v0h-110.69c-13.054 0-23.607 10.553-23.607 23.607v0 118.19c0 13.054 10.553 23.607 23.607 23.607v0h110.69z" stroke="#000" stroke-linecap="round" stroke-width="3.5958px" fill="none"/>
<text font-weight="bold" xml:space="preserve" font-size="23.763px" y="332.68701" x="42.523907" font-family="Arial" fill="#000000">Sensor </text>
<text xml:space="preserve" font-size="23.763px" y="361.45319" x="47.526718" font-family="Arial" fill="#000000">Device</text>
<path d="m138.05 623.71c13.054 0 23.685-10.553 23.685-23.607v-118.19c0-13.054-10.631-23.607-23.685-23.607h-110.69c-13.054 0-23.607 10.553-23.607 23.607v118.19c0 13.054 10.553 23.607 23.607 23.607h110.69z" fill-rule="evenodd" fill="#f2f2f2"/>
<path stroke-linejoin="round" d="m138.05 623.71c13.054 0 23.685-10.553 23.685-23.607v0-118.19c0-13.054-10.631-23.607-23.685-23.607v0h-110.69c-13.054 0-23.607 10.553-23.607 23.607v0 118.19c0 13.054 10.553 23.607 23.607 23.607v0h110.69z" stroke="#000" stroke-linecap="round" stroke-width="3.5958px" fill="none"/>
<text font-weight="bold" xml:space="preserve" font-size="23.763px" y="534.05023" x="52.52953" font-family="Arial" fill="#000000">Actor</text>
<text xml:space="preserve" font-size="23.763px" y="561.56567" x="47.526718" font-family="Arial" fill="#000000">Device</text>
<path stroke-linejoin="round" d="m161.73 340.11h17.666v1.4852h125.3" stroke="#ffc000" stroke-linecap="round" stroke-width="3.5958px" fill="none"/>
<path d="m185.1 347.93-23.373-7.8169 23.373-7.8169v15.634z" fill-rule="evenodd" fill="#ffc000"/>
<path d="m302.75 333.78 23.373 7.8169-23.373 7.8169v-15.634z" fill-rule="evenodd" fill="#ffc000"/>
<path d="m200.58 321.59v40.022h85.204v-40.022h-85.204z" fill-rule="evenodd" fill="#fff"/>
<text xml:space="preserve" font-size="16.259px" y="336.43912" x="217.62234" font-family="Arial" fill="#000000">WAMP</text>
<text xml:space="preserve" font-size="16.259px" y="356.45038" x="200.1125" font-family="Arial" fill="#000000">WebSocket</text>
<path stroke-linejoin="round" d="m175.33 524.44 137.19-166.27" stroke="#ffc000" stroke-linecap="round" stroke-width="3.5958px" fill="none"/>
<path d="m182.6 527.87-20.871 13.132 8.8331-23.06 12.038 9.9275z" fill-rule="evenodd" fill="#ffc000"/>
<path d="m305.25 354.65 20.871-13.054-8.8331 22.982-12.038-9.9274z" fill-rule="evenodd" fill="#ffc000"/>
<path d="m201.29 421.25v40.022h85.282v-40.022h-85.282z" fill-rule="evenodd" fill="#fff"/>
<text xml:space="preserve" font-size="16.259px" y="436.49539" x="217.62234" font-family="Arial" fill="#000000">WAMP</text>
<text xml:space="preserve" font-size="16.259px" y="456.50662" x="201.3632" font-family="Arial" fill="#000000">WebSocket</text>
</g>
</g>
</svg>
