<?xml version="1.0" encoding="UTF-8" standalone="no"?>
<svg xmlns:rdf="http://www.w3.org/1999/02/22-rdf-syntax-ns#" xmlns="http://www.w3.org/2000/svg" version="1.1" xmlns:cc="http://creativecommons.org/ns#" xmlns:dc="http://purl.org/dc/elements/1.1/" viewBox="0 0 1037.3 412.6">
<g transform="translate(-88.543 -514.21)">
<g transform="translate(96.638 522.33)">
<path d="m37.599 1.8761v283.68h153.6v-283.68h-153.6z" fill-rule="evenodd" fill="#d9d9d9"/>
<path d="m54.093 25.561v70.899h118.19v-70.899h-118.19z" fill-rule="evenodd" fill="#404040"/>
<text xml:space="preserve" font-size="16.259px" y="66.287262" x="91.301323" font-family="Arial" fill="#ffc000">JSON</text>
<path d="m54.093 108.26v70.899h118.19v-70.899h-118.19z" fill-rule="evenodd" fill="#404040"/>
<text xml:space="preserve" font-size="16.259px" y="148.83366" x="70.039375" font-family="Arial" fill="#ffc000">WebSocket</text>
<path d="m54.093 190.97v70.899h118.19v-70.899h-118.19z" fill-rule="evenodd" fill="#404040"/>
<text xml:space="preserve" font-size="16.259px" y="231.38007" x="78.794296" font-family="Arial" fill="#ffc000">TCP</text>
<text xml:space="preserve" font-size="16.259px" y="231.38007" x="112.56328" font-family="Arial" fill="#ffc000">/</text>
<text xml:space="preserve" font-size="16.259px" y="231.38007" x="116.31539" font-family="Arial" fill="#ffc000">TLS</text>
<path d="m2.1106 348.48v-27.515h81.999l30.251-35.411 24.389 35.411h81.999v73.322h-218.64v-45.807z" fill-rule="evenodd" fill="#fff"/>
<path stroke-linejoin="round" d="m2.1106 348.48v-27.515h81.999l30.251-35.411 24.389 35.411h81.999v73.322h-218.64v-45.807z" stroke="#000" stroke-linecap="round" stroke-width=".39084px" fill="none"/>
<text xml:space="preserve" font-size="16.259px" y="352.69827" x="20.01125" font-family="Arial" fill="#000000">Most common</text>
<text xml:space="preserve" font-size="16.259px" y="352.69827" x="125.07031" font-family="Arial" fill="#000000">; </text>
<text xml:space="preserve" font-size="16.259px" y="352.69827" x="135.07593" font-family="Arial" fill="#000000">browsers </text>
<text xml:space="preserve" font-size="16.259px" y="372.70953" x="82.546402" font-family="Arial" fill="#000000">use this</text>
<path d="m305.25 1.8761v283.68h153.6v-283.68h-153.6z" fill-rule="evenodd" fill="#d9d9d9"/>
<path d="m321.74 25.561v70.899h118.19v-70.899h-118.19z" fill-rule="evenodd" fill="#404040"/>
<text xml:space="preserve" font-size="16.259px" y="66.287262" x="346.44476" font-family="Arial" fill="#ffc000">MsgPack</text>
<path d="m321.74 108.26v70.899h118.19v-70.899h-118.19z" fill-rule="evenodd" fill="#404040"/>
<text xml:space="preserve" font-size="16.259px" y="148.83366" x="338.94055" font-family="Arial" fill="#ffc000">RawSocket</text>
<path d="m321.74 190.97v70.899h118.19v-70.899h-118.19z" fill-rule="evenodd" fill="#404040"/>
<text xml:space="preserve" font-size="16.259px" y="221.37445" x="332.68701" font-family="Arial" fill="#ffc000">Unix Domain </text>
<text xml:space="preserve" font-size="16.259px" y="241.3857" x="351.44757" font-family="Arial" fill="#ffc000">Sockets</text>
<path d="m270.93 348.48v-27.515h81.999l29.079-35.411 25.561 35.411h81.999v73.322h-218.64v-45.807z" fill-rule="evenodd" fill="#fff"/>
<path stroke-linejoin="round" d="m270.93 348.48v-27.515h81.999l29.079-35.411 25.561 35.411h81.999v73.322h-218.64v-45.807z" stroke="#000" stroke-linecap="round" stroke-width=".39084px" fill="none"/>
<text xml:space="preserve" font-size="16.259px" y="342.69266" x="308.92365" font-family="Arial" fill="#000000">Commonly used by </text>
<text xml:space="preserve" font-size="16.259px" y="362.70389" x="293.91522" font-family="Arial" fill="#000000">Crossbar</text>
<text xml:space="preserve" font-size="16.259px" y="362.70389" x="361.45319" font-family="Arial" fill="#000000">.</text>
<text xml:space="preserve" font-size="16.259px" y="362.70389" x="366.45602" font-family="Arial" fill="#000000">io hosted app </text>
<text xml:space="preserve" font-size="16.259px" y="382.71515" x="295.16592" font-family="Arial" fill="#000000">components </text>
<text xml:space="preserve" font-size="16.259px" y="382.71515" x="390.21936" font-family="Arial" fill="#000000">(</text>
<text xml:space="preserve" font-size="16.259px" y="382.71515" x="396.47287" font-family="Arial" fill="#000000">e</text>
<text xml:space="preserve" font-size="16.259px" y="382.71515" x="405.22781" font-family="Arial" fill="#000000">.</text>
<text xml:space="preserve" font-size="16.259px" y="382.71515" x="410.23062" font-family="Arial" fill="#000000">g</text>
<text xml:space="preserve" font-size="16.259px" y="382.71515" x="418.98553" font-family="Arial" fill="#000000">. </text>
<text xml:space="preserve" font-size="16.259px" y="382.71515" x="428.99115" font-family="Arial" fill="#000000">C</text>
<text xml:space="preserve" font-size="16.259px" y="382.71515" x="440.2475" font-family="Arial" fill="#000000">++)</text>
<path d="m566.41 1.8761v283.68h153.6v-283.68h-153.6z" fill-rule="evenodd" fill="#d9d9d9"/>
<path d="m582.98 25.561v70.899h118.11v-70.899h-118.11z" fill-rule="evenodd" fill="#404040"/>
<text xml:space="preserve" font-size="16.259px" y="66.287262" x="620.34875" font-family="Arial" fill="#ffc000">JSON</text>
<path d="m582.98 108.26v70.899h118.11v-70.899h-118.11z" fill-rule="evenodd" fill="#404040"/>
<text xml:space="preserve" font-size="16.259px" y="138.82803" x="617.84735" font-family="Arial" fill="#ffc000">HTTP</text>
<text xml:space="preserve" font-size="16.259px" y="138.82803" x="661.62195" font-family="Arial" fill="#ffc000">/</text>
<text xml:space="preserve" font-size="16.259px" y="158.83929" x="610.34314" font-family="Arial" fill="#ffc000">Longpoll</text>
<path d="m582.98 190.97v70.899h118.11v-70.899h-118.11z" fill-rule="evenodd" fill="#404040"/>
<text xml:space="preserve" font-size="16.259px" y="231.38007" x="607.84167" font-family="Arial" fill="#ffc000">TCP</text>
<text xml:space="preserve" font-size="16.259px" y="231.38007" x="641.61072" font-family="Arial" fill="#ffc000">/</text>
<text xml:space="preserve" font-size="16.259px" y="231.38007" x="645.36279" font-family="Arial" fill="#ffc000">TLS</text>
<path d="m536.86 348.48v-27.515h81.999l24.389-35.411 30.251 35.411h81.999v73.322h-218.64v-45.807z" fill-rule="evenodd" fill="#fff"/>
<path stroke-linejoin="round" d="m536.86 348.48v-27.515h81.999l24.389-35.411 30.251 35.411h81.999v73.322h-218.64v-45.807z" stroke="#000" stroke-linecap="round" stroke-width=".39084px" fill="none"/>
<text xml:space="preserve" font-size="16.259px" y="352.69827" x="554.06146" font-family="Arial" fill="#000000">Fallback transport for old </text>
<text xml:space="preserve" font-size="16.259px" y="372.70953" x="612.84454" font-family="Arial" fill="#000000">browsers</text>
<path d="m829.92 1.8761v283.68h153.68v-283.68h-153.68z" fill-rule="evenodd" fill="#d9d9d9"/>
<path d="m846.49 25.561v70.899h118.19v-70.899h-118.19z" fill-rule="evenodd" fill="#404040"/>
<text xml:space="preserve" font-size="16.259px" y="66.287262" x="882.9964" font-family="Arial" fill="#ffc000">JSON</text>
<path d="m846.49 108.26v70.899h118.19v-70.899h-118.19z" fill-rule="evenodd" fill="#404040"/>
<text xml:space="preserve" font-size="16.259px" y="148.83366" x="862.98517" font-family="Arial" fill="#ffc000">WebSocket</text>
<path d="m846.49 190.97v70.899h118.19v-70.899h-118.19z" fill-rule="evenodd" fill="#404040"/>
<text xml:space="preserve" font-size="16.259px" y="231.38007" x="884.24707" font-family="Arial" fill="#ffc000">Pipes</text>
<path d="m800.37 348.48v-27.515h81.999l24.389-35.411 30.251 35.411h81.999v73.322h-218.64v-45.807z" fill-rule="evenodd" fill="#fff"/>
<path stroke-linejoin="round" d="m800.37 348.48v-27.515h81.999l24.389-35.411 30.251 35.411h81.999v73.322h-218.64v-45.807z" stroke="#000" stroke-linecap="round" stroke-width=".39084px" fill="none"/>
<text xml:space="preserve" font-size="16.259px" y="342.69266" x="839.2218" font-family="Arial" fill="#000000">Use by Crossbar</text>
<text xml:space="preserve" font-size="16.259px" y="342.69266" x="963.04138" font-family="Arial" fill="#000000">.</text>
<text xml:space="preserve" font-size="16.259px" y="342.69266" x="968.04419" font-family="Arial" fill="#000000">io </text>
<text xml:space="preserve" font-size="16.259px" y="362.70389" x="810.45563" font-family="Arial" fill="#000000">management router talking </text>
<text xml:space="preserve" font-size="16.259px" y="382.71515" x="844.22461" font-family="Arial" fill="#000000">to native Workers</text>
</g>
</g>
</svg>
