<?xml version="1.0" encoding="UTF-8" standalone="no"?>
<svg xmlns:rdf="http://www.w3.org/1999/02/22-rdf-syntax-ns#" xmlns="http://www.w3.org/2000/svg" version="1.1" xmlns:cc="http://creativecommons.org/ns#" xmlns:dc="http://purl.org/dc/elements/1.1/" viewBox="0 0 1115.9 481.09">
<g transform="translate(726.19 -208.01)">
<g transform="translate(-718.16 216.1)">
<path d="m822.1 461.2c13.054 0 23.607-10.553 23.607-23.607v-104.59c0-13.054-10.553-23.607-23.607-23.607h-173.54c-13.054 0-23.607 10.553-23.607 23.607v104.59c0 13.054 10.553 23.607 23.607 23.607h173.54z" fill-rule="evenodd" fill="#f2f2f2"/>
<path stroke-linejoin="round" d="m822.1 461.2c13.054 0 23.607-10.553 23.607-23.607v0-104.59c0-13.054-10.553-23.607-23.607-23.607v0h-173.54c-13.054 0-23.607 10.553-23.607 23.607v0 104.59c0 13.054 10.553 23.607 23.607 23.607v0h173.54z" stroke="#000" stroke-linecap="round" stroke-width="3.5958px" fill="none"/>
<text xml:space="preserve" font-size="23.763px" y="377.71234" x="667.87543" font-family="Arial" fill="#000000">Your existing</text>
<text xml:space="preserve" font-size="23.763px" y="406.47852" x="650.3656" font-family="Arial" fill="#000000">Web Application</text>
<path d="m138.05 460.65c13.054 0 23.685-10.631 23.685-23.685v-387.56c0-13.054-10.631-23.685-23.685-23.685h-110.69c-13.054 0-23.607 10.631-23.607 23.685v387.56c0 13.054 10.553 23.685 23.607 23.685h110.69z" fill-rule="evenodd" fill="#f2f2f2"/>
<path stroke-linejoin="round" d="m138.05 460.65c13.054 0 23.685-10.631 23.685-23.685v0-387.56c0-13.054-10.631-23.685-23.685-23.685v0h-110.69c-13.054 0-23.607 10.631-23.607 23.685v0 387.56c0 13.054 10.553 23.685 23.607 23.685v0h110.69z" stroke="#000" stroke-linecap="round" stroke-width="3.5958px" fill="none"/>
<text xml:space="preserve" font-size="23.763px" y="236.38289" x="58.783047" font-family="Arial" fill="#000000">Web </text>
<text xml:space="preserve" font-size="23.763px" y="263.89835" x="36.27039" font-family="Arial" fill="#000000">Frontend</text>
<path stroke-linejoin="round" d="m607.92 385.29h-446.19v-0.31267" stroke="#262626" stroke-linecap="round" stroke-width="2.0324px" fill="none"/>
<path d="m606.36 379.12 18.604 6.1753-18.604 6.1754v-12.351z" fill-rule="evenodd" fill="#262626"/>
<path stroke-linejoin="round" d="m735.34 309.39-0.39084-98.18" stroke="#262626" stroke-linecap="round" stroke-width="2.0324px" fill="none"/>
<path d="m728.69 212.78 6.1754-18.604 6.2535 18.526-12.429 0.0782z" fill-rule="evenodd" fill="#262626"/>
<path d="m821.09 194.17c13.054 0 23.685-10.631 23.685-23.685v-121.08c0-13.054-10.631-23.685-23.685-23.685h-172.52c-13.054 0-23.607 10.631-23.607 23.685v121.08c0 13.054 10.553 23.685 23.607 23.685h172.52z" fill-rule="evenodd" fill="#ffe100"/>
<path stroke-linejoin="round" d="m821.09 194.17c13.054 0 23.685-10.631 23.685-23.685v0-121.08c0-13.054-10.631-23.685-23.685-23.685v0h-172.52c-13.054 0-23.607 10.631-23.607 23.685v0 121.08c0 13.054 10.553 23.685 23.607 23.685v0h172.52z" stroke="#ffc000" stroke-linecap="round" stroke-width="5.2373px" fill="none"/>
<path d="m674.52 159.78c-2.1887 0.46901-4.2211 0.70352-6.2535 0.70352-0.78169 0-1.4852-0.0782-2.1887-0.0782-0.70352-0.0782-1.4852-0.2345-2.3451-0.46901-0.85986-0.23451-1.6416-0.54718-2.2669-0.93803-0.54718-0.39084-1.0944-0.93803-1.4852-1.6416-0.39084-0.70352-0.62535-1.5634-0.62535-2.5014v-8.4422c0-3.9084 2.9704-5.8627 8.9113-5.8627 1.4852 0 3.5176 0.23451 6.1753 0.70352v3.4394c-2.3451-0.54718-4.3775-0.85985-6.0972-0.85985-0.62535 0-1.2507 0.0782-1.6416 0.0782-0.39085 0.0782-0.85986 0.15633-1.3289 0.31267-0.46902 0.15634-0.85986 0.39085-1.0162 0.78169-0.23451 0.31268-0.39084 0.78169-0.39084 1.3289v8.2077c0 1.7197 1.6415 2.6578 4.7683 2.6578 1.407 0 3.3613-0.31268 5.7845-0.85986v3.4394z" fill-rule="evenodd"/>
<path d="m686.79 149.07h-1.4852c-1.2507 0-2.1106 0.15633-2.7359 0.54718-0.54718 0.39084-0.85985 1.0162-0.85985 1.876v8.6768h-4.3775v-14.383h4.143v2.5014c0-0.70352 0.46901-1.3289 1.2507-1.9542 0.78169-0.54718 1.6416-0.85986 2.5014-0.85986h1.5634v3.5958z" fill-rule="evenodd"/>
<path d="m703.36 150.94v4.2993c0 0.93803-0.15633 1.7197-0.46901 2.4232-0.31268 0.62535-0.62535 1.1725-1.0944 1.4852-0.46901 0.39084-1.0162 0.70352-1.7197 0.85986-0.70352 0.2345-1.3289 0.31267-1.9542 0.39084-0.54718 0.0782-1.2507 0.0782-2.1106 0.0782-0.78169 0-1.4852 0-2.1106-0.0782-0.54718-0.0782-1.2507-0.15634-1.9542-0.39084-0.70352-0.15634-1.2507-0.46902-1.7197-0.85986-0.39084-0.31268-0.78169-0.85986-1.0944-1.4852-0.23451-0.70352-0.39085-1.4852-0.39085-2.4232v-4.2993c0-0.93803 0.15634-1.7979 0.46902-2.5014 0.31267-0.70352 0.62535-1.2507 1.0944-1.6415 0.46901-0.39085 1.0162-0.62536 1.7197-0.85986 0.70352-0.23451 1.407-0.31268 1.9542-0.39085 0.54718-0.0782 1.2507-0.0782 2.0324-0.0782 0.85986 0 1.4852 0 2.1106 0.0782 0.54719 0.0782 1.1725 0.15634 1.8761 0.39085 0.70352 0.2345 1.3289 0.46901 1.7979 0.85986 0.39085 0.39084 0.78169 0.93802 1.0944 1.6415 0.31268 0.70352 0.46901 1.5634 0.46901 2.5014zm-4.3775 4.7683v-5.3937c0-0.78169-0.15633-1.3289-0.54718-1.6416-0.39084-0.39084-1.2507-0.54718-2.4232-0.54718s-1.9542 0.15634-2.3451 0.54718c-0.39084 0.31268-0.62535 0.85986-0.62535 1.6416v5.3937c0 0.78168 0.23451 1.3289 0.62535 1.5634 0.39085 0.31268 1.1725 0.46902 2.3451 0.46902 1.2507 0 2.0324-0.15634 2.4232-0.46902 0.39085-0.2345 0.54718-0.78169 0.54718-1.5634z" fill-rule="evenodd"/>
<path d="m719.15 154.54v1.7979c0 0.78169-0.15634 1.3289-0.39084 1.876-0.31268 0.54718-0.62536 0.93803-1.0162 1.1725-0.46901 0.31267-0.93803 0.54718-1.6416 0.70352-0.62535 0.15633-1.2507 0.2345-1.876 0.31267-0.62535 0.0782-1.3289 0.0782-2.1106 0.0782-1.5634 0-3.4394-0.15634-5.7063-0.46901v-2.8922c2.8141 0.46901 4.6901 0.62535 5.7845 0.62535 0.85986 0 1.4852-0.0782 1.9542-0.23451 0.46901-0.15634 0.70352-0.46901 0.70352-1.0162v-0.85985c0-0.46902-0.15634-0.78169-0.39085-1.0162-0.2345-0.23451-0.78169-0.39084-1.6415-0.39084h-1.8761c-1.5634 0-2.7359-0.23451-3.5176-0.85986-0.85986-0.62535-1.3289-1.4852-1.3289-2.6578v-1.7979c0-1.3289 0.70352-2.1887 1.876-2.7359 1.2507-0.46901 3.0486-0.70352 5.3155-0.70352 0.93803 0 2.6577 0.0782 5.1592 0.23451v2.8141c-3.1268-0.2345-4.8465-0.39084-5.2373-0.39084-1.2507 0-2.0324 0.0782-2.3451 0.31267-0.31267 0.15634-0.46901 0.46902-0.46901 0.93803v0.78169c0 0.23451 0.15634 0.46901 0.39084 0.62535 0.23451 0.23451 0.62536 0.31268 1.1725 0.31268h1.876c3.5176 0 5.3155 1.1725 5.3155 3.4394z" fill-rule="evenodd"/>
<path d="m734.71 154.54v1.7979c0 0.78169-0.0782 1.3289-0.39084 1.876-0.23451 0.54718-0.54719 0.93803-1.0162 1.1725-0.39085 0.31267-0.93803 0.54718-1.5634 0.70352-0.62535 0.15633-1.2507 0.2345-1.876 0.31267-0.62536 0.0782-1.3289 0.0782-2.1106 0.0782-1.5634 0-3.5176-0.15634-5.7063-0.46901v-2.8922c2.7359 0.46901 4.6901 0.62535 5.7063 0.62535 0.85986 0 1.5634-0.0782 2.0324-0.23451 0.46901-0.15634 0.70352-0.46901 0.70352-1.0162v-0.85985c0-0.46902-0.15634-0.78169-0.39085-1.0162-0.2345-0.23451-0.85986-0.39084-1.7197-0.39084h-1.7979c-1.5634 0-2.7359-0.23451-3.5958-0.85986-0.78169-0.62535-1.2507-1.4852-1.2507-2.6578v-1.7979c0-1.3289 0.62535-2.1887 1.876-2.7359 1.2507-0.46901 3.0486-0.70352 5.3155-0.70352 0.93803 0 2.6577 0.0782 5.081 0.23451v2.8141c-3.0486-0.2345-4.7683-0.39084-5.1592-0.39084-1.2507 0-2.0324 0.0782-2.3451 0.31267-0.31267 0.15634-0.46901 0.46902-0.46901 0.93803v0.78169c0 0.23451 0.15634 0.46901 0.39084 0.62535 0.23451 0.23451 0.62535 0.31268 1.0944 0.31268h1.9542c3.5176 0 5.2373 1.1725 5.2373 3.4394z" fill-rule="evenodd"/>
<path d="m752.69 150.32v4.7683c0 1.9542-0.54719 3.3613-1.7197 4.143-1.1725 0.85986-3.1268 1.2507-5.7063 1.2507-2.7359 0-4.6901-0.46901-5.7063-1.3289-1.0944-0.85986-1.5634-2.1887-1.5634-4.0648v-15.79h4.2993v7.8951c0.31267-0.62535 0.78169-1.0944 1.4852-1.3289 0.70352-0.23451 1.7197-0.39085 3.2049-0.39085 1.2507 0 2.1887 0.0782 2.9704 0.31268 0.78169 0.15634 1.407 0.46901 1.7979 0.93803 0.39084 0.46901 0.62535 0.93802 0.78169 1.4852s0.15634 1.2507 0.15634 2.1106zm-4.2993 5.3155v-5.3155c0-0.93803-0.15634-1.5634-0.54719-1.7979-0.31267-0.2345-1.1725-0.39084-2.5796-0.39084-1.1725 0-2.0324 0.15634-2.4232 0.46901-0.31268 0.31268-0.54718 0.93803-0.54718 1.7197v5.3155c0 0.85985 0.2345 1.407 0.54718 1.7197 0.39085 0.23451 1.2507 0.39085 2.5014 0.39085s2.0324-0.15634 2.5014-0.39085c0.31268-0.31267 0.54719-0.85986 0.54719-1.7197z" fill-rule="evenodd"/>
<path d="m769.03 160.17h-4.2211v-1.3289c-0.31267 0.62535-0.78169 1.0162-1.407 1.2507-0.54718 0.2345-1.6416 0.39084-3.2049 0.39084-1.9542 0-3.2831-0.31267-3.9084-0.93803-0.62535-0.54718-0.93803-1.7979-0.93803-3.6739 0-1.7197 0.31268-2.8922 1.0162-3.5958 0.62535-0.62535 1.7979-0.93803 3.4394-0.93803h4.9246v-1.0162c0-0.85986-0.2345-1.407-0.62535-1.7197-0.39084-0.31267-1.2507-0.46901-2.5796-0.46901-1.2507 0-2.8922 0.15634-5.081 0.39084v-2.7359c1.6415-0.23451 3.5176-0.31268 5.55-0.31268 2.6578 0 4.4556 0.31268 5.55 0.93803 1.0162 0.70352 1.4852 1.9542 1.4852 3.8303v9.9275zm-4.2993-3.674v-2.8141h-2.9704c-0.93802 0-1.5634 0.0782-1.7979 0.31268-0.23451 0.23451-0.39085 0.85986-0.39085 1.7979 0 0.93803 0.15634 1.4852 0.39085 1.6416 0.23451 0.23451 0.85986 0.31268 1.876 0.31268h1.0944c0.23451 0 0.54718 0 0.78169-0.0782 0.31267 0 0.46901-0.0782 0.62535-0.15634 0.0782-0.15634 0.15634-0.23451 0.23451-0.39084 0.0782-0.15634 0.15633-0.39085 0.15633-0.62536z" fill-rule="evenodd"/>
<path d="m782.31 149.07h-1.4852c-1.1725 0-2.1106 0.15633-2.7359 0.54718-0.54718 0.39084-0.85985 1.0162-0.85985 1.876v8.6768h-4.3775v-14.383h4.143v2.5014c0-0.70352 0.46901-1.3289 1.2507-1.9542 0.78169-0.54718 1.6416-0.85986 2.5014-0.85986h1.5634v3.5958z" fill-rule="evenodd"/>
<path d="m784.82 156.96v3.2049h3.4394v-3.2049h-3.4394z" fill-rule="evenodd"/>
<path d="m795.37 143.36h-2.6577v-2.8141h2.6577v2.8141zm0 16.806h-2.6577v-14.383h2.6577v14.383z" fill-rule="evenodd"/>
<path d="m812.72 150.63v5.0028c0 0.85985-0.0782 1.6415-0.31268 2.2669-0.23451 0.62535-0.46901 1.0944-0.85986 1.407-0.31267 0.31267-0.78169 0.62535-1.407 0.78169-0.62535 0.15633-1.2507 0.31267-1.7979 0.31267-0.54718 0.0782-1.3289 0.0782-2.2669 0.0782-1.1725 0-2.1106-0.0782-2.7359-0.15634-0.70352-0.0782-1.3289-0.2345-2.0324-0.54718-0.62535-0.31268-1.0944-0.78169-1.407-1.4852-0.31268-0.70352-0.46901-1.5634-0.46901-2.6577v-5.0028c0-0.93802 0.15633-1.7979 0.39084-2.4232 0.23451-0.62535 0.46901-1.1725 0.85986-1.4852 0.31267-0.39085 0.78169-0.62535 1.407-0.85986 0.62535-0.15634 1.1725-0.31268 1.7979-0.31268 0.46901-0.0782 1.2507-0.0782 2.1887-0.0782 0.93802 0 1.7197 0 2.2669 0.0782 0.54719 0 1.0944 0.15634 1.7979 0.31268 0.62535 0.23451 1.0944 0.46901 1.407 0.85986 0.31268 0.31267 0.62535 0.85986 0.85986 1.4852 0.23451 0.62535 0.31268 1.4852 0.31268 2.4232zm-2.7359 5.3937v-5.8627c0-1.3289-0.2345-2.1106-0.78169-2.4232-0.54718-0.39084-1.5634-0.54718-3.1268-0.54718-1.4852 0-2.5796 0.15634-3.0486 0.54718-0.54719 0.31268-0.85986 1.0944-0.85986 2.4232v5.8627c0 0.62535 0.0782 1.0944 0.23451 1.4852 0.15633 0.39085 0.39084 0.70352 0.78168 0.85986 0.39085 0.15634 0.78169 0.23451 1.1725 0.31268h1.7197 1.7979c0.39085-0.0782 0.78169-0.15634 1.0944-0.31268 0.39084-0.15634 0.70352-0.46901 0.78169-0.85986 0.15633-0.39084 0.2345-0.85986 0.2345-1.4852z" fill-rule="evenodd"/>
<path d="m700.55 58.158v64.958h64.802v-64.958h-64.802z" fill-rule="evenodd"/>
<path d="m700.55 71.915v6.488h15.243l10.162 10.162 4.6901-4.6901-11.96-12.038-18.135 0.07817z" fill-rule="evenodd" fill="#ffe100"/>
<path d="m739.87 93.099-4.6901 4.6901 11.647 11.647h18.526v-6.5662h-15.712l-9.7711-9.7711z" fill-rule="evenodd" fill="#ffe100"/>
<path d="m747.22 71.837-30.877 31.111h-15.79v6.488h18.526l31.033-31.033h15.243v-6.5662h-18.135z" fill-rule="evenodd" fill="#ffe100"/>
<path stroke-linejoin="round" d="m183.15 108.58 441.81 1.4" stroke="#ffc000" stroke-linecap="round" stroke-width="3.5958px" fill="none"/>
<path d="m185.1 116.32-23.373-7.8169 23.373-7.7387v15.556z" fill-rule="evenodd" fill="#ffc000"/>
<path d="m263.35 29.001v-26.89h252.88v71.759h-98.102l39.006 35.411-95.757-35.411h-98.024v-44.869z" fill-rule="evenodd" fill="#fff"/>
<path stroke-linejoin="round" d="m263.35 29.001v-26.89h252.88v71.759h-98.102l39.006 35.411-95.757-35.411h-98.024v-44.869z" stroke="#000" stroke-linecap="round" stroke-width=".39084px" fill="none"/>
<text xml:space="preserve" font-size="16.259px" y="22.512655" x="270.15186" font-family="Arial" fill="#000000">Real</text>
<text xml:space="preserve" font-size="16.259px" y="22.512655" x="303.92084" font-family="Arial" fill="#000000">-</text>
<text xml:space="preserve" font-size="16.259px" y="22.512655" x="310.17438" font-family="Arial" fill="#000000">time data updates and </text>
<text xml:space="preserve" font-size="16.259px" y="42.523907" x="270.15186" font-family="Arial" fill="#000000">notifications sent over WAMP</text>
<text xml:space="preserve" font-size="16.259px" y="42.523907" x="487.7742" font-family="Arial" fill="#000000">/</text>
<text xml:space="preserve" font-size="16.259px" y="62.535156" x="270.15186" font-family="Arial" fill="#000000">WebSocket</text>
<path d="m271.56 300.4v-26.89h252.95v71.759h-98.102l-75.668 40.022 18.917-40.022h-98.102v-44.869z" fill-rule="evenodd" fill="#fff"/>
<path stroke-linejoin="round" d="m271.56 300.4v-26.89h252.95v71.759h-98.102l-75.668 40.022 18.917-40.022h-98.102v-44.869z" stroke="#000" stroke-linecap="round" stroke-width=".39084px" fill="none"/>
<text xml:space="preserve" font-size="16.259px" y="303.92084" x="277.6561" font-family="Arial" fill="#000000">Request</text>
<text xml:space="preserve" font-size="16.259px" y="303.92084" x="340.19125" font-family="Arial" fill="#000000">/</text>
<text xml:space="preserve" font-size="16.259px" y="303.92084" x="345.19406" font-family="Arial" fill="#000000">response interaction </text>
<text xml:space="preserve" font-size="16.259px" y="323.9321" x="277.6561" font-family="Arial" fill="#000000">over HTTP or Ajax</text>
<path d="m844.77 241.78v-26.968h252.88v71.837h-252.88v-26.968l-109.91 2.4232 109.91-20.324z" fill-rule="evenodd" fill="#fff"/>
<path stroke-linejoin="round" d="m844.77 241.78v-26.968h252.88v71.837h-252.88v-26.968l-109.91 2.4232 109.91-20.324z" stroke="#000" stroke-linecap="round" stroke-width=".39084px" fill="none"/>
<text xml:space="preserve" font-size="16.259px" y="245.13782" x="851.72882" font-family="Arial" fill="#000000">Inject WAMP events via plain </text>
<text xml:space="preserve" font-size="16.259px" y="265.14905" x="851.72882" font-family="Arial" fill="#000000">old HTTP</text>
<text xml:space="preserve" font-size="16.259px" y="265.14905" x="921.76819" font-family="Arial" fill="#000000">/</text>
<text xml:space="preserve" font-size="16.259px" y="265.14905" x="926.771" font-family="Arial" fill="#000000">POST requests</text>
</g>
</g>
</svg>
