<?xml version="1.0" encoding="UTF-8" standalone="no"?>
<svg xmlns:rdf="http://www.w3.org/1999/02/22-rdf-syntax-ns#" xmlns="http://www.w3.org/2000/svg" version="1.1" xmlns:cc="http://creativecommons.org/ns#" xmlns:dc="http://purl.org/dc/elements/1.1/" viewBox="0 0 1086.7 613.18">
<g transform="translate(131.23 -443.61)">
<g transform="translate(-123.13 451.74)">
<path d="m1045 474.64c13.054 0 23.607-10.631 23.607-23.685v-283.6c0-13.054-10.553-23.607-23.607-23.607h-813.11c-13.054 0-23.607 10.553-23.607 23.607v283.6c0 13.054 10.553 23.685 23.607 23.685h813.11z" fill-rule="evenodd" fill="#d9d9d9"/>
<path d="m260.3 261.87v70.977h118.19v-70.977h-118.19z" fill-rule="evenodd" fill="#404040"/>
<text font-weight="bold" xml:space="preserve" font-size="15.008px" y="292.66452" x="297.66733" font-family="Arial" fill="#ffc000">Guest</text>
<text xml:space="preserve" font-size="15.008px" y="311.42508" x="295.16592" font-family="Arial" fill="#ffc000">Worker</text>
<path d="m1011.9 403.74c13.054 0 23.685-10.631 23.685-23.685s-10.631-23.607-23.685-23.607h-118.11c-13.054 0-23.685 10.553-23.685 23.607s10.631 23.685 23.685 23.685h118.11z" fill-rule="evenodd" fill="#8c8c8c"/>
<text xml:space="preserve" font-size="15.008px" y="383.96585" x="885.4978" font-family="Arial" fill="#ffffff">Key </text>
<text xml:space="preserve" font-size="15.008px" y="383.96585" x="915.51465" font-family="Arial" fill="#ffffff">&amp; </text>
<text xml:space="preserve" font-size="15.008px" y="383.96585" x="930.52307" font-family="Arial" fill="#ffffff">Configuration</text>
<path d="m402.1 261.87v70.977h115.3v-70.977h-115.3z" fill-rule="evenodd" fill="#404040"/>
<text font-weight="bold" xml:space="preserve" font-size="15.008px" y="292.66452" x="425.23904" font-family="Arial" fill="#ffc000">Container</text>
<text xml:space="preserve" font-size="15.008px" y="311.42508" x="435.24469" font-family="Arial" fill="#ffc000">Worker</text>
<path d="m616.6 261.87v70.977h118.19v-70.977h-118.19z" fill-rule="evenodd" fill="#404040"/>
<text font-weight="bold" xml:space="preserve" font-size="16.259px" y="292.66452" x="649.11493" font-family="Arial" fill="#ffc000">Router</text>
<text xml:space="preserve" font-size="16.259px" y="312.67578" x="649.11493" font-family="Arial" fill="#ffc000">Worker</text>
<path d="m803.97 403.74c13.054 0 23.607-10.631 23.607-23.685s-10.553-23.607-23.607-23.607h-252.56c-13.054 0-23.607 10.553-23.607 23.607s10.553 23.685 23.607 23.685h252.56z" fill-rule="evenodd" fill="#ffc000"/>
<text xml:space="preserve" font-size="15.008px" y="383.96585" x="597.83606" font-family="Arial" fill="#000000">One or more Transports</text>
<path d="m867.75 190.97v141.88h167.83v-141.88h-167.83z" fill-rule="evenodd" fill="#404040"/>
<text xml:space="preserve" font-size="20.011px" y="256.39413" x="928.02173" font-family="Arial" fill="#ffc000">Node</text>
<text xml:space="preserve" font-size="20.011px" y="280.1575" x="908.01044" font-family="Arial" fill="#ffc000">Controller</text>
<path d="m744.87 403.74-14.227 14.149h9.3803v127.65h9.6148v-127.65h9.3803l-14.149-14.149z" fill-rule="evenodd" fill="#bfbfbf"/>
<path d="m673.97 403.74-14.227 14.149h9.3803v127.65h9.6148v-127.65h9.3803l-14.149-14.149z" fill-rule="evenodd" fill="#bfbfbf"/>
<path d="m603 403.74-14.149 14.149h9.3803v127.65h9.6148v-127.65h9.3803l-14.227-14.149z" fill-rule="evenodd" fill="#bfbfbf"/>
<path d="m1021.4 96.46c13.054 0 23.685-10.553 23.685-23.607v-47.292c0-13.054-10.631-23.685-23.685-23.685h-139.45c-13.054 0-23.607 10.631-23.607 23.685v47.292c0 13.054 10.553 23.607 23.607 23.607h139.45z" fill-rule="evenodd" fill="#f60"/>
<text xml:space="preserve" font-size="20.011px" y="42.523907" x="893.00201" font-family="Arial" fill="#ffffff">Management</text>
<text xml:space="preserve" font-size="20.011px" y="67.537964" x="918.01605" font-family="Arial" fill="#ffffff">Service</text>
<text font-weight="bold" xml:space="preserve" font-size="23.763px" y="457.75732" x="835.46967" font-family="Arial" fill="#404040">Crossbar</text>
<text font-weight="bold" xml:space="preserve" font-size="23.763px" y="457.75732" x="938.02734" font-family="Arial" fill="#404040">.</text>
<text font-weight="bold" xml:space="preserve" font-size="23.763px" y="457.75732" x="944.28082" font-family="Arial" fill="#404040">io </text>
<text xml:space="preserve" font-size="23.763px" y="457.75732" x="971.79633" font-family="Arial" fill="#404040">Node</text>
<path d="m951.63 96.46-12.976 12.976h8.5986v81.53h8.8331v-81.53h8.5204l-12.976-12.976z" fill-rule="evenodd" fill="#f60"/>
<path stroke-linejoin="round" d="m951.63 96.46-12.976 12.976h8.5986v81.53h8.8331v-81.53h8.5204l-12.976-12.976z" stroke="#f60" stroke-linecap="round" stroke-width=".39084px" fill="none"/>
<path d="m319.79 238.26-14.149 10.631h9.3803v12.976h9.6148v-12.976h9.3803l-14.227-10.631z" fill-rule="evenodd" fill="#737373"/>
<path d="m461.59 238.26-14.149 10.631h9.3803v12.976h9.6148v-12.976h9.3803l-14.227-10.631z" fill-rule="evenodd" fill="#737373"/>
<path d="m675.69 332.84-14.149 10.631h9.3803v12.976h9.6148v-12.976h9.3803l-14.227-10.631z" fill-rule="evenodd" fill="#737373"/>
<path d="m675.15 238.26-14.227 10.631h9.3803v12.976h9.693v-12.976h9.3021l-14.149-10.631z" fill-rule="evenodd" fill="#737373"/>
<path d="m803.97 238.26c13.054 0 23.607-10.553 23.607-23.607s-10.553-23.685-23.607-23.685h-543.66c-13.054 0-23.607 10.631-23.607 23.685s10.553 23.607 23.607 23.607h543.66z" fill-rule="evenodd" fill="#ffc000"/>
<text xml:space="preserve" font-size="15.008px" y="218.87305" x="352.69827" font-family="Arial" fill="#000000">WAMP over Unix Domain Socket or Loopback TCP</text>
<text xml:space="preserve" font-size="15.008px" y="218.87305" x="692.88953" font-family="Arial" fill="#000000">/</text>
<text xml:space="preserve" font-size="15.008px" y="218.87305" x="697.89233" font-family="Arial" fill="#000000">IP</text>
<text xml:space="preserve" font-size="23.763px" y="590.33185" x="587.83044" font-family="Arial" fill="#000000">Application Clients</text>
<path d="m2.1106 104.9v-36.427h284.61v97.086h-113.97l87.549 131.79-144.22-131.79h-113.97v-60.659z" fill-rule="evenodd" fill="#fff"/>
<path stroke-linejoin="round" d="m2.1106 104.9v-36.427h284.61v97.086h-113.97l87.549 131.79-144.22-131.79h-113.97v-60.659z" stroke="#000" stroke-linecap="round" stroke-width=".39084px" fill="none"/>
<text xml:space="preserve" font-size="16.259px" y="102.55765" x="8.7549219" font-family="Arial" fill="#000000">Multiple application components can </text>
<text xml:space="preserve" font-size="16.259px" y="122.5689" x="8.7549219" font-family="Arial" fill="#000000">be run in workers together with </text>
<text xml:space="preserve" font-size="16.259px" y="142.58015" x="8.7549219" font-family="Arial" fill="#000000">routers in a single node</text>
</g>
</g>
</svg>
