<?xml version="1.0" encoding="UTF-8" standalone="no"?>
<svg xmlns:rdf="http://www.w3.org/1999/02/22-rdf-syntax-ns#" xmlns="http://www.w3.org/2000/svg" version="1.1" xmlns:cc="http://creativecommons.org/ns#" xmlns:dc="http://purl.org/dc/elements/1.1/" viewBox="0 0 1094.6 613.12">
<g transform="translate(224 -211.99)">
<g transform="translate(-215.9 220.12)">
<path d="m1052.9 474.38c13.047 0 23.594-10.625 23.594-23.672v-283.44c0-13.047-10.547-23.594-23.594-23.594h-812.58c-13.047 0-23.672 10.547-23.672 23.594v283.44c0 13.047 10.625 23.672 23.672 23.672h812.58z" fill-rule="evenodd" fill="#d9d9d9"/>
<path d="m268.67 261.72v70.938h118.05v-70.938h-118.05z" fill-rule="evenodd" fill="#404040"/>
<text font-weight="bold" xml:space="preserve" font-size="16.25px" y="292.5" x="301.25" font-family="Arial" fill="#ffc000">Bridge </text>
<text font-weight="bold" xml:space="preserve" font-size="16.25px" y="312.5" x="298.75" font-family="Arial" fill="#ffc000">Worker</text>
<path d="m1019.8 403.52c13.047 0 23.594-10.625 23.594-23.672s-10.547-23.594-23.594-23.594h-118.13c-13.047 0-23.594 10.547-23.594 23.594s10.547 23.672 23.594 23.672h118.13z" fill-rule="evenodd" fill="#8c8c8c"/>
<text xml:space="preserve" font-size="15px" y="383.75" x="893.75" font-family="Arial" fill="#ffffff">Key </text>
<text xml:space="preserve" font-size="15px" y="383.75" x="923.75" font-family="Arial" fill="#ffffff">&amp; </text>
<text xml:space="preserve" font-size="15px" y="383.75" x="938.75" font-family="Arial" fill="#ffffff">Configuration</text>
<path d="m410.39 261.72v70.938h118.12v-70.938h-118.12z" fill-rule="evenodd" fill="#404040"/>
<text font-weight="bold" xml:space="preserve" font-size="16.25px" y="292.5" x="442.5" font-family="Arial" fill="#ffc000">Bridge </text>
<text font-weight="bold" xml:space="preserve" font-size="16.25px" y="312.5" x="441.25" font-family="Arial" fill="#ffc000">Worker</text>
<path d="m552.11 261.72v70.938h118.12v-70.938h-118.12z" fill-rule="evenodd" fill="#404040"/>
<text xml:space="preserve" font-size="16.25px" y="292.5" x="586.25" font-family="Arial" fill="#ffc000">Router</text>
<text xml:space="preserve" font-size="16.25px" y="312.5" x="583.75" font-family="Arial" fill="#ffc000">Worker</text>
<path d="m693.83 261.72v70.938h118.12v-70.938h-118.12z" fill-rule="evenodd" fill="#404040"/>
<text xml:space="preserve" font-size="16.25px" y="292.5" x="727.5" font-family="Arial" fill="#ffc000">Router</text>
<text xml:space="preserve" font-size="16.25px" y="312.5" x="726.25" font-family="Arial" fill="#ffc000">Worker</text>
<path d="m811.95 403.52c13.047 0 23.594-10.625 23.594-23.672 0.01-13.05-10.54-23.6-23.59-23.6h-252.34c-13.047 0-23.672 10.547-23.672 23.594s10.625 23.672 23.672 23.672h252.34z" fill-rule="evenodd" fill="#ffc000"/>
<text xml:space="preserve" font-size="15px" y="383.75" x="565" font-family="Arial" fill="#000000">All Workers listen on same TCP port</text>
<path d="m875.7 190.86v141.8h167.73v-141.8h-167.73z" fill-rule="evenodd" fill="#404040"/>
<text xml:space="preserve" font-size="20px" y="267.5" x="890" font-family="Arial" fill="#ffc000">Node Controller</text>
<path d="m752.89 403.52-14.141 14.141h9.2969v127.58h9.6875v-127.58h9.2969l-14.141-14.141z" fill-rule="evenodd" fill="#bfbfbf"/>
<path d="m682.03 403.52-14.141 14.141h9.2969v127.58h9.6875v-127.58h9.2969l-14.141-14.141z" fill-rule="evenodd" fill="#bfbfbf"/>
<path d="m611.17 403.52-14.219 14.141h9.375v127.58h9.6875v-127.58h9.2969l-14.141-14.141z" fill-rule="evenodd" fill="#bfbfbf"/>
<path d="m1029.3 96.406c13.047 0 23.594-10.547 23.594-23.594v-47.266c0-13.046-10.6-23.671-23.6-23.671h-139.38c-13.04 0-23.67 10.625-23.67 23.672v47.266c0 13.047 10.625 23.594 23.672 23.594h139.38z" fill-rule="evenodd" fill="#f60"/>
<text xml:space="preserve" font-size="20px" y="42.5" x="901.25" font-family="Arial" fill="#ffffff">Management</text>
<text xml:space="preserve" font-size="20px" y="67.5" x="926.25" font-family="Arial" fill="#ffffff">Service</text>
<text font-weight="bold" xml:space="preserve" font-size="23.75px" y="457.5" x="843.75" font-family="Arial" fill="#404040">Crossbar</text>
<text font-weight="bold" xml:space="preserve" font-size="23.75px" y="457.5" x="946.25" font-family="Arial" fill="#404040">.</text>
<text font-weight="bold" xml:space="preserve" font-size="23.75px" y="457.5" x="952.5" font-family="Arial" fill="#404040">io </text>
<text xml:space="preserve" font-size="23.75px" y="457.5" x="980" font-family="Arial" fill="#404040">Node</text>
<path d="m959.61 96.406-12.969 12.969h8.5156v81.484h8.8281v-81.484h8.5937l-12.969-12.969z" fill-rule="evenodd" fill="#f60"/>
<path stroke-linejoin="round" d="m959.61 96.406-12.969 12.969h8.5156v81.484h8.8281v-81.484h8.5937l-12.969-12.969z" stroke="#f60" stroke-linecap="round" stroke-width=".39062px" fill="none"/>
<path d="m678.52 96.406c13.047 0 23.594-10.547 23.594-23.594v-47.266c0-13.046-10.55-23.671-23.59-23.671h-70.938c-12.969 0-23.594 10.625-23.594 23.672v47.266c0 13.047 10.625 23.594 23.594 23.594h70.938z" fill-rule="evenodd" fill="#d9d9d9"/>
<text font-weight="bold" xml:space="preserve" font-size="16.25px" y="43.75" x="596.25" font-family="Arial" fill="#595959">Crossbar</text>
<text font-weight="bold" xml:space="preserve" font-size="16.25px" y="43.75" x="670" font-family="Arial" fill="#595959">.</text>
<text font-weight="bold" xml:space="preserve" font-size="16.25px" y="43.75" x="675" font-family="Arial" fill="#595959">io</text>
<text xml:space="preserve" font-size="16.25px" y="63.75" x="622.5" font-family="Arial" fill="#595959">Node</text>
<path d="m328.12 238.12-14.219 10.625h9.375v12.969h9.6094v-12.969h9.375l-14.141-10.625z" fill-rule="evenodd" fill="#737373"/>
<path d="m469.84 238.12-14.219 10.625h9.375v12.969h9.6094v-12.969h9.375l-14.141-10.625z" fill-rule="evenodd" fill="#737373"/>
<path d="m611.17 332.66-14.219 10.625h9.375v12.969h9.6875v-12.969h9.2969l-14.141-10.625z" fill-rule="evenodd" fill="#737373"/>
<path d="m582.81 238.12-14.141 10.625h9.2969v12.969h9.6875v-12.969h9.2969l-14.141-10.625z" fill-rule="evenodd" fill="#737373"/>
<path d="m641.88 96.406-14.141 14.141h9.2969v151.17h9.6875v-151.17h9.2969l-14.15-14.144z" fill-rule="evenodd" fill="#737373"/>
<path d="m752.89 332.66-14.141 10.625h9.2969v12.969h9.6875v-12.969h9.2969l-14.141-10.625z" fill-rule="evenodd" fill="#737373"/>
<path d="m724.53 238.12-14.141 10.625h9.375v12.969h9.6094v-12.969h9.375l-14.219-10.625z" fill-rule="evenodd" fill="#737373"/>
<path d="m783.59 96.406-14.141 14.141h9.2969v151.17h9.6875v-151.17h9.375l-14.219-14.141z" fill-rule="evenodd" fill="#737373"/>
<path d="m811.95 238.12c13.047 0 23.594-10.547 23.594-23.594s-10.547-23.672-23.594-23.672h-543.28c-13.05 0-23.67 10.62-23.67 23.67 0 13.047 10.625 23.594 23.672 23.594h543.28z" fill-rule="evenodd" fill="#ffc000"/>
<text xml:space="preserve" font-size="15px" y="218.75" x="360" font-family="Arial" fill="#000000">WAMP over Unix Domain Socket or Loopback TCP</text>
<text xml:space="preserve" font-size="15px" y="218.75" x="701.25" font-family="Arial" fill="#000000">/</text>
<text xml:space="preserve" font-size="15px" y="218.75" x="706.25" font-family="Arial" fill="#000000">IP</text>
<path d="m819.06 96.406c13.047 0 23.594-10.547 23.594-23.594v-47.266c0.01-13.046-10.54-23.671-23.59-23.671h-70.859c-13.047 0-23.672 10.625-23.672 23.672v47.266c0 13.047 10.625 23.594 23.672 23.594h70.859z" fill-rule="evenodd" fill="#d9d9d9"/>
<text font-weight="bold" xml:space="preserve" font-size="16.25px" y="43.75" x="737.5" font-family="Arial" fill="#595959">Crossbar</text>
<text font-weight="bold" xml:space="preserve" font-size="16.25px" y="43.75" x="810" font-family="Arial" fill="#595959">.</text>
<text font-weight="bold" xml:space="preserve" font-size="16.25px" y="43.75" x="815" font-family="Arial" fill="#595959">io</text>
<text xml:space="preserve" font-size="16.25px" y="63.75" x="763.75" font-family="Arial" fill="#595959">Node</text>
<text xml:space="preserve" font-size="23.75px" y="590" x="596.25" font-family="Arial" fill="#000000">Application Clients</text>
<path d="m327.73 332.66-14.219 14.141h9.375l0.39063 194.14 9.6094-0.0781-0.3125-194.06h9.2969l-14.141-14.141z" fill-rule="evenodd" fill="#a6a6a6"/>
<path d="m469.45 332.66-14.141 14.141h9.2969l0.39 194.14 9.6094-0.0781-0.3125-194.06h9.2969l-14.141-14.141z" fill-rule="evenodd" fill="#a6a6a6"/>
<text xml:space="preserve" font-size="23.75px" y="590" x="317.5" font-family="Arial" fill="#000000">Bridge Targets</text>
<path d="m2.1094 59.297v-27.422h273.98v73.203h-108.59l57.109 44.531-113.83-44.531h-108.67v-45.781z" fill-rule="evenodd" fill="#fff"/>
<path stroke-linejoin="round" d="m2.1094 59.297v-27.422h273.98v73.203h-108.59l57.109 44.531-113.83-44.531h-108.67v-45.781z" stroke="#000" stroke-linecap="round" stroke-width=".39062px" fill="none"/>
<text xml:space="preserve" font-size="16.25px" y="53.75" x="41.25" font-family="Arial" fill="#000000">Multiple bridges</text>
<text xml:space="preserve" font-size="16.25px" y="53.75" x="157.5" font-family="Arial" fill="#000000">, </text>
<text xml:space="preserve" font-size="16.25px" y="53.75" x="166.25" font-family="Arial" fill="#000000">optionally </text>
<text xml:space="preserve" font-size="16.25px" y="73.75" x="10" font-family="Arial" fill="#000000">together with routers can be run on </text>
<text xml:space="preserve" font-size="16.25px" y="93.75" x="113.75" font-family="Arial" fill="#000000">a node</text>
</g>
</g>
</svg>
