<?xml version="1.0" encoding="UTF-8" standalone="no"?>
<svg xmlns:rdf="http://www.w3.org/1999/02/22-rdf-syntax-ns#" xmlns="http://www.w3.org/2000/svg" version="1.1" xmlns:cc="http://creativecommons.org/ns#" xmlns:dc="http://purl.org/dc/elements/1.1/" viewBox="0 0 1064.2 460.88">
<g transform="translate(211.57 -237.34)">
<g transform="translate(-203.44 245.44)">
<path stroke-linejoin="round" d="m630.59 416.48v23.685h-104.04v-296.26h-210.2v23.685" stroke="#b59f00" stroke-linecap="round" stroke-width="5.2373px" fill="none"/>
<path d="m1022.4 377.17c13.054 0 23.607-10.553 23.607-23.607v-136.17c0-13.054-10.553-23.607-23.607-23.607h-429.62c-13.054 0-23.685 10.553-23.685 23.607v136.17c0 13.054 10.631 23.607 23.685 23.607h429.62z" fill-rule="evenodd" fill="#d9d9d9"/>
<path d="m630.75 298.61-14.149 5.8627h9.3021v7.1915h9.693v-7.1915h9.3021l-14.149-5.8627z" fill-rule="evenodd" fill="#737373"/>
<path d="m597.99 259.29v39.319h65.506v-39.319h-65.506z" fill-rule="evenodd" fill="#404040"/>
<path d="m1014.6 337.92c7.2697 0 13.132-5.8627 13.132-13.132 0-7.2697-5.8627-13.132-13.132-13.132h-65.506c-7.2697 0-13.132 5.8627-13.132 13.132 0 7.2697 5.8627 13.132 13.132 13.132h65.506z" fill-rule="evenodd" fill="#8c8c8c"/>
<path d="m676.63 259.29v39.319h65.506v-39.319h-65.506z" fill-rule="evenodd" fill="#404040"/>
<path d="m755.19 259.29v39.319h65.506v-39.319h-65.506z" fill-rule="evenodd" fill="#404040"/>
<path d="m833.83 259.29v39.319h65.506v-39.319h-65.506z" fill-rule="evenodd" fill="#404040"/>
<path d="m899.33 337.92c7.2697 0 13.132-5.8627 13.132-13.132 0-7.2697-5.8627-13.132-13.132-13.132h-301.34c-7.2697 0-13.132 5.8627-13.132 13.132 0 7.2697 5.8627 13.132 13.132 13.132h301.34z" fill-rule="evenodd" fill="#ffc000"/>
<path d="m934.74 219.97v78.638h93.021v-78.638h-93.021z" fill-rule="evenodd" fill="#404040"/>
<path d="m630.75 337.92-14.149 14.149h9.3021v64.411h9.693v-64.411h9.3021l-14.149-14.149z" fill-rule="evenodd" fill="#bfbfbf"/>
<path d="m670.06 337.92-14.227 14.149h9.3803v64.411h9.6148v-64.411h9.3803l-14.149-14.149z" fill-rule="evenodd" fill="#bfbfbf"/>
<path d="m866.58 337.92-14.149 14.149h9.3021v64.411h9.693v-64.411h9.3021l-14.149-14.149z" fill-rule="evenodd" fill="#bfbfbf"/>
<path d="m827.26 337.92-14.149 14.149h9.3021v64.411h9.693v-64.411h9.3803l-14.227-14.149z" fill-rule="evenodd" fill="#bfbfbf"/>
<path d="m709.38 337.92-14.227 14.149h9.3803v64.411h9.6148v-64.411h9.3803l-14.149-14.149z" fill-rule="evenodd" fill="#bfbfbf"/>
<path d="m748.62 337.92-14.149 14.149h9.3803v64.411h9.6148v-64.411h9.3803l-14.227-14.149z" fill-rule="evenodd" fill="#bfbfbf"/>
<path d="m787.94 337.92-14.149 14.149h9.3803v64.411h9.6148v-64.411h9.3803l-14.227-14.149z" fill-rule="evenodd" fill="#bfbfbf"/>
<text font-weight="bold" xml:space="preserve" font-size="13.758px" y="367.7067" x="915.51465" font-family="Arial" fill="#404040">Crossbar</text>
<text font-weight="bold" xml:space="preserve" font-size="13.758px" y="367.7067" x="974.29773" font-family="Arial" fill="#404040">.</text>
<text font-weight="bold" xml:space="preserve" font-size="13.758px" y="367.7067" x="978.0498" font-family="Arial" fill="#404040">io </text>
<text xml:space="preserve" font-size="13.758px" y="367.7067" x="993.05829" font-family="Arial" fill="#404040">Node</text>
<path d="m615.03 246.15-14.227 5.9408h9.3803v7.1916h9.6148v-7.1916h9.3803l-14.149-5.9408z" fill-rule="evenodd" fill="#737373"/>
<path d="m647.79 167.59-14.227 14.149h9.3803v77.544h9.693v-77.544h9.3021l-14.149-14.149z" fill-rule="evenodd" fill="#737373"/>
<path d="m709.38 298.61-14.227 5.8627h9.3803v7.1915h9.6148v-7.1915h9.3803l-14.149-5.8627z" fill-rule="evenodd" fill="#737373"/>
<path d="m693.59 246.15-14.149 5.9408h9.3803v7.1916h9.6148v-7.1916h9.3803l-14.227-5.9408z" fill-rule="evenodd" fill="#737373"/>
<path d="m726.42 167.59-14.227 14.149h9.3803v77.544h9.6148v-77.544h9.3803l-14.149-14.149z" fill-rule="evenodd" fill="#737373"/>
<path d="m787.94 298.61-14.149 5.8627h9.3803v7.1915h9.6148v-7.1915h9.3803l-14.227-5.8627z" fill-rule="evenodd" fill="#737373"/>
<path d="m772.23 246.15-14.149 5.9408h9.3021v7.1916h9.693v-7.1916h9.3803l-14.227-5.9408z" fill-rule="evenodd" fill="#737373"/>
<path d="m804.98 167.59-14.149 14.149h9.3803v77.544h9.6148v-77.544h9.3803l-14.227-14.149z" fill-rule="evenodd" fill="#737373"/>
<path d="m866.58 298.61-14.149 5.8627h9.3021v7.1915h9.693v-7.1915h9.3021l-14.149-5.8627z" fill-rule="evenodd" fill="#737373"/>
<path d="m850.87 246.15-14.227 5.9408h9.3803v7.1916h9.6929v-7.1916h9.3021l-14.149-5.9408z" fill-rule="evenodd" fill="#737373"/>
<path d="m883.62 167.59-14.227 14.149h9.3803v77.544h9.693v-77.544h9.3021l-14.149-14.149z" fill-rule="evenodd" fill="#737373"/>
<path d="m899.33 246.15c7.2697 0 13.132-5.8627 13.132-13.054 0-7.2697-5.8627-13.132-13.132-13.132h-301.34c-7.2697 0-13.132 5.8627-13.132 13.132 0 7.1915 5.8627 13.054 13.132 13.054h301.34z" fill-rule="evenodd" fill="#ffc000"/>
<path d="m455.18 377.17c13.054 0 23.685-10.553 23.685-23.607v-136.17c0-13.054-10.631-23.607-23.685-23.607h-429.62c-13.054 0-23.685 10.553-23.685 23.607v136.17c0 13.054 10.631 23.607 23.685 23.607h429.62z" fill-rule="evenodd" fill="#d9d9d9"/>
<path d="m63.473 298.61-14.149 5.8627h9.3803v7.1915h9.6148v-7.1915h9.3803l-14.227-5.8627z" fill-rule="evenodd" fill="#737373"/>
<path d="m30.72 259.29v39.319h65.506v-39.319h-65.506z" fill-rule="evenodd" fill="#404040"/>
<path d="m447.36 337.92c7.2697 0 13.132-5.8627 13.132-13.132 0-7.2697-5.8627-13.132-13.132-13.132h-65.506c-7.1915 0-13.054 5.8627-13.054 13.132 0 7.2697 5.8627 13.132 13.054 13.132h65.506z" fill-rule="evenodd" fill="#8c8c8c"/>
<path d="m109.36 259.29v39.319h65.506v-39.319h-65.506z" fill-rule="evenodd" fill="#404040"/>
<path d="m188 259.29v39.319h65.506v-39.319h-65.506z" fill-rule="evenodd" fill="#404040"/>
<path d="m266.56 259.29v39.319h65.506v-39.319h-65.506z" fill-rule="evenodd" fill="#404040"/>
<path d="m332.06 337.92c7.2697 0 13.132-5.8627 13.132-13.132 0-7.2697-5.8627-13.132-13.132-13.132h-301.34c-7.1915 0-13.054 5.8627-13.054 13.132 0 7.2697 5.8627 13.132 13.054 13.132h301.34z" fill-rule="evenodd" fill="#ffc000"/>
<path d="m367.47 219.97v78.638h93.021v-78.638h-93.021z" fill-rule="evenodd" fill="#404040"/>
<path d="m63.473 337.92-14.149 14.149h9.3803v64.411h9.6148v-64.411h9.3803l-14.227-14.149z" fill-rule="evenodd" fill="#bfbfbf"/>
<path d="m102.79 337.92-14.149 14.149h9.3021v64.411h9.693v-64.411h9.3803l-14.227-14.149z" fill-rule="evenodd" fill="#bfbfbf"/>
<path d="m299.31 337.92-14.149 14.149h9.3803v64.411h9.6148v-64.411h9.3803l-14.227-14.149z" fill-rule="evenodd" fill="#bfbfbf"/>
<path d="m259.99 337.92-14.149 14.149h9.3803v64.411h9.6148v-64.411h9.3803l-14.227-14.149z" fill-rule="evenodd" fill="#bfbfbf"/>
<path d="m142.11 337.92-14.149 14.149h9.3021v64.411h9.693v-64.411h9.3021l-14.149-14.149z" fill-rule="evenodd" fill="#bfbfbf"/>
<path d="m181.43 337.92-14.227 14.149h9.3803v64.411h9.6148v-64.411h9.3803l-14.149-14.149z" fill-rule="evenodd" fill="#bfbfbf"/>
<path d="m220.75 337.92-14.227 14.149h9.3803v64.411h9.6148v-64.411h9.3803l-14.149-14.149z" fill-rule="evenodd" fill="#bfbfbf"/>
<text font-weight="bold" xml:space="preserve" font-size="13.758px" y="367.7067" x="347.69547" font-family="Arial" fill="#404040">Crossbar</text>
<text font-weight="bold" xml:space="preserve" font-size="13.758px" y="367.7067" x="406.47852" font-family="Arial" fill="#404040">.</text>
<text font-weight="bold" xml:space="preserve" font-size="13.758px" y="367.7067" x="410.23062" font-family="Arial" fill="#404040">io </text>
<text xml:space="preserve" font-size="13.758px" y="367.7067" x="425.23904" font-family="Arial" fill="#404040">Node</text>
<path d="m47.761 246.15-14.149 5.9408h9.3021v7.1916h9.6929v-7.1916h9.3803l-14.227-5.9408z" fill-rule="evenodd" fill="#737373"/>
<path d="m80.514 167.59-14.149 14.149h9.3021v77.544h9.6929v-77.544h9.3803l-14.227-14.149z" fill-rule="evenodd" fill="#737373"/>
<path d="m142.11 298.61-14.149 5.8627h9.3021v7.1915h9.693v-7.1915h9.3021l-14.149-5.8627z" fill-rule="evenodd" fill="#737373"/>
<path d="m126.4 246.15-14.227 5.9408h9.3803v7.1916h9.6148v-7.1916h9.3803l-14.149-5.9408z" fill-rule="evenodd" fill="#737373"/>
<path d="m159.15 167.59-14.227 14.149h9.3803v77.544h9.693v-77.544h9.3021l-14.149-14.149z" fill-rule="evenodd" fill="#737373"/>
<path d="m220.75 298.61-14.227 5.8627h9.3803v7.1915h9.6148v-7.1915h9.3803l-14.149-5.8627z" fill-rule="evenodd" fill="#737373"/>
<path d="m204.96 246.15-14.149 5.9408h9.3803v7.1916h9.6148v-7.1916h9.3803l-14.227-5.9408z" fill-rule="evenodd" fill="#737373"/>
<path d="m237.79 167.59-14.227 14.149h9.3803v77.544h9.6148v-77.544h9.3803l-14.149-14.149z" fill-rule="evenodd" fill="#737373"/>
<path d="m299.31 298.61-14.149 5.8627h9.3803v7.1915h9.6148v-7.1915h9.3803l-14.227-5.8627z" fill-rule="evenodd" fill="#737373"/>
<path d="m283.6 246.15-14.149 5.9408h9.3021v7.1916h9.693v-7.1916h9.3803l-14.227-5.9408z" fill-rule="evenodd" fill="#737373"/>
<path d="m316.35 167.59-14.149 14.149h9.3803v77.544h9.6148v-77.544h9.3803l-14.227-14.149z" fill-rule="evenodd" fill="#737373"/>
<path d="m332.06 246.15c7.2697 0 13.132-5.8627 13.132-13.054 0-7.2697-5.8627-13.132-13.132-13.132h-301.34c-7.1915 0-13.054 5.8627-13.054 13.132 0 7.1915 5.8627 13.054 13.054 13.054h301.34z" fill-rule="evenodd" fill="#ffc000"/>
<path d="m530.14 29.626v-27.515h218.64v73.244h-81.999l-140.24 68.554 85.595-68.554h-81.999v-45.729z" fill-rule="evenodd" fill="#fff"/>
<path stroke-linejoin="round" d="m530.14 29.626v-27.515h218.64v73.244h-81.999l-140.24 68.554 85.595-68.554h-81.999v-45.729z" stroke="#000" stroke-linecap="round" stroke-width=".39084px" fill="none"/>
<text xml:space="preserve" font-size="16.259px" y="33.768986" x="561.56567" font-family="Arial" fill="#000000">Router</text>
<text xml:space="preserve" font-size="16.259px" y="33.768986" x="611.59381" font-family="Arial" fill="#000000">-</text>
<text xml:space="preserve" font-size="16.259px" y="33.768986" x="617.84735" font-family="Arial" fill="#000000">to</text>
<text xml:space="preserve" font-size="16.259px" y="33.768986" x="631.60504" font-family="Arial" fill="#000000">-</text>
<text xml:space="preserve" font-size="16.259px" y="33.768986" x="636.60791" font-family="Arial" fill="#000000">Router link </text>
<text xml:space="preserve" font-size="16.259px" y="53.780231" x="541.55444" font-family="Arial" fill="#000000">connecting different nodes</text>
</g>
</g>
</svg>
