<?xml version="1.0" encoding="UTF-8" standalone="no"?>
<svg xmlns:rdf="http://www.w3.org/1999/02/22-rdf-syntax-ns#" xmlns="http://www.w3.org/2000/svg" version="1.1" xmlns:cc="http://creativecommons.org/ns#" xmlns:dc="http://purl.org/dc/elements/1.1/" viewBox="0 0 786.03 367.35">
<g transform="translate(749.16 -185.08)">
<g transform="translate(-741.07 193.2)">
<path d="m262.1 1.8761v307.28h505.83v-307.28h-505.83z" fill-rule="evenodd" fill="#595959"/>
<text font-weight="bold" xml:space="preserve" font-size="23.763px" y="348.94617" x="489.0249" font-family="Arial" fill="#404040">Host</text>
<path d="m481.05 285.55c13.054 0 23.685-10.631 23.685-23.685v-221.84c0-13.054-10.631-23.607-23.685-23.607h-174.71c-13.054 0-23.685 10.553-23.685 23.607v221.84c0 13.054 10.631 23.685 23.685 23.685h174.71z" fill-rule="evenodd" fill="#d9d9d9"/>
<text font-weight="bold" xml:space="preserve" font-size="20.011px" y="268.90118" x="307.67297" font-family="Arial" fill="#404040">Crossbar</text>
<text font-weight="bold" xml:space="preserve" font-size="20.011px" y="268.90118" x="395.22217" font-family="Arial" fill="#404040">.</text>
<text font-weight="bold" xml:space="preserve" font-size="20.011px" y="268.90118" x="400.22498" font-family="Arial" fill="#404040">io </text>
<text xml:space="preserve" font-size="20.011px" y="268.90118" x="423.98834" font-family="Arial" fill="#404040">Node</text>
<path d="m314.71 189.17v22.513c0 6.2535 34.942 11.256 78.013 11.256s78.013-5.0028 78.013-11.256v-22.513c0-6.1753-34.942-11.256-78.013-11.256s-78.013 5.081-78.013 11.256z" fill-rule="evenodd" fill="#ffde00"/>
<path stroke-linejoin="round" d="m314.71 189.17v22.513c0 6.2535 34.942 11.256 78.013 11.256s78.013-5.0028 78.013-11.256v0-22.513c0-6.1753-34.942-11.256-78.013-11.256s-78.013 5.081-78.013 11.256z" stroke="#000" stroke-linecap="round" stroke-width="1.1725px" fill="none"/>
<path stroke-linejoin="round" d="m314.71 189.17c0 6.2535 34.942 11.256 78.013 11.256s78.013-5.0028 78.013-11.256v0" stroke="#000" stroke-linecap="round" stroke-width="1.1725px" fill="none"/>
<path stroke-linejoin="round" d="m392.72 149.69v28.219" stroke="#ffde00" stroke-linecap="round" stroke-width="3.5958px" fill="none"/>
<path d="m461.27 149.69c13.054 0 23.607-10.553 23.607-23.607v-62.301c0-13.054-10.553-23.607-23.607-23.607h-137.11c-13.054 0-23.607 10.553-23.607 23.607v62.301c0 13.054 10.553 23.607 23.607 23.607h137.11z" fill-rule="evenodd" fill="#595959"/>
<path stroke-linejoin="round" d="m461.27 149.69c13.054 0 23.607-10.553 23.607-23.607v0-62.301c0-13.054-10.553-23.607-23.607-23.607v0h-137.11c-13.054 0-23.607 10.553-23.607 23.607v0 62.301c0 13.054 10.553 23.607 23.607 23.607v0h137.11z" stroke="#000" stroke-linecap="round" stroke-width="3.5958px" fill="none"/>
<path d="m366.07 65.662v54.406h54.406v-54.406h-54.406z" fill-rule="evenodd"/>
<path d="m366.07 77.231v5.3937h12.82l8.5204 8.5204 3.9866-3.9084-10.084-10.162-15.243 0.15634z" fill-rule="evenodd" fill="#ffe100"/>
<path d="m399.05 94.897-3.9084 3.9866 9.7711 9.6929h15.556v-5.3936h-13.132l-8.2859-8.2859z" fill-rule="evenodd" fill="#ffe100"/>
<path d="m405.31 77.153-25.952 26.03h-13.289v5.4718h15.556l26.03-26.03h12.82v-5.4718h-15.165z" fill-rule="evenodd" fill="#ffe100"/>
<path d="m722.12 285.55c13.054 0 23.685-10.631 23.685-23.685v-221.84c0-13.054-10.631-23.607-23.685-23.607h-174.71c-13.054 0-23.685 10.553-23.685 23.607v221.84c0 13.054 10.631 23.685 23.685 23.685h174.71z" fill-rule="evenodd" fill="#d9d9d9"/>
<text font-weight="bold" xml:space="preserve" font-size="20.011px" y="268.90118" x="549.05865" font-family="Arial" fill="#404040">Crossbar</text>
<text font-weight="bold" xml:space="preserve" font-size="20.011px" y="268.90118" x="636.60791" font-family="Arial" fill="#404040">.</text>
<text font-weight="bold" xml:space="preserve" font-size="20.011px" y="268.90118" x="641.61072" font-family="Arial" fill="#404040">io </text>
<text xml:space="preserve" font-size="20.011px" y="268.90118" x="665.37402" font-family="Arial" fill="#404040">Node</text>
<path d="m555.78 189.17v22.513c0 6.2535 34.942 11.256 78.013 11.256s78.013-5.0028 78.013-11.256v-22.513c0-6.1753-34.942-11.256-78.013-11.256s-78.013 5.081-78.013 11.256z" fill-rule="evenodd" fill="#ffde00"/>
<path stroke-linejoin="round" d="m555.78 189.17v22.513c0 6.2535 34.942 11.256 78.013 11.256s78.013-5.0028 78.013-11.256v0 0-22.513c0-6.1753-34.942-11.256-78.013-11.256s-78.013 5.081-78.013 11.256z" stroke="#000" stroke-linecap="round" stroke-width="1.1725px" fill="none"/>
<path stroke-linejoin="round" d="m555.78 189.17c0 6.2535 34.942 11.256 78.013 11.256s78.013-5.0028 78.013-11.256v0" stroke="#000" stroke-linecap="round" stroke-width="1.1725px" fill="none"/>
<path stroke-linejoin="round" d="m633.79 149.69v28.219" stroke="#ffde00" stroke-linecap="round" stroke-width="3.5958px" fill="none"/>
<path d="m702.35 149.69c13.054 0 23.607-10.553 23.607-23.607v-62.301c0-13.054-10.553-23.607-23.607-23.607h-137.11c-13.054 0-23.607 10.553-23.607 23.607v62.301c0 13.054 10.553 23.607 23.607 23.607h137.11z" fill-rule="evenodd" fill="#595959"/>
<path stroke-linejoin="round" d="m702.35 149.69c13.054 0 23.607-10.553 23.607-23.607v0-62.301c0-13.054-10.553-23.607-23.607-23.607v0h-137.11c-13.054 0-23.607 10.553-23.607 23.607v0 62.301c0 13.054 10.553 23.607 23.607 23.607v0h137.11z" stroke="#000" stroke-linecap="round" stroke-width="3.5958px" fill="none"/>
<path d="m607.22 65.662v54.406h54.327v-54.406h-54.327z" fill-rule="evenodd"/>
<path d="m607.22 77.231v5.3937h12.742l8.5204 8.5204 3.9866-3.9084-10.084-10.162-15.165 0.15634z" fill-rule="evenodd" fill="#ffe100"/>
<path d="m640.13 94.897-3.9084 3.9866 9.7711 9.6929h15.556v-5.3936h-13.132l-8.2859-8.2859z" fill-rule="evenodd" fill="#ffe100"/>
<path d="m646.38 77.153-25.952 26.03h-13.211v5.4718h15.477l26.03-26.03h12.82v-5.4718h-15.165z" fill-rule="evenodd" fill="#ffe100"/>
<path d="m2.1106 78.247v-29.079h212.7v77.387h-79.732l179.63 73.87-232.79-73.87h-79.81v-48.308z" fill-rule="evenodd" fill="#fff"/>
<path stroke-linejoin="round" d="m2.1106 78.247v-29.079h212.7v77.387h-79.732l179.63 73.87-232.79-73.87h-79.81v-48.308z" stroke="#000" stroke-linecap="round" stroke-width=".39084px" fill="none"/>
<text xml:space="preserve" font-size="16.259px" y="72.540779" x="8.7549219" font-family="Arial" fill="#000000">Each Crossbar</text>
<text xml:space="preserve" font-size="16.259px" y="72.540779" x="118.81679" font-family="Arial" fill="#000000">.</text>
<text xml:space="preserve" font-size="16.259px" y="72.540779" x="123.81961" font-family="Arial" fill="#000000">io node </text>
<text xml:space="preserve" font-size="16.259px" y="92.552032" x="8.7549219" font-family="Arial" fill="#000000">has it’s own</text>
<text xml:space="preserve" font-size="16.259px" y="92.552032" x="96.304138" font-family="Arial" fill="#000000">, </text>
<text xml:space="preserve" font-size="16.259px" y="92.552032" x="105.05906" font-family="Arial" fill="#000000">dedicated </text>
<text font-weight="bold" xml:space="preserve" font-size="16.259px" y="112.56328" x="8.7549219" font-family="Arial" fill="#000000">node data directory</text>
</g>
</g>
</svg>
