<?xml version="1.0" encoding="UTF-8" standalone="no"?>
<svg xmlns:rdf="http://www.w3.org/1999/02/22-rdf-syntax-ns#" xmlns="http://www.w3.org/2000/svg" version="1.1" xmlns:cc="http://creativecommons.org/ns#" xmlns:dc="http://purl.org/dc/elements/1.1/" viewBox="0 0 1062.3 431.72">
<g transform="translate(583.32 -407.63)">
<g transform="translate(-575.29 415.72)">
<path d="m920.36 172.44c13.054 0 23.685-10.553 23.685-23.607v-120.69c0-13.054-10.631-23.607-23.685-23.607h-108.73c-13.054 0-23.607 10.553-23.607 23.607v120.69c0 13.054 10.553 23.607 23.607 23.607h108.73z" fill-rule="evenodd" fill="#f2f2f2"/>
<path stroke-linejoin="round" d="m920.36 172.44c13.054 0 23.685-10.553 23.685-23.607v0-120.69c0-13.054-10.631-23.607-23.685-23.607v0h-108.73c-13.054 0-23.607 10.553-23.607 23.607v0 120.69c0 13.054 10.553 23.607 23.607 23.607h108.73z" stroke="#000" stroke-linecap="round" stroke-width="3.5958px" fill="none"/>
<text xml:space="preserve" font-size="21.262px" y="68.788673" x="831.71759" font-family="Arial" fill="#000000">WAMP </text>
<text xml:space="preserve" font-size="21.262px" y="95.053436" x="824.21332" font-family="Arial" fill="#000000">Backend</text>
<text xml:space="preserve" font-size="21.262px" y="121.3182" x="804.20209" font-family="Arial" fill="#000000">Components</text>
<path d="m138.05 411.01c13.054 0 23.685-10.553 23.685-23.607v-359.26c0-13.054-10.631-23.607-23.685-23.607h-110.69c-13.054 0-23.607 10.553-23.607 23.607v359.26c0 13.054 10.553 23.607 23.607 23.607h110.69z" fill-rule="evenodd" fill="#f2f2f2"/>
<path stroke-linejoin="round" d="m138.05 411.01c13.054 0 23.685-10.553 23.685-23.607v0-359.26c0-13.054-10.631-23.607-23.685-23.607v0h-110.69c-13.054 0-23.607 10.553-23.607 23.607v0 359.26c0 13.054 10.553 23.607 23.607 23.607v0h110.69z" stroke="#000" stroke-linecap="round" stroke-width="3.5958px" fill="none"/>
<text xml:space="preserve" font-size="23.763px" y="200.1125" x="32.51828" font-family="Arial" fill="#000000">Frontend</text>
<text xml:space="preserve" font-size="23.763px" y="200.1125" x="126.32101" font-family="Arial" fill="#000000">: </text>
<text font-weight="bold" xml:space="preserve" font-size="23.763px" y="228.87868" x="36.27039" font-family="Arial" fill="#000000">Browser</text>
<path d="m560.47 411.01c13.054 0 23.607-10.553 23.607-23.607v-359.26c0-13.054-10.553-23.607-23.607-23.607h-172.6c-13.054 0-23.607 10.553-23.607 23.607v359.26c0 13.054 10.553 23.607 23.607 23.607h172.6z" fill-rule="evenodd" fill="#ffe100"/>
<path stroke-linejoin="round" d="m560.47 411.01c13.054 0 23.607-10.553 23.607-23.607v0-359.26c0-13.054-10.553-23.607-23.607-23.607v0h-172.6c-13.054 0-23.607 10.553-23.607 23.607v0 359.26c0 13.054 10.553 23.607 23.607 23.607v0h172.6z" stroke="#ffc000" stroke-linecap="round" stroke-width="5.2373px" fill="none"/>
<path d="m413.83 138.59c-2.1106 0.39084-4.2211 0.62535-6.1754 0.62535-0.78169 0-1.5634 0-2.2669-0.0782-0.70352-0.0782-1.4852-0.23451-2.3451-0.46901-0.85986-0.23451-1.6416-0.54719-2.1887-0.93803-0.62535-0.39085-1.1725-0.93803-1.5634-1.6416-0.39084-0.70352-0.62535-1.4852-0.62535-2.4232v-8.5204c0-3.9084 2.9704-5.7845 8.9894-5.7845 1.407 0 3.4394 0.15633 6.0972 0.62535v3.4394c-2.3451-0.54718-4.3775-0.78169-6.0972-0.78169-0.62535 0-1.1725 0-1.6416 0.0782-0.39084 0-0.85986 0.0782-1.3289 0.23451-0.46901 0.15634-0.78169 0.46901-1.0162 0.78169-0.2345 0.31267-0.39084 0.78169-0.39084 1.3289v8.2859c0 1.7197 1.6416 2.5796 4.8465 2.5796 1.407 0 3.2831-0.31267 5.7063-0.85986v3.5176z" fill-rule="evenodd"/>
<path d="m426.1 127.81h-1.4852c-1.1725 0-2.1106 0.23451-2.6577 0.54719-0.62535 0.39084-0.93803 1.0162-0.93803 1.9542v8.5986h-4.2993v-14.383h4.0648v2.5796c0.0782-0.78169 0.46902-1.407 1.2507-1.9542 0.78169-0.62535 1.6415-0.93803 2.5014-0.93803h1.5634v3.5958z" fill-rule="evenodd"/>
<path d="m442.67 129.76v4.2211c0 0.93803-0.15634 1.7197-0.46902 2.4232-0.2345 0.62535-0.62535 1.1725-1.0944 1.5634-0.39085 0.31267-1.0162 0.62535-1.7197 0.85985-0.70352 0.15634-1.3289 0.31268-1.876 0.31268-0.62535 0.0782-1.3289 0.0782-2.1106 0.0782-0.85986 0-1.5634 0-2.1887-0.0782-0.54719 0-1.1725-0.15634-1.8761-0.31268-0.70352-0.2345-1.3289-0.54718-1.7197-0.85985-0.46901-0.39085-0.85985-0.93803-1.0944-1.5634-0.31268-0.70352-0.46902-1.4852-0.46902-2.4232v-4.2211c0-1.0162 0.15634-1.8761 0.46902-2.5796 0.31267-0.70352 0.70352-1.2507 1.0944-1.5634 0.46902-0.39084 1.0944-0.70352 1.7197-0.93803 0.78169-0.15633 1.407-0.31267 1.9542-0.39084 0.54719 0 1.2507-0.0782 2.1106-0.0782 0.78168 0 1.4852 0.0782 2.0324 0.0782 0.54718 0.0782 1.1725 0.23451 1.9542 0.39084 0.70352 0.23451 1.2507 0.54719 1.7197 0.93803 0.39084 0.31268 0.78169 0.85986 1.0944 1.5634 0.31268 0.70352 0.46902 1.5634 0.46902 2.5796zm-4.3775 4.7683v-5.4718c0-0.78169-0.15634-1.3289-0.54719-1.6416-0.39084-0.31268-1.1725-0.46902-2.3451-0.46902-1.2507 0-2.0324 0.15634-2.4232 0.46902-0.39085 0.31267-0.54718 0.85986-0.54718 1.6416v5.4718c0 0.70352 0.15633 1.2507 0.54718 1.5634 0.39084 0.31268 1.1725 0.46901 2.4232 0.46901 1.1725 0 1.9542-0.15633 2.3451-0.46901 0.39085-0.31268 0.54719-0.85986 0.54719-1.5634z" fill-rule="evenodd"/>
<path d="m458.46 133.36v1.7979c0 0.70352-0.15633 1.3289-0.39084 1.7979-0.31268 0.54718-0.62535 0.93803-1.0162 1.2507-0.39084 0.23451-0.93802 0.46902-1.5634 0.62535-0.70352 0.15634-1.3289 0.31268-1.9542 0.31268-0.54718 0.0782-1.2507 0.0782-2.1106 0.0782-1.5634 0-3.4394-0.15634-5.7063-0.39085v-2.8922c2.8141 0.39085 4.6901 0.62535 5.7845 0.62535 0.85986 0 1.4852-0.0782 1.9542-0.31267 0.46902-0.15634 0.70352-0.46902 0.70352-0.93803v-0.93803c0-0.46901-0.15634-0.78169-0.39084-1.0162-0.23451-0.23451-0.78169-0.31268-1.6416-0.31268h-1.8761c-1.4852 0-2.6577-0.31267-3.5176-0.93803-0.85986-0.62535-1.2507-1.4852-1.2507-2.6577v-1.7197c0-1.3289 0.62535-2.2669 1.876-2.7359 1.2507-0.46901 2.9704-0.78169 5.2373-0.78169 1.0162 0 2.6578 0.0782 5.1592 0.31268v2.7359c-3.1268-0.23451-4.8465-0.31268-5.2373-0.31268-1.2507 0-1.9542 0.0782-2.2669 0.23451-0.39084 0.15634-0.54718 0.46901-0.54718 0.93803v0.78169c0 0.2345 0.15634 0.46901 0.39085 0.70352 0.2345 0.15634 0.62535 0.23451 1.1725 0.23451h1.8761c3.5176 0 5.3155 1.1725 5.3155 3.5176z" fill-rule="evenodd"/>
<path d="m474.09 133.36v1.7979c0 0.70352-0.15634 1.3289-0.39084 1.7979-0.31268 0.54718-0.62535 0.93803-1.0162 1.2507-0.39084 0.23451-0.93803 0.46902-1.6416 0.62535-0.62535 0.15634-1.2507 0.31268-1.876 0.31268-0.54718 0.0782-1.3289 0.0782-2.1106 0.0782-1.5634 0-3.4394-0.15634-5.7063-0.39085v-2.8922c2.8141 0.39085 4.6901 0.62535 5.7845 0.62535 0.85985 0 1.4852-0.0782 1.9542-0.31267 0.46901-0.15634 0.70352-0.46902 0.70352-0.93803v-0.93803c0-0.46901-0.15634-0.78169-0.39084-1.0162-0.23451-0.23451-0.78169-0.31268-1.6416-0.31268h-1.8761c-1.4852 0-2.6577-0.31267-3.5176-0.93803-0.85986-0.62535-1.2507-1.4852-1.2507-2.6577v-1.7197c0-1.3289 0.62535-2.2669 1.876-2.7359 1.2507-0.46901 2.9704-0.78169 5.2373-0.78169 0.93803 0 2.6578 0.0782 5.1592 0.31268v2.7359c-3.1268-0.23451-4.8465-0.31268-5.2373-0.31268-1.2507 0-1.9542 0.0782-2.3451 0.23451-0.31267 0.15634-0.46901 0.46901-0.46901 0.93803v0.78169c0 0.2345 0.15634 0.46901 0.39085 0.70352 0.2345 0.15634 0.62535 0.23451 1.1725 0.23451h1.876c3.5176 0 5.3155 1.1725 5.3155 3.5176z" fill-rule="evenodd"/>
<path d="m492.07 129.06v4.7683c0 1.9542-0.62535 3.3613-1.7979 4.2211-1.1725 0.78169-3.0486 1.1725-5.7063 1.1725-2.7359 0-4.612-0.39085-5.7063-1.2507-1.0162-0.85986-1.5634-2.2669-1.5634-4.143v-15.712h4.3775v7.8169c0.23451-0.62535 0.70352-1.0944 1.407-1.3289 0.70352-0.23451 1.7979-0.39085 3.2049-0.39085 1.2507 0 2.2669 0.15634 3.0486 0.31268 0.70352 0.2345 1.3289 0.54718 1.7197 1.0162 0.39085 0.39085 0.70352 0.93803 0.78169 1.407 0.15634 0.54719 0.23451 1.2507 0.23451 2.1106zm-4.3775 5.3155v-5.3155c0-0.93803-0.15634-1.4852-0.46902-1.7979-0.39084-0.23451-1.2507-0.31268-2.6577-0.31268-1.1725 0-1.9542 0.15634-2.3451 0.46902-0.39084 0.31267-0.54718 0.85986-0.54718 1.6416v5.3155c0 0.85986 0.15634 1.407 0.54718 1.7197 0.31268 0.31268 1.1725 0.46901 2.4232 0.46901s2.1106-0.15633 2.5014-0.46901c0.39084-0.31268 0.54718-0.85986 0.54718-1.7197z" fill-rule="evenodd"/>
<path d="m508.41 138.91h-4.2993v-1.2507c-0.31268 0.54718-0.78169 0.93803-1.3289 1.2507-0.62535 0.23451-1.7197 0.31268-3.2831 0.31268-1.9542 0-3.2049-0.31268-3.9084-0.85986-0.62535-0.62535-0.93803-1.876-0.93803-3.7521 0-1.7197 0.31268-2.8922 1.0162-3.5176 0.62535-0.70352 1.7979-1.0162 3.5176-1.0162h4.8465v-1.0162c0-0.85986-0.23451-1.407-0.62535-1.7197-0.39085-0.31268-1.2507-0.39085-2.5796-0.39085-1.1725 0-2.8922 0.0782-5.0028 0.31268v-2.7359c1.6416-0.15634 3.4394-0.31268 5.4718-0.31268 2.6578 0 4.5338 0.31268 5.55 1.0162 1.0162 0.62535 1.5634 1.876 1.5634 3.8303v9.8493zm-4.3775-3.6739v-2.7359h-2.9704c-0.93803 0-1.5634 0.0782-1.7979 0.31268-0.2345 0.15633-0.31267 0.78168-0.31267 1.7197 0 0.93803 0.0782 1.4852 0.31267 1.7197 0.31268 0.15634 0.93803 0.31267 1.9542 0.31267 0.46901 0 0.85985-0.0782 1.0944-0.0782h0.78169c0.23451-0.0782 0.46901-0.15634 0.54718-0.23451 0.0782-0.0782 0.15634-0.23451 0.31268-0.39085 0.0782-0.15633 0.0782-0.31267 0.0782-0.62535z" fill-rule="evenodd"/>
<path d="m521.62 127.81h-1.4852c-1.1725 0-2.1106 0.23451-2.6577 0.54719-0.62536 0.39084-0.93803 1.0162-0.93803 1.9542v8.5986h-4.3775v-14.383h4.143v2.5796c0.0782-0.78169 0.46902-1.407 1.2507-1.9542 0.78168-0.62535 1.6415-0.93803 2.5014-0.93803h1.5634v3.5958z" fill-rule="evenodd"/>
<path d="m524.2 135.7v3.2049h3.4394v-3.2049h-3.4394z" fill-rule="evenodd"/>
<path d="m534.68 122.1h-2.6577v-2.7359h2.6577v2.7359zm0 16.806h-2.6577v-14.383h2.6577v14.383z" fill-rule="evenodd"/>
<path d="m552.03 129.37v5.0028c0 0.93803-0.0782 1.6416-0.31268 2.2669-0.2345 0.62535-0.46901 1.0944-0.78169 1.407-0.39084 0.39085-0.85985 0.62536-1.4852 0.78169-0.62535 0.23451-1.2507 0.31268-1.7979 0.31268-0.54718 0.0782-1.3289 0.0782-2.1887 0.0782-1.2507 0-2.1887 0-2.8141-0.0782-0.70352-0.0782-1.3289-0.31268-2.0324-0.62535-0.62535-0.31268-1.0944-0.78169-1.407-1.4852-0.2345-0.62535-0.39084-1.5634-0.39084-2.6578v-5.0028c0-0.93803 0.0782-1.7197 0.31267-2.4232 0.23451-0.62535 0.46902-1.0944 0.85986-1.4852 0.31268-0.39084 0.78169-0.62535 1.407-0.78169 0.62535-0.2345 1.2507-0.31267 1.7979-0.39084 0.54718 0 1.2507-0.0782 2.2669-0.0782 0.93803 0 1.6416 0.0782 2.1887 0.0782 0.54718 0.0782 1.1725 0.15634 1.7979 0.39084 0.62536 0.15634 1.0944 0.39085 1.407 0.78169 0.31267 0.39085 0.62535 0.85986 0.85985 1.4852 0.23451 0.70352 0.31268 1.4852 0.31268 2.4232zm-2.7359 5.3937v-5.8627c0-1.3289-0.23451-2.1106-0.78169-2.4232-0.54719-0.31268-1.5634-0.46901-3.0486-0.46901-1.5634 0-2.5796 0.15633-3.1268 0.46901-0.54718 0.31268-0.78169 1.0944-0.78169 2.4232v5.8627c0 0.62535 0 1.1725 0.15634 1.4852 0.15634 0.39084 0.39084 0.70352 0.78169 0.85986 0.39084 0.15633 0.78169 0.2345 1.1725 0.31267 0.39085 0.0782 1.0162 0.0782 1.7979 0.0782 0.70352 0 1.3289 0 1.7197-0.0782 0.39085-0.0782 0.78169-0.15634 1.1725-0.31267 0.39084-0.15634 0.62535-0.46902 0.78169-0.85986 0.0782-0.31268 0.15634-0.85986 0.15634-1.4852z" fill-rule="evenodd"/>
<path d="m439.86 36.896v64.958h64.802v-64.958h-64.802z" fill-rule="evenodd"/>
<path d="m439.86 50.732v6.4099h15.243l10.162 10.162 4.7683-4.6901-12.038-12.038-18.135 0.15634z" fill-rule="evenodd" fill="#ffe100"/>
<path d="m479.18 71.837-4.6901 4.6901 11.647 11.647h18.526v-6.488h-15.634l-9.8493-9.8493z" fill-rule="evenodd" fill="#ffe100"/>
<path d="m486.6 50.653-30.955 31.033h-15.79v6.5662h18.526l31.033-31.111h15.243v-6.488h-18.057z" fill-rule="evenodd" fill="#ffe100"/>
<path stroke-linejoin="round" d="m183.15 89.582h159.62" stroke="#ffc000" stroke-linecap="round" stroke-width="3.5958px" fill="none"/>
<path d="m185.1 97.399-23.373-7.8169 23.373-7.8169v15.634z" fill-rule="evenodd" fill="#ffc000"/>
<path d="m340.89 81.765 23.373 7.8169-23.373 7.8169v-15.634z" fill-rule="evenodd" fill="#ffc000"/>
<path d="m220.36 69.57v40.022h85.282v-40.022h-85.282z" fill-rule="evenodd" fill="#fff"/>
<text xml:space="preserve" font-size="16.259px" y="85.047813" x="236.38289" font-family="Arial" fill="#000000">WAMP</text>
<text xml:space="preserve" font-size="16.259px" y="105.05906" x="220.12373" font-family="Arial" fill="#000000">WebSocket</text>
<path d="m864.47 309.08v-50.497h179.63v134.76h-179.63v-50.575l-52.061-40.413 52.061 6.7225z" fill-rule="evenodd" fill="#fff"/>
<path stroke-linejoin="round" d="m864.47 309.08v-50.497h179.63v134.76h-179.63v-50.575l-52.061-40.413 52.061 6.7225z" stroke="#000" stroke-linecap="round" stroke-width=".39084px" fill="none"/>
<text xml:space="preserve" font-size="16.259px" y="291.41382" x="870.48938" font-family="Arial" fill="#000000">Crossbar</text>
<text xml:space="preserve" font-size="16.259px" y="291.41382" x="939.27802" font-family="Arial" fill="#000000">.</text>
<text xml:space="preserve" font-size="16.259px" y="291.41382" x="943.03015" font-family="Arial" fill="#000000">io includes </text>
<text xml:space="preserve" font-size="16.259px" y="311.42508" x="870.48938" font-family="Arial" fill="#000000">full</text>
<text xml:space="preserve" font-size="16.259px" y="311.42508" x="893.00201" font-family="Arial" fill="#000000">-</text>
<text xml:space="preserve" font-size="16.259px" y="311.42508" x="898.00482" font-family="Arial" fill="#000000">stack services</text>
<text xml:space="preserve" font-size="16.259px" y="311.42508" x="1003.0639" font-family="Arial" fill="#000000">, </text>
<text xml:space="preserve" font-size="16.259px" y="331.43631" x="870.48938" font-family="Arial" fill="#000000">e</text>
<text xml:space="preserve" font-size="16.259px" y="331.43631" x="880.495" font-family="Arial" fill="#000000">.</text>
<text xml:space="preserve" font-size="16.259px" y="331.43631" x="885.4978" font-family="Arial" fill="#000000">g</text>
<text xml:space="preserve" font-size="16.259px" y="331.43631" x="894.25269" font-family="Arial" fill="#000000">. </text>
<text xml:space="preserve" font-size="16.259px" y="331.43631" x="903.00763" font-family="Arial" fill="#000000">to serve static </text>
<text xml:space="preserve" font-size="16.259px" y="351.44757" x="870.48938" font-family="Arial" fill="#000000">Web content or CGI </text>
<text xml:space="preserve" font-size="16.259px" y="371.45883" x="870.48938" font-family="Arial" fill="#000000">scripts</text>
<path d="m639.89 315.1v94.506h156.03v-94.506h-156.03z" fill-rule="evenodd" fill="#f2f2f2"/>
<path stroke-linejoin="bevel" d="m641.92 408.59h1.9542c0.54718 0 1.0162 0.46901 1.0162 1.0162s-0.46901 1.0162-1.0162 1.0162h-1.9542c-0.54718 0-1.0162-0.46901-1.0162-1.0162 0-0.54718 0.46901-1.0162 1.0162-1.0162zm6.019 0h1.9542c0.54718 0 1.0162 0.46901 1.0162 1.0162s-0.46901 1.0162-1.0162 1.0162h-1.9542c-0.54718 0-1.0162-0.46901-1.0162-1.0162 0-0.54718 0.46901-1.0162 1.0162-1.0162zm5.9408 0h2.0324c0.54718 0 1.0162 0.46901 1.0162 1.0162s-0.46901 1.0162-1.0162 1.0162h-2.0324c-0.54718 0-0.93802-0.46901-0.93802-1.0162 0-0.54718 0.39084-1.0162 0.93802-1.0162zm6.019 0h2.0324c0.54719 0 1.0162 0.46901 1.0162 1.0162s-0.46901 1.0162-1.0162 1.0162h-2.0324c-0.54718 0-1.0162-0.46901-1.0162-1.0162 0-0.54718 0.46902-1.0162 1.0162-1.0162zm6.019 0h2.0324c0.54719 0 0.93803 0.46901 0.93803 1.0162s-0.39084 1.0162-0.93803 1.0162h-2.0324c-0.54718 0-1.0162-0.46901-1.0162-1.0162 0-0.54718 0.46902-1.0162 1.0162-1.0162zm6.019 0h1.9542c0.54718 0 1.0162 0.46901 1.0162 1.0162s-0.46902 1.0162-1.0162 1.0162h-1.9542c-0.54718 0-1.0162-0.46901-1.0162-1.0162 0-0.54718 0.46902-1.0162 1.0162-1.0162zm6.019 0h1.9542c0.54718 0 1.0162 0.46901 1.0162 1.0162s-0.46902 1.0162-1.0162 1.0162h-1.9542c-0.54719 0-1.0162-0.46901-1.0162-1.0162 0-0.54718 0.46901-1.0162 1.0162-1.0162zm5.9408 0h2.0324c0.54718 0 1.0162 0.46901 1.0162 1.0162s-0.46902 1.0162-1.0162 1.0162h-2.0324c-0.54719 0-0.93803-0.46901-0.93803-1.0162 0-0.54718 0.39084-1.0162 0.93803-1.0162zm6.019 0h2.0324c0.54718 0 1.0162 0.46901 1.0162 1.0162s-0.46901 1.0162-1.0162 1.0162h-2.0324c-0.54719 0-1.0162-0.46901-1.0162-1.0162 0-0.54718 0.46901-1.0162 1.0162-1.0162zm6.019 0h2.0324c0.54718 0 0.93802 0.46901 0.93802 1.0162s-0.39084 1.0162-0.93802 1.0162h-2.0324c-0.54718 0-1.0162-0.46901-1.0162-1.0162 0-0.54718 0.46901-1.0162 1.0162-1.0162zm6.019 0h1.9542c0.54718 0 1.0162 0.46901 1.0162 1.0162s-0.46901 1.0162-1.0162 1.0162h-1.9542c-0.54718 0-1.0162-0.46901-1.0162-1.0162 0-0.54718 0.46901-1.0162 1.0162-1.0162zm6.019 0h1.9542c0.54718 0 1.0162 0.46901 1.0162 1.0162s-0.46901 1.0162-1.0162 1.0162h-1.9542c-0.54718 0-1.0162-0.46901-1.0162-1.0162 0-0.54718 0.46901-1.0162 1.0162-1.0162zm5.9408 0h2.0324c0.54719 0 1.0162 0.46901 1.0162 1.0162s-0.46901 1.0162-1.0162 1.0162h-2.0324c-0.54718 0-0.93803-0.46901-0.93803-1.0162 0-0.54718 0.39085-1.0162 0.93803-1.0162zm6.019 0h2.0324c0.54718 0 1.0162 0.46901 1.0162 1.0162s-0.46902 1.0162-1.0162 1.0162h-2.0324c-0.54718 0-1.0162-0.46901-1.0162-1.0162 0-0.54718 0.46902-1.0162 1.0162-1.0162zm6.019 0h2.0324c0.54718 0 0.93803 0.46901 0.93803 1.0162s-0.39085 1.0162-0.93803 1.0162h-2.0324c-0.54718 0-1.0162-0.46901-1.0162-1.0162 0-0.54718 0.46902-1.0162 1.0162-1.0162zm6.019 0h1.9542c0.54718 0 1.0162 0.46901 1.0162 1.0162s-0.46902 1.0162-1.0162 1.0162h-1.9542c-0.54719 0-1.0162-0.46901-1.0162-1.0162 0-0.54718 0.46901-1.0162 1.0162-1.0162zm6.019 0h1.9542c0.54718 0 1.0162 0.46901 1.0162 1.0162s-0.46902 1.0162-1.0162 1.0162h-1.9542c-0.54719 0-1.0162-0.46901-1.0162-1.0162 0-0.54718 0.46901-1.0162 1.0162-1.0162zm5.9408 0h2.0324c0.54718 0 1.0162 0.46901 1.0162 1.0162s-0.46901 1.0162-1.0162 1.0162h-2.0324c-0.54719 0-0.93803-0.46901-0.93803-1.0162 0-0.54718 0.39084-1.0162 0.93803-1.0162zm6.019 0h2.0324c0.54718 0 1.0162 0.46901 1.0162 1.0162s-0.46901 1.0162-1.0162 1.0162h-2.0324c-0.54718 0-1.0162-0.46901-1.0162-1.0162 0-0.54718 0.46901-1.0162 1.0162-1.0162zm6.019 0h2.0324c0.54718 0 0.93802 0.46901 0.93802 1.0162s-0.39084 1.0162-0.93802 1.0162h-2.0324c-0.54718 0-1.0162-0.46901-1.0162-1.0162 0-0.54718 0.46901-1.0162 1.0162-1.0162zm6.019 0h1.9542c0.54718 0 1.0162 0.46901 1.0162 1.0162s-0.46901 1.0162-1.0162 1.0162h-1.9542c-0.54718 0-1.0162-0.46901-1.0162-1.0162 0-0.54718 0.46901-1.0162 1.0162-1.0162zm6.019 0h1.9542c0.54719 0 1.0162 0.46901 1.0162 1.0162s-0.46901 1.0162-1.0162 1.0162h-1.9542c-0.54718 0-1.0162-0.46901-1.0162-1.0162 0-0.54718 0.46902-1.0162 1.0162-1.0162zm5.9408 0h2.0324c0.54718 0 1.0162 0.46901 1.0162 1.0162s-0.46902 1.0162-1.0162 1.0162h-2.0324c-0.54718 0-0.93803-0.46901-0.93803-1.0162 0-0.54718 0.39085-1.0162 0.93803-1.0162zm6.019 0h2.0324c0.54718 0 1.0162 0.46901 1.0162 1.0162s-0.46902 1.0162-1.0162 1.0162h-2.0324c-0.54718 0-1.0162-0.46901-1.0162-1.0162 0-0.54718 0.46902-1.0162 1.0162-1.0162zm6.019 0h2.0324c0.54718 0 0.93803 0.46901 0.93803 1.0162s-0.39085 1.0162-0.93803 1.0162h-2.0324c-0.54719 0-1.0162-0.46901-1.0162-1.0162 0-0.54718 0.46901-1.0162 1.0162-1.0162zm6.019 0h1.9542c0.54718 0 1.0162 0.46901 1.0162 1.0162s-0.46902 1.0162-1.0162 1.0162h-1.9542c-0.54719 0-1.0162-0.46901-1.0162-1.0162 0-0.54718 0.46901-1.0162 1.0162-1.0162zm2.8922-1.0944v-1.9542c0-0.54718 0.46901-1.0162 1.0162-1.0162s1.0162 0.46902 1.0162 1.0162v1.9542c0 0.54719-0.46901 1.0162-1.0162 1.0162-0.54718 0-1.0162-0.46901-1.0162-1.0162zm0-5.9408v-2.0324c0-0.54718 0.46901-1.0162 1.0162-1.0162s1.0162 0.46902 1.0162 1.0162v2.0324c0 0.54719-0.46901 0.93803-1.0162 0.93803-0.54718 0-1.0162-0.39084-1.0162-0.93803zm0-6.019v-2.0324c0-0.54718 0.46901-1.0162 1.0162-1.0162s1.0162 0.46901 1.0162 1.0162v2.0324c0 0.54719-0.46901 1.0162-1.0162 1.0162-0.54718 0-1.0162-0.46901-1.0162-1.0162zm0-6.019v-2.0324c0-0.54718 0.46901-0.93802 1.0162-0.93802s1.0162 0.39084 1.0162 0.93802v2.0324c0 0.54718-0.46901 1.0162-1.0162 1.0162-0.54718 0-1.0162-0.46901-1.0162-1.0162zm0-6.019v-1.9542c0-0.54718 0.46901-1.0162 1.0162-1.0162s1.0162 0.46901 1.0162 1.0162v1.9542c0 0.54718-0.46901 1.0162-1.0162 1.0162-0.54718 0-1.0162-0.46901-1.0162-1.0162zm0-6.019v-1.9542c0-0.54718 0.46901-1.0162 1.0162-1.0162s1.0162 0.46901 1.0162 1.0162v1.9542c0 0.54718-0.46901 1.0162-1.0162 1.0162-0.54718 0-1.0162-0.46901-1.0162-1.0162zm0-5.9408v-2.0324c0-0.54719 0.46901-1.0162 1.0162-1.0162s1.0162 0.46901 1.0162 1.0162v2.0324c0 0.54718-0.46901 0.93803-1.0162 0.93803-0.54718 0-1.0162-0.39085-1.0162-0.93803zm0-6.019v-2.0324c0-0.54719 0.46901-1.0162 1.0162-1.0162s1.0162 0.46901 1.0162 1.0162v2.0324c0 0.54718-0.46901 1.0162-1.0162 1.0162-0.54718 0-1.0162-0.46902-1.0162-1.0162zm0-6.019v-2.0324c0-0.54718 0.46901-0.93803 1.0162-0.93803s1.0162 0.39085 1.0162 0.93803v2.0324c0 0.54718-0.46901 1.0162-1.0162 1.0162-0.54718 0-1.0162-0.46902-1.0162-1.0162zm0-6.019v-1.9542c0-0.54718 0.46901-1.0162 1.0162-1.0162s1.0162 0.46902 1.0162 1.0162v1.9542c0 0.54719-0.46901 1.0162-1.0162 1.0162-0.54718 0-1.0162-0.46901-1.0162-1.0162zm0-6.019v-1.9542c0-0.54718 0.46901-1.0162 1.0162-1.0162s1.0162 0.46902 1.0162 1.0162v1.9542c0 0.54719-0.46901 1.0162-1.0162 1.0162-0.54718 0-1.0162-0.46901-1.0162-1.0162zm0-5.9408v-2.0324c0-0.54718 0.46901-1.0162 1.0162-1.0162s1.0162 0.46901 1.0162 1.0162v2.0324c0 0.54719-0.46901 0.93803-1.0162 0.93803-0.54718 0-1.0162-0.39084-1.0162-0.93803zm0-6.019v-2.0324c0-0.54718 0.46901-1.0162 1.0162-1.0162s1.0162 0.46901 1.0162 1.0162v2.0324c0 0.54718-0.46901 1.0162-1.0162 1.0162-0.54718 0-1.0162-0.46901-1.0162-1.0162zm0-6.019v-2.0324c0-0.54718 0.46901-0.93802 1.0162-0.93802s1.0162 0.39084 1.0162 0.93802v2.0324c0 0.54718-0.46901 1.0162-1.0162 1.0162-0.54718 0-1.0162-0.46901-1.0162-1.0162zm0-6.019v-1.9542c0-0.54718 0.46901-1.0162 1.0162-1.0162s1.0162 0.46901 1.0162 1.0162v1.9542c0 0.54718-0.46901 1.0162-1.0162 1.0162-0.54718 0-1.0162-0.46901-1.0162-1.0162zm0-6.019v-1.9542c0-0.54719 0.46901-1.0162 1.0162-1.0162s1.0162 0.46901 1.0162 1.0162v1.9542c0 0.54718-0.46901 1.0162-1.0162 1.0162-0.54718 0-1.0162-0.46902-1.0162-1.0162zm-2.5796-1.3289h-2.0324c-0.54718 0-1.0162-0.46902-1.0162-1.0162s0.46902-1.0162 1.0162-1.0162h2.0324c0.54718 0 0.93803 0.46901 0.93803 1.0162 0 0.54718-0.39085 1.0162-0.93803 1.0162zm-6.019 0h-2.0324c-0.54718 0-1.0162-0.46902-1.0162-1.0162s0.46902-1.0162 1.0162-1.0162h2.0324c0.54719 0 1.0162 0.46901 1.0162 1.0162 0 0.54718-0.46901 1.0162-1.0162 1.0162zm-6.019 0h-2.0324c-0.54718 0-0.93803-0.46902-0.93803-1.0162s0.39085-1.0162 0.93803-1.0162h2.0324c0.54719 0 1.0162 0.46901 1.0162 1.0162 0 0.54718-0.46901 1.0162-1.0162 1.0162zm-6.019 0h-1.9542c-0.54718 0-1.0162-0.46902-1.0162-1.0162s0.46901-1.0162 1.0162-1.0162h1.9542c0.54718 0 1.0162 0.46901 1.0162 1.0162 0 0.54718-0.46901 1.0162-1.0162 1.0162zm-6.019 0h-1.9542c-0.54718 0-1.0162-0.46902-1.0162-1.0162s0.46901-1.0162 1.0162-1.0162h1.9542c0.54718 0 1.0162 0.46901 1.0162 1.0162 0 0.54718-0.46901 1.0162-1.0162 1.0162zm-5.9408 0h-2.0324c-0.54718 0-1.0162-0.46902-1.0162-1.0162s0.46901-1.0162 1.0162-1.0162h2.0324c0.54718 0 0.93802 0.46901 0.93802 1.0162 0 0.54718-0.39084 1.0162-0.93802 1.0162zm-6.019 0h-2.0324c-0.54719 0-1.0162-0.46902-1.0162-1.0162s0.46901-1.0162 1.0162-1.0162h2.0324c0.54718 0 1.0162 0.46901 1.0162 1.0162 0 0.54718-0.46901 1.0162-1.0162 1.0162zm-6.019 0h-2.0324c-0.54719 0-0.93803-0.46902-0.93803-1.0162s0.39084-1.0162 0.93803-1.0162h2.0324c0.54718 0 1.0162 0.46901 1.0162 1.0162 0 0.54718-0.46902 1.0162-1.0162 1.0162zm-6.019 0h-1.9542c-0.54718 0-1.0162-0.46902-1.0162-1.0162s0.46902-1.0162 1.0162-1.0162h1.9542c0.54718 0 1.0162 0.46901 1.0162 1.0162 0 0.54718-0.46902 1.0162-1.0162 1.0162zm-6.019 0h-1.9542c-0.54718 0-1.0162-0.46902-1.0162-1.0162s0.46902-1.0162 1.0162-1.0162h1.9542c0.54719 0 1.0162 0.46901 1.0162 1.0162 0 0.54718-0.46901 1.0162-1.0162 1.0162zm-5.9408 0h-2.0324c-0.54718 0-1.0162-0.46902-1.0162-1.0162s0.46902-1.0162 1.0162-1.0162h2.0324c0.54719 0 0.93803 0.46901 0.93803 1.0162 0 0.54718-0.39084 1.0162-0.93803 1.0162zm-6.019 0h-2.0324c-0.54718 0-1.0162-0.46902-1.0162-1.0162s0.46901-1.0162 1.0162-1.0162h2.0324c0.54719 0 1.0162 0.46901 1.0162 1.0162 0 0.54718-0.46901 1.0162-1.0162 1.0162zm-6.019 0h-2.0324c-0.54718 0-0.93802-0.46902-0.93802-1.0162s0.39084-1.0162 0.93802-1.0162h2.0324c0.54718 0 1.0162 0.46901 1.0162 1.0162 0 0.54718-0.46901 1.0162-1.0162 1.0162zm-6.019 0h-1.9542c-0.54718 0-1.0162-0.46902-1.0162-1.0162s0.46901-1.0162 1.0162-1.0162h1.9542c0.54718 0 1.0162 0.46901 1.0162 1.0162 0 0.54718-0.46901 1.0162-1.0162 1.0162zm-6.019 0h-1.9542c-0.54718 0-1.0162-0.46902-1.0162-1.0162s0.46901-1.0162 1.0162-1.0162h1.9542c0.54718 0 1.0162 0.46901 1.0162 1.0162 0 0.54718-0.46901 1.0162-1.0162 1.0162zm-5.9408 0h-2.0324c-0.54719 0-1.0162-0.46902-1.0162-1.0162s0.46901-1.0162 1.0162-1.0162h2.0324c0.54718 0 0.93803 0.46901 0.93803 1.0162 0 0.54718-0.39085 1.0162-0.93803 1.0162zm-6.019 0h-2.0324c-0.54719 0-1.0162-0.46902-1.0162-1.0162s0.46901-1.0162 1.0162-1.0162h2.0324c0.54718 0 1.0162 0.46901 1.0162 1.0162 0 0.54718-0.46902 1.0162-1.0162 1.0162zm-6.019 0h-2.0324c-0.54718 0-0.93803-0.46902-0.93803-1.0162s0.39085-1.0162 0.93803-1.0162h2.0324c0.54718 0 1.0162 0.46901 1.0162 1.0162 0 0.54718-0.46902 1.0162-1.0162 1.0162zm-6.019 0h-1.9542c-0.54718 0-1.0162-0.46902-1.0162-1.0162s0.46902-1.0162 1.0162-1.0162h1.9542c0.54719 0 1.0162 0.46901 1.0162 1.0162 0 0.54718-0.46901 1.0162-1.0162 1.0162zm-6.019 0h-1.9542c-0.54718 0-1.0162-0.46902-1.0162-1.0162s0.46902-1.0162 1.0162-1.0162h1.9542c0.54719 0 1.0162 0.46901 1.0162 1.0162 0 0.54718-0.46901 1.0162-1.0162 1.0162zm-5.9408 0h-2.0324c-0.54718 0-1.0162-0.46902-1.0162-1.0162s0.46901-1.0162 1.0162-1.0162h2.0324c0.54719 0 0.93803 0.46901 0.93803 1.0162 0 0.54718-0.39084 1.0162-0.93803 1.0162zm-6.019 0h-2.0324c-0.54718 0-1.0162-0.46902-1.0162-1.0162s0.46901-1.0162 1.0162-1.0162h2.0324c0.54718 0 1.0162 0.46901 1.0162 1.0162 0 0.54718-0.46901 1.0162-1.0162 1.0162zm-6.019 0h-2.0324c-0.54718 0-0.93802-0.46902-0.93802-1.0162s0.39084-1.0162 0.93802-1.0162h2.0324c0.54718 0 1.0162 0.46901 1.0162 1.0162 0 0.54718-0.46901 1.0162-1.0162 1.0162zm-6.019 0h-1.9542c-0.54718 0-1.0162-0.46902-1.0162-1.0162s0.46901-1.0162 1.0162-1.0162h1.9542c0.54718 0 1.0162 0.46901 1.0162 1.0162 0 0.54718-0.46901 1.0162-1.0162 1.0162zm-6.019 0h-1.9542c-0.54719 0-1.0162-0.46902-1.0162-1.0162s0.46901-1.0162 1.0162-1.0162h1.9542c0.54718 0 1.0162 0.46901 1.0162 1.0162 0 0.54718-0.46902 1.0162-1.0162 1.0162zm-5.9408 0h-2.0324c-0.54719 0-1.0162-0.46902-1.0162-1.0162s0.46901-1.0162 1.0162-1.0162h2.0324c0.54718 0 0.93803 0.46901 0.93803 1.0162 0 0.54718-0.39085 1.0162-0.93803 1.0162zm-1.3289 2.6577v2.0324c0 0.54719-0.46902 1.0162-1.0162 1.0162s-1.0162-0.46901-1.0162-1.0162v-2.0324c0-0.54718 0.46901-1.0162 1.0162-1.0162 0.54718 0 1.0162 0.46901 1.0162 1.0162zm0 6.019v2.0324c0 0.54719-0.46902 0.93803-1.0162 0.93803s-1.0162-0.39084-1.0162-0.93803v-2.0324c0-0.54718 0.46901-1.0162 1.0162-1.0162 0.54718 0 1.0162 0.46902 1.0162 1.0162zm0 6.019v1.9542c0 0.54719-0.46902 1.0162-1.0162 1.0162s-1.0162-0.46901-1.0162-1.0162v-1.9542c0-0.54718 0.46901-1.0162 1.0162-1.0162 0.54718 0 1.0162 0.46902 1.0162 1.0162zm0 6.019v1.9542c0 0.54718-0.46902 1.0162-1.0162 1.0162s-1.0162-0.46902-1.0162-1.0162v-1.9542c0-0.62535 0.46901-1.0162 1.0162-1.0162 0.54718 0 1.0162 0.39085 1.0162 1.0162zm0 5.9408v2.0324c0 0.54718-0.46902 1.0162-1.0162 1.0162s-1.0162-0.46902-1.0162-1.0162v-2.0324c0-0.54719 0.46901-0.93803 1.0162-0.93803 0.54718 0 1.0162 0.39084 1.0162 0.93803zm0 6.019v2.0324c0 0.54718-0.46902 1.0162-1.0162 1.0162s-1.0162-0.46901-1.0162-1.0162v-2.0324c0-0.54719 0.46901-1.0162 1.0162-1.0162 0.54718 0 1.0162 0.46901 1.0162 1.0162zm0 6.019v2.0324c0 0.54718-0.46902 0.93802-1.0162 0.93802s-1.0162-0.39084-1.0162-0.93802v-2.0324c0-0.54718 0.46901-1.0162 1.0162-1.0162 0.54718 0 1.0162 0.46901 1.0162 1.0162zm0 6.019v1.9542c0 0.54718-0.46902 1.0162-1.0162 1.0162s-1.0162-0.46901-1.0162-1.0162v-1.9542c0-0.54718 0.46901-1.0162 1.0162-1.0162 0.54718 0 1.0162 0.46901 1.0162 1.0162zm0 6.019v1.9542c0 0.54718-0.46902 1.0162-1.0162 1.0162s-1.0162-0.46901-1.0162-1.0162v-1.9542c0-0.62535 0.46901-1.0162 1.0162-1.0162 0.54718 0 1.0162 0.39084 1.0162 1.0162zm0 5.9408v2.0324c0 0.54719-0.46902 1.0162-1.0162 1.0162s-1.0162-0.46901-1.0162-1.0162v-2.0324c0-0.54718 0.46901-0.93803 1.0162-0.93803 0.54718 0 1.0162 0.39085 1.0162 0.93803zm0 6.019v2.0324c0 0.54719-0.46902 1.0162-1.0162 1.0162s-1.0162-0.46901-1.0162-1.0162v-2.0324c0-0.54718 0.46901-1.0162 1.0162-1.0162 0.54718 0 1.0162 0.46902 1.0162 1.0162zm0 6.019v2.0324c0 0.54718-0.46902 0.93803-1.0162 0.93803s-1.0162-0.39085-1.0162-0.93803v-2.0324c0-0.54718 0.46901-1.0162 1.0162-1.0162 0.54718 0 1.0162 0.46902 1.0162 1.0162zm0 6.019v1.9542c0 0.54718-0.46902 1.0162-1.0162 1.0162s-1.0162-0.46902-1.0162-1.0162v-1.9542c0-0.54718 0.46901-1.0162 1.0162-1.0162 0.54718 0 1.0162 0.46902 1.0162 1.0162zm0 6.019v1.9542c0 0.54718-0.46902 1.0162-1.0162 1.0162s-1.0162-0.46902-1.0162-1.0162v-1.9542c0-0.62536 0.46901-1.0162 1.0162-1.0162 0.54718 0 1.0162 0.39084 1.0162 1.0162zm0 5.9408v2.0324c0 0.54718-0.46902 1.0162-1.0162 1.0162s-1.0162-0.46901-1.0162-1.0162v-2.0324c0-0.54719 0.46901-0.93803 1.0162-0.93803 0.54718 0 1.0162 0.39084 1.0162 0.93803zm0 6.019v0.78169c0 0.54719-0.46902 1.0162-1.0162 1.0162s-1.0162-0.46901-1.0162-1.0162v-0.78169c0-0.54718 0.46901-1.0162 1.0162-1.0162 0.54718 0 1.0162 0.46901 1.0162 1.0162z" stroke="#262626" stroke-width="1.2507px" fill="#262626"/>
<text xml:space="preserve" font-size="21.262px" y="368.9574" x="667.87543" font-family="Arial" fill="#000000">CGI Script</text>
<path d="m639.89 196.91v94.506h156.03v-94.506h-156.03z" fill-rule="evenodd" fill="#f2f2f2"/>
<path stroke-linejoin="bevel" d="m641.92 290.48h1.9542c0.54718 0 1.0162 0.39085 1.0162 0.93803s-0.46901 1.0162-1.0162 1.0162h-1.9542c-0.54718 0-1.0162-0.46902-1.0162-1.0162s0.46901-0.93803 1.0162-0.93803zm6.019 0h1.9542c0.54718 0 1.0162 0.39085 1.0162 0.93803s-0.46901 1.0162-1.0162 1.0162h-1.9542c-0.54718 0-1.0162-0.46902-1.0162-1.0162s0.46901-0.93803 1.0162-0.93803zm5.9408 0h2.0324c0.54718 0 1.0162 0.39085 1.0162 0.93803s-0.46901 1.0162-1.0162 1.0162h-2.0324c-0.54718 0-0.93802-0.46902-0.93802-1.0162s0.39084-0.93803 0.93802-0.93803zm6.019 0h2.0324c0.54719 0 1.0162 0.39085 1.0162 0.93803s-0.46901 1.0162-1.0162 1.0162h-2.0324c-0.54718 0-1.0162-0.46902-1.0162-1.0162s0.46902-0.93803 1.0162-0.93803zm6.019 0h2.0324c0.54719 0 0.93803 0.39085 0.93803 0.93803s-0.39084 1.0162-0.93803 1.0162h-2.0324c-0.54718 0-1.0162-0.46902-1.0162-1.0162s0.46902-0.93803 1.0162-0.93803zm6.019 0h1.9542c0.54718 0 1.0162 0.39085 1.0162 0.93803s-0.46902 1.0162-1.0162 1.0162h-1.9542c-0.54718 0-1.0162-0.46902-1.0162-1.0162s0.46902-0.93803 1.0162-0.93803zm6.019 0h1.9542c0.54718 0 1.0162 0.39085 1.0162 0.93803s-0.46902 1.0162-1.0162 1.0162h-1.9542c-0.54719 0-1.0162-0.46902-1.0162-1.0162s0.46901-0.93803 1.0162-0.93803zm5.9408 0h2.0324c0.54718 0 1.0162 0.39085 1.0162 0.93803s-0.46902 1.0162-1.0162 1.0162h-2.0324c-0.54719 0-0.93803-0.46902-0.93803-1.0162s0.39084-0.93803 0.93803-0.93803zm6.019 0h2.0324c0.54718 0 1.0162 0.39085 1.0162 0.93803s-0.46901 1.0162-1.0162 1.0162h-2.0324c-0.54719 0-1.0162-0.46902-1.0162-1.0162s0.46901-0.93803 1.0162-0.93803zm6.019 0h2.0324c0.54718 0 0.93802 0.39085 0.93802 0.93803s-0.39084 1.0162-0.93802 1.0162h-2.0324c-0.54718 0-1.0162-0.46902-1.0162-1.0162s0.46901-0.93803 1.0162-0.93803zm6.019 0h1.9542c0.54718 0 1.0162 0.39085 1.0162 0.93803s-0.46901 1.0162-1.0162 1.0162h-1.9542c-0.54718 0-1.0162-0.46902-1.0162-1.0162s0.46901-0.93803 1.0162-0.93803zm6.019 0h1.9542c0.54718 0 1.0162 0.39085 1.0162 0.93803s-0.46901 1.0162-1.0162 1.0162h-1.9542c-0.54718 0-1.0162-0.46902-1.0162-1.0162s0.46901-0.93803 1.0162-0.93803zm5.9408 0h2.0324c0.54719 0 1.0162 0.39085 1.0162 0.93803s-0.46901 1.0162-1.0162 1.0162h-2.0324c-0.54718 0-0.93803-0.46902-0.93803-1.0162s0.39085-0.93803 0.93803-0.93803zm6.019 0h2.0324c0.54718 0 1.0162 0.39085 1.0162 0.93803s-0.46902 1.0162-1.0162 1.0162h-2.0324c-0.54718 0-1.0162-0.46902-1.0162-1.0162s0.46902-0.93803 1.0162-0.93803zm6.019 0h2.0324c0.54718 0 0.93803 0.39085 0.93803 0.93803s-0.39085 1.0162-0.93803 1.0162h-2.0324c-0.54718 0-1.0162-0.46902-1.0162-1.0162s0.46902-0.93803 1.0162-0.93803zm6.019 0h1.9542c0.54718 0 1.0162 0.39085 1.0162 0.93803s-0.46902 1.0162-1.0162 1.0162h-1.9542c-0.54719 0-1.0162-0.46902-1.0162-1.0162s0.46901-0.93803 1.0162-0.93803zm6.019 0h1.9542c0.54718 0 1.0162 0.39085 1.0162 0.93803s-0.46902 1.0162-1.0162 1.0162h-1.9542c-0.54719 0-1.0162-0.46902-1.0162-1.0162s0.46901-0.93803 1.0162-0.93803zm5.9408 0h2.0324c0.54718 0 1.0162 0.39085 1.0162 0.93803s-0.46901 1.0162-1.0162 1.0162h-2.0324c-0.54719 0-0.93803-0.46902-0.93803-1.0162s0.39084-0.93803 0.93803-0.93803zm6.019 0h2.0324c0.54718 0 1.0162 0.39085 1.0162 0.93803s-0.46901 1.0162-1.0162 1.0162h-2.0324c-0.54718 0-1.0162-0.46902-1.0162-1.0162s0.46901-0.93803 1.0162-0.93803zm6.019 0h2.0324c0.54718 0 0.93802 0.39085 0.93802 0.93803s-0.39084 1.0162-0.93802 1.0162h-2.0324c-0.54718 0-1.0162-0.46902-1.0162-1.0162s0.46901-0.93803 1.0162-0.93803zm6.019 0h1.9542c0.54718 0 1.0162 0.39085 1.0162 0.93803s-0.46901 1.0162-1.0162 1.0162h-1.9542c-0.54718 0-1.0162-0.46902-1.0162-1.0162s0.46901-0.93803 1.0162-0.93803zm6.019 0h1.9542c0.54719 0 1.0162 0.39085 1.0162 0.93803s-0.46901 1.0162-1.0162 1.0162h-1.9542c-0.54718 0-1.0162-0.46902-1.0162-1.0162s0.46902-0.93803 1.0162-0.93803zm5.9408 0h2.0324c0.54718 0 1.0162 0.39085 1.0162 0.93803s-0.46902 1.0162-1.0162 1.0162h-2.0324c-0.54718 0-0.93803-0.46902-0.93803-1.0162s0.39085-0.93803 0.93803-0.93803zm6.019 0h2.0324c0.54718 0 1.0162 0.39085 1.0162 0.93803s-0.46902 1.0162-1.0162 1.0162h-2.0324c-0.54718 0-1.0162-0.46902-1.0162-1.0162s0.46902-0.93803 1.0162-0.93803zm6.019 0h2.0324c0.54718 0 0.93803 0.39085 0.93803 0.93803s-0.39085 1.0162-0.93803 1.0162h-2.0324c-0.54719 0-1.0162-0.46902-1.0162-1.0162s0.46901-0.93803 1.0162-0.93803zm6.019 0h1.9542c0.54718 0 1.0162 0.39085 1.0162 0.93803s-0.46902 1.0162-1.0162 1.0162h-1.9542c-0.54719 0-1.0162-0.46902-1.0162-1.0162s0.46901-0.93803 1.0162-0.93803zm2.8922-1.0944v-2.0324c0-0.54719 0.46901-1.0162 1.0162-1.0162s1.0162 0.46901 1.0162 1.0162v2.0324c0 0.54718-0.46901 0.93803-1.0162 0.93803-0.54718 0-1.0162-0.39085-1.0162-0.93803zm0-6.019v-2.0324c0-0.54718 0.46901-1.0162 1.0162-1.0162s1.0162 0.46902 1.0162 1.0162v2.0324c0 0.54718-0.46901 1.0162-1.0162 1.0162-0.54718 0-1.0162-0.46902-1.0162-1.0162zm0-6.019v-2.0324c0-0.54718 0.46901-0.93803 1.0162-0.93803s1.0162 0.39085 1.0162 0.93803v2.0324c0 0.54718-0.46901 1.0162-1.0162 1.0162-0.54718 0-1.0162-0.46902-1.0162-1.0162zm0-6.019v-1.9542c0-0.54718 0.46901-1.0162 1.0162-1.0162s1.0162 0.46902 1.0162 1.0162v1.9542c0 0.54719-0.46901 1.0162-1.0162 1.0162-0.54718 0-1.0162-0.46901-1.0162-1.0162zm0-6.019v-1.9542c0-0.54718 0.46901-1.0162 1.0162-1.0162s1.0162 0.46902 1.0162 1.0162v1.9542c0 0.54719-0.46901 1.0162-1.0162 1.0162-0.54718 0-1.0162-0.46901-1.0162-1.0162zm0-5.9408v-2.0324c0-0.54718 0.46901-1.0162 1.0162-1.0162s1.0162 0.46901 1.0162 1.0162v2.0324c0 0.54719-0.46901 0.93803-1.0162 0.93803-0.54718 0-1.0162-0.39084-1.0162-0.93803zm0-6.019v-2.0324c0-0.54718 0.46901-1.0162 1.0162-1.0162s1.0162 0.46901 1.0162 1.0162v2.0324c0 0.54718-0.46901 1.0162-1.0162 1.0162-0.54718 0-1.0162-0.46901-1.0162-1.0162zm0-6.019v-2.0324c0-0.54718 0.46901-0.93802 1.0162-0.93802s1.0162 0.39084 1.0162 0.93802v2.0324c0 0.54718-0.46901 1.0162-1.0162 1.0162-0.54718 0-1.0162-0.46901-1.0162-1.0162zm0-6.019v-1.9542c0-0.54719 0.46901-1.0162 1.0162-1.0162s1.0162 0.46901 1.0162 1.0162v1.9542c0 0.54718-0.46901 1.0162-1.0162 1.0162-0.54718 0-1.0162-0.46901-1.0162-1.0162zm0-6.019v-1.9542c0-0.54719 0.46901-1.0162 1.0162-1.0162s1.0162 0.46901 1.0162 1.0162v1.9542c0 0.54718-0.46901 1.0162-1.0162 1.0162-0.54718 0-1.0162-0.46902-1.0162-1.0162zm0-5.9408v-2.0324c0-0.54718 0.46901-1.0162 1.0162-1.0162s1.0162 0.46902 1.0162 1.0162v2.0324c0 0.54718-0.46901 0.93803-1.0162 0.93803-0.54718 0-1.0162-0.39085-1.0162-0.93803zm0-6.019v-2.0324c0-0.54718 0.46901-1.0162 1.0162-1.0162s1.0162 0.46902 1.0162 1.0162v2.0324c0 0.54718-0.46901 1.0162-1.0162 1.0162-0.54718 0-1.0162-0.46902-1.0162-1.0162zm0-6.019v-2.0324c0-0.54718 0.46901-0.93803 1.0162-0.93803s1.0162 0.39085 1.0162 0.93803v2.0324c0 0.54719-0.46901 1.0162-1.0162 1.0162-0.54718 0-1.0162-0.46901-1.0162-1.0162zm0-6.019v-1.9542c0-0.54718 0.46901-1.0162 1.0162-1.0162s1.0162 0.46902 1.0162 1.0162v1.9542c0 0.54719-0.46901 1.0162-1.0162 1.0162-0.54718 0-1.0162-0.46901-1.0162-1.0162zm0-6.019v-1.9542c0-0.54718 0.46901-1.0162 1.0162-1.0162s1.0162 0.46901 1.0162 1.0162v1.9542c0 0.54718-0.46901 1.0162-1.0162 1.0162-0.54718 0-1.0162-0.46901-1.0162-1.0162zm0-5.9408v-2.0324c0-0.54718 0.46901-1.0162 1.0162-1.0162s1.0162 0.46901 1.0162 1.0162v2.0324c0 0.54718-0.46901 0.93802-1.0162 0.93802-0.54718 0-1.0162-0.39084-1.0162-0.93802zm-2.5796-1.407h-2.0324c-0.54718 0-1.0162-0.46902-1.0162-1.0162s0.46902-1.0162 1.0162-1.0162h2.0324c0.54718 0 0.93803 0.46902 0.93803 1.0162s-0.39085 1.0162-0.93803 1.0162zm-6.019 0h-2.0324c-0.54718 0-1.0162-0.46902-1.0162-1.0162s0.46902-1.0162 1.0162-1.0162h2.0324c0.54719 0 1.0162 0.46902 1.0162 1.0162s-0.46901 1.0162-1.0162 1.0162zm-6.019 0h-2.0324c-0.54718 0-0.93803-0.46902-0.93803-1.0162s0.39085-1.0162 0.93803-1.0162h2.0324c0.54719 0 1.0162 0.46902 1.0162 1.0162s-0.46901 1.0162-1.0162 1.0162zm-6.019 0h-1.9542c-0.54718 0-1.0162-0.46902-1.0162-1.0162s0.46901-1.0162 1.0162-1.0162h1.9542c0.54718 0 1.0162 0.46902 1.0162 1.0162s-0.46901 1.0162-1.0162 1.0162zm-6.019 0h-1.9542c-0.54718 0-1.0162-0.46902-1.0162-1.0162s0.46901-1.0162 1.0162-1.0162h1.9542c0.54718 0 1.0162 0.46902 1.0162 1.0162s-0.46901 1.0162-1.0162 1.0162zm-5.9408 0h-2.0324c-0.54718 0-1.0162-0.46902-1.0162-1.0162s0.46901-1.0162 1.0162-1.0162h2.0324c0.54718 0 0.93802 0.46902 0.93802 1.0162s-0.39084 1.0162-0.93802 1.0162zm-6.019 0h-2.0324c-0.54719 0-1.0162-0.46902-1.0162-1.0162s0.46901-1.0162 1.0162-1.0162h2.0324c0.54718 0 1.0162 0.46902 1.0162 1.0162s-0.46901 1.0162-1.0162 1.0162zm-6.019 0h-2.0324c-0.54719 0-0.93803-0.46902-0.93803-1.0162s0.39084-1.0162 0.93803-1.0162h2.0324c0.54718 0 1.0162 0.46902 1.0162 1.0162s-0.46902 1.0162-1.0162 1.0162zm-6.019 0h-1.9542c-0.54718 0-1.0162-0.46902-1.0162-1.0162s0.46902-1.0162 1.0162-1.0162h1.9542c0.54718 0 1.0162 0.46902 1.0162 1.0162s-0.46902 1.0162-1.0162 1.0162zm-6.019 0h-1.9542c-0.54718 0-1.0162-0.46902-1.0162-1.0162s0.46902-1.0162 1.0162-1.0162h1.9542c0.54719 0 1.0162 0.46902 1.0162 1.0162s-0.46901 1.0162-1.0162 1.0162zm-5.9408 0h-2.0324c-0.54718 0-1.0162-0.46902-1.0162-1.0162s0.46902-1.0162 1.0162-1.0162h2.0324c0.54719 0 0.93803 0.46902 0.93803 1.0162s-0.39084 1.0162-0.93803 1.0162zm-6.019 0h-2.0324c-0.54718 0-1.0162-0.46902-1.0162-1.0162s0.46901-1.0162 1.0162-1.0162h2.0324c0.54719 0 1.0162 0.46902 1.0162 1.0162s-0.46901 1.0162-1.0162 1.0162zm-6.019 0h-2.0324c-0.54718 0-0.93802-0.46902-0.93802-1.0162s0.39084-1.0162 0.93802-1.0162h2.0324c0.54718 0 1.0162 0.46902 1.0162 1.0162s-0.46901 1.0162-1.0162 1.0162zm-6.019 0h-1.9542c-0.54718 0-1.0162-0.46902-1.0162-1.0162s0.46901-1.0162 1.0162-1.0162h1.9542c0.54718 0 1.0162 0.46902 1.0162 1.0162s-0.46901 1.0162-1.0162 1.0162zm-6.019 0h-1.9542c-0.54718 0-1.0162-0.46902-1.0162-1.0162s0.46901-1.0162 1.0162-1.0162h1.9542c0.54718 0 1.0162 0.46902 1.0162 1.0162s-0.46901 1.0162-1.0162 1.0162zm-5.9408 0h-2.0324c-0.54719 0-1.0162-0.46902-1.0162-1.0162s0.46901-1.0162 1.0162-1.0162h2.0324c0.54718 0 0.93803 0.46902 0.93803 1.0162s-0.39085 1.0162-0.93803 1.0162zm-6.019 0h-2.0324c-0.54719 0-1.0162-0.46902-1.0162-1.0162s0.46901-1.0162 1.0162-1.0162h2.0324c0.54718 0 1.0162 0.46902 1.0162 1.0162s-0.46902 1.0162-1.0162 1.0162zm-6.019 0h-2.0324c-0.54718 0-0.93803-0.46902-0.93803-1.0162s0.39085-1.0162 0.93803-1.0162h2.0324c0.54718 0 1.0162 0.46902 1.0162 1.0162s-0.46902 1.0162-1.0162 1.0162zm-6.019 0h-1.9542c-0.54718 0-1.0162-0.46902-1.0162-1.0162s0.46902-1.0162 1.0162-1.0162h1.9542c0.54719 0 1.0162 0.46902 1.0162 1.0162s-0.46901 1.0162-1.0162 1.0162zm-6.019 0h-1.9542c-0.54718 0-1.0162-0.46902-1.0162-1.0162s0.46902-1.0162 1.0162-1.0162h1.9542c0.54719 0 1.0162 0.46902 1.0162 1.0162s-0.46901 1.0162-1.0162 1.0162zm-5.9408 0h-2.0324c-0.54718 0-1.0162-0.46902-1.0162-1.0162s0.46901-1.0162 1.0162-1.0162h2.0324c0.54719 0 0.93803 0.46902 0.93803 1.0162s-0.39084 1.0162-0.93803 1.0162zm-6.019 0h-2.0324c-0.54718 0-1.0162-0.46902-1.0162-1.0162s0.46901-1.0162 1.0162-1.0162h2.0324c0.54718 0 1.0162 0.46902 1.0162 1.0162s-0.46901 1.0162-1.0162 1.0162zm-6.019 0h-2.0324c-0.54718 0-0.93802-0.46902-0.93802-1.0162s0.39084-1.0162 0.93802-1.0162h2.0324c0.54718 0 1.0162 0.46902 1.0162 1.0162s-0.46901 1.0162-1.0162 1.0162zm-6.019 0h-1.9542c-0.54718 0-1.0162-0.46902-1.0162-1.0162s0.46901-1.0162 1.0162-1.0162h1.9542c0.54718 0 1.0162 0.46902 1.0162 1.0162s-0.46901 1.0162-1.0162 1.0162zm-6.019 0h-1.9542c-0.54719 0-1.0162-0.46902-1.0162-1.0162s0.46901-1.0162 1.0162-1.0162h1.9542c0.54718 0 1.0162 0.46902 1.0162 1.0162s-0.46902 1.0162-1.0162 1.0162zm-5.9408 0h-2.0324c-0.54719 0-1.0162-0.46902-1.0162-1.0162s0.46901-1.0162 1.0162-1.0162h2.0324c0.54718 0 0.93803 0.46902 0.93803 1.0162s-0.39085 1.0162-0.93803 1.0162zm-1.3289 2.6577v2.0324c0 0.54718-0.46902 1.0162-1.0162 1.0162s-1.0162-0.46902-1.0162-1.0162v-2.0324c0-0.54718 0.46901-0.93803 1.0162-0.93803 0.54718 0 1.0162 0.39085 1.0162 0.93803zm0 6.019v2.0324c0 0.54718-0.46902 1.0162-1.0162 1.0162s-1.0162-0.46902-1.0162-1.0162v-2.0324c0-0.54718 0.46901-1.0162 1.0162-1.0162 0.54718 0 1.0162 0.46902 1.0162 1.0162zm0 6.019v2.0324c0 0.54718-0.46902 0.93803-1.0162 0.93803s-1.0162-0.39085-1.0162-0.93803v-2.0324c0-0.54719 0.46901-1.0162 1.0162-1.0162 0.54718 0 1.0162 0.46901 1.0162 1.0162zm0 6.019v1.9542c0 0.54718-0.46902 1.0162-1.0162 1.0162s-1.0162-0.46901-1.0162-1.0162v-1.9542c0-0.54719 0.46901-1.0162 1.0162-1.0162 0.54718 0 1.0162 0.46901 1.0162 1.0162zm0 6.019v1.9542c0 0.54718-0.46902 1.0162-1.0162 1.0162s-1.0162-0.46901-1.0162-1.0162v-1.9542c0-0.62535 0.46901-1.0162 1.0162-1.0162 0.54718 0 1.0162 0.39084 1.0162 1.0162zm0 5.9408v2.0324c0 0.54718-0.46902 1.0162-1.0162 1.0162s-1.0162-0.46901-1.0162-1.0162v-2.0324c0-0.54718 0.46901-0.93802 1.0162-0.93802 0.54718 0 1.0162 0.39084 1.0162 0.93802zm0 6.019v2.0324c0 0.54719-0.46902 1.0162-1.0162 1.0162s-1.0162-0.46901-1.0162-1.0162v-2.0324c0-0.54718 0.46901-1.0162 1.0162-1.0162 0.54718 0 1.0162 0.46901 1.0162 1.0162zm0 6.019v2.0324c0 0.54719-0.46902 0.93803-1.0162 0.93803s-1.0162-0.39084-1.0162-0.93803v-2.0324c0-0.54718 0.46901-1.0162 1.0162-1.0162 0.54718 0 1.0162 0.46902 1.0162 1.0162zm0 6.019v1.9542c0 0.54719-0.46902 1.0162-1.0162 1.0162s-1.0162-0.46901-1.0162-1.0162v-1.9542c0-0.54718 0.46901-1.0162 1.0162-1.0162 0.54718 0 1.0162 0.46902 1.0162 1.0162zm0 6.019v1.9542c0 0.54718-0.46902 1.0162-1.0162 1.0162s-1.0162-0.46902-1.0162-1.0162v-1.9542c0-0.62535 0.46901-1.0162 1.0162-1.0162 0.54718 0 1.0162 0.39085 1.0162 1.0162zm0 5.9408v2.0324c0 0.54718-0.46902 1.0162-1.0162 1.0162s-1.0162-0.46902-1.0162-1.0162v-2.0324c0-0.54718 0.46901-0.93803 1.0162-0.93803 0.54718 0 1.0162 0.39085 1.0162 0.93803zm0 6.019v2.0324c0 0.54718-0.46902 1.0162-1.0162 1.0162s-1.0162-0.46902-1.0162-1.0162v-2.0324c0-0.54719 0.46901-1.0162 1.0162-1.0162 0.54718 0 1.0162 0.46901 1.0162 1.0162zm0 6.019v2.0324c0 0.54718-0.46902 0.93802-1.0162 0.93802s-1.0162-0.39084-1.0162-0.93802v-2.0324c0-0.54719 0.46901-1.0162 1.0162-1.0162 0.54718 0 1.0162 0.46901 1.0162 1.0162zm0 6.019v1.9542c0 0.54718-0.46902 1.0162-1.0162 1.0162s-1.0162-0.46901-1.0162-1.0162v-1.9542c0-0.54718 0.46901-1.0162 1.0162-1.0162 0.54718 0 1.0162 0.46901 1.0162 1.0162zm0 6.019v1.9542c0 0.54718-0.46902 1.0162-1.0162 1.0162s-1.0162-0.46901-1.0162-1.0162v-1.9542c0-0.62535 0.46901-1.0162 1.0162-1.0162 0.54718 0 1.0162 0.39084 1.0162 1.0162zm0 5.9408v0.78169c0 0.54718-0.46902 1.0162-1.0162 1.0162s-1.0162-0.46902-1.0162-1.0162v-0.78169c0-0.54718 0.46901-0.93803 1.0162-0.93803 0.54718 0 1.0162 0.39085 1.0162 0.93803z" stroke="#262626" stroke-width="1.2507px" fill="#262626"/>
<text xml:space="preserve" font-size="21.262px" y="237.63359" x="665.37402" font-family="Arial" fill="#000000">Static Web </text>
<text xml:space="preserve" font-size="21.262px" y="263.89835" x="680.38251" font-family="Arial" fill="#000000">Content</text>
<path stroke-linejoin="bevel" d="m583.84 243.11h2.0324c0.54718 0 1.0162 0.46902 1.0162 1.0162s-0.46902 1.0162-1.0162 1.0162h-2.0324c-0.54718 0-1.0162-0.46902-1.0162-1.0162 0.0782-0.54718 0.46902-1.0162 1.0162-1.0162zm6.019 0h2.0324c0.54718 0 1.0162 0.46902 0.93803 1.0162 0 0.54718-0.39085 1.0162-0.93803 1.0162h-2.0324c-0.54718 0-1.0162-0.46902-1.0162-1.0162s0.46902-1.0162 1.0162-1.0162zm6.019 0h2.0324c0.54718 0 0.93803 0.46902 0.93803 1.0162s-0.39085 1.0162-1.0162 1.0162h-1.9542c-0.54719 0-1.0162-0.46902-1.0162-1.0162s0.46901-1.0162 1.0162-1.0162zm6.019 0h1.9542c0.54718 0 1.0162 0.46902 1.0162 1.0162s-0.46901 1.0162-1.0162 1.0162h-1.9542c-0.54719 0-1.0162-0.46902-1.0162-1.0162s0.46901-1.0162 1.0162-1.0162zm6.019 0h1.9542c0.54718 0.0782 1.0162 0.46902 1.0162 1.0162s-0.46901 1.0162-1.0162 1.0162h-2.0324c-0.54718 0-0.93802-0.46902-0.93802-1.0162s0.39084-1.0162 1.0162-1.0162zm5.9408 0.0782h2.0324c0.54718 0 1.0162 0.39085 1.0162 0.93803s-0.46901 1.0162-1.0162 1.0162h-2.0324c-0.54718 0-1.0162-0.46902-1.0162-1.0162s0.46901-0.93803 1.0162-0.93803zm6.019 0h2.0324c0.54719 0 1.0162 0.39085 0.93803 0.93803 0 0.62535-0.39084 1.0162-0.93803 1.0162h-2.0324c-0.54718 0-1.0162-0.46902-1.0162-1.0162s0.46901-0.93803 1.0162-0.93803zm6.019 0h2.0324c0.54719 0 0.93803 0.39085 0.93803 1.0162 0 0.54718-0.39084 0.93803-1.0162 0.93803h-1.9542c-0.54718 0-1.0162-0.39085-1.0162-1.0162 0-0.54718 0.46902-0.93803 1.0162-0.93803zm6.019 0h1.9542c0.54719 0 1.0162 0.46902 1.0162 1.0162s-0.46901 0.93803-1.0162 0.93803h-1.9542c-0.54718 0-1.0162-0.39085-1.0162-0.93803s0.46902-1.0162 1.0162-1.0162zm6.019 0h1.9542c0.54718 0 1.0162 0.46902 1.0162 1.0162s-0.46902 1.0162-1.0162 1.0162l-2.0324-0.0782c-0.54718 0-0.93803-0.39085-0.93803-0.93803s0.39085-1.0162 1.0162-1.0162z" stroke="#262626" stroke-width="1.2507px" fill="#262626"/>
<path stroke-linejoin="round" d="m606.9 88.487h159.7" stroke="#ffc000" stroke-linecap="round" stroke-width="3.5958px" fill="none"/>
<path d="m608.86 96.304-23.373-7.8169 23.373-7.8169v15.634z" fill-rule="evenodd" fill="#ffc000"/>
<path d="m764.65 80.67 23.373 7.8169-23.373 7.8169v-15.634z" fill-rule="evenodd" fill="#ffc000"/>
<path d="m644.11 68.476v40.022h85.282v-40.022h-85.282z" fill-rule="evenodd" fill="#fff"/>
<text xml:space="preserve" font-size="16.259px" y="83.797104" x="660.37122" font-family="Arial" fill="#000000">WAMP</text>
<text xml:space="preserve" font-size="16.259px" y="103.80836" x="644.11206" font-family="Arial" fill="#000000">WebSocket</text>
<path stroke-linejoin="bevel" d="m583.84 361.3h2.0324c0.54718 0 1.0162 0.46901 1.0162 1.0162s-0.46902 1.0162-1.0162 1.0162h-2.0324c-0.54718 0-1.0162-0.46901-1.0162-1.0162 0.0782-0.54718 0.46902-1.0162 1.0162-1.0162zm6.019 0h2.0324c0.54718 0 1.0162 0.46901 0.93803 1.0162 0 0.54719-0.39085 1.0162-0.93803 1.0162h-2.0324c-0.54718 0-1.0162-0.46901-1.0162-1.0162 0-0.54718 0.46902-1.0162 1.0162-1.0162zm6.019 0h2.0324c0.54718 0 0.93803 0.46901 0.93803 1.0162s-0.39085 1.0162-1.0162 1.0162h-1.9542c-0.54719 0-1.0162-0.46901-1.0162-1.0162 0-0.54718 0.46901-1.0162 1.0162-1.0162zm6.019 0h1.9542c0.54718 0 1.0162 0.46901 1.0162 1.0162s-0.46901 1.0162-1.0162 1.0162h-1.9542c-0.54719 0-1.0162-0.46901-1.0162-1.0162 0-0.54718 0.46901-1.0162 1.0162-1.0162zm6.019 0h1.9542c0.54718 0 1.0162 0.46901 1.0162 1.0162s-0.46901 1.0162-1.0162 1.0162h-2.0324c-0.54718 0-0.93802-0.46901-0.93802-1.0162 0-0.54718 0.39084-1.0162 1.0162-1.0162zm5.9408 0h2.0324c0.54718 0 1.0162 0.46901 1.0162 1.0162s-0.46901 1.0162-1.0162 1.0162h-2.0324c-0.54718 0-1.0162-0.46901-1.0162-1.0162 0-0.54718 0.46901-1.0162 1.0162-1.0162zm6.019 0h2.0324c0.54719 0 1.0162 0.46901 0.93803 1.0162 0 0.54719-0.39084 1.0162-0.93803 1.0162h-2.0324c-0.54718 0-1.0162-0.46901-1.0162-1.0162 0-0.54718 0.46901-1.0162 1.0162-1.0162zm6.019 0.0782h2.0324c0.54719 0 0.93803 0.39084 0.93803 0.93802 0 0.54719-0.39084 1.0162-1.0162 1.0162h-1.9542c-0.54718 0-1.0162-0.46901-1.0162-1.0162 0-0.54718 0.46902-0.93802 1.0162-0.93802zm6.019 0h1.9542c0.54719 0 1.0162 0.39084 1.0162 0.93802 0 0.62535-0.46901 1.0162-1.0162 1.0162h-1.9542c-0.54718 0-1.0162-0.46901-1.0162-1.0162 0-0.54718 0.46902-0.93802 1.0162-0.93802zm6.019 0h1.9542c0.54718 0 1.0162 0.39084 1.0162 1.0162 0 0.54718-0.46902 0.93803-1.0162 0.93803h-2.0324c-0.54718 0-0.93803-0.39085-0.93803-1.0162 0-0.54718 0.39085-0.93802 1.0162-0.93802z" stroke="#262626" stroke-width="1.2507px" fill="#262626"/>
<path stroke-linejoin="round" d="m161.73 240.84h181.04" stroke="#262626" stroke-linecap="round" stroke-width="3.5958px" fill="none"/>
<path d="m340.89 233.1 23.373 7.7387-23.373 7.8169v-15.556z" fill-rule="evenodd" fill="#262626"/>
<path d="m241.23 230.83v20.011h43.54v-20.011h-43.54z" fill-rule="evenodd" fill="#fff"/>
<text xml:space="preserve" font-size="16.259px" y="246.3885" x="241.3857" font-family="Arial" fill="#000000">HTTP</text>
<path stroke-linejoin="round" d="m161.73 363.8h181.04" stroke="#262626" stroke-linecap="round" stroke-width="3.5958px" fill="none"/>
<path d="m340.89 355.98 23.373 7.8169-23.373 7.7387v-15.556z" fill-rule="evenodd" fill="#262626"/>
<path d="m241.23 353.79v20.011h43.54v-20.011h-43.54z" fill-rule="evenodd" fill="#fff"/>
<text xml:space="preserve" font-size="16.259px" y="368.9574" x="241.3857" font-family="Arial" fill="#000000">HTTP</text>
</g>
</g>
</svg>
