<?xml version="1.0" encoding="UTF-8" standalone="no"?>
<svg xmlns:rdf="http://www.w3.org/1999/02/22-rdf-syntax-ns#" xmlns="http://www.w3.org/2000/svg" version="1.1" xmlns:cc="http://creativecommons.org/ns#" xmlns:dc="http://purl.org/dc/elements/1.1/" viewBox="0 0 865.56 516.78">
<g transform="translate(520.99 -118.18)">
<g transform="translate(-512.96 126.28)">
<path d="m822.1 178.23c13.054 0 23.607-10.553 23.607-23.607v-104.59c0-13.054-10.553-23.607-23.607-23.607h-173.54c-13.054 0-23.607 10.553-23.607 23.607v104.59c0 13.054 10.553 23.607 23.607 23.607h173.54z" fill-rule="evenodd" fill="#f2f2f2"/>
<path stroke-linejoin="round" d="m822.1 178.23c13.054 0 23.607-10.553 23.607-23.607v0-104.59c0-13.054-10.553-23.607-23.607-23.607v0h-173.54c-13.054 0-23.607 10.553-23.607 23.607v0 104.59c0 13.054 10.553 23.607 23.607 23.607v0h173.54z" stroke="#000" stroke-linecap="round" stroke-width="3.5958px" fill="none"/>
<text xml:space="preserve" font-size="23.763px" y="95.053436" x="667.87543" font-family="Arial" fill="#000000">Your existing</text>
<text xml:space="preserve" font-size="23.763px" y="123.81961" x="650.3656" font-family="Arial" fill="#000000">Web Application</text>
<path d="m138.05 460.65c13.054 0 23.685-10.631 23.685-23.685v-387.56c0-13.054-10.631-23.685-23.685-23.685h-110.69c-13.054 0-23.607 10.631-23.607 23.685v387.56c0 13.054 10.553 23.685 23.607 23.685h110.69z" fill-rule="evenodd" fill="#f2f2f2"/>
<path stroke-linejoin="round" d="m138.05 460.65c13.054 0 23.685-10.631 23.685-23.685v0-387.56c0-13.054-10.631-23.685-23.685-23.685v0h-110.69c-13.054 0-23.607 10.631-23.607 23.685v0 387.56c0 13.054 10.553 23.685 23.607 23.685v0h110.69z" stroke="#000" stroke-linecap="round" stroke-width="3.5958px" fill="none"/>
<text xml:space="preserve" font-size="23.763px" y="236.38289" x="58.783047" font-family="Arial" fill="#000000">Web </text>
<text xml:space="preserve" font-size="23.763px" y="263.89835" x="36.27039" font-family="Arial" fill="#000000">Frontend</text>
<path stroke-linejoin="round" d="m607.92 102.32h-446.19v-0.23451" stroke="#262626" stroke-linecap="round" stroke-width="2.0324px" fill="none"/>
<path d="m606.36 96.148 18.604 6.1753-18.604 6.2535v-12.429z" fill-rule="evenodd" fill="#262626"/>
<path stroke-linejoin="round" d="m735.34 178.23v17.744h-0.31267v80.514" stroke="#262626" stroke-linecap="round" stroke-width="2.0324px" fill="none"/>
<path d="m741.28 274.92-6.2535 18.604-6.1754-18.604h12.429z" fill-rule="evenodd" fill="#262626"/>
<path d="m821.32 461.98c13.054 0 23.607-10.631 23.607-23.685v-121.08c0-13.054-10.553-23.685-23.607-23.685h-172.52c-13.054 0-23.685 10.631-23.685 23.685v121.08c0 13.054 10.631 23.685 23.685 23.685h172.52z" fill-rule="evenodd" fill="#ffe100"/>
<path stroke-linejoin="round" d="m821.32 461.98c13.054 0 23.607-10.631 23.607-23.685v0-121.08c0-13.054-10.553-23.685-23.607-23.685v0h-172.52c-13.054 0-23.685 10.631-23.685 23.685v0 121.08c0 13.054 10.631 23.685 23.685 23.685v0h172.52z" stroke="#ffc000" stroke-linecap="round" stroke-width="5.2373px" fill="none"/>
<path d="m674.75 427.58c-2.1887 0.46901-4.2993 0.70352-6.2535 0.70352-0.78169 0-1.5634 0-2.2669-0.0782-0.70352-0.0782-1.4852-0.2345-2.3451-0.46901-0.85986-0.23451-1.5634-0.54718-2.1887-0.93803-0.62535-0.39084-1.0944-0.93803-1.5634-1.6416-0.39085-0.70352-0.62535-1.5634-0.62535-2.5014v-8.4422c0-3.9084 2.9704-5.8627 8.9894-5.8627 1.407 0 3.5176 0.23451 6.0972 0.70352v3.4394c-2.3451-0.54718-4.3775-0.85985-6.019-0.85985-0.70352 0-1.2507 0.0782-1.7197 0.0782-0.39085 0.0782-0.85986 0.15633-1.3289 0.31267-0.46902 0.15634-0.78169 0.39085-1.0162 0.78169-0.23451 0.31268-0.31268 0.78169-0.31268 1.3289v8.2077c0 1.7197 1.5634 2.6578 4.7683 2.6578 1.407 0 3.2831-0.31268 5.7845-0.85986v3.4394z" fill-rule="evenodd"/>
<path d="m686.95 416.87h-1.4852c-1.1725 0-2.0324 0.15633-2.6578 0.54718-0.62535 0.39084-0.93803 1.0162-0.93803 1.876v8.6768h-4.2993v-14.383h4.0648v2.5014c0.0782-0.70352 0.46901-1.3289 1.2507-1.9542 0.85986-0.54718 1.6416-0.85986 2.5014-0.85986h1.5634v3.5958z" fill-rule="evenodd"/>
<path d="m703.52 418.75v4.2993c0 0.93803-0.15634 1.7197-0.46901 2.4232-0.23451 0.62535-0.62535 1.1725-1.0944 1.4852-0.39084 0.39084-0.93802 0.70352-1.6415 0.85986-0.78169 0.2345-1.407 0.31267-1.9542 0.39084-0.62535 0.0782-1.3289 0.0782-2.1106 0.0782-0.85986 0-1.5634 0-2.1106-0.0782-0.62535-0.0782-1.2507-0.15634-1.9542-0.39084-0.70352-0.15634-1.3289-0.46902-1.7197-0.85986-0.46902-0.31268-0.78169-0.85986-1.0944-1.4852-0.31267-0.70352-0.46901-1.4852-0.46901-2.4232v-4.2993c0-0.93803 0.15634-1.7979 0.46901-2.5014 0.31268-0.70352 0.70352-1.2507 1.0944-1.6415 0.46901-0.39085 1.0944-0.62536 1.7979-0.85986 0.70352-0.23451 1.3289-0.31268 1.8761-0.39085 0.62535-0.0782 1.2507-0.0782 2.1106-0.0782 0.78169 0 1.4852 0 2.0324 0.0782 0.54719 0.0782 1.2507 0.15634 1.9542 0.39085 0.70352 0.2345 1.2507 0.46901 1.7197 0.85986 0.46902 0.39084 0.78169 0.93802 1.0944 1.6415 0.31267 0.70352 0.46901 1.5634 0.46901 2.5014zm-4.2993 4.7683v-5.3937c0-0.78169-0.23451-1.3289-0.62535-1.6416-0.39085-0.39084-1.1725-0.54718-2.3451-0.54718-1.2507 0-2.0324 0.15634-2.4232 0.54718-0.39084 0.31268-0.54718 0.85986-0.54718 1.6416v5.3937c0 0.78169 0.15634 1.3289 0.54718 1.6415 0.39085 0.23451 1.1725 0.39085 2.4232 0.39085 1.1725 0 1.9542-0.15634 2.3451-0.39085 0.39084-0.31267 0.62535-0.85985 0.62535-1.6415z" fill-rule="evenodd"/>
<path d="m719.31 422.35v1.7979c0 0.78169-0.15634 1.3289-0.39085 1.876-0.2345 0.54718-0.62535 0.93803-1.0162 1.1725-0.39085 0.31267-0.93803 0.54718-1.5634 0.70352-0.70352 0.15633-1.3289 0.2345-1.9542 0.31267-0.54718 0.0782-1.2507 0.0782-2.1106 0.0782-1.5634 0-3.4394-0.15634-5.6282-0.46901v-2.8922c2.7359 0.46901 4.612 0.62535 5.7063 0.62535 0.85986 0 1.4852-0.0782 1.9542-0.23451 0.46901-0.15634 0.70352-0.46901 0.70352-1.0162v-0.85986c0-0.46902-0.0782-0.78169-0.39085-1.0162-0.23451-0.23451-0.78169-0.39084-1.6416-0.39084h-1.876c-1.4852 0-2.6577-0.23451-3.5176-0.85986-0.85986-0.62535-1.2507-1.4852-1.2507-2.6578v-1.7979c0-1.3289 0.62536-2.1887 1.8761-2.6578 1.2507-0.54718 2.9704-0.78169 5.3155-0.78169 0.93802 0 2.6577 0.0782 5.081 0.23451v2.8141c-3.1268-0.2345-4.8465-0.39084-5.2373-0.39084-1.1725 0-1.9542 0.0782-2.2669 0.31267-0.31268 0.15634-0.46901 0.46902-0.46901 0.93803v0.78169c0 0.23451 0.0782 0.46901 0.31267 0.62535 0.31268 0.23451 0.62535 0.31268 1.1725 0.31268h1.876c3.5958 0 5.3155 1.1725 5.3155 3.4394z" fill-rule="evenodd"/>
<path d="m734.94 422.35v1.7979c0 0.78169-0.15634 1.3289-0.39085 1.876-0.31267 0.54718-0.62535 0.93803-1.0162 1.1725-0.39085 0.31267-0.93803 0.54718-1.6416 0.70352-0.62535 0.15633-1.2507 0.2345-1.8761 0.31267-0.54718 0.0782-1.2507 0.0782-2.1106 0.0782-1.5634 0-3.4394-0.15634-5.6282-0.46901v-2.8922c2.7359 0.46901 4.612 0.62535 5.7063 0.62535 0.85986 0 1.4852-0.0782 1.9542-0.23451 0.46902-0.15634 0.70353-0.46901 0.70353-1.0162v-0.85986c0-0.46902-0.0782-0.78169-0.39085-1.0162-0.23451-0.23451-0.78169-0.39084-1.6416-0.39084h-1.876c-1.4852 0-2.6578-0.23451-3.5176-0.85986-0.85986-0.62535-1.2507-1.4852-1.2507-2.6578v-1.7979c0-1.3289 0.62535-2.1887 1.8761-2.6578 1.2507-0.54718 2.9704-0.78169 5.2373-0.78169 1.0162 0 2.6577 0.0782 5.1592 0.23451v2.8141c-3.1268-0.2345-4.8465-0.39084-5.2373-0.39084-1.2507 0-1.9542 0.0782-2.2669 0.31267-0.31268 0.15634-0.54718 0.46902-0.54718 0.93803v0.78169c0 0.23451 0.15633 0.46901 0.39084 0.62535 0.31268 0.23451 0.62535 0.31268 1.1725 0.31268h1.8761c3.5176 0 5.3155 1.1725 5.3155 3.4394z" fill-rule="evenodd"/>
<path d="m752.92 418.13v4.7683c0 1.9542-0.62535 3.3613-1.7979 4.143-1.1725 0.85986-3.0486 1.2507-5.7063 1.2507-2.7359 0-4.612-0.46901-5.7063-1.3289-1.0162-0.85986-1.5634-2.1887-1.5634-4.0648v-15.712h4.3775v7.8169c0.23451-0.62535 0.70353-1.0944 1.407-1.3289 0.70352-0.23451 1.7979-0.39085 3.2049-0.39085 1.2507 0 2.2669 0.0782 3.0486 0.31268 0.78169 0.15634 1.3289 0.46901 1.7197 0.93803 0.39084 0.46901 0.70352 0.93802 0.78169 1.4852 0.15634 0.54718 0.2345 1.2507 0.2345 2.1106zm-4.3775 5.3155v-5.3155c0-0.93803-0.15633-1.5634-0.46901-1.7979-0.39085-0.2345-1.2507-0.39084-2.5796-0.39084-1.2507 0-2.0324 0.15634-2.4232 0.46901-0.39085 0.31268-0.54719 0.93803-0.54719 1.7197v5.3155c0 0.85986 0.15634 1.407 0.54719 1.7197 0.39084 0.23451 1.1725 0.39085 2.4232 0.39085s2.1106-0.15634 2.5014-0.39085c0.39085-0.31267 0.54718-0.85985 0.54718-1.7197z" fill-rule="evenodd"/>
<path d="m769.26 427.97h-4.2993v-1.3289c-0.31267 0.62536-0.78169 1.0162-1.3289 1.2507-0.62535 0.2345-1.7197 0.39084-3.2831 0.39084-1.9542 0-3.2049-0.31267-3.8303-0.85986-0.62536-0.62535-1.0162-1.876-1.0162-3.7521 0-1.7197 0.39084-2.8922 1.0162-3.5958 0.62535-0.62535 1.7979-0.93802 3.5176-0.93802h4.8465v-1.0162c0-0.85986-0.15634-1.407-0.62535-1.7197-0.39084-0.31267-1.2507-0.46901-2.5014-0.46901s-2.9704 0.15634-5.081 0.39084v-2.7359c1.6416-0.23451 3.4394-0.31268 5.4718-0.31268 2.6577 0 4.5338 0.31268 5.55 0.93803 1.0162 0.70352 1.5634 1.9542 1.5634 3.8303v9.9275zm-4.3775-3.6739v-2.8141h-2.9704c-0.93802 0-1.5634 0.15634-1.7979 0.31268-0.23451 0.23451-0.31268 0.85986-0.31268 1.7979 0 0.93803 0.0782 1.4852 0.39085 1.6416 0.2345 0.23451 0.85985 0.31268 1.876 0.31268h1.0944c0.2345 0 0.46901 0 0.78169-0.0782 0.2345 0 0.46901-0.0782 0.54718-0.15634 0.15634-0.15634 0.2345-0.23451 0.31267-0.39084 0.0782-0.15634 0.0782-0.39085 0.0782-0.62535z" fill-rule="evenodd"/>
<path d="m782.47 416.87h-1.4852c-1.1725 0-2.1106 0.15633-2.6577 0.54718-0.62535 0.39084-0.93803 1.0162-0.93803 1.876v8.6768h-4.2993v-14.383h4.143v2.5014c0-0.70352 0.39084-1.3289 1.1725-1.9542 0.85986-0.54718 1.6416-0.85986 2.5014-0.85986h1.5634v3.5958z" fill-rule="evenodd"/>
<path d="m785.05 424.77v3.2049h3.4394v-3.2049h-3.4394z" fill-rule="evenodd"/>
<path d="m795.53 411.17h-2.6578v-2.8141h2.6578v2.8141zm0 16.806h-2.6578v-14.383h2.6578v14.383z" fill-rule="evenodd"/>
<path d="m812.88 418.44v5.0028c0 0.85986-0.0782 1.6415-0.31267 2.2669-0.15634 0.62535-0.46902 1.0944-0.78169 1.407-0.39085 0.31267-0.85986 0.62535-1.4852 0.78169-0.62535 0.15633-1.1725 0.31267-1.7979 0.31267-0.54718 0.0782-1.3289 0.0782-2.1887 0.0782-1.2507 0-2.1887 0-2.8141-0.15634-0.70352-0.0782-1.3289-0.2345-1.9542-0.54718-0.70352-0.31267-1.1725-0.78169-1.4852-1.4852-0.23451-0.70352-0.39085-1.5634-0.39085-2.6577v-5.0028c0-0.93802 0.0782-1.7979 0.31268-2.4232 0.2345-0.62535 0.54718-1.1725 0.85986-1.4852 0.31267-0.39085 0.78169-0.62535 1.407-0.85986 0.62535-0.15634 1.2507-0.31268 1.7979-0.31268 0.54719-0.0782 1.2507-0.0782 2.2669-0.0782 0.93803 0 1.6416 0 2.1887 0.0782 0.54719 0 1.1725 0.15634 1.7979 0.31268 0.62535 0.23451 1.0944 0.46901 1.407 0.85986 0.39084 0.31267 0.62535 0.85986 0.85986 1.4852 0.2345 0.62535 0.31267 1.4852 0.31267 2.4232zm-2.7359 5.3937v-5.8627c0-1.3289-0.23451-2.1106-0.78169-2.4232-0.54718-0.39084-1.5634-0.54718-3.0486-0.54718-1.5634 0-2.5796 0.15634-3.1268 0.54718-0.54718 0.31268-0.78168 1.0944-0.78168 2.4232v5.8627c0 0.62535 0.0782 1.0944 0.2345 1.4852 0.0782 0.39085 0.39085 0.70352 0.70352 0.85986 0.39085 0.15634 0.78169 0.23451 1.1725 0.31268h1.7979 1.7197c0.39084-0.0782 0.78169-0.15634 1.1725-0.31268 0.39085-0.15634 0.62535-0.46901 0.78169-0.85986 0.15634-0.39084 0.15634-0.85986 0.15634-1.4852z" fill-rule="evenodd"/>
<path d="m700.71 325.96v64.958h64.88v-64.958h-64.88z" fill-rule="evenodd"/>
<path d="m700.71 339.72v6.488h15.321l10.162 10.162 4.6901-4.6901-12.038-12.038-18.135 0.0782z" fill-rule="evenodd" fill="#ffe100"/>
<path d="m740.03 360.91-4.6901 4.6901 11.647 11.647h18.604v-6.5662h-15.712l-9.8493-9.7711z" fill-rule="evenodd" fill="#ffe100"/>
<path d="m747.45 339.64-30.955 31.111h-15.79v6.488h18.526l31.033-31.033h15.321v-6.5662h-18.135z" fill-rule="evenodd" fill="#ffe100"/>
<path stroke-linejoin="round" d="m183.31 376.38 441.81 1.407" stroke="#ffc000" stroke-linecap="round" stroke-width="3.5958px" fill="none"/>
<path d="m185.26 384.12-23.373-7.8169 23.451-7.7387-0.0782 15.556z" fill-rule="evenodd" fill="#ffc000"/>
<path d="m248.81 449.08v-29.626h108.03l81.608-42.289-24.858 42.289h108.03v79.029h-272.81v-49.403z" fill-rule="evenodd" fill="#fff"/>
<path stroke-linejoin="round" d="m248.81 449.08v-29.626h108.03l81.608-42.289-24.858 42.289h108.03v79.029h-272.81v-49.403z" stroke="#000" stroke-linecap="round" stroke-width=".39084px" fill="none"/>
<text xml:space="preserve" font-size="16.259px" y="443.9996" x="255.14343" font-family="Arial" fill="#000000">Real</text>
<text xml:space="preserve" font-size="16.259px" y="443.9996" x="290.16312" font-family="Arial" fill="#000000">-</text>
<text xml:space="preserve" font-size="16.259px" y="443.9996" x="295.16592" font-family="Arial" fill="#000000">time data updates and </text>
<text xml:space="preserve" font-size="16.259px" y="464.01086" x="255.14343" font-family="Arial" fill="#000000">notifications sent over WAMP</text>
<text xml:space="preserve" font-size="16.259px" y="464.01086" x="472.76578" font-family="Arial" fill="#000000">/</text>
<text xml:space="preserve" font-size="16.259px" y="484.02209" x="255.14343" font-family="Arial" fill="#000000">WebSocket</text>
<path d="m300.17 23.685v-21.575h238.49v57.611h-90.91l32.049 42.602-88.722-42.602h-90.91v-36.036z" fill-rule="evenodd" fill="#fff"/>
<path stroke-linejoin="round" d="m300.17 23.685v-21.575h238.49v57.611h-90.91l32.049 42.602-88.722-42.602h-90.91v-36.036z" stroke="#000" stroke-linecap="round" stroke-width=".39084px" fill="none"/>
<text xml:space="preserve" font-size="16.259px" y="26.264765" x="306.42227" font-family="Arial" fill="#000000">Request</text>
<text xml:space="preserve" font-size="16.259px" y="26.264765" x="368.9574" font-family="Arial" fill="#000000">/</text>
<text xml:space="preserve" font-size="16.259px" y="26.264765" x="373.96024" font-family="Arial" fill="#000000">response interaction </text>
<text xml:space="preserve" font-size="16.259px" y="46.276016" x="306.42227" font-family="Arial" fill="#000000">over HTTP or Ajax</text>
<path d="m385.22 197.69v-30.095h189.09v30.095l160.72 40.804-160.72-20.715v30.173h-189.09v-50.263z" fill-rule="evenodd" fill="#fff"/>
<path stroke-linejoin="round" d="m385.22 197.69v-30.095h189.09v30.095l160.72 40.804-160.72-20.715v30.173h-189.09v-50.263z" stroke="#000" stroke-linecap="round" stroke-width=".39084px" fill="none"/>
<text xml:space="preserve" font-size="16.259px" y="192.60828" x="391.47006" font-family="Arial" fill="#000000">Inject WAMP events </text>
<text xml:space="preserve" font-size="16.259px" y="212.61954" x="391.47006" font-family="Arial" fill="#000000">via plain old HTTP</text>
<text xml:space="preserve" font-size="16.259px" y="212.61954" x="527.79669" font-family="Arial" fill="#000000">/</text>
<text xml:space="preserve" font-size="16.259px" y="232.63078" x="391.47006" font-family="Arial" fill="#000000">POST requests</text>
</g>
</g>
</svg>
