<?xml version="1.0" encoding="UTF-8" standalone="no"?>
<svg xmlns:rdf="http://www.w3.org/1999/02/22-rdf-syntax-ns#" xmlns="http://www.w3.org/2000/svg" version="1.1" xmlns:cc="http://creativecommons.org/ns#" xmlns:dc="http://purl.org/dc/elements/1.1/" viewBox="0 0 1075.7 612.84">
<g transform="translate(215.19 -223.51)">
<g transform="translate(-207.1 231.64)">
<path d="m1034 474.38c13.047 0 23.594-10.625 23.594-23.672v-283.44c0-13.047-10.547-23.594-23.594-23.594h-812.58c-13.047 0-23.594 10.547-23.594 23.594v283.44c0 13.047 10.547 23.672 23.594 23.672h812.58z" fill-rule="evenodd" fill="#d9d9d9"/>
<path d="m249.77 261.72v70.938h118.12v-70.938h-118.12z" fill-rule="evenodd" fill="#404040"/>
<text font-weight="bold" xml:space="preserve" font-size="16.25px" y="292.5" x="263.75" font-family="Arial" fill="#ffc000">Application </text>
<text font-weight="bold" xml:space="preserve" font-size="16.25px" y="312.5" x="280" font-family="Arial" fill="#ffc000">Worker</text>
<path d="m1000.9 403.52c13.047 0 23.594-10.625 23.594-23.672s-10.547-23.594-23.594-23.594h-118.12c-13.047 0-23.594 10.547-23.594 23.594s10.547 23.672 23.594 23.672h118.12z" fill-rule="evenodd" fill="#8c8c8c"/>
<text xml:space="preserve" font-size="15px" y="383.75" x="875" font-family="Arial" fill="#ffffff">Key </text>
<text xml:space="preserve" font-size="15px" y="383.75" x="905" font-family="Arial" fill="#ffffff">&amp; </text>
<text xml:space="preserve" font-size="15px" y="383.75" x="918.75" font-family="Arial" fill="#ffffff">Configuration</text>
<path d="m391.48 261.72v70.938h118.12v-70.938h-118.12z" fill-rule="evenodd" fill="#404040"/>
<text font-weight="bold" xml:space="preserve" font-size="16.25px" y="292.5" x="405" font-family="Arial" fill="#ffc000">Application </text>
<text font-weight="bold" xml:space="preserve" font-size="16.25px" y="312.5" x="421.25" font-family="Arial" fill="#ffc000">Worker</text>
<path d="m533.2 261.72v70.938h118.12v-70.938h-118.12z" fill-rule="evenodd" fill="#404040"/>
<text xml:space="preserve" font-size="16.25px" y="292.5" x="567.5" font-family="Arial" fill="#ffc000">Router</text>
<text xml:space="preserve" font-size="16.25px" y="312.5" x="565" font-family="Arial" fill="#ffc000">Worker</text>
<path d="m674.92 261.72v70.938h118.12v-70.938h-118.12z" fill-rule="evenodd" fill="#404040"/>
<text xml:space="preserve" font-size="16.25px" y="292.5" x="708.75" font-family="Arial" fill="#ffc000">Router</text>
<text xml:space="preserve" font-size="16.25px" y="312.5" x="707.5" font-family="Arial" fill="#ffc000">Worker</text>
<path d="m793.05 403.52c13.047 0 23.594-10.625 23.594-23.672s-10.547-23.594-23.594-23.594h-252.34c-13.047 0-23.594 10.547-23.594 23.594s10.547 23.672 23.594 23.672h252.34z" fill-rule="evenodd" fill="#ffc000"/>
<text xml:space="preserve" font-size="15px" y="383.75" x="546.25" font-family="Arial" fill="#000000">All Workers listen on same TCP port</text>
<path d="m856.8 190.86v141.8h167.73v-141.8h-167.73z" fill-rule="evenodd" fill="#404040"/>
<text xml:space="preserve" font-size="20px" y="267.5" x="870" font-family="Arial" fill="#ffc000">Node Controller</text>
<path d="m733.98 403.52-14.141 14.141h9.2969v127.58h9.6875v-127.58h9.375l-14.219-14.141z" fill-rule="evenodd" fill="#bfbfbf"/>
<path d="m663.12 403.52-14.141 14.141h9.2969v127.58h9.6875v-127.58h9.2969l-14.141-14.141z" fill-rule="evenodd" fill="#bfbfbf"/>
<path d="m592.27 403.52-14.141 14.141h9.2969v127.58h9.6875v-127.58h9.2969l-14.141-14.141z" fill-rule="evenodd" fill="#bfbfbf"/>
<path d="m1010.4 96.406c13.047 0 23.594-10.547 23.594-23.594v-47.266c0-13.046-10.6-23.671-23.6-23.671h-139.37c-13.047 0-23.672 10.625-23.672 23.672v47.266c0 13.047 10.625 23.594 23.672 23.594h139.37z" fill-rule="evenodd" fill="#f60"/>
<text xml:space="preserve" font-size="20px" y="42.5" x="882.5" font-family="Arial" fill="#ffffff">Management</text>
<text xml:space="preserve" font-size="20px" y="67.5" x="907.5" font-family="Arial" fill="#ffffff">Service</text>
<text font-weight="bold" xml:space="preserve" font-size="23.75px" y="457.5" x="825" font-family="Arial" fill="#404040">Crossbar</text>
<text font-weight="bold" xml:space="preserve" font-size="23.75px" y="457.5" x="927.5" font-family="Arial" fill="#404040">.</text>
<text font-weight="bold" xml:space="preserve" font-size="23.75px" y="457.5" x="933.75" font-family="Arial" fill="#404040">io </text>
<text xml:space="preserve" font-size="23.75px" y="457.5" x="961.25" font-family="Arial" fill="#404040">Node</text>
<path d="m940.7 96.406-12.969 12.969h8.5156v81.484h8.8281v-81.484h8.5938l-12.969-12.969z" fill-rule="evenodd" fill="#f60"/>
<path stroke-linejoin="round" d="m940.7 96.406-12.969 12.969h8.5156v81.484h8.8281v-81.484h8.5938l-12.969-12.969z" stroke="#f60" stroke-linecap="round" stroke-width=".39062px" fill="none"/>
<path d="m659.61 96.406c13.047 0 23.594-10.547 23.594-23.594v-47.266c0-13.046-10.54-23.671-23.59-23.671h-70.859c-13.047 0-23.672 10.625-23.672 23.672v47.266c0 13.047 10.625 23.594 23.672 23.594h70.859z" fill-rule="evenodd" fill="#d9d9d9"/>
<text font-weight="bold" xml:space="preserve" font-size="16.25px" y="43.75" x="577.5" font-family="Arial" fill="#595959">Crossbar</text>
<text font-weight="bold" xml:space="preserve" font-size="16.25px" y="43.75" x="651.25" font-family="Arial" fill="#595959">.</text>
<text font-weight="bold" xml:space="preserve" font-size="16.25px" y="43.75" x="655" font-family="Arial" fill="#595959">io</text>
<text xml:space="preserve" font-size="16.25px" y="63.75" x="603.75" font-family="Arial" fill="#595959">Node</text>
<path d="m309.22 238.12-14.22 10.63h9.375v12.969h9.6094v-12.969h9.375l-14.141-10.625z" fill-rule="evenodd" fill="#737373"/>
<path d="m450.94 238.12-14.219 10.625h9.375v12.969h9.6875v-12.969h9.2969l-14.141-10.625z" fill-rule="evenodd" fill="#737373"/>
<path d="m592.27 332.66-14.141 10.625h9.2969v12.969h9.6875v-12.969h9.2969l-14.141-10.625z" fill-rule="evenodd" fill="#737373"/>
<path d="m563.91 238.12-14.141 10.625h9.2969v12.969h9.6875v-12.969h9.375l-14.219-10.625z" fill-rule="evenodd" fill="#737373"/>
<path d="m622.97 96.406-14.141 14.141h9.2969v151.17h9.6875v-151.17h9.2969l-14.141-14.141z" fill-rule="evenodd" fill="#737373"/>
<path d="m733.98 332.66-14.141 10.625h9.2969v12.969h9.6875v-12.969h9.375l-14.219-10.625z" fill-rule="evenodd" fill="#737373"/>
<path d="m705.62 238.12-14.141 10.625h9.375v12.969h9.6094v-12.969h9.375l-14.219-10.625z" fill-rule="evenodd" fill="#737373"/>
<path d="m764.69 96.406-14.141 14.141h9.375v151.17h9.6094v-151.17h9.375l-14.219-14.141z" fill-rule="evenodd" fill="#737373"/>
<path d="m793.05 238.12c13.047 0 23.594-10.547 23.594-23.594s-10.547-23.672-23.594-23.672h-543.28c-13.047 0-23.672 10.625-23.672 23.672s10.625 23.594 23.672 23.594h543.28z" fill-rule="evenodd" fill="#ffc000"/>
<text xml:space="preserve" font-size="15px" y="218.75" x="341.25" font-family="Arial" fill="#000000">WAMP over Unix Domain Socket or Loopback TCP</text>
<text xml:space="preserve" font-size="15px" y="218.75" x="682.5" font-family="Arial" fill="#000000">/</text>
<text xml:space="preserve" font-size="15px" y="218.75" x="686.25" font-family="Arial" fill="#000000">IP</text>
<path d="m800.16 96.406c13.047 0 23.594-10.547 23.594-23.594v-47.266c0-13.046-10.55-23.671-23.59-23.671h-70.859c-13.05 0-23.68 10.625-23.68 23.672v47.266c0 13.047 10.625 23.594 23.672 23.594h70.859z" fill-rule="evenodd" fill="#d9d9d9"/>
<text font-weight="bold" xml:space="preserve" font-size="16.25px" y="43.75" x="718.75" font-family="Arial" fill="#595959">Crossbar</text>
<text font-weight="bold" xml:space="preserve" font-size="16.25px" y="43.75" x="791.25" font-family="Arial" fill="#595959">.</text>
<text font-weight="bold" xml:space="preserve" font-size="16.25px" y="43.75" x="796.25" font-family="Arial" fill="#595959">io</text>
<text xml:space="preserve" font-size="16.25px" y="63.75" x="745" font-family="Arial" fill="#595959">Node</text>
<text xml:space="preserve" font-size="23.75px" y="590" x="577.5" font-family="Arial" fill="#000000">Application Clients</text>
<path d="m2.1094 119.77v-27.5h273.98v73.203h-108.59l82.266 131.72-138.98-131.72h-108.67v-45.703z" fill-rule="evenodd" fill="#fff"/>
<path stroke-linejoin="round" d="m2.1094 119.77v-27.5h273.98v73.203h-108.59l82.266 131.72-138.98-131.72h-108.67v-45.703z" stroke="#000" stroke-linecap="round" stroke-width=".39062px" fill="none"/>
<text xml:space="preserve" font-size="16.25px" y="113.75" x="18.75" font-family="Arial" fill="#000000">Multiple application components</text>
<text xml:space="preserve" font-size="16.25px" y="113.75" x="255" font-family="Arial" fill="#000000">, </text>
<text xml:space="preserve" font-size="16.25px" y="133.75" x="10" font-family="Arial" fill="#000000">optionally together with routers can </text>
<text xml:space="preserve" font-size="16.25px" y="153.75" x="76.25" font-family="Arial" fill="#000000">be run on a node</text>
</g>
</g>
</svg>
