<?xml version="1.0" encoding="UTF-8" standalone="no"?>
<svg xmlns:rdf="http://www.w3.org/1999/02/22-rdf-syntax-ns#" xmlns="http://www.w3.org/2000/svg" version="1.1" xmlns:cc="http://creativecommons.org/ns#" xmlns:dc="http://purl.org/dc/elements/1.1/" viewBox="0 0 879.84 612.84">
<g transform="translate(-47.299 -263.79)">
<g transform="translate(55.424 271.92)">
<path d="m838.12 474.38c13.047 0 23.594-10.625 23.594-23.672v-283.44c0-13.047-10.547-23.594-23.594-23.594h-812.58c-13.04-0.01-23.665 10.54-23.665 23.59v283.44c0 13.04 10.625 23.67 23.672 23.67h812.58z" fill-rule="evenodd" fill="#d9d9d9"/>
<path d="m805.08 403.52c13.047 0 23.594-10.625 23.594-23.672s-10.547-23.594-23.594-23.594h-118.12c-13.047 0-23.594 10.547-23.594 23.594s10.547 23.672 23.594 23.672h118.12z" fill-rule="evenodd" fill="#8c8c8c"/>
<text xml:space="preserve" font-size="15px" y="383.75" x="678.75" font-family="Arial" fill="#ffffff">Key </text>
<text xml:space="preserve" font-size="15px" y="383.75" x="708.75" font-family="Arial" fill="#ffffff">&amp; </text>
<text xml:space="preserve" font-size="15px" y="383.75" x="723.75" font-family="Arial" fill="#ffffff">Configuration</text>
<path d="m410.94 261.72v70.938h118.12v-70.938h-118.12z" fill-rule="evenodd" fill="#404040"/>
<text font-weight="bold" xml:space="preserve" font-size="16.25px" y="292.5" x="443.75" font-family="Arial" fill="#ffc000">Router</text>
<text xml:space="preserve" font-size="16.25px" y="312.5" x="443.75" font-family="Arial" fill="#ffc000">Worker</text>
<path d="m597.19 403.52c13.047 0 23.594-10.625 23.594-23.672s-10.547-23.594-23.594-23.594h-252.34c-13.047 0-23.672 10.547-23.672 23.594s10.625 23.672 23.672 23.672h252.34z" fill-rule="evenodd" fill="#ffc000"/>
<text xml:space="preserve" font-size="15px" y="383.75" x="391.25" font-family="Arial" fill="#000000">One or more Transports</text>
<path d="m660.94 190.86v141.8h167.73v-141.8h-167.73z" fill-rule="evenodd" fill="#404040"/>
<text xml:space="preserve" font-size="20px" y="256.25" x="721.25" font-family="Arial" fill="#ffc000">Node</text>
<text xml:space="preserve" font-size="20px" y="280" x="701.25" font-family="Arial" fill="#ffc000">Controller</text>
<path d="m538.12 403.52-14.141 14.141h9.2969v127.58h9.6875v-127.58h9.375l-14.219-14.141z" fill-rule="evenodd" fill="#bfbfbf"/>
<path d="m467.27 403.52-14.141 14.141h9.2969v127.58h9.6875v-127.58h9.2969l-14.141-14.141z" fill-rule="evenodd" fill="#bfbfbf"/>
<path d="m396.41 403.52-14.141 14.141h9.2969v127.58h9.6875v-127.58h9.2969l-14.141-14.141z" fill-rule="evenodd" fill="#bfbfbf"/>
<path d="m814.53 96.406c13.047 0 23.594-10.547 23.594-23.594v-47.266c0-13.046-10.54-23.671-23.59-23.671h-139.38c-13.047 0-23.672 10.625-23.672 23.672v47.266c0 13.047 10.625 23.594 23.672 23.594h139.38z" fill-rule="evenodd" fill="#f60"/>
<text xml:space="preserve" font-size="20px" y="42.5" x="686.25" font-family="Arial" fill="#ffffff">Management</text>
<text xml:space="preserve" font-size="20px" y="67.5" x="711.25" font-family="Arial" fill="#ffffff">Service</text>
<text font-weight="bold" xml:space="preserve" font-size="23.75px" y="457.5" x="628.75" font-family="Arial" fill="#404040">Crossbar</text>
<text font-weight="bold" xml:space="preserve" font-size="23.75px" y="457.5" x="731.25" font-family="Arial" fill="#404040">.</text>
<text font-weight="bold" xml:space="preserve" font-size="23.75px" y="457.5" x="737.5" font-family="Arial" fill="#404040">io </text>
<text xml:space="preserve" font-size="23.75px" y="457.5" x="765" font-family="Arial" fill="#404040">Node</text>
<path d="m744.84 96.406-12.96 12.974h8.5156v81.484h8.8281v-81.484h8.5938l-12.969-12.969z" fill-rule="evenodd" fill="#f60"/>
<path stroke-linejoin="round" d="m744.84 96.406-12.96 12.974h8.5156v81.484h8.8281v-81.484h8.5938l-12.969-12.969z" stroke="#f60" stroke-linecap="round" stroke-width=".39062px" fill="none"/>
<path d="m470 332.66-14.141 10.625h9.375v12.969h9.6094v-12.969h9.375l-14.22-10.62z" fill-rule="evenodd" fill="#737373"/>
<text xml:space="preserve" font-size="23.75px" y="590" x="381.25" font-family="Arial" fill="#000000">Application Clients</text>
<path d="m148.75 202.89v-22.656h236.25v60.234h-89.766l115.7 56.719-172.42-56.719h-89.766v-37.578z" fill-rule="evenodd" fill="#fff"/>
<path stroke-linejoin="round" d="m148.75 202.89v-22.656h236.25v60.234h-89.766l115.7 56.719-172.42-56.719h-89.766v-37.578z" stroke="#000" stroke-linecap="round" stroke-width=".39062px" fill="none"/>
<text xml:space="preserve" font-size="16.25px" y="205" x="155" font-family="Arial" fill="#000000">A node can host one or more </text>
<text xml:space="preserve" font-size="16.25px" y="225" x="155" font-family="Arial" fill="#000000">workers</text>
<text xml:space="preserve" font-size="16.25px" y="225" x="213.75" font-family="Arial" fill="#000000">, </text>
<text xml:space="preserve" font-size="16.25px" y="225" x="222.5" font-family="Arial" fill="#000000">like WAMP routers</text>
</g>
</g>
</svg>
