<?xml version="1.0" encoding="UTF-8" standalone="no"?>
<svg xmlns:rdf="http://www.w3.org/1999/02/22-rdf-syntax-ns#" xmlns="http://www.w3.org/2000/svg" version="1.1" xmlns:cc="http://creativecommons.org/ns#" xmlns:dc="http://purl.org/dc/elements/1.1/" viewBox="0 0 978.59 574.38">
<g transform="translate(549.66 -240.69)">
<g transform="translate(-541.57 248.79)">
<path d="m935.06 190.11c13.054 0 23.607-10.631 23.607-23.685v-104.51c0-13.054-10.553-23.685-23.607-23.685h-173.54c-13.054 0-23.685 10.631-23.685 23.685v104.51c0 13.054 10.631 23.685 23.685 23.685h173.54z" fill-rule="evenodd" fill="#f2f2f2"/>
<path stroke-linejoin="round" d="m935.06 190.11c13.054 0 23.607-10.631 23.607-23.685v0-104.51c0-13.054-10.553-23.685-23.607-23.685v0h-173.54c-13.054 0-23.685 10.631-23.685 23.685v0 104.51c0 13.054 10.631 23.685 23.685 23.685h173.54z" stroke="#000" stroke-linecap="round" stroke-width="3.5958px" fill="none"/>
<text xml:space="preserve" font-size="23.763px" y="107.56047" x="780.43872" font-family="Arial" fill="#000000">Your existing</text>
<text xml:space="preserve" font-size="23.763px" y="135.07593" x="764.17957" font-family="Arial" fill="#000000">Web Application</text>
<path d="m251 472.45c13.054 0 23.607-10.553 23.607-23.607v-387.64c0-13.054-10.553-23.607-23.607-23.607h-110.77c-13.054 0-23.607 10.553-23.607 23.607v387.64c0 13.054 10.553 23.607 23.607 23.607h110.77z" fill-rule="evenodd" fill="#f2f2f2"/>
<path stroke-linejoin="round" d="m251 472.45c13.054 0 23.607-10.553 23.607-23.607v0-387.64c0-13.054-10.553-23.607-23.607-23.607h-110.77c-13.054 0-23.607 10.553-23.607 23.607v0 387.64c0 13.054 10.553 23.607 23.607 23.607v0h110.77z" stroke="#000" stroke-linecap="round" stroke-width="3.5958px" fill="none"/>
<text xml:space="preserve" font-size="23.763px" y="247.63921" x="171.34631" font-family="Arial" fill="#000000">Web </text>
<text xml:space="preserve" font-size="23.763px" y="276.40536" x="148.83366" font-family="Arial" fill="#000000">Frontend</text>
<path stroke-linejoin="round" d="m720.8 114.13h-446.19v-0.23451" stroke="#262626" stroke-linecap="round" stroke-width="2.0324px" fill="none"/>
<path d="m719.23 107.95 18.604 6.1754-18.604 6.2535v-12.429z" fill-rule="evenodd" fill="#262626"/>
<path d="m934.2 473.78c13.054 0 23.685-10.553 23.685-23.607v-121.16c0-13.054-10.631-23.607-23.685-23.607h-172.52c-13.054 0-23.607 10.553-23.607 23.607v121.16c0 13.054 10.553 23.607 23.607 23.607h172.52z" fill-rule="evenodd" fill="#ffe100"/>
<path stroke-linejoin="round" d="m934.2 473.78c13.054 0 23.685-10.553 23.685-23.607v0-121.16c0-13.054-10.631-23.607-23.685-23.607v0h-172.52c-13.054 0-23.607 10.553-23.607 23.607v0 121.16c0 13.054 10.553 23.607 23.607 23.607h172.52z" stroke="#ffc000" stroke-linecap="round" stroke-width="5.2373px" fill="none"/>
<path d="m787.63 439.47c-2.1887 0.39085-4.2211 0.62535-6.2535 0.62535-0.78169 0-1.5634 0-2.1887-0.0782-0.70352-0.0782-1.4852-0.2345-2.4232-0.46901-0.85986-0.23451-1.5634-0.54718-2.1887-0.93803-0.54718-0.39084-1.0944-0.93803-1.4852-1.6416-0.46901-0.70352-0.62535-1.4852-0.62535-2.4232v-8.5204c0-3.9084 2.9704-5.8627 8.9113-5.8627 1.4852 0 3.5176 0.23451 6.1754 0.70352v3.4394c-2.4232-0.54719-4.4556-0.78169-6.0972-0.78169h-1.6416c-0.39084 0.0782-0.85986 0.15633-1.3289 0.31267-0.46902 0.15634-0.85986 0.46902-1.0162 0.78169-0.2345 0.31268-0.39084 0.78169-0.39084 1.3289v8.2077c0 1.7979 1.6416 2.6578 4.7683 2.6578 1.407 0 3.3613-0.31268 5.7845-0.85986v3.5176z" fill-rule="evenodd"/>
<path d="m799.9 428.68h-1.4852c-1.2507 0-2.1106 0.2345-2.7359 0.54718-0.54719 0.39084-0.85986 1.0162-0.85986 1.9542v8.5986h-4.3775v-14.383h4.143v2.5014c0-0.70352 0.46901-1.3289 1.2507-1.9542 0.78169-0.54718 1.6416-0.85986 2.5014-0.85986h1.5634v3.5958z" fill-rule="evenodd"/>
<path d="m816.47 430.63v4.2211c0 0.93803-0.15634 1.7197-0.46902 2.4232-0.31267 0.62535-0.62535 1.1725-1.0944 1.5634-0.46902 0.31267-1.0162 0.62535-1.7197 0.78169-0.70352 0.23451-1.3289 0.39084-1.9542 0.39084-0.54719 0.0782-1.2507 0.0782-2.1106 0.0782-0.85985 0-1.5634 0-2.1106-0.0782-0.54718 0-1.2507-0.15633-1.9542-0.39084-0.70352-0.15634-1.2507-0.46902-1.7197-0.78169-0.39084-0.39085-0.78169-0.93803-1.0944-1.5634-0.31268-0.70352-0.39085-1.4852-0.39085-2.4232v-4.2211c0-1.0162 0.15634-1.876 0.46902-2.5796 0.2345-0.70352 0.62535-1.2507 1.0944-1.6415 0.46902-0.31268 1.0162-0.62535 1.7197-0.85986 0.70352-0.23451 1.3289-0.31268 1.9542-0.39085 0.54718 0 1.2507-0.0782 2.0324-0.0782 0.85986 0 1.4852 0.0782 2.1106 0.0782 0.54718 0.0782 1.1725 0.15634 1.876 0.39085 0.70352 0.23451 1.3289 0.54718 1.7197 0.85986 0.46901 0.39084 0.85986 0.93802 1.1725 1.6415 0.31268 0.70353 0.46902 1.5634 0.46902 2.5796zm-4.3775 4.7683v-5.4718c0-0.78169-0.15633-1.3289-0.54718-1.6416-0.46901-0.31267-1.2507-0.46901-2.4232-0.46901s-1.9542 0.15634-2.3451 0.46901c-0.39085 0.31268-0.62536 0.85986-0.62536 1.6416v5.4718c0 0.70352 0.23451 1.2507 0.54719 1.5634 0.46901 0.31268 1.2507 0.46902 2.4232 0.46902 1.2507 0 2.0324-0.15634 2.4232-0.46902 0.39085-0.31267 0.54718-0.85985 0.54718-1.5634z" fill-rule="evenodd"/>
<path d="m832.26 434.15v1.8761c0 0.70352-0.15634 1.3289-0.46901 1.7979-0.23451 0.54719-0.54718 0.93803-0.93803 1.2507-0.46901 0.2345-0.93803 0.46901-1.6416 0.62535-0.62535 0.15634-1.2507 0.31267-1.876 0.31267-0.62535 0.0782-1.3289 0.0782-2.1106 0.0782-1.5634 0-3.4394-0.15634-5.7063-0.46901v-2.8922c2.7359 0.46901 4.6901 0.70352 5.7845 0.70352 0.85985 0 1.4852-0.15634 1.9542-0.31268 0.46901-0.15634 0.70352-0.46901 0.70352-1.0162v-0.85986c0-0.46902-0.15634-0.78169-0.39084-1.0162-0.23451-0.23451-0.78169-0.39084-1.6416-0.39084h-1.8761c-1.5634 0-2.7359-0.23451-3.5176-0.85986-0.85986-0.62535-1.3289-1.4852-1.3289-2.6578v-1.7979c0-1.2507 0.62535-2.1887 1.876-2.6578 1.2507-0.54718 3.0486-0.78169 5.3155-0.78169 0.93803 0 2.6578 0.0782 5.1592 0.31268v2.7359c-3.1268-0.2345-4.8465-0.31267-5.2373-0.31267-1.2507 0-2.0324 0.0782-2.3451 0.2345-0.31267 0.15634-0.46901 0.46902-0.46901 0.93803v0.78169c0 0.23451 0.15634 0.46902 0.39084 0.62535 0.23451 0.23451 0.62536 0.31268 1.1725 0.31268h1.876c3.5176 0 5.3155 1.1725 5.3155 3.4394z" fill-rule="evenodd"/>
<path d="m847.82 434.15v1.8761c0 0.70352-0.0782 1.3289-0.39084 1.7979-0.23451 0.54719-0.54719 0.93803-1.0162 1.2507-0.39084 0.2345-0.93803 0.46901-1.5634 0.62535-0.62535 0.15634-1.2507 0.31267-1.876 0.31267-0.62535 0.0782-1.3289 0.0782-2.1106 0.0782-1.5634 0-3.5176-0.15634-5.7063-0.46901v-2.8922c2.7359 0.46901 4.6901 0.70352 5.7063 0.70352 0.85985 0 1.5634-0.15634 2.0324-0.31268 0.46901-0.15634 0.70352-0.46901 0.70352-1.0162v-0.85986c0-0.46902-0.15634-0.78169-0.39085-1.0162-0.2345-0.23451-0.85985-0.39084-1.7197-0.39084h-1.7979c-1.5634 0-2.7359-0.23451-3.5958-0.85986-0.78169-0.62535-1.2507-1.4852-1.2507-2.6578v-1.7979c0-1.2507 0.62535-2.1887 1.876-2.6578 1.2507-0.54718 3.0486-0.78169 5.3155-0.78169 0.93803 0 2.6577 0.0782 5.081 0.31268v2.7359c-3.0486-0.2345-4.8465-0.31267-5.2373-0.31267-1.1725 0-1.9542 0.0782-2.2669 0.2345-0.31267 0.15634-0.46901 0.46902-0.46901 0.93803v0.78169c0 0.23451 0.15634 0.46902 0.39084 0.62535 0.23451 0.23451 0.62535 0.31268 1.0944 0.31268h1.9542c3.5176 0 5.2373 1.1725 5.2373 3.4394z" fill-rule="evenodd"/>
<path d="m865.8 429.93v4.7683c0 1.9542-0.54718 3.3613-1.7197 4.143-1.1725 0.85986-3.1268 1.2507-5.7063 1.2507-2.7359 0-4.6901-0.39084-5.7063-1.2507-1.0944-0.93803-1.5634-2.2669-1.5634-4.143v-15.712h4.2993v7.8169c0.23451-0.62535 0.78169-1.0944 1.4852-1.3289 0.70352-0.23451 1.7197-0.39085 3.2049-0.39085 1.2507 0 2.1887 0.15634 2.9704 0.31268 0.78168 0.23451 1.407 0.54718 1.7979 0.93803 0.39085 0.46901 0.62535 0.93803 0.78169 1.4852 0.15634 0.54718 0.15634 1.2507 0.15634 2.1106zm-4.2993 5.3155v-5.3155c0-0.93803-0.15634-1.5634-0.54719-1.7979-0.31267-0.2345-1.1725-0.31267-2.5796-0.31267-1.2507 0-2.0324 0.0782-2.4232 0.46901-0.31267 0.31268-0.54718 0.85986-0.54718 1.6416v5.3155c0 0.85986 0.23451 1.407 0.54718 1.7197 0.39085 0.31268 1.1725 0.46902 2.5014 0.46902 1.2507 0 2.0324-0.15634 2.4232-0.46902 0.39084-0.31267 0.62535-0.85985 0.62535-1.7197z" fill-rule="evenodd"/>
<path d="m882.14 439.78h-4.2211v-1.2507c-0.31267 0.54719-0.78168 0.93803-1.407 1.1725-0.54718 0.31267-1.6415 0.39084-3.2049 0.39084-1.9542 0-3.2831-0.31267-3.9084-0.85986-0.62535-0.62535-0.93803-1.876-0.93803-3.7521 0-1.7197 0.31268-2.8922 0.93803-3.5176 0.70352-0.70352 1.876-1.0162 3.5176-1.0162h4.9246v-1.0162c0-0.85986-0.23451-1.407-0.62536-1.7197-0.39084-0.31267-1.2507-0.39084-2.5796-0.39084-1.2507 0-2.8922 0.0782-5.081 0.31267v-2.7359c1.6416-0.15634 3.5176-0.31268 5.55-0.31268 2.6578 0 4.4556 0.31268 5.55 1.0162 1.0162 0.62535 1.4852 1.8761 1.4852 3.7521v9.9275zm-4.2993-3.6739v-2.8141h-2.9704c-0.93803 0-1.5634 0.15634-1.7979 0.31268-0.23451 0.23451-0.39084 0.85986-0.39084 1.7979 0 0.93802 0.15633 1.4852 0.39084 1.7197 0.23451 0.15634 0.85986 0.31268 1.876 0.31268 0.54719 0 0.85986-0.0782 1.0944-0.0782 0.23451 0 0.54718 0 0.78169-0.0782 0.31268 0 0.46901-0.0782 0.62535-0.15634 0.0782-0.0782 0.15634-0.2345 0.23451-0.39084 0.0782-0.15634 0.15634-0.39085 0.15634-0.62535z" fill-rule="evenodd"/>
<path d="m895.43 428.68h-1.4852c-1.2507 0-2.1106 0.2345-2.7359 0.54718-0.54719 0.39084-0.85986 1.0162-0.85986 1.9542v8.5986h-4.3775v-14.383h4.143v2.5014c0-0.70352 0.39084-1.3289 1.2507-1.9542 0.78169-0.54718 1.6416-0.85986 2.5014-0.85986h1.5634v3.5958z" fill-rule="evenodd"/>
<path d="m897.93 436.57v3.2049h3.4394v-3.2049h-3.4394z" fill-rule="evenodd"/>
<path d="m908.48 422.97h-2.6577v-2.8141h2.6577v2.8141zm0 16.806h-2.6577v-14.383h2.6577v14.383z" fill-rule="evenodd"/>
<path d="m925.83 430.24v5.0028c0 0.85986-0.0782 1.6416-0.31268 2.2669-0.23451 0.62535-0.46901 1.0944-0.85986 1.407-0.31267 0.39084-0.78169 0.62535-1.407 0.78169-0.62535 0.15634-1.2507 0.31267-1.7979 0.31267-0.54719 0.0782-1.3289 0.0782-2.2669 0.0782-1.1725 0-2.1106 0-2.7359-0.0782-0.70352-0.0782-1.3289-0.31267-2.0324-0.62535-0.62535-0.31267-1.1725-0.78169-1.407-1.4852-0.31268-0.62535-0.46901-1.5634-0.46901-2.6577v-5.0028c0-0.93803 0.15633-1.7197 0.39084-2.4232 0.23451-0.62535 0.46902-1.1725 0.78169-1.4852 0.39085-0.39085 0.85986-0.62535 1.4852-0.85986 0.62535-0.15634 1.1725-0.23451 1.7197-0.31268 0.54718-0.0782 1.3289-0.0782 2.2669-0.0782 0.93802 0 1.7197 0 2.2669 0.0782 0.54718 0.0782 1.0944 0.15634 1.7979 0.31268 0.62535 0.23451 1.0944 0.46901 1.407 0.85986 0.31268 0.31267 0.62535 0.85986 0.85986 1.4852 0.15634 0.70352 0.31268 1.4852 0.31268 2.4232zm-2.7359 5.3936v-5.8627c0-1.3289-0.2345-2.1106-0.78169-2.4232-0.54718-0.31267-1.5634-0.46901-3.1268-0.46901-1.4852 0-2.5796 0.15634-3.0486 0.46901-0.54718 0.31268-0.85986 1.0944-0.85986 2.4232v5.8627c0 0.62535 0.0782 1.1725 0.23451 1.4852 0.15633 0.39085 0.39084 0.70352 0.78169 0.85986 0.39084 0.15634 0.78169 0.23451 1.1725 0.31268 0.39084 0 0.93803 0.0782 1.7197 0.0782 0.78169 0 1.407-0.0782 1.7979-0.0782 0.39085-0.0782 0.78169-0.15634 1.0944-0.31268 0.39084-0.15634 0.70352-0.46901 0.78169-0.85986 0.15634-0.31267 0.2345-0.85986 0.2345-1.4852z" fill-rule="evenodd"/>
<path d="m813.66 337.77v64.958h64.802v-64.958h-64.802z" fill-rule="evenodd"/>
<path d="m813.66 351.6v6.4098h15.243l10.162 10.162 4.6901-4.6901-12.038-12.038-18.057 0.15634z" fill-rule="evenodd" fill="#ffe100"/>
<path d="m852.98 372.71-4.6901 4.6901 11.569 11.647h18.604v-6.488h-15.712l-9.7711-9.8493z" fill-rule="evenodd" fill="#ffe100"/>
<path d="m860.33 351.45-30.877 31.111h-15.79v6.488h18.526l31.033-31.033h15.243v-6.5662h-18.135z" fill-rule="evenodd" fill="#ffe100"/>
<path stroke-linejoin="round" d="m296.26 388.19 420.31 1.3289" stroke="#ffc000" stroke-linecap="round" stroke-width="3.5958px" fill="none"/>
<path d="m298.21 396-23.451-7.8951 23.451-7.7387v15.634z" fill-rule="evenodd" fill="#ffc000"/>
<path d="m714.7 381.7 23.373 7.8951-23.451 7.7387 0.0782-15.634z" fill-rule="evenodd" fill="#ffc000"/>
<path d="m361.77 460.88v-29.626h108.03l81.53-42.289-24.78 42.289h108.03v79.029h-272.81v-49.403z" fill-rule="evenodd" fill="#fff"/>
<path stroke-linejoin="round" d="m361.77 460.88v-29.626h108.03l81.53-42.289-24.78 42.289h108.03v79.029h-272.81v-49.403z" stroke="#000" stroke-linecap="round" stroke-width=".39084px" fill="none"/>
<text xml:space="preserve" font-size="16.259px" y="455.25592" x="368.9574" font-family="Arial" fill="#000000">Chat runs over WAMP and </text>
<text xml:space="preserve" font-size="16.259px" y="475.26718" x="368.9574" font-family="Arial" fill="#000000">requires no backend </text>
<text xml:space="preserve" font-size="16.259px" y="475.26718" x="524.04462" font-family="Arial" fill="#000000">(</text>
<text xml:space="preserve" font-size="16.259px" y="475.26718" x="530.2981" font-family="Arial" fill="#000000">other than a </text>
<text xml:space="preserve" font-size="16.259px" y="495.27844" x="368.9574" font-family="Arial" fill="#000000">WAMP Router like Crossbar</text>
<text xml:space="preserve" font-size="16.259px" y="495.27844" x="576.57416" font-family="Arial" fill="#000000">.</text>
<text xml:space="preserve" font-size="16.259px" y="495.27844" x="581.57697" font-family="Arial" fill="#000000">io</text>
<text xml:space="preserve" font-size="16.259px" y="495.27844" x="594.08398" font-family="Arial" fill="#000000">)</text>
<path d="m451.19 23.685v-21.575h238.49v57.611h-90.91l139.06 22.747-195.74-22.747h-90.91v-36.036z" fill-rule="evenodd" fill="#fff"/>
<path stroke-linejoin="round" d="m451.19 23.685v-21.575h238.49v57.611h-90.91l139.06 22.747-195.74-22.747h-90.91v-36.036z" stroke="#000" stroke-linecap="round" stroke-width=".39084px" fill="none"/>
<text xml:space="preserve" font-size="16.259px" y="26.264765" x="457.75732" font-family="Arial" fill="#000000">Existing Web app stays </text>
<text xml:space="preserve" font-size="16.259px" y="46.276016" x="457.75732" font-family="Arial" fill="#000000">unmodified</text>
<path stroke-linejoin="bevel" d="m77.778 252.02h8.7549c0.31268 0 0.62535 0.31268 0.62535 0.62536 0 0.31267-0.31268 0.62535-0.62535 0.62535h-8.7549c-0.39084 0-0.62535-0.31268-0.62535-0.62535 0-0.31268 0.23451-0.62536 0.62535-0.62536zm15.008 0h8.7549c0.31267 0 0.62535 0.31268 0.62535 0.62536 0 0.31267-0.31268 0.62535-0.62535 0.62535h-8.7549c-0.39084 0-0.62535-0.31268-0.62535-0.62535 0-0.31268 0.23451-0.62536 0.62535-0.62536zm15.008 0h8.7549c0.31268 0 0.62536 0.31268 0.62536 0.62536 0 0.31267-0.31268 0.62535-0.62536 0.62535h-8.7549c-0.39084 0-0.62535-0.31268-0.62535-0.62535 0-0.31268 0.23451-0.62536 0.62535-0.62536zm15.008 0h8.7549c0.31268 0 0.62535 0.31268 0.62535 0.62536 0 0.31267-0.31267 0.62535-0.62535 0.62535h-8.7549c-0.39084 0-0.62535-0.31268-0.62535-0.62535 0-0.31268 0.23451-0.62536 0.62535-0.62536zm15.008 0h8.7549c0.31267 0 0.62535 0.31268 0.62535 0.62536 0 0.31267-0.31268 0.62535-0.62535 0.62535h-8.7549c-0.39085 0-0.62535-0.31268-0.62535-0.62535 0-0.31268 0.2345-0.62536 0.62535-0.62536zm15.008 0h8.7549c0.31267 0 0.62535 0.31268 0.62535 0.62536 0 0.31267-0.31268 0.62535-0.62535 0.62535h-8.7549c-0.39084 0-0.62535-0.31268-0.62535-0.62535 0-0.31268 0.23451-0.62536 0.62535-0.62536zm15.008 0h8.7549c0.31268 0 0.62535 0.31268 0.62535 0.62536 0 0.31267-0.31267 0.62535-0.62535 0.62535h-8.7549c-0.39084 0-0.62535-0.31268-0.62535-0.62535 0-0.31268 0.23451-0.62536 0.62535-0.62536zm15.008 0h8.7549c0.31268 0 0.62535 0.31268 0.62535 0.62536 0 0.31267-0.31267 0.62535-0.62535 0.62535h-8.7549c-0.39085 0-0.62535-0.31268-0.62535-0.62535 0-0.31268 0.2345-0.62536 0.62535-0.62536zm15.008 0h8.7549c0.31267 0 0.62535 0.31268 0.62535 0.62536 0 0.31267-0.31268 0.62535-0.62535 0.62535h-8.7549c-0.39085 0-0.62536-0.31268-0.62536-0.62535 0-0.31268 0.23451-0.62536 0.62536-0.62536zm15.008 0h8.7549c0.31268 0 0.62536 0.31268 0.62536 0.62536 0 0.31267-0.31268 0.62535-0.62536 0.62535h-8.7549c-0.39084 0-0.62535-0.31268-0.62535-0.62535 0-0.31268 0.23451-0.62536 0.62535-0.62536zm15.008 0h8.7549c0.31268 0 0.62535 0.31268 0.62535 0.62536 0 0.31267-0.31267 0.62535-0.62535 0.62535h-8.7549c-0.39084 0-0.62535-0.31268-0.62535-0.62535 0-0.31268 0.23451-0.62536 0.62535-0.62536zm15.008 0h8.7549c0.31267 0 0.62535 0.31268 0.62535 0.62536 0 0.31267-0.31268 0.62535-0.62535 0.62535h-8.7549c-0.39085 0-0.62535-0.31268-0.62535-0.62535 0-0.31268 0.2345-0.62536 0.62535-0.62536zm15.008 0h8.7549c0.31267 0 0.62535 0.31268 0.62535 0.62536 0 0.31267-0.31268 0.62535-0.62535 0.62535h-8.7549c-0.39084 0-0.62535-0.31268-0.62535-0.62535 0-0.31268 0.23451-0.62536 0.62535-0.62536zm15.008 0h8.7549c0.31268 0 0.62536 0.31268 0.62536 0.62536 0 0.31267-0.31268 0.62535-0.62536 0.62535h-8.7549c-0.39084 0-0.62535-0.31268-0.62535-0.62535 0-0.31268 0.23451-0.62536 0.62535-0.62536zm15.008 0h8.7549c0.31268 0 0.62535 0.31268 0.62535 0.62536 0 0.31267-0.31267 0.62535-0.62535 0.62535h-8.7549c-0.39085 0-0.62535-0.31268-0.62535-0.62535 0-0.31268 0.2345-0.62536 0.62535-0.62536zm15.008 0h8.7549c0.31267 0 0.62535 0.31268 0.62535 0.62536 0 0.31267-0.31268 0.62535-0.62535 0.62535h-8.7549c-0.39085 0-0.62536-0.31268-0.62536-0.62535 0-0.31268 0.23451-0.62536 0.62536-0.62536zm15.008 0h8.7549c0.31268 0 0.62536 0.31268 0.62536 0.62536 0 0.31267-0.31268 0.62535-0.62536 0.62535h-8.7549c-0.39084 0-0.62535-0.31268-0.62535-0.62535 0-0.31268 0.23451-0.62536 0.62535-0.62536zm15.008 0h8.7549c0.31268 0 0.62535 0.31268 0.62535 0.62536 0 0.31267-0.31267 0.62535-0.62535 0.62535h-8.7549c-0.39084 0-0.62535-0.31268-0.62535-0.62535 0-0.31268 0.23451-0.62536 0.62535-0.62536zm15.008 0h8.7549c0.31268 0 0.62535 0.31268 0.62535 0.62536 0 0.31267-0.31267 0.62535-0.62535 0.62535h-8.7549c-0.39085 0-0.62535-0.31268-0.62535-0.62535 0-0.31268 0.2345-0.62536 0.62535-0.62536zm15.008 0h8.7549c0.31267 0 0.62535 0.31268 0.62535 0.62536 0 0.31267-0.31268 0.62535-0.62535 0.62535h-8.7549c-0.39084 0-0.62535-0.31268-0.62535-0.62535 0-0.31268 0.23451-0.62536 0.62535-0.62536zm15.008 0h8.7549c0.31268 0 0.62536 0.31268 0.62536 0.62536 0 0.31267-0.31268 0.62535-0.62536 0.62535h-8.7549c-0.39084 0-0.62535-0.31268-0.62535-0.62535 0-0.31268 0.23451-0.62536 0.62535-0.62536zm15.008 0h8.7549c0.31268 0 0.62535 0.31268 0.62535 0.62536 0 0.31267-0.31267 0.62535-0.62535 0.62535h-8.7549c-0.39085 0-0.62535-0.31268-0.62535-0.62535 0-0.31268 0.2345-0.62536 0.62535-0.62536zm15.008 0h8.7549c0.31267 0 0.62535 0.31268 0.62535 0.62536 0 0.31267-0.31268 0.62535-0.62535 0.62535h-8.7549c-0.39085 0-0.62536-0.31268-0.62536-0.62535 0-0.31268 0.23451-0.62536 0.62536-0.62536zm15.008 0h8.7549c0.31267 0 0.62535 0.31268 0.62535 0.62536 0 0.31267-0.31268 0.62535-0.62535 0.62535h-8.7549c-0.39084 0-0.62535-0.31268-0.62535-0.62535 0-0.31268 0.23451-0.62536 0.62535-0.62536zm15.008 0h8.7549c0.31268 0 0.62535 0.31268 0.62535 0.62536 0 0.31267-0.31267 0.62535-0.62535 0.62535h-8.7549c-0.39084 0-0.62535-0.31268-0.62535-0.62535 0-0.31268 0.23451-0.62536 0.62535-0.62536zm15.008 0h8.7549c0.31268 0 0.62535 0.31268 0.62535 0.62536 0 0.31267-0.31267 0.62535-0.62535 0.62535h-8.7549c-0.39085 0-0.62535-0.31268-0.62535-0.62535 0-0.31268 0.2345-0.62536 0.62535-0.62536zm15.008 0h8.7549c0.31267 0 0.62535 0.31268 0.62535 0.62536 0 0.31267-0.31268 0.62535-0.62535 0.62535h-8.7549c-0.39084 0-0.62535-0.31268-0.62535-0.62535 0-0.31268 0.23451-0.62536 0.62535-0.62536zm15.008 0h8.7549c0.31268 0 0.62536 0.31268 0.62536 0.62536 0 0.31267-0.31268 0.62535-0.62536 0.62535h-8.7549c-0.39084 0-0.62535-0.31268-0.62535-0.62535 0-0.31268 0.23451-0.62536 0.62535-0.62536zm15.008 0h8.7549c0.31268 0 0.62535 0.31268 0.62535 0.62536 0 0.31267-0.31267 0.62535-0.62535 0.62535h-8.7549c-0.39085 0-0.62535-0.31268-0.62535-0.62535 0-0.31268 0.2345-0.62536 0.62535-0.62536zm15.008 0h8.7549c0.31267 0 0.62535 0.31268 0.62535 0.62536 0 0.31267-0.31268 0.62535-0.62535 0.62535h-8.7549c-0.39085 0-0.62536-0.31268-0.62536-0.62535 0-0.31268 0.23451-0.62536 0.62536-0.62536zm15.008 0h8.7549c0.31267 0 0.62535 0.31268 0.62535 0.62536 0 0.31267-0.31268 0.62535-0.62535 0.62535h-8.7549c-0.39084 0-0.62535-0.31268-0.62535-0.62535 0-0.31268 0.23451-0.62536 0.62535-0.62536zm15.008 0h8.7549c0.31268 0 0.62535 0.31268 0.62535 0.62536 0 0.31267-0.31267 0.62535-0.62535 0.62535h-8.7549c-0.39084 0-0.62535-0.31268-0.62535-0.62535 0-0.31268 0.23451-0.62536 0.62535-0.62536zm15.008 0h8.7549c0.31268 0 0.62535 0.31268 0.62535 0.62536 0 0.31267-0.31267 0.62535-0.62535 0.62535h-8.7549c-0.39085 0-0.62535-0.31268-0.62535-0.62535 0-0.31268 0.2345-0.62536 0.62535-0.62536zm15.008 0h8.7549c0.31267 0 0.62535 0.31268 0.62535 0.62536 0 0.31267-0.31268 0.62535-0.62535 0.62535h-8.7549c-0.39084 0-0.62535-0.31268-0.62535-0.62535 0-0.31268 0.23451-0.62536 0.62535-0.62536zm15.008 0h8.7549c0.31268 0 0.62536 0.31268 0.62536 0.62536 0 0.31267-0.31268 0.62535-0.62536 0.62535h-8.7549c-0.39084 0-0.62535-0.31268-0.62535-0.62535 0-0.31268 0.23451-0.62536 0.62535-0.62536zm15.008 0h8.7549c0.31268 0 0.62535 0.31268 0.62535 0.62536 0 0.31267-0.31267 0.62535-0.62535 0.62535h-8.7549c-0.39085 0-0.62535-0.31268-0.62535-0.62535 0-0.31268 0.2345-0.62536 0.62535-0.62536zm15.008 0h8.7549c0.31267 0 0.62535 0.31268 0.62535 0.62536 0 0.31267-0.31268 0.62535-0.62535 0.62535h-8.7549c-0.39085 0-0.62536-0.31268-0.62536-0.62535 0-0.31268 0.23451-0.62536 0.62536-0.62536zm15.008 0h8.7549c0.31267 0 0.62535 0.31268 0.62535 0.62536 0 0.31267-0.31268 0.62535-0.62535 0.62535h-8.7549c-0.39084 0-0.62535-0.31268-0.62535-0.62535 0-0.31268 0.23451-0.62536 0.62535-0.62536zm15.008 0h8.7549c0.31268 0 0.62535 0.31268 0.62535 0.62536 0 0.31267-0.31267 0.62535-0.62535 0.62535h-8.7549c-0.39084 0-0.62535-0.31268-0.62535-0.62535 0-0.31268 0.23451-0.62536 0.62535-0.62536zm15.008 0h8.7549c0.31268 0 0.62535 0.31268 0.62535 0.62536 0 0.31267-0.31267 0.62535-0.62535 0.62535h-8.7549c-0.39085 0-0.62535-0.31268-0.62535-0.62535 0-0.31268 0.2345-0.62536 0.62535-0.62536zm15.008 0h8.7549c0.31267 0 0.62535 0.31268 0.62535 0.62536 0 0.31267-0.31268 0.62535-0.62535 0.62535h-8.7549c-0.39085 0-0.62536-0.31268-0.62536-0.62535 0-0.31268 0.23451-0.62536 0.62536-0.62536zm15.008 0h8.7549c0.31268 0 0.62536 0.31268 0.62536 0.62536 0 0.31267-0.31268 0.62535-0.62536 0.62535h-8.7549c-0.39084 0-0.62535-0.31268-0.62535-0.62535 0-0.31268 0.23451-0.62536 0.62535-0.62536zm15.008 0h8.7549c0.31268 0 0.62535 0.31268 0.62535 0.62536 0 0.31267-0.31267 0.62535-0.62535 0.62535h-8.7549c-0.39085 0-0.62535-0.31268-0.62535-0.62535 0-0.31268 0.2345-0.62536 0.62535-0.62536zm15.008 0h8.7549c0.31267 0 0.62535 0.31268 0.62535 0.62536 0 0.31267-0.31268 0.62535-0.62535 0.62535h-8.7549c-0.39085 0-0.62536-0.31268-0.62536-0.62535 0-0.31268 0.23451-0.62536 0.62536-0.62536zm15.008 0h8.7549c0.31267 0 0.62535 0.31268 0.62535 0.62536 0 0.31267-0.31268 0.62535-0.62535 0.62535h-8.7549c-0.39084 0-0.62535-0.31268-0.62535-0.62535 0-0.31268 0.23451-0.62536 0.62535-0.62536zm15.008 0h8.7549c0.31268 0 0.62535 0.31268 0.62535 0.62536 0 0.31267-0.31267 0.62535-0.62535 0.62535h-8.7549c-0.39084 0-0.62535-0.31268-0.62535-0.62535 0-0.31268 0.23451-0.62536 0.62535-0.62536zm15.008 0h8.7549c0.31268 0 0.62535 0.31268 0.62535 0.62536 0 0.31267-0.31267 0.62535-0.62535 0.62535h-8.7549c-0.39085 0-0.62535-0.31268-0.62535-0.62535 0-0.31268 0.2345-0.62536 0.62535-0.62536zm15.008 0h8.7549c0.31267 0 0.62535 0.31268 0.62535 0.62536 0 0.31267-0.31268 0.62535-0.62535 0.62535h-8.7549c-0.39085 0-0.62536-0.31268-0.62536-0.62535 0-0.31268 0.23451-0.62536 0.62536-0.62536zm15.008 0h8.7549c0.31268 0 0.62536 0.31268 0.62536 0.62536 0 0.31267-0.31268 0.62535-0.62536 0.62535h-8.7549c-0.39084 0-0.62535-0.31268-0.62535-0.62535 0-0.31268 0.23451-0.62536 0.62535-0.62536zm15.008 0h8.7549c0.31268 0 0.62535 0.31268 0.62535 0.62536 0 0.31267-0.31267 0.62535-0.62535 0.62535h-8.7549c-0.39085 0-0.62535-0.31268-0.62535-0.62535 0-0.31268 0.2345-0.62536 0.62535-0.62536zm15.008 0h8.7549c0.31267 0 0.62535 0.31268 0.62535 0.62536 0 0.31267-0.31268 0.62535-0.62535 0.62535h-8.7549c-0.39085 0-0.62535-0.31268-0.62535-0.62535 0-0.31268 0.2345-0.62536 0.62535-0.62536zm15.008 0h8.7549c0.31267 0 0.62535 0.31268 0.62535 0.62536 0 0.31267-0.31268 0.62535-0.62535 0.62535h-8.7549c-0.39084 0-0.62535-0.31268-0.62535-0.62535 0-0.31268 0.23451-0.62536 0.62535-0.62536zm15.008 0h8.7549c0.31268 0 0.62535 0.31268 0.62535 0.62536 0 0.31267-0.31267 0.62535-0.62535 0.62535h-8.7549c-0.39084 0-0.62535-0.31268-0.62535-0.62535 0-0.31268 0.23451-0.62536 0.62535-0.62536zm15.008 0h8.7549c0.31268 0 0.62535 0.31268 0.62535 0.62536 0 0.31267-0.31267 0.62535-0.62535 0.62535h-8.7549c-0.39085 0-0.62535-0.31268-0.62535-0.62535 0-0.31268 0.2345-0.62536 0.62535-0.62536zm15.008 0h8.7549c0.31267 0 0.62535 0.31268 0.62535 0.62536 0 0.31267-0.31268 0.62535-0.62535 0.62535h-8.7549c-0.39085 0-0.62536-0.31268-0.62536-0.62535 0-0.31268 0.23451-0.62536 0.62536-0.62536z" stroke="#000" stroke-width="1.2507px"/>
<path d="m251.16 420.55c13.054 0 23.607-10.553 23.607-23.607v-17.666c0-13.054-10.553-23.685-23.607-23.685h-47.136c-13.054 0-23.685 10.631-23.685 23.685v17.666c0 13.054 10.631 23.607 23.685 23.607h47.136z" fill-rule="evenodd" fill="#f2f2f2"/>
<path stroke-linejoin="round" d="m251.16 420.55c13.054 0 23.607-10.553 23.607-23.607v0-17.666c0-13.054-10.553-23.685-23.607-23.685v0h-47.136c-13.054 0-23.685 10.631-23.685 23.685v0 17.666c0 13.054 10.631 23.607 23.685 23.607v0h47.136z" stroke="#000" stroke-linecap="round" stroke-width="2.0324px" fill="none"/>
<text xml:space="preserve" font-size="23.763px" y="395.22217" x="202.61391" font-family="Arial" fill="#000000">Chat</text>
<path d="m2.1106 520.06v-21.575h90.91l134.53-77.934-77.778 77.934h90.832v57.611h-238.49v-36.036z" fill-rule="evenodd" fill="#fff"/>
<path stroke-linejoin="round" d="m2.1106 520.06v-21.575h90.91l134.53-77.934-77.778 77.934h90.832v57.611h-238.49v-36.036z" stroke="#000" stroke-linecap="round" stroke-width=".39084px" fill="none"/>
<text xml:space="preserve" font-size="16.259px" y="522.79388" x="8.7549219" font-family="Arial" fill="#000000">Within the frontend</text>
<text xml:space="preserve" font-size="16.259px" y="522.79388" x="148.83366" font-family="Arial" fill="#000000">, </text>
<text xml:space="preserve" font-size="16.259px" y="522.79388" x="157.58859" font-family="Arial" fill="#000000">only the </text>
<text xml:space="preserve" font-size="16.259px" y="542.80511" x="8.7549219" font-family="Arial" fill="#000000">„chat“ code is </text>
<text font-weight="bold" xml:space="preserve" font-size="16.259px" y="542.80511" x="113.81398" font-family="Arial" fill="#000000">added</text>
</g>
</g>
</svg>
