<?xml version="1.0" encoding="UTF-8" standalone="no"?>
<svg xmlns:rdf="http://www.w3.org/1999/02/22-rdf-syntax-ns#" xmlns="http://www.w3.org/2000/svg" version="1.1" xmlns:cc="http://creativecommons.org/ns#" xmlns:dc="http://purl.org/dc/elements/1.1/" viewBox="0 0 867.34 607.34">
<g transform="translate(558.76 -136.02)">
<g transform="translate(-550.73 144.05)">
<path d="m823.82 377.48c13.054 0 23.685-10.553 23.685-23.607v-120.69c0-13.054-10.631-23.607-23.685-23.607h-108.65c-13.054 0-23.685 10.553-23.685 23.607v120.69c0 13.054 10.631 23.607 23.685 23.607h108.65z" fill-rule="evenodd" fill="#f2f2f2"/>
<path stroke-linejoin="round" d="m823.82 377.48c13.054 0 23.685-10.553 23.685-23.607v0-120.69c0-13.054-10.631-23.607-23.685-23.607v0h-108.65c-13.054 0-23.685 10.553-23.685 23.607v120.69c0 13.054 10.631 23.607 23.685 23.607v0h108.65z" stroke="#000" stroke-linecap="round" stroke-width="3.5958px" fill="none"/>
<text xml:space="preserve" font-size="21.262px" y="286.41101" x="716.65289" font-family="Arial" fill="#000000">Application</text>
<text xml:space="preserve" font-size="21.262px" y="312.67578" x="726.65851" font-family="Arial" fill="#000000">Backend</text>
<path d="m138.05 169.16c13.054 0 23.685-10.553 23.685-23.607v-118.19c0-13.054-10.631-23.607-23.685-23.607h-110.69c-13.054 0-23.607 10.553-23.607 23.607v118.19c0 13.054 10.553 23.607 23.607 23.607h110.69z" fill-rule="evenodd" fill="#f2f2f2"/>
<path stroke-linejoin="round" d="m138.05 169.16c13.054 0 23.685-10.553 23.685-23.607v0-118.19c0-13.054-10.631-23.607-23.685-23.607v0h-110.69c-13.054 0-23.607 10.553-23.607 23.607v0 118.19c0 13.054 10.553 23.607 23.607 23.607v0h110.69z" stroke="#000" stroke-linecap="round" stroke-width="3.5958px" fill="none"/>
<text xml:space="preserve" font-size="23.763px" y="78.794296" x="32.51828" font-family="Arial" fill="#000000">Frontend</text>
<text xml:space="preserve" font-size="23.763px" y="78.794296" x="126.32101" font-family="Arial" fill="#000000">: </text>
<text font-weight="bold" xml:space="preserve" font-size="23.763px" y="107.56047" x="36.27039" font-family="Arial" fill="#000000">Browser</text>
<path d="m560.47 377.71c13.054 0 23.607-10.553 23.607-23.607v-121.16c0-13.054-10.553-23.607-23.607-23.607h-172.6c-13.054 0-23.607 10.553-23.607 23.607v121.16c0 13.054 10.553 23.607 23.607 23.607h172.6z" fill-rule="evenodd" fill="#ffe100"/>
<path stroke-linejoin="round" d="m560.47 377.71c13.054 0 23.607-10.553 23.607-23.607v0-121.16c0-13.054-10.553-23.607-23.607-23.607v0h-172.6c-13.054 0-23.607 10.553-23.607 23.607v0 121.16c0 13.054 10.553 23.607 23.607 23.607v0h172.6z" stroke="#ffc000" stroke-linecap="round" stroke-width="5.2373px" fill="none"/>
<path d="m413.83 343.4c-2.1106 0.46901-4.2211 0.70352-6.1754 0.70352-0.78169 0-1.5634-0.0782-2.2669-0.15634-0.70352-0.0782-1.4852-0.23451-2.3451-0.39084-0.85986-0.23451-1.6416-0.54719-2.1887-0.93803-0.62535-0.39085-1.1725-0.93803-1.5634-1.6416-0.39084-0.70352-0.62535-1.5634-0.62535-2.5014v-8.5204c0-3.8303 2.9704-5.7845 8.9894-5.7845 1.407 0 3.4394 0.23451 6.0972 0.62535v3.5176c-2.3451-0.54718-4.3775-0.85986-6.0972-0.85986-0.62535 0-1.1725 0-1.6416 0.0782-0.39084 0-0.85986 0.15634-1.3289 0.31268-0.46901 0.15634-0.78169 0.39084-1.0162 0.70352-0.2345 0.39084-0.39084 0.85986-0.39084 1.407v8.2077c0 1.7197 1.6416 2.5796 4.8465 2.5796 1.407 0 3.2831-0.2345 5.7063-0.85985v3.5176z" fill-rule="evenodd"/>
<path d="m426.1 332.69h-1.4852c-1.1725 0-2.1106 0.15634-2.6577 0.54719-0.62535 0.39084-0.93803 1.0162-0.93803 1.876v8.6768h-4.2993v-14.461h4.0648v2.5796c0.0782-0.70352 0.46902-1.407 1.2507-1.9542 0.78169-0.62535 1.6415-0.85986 2.5014-0.85986h1.5634v3.5958z" fill-rule="evenodd"/>
<path d="m442.67 334.56v4.2993c0 0.85986-0.15634 1.7197-0.46902 2.3451-0.2345 0.70352-0.62535 1.1725-1.0944 1.5634-0.39085 0.39084-1.0162 0.62535-1.7197 0.85986-0.70352 0.15633-1.3289 0.31267-1.876 0.39084-0.62535 0-1.3289 0.0782-2.1106 0.0782-0.85986 0-1.5634-0.0782-2.1887-0.0782-0.54719-0.0782-1.1725-0.23451-1.8761-0.39084-0.70352-0.23451-1.3289-0.46902-1.7197-0.85986-0.46901-0.39085-0.85985-0.85986-1.0944-1.5634-0.31268-0.62535-0.46902-1.4852-0.46902-2.3451v-4.2993c0-1.0162 0.15634-1.7979 0.46902-2.5014 0.31267-0.70352 0.70352-1.2507 1.0944-1.6416 0.46902-0.39084 1.0944-0.70352 1.7197-0.85985 0.78169-0.23451 1.407-0.39085 1.9542-0.39085 0.54719-0.0782 1.2507-0.0782 2.1106-0.0782 0.78168 0 1.4852 0 2.0324 0.0782 0.54718 0 1.1725 0.15634 1.9542 0.39085 0.70352 0.15633 1.2507 0.46901 1.7197 0.85985 0.39084 0.39085 0.78169 0.93803 1.0944 1.6416 0.31268 0.70352 0.46902 1.4852 0.46902 2.5014zm-4.3775 4.7683v-5.4718c0-0.78169-0.15634-1.3289-0.54719-1.6416-0.39084-0.31268-1.1725-0.46901-2.3451-0.46901-1.2507 0-2.0324 0.15633-2.4232 0.46901-0.39085 0.31268-0.54718 0.85986-0.54718 1.6416v5.4718c0 0.78169 0.15633 1.2507 0.54718 1.5634 0.39084 0.31268 1.1725 0.46902 2.4232 0.46902 1.1725 0 1.9542-0.15634 2.3451-0.46902 0.39085-0.31267 0.54719-0.78169 0.54719-1.5634z" fill-rule="evenodd"/>
<path d="m458.46 338.16v1.7979c0 0.70352-0.15633 1.3289-0.39084 1.876-0.31268 0.46901-0.62535 0.85986-1.0162 1.1725-0.39084 0.31268-0.93802 0.54719-1.5634 0.70352-0.70352 0.15634-1.3289 0.23451-1.9542 0.31268-0.54718 0-1.2507 0.0782-2.1106 0.0782-1.5634 0-3.4394-0.15634-5.7063-0.46901v-2.8923c2.8141 0.39085 4.6901 0.62536 5.7845 0.62536 0.85986 0 1.4852-0.0782 1.9542-0.23451 0.46902-0.15634 0.70352-0.54718 0.70352-1.0162v-0.93802c0-0.39085-0.15634-0.78169-0.39084-1.0162-0.23451-0.23451-0.78169-0.31268-1.6416-0.31268h-1.8761c-1.4852 0-2.6577-0.31267-3.5176-0.93802-0.85986-0.54719-1.2507-1.4852-1.2507-2.6578v-1.7197c0-1.3289 0.62535-2.1887 1.876-2.7359 1.2507-0.46901 2.9704-0.70352 5.2373-0.70352 1.0162 0 2.6578 0.0782 5.1592 0.23451v2.8141c-3.1268-0.23451-4.8465-0.39084-5.2373-0.39084-1.2507 0-1.9542 0.0782-2.2669 0.2345-0.39084 0.15634-0.54718 0.46902-0.54718 1.0162v0.70352c0 0.23451 0.15634 0.46901 0.39085 0.70352 0.2345 0.15634 0.62535 0.31268 1.1725 0.31268h1.8761c3.5176 0 5.3155 1.0944 5.3155 3.4394z" fill-rule="evenodd"/>
<path d="m474.09 338.16v1.7979c0 0.70352-0.15634 1.3289-0.39084 1.876-0.31268 0.46901-0.62535 0.85986-1.0162 1.1725-0.39084 0.31268-0.93803 0.54719-1.6416 0.70352-0.62535 0.15634-1.2507 0.23451-1.876 0.31268-0.54718 0-1.3289 0.0782-2.1106 0.0782-1.5634 0-3.4394-0.15634-5.7063-0.46901v-2.8923c2.8141 0.39085 4.6901 0.62536 5.7845 0.62536 0.85985 0 1.4852-0.0782 1.9542-0.23451 0.46901-0.15634 0.70352-0.54718 0.70352-1.0162v-0.93802c0-0.39085-0.15634-0.78169-0.39084-1.0162-0.23451-0.23451-0.78169-0.31268-1.6416-0.31268h-1.8761c-1.4852 0-2.6577-0.31267-3.5176-0.93802-0.85986-0.54719-1.2507-1.4852-1.2507-2.6578v-1.7197c0-1.3289 0.62535-2.1887 1.876-2.7359 1.2507-0.46901 2.9704-0.70352 5.2373-0.70352 0.93803 0 2.6578 0.0782 5.1592 0.23451v2.8141c-3.1268-0.23451-4.8465-0.39084-5.2373-0.39084-1.2507 0-1.9542 0.0782-2.3451 0.2345-0.31267 0.15634-0.46901 0.46902-0.46901 1.0162v0.70352c0 0.23451 0.15634 0.46901 0.39085 0.70352 0.2345 0.15634 0.62535 0.31268 1.1725 0.31268h1.876c3.5176 0 5.3155 1.0944 5.3155 3.4394z" fill-rule="evenodd"/>
<path d="m492.07 333.94v4.6901c0 1.9542-0.62535 3.3613-1.7979 4.2211-1.1725 0.78169-3.0486 1.2507-5.7063 1.2507-2.7359 0-4.612-0.46901-5.7063-1.3289-1.0162-0.85986-1.5634-2.2669-1.5634-4.143v-15.712h4.3775v7.8951c0.23451-0.70352 0.70352-1.0944 1.407-1.407 0.70352-0.23451 1.7979-0.31268 3.2049-0.31268 1.2507 0 2.2669 0.0782 3.0486 0.23451 0.70352 0.23451 1.3289 0.54718 1.7197 1.0162 0.39085 0.39084 0.70352 0.93802 0.78169 1.4852 0.15634 0.46901 0.23451 1.2507 0.23451 2.1106zm-4.3775 5.2373v-5.3155c0-0.93803-0.15634-1.4852-0.46902-1.7197-0.39084-0.23451-1.2507-0.39084-2.6577-0.39084-1.1725 0-1.9542 0.15633-2.3451 0.46901-0.39084 0.31268-0.54718 0.85986-0.54718 1.6416v5.3155c0 0.85985 0.15634 1.4852 0.54718 1.7197 0.31268 0.31268 1.1725 0.46902 2.4232 0.46902s2.1106-0.15634 2.5014-0.46902c0.39084-0.2345 0.54718-0.85986 0.54718-1.7197z" fill-rule="evenodd"/>
<path d="m508.41 343.79h-4.2993v-1.3289c-0.31268 0.54718-0.78169 1.0162-1.3289 1.2507-0.62535 0.23451-1.7197 0.39085-3.2831 0.39085-1.9542 0-3.2049-0.31268-3.9084-0.93803-0.62535-0.62535-0.93803-1.7979-0.93803-3.7521 0-1.6416 0.31268-2.8922 1.0162-3.5176 0.62535-0.70352 1.7979-1.0162 3.5176-1.0162h4.8465v-0.93802c0-0.85986-0.23451-1.4852-0.62535-1.7979-0.39085-0.23451-1.2507-0.39084-2.5796-0.39084-1.1725 0-2.8922 0.15633-5.0028 0.39084v-2.8141c1.6416-0.15634 3.4394-0.23451 5.4718-0.23451 2.6578 0 4.5338 0.31268 5.55 0.93803s1.5634 1.9542 1.5634 3.8303v9.9274zm-4.3775-3.6739v-2.8141h-2.9704c-0.93803 0-1.5634 0.0782-1.7979 0.31268-0.2345 0.2345-0.31267 0.78169-0.31267 1.7197 0 0.93803 0.0782 1.5634 0.31267 1.7197 0.31268 0.23451 0.93803 0.31268 1.9542 0.31268h1.0944c0.23451 0 0.46901-0.0782 0.78169-0.0782 0.23451-0.0782 0.46901-0.0782 0.54718-0.23451l0.31268-0.31268c0.0782-0.2345 0.0782-0.39084 0.0782-0.62535z" fill-rule="evenodd"/>
<path d="m521.62 332.69h-1.4852c-1.1725 0-2.1106 0.15634-2.6577 0.54719-0.62536 0.39084-0.93803 1.0162-0.93803 1.876v8.6768h-4.3775v-14.461h4.143v2.5796c0.0782-0.70352 0.46902-1.407 1.2507-1.9542 0.78168-0.62535 1.6415-0.85986 2.5014-0.85986h1.5634v3.5958z" fill-rule="evenodd"/>
<path d="m524.2 340.58v3.2049h3.4394v-3.2049h-3.4394z" fill-rule="evenodd"/>
<path d="m534.68 326.98h-2.6577v-2.8141h2.6577v2.8141zm0 16.806h-2.6577v-14.461h2.6577v14.461z" fill-rule="evenodd"/>
<path d="m552.03 334.25v4.9246c0 0.93802-0.0782 1.7197-0.31268 2.2669-0.2345 0.62535-0.46901 1.0944-0.78169 1.4852-0.39084 0.31267-0.85985 0.54718-1.4852 0.78168-0.62535 0.15634-1.2507 0.23451-1.7979 0.31268-0.54718 0-1.3289 0.0782-2.1887 0.0782-1.2507 0-2.1887-0.0782-2.8141-0.15634-0.70352-0.0782-1.3289-0.31267-2.0324-0.54718-0.62535-0.31268-1.0944-0.85986-1.407-1.4852-0.2345-0.70352-0.39084-1.5634-0.39084-2.7359v-4.9246c0-1.0162 0.0782-1.7979 0.31267-2.4232 0.23451-0.70353 0.46902-1.1725 0.85986-1.5634 0.31268-0.31268 0.78169-0.62536 1.407-0.78169 0.62535-0.23451 1.2507-0.31268 1.7979-0.39085h2.2669 2.1887c0.54718 0.0782 1.1725 0.15634 1.7979 0.39085 0.62536 0.15633 1.0944 0.46901 1.407 0.78169 0.31267 0.39084 0.62535 0.85985 0.85985 1.5634 0.23451 0.62535 0.31268 1.407 0.31268 2.4232zm-2.7359 5.3155v-5.7845c0-1.3289-0.23451-2.1887-0.78169-2.5014-0.54719-0.31267-1.5634-0.46901-3.0486-0.46901-1.5634 0-2.5796 0.15634-3.1268 0.46901-0.54718 0.31268-0.78169 1.1725-0.78169 2.5014v5.7845c0 0.70352 0 1.1725 0.15634 1.5634 0.15634 0.39084 0.39084 0.62535 0.78169 0.78169 0.39084 0.15634 0.78169 0.31267 1.1725 0.31267 0.39085 0.0782 1.0162 0.0782 1.7979 0.0782 0.70352 0 1.3289 0 1.7197-0.0782 0.39085 0 0.78169-0.15633 1.1725-0.31267 0.39084-0.15634 0.62535-0.39085 0.78169-0.78169 0.0782-0.39085 0.15634-0.85986 0.15634-1.5634z" fill-rule="evenodd"/>
<path d="m439.86 241.78v64.88h64.802v-64.88h-64.802z" fill-rule="evenodd"/>
<path d="m439.86 255.53v6.488l15.243-0.0782 10.162 10.24 4.7683-4.6901-12.038-12.116-18.135 0.15634z" fill-rule="evenodd" fill="#ffe100"/>
<path d="m479.18 276.64-4.6901 4.6901 11.647 11.647h18.526v-6.488h-15.634l-9.8493-9.8493z" fill-rule="evenodd" fill="#ffe100"/>
<path d="m486.6 255.46-30.955 31.111h-15.79v6.488h18.526l31.033-31.033h15.243v-6.5662h-18.057z" fill-rule="evenodd" fill="#ffe100"/>
<path stroke-linejoin="round" d="m176.66 101.78 172.6 176.42" stroke="#ffc000" stroke-linecap="round" stroke-width="3.5958px" fill="none"/>
<path d="m172.52 108.65-10.79-22.195 21.89 11.256-11.1 10.939z" fill-rule="evenodd" fill="#ffc000"/>
<path d="m353.48 271.32 10.787 22.2-21.965-11.256 11.178-10.944z" fill-rule="evenodd" fill="#ffc000"/>
<path d="m220.36 170.02v40.022h85.282v-40.022h-85.282z" fill-rule="evenodd" fill="#fff"/>
<text xml:space="preserve" font-size="16.259px" y="185.10406" x="236.38289" font-family="Arial" fill="#000000">WAMP</text>
<text xml:space="preserve" font-size="16.259px" y="205.11531" x="220.12373" font-family="Arial" fill="#000000">WebSocket</text>
<path d="m367.71 506.53v-30.095h264.68v80.358h-264.68v-30.173l-144.07-86.377 144.07 66.287z" fill-rule="evenodd" fill="#fff"/>
<path stroke-linejoin="round" d="m367.71 506.53v-30.095h264.68v80.358h-264.68v-30.173l-144.07-86.377 144.07 66.287z" stroke="#000" stroke-linecap="round" stroke-width=".39084px" fill="none"/>
<text xml:space="preserve" font-size="16.259px" y="501.53195" x="373.96024" font-family="Arial" fill="#000000">Serve frontends of different </text>
<text xml:space="preserve" font-size="16.259px" y="521.54321" x="373.96024" font-family="Arial" fill="#000000">technologies with the </text>
<text font-weight="bold" xml:space="preserve" font-size="16.259px" y="521.54321" x="535.3009" font-family="Arial" fill="#000000">same </text>
<text xml:space="preserve" font-size="16.259px" y="541.55444" x="373.96024" font-family="Arial" fill="#000000">backend over the </text>
<text font-weight="bold" xml:space="preserve" font-size="16.259px" y="541.55444" x="506.53476" font-family="Arial" fill="#000000">same </text>
<text xml:space="preserve" font-size="16.259px" y="541.55444" x="554.06146" font-family="Arial" fill="#000000">protocol</text>
<path stroke-linejoin="round" d="m605.57 293.52h64.489" stroke="#ffc000" stroke-linecap="round" stroke-width="3.5958px" fill="none"/>
<path d="m607.53 301.34-23.451-7.8169 23.451-7.8169v15.634z" fill-rule="evenodd" fill="#ffc000"/>
<path d="m668.11 285.71 23.373 7.8169-23.373 7.8169v-15.634z" fill-rule="evenodd" fill="#ffc000"/>
<path d="m138.05 374.82c13.054 0 23.685-10.631 23.685-23.685v-118.19c0-13.054-10.631-23.607-23.685-23.607h-110.69c-13.054 0-23.607 10.553-23.607 23.607v118.19c0 13.054 10.553 23.685 23.607 23.685h110.69z" fill-rule="evenodd" fill="#f2f2f2"/>
<path stroke-linejoin="round" d="m138.05 374.82c13.054 0 23.685-10.631 23.685-23.685v0-118.19c0-13.054-10.631-23.607-23.685-23.607v0h-110.69c-13.054 0-23.607 10.553-23.607 23.607v0 118.19c0 13.054 10.553 23.685 23.607 23.685v0h110.69z" stroke="#000" stroke-linecap="round" stroke-width="3.5958px" fill="none"/>
<text xml:space="preserve" font-size="23.763px" y="285.16031" x="32.51828" font-family="Arial" fill="#000000">Frontend</text>
<text xml:space="preserve" font-size="23.763px" y="285.16031" x="126.32101" font-family="Arial" fill="#000000">: </text>
<text font-weight="bold" xml:space="preserve" font-size="23.763px" y="312.67578" x="46.276016" font-family="Arial" fill="#000000">Hybrid</text>
<path d="m138.05 587.52c13.054 0 23.685-10.631 23.685-23.685v-118.11c0-13.054-10.631-23.685-23.685-23.685h-110.69c-13.054 0-23.607 10.631-23.607 23.685v118.11c0 13.054 10.553 23.685 23.607 23.685h110.69z" fill-rule="evenodd" fill="#f2f2f2"/>
<path stroke-linejoin="round" d="m138.05 587.52c13.054 0 23.685-10.631 23.685-23.685v0-118.11c0-13.054-10.631-23.685-23.685-23.685v0h-110.69c-13.054 0-23.607 10.631-23.607 23.685v0 118.11c0 13.054 10.553 23.685 23.607 23.685v0h110.69z" stroke="#000" stroke-linecap="round" stroke-width="3.5958px" fill="none"/>
<text xml:space="preserve" font-size="23.763px" y="497.77982" x="32.51828" font-family="Arial" fill="#000000">Frontend</text>
<text xml:space="preserve" font-size="23.763px" y="497.77982" x="126.32101" font-family="Arial" fill="#000000">: </text>
<text font-weight="bold" xml:space="preserve" font-size="23.763px" y="525.29529" x="46.276016" font-family="Arial" fill="#000000">Mobile</text>
<path stroke-linejoin="round" d="m183.15 292.2 159.7 1.1725" stroke="#ffc000" stroke-linecap="round" stroke-width="3.5958px" fill="none"/>
<path d="m185.03 300.01-23.294-7.9732 23.451-7.5824-0.15634 15.556z" fill-rule="evenodd" fill="#ffc000"/>
<path d="m340.89 285.55 23.373 7.9732-23.451 7.6606 0.0782-15.634z" fill-rule="evenodd" fill="#ffc000"/>
<path d="m220.36 272.81v40.022h85.282v-40.022h-85.282z" fill-rule="evenodd" fill="#fff"/>
<text xml:space="preserve" font-size="16.259px" y="287.66171" x="236.38289" font-family="Arial" fill="#000000">WAMP</text>
<text xml:space="preserve" font-size="16.259px" y="307.67297" x="220.12373" font-family="Arial" fill="#000000">WebSocket</text>
<path stroke-linejoin="round" d="m176.58 489.26 172.84-180.26" stroke="#ffc000" stroke-linecap="round" stroke-width="3.5958px" fill="none"/>
<path d="m183.54 493.32-21.809 11.491 10.553-22.356 11.256 10.865z" fill-rule="evenodd" fill="#ffc000"/>
<path d="m342.46 305.02 21.809-11.491-10.553 22.356-11.256-10.865z" fill-rule="evenodd" fill="#ffc000"/>
<path d="m220.36 379.12v40.022h85.282v-40.022h-85.282z" fill-rule="evenodd" fill="#fff"/>
<text xml:space="preserve" font-size="16.259px" y="393.97147" x="236.38289" font-family="Arial" fill="#000000">WAMP</text>
<text xml:space="preserve" font-size="16.259px" y="413.98273" x="220.12373" font-family="Arial" fill="#000000">WebSocket</text>
</g>
</g>
</svg>
