<?xml version="1.0" encoding="UTF-8" standalone="no"?>
<svg xmlns:rdf="http://www.w3.org/1999/02/22-rdf-syntax-ns#" xmlns="http://www.w3.org/2000/svg" version="1.1" xmlns:cc="http://creativecommons.org/ns#" xmlns:dc="http://purl.org/dc/elements/1.1/" viewBox="0 0 1005.3 612.84">
<g transform="translate(348.07 -1.5506)">
<g transform="translate(-339.98 9.6756)">
<path d="m963.52 474.38c13.047 0 23.672-10.625 23.672-23.672v-283.44c0-13.047-10.625-23.594-23.672-23.594h-812.58c-13.047 0-23.594 10.547-23.594 23.594v283.44c0 13.047 10.547 23.672 23.594 23.672h812.58z" fill-rule="evenodd" fill="#d9d9d9"/>
<path d="m238.36 332.66-14.219 10.625h9.375v12.969h9.6094v-12.969h9.375l-14.141-10.625z" fill-rule="evenodd" fill="#737373"/>
<path d="m179.3 261.72v70.938h118.12v-70.938h-118.12z" fill-rule="evenodd" fill="#404040"/>
<text font-weight="bold" xml:space="preserve" font-size="16.25px" y="292.5" x="211.25" font-family="Arial" fill="#ffc000">Router</text>
<text xml:space="preserve" font-size="16.25px" y="312.5" x="211.25" font-family="Arial" fill="#ffc000">Worker</text>
<path d="m930.47 403.52c13.047 0 23.594-10.625 23.594-23.672s-10.547-23.594-23.594-23.594h-118.12c-13.047 0-23.594 10.547-23.594 23.594s10.547 23.672 23.594 23.672h118.12z" fill-rule="evenodd" fill="#8c8c8c"/>
<text xml:space="preserve" font-size="15px" y="383.75" x="805" font-family="Arial" fill="#ffffff">Key </text>
<text xml:space="preserve" font-size="15px" y="383.75" x="835" font-family="Arial" fill="#ffffff">&amp; </text>
<text xml:space="preserve" font-size="15px" y="383.75" x="848.75" font-family="Arial" fill="#ffffff">Configuration</text>
<path d="m321.02 261.72v70.938h118.12v-70.938h-118.12z" fill-rule="evenodd" fill="#404040"/>
<text font-weight="bold" xml:space="preserve" font-size="16.25px" y="292.5" x="353.75" font-family="Arial" fill="#ffc000">Router</text>
<text xml:space="preserve" font-size="16.25px" y="312.5" x="353.75" font-family="Arial" fill="#ffc000">Worker</text>
<path d="m462.73 261.72v70.938h118.12v-70.938h-118.12z" fill-rule="evenodd" fill="#404040"/>
<text font-weight="bold" xml:space="preserve" font-size="16.25px" y="292.5" x="495" font-family="Arial" fill="#ffc000">Router</text>
<text xml:space="preserve" font-size="16.25px" y="312.5" x="495" font-family="Arial" fill="#ffc000">Worker</text>
<path d="m604.45 261.72v70.938h118.12v-70.938h-118.12z" fill-rule="evenodd" fill="#404040"/>
<text font-weight="bold" xml:space="preserve" font-size="16.25px" y="292.5" x="636.25" font-family="Arial" fill="#ffc000">Router</text>
<text xml:space="preserve" font-size="16.25px" y="312.5" x="636.25" font-family="Arial" fill="#ffc000">Worker</text>
<path d="m722.58 403.52c13.047 0 23.594-10.625 23.594-23.672s-10.547-23.594-23.594-23.594h-543.28c-13.047 0-23.672 10.547-23.672 23.594s10.625 23.672 23.672 23.672h543.28z" fill-rule="evenodd" fill="#ffc000"/>
<text xml:space="preserve" font-size="15px" y="383.75" x="240" font-family="Arial" fill="#000000">All Workers listen on Shared TCP Socket </text>
<text xml:space="preserve" font-size="15px" y="383.75" x="517.5" font-family="Arial" fill="#000000">(</text>
<text xml:space="preserve" font-size="15px" y="383.75" x="522.5" font-family="Arial" fill="#000000">„SO</text>
<text xml:space="preserve" font-size="15px" y="383.75" x="550" font-family="Arial" fill="#000000">_</text>
<text xml:space="preserve" font-size="15px" y="383.75" x="557.5" font-family="Arial" fill="#000000">REUSEPORT“</text>
<text xml:space="preserve" font-size="15px" y="383.75" x="656.25" font-family="Arial" fill="#000000">)</text>
<path d="m786.33 190.86v141.8h167.73v-141.8h-167.73z" fill-rule="evenodd" fill="#404040"/>
<text xml:space="preserve" font-size="20px" y="256.25" x="846.25" font-family="Arial" fill="#ffc000">Node</text>
<text xml:space="preserve" font-size="20px" y="280" x="826.25" font-family="Arial" fill="#ffc000">Controller</text>
<path d="m238.36 403.52-14.219 14.141h9.375v127.58h9.6094v-127.58h9.375l-14.141-14.141z" fill-rule="evenodd" fill="#bfbfbf"/>
<path d="m309.22 403.52-14.22 14.14h9.375v127.58h9.6094v-127.58h9.375l-14.141-14.141z" fill-rule="evenodd" fill="#bfbfbf"/>
<path d="m663.52 403.52-14.141 14.141h9.2969v127.58h9.6875v-127.58h9.375l-14.219-14.141z" fill-rule="evenodd" fill="#bfbfbf"/>
<path d="m592.66 403.52-14.141 14.141h9.2969v127.58h9.6875v-127.58h9.375l-14.219-14.141z" fill-rule="evenodd" fill="#bfbfbf"/>
<path d="m380.08 403.52-14.219 14.141h9.375v127.58h9.6875v-127.58h9.2969l-14.141-14.141z" fill-rule="evenodd" fill="#bfbfbf"/>
<path d="m450.94 403.52-14.219 14.141h9.375v127.58h9.6875v-127.58h9.2969l-14.141-14.141z" fill-rule="evenodd" fill="#bfbfbf"/>
<path d="m521.8 403.52-14.141 14.141h9.2969v127.58h9.6875v-127.58h9.2969l-14.141-14.141z" fill-rule="evenodd" fill="#bfbfbf"/>
<path d="m939.92 96.406c13.047 0 23.594-10.547 23.594-23.594v-47.266c0.01-13.046-10.54-23.671-23.59-23.671h-139.38c-13.04 0-23.59 10.625-23.59 23.672v47.266c0 13.047 10.547 23.594 23.594 23.594h139.38z" fill-rule="evenodd" fill="#f60"/>
<text xml:space="preserve" font-size="20px" y="42.5" x="811.25" font-family="Arial" fill="#ffffff">Management</text>
<text xml:space="preserve" font-size="20px" y="67.5" x="836.25" font-family="Arial" fill="#ffffff">Service</text>
<text font-weight="bold" xml:space="preserve" font-size="23.75px" y="457.5" x="753.75" font-family="Arial" fill="#404040">Crossbar</text>
<text font-weight="bold" xml:space="preserve" font-size="23.75px" y="457.5" x="856.25" font-family="Arial" fill="#404040">.</text>
<text font-weight="bold" xml:space="preserve" font-size="23.75px" y="457.5" x="862.5" font-family="Arial" fill="#404040">io </text>
<text xml:space="preserve" font-size="23.75px" y="457.5" x="890" font-family="Arial" fill="#404040">Node</text>
<path d="m303.28 96.406c13.047 0 23.672-10.547 23.672-23.594v-47.266c0-13.046-10.62-23.671-23.67-23.671h-70.859c-13.047 0-23.594 10.625-23.594 23.672v47.266c0 13.047 10.547 23.594 23.594 23.594h70.859z" fill-rule="evenodd" fill="#d9d9d9"/>
<text font-weight="bold" xml:space="preserve" font-size="16.25px" y="43.75" x="221.25" font-family="Arial" fill="#595959">Crossbar</text>
<text font-weight="bold" xml:space="preserve" font-size="16.25px" y="43.75" x="295" font-family="Arial" fill="#595959">.</text>
<text font-weight="bold" xml:space="preserve" font-size="16.25px" y="43.75" x="298.75" font-family="Arial" fill="#595959">io</text>
<text xml:space="preserve" font-size="16.25px" y="63.75" x="247.5" font-family="Arial" fill="#595959">Node</text>
<path d="m870.23 96.406-12.969 12.969h8.5156v81.484h8.8281v-81.484h8.5937l-12.969-12.969z" fill-rule="evenodd" fill="#f60"/>
<path stroke-linejoin="round" d="m870.23 96.406-12.969 12.969h8.5156v81.484h8.8281v-81.484h8.5937l-12.969-12.969z" stroke="#f60" stroke-linecap="round" stroke-width=".39062px" fill="none"/>
<path d="m447.42 96.406c13.047 0 23.594-10.547 23.594-23.594v-47.266c0.01-13.046-10.54-23.671-23.59-23.671h-70.938c-13.047 0-23.594 10.625-23.594 23.672v47.266c0 13.047 10.547 23.594 23.594 23.594h70.938z" fill-rule="evenodd" fill="#d9d9d9"/>
<text font-weight="bold" xml:space="preserve" font-size="16.25px" y="43.75" x="365" font-family="Arial" fill="#595959">Crossbar</text>
<text font-weight="bold" xml:space="preserve" font-size="16.25px" y="43.75" x="438.75" font-family="Arial" fill="#595959">.</text>
<text font-weight="bold" xml:space="preserve" font-size="16.25px" y="43.75" x="443.75" font-family="Arial" fill="#595959">io</text>
<text xml:space="preserve" font-size="16.25px" y="63.75" x="392.5" font-family="Arial" fill="#595959">Node</text>
<path d="m589.14 96.406c13.047 0 23.594-10.547 23.594-23.594v-47.266c0-13.046-10.54-23.671-23.59-23.671h-70.859c-13.047 0-23.672 10.625-23.672 23.672v47.266c0 13.047 10.625 23.594 23.672 23.594h70.859z" fill-rule="evenodd" fill="#d9d9d9"/>
<text font-weight="bold" xml:space="preserve" font-size="16.25px" y="43.75" x="507.5" font-family="Arial" fill="#595959">Crossbar</text>
<text font-weight="bold" xml:space="preserve" font-size="16.25px" y="43.75" x="580" font-family="Arial" fill="#595959">.</text>
<text font-weight="bold" xml:space="preserve" font-size="16.25px" y="43.75" x="585" font-family="Arial" fill="#595959">io</text>
<text xml:space="preserve" font-size="16.25px" y="63.75" x="533.75" font-family="Arial" fill="#595959">Node</text>
<path d="m210 238.12-14.219 10.625h9.375v12.969h9.6094v-12.969h9.375l-14.14-10.62z" fill-rule="evenodd" fill="#737373"/>
<path d="m269.06 96.406-14.219 14.141h9.375v151.17h9.6094v-151.17h9.375l-14.141-14.141z" fill-rule="evenodd" fill="#737373"/>
<path d="m380.08 332.66-14.219 10.625h9.375v12.969h9.6875v-12.969h9.2969l-14.141-10.625z" fill-rule="evenodd" fill="#737373"/>
<path d="m351.72 238.12-14.141 10.625h9.2969v12.969h9.6875v-12.969h9.2969l-14.141-10.625z" fill-rule="evenodd" fill="#737373"/>
<path d="m410.78 96.406-14.219 14.141h9.375v151.17h9.6875v-151.17h9.2969l-14.141-14.141z" fill-rule="evenodd" fill="#737373"/>
<path d="m521.8 332.66-14.141 10.625h9.2969v12.969h9.6875v-12.969h9.2969l-14.141-10.625z" fill-rule="evenodd" fill="#737373"/>
<path d="m493.44 238.12-14.141 10.625h9.2969v12.969h9.6875v-12.969h9.375l-14.219-10.625z" fill-rule="evenodd" fill="#737373"/>
<path d="m552.5 96.406-14.141 14.141h9.2969v151.17h9.6875v-151.17h9.2969l-14.15-14.144z" fill-rule="evenodd" fill="#737373"/>
<path d="m663.52 332.66-14.141 10.625h9.2969v12.969h9.6875v-12.969h9.375l-14.219-10.625z" fill-rule="evenodd" fill="#737373"/>
<path d="m635.16 238.12-14.141 10.625h9.375v12.969h9.6094v-12.969h9.375l-14.219-10.625z" fill-rule="evenodd" fill="#737373"/>
<path d="m694.22 96.406-14.141 14.141h9.375v151.17h9.6094v-151.17h9.375l-14.219-14.141z" fill-rule="evenodd" fill="#737373"/>
<path d="m722.58 238.12c13.047 0 23.594-10.547 23.594-23.594s-10.547-23.672-23.594-23.672h-543.28c-13.047 0-23.672 10.625-23.672 23.672s10.625 23.594 23.672 23.594h543.28z" fill-rule="evenodd" fill="#ffc000"/>
<text xml:space="preserve" font-size="15px" y="218.75" x="170" font-family="Arial" fill="#000000">Connects to </text>
<text font-weight="bold" xml:space="preserve" font-size="15px" y="218.75" x="253.75" font-family="Arial" fill="#000000">local routers</text>
<text xml:space="preserve" font-size="15px" y="218.75" x="348.75" font-family="Arial" fill="#000000">over Unix Domain Sockets and </text>
<text font-weight="bold" xml:space="preserve" font-size="15px" y="218.75" x="558.75" font-family="Arial" fill="#000000">remote routers</text>
<text xml:space="preserve" font-size="15px" y="218.75" x="668.75" font-family="Arial" fill="#000000">over TCP</text>
<path d="m729.69 96.406c13.047 0 23.594-10.547 23.594-23.594v-47.266c0-13.046-10.55-23.671-23.59-23.671h-70.859c-13.047 0-23.672 10.625-23.672 23.672v47.266c0 13.047 10.625 23.594 23.672 23.594h70.859z" fill-rule="evenodd" fill="#d9d9d9"/>
<text font-weight="bold" xml:space="preserve" font-size="16.25px" y="43.75" x="647.5" font-family="Arial" fill="#595959">Crossbar</text>
<text font-weight="bold" xml:space="preserve" font-size="16.25px" y="43.75" x="721.25" font-family="Arial" fill="#595959">.</text>
<text font-weight="bold" xml:space="preserve" font-size="16.25px" y="43.75" x="726.25" font-family="Arial" fill="#595959">io</text>
<text xml:space="preserve" font-size="16.25px" y="63.75" x="673.75" font-family="Arial" fill="#595959">Node</text>
<text xml:space="preserve" font-size="23.75px" y="590" x="362.5" font-family="Arial" fill="#000000">Application Clients</text>
<path d="m2.1094 74.219v-27.422h172.42v73.203h-64.609l154.3 47.266-197.42-47.27h-64.688v-45.781z" fill-rule="evenodd" fill="#fff"/>
<path stroke-linejoin="round" d="m2.1094 74.219v-27.422h172.42v73.203h-64.609l154.3 47.266-197.42-47.27h-64.688v-45.781z" stroke="#000" stroke-linecap="round" stroke-width=".39062px" fill="none"/>
<text xml:space="preserve" font-size="16.25px" y="78.75" x="13.75" font-family="Arial" fill="#000000">Scale</text>
<text xml:space="preserve" font-size="16.25px" y="78.75" x="55" font-family="Arial" fill="#000000">-</text>
<text xml:space="preserve" font-size="16.25px" y="78.75" x="60" font-family="Arial" fill="#000000">out routers on </text>
<text xml:space="preserve" font-size="16.25px" y="98.75" x="35" font-family="Arial" fill="#000000">multiple nodes</text>
</g>
</g>
</svg>
