<?xml version="1.0" encoding="UTF-8" standalone="no"?>
<svg xmlns:rdf="http://www.w3.org/1999/02/22-rdf-syntax-ns#" xmlns="http://www.w3.org/2000/svg" version="1.1" xmlns:cc="http://creativecommons.org/ns#" xmlns:dc="http://purl.org/dc/elements/1.1/" viewBox="0 0 930.72 593.28">
<g transform="translate(554.39 -429.55)">
<g transform="translate(-546.36 437.58)">
<path d="m887.3 171.66c13.054 0 23.607-10.553 23.607-23.607v-120.69c0-13.054-10.553-23.607-23.607-23.607h-108.73c-13.054 0-23.607 10.553-23.607 23.607v120.69c0 13.054 10.553 23.607 23.607 23.607h108.73z" fill-rule="evenodd" fill="#f2f2f2"/>
<path stroke-linejoin="round" d="m887.3 171.66c13.054 0 23.607-10.553 23.607-23.607v0-120.69c0-13.054-10.553-23.607-23.607-23.607v0h-108.73c-13.054 0-23.607 10.553-23.607 23.607v0 120.69c0 13.054 10.553 23.607 23.607 23.607v0h108.73z" stroke="#000" stroke-linecap="round" stroke-width="3.5958px" fill="none"/>
<text xml:space="preserve" font-size="21.262px" y="67.537964" x="790.44434" font-family="Arial" fill="#000000">Backend </text>
<text xml:space="preserve" font-size="21.262px" y="93.802734" x="765.4303" font-family="Arial" fill="#000000">Component </text>
<text xml:space="preserve" font-size="21.262px" y="93.802734" x="882.9964" font-family="Arial" fill="#000000">1</text>
<text xml:space="preserve" font-size="21.262px" y="93.802734" x="895.50342" font-family="Arial" fill="#000000">: </text>
<text font-weight="bold" xml:space="preserve" font-size="21.262px" y="120.0675" x="796.69788" font-family="Arial" fill="#000000">Python</text>
<path d="m138.05 371.3c13.054 0 23.685-10.553 23.685-23.607v-118.19c0-13.054-10.631-23.607-23.685-23.607h-110.69c-13.054 0-23.607 10.553-23.607 23.607v118.19c0 13.054 10.553 23.607 23.607 23.607h110.69z" fill-rule="evenodd" fill="#f2f2f2"/>
<path stroke-linejoin="round" d="m138.05 371.3c13.054 0 23.685-10.553 23.685-23.607v0-118.19c0-13.054-10.631-23.607-23.685-23.607v0h-110.69c-13.054 0-23.607 10.553-23.607 23.607v0 118.19c0 13.054 10.553 23.607 23.607 23.607v0h110.69z" stroke="#000" stroke-linecap="round" stroke-width="3.5958px" fill="none"/>
<text xml:space="preserve" font-size="23.763px" y="295.16592" x="36.27039" font-family="Arial" fill="#000000">Frontend</text>
<path d="m560.47 374.27c13.054 0 23.607-10.553 23.607-23.607v-121.16c0-13.054-10.553-23.607-23.607-23.607h-172.6c-13.054 0-23.607 10.553-23.607 23.607v121.16c0 13.054 10.553 23.607 23.607 23.607h172.6z" fill-rule="evenodd" fill="#ffe100"/>
<path stroke-linejoin="round" d="m560.47 374.27c13.054 0 23.607-10.553 23.607-23.607v0-121.16c0-13.054-10.553-23.607-23.607-23.607v0h-172.6c-13.054 0-23.607 10.553-23.607 23.607v0 121.16c0 13.054 10.553 23.607 23.607 23.607v0h172.6z" stroke="#ffc000" stroke-linecap="round" stroke-width="5.2373px" fill="none"/>
<path d="m413.83 339.96c-2.1106 0.39084-4.2211 0.62535-6.1754 0.62535-0.78169 0-1.5634 0-2.2669-0.0782-0.70352-0.0782-1.4852-0.23451-2.3451-0.46902-0.85986-0.2345-1.6416-0.54718-2.1887-0.93802-0.62535-0.39085-1.1725-0.93803-1.5634-1.6416-0.39084-0.70352-0.62535-1.4852-0.62535-2.5014v-8.4422c0-3.9084 2.9704-5.8627 8.9894-5.8627 1.407 0 3.4394 0.2345 6.0972 0.70352v3.4394c-2.3451-0.54718-4.3775-0.78169-6.0972-0.78169h-1.6416c-0.39084 0.0782-0.85986 0.15634-1.3289 0.31268-0.46901 0.15633-0.78169 0.39084-1.0162 0.78169-0.2345 0.31267-0.39084 0.78169-0.39084 1.3289v8.2077c0 1.7979 1.6416 2.6577 4.8465 2.6577 1.407 0 3.2831-0.31267 5.7063-0.85986v3.5176z" fill-rule="evenodd"/>
<path d="m426.1 329.17h-1.4852c-1.1725 0-2.1106 0.23451-2.6577 0.54718-0.62535 0.39085-0.93803 1.0162-0.93803 1.8761v8.6768h-4.2993v-14.383h4.0648v2.5014c0.0782-0.70352 0.46902-1.3289 1.2507-1.9542 0.78169-0.54718 1.6415-0.85986 2.5014-0.85986h1.5634v3.5958z" fill-rule="evenodd"/>
<path d="m442.67 331.12v4.2211c0 0.93803-0.15634 1.7197-0.46902 2.4232-0.2345 0.62536-0.62535 1.1725-1.0944 1.5634-0.39085 0.31268-1.0162 0.62536-1.7197 0.78169-0.70352 0.23451-1.3289 0.39085-1.876 0.39085-0.62535 0.0782-1.3289 0.0782-2.1106 0.0782-0.85986 0-1.5634 0-2.1887-0.0782-0.54719 0-1.1725-0.15634-1.8761-0.39085-0.70352-0.15633-1.3289-0.46901-1.7197-0.78169-0.46901-0.39084-0.85985-0.93802-1.0944-1.5634-0.31268-0.70352-0.46902-1.4852-0.46902-2.4232v-4.2211c0-1.0162 0.15634-1.876 0.46902-2.5796 0.31267-0.70352 0.70352-1.2507 1.0944-1.6416 0.46902-0.39084 1.0944-0.62535 1.7197-0.85986 0.78169-0.2345 1.407-0.31267 1.9542-0.39084 0.54719 0 1.2507-0.0782 2.1106-0.0782 0.78168 0 1.4852 0.0782 2.0324 0.0782 0.54718 0.0782 1.1725 0.15634 1.9542 0.39084 0.70352 0.23451 1.2507 0.46902 1.7197 0.85986 0.39084 0.39085 0.78169 0.93803 1.0944 1.6416 0.31268 0.70352 0.46902 1.5634 0.46902 2.5796zm-4.3775 4.6901v-5.3937c0-0.78169-0.15634-1.3289-0.54719-1.6415-0.39084-0.31268-1.1725-0.46902-2.3451-0.46902-1.2507 0-2.0324 0.15634-2.4232 0.46902-0.39085 0.31267-0.54718 0.85985-0.54718 1.6415v5.3937c0 0.78169 0.15633 1.3289 0.54718 1.6416 0.39084 0.31267 1.1725 0.39084 2.4232 0.39084 1.1725 0 1.9542-0.0782 2.3451-0.39084 0.39085-0.31268 0.54719-0.85986 0.54719-1.6416z" fill-rule="evenodd"/>
<path d="m458.46 334.64v1.876c0 0.70352-0.15633 1.3289-0.39084 1.7979-0.31268 0.54718-0.62535 0.93802-1.0162 1.2507-0.39084 0.23451-0.93802 0.46901-1.5634 0.62535-0.70352 0.15634-1.3289 0.31268-1.9542 0.31268-0.54718 0.0782-1.2507 0.0782-2.1106 0.0782-1.5634 0-3.4394-0.15634-5.7063-0.46902v-2.8922c2.8141 0.46902 4.6901 0.62535 5.7845 0.62535 0.85986 0 1.4852-0.0782 1.9542-0.2345 0.46902-0.15634 0.70352-0.46902 0.70352-1.0162v-0.85986c0-0.46901-0.15634-0.78169-0.39084-1.0162-0.23451-0.23451-0.78169-0.39085-1.6416-0.39085h-1.8761c-1.4852 0-2.6577-0.23451-3.5176-0.85986-0.85986-0.62535-1.2507-1.4852-1.2507-2.6577v-1.7979c0-1.2507 0.62535-2.1887 1.876-2.6577 1.2507-0.54718 2.9704-0.78169 5.2373-0.78169 1.0162 0 2.6578 0.0782 5.1592 0.23451v2.8141c-3.1268-0.23451-4.8465-0.31268-5.2373-0.31268-1.2507 0-1.9542 0-2.2669 0.23451-0.39084 0.15634-0.54718 0.46901-0.54718 0.93803v0.78169c0 0.2345 0.15634 0.46901 0.39085 0.62535 0.2345 0.2345 0.62535 0.31267 1.1725 0.31267h1.8761c3.5176 0 5.3155 1.1725 5.3155 3.4394z" fill-rule="evenodd"/>
<path d="m474.09 334.64v1.876c0 0.70352-0.15634 1.3289-0.39084 1.7979-0.31268 0.54718-0.62535 0.93802-1.0162 1.2507-0.39084 0.23451-0.93803 0.46901-1.6416 0.62535-0.62535 0.15634-1.2507 0.31268-1.876 0.31268-0.54718 0.0782-1.3289 0.0782-2.1106 0.0782-1.5634 0-3.4394-0.15634-5.7063-0.46902v-2.8922c2.8141 0.46902 4.6901 0.62535 5.7845 0.62535 0.85985 0 1.4852-0.0782 1.9542-0.2345 0.46901-0.15634 0.70352-0.46902 0.70352-1.0162v-0.85986c0-0.46901-0.15634-0.78169-0.39084-1.0162-0.23451-0.23451-0.78169-0.39085-1.6416-0.39085h-1.8761c-1.4852 0-2.6577-0.23451-3.5176-0.85986-0.85986-0.62535-1.2507-1.4852-1.2507-2.6577v-1.7979c0-1.2507 0.62535-2.1887 1.876-2.6577 1.2507-0.54718 2.9704-0.78169 5.2373-0.78169 0.93803 0 2.6578 0.0782 5.1592 0.23451v2.8141c-3.1268-0.23451-4.8465-0.31268-5.2373-0.31268-1.2507 0-1.9542 0-2.3451 0.23451-0.31267 0.15634-0.46901 0.46901-0.46901 0.93803v0.78169c0 0.2345 0.15634 0.46901 0.39085 0.62535 0.2345 0.2345 0.62535 0.31267 1.1725 0.31267h1.876c3.5176 0 5.3155 1.1725 5.3155 3.4394z" fill-rule="evenodd"/>
<path d="m492.07 330.42v4.7683c0 1.9542-0.62535 3.3613-1.7979 4.143-1.1725 0.85986-3.0486 1.2507-5.7063 1.2507-2.7359 0-4.612-0.39085-5.7063-1.2507-1.0162-0.93802-1.5634-2.2669-1.5634-4.143v-15.712h4.3775v7.8169c0.23451-0.62536 0.70352-1.0944 1.407-1.3289 0.70352-0.2345 1.7979-0.39084 3.2049-0.39084 1.2507 0 2.2669 0.0782 3.0486 0.31268 0.70352 0.15633 1.3289 0.54718 1.7197 0.93802 0.39085 0.46902 0.70352 0.93803 0.78169 1.4852 0.15634 0.54719 0.23451 1.2507 0.23451 2.1106zm-4.3775 5.3155v-5.3155c0-0.93802-0.15634-1.5634-0.46902-1.7979-0.39084-0.23451-1.2507-0.31268-2.6577-0.31268-1.1725 0-1.9542 0.0782-2.3451 0.39085-0.39084 0.39084-0.54718 0.93802-0.54718 1.7197v5.3155c0 0.85986 0.15634 1.407 0.54718 1.7197 0.31268 0.31267 1.1725 0.39084 2.4232 0.39084s2.1106-0.0782 2.5014-0.39084c0.39084-0.31268 0.54718-0.85986 0.54718-1.7197z" fill-rule="evenodd"/>
<path d="m508.41 340.27h-4.2993v-1.3289c-0.31268 0.62535-0.78169 1.0162-1.3289 1.2507-0.62535 0.31268-1.7197 0.39085-3.2831 0.39085-1.9542 0-3.2049-0.31268-3.9084-0.85986-0.62535-0.62535-0.93803-1.8761-0.93803-3.7521 0-1.7197 0.31268-2.8922 1.0162-3.5176 0.62535-0.70352 1.7979-1.0162 3.5176-1.0162h4.8465v-1.0162c0-0.85985-0.23451-1.407-0.62535-1.7197-0.39085-0.31268-1.2507-0.39085-2.5796-0.39085-1.1725 0-2.8922 0.0782-5.0028 0.31268v-2.7359c1.6416-0.23451 3.4394-0.31268 5.4718-0.31268 2.6578 0 4.5338 0.31268 5.55 0.93803 1.0162 0.70352 1.5634 1.9542 1.5634 3.8303v9.9274zm-4.3775-3.6739v-2.8141h-2.9704c-0.93803 0-1.5634 0.15634-1.7979 0.31267-0.2345 0.23451-0.31267 0.85986-0.31267 1.7979 0 0.93803 0.0782 1.4852 0.31267 1.7197 0.31268 0.15633 0.93803 0.2345 1.9542 0.2345h1.0944c0.23451 0 0.46901 0 0.78169-0.0782 0.23451 0 0.46901-0.0782 0.54718-0.15633 0.0782-0.0782 0.15634-0.23451 0.31268-0.39085 0.0782-0.15634 0.0782-0.39084 0.0782-0.62535z" fill-rule="evenodd"/>
<path d="m521.62 329.17h-1.4852c-1.1725 0-2.1106 0.23451-2.6577 0.54718-0.62536 0.39085-0.93803 1.0162-0.93803 1.8761v8.6768h-4.3775v-14.383h4.143v2.5014c0.0782-0.70352 0.46902-1.3289 1.2507-1.9542 0.78168-0.54718 1.6415-0.85986 2.5014-0.85986h1.5634v3.5958z" fill-rule="evenodd"/>
<path d="m524.2 337.06v3.2049h3.4394v-3.2049h-3.4394z" fill-rule="evenodd"/>
<path d="m534.68 323.46h-2.6577v-2.8141h2.6577v2.8141zm0 16.806h-2.6577v-14.383h2.6577v14.383z" fill-rule="evenodd"/>
<path d="m552.03 330.73v5.0028c0 0.85986-0.0782 1.6416-0.31268 2.2669-0.2345 0.62535-0.46901 1.0944-0.78169 1.407-0.39084 0.39085-0.85985 0.62535-1.4852 0.78169s-1.2507 0.31268-1.7979 0.31268c-0.54718 0.0782-1.3289 0.0782-2.1887 0.0782-1.2507 0-2.1887 0-2.8141-0.0782-0.70352-0.0782-1.3289-0.31268-2.0324-0.62535-0.62535-0.31268-1.0944-0.78169-1.407-1.4852-0.2345-0.62536-0.39084-1.5634-0.39084-2.6578v-5.0028c0-0.93803 0.0782-1.7979 0.31267-2.4232 0.23451-0.62535 0.46902-1.1725 0.85986-1.4852 0.31268-0.39084 0.78169-0.62535 1.407-0.85986 0.62535-0.15633 1.2507-0.31267 1.7979-0.31267 0.54718-0.0782 1.2507-0.0782 2.2669-0.0782 0.93803 0 1.6416 0 2.1887 0.0782 0.54718 0 1.1725 0.15634 1.7979 0.31267 0.62536 0.23451 1.0944 0.46902 1.407 0.85986 0.31267 0.31268 0.62535 0.85986 0.85985 1.4852 0.23451 0.62535 0.31268 1.4852 0.31268 2.4232zm-2.7359 5.3937v-5.8627c0-1.3289-0.23451-2.1106-0.78169-2.4232-0.54719-0.31268-1.5634-0.46901-3.0486-0.46901-1.5634 0-2.5796 0.15633-3.1268 0.46901-0.54718 0.31267-0.78169 1.0944-0.78169 2.4232v5.8627c0 0.62535 0 1.1725 0.15634 1.4852 0.15634 0.39084 0.39084 0.70352 0.78169 0.85986 0.39084 0.15633 0.78169 0.2345 1.1725 0.31267 0.39085 0 1.0162 0.0782 1.7979 0.0782 0.70352 0 1.3289-0.0782 1.7197-0.0782 0.39085-0.0782 0.78169-0.15634 1.1725-0.31267 0.39084-0.15634 0.62535-0.46902 0.78169-0.85986 0.0782-0.31268 0.15634-0.85986 0.15634-1.4852z" fill-rule="evenodd"/>
<path d="m439.86 238.26v64.958h64.802v-64.958h-64.802z" fill-rule="evenodd"/>
<path d="m439.86 252.02v6.488h15.243l10.162 10.162 4.7683-4.6901-12.038-12.038-18.135 0.0782z" fill-rule="evenodd" fill="#ffe100"/>
<path d="m479.18 273.2-4.6901 4.6901 11.647 11.647h18.526v-6.488h-15.634l-9.8493-9.8493z" fill-rule="evenodd" fill="#ffe100"/>
<path d="m486.6 251.94-30.955 31.111h-15.79v6.488h18.526l31.033-31.033h15.243v-6.5662h-18.057z" fill-rule="evenodd" fill="#ffe100"/>
<path stroke-linejoin="round" d="m183.15 288.76 159.7 1.1725" stroke="#ffc000" stroke-linecap="round" stroke-width="3.5958px" fill="none"/>
<path d="m185.03 296.57-23.294-7.9732 23.451-7.6606-0.15634 15.634z" fill-rule="evenodd" fill="#ffc000"/>
<path d="m340.89 282.11 23.373 7.9732-23.451 7.5824 0.0782-15.556z" fill-rule="evenodd" fill="#ffc000"/>
<path d="m220.36 269.29v40.022h85.282v-40.022h-85.282z" fill-rule="evenodd" fill="#fff"/>
<text xml:space="preserve" font-size="16.259px" y="283.90961" x="236.38289" font-family="Arial" fill="#000000">WAMP</text>
<text xml:space="preserve" font-size="16.259px" y="303.92084" x="220.12373" font-family="Arial" fill="#000000">WebSocket</text>
<path d="m159.31 88.018v-38.146h264.76v101.62h-104.04l10.709 138.36-67.382-138.36h-104.04v-63.473z" fill-rule="evenodd" fill="#fff"/>
<path stroke-linejoin="round" d="m159.31 88.018v-38.146h264.76v101.62h-104.04l10.709 138.36-67.382-138.36h-104.04v-63.473z" stroke="#000" stroke-linecap="round" stroke-width=".39084px" fill="none"/>
<text xml:space="preserve" font-size="16.259px" y="75.042183" x="166.34351" font-family="Arial" fill="#000000">Language</text>
<text xml:space="preserve" font-size="16.259px" y="75.042183" x="240.13499" font-family="Arial" fill="#000000">/</text>
<text xml:space="preserve" font-size="16.259px" y="75.042183" x="245.13782" font-family="Arial" fill="#000000">run</text>
<text xml:space="preserve" font-size="16.259px" y="75.042183" x="268.90118" font-family="Arial" fill="#000000">-</text>
<text xml:space="preserve" font-size="16.259px" y="75.042183" x="273.90399" font-family="Arial" fill="#000000">time of backend </text>
<text xml:space="preserve" font-size="16.259px" y="95.053436" x="166.34351" font-family="Arial" fill="#000000">components is completely </text>
<text font-weight="bold" xml:space="preserve" font-size="16.259px" y="115.06468" x="166.34351" font-family="Arial" fill="#000000">transparent </text>
<text xml:space="preserve" font-size="16.259px" y="115.06468" x="262.64764" font-family="Arial" fill="#000000">to other components </text>
<text xml:space="preserve" font-size="16.259px" y="135.07593" x="166.34351" font-family="Arial" fill="#000000">(</text>
<text xml:space="preserve" font-size="16.259px" y="135.07593" x="171.34631" font-family="Arial" fill="#000000">e</text>
<text xml:space="preserve" font-size="16.259px" y="135.07593" x="181.35194" font-family="Arial" fill="#000000">.</text>
<text xml:space="preserve" font-size="16.259px" y="135.07593" x="185.10406" font-family="Arial" fill="#000000">g</text>
<text xml:space="preserve" font-size="16.259px" y="135.07593" x="195.10968" font-family="Arial" fill="#000000">. </text>
<text xml:space="preserve" font-size="16.259px" y="135.07593" x="203.86459" font-family="Arial" fill="#000000">frontends</text>
<text xml:space="preserve" font-size="16.259px" y="135.07593" x="273.90399" font-family="Arial" fill="#000000">).</text>
<path d="m887.3 371.3c13.054 0 23.607-10.553 23.607-23.607v-120.69c0-13.054-10.553-23.607-23.607-23.607h-108.73c-13.054 0-23.607 10.553-23.607 23.607v120.69c0 13.054 10.553 23.607 23.607 23.607h108.73z" fill-rule="evenodd" fill="#f2f2f2"/>
<path stroke-linejoin="round" d="m887.3 371.3c13.054 0 23.607-10.553 23.607-23.607v0-120.69c0-13.054-10.553-23.607-23.607-23.607v0h-108.73c-13.054 0-23.607 10.553-23.607 23.607v120.69c0 13.054 10.553 23.607 23.607 23.607v0h108.73z" stroke="#000" stroke-linecap="round" stroke-width="3.5958px" fill="none"/>
<text xml:space="preserve" font-size="21.262px" y="267.65045" x="790.44434" font-family="Arial" fill="#000000">Backend </text>
<text xml:space="preserve" font-size="21.262px" y="293.91522" x="765.4303" font-family="Arial" fill="#000000">Component </text>
<text xml:space="preserve" font-size="21.262px" y="293.91522" x="882.9964" font-family="Arial" fill="#000000">2</text>
<text xml:space="preserve" font-size="21.262px" y="293.91522" x="895.50342" font-family="Arial" fill="#000000">: </text>
<text font-weight="bold" xml:space="preserve" font-size="21.262px" y="320.17999" x="792.94574" font-family="Arial" fill="#000000">NodeJS</text>
<path d="m887.3 573.45c13.054 0 23.607-10.553 23.607-23.607v-120.69c0-13.054-10.553-23.607-23.607-23.607h-108.73c-13.054 0-23.607 10.553-23.607 23.607v120.69c0 13.054 10.553 23.607 23.607 23.607h108.73z" fill-rule="evenodd" fill="#f2f2f2"/>
<path stroke-linejoin="round" d="m887.3 573.45c13.054 0 23.607-10.553 23.607-23.607v0-120.69c0-13.054-10.553-23.607-23.607-23.607v0h-108.73c-13.054 0-23.607 10.553-23.607 23.607v120.69c0 13.054 10.553 23.607 23.607 23.607v0h108.73z" stroke="#000" stroke-linecap="round" stroke-width="3.5958px" fill="none"/>
<text xml:space="preserve" font-size="21.262px" y="470.26437" x="790.44434" font-family="Arial" fill="#000000">Backend </text>
<text xml:space="preserve" font-size="21.262px" y="496.52914" x="765.4303" font-family="Arial" fill="#000000">Component </text>
<text xml:space="preserve" font-size="21.262px" y="496.52914" x="882.9964" font-family="Arial" fill="#000000">3</text>
<text xml:space="preserve" font-size="21.262px" y="496.52914" x="895.50342" font-family="Arial" fill="#000000">: </text>
<text font-weight="bold" xml:space="preserve" font-size="21.262px" y="521.54321" x="812.95703" font-family="Arial" fill="#000000">C</text>
<text font-weight="bold" xml:space="preserve" font-size="21.262px" y="521.54321" x="827.96545" font-family="Arial" fill="#000000">++</text>
<path stroke-linejoin="round" d="m597.91 273.67 143.21-169.55" stroke="#ffc000" stroke-linecap="round" stroke-width="3.5958px" fill="none"/>
<path d="m605.18 277.19-21.106 12.898 9.1458-22.982 11.96 10.084z" fill-rule="evenodd" fill="#ffc000"/>
<path d="m733.85 100.53 21.106-12.82-9.1458 22.904-11.96-10.084z" fill-rule="evenodd" fill="#ffc000"/>
<path d="m626.84 168.84v40.022h85.282v-40.022h-85.282z" fill-rule="evenodd" fill="#fff"/>
<text xml:space="preserve" font-size="16.259px" y="183.85336" x="644.11206" font-family="Arial" fill="#000000">WAMP</text>
<text xml:space="preserve" font-size="16.259px" y="203.86459" x="626.60223" font-family="Arial" fill="#000000">WebSocket</text>
<path stroke-linejoin="round" d="m605.57 289.69 127.89-2.03" stroke="#ffc000" stroke-linecap="round" stroke-width="3.5958px" fill="none"/>
<path d="m607.61 297.51-23.529-7.426 23.294-8.2077 0.23451 15.634z" fill-rule="evenodd" fill="#ffc000"/>
<path d="m731.43 279.92 23.529 7.426-23.294 8.1296-0.23451-15.556z" fill-rule="evenodd" fill="#ffc000"/>
<path d="m626.84 268.67v40.022h85.282v-40.022h-85.282z" fill-rule="evenodd" fill="#fff"/>
<text xml:space="preserve" font-size="16.259px" y="283.90961" x="644.11206" font-family="Arial" fill="#000000">WAMP</text>
<text xml:space="preserve" font-size="16.259px" y="303.92084" x="626.60223" font-family="Arial" fill="#000000">WebSocket</text>
<path stroke-linejoin="round" d="m598.07 306.34 142.89 166.82" stroke="#ffc000" stroke-linecap="round" stroke-width="3.5958px" fill="none"/>
<path d="m593.38 312.91-9.3021-22.825 21.184 12.663-11.882 10.162z" fill-rule="evenodd" fill="#ffc000"/>
<path d="m745.65 466.59 9.3021 22.904-21.184-12.742 11.882-10.162z" fill-rule="evenodd" fill="#ffc000"/>
<path d="m626.84 369.74v40.022h85.282v-40.022h-85.282z" fill-rule="evenodd" fill="#fff"/>
<text xml:space="preserve" font-size="16.259px" y="385.21655" x="644.11206" font-family="Arial" fill="#000000">WAMP</text>
<text xml:space="preserve" font-size="16.259px" y="405.22781" x="626.60223" font-family="Arial" fill="#000000">WebSocket</text>
<path d="m353.17 462.92v-30.173h203.24v30.173l156.18-22.904-156.18 42.993v30.095h-203.24v-50.184z" fill-rule="evenodd" fill="#fff"/>
<path stroke-linejoin="round" d="m353.17 462.92v-30.173h203.24v30.173l156.18-22.904-156.18 42.993v30.095h-203.24v-50.184z" stroke="#000" stroke-linecap="round" stroke-width=".39084px" fill="none"/>
<text xml:space="preserve" font-size="16.259px" y="457.75732" x="360.20248" font-family="Arial" fill="#000000">Implement application </text>
<text xml:space="preserve" font-size="16.259px" y="477.76859" x="360.20248" font-family="Arial" fill="#000000">components in </text>
<text font-weight="bold" xml:space="preserve" font-size="16.259px" y="477.76859" x="472.76578" font-family="Arial" fill="#000000">different </text>
<text xml:space="preserve" font-size="16.259px" y="497.77982" x="360.20248" font-family="Arial" fill="#000000">languages</text>
<text xml:space="preserve" font-size="16.259px" y="497.77982" x="436.49539" font-family="Arial" fill="#000000">/</text>
<text xml:space="preserve" font-size="16.259px" y="497.77982" x="441.4982" font-family="Arial" fill="#000000">run</text>
<text xml:space="preserve" font-size="16.259px" y="497.77982" x="465.26154" font-family="Arial" fill="#000000">-</text>
<text xml:space="preserve" font-size="16.259px" y="497.77982" x="471.51508" font-family="Arial" fill="#000000">times</text>
<text xml:space="preserve" font-size="16.259px" y="497.77982" x="510.28687" font-family="Arial" fill="#000000">.</text>
</g>
</g>
</svg>
