<?xml version="1.0" encoding="UTF-8" standalone="no"?>
<svg xmlns:rdf="http://www.w3.org/1999/02/22-rdf-syntax-ns#" xmlns="http://www.w3.org/2000/svg" version="1.1" xmlns:cc="http://creativecommons.org/ns#" xmlns:dc="http://purl.org/dc/elements/1.1/" viewBox="0 0 865.56 546.72">
<g transform="translate(525.61 -102.59)">
<g transform="translate(-517.57 110.69)">
<path d="m822.1 192.45c13.054 0 23.607-10.553 23.607-23.607v-104.59c0-13.054-10.553-23.685-23.607-23.685h-173.54c-13.054 0-23.607 10.631-23.607 23.685v104.59c0 13.054 10.553 23.607 23.607 23.607h173.54z" fill-rule="evenodd" fill="#f2f2f2"/>
<path stroke-linejoin="round" d="m822.1 192.45c13.054 0 23.607-10.553 23.607-23.607v0-104.59c0-13.054-10.553-23.685-23.607-23.685v0h-173.54c-13.054 0-23.607 10.631-23.607 23.685v0 104.59c0 13.054 10.553 23.607 23.607 23.607v0h173.54z" stroke="#000" stroke-linecap="round" stroke-width="3.5958px" fill="none"/>
<text xml:space="preserve" font-size="23.763px" y="110.06187" x="667.87543" font-family="Arial" fill="#000000">Your existing</text>
<text xml:space="preserve" font-size="23.763px" y="137.57735" x="650.3656" font-family="Arial" fill="#000000">Web Application</text>
<path d="m138.05 474.8c13.054 0 23.685-10.553 23.685-23.607v-387.64c0-13.054-10.631-23.607-23.685-23.607h-110.69c-13.054 0-23.607 10.553-23.607 23.607v387.64c0 13.054 10.553 23.607 23.607 23.607h110.69z" fill-rule="evenodd" fill="#f2f2f2"/>
<path stroke-linejoin="round" d="m138.05 474.8c13.054 0 23.685-10.553 23.685-23.607v0-387.64c0-13.054-10.631-23.607-23.685-23.607v0h-110.69c-13.054 0-23.607 10.553-23.607 23.607v0 387.64c0 13.054 10.553 23.607 23.607 23.607v0h110.69z" stroke="#000" stroke-linecap="round" stroke-width="3.5958px" fill="none"/>
<text xml:space="preserve" font-size="23.763px" y="250.14063" x="58.783047" font-family="Arial" fill="#000000">Web </text>
<text xml:space="preserve" font-size="23.763px" y="278.9068" x="36.27039" font-family="Arial" fill="#000000">Frontend</text>
<path stroke-linejoin="round" d="m607.92 116.55h-446.19v-0.31267" stroke="#262626" stroke-linecap="round" stroke-width="2.0324px" fill="none"/>
<path d="m606.36 110.3 18.604 6.2535-18.604 6.1754v-12.429z" fill-rule="evenodd" fill="#262626"/>
<path stroke-linejoin="round" d="m735.34 192.45v17.744h-0.31267v80.514" stroke="#262626" stroke-linecap="round" stroke-width="2.0324px" fill="none"/>
<path d="m741.28 289.15-6.2535 18.604-6.1754-18.604h12.429z" fill-rule="evenodd" fill="#262626"/>
<path d="m821.32 476.13c13.054 0 23.607-10.553 23.607-23.607v-121.16c0-13.054-10.553-23.607-23.607-23.607h-172.52c-13.054 0-23.685 10.553-23.685 23.607v121.16c0 13.054 10.631 23.607 23.685 23.607h172.52z" fill-rule="evenodd" fill="#ffe100"/>
<path stroke-linejoin="round" d="m821.32 476.13c13.054 0 23.607-10.553 23.607-23.607v0-121.16c0-13.054-10.553-23.607-23.607-23.607v0h-172.52c-13.054 0-23.685 10.553-23.685 23.607v0 121.16c0 13.054 10.631 23.607 23.685 23.607v0h172.52z" stroke="#ffc000" stroke-linecap="round" stroke-width="5.2373px" fill="none"/>
<path d="m674.75 441.81c-2.1887 0.46901-4.2993 0.62535-6.2535 0.62535-0.78169 0-1.5634 0-2.2669-0.0782-0.70352-0.0782-1.4852-0.23451-2.3451-0.46901-0.85986-0.23451-1.5634-0.54718-2.1887-0.93803-0.62535-0.31268-1.0944-0.93803-1.5634-1.5634-0.39085-0.70352-0.62535-1.5634-0.62535-2.5014v-8.5204c0-3.8303 2.9704-5.7845 8.9894-5.7845 1.407 0 3.5176 0.15634 6.0972 0.62535v3.5176c-2.3451-0.62535-4.3775-0.85986-6.019-0.85986-0.70352 0-1.2507 0-1.7197 0.0782-0.39085 0-0.85986 0.0782-1.3289 0.23451-0.46902 0.15634-0.78169 0.46901-1.0162 0.78169-0.23451 0.39084-0.31268 0.78169-0.31268 1.3289v8.2859c0 1.7197 1.5634 2.5796 4.7683 2.5796 1.407 0 3.2831-0.31267 5.7845-0.85985v3.5176z" fill-rule="evenodd"/>
<path d="m686.95 431.1h-1.4852c-1.1725 0-2.0324 0.15634-2.6578 0.46902-0.62535 0.39084-0.93803 1.0162-0.93803 1.9542v8.6768h-4.2993v-14.461h4.0648v2.5796c0.0782-0.70352 0.46901-1.407 1.2507-1.9542 0.85986-0.62535 1.6416-0.93803 2.5014-0.93803h1.5634v3.6739z" fill-rule="evenodd"/>
<path d="m703.52 432.98v4.2211c0 0.93803-0.15634 1.7197-0.46901 2.4232-0.23451 0.62535-0.62535 1.1725-1.0944 1.5634-0.39084 0.39084-0.93802 0.62535-1.6415 0.85986-0.78169 0.15633-1.407 0.31267-1.9542 0.31267-0.62535 0.0782-1.3289 0.0782-2.1106 0.0782-0.85986 0-1.5634 0-2.1106-0.0782-0.62535 0-1.2507-0.15634-1.9542-0.31267-0.70352-0.23451-1.3289-0.46902-1.7197-0.85986-0.46902-0.39085-0.78169-0.93803-1.0944-1.5634-0.31267-0.70352-0.46901-1.4852-0.46901-2.4232v-4.2211c0-1.0162 0.15634-1.8761 0.46901-2.5796 0.31268-0.70352 0.70352-1.2507 1.0944-1.5634 0.46901-0.39084 1.0944-0.70352 1.7979-0.93802 0.70352-0.15634 1.3289-0.31268 1.8761-0.39085 0.62535 0 1.2507-0.0782 2.1106-0.0782 0.78169 0 1.4852 0.0782 2.0324 0.0782 0.54719 0.0782 1.2507 0.23451 1.9542 0.39085 0.70352 0.2345 1.2507 0.54718 1.7197 0.93802 0.46902 0.31268 0.78169 0.85986 1.0944 1.5634 0.31267 0.70352 0.46901 1.5634 0.46901 2.5796zm-4.2993 4.7683v-5.4718c0-0.78169-0.23451-1.3289-0.62535-1.6416-0.39085-0.31268-1.1725-0.46901-2.3451-0.46901-1.2507 0-2.0324 0.15633-2.4232 0.46901-0.39084 0.31268-0.54718 0.85986-0.54718 1.6416v5.4718c0 0.70352 0.15634 1.2507 0.54718 1.5634 0.39085 0.31268 1.1725 0.46902 2.4232 0.46902 1.1725 0 1.9542-0.15634 2.3451-0.46902 0.39084-0.31267 0.62535-0.85986 0.62535-1.5634z" fill-rule="evenodd"/>
<path d="m719.31 436.57v1.7979c0 0.70352-0.15634 1.3289-0.39085 1.7979-0.2345 0.54718-0.62535 0.93803-1.0162 1.2507-0.39085 0.31268-0.93803 0.46902-1.5634 0.62536-0.70352 0.2345-1.3289 0.31267-1.9542 0.31267-0.54718 0.0782-1.2507 0.0782-2.1106 0.0782-1.5634 0-3.4394-0.15634-5.6282-0.39084v-2.8923c2.7359 0.39085 4.612 0.62536 5.7063 0.62536 0.85986 0 1.4852-0.0782 1.9542-0.31268 0.46901-0.15634 0.70352-0.46901 0.70352-0.93803v-0.93802c0-0.46902-0.0782-0.78169-0.39085-1.0162-0.23451-0.23451-0.78169-0.31268-1.6416-0.31268h-1.876c-1.4852 0-2.6577-0.31267-3.5176-0.93802-0.85986-0.62536-1.2507-1.4852-1.2507-2.6578v-1.7197c0-1.3289 0.62536-2.2669 1.8761-2.7359 1.2507-0.46901 2.9704-0.78169 5.3155-0.78169 0.93802 0 2.6577 0.15634 5.081 0.31268v2.7359c-3.1268-0.2345-4.8465-0.31267-5.2373-0.31267-1.1725 0-1.9542 0.0782-2.2669 0.2345-0.31268 0.15634-0.46901 0.46902-0.46901 0.93803v0.78169c0 0.23451 0.0782 0.46901 0.31267 0.70352 0.31268 0.15634 0.62535 0.23451 1.1725 0.23451h1.876c3.5958 0 5.3155 1.1725 5.3155 3.5176z" fill-rule="evenodd"/>
<path d="m734.94 436.57v1.7979c0 0.70352-0.15634 1.3289-0.39085 1.7979-0.31267 0.54718-0.62535 0.93803-1.0162 1.2507-0.39085 0.31268-0.93803 0.46902-1.6416 0.62536-0.62535 0.2345-1.2507 0.31267-1.8761 0.31267-0.54718 0.0782-1.2507 0.0782-2.1106 0.0782-1.5634 0-3.4394-0.15634-5.6282-0.39084v-2.8923c2.7359 0.39085 4.612 0.62536 5.7063 0.62536 0.85986 0 1.4852-0.0782 1.9542-0.31268 0.46902-0.15634 0.70353-0.46901 0.70353-0.93803v-0.93802c0-0.46902-0.0782-0.78169-0.39085-1.0162-0.23451-0.23451-0.78169-0.31268-1.6416-0.31268h-1.876c-1.4852 0-2.6578-0.31267-3.5176-0.93802-0.85986-0.62536-1.2507-1.4852-1.2507-2.6578v-1.7197c0-1.3289 0.62535-2.2669 1.8761-2.7359 1.2507-0.46901 2.9704-0.78169 5.2373-0.78169 1.0162 0 2.6577 0.15634 5.1592 0.31268v2.7359c-3.1268-0.2345-4.8465-0.31267-5.2373-0.31267-1.2507 0-1.9542 0.0782-2.2669 0.2345-0.31268 0.15634-0.54718 0.46902-0.54718 0.93803v0.78169c0 0.23451 0.15633 0.46901 0.39084 0.70352 0.31268 0.15634 0.62535 0.23451 1.1725 0.23451h1.8761c3.5176 0 5.3155 1.1725 5.3155 3.5176z" fill-rule="evenodd"/>
<path d="m752.92 432.27v4.7683c0 1.9542-0.62535 3.3613-1.7979 4.2211-1.1725 0.78169-3.0486 1.1725-5.7063 1.1725-2.7359 0-4.612-0.39084-5.7063-1.2507-1.0162-0.85986-1.5634-2.2669-1.5634-4.143v-15.712h4.3775v7.8169c0.23451-0.62535 0.70353-1.0944 1.407-1.3289 0.70352-0.23451 1.7979-0.39085 3.2049-0.39085 1.2507 0 2.2669 0.15634 3.0486 0.31268 0.78169 0.23451 1.3289 0.54718 1.7197 1.0162 0.39084 0.39084 0.70352 0.93802 0.78169 1.4852 0.15634 0.46901 0.2345 1.1725 0.2345 2.0324zm-4.3775 5.3155v-5.3155c0-0.93803-0.15633-1.4852-0.46901-1.7979-0.39085-0.2345-1.2507-0.31267-2.5796-0.31267-1.2507 0-2.0324 0.15633-2.4232 0.46901-0.39085 0.31268-0.54719 0.85986-0.54719 1.6416v5.3155c0 0.85985 0.15634 1.4852 0.54719 1.7197 0.39084 0.31268 1.1725 0.46902 2.4232 0.46902s2.1106-0.15634 2.5014-0.46902c0.39085-0.2345 0.54718-0.85986 0.54718-1.7197z" fill-rule="evenodd"/>
<path d="m769.26 442.2h-4.2993v-1.3289c-0.31267 0.54718-0.78169 0.93803-1.3289 1.2507-0.62535 0.23451-1.7197 0.31268-3.2831 0.31268-1.9542 0-3.2049-0.23451-3.8303-0.85986-0.62536-0.62535-1.0162-1.876-1.0162-3.7521 0-1.6416 0.39084-2.8922 1.0162-3.5176 0.62535-0.70352 1.7979-1.0162 3.5176-1.0162h4.8465v-1.0162c0-0.85986-0.15634-1.407-0.62535-1.7197-0.39084-0.31267-1.2507-0.39084-2.5014-0.39084s-2.9704 0.0782-5.081 0.31267v-2.7359c1.6416-0.15634 3.4394-0.31268 5.4718-0.31268 2.6577 0 4.5338 0.39085 5.55 1.0162s1.5634 1.876 1.5634 3.8303v9.9274zm-4.3775-3.7521v-2.7359h-2.9704c-0.93802 0-1.5634 0.0782-1.7979 0.31268-0.23451 0.2345-0.31268 0.78169-0.31268 1.7197 0 0.93803 0.0782 1.4852 0.39085 1.7197 0.2345 0.15634 0.85985 0.31268 1.876 0.31268h1.0944c0.2345-0.0782 0.46901-0.0782 0.78169-0.0782 0.2345-0.0782 0.46901-0.15634 0.54718-0.23451 0.15634-0.0782 0.2345-0.23451 0.31267-0.39084 0.0782-0.15634 0.0782-0.31268 0.0782-0.62536z" fill-rule="evenodd"/>
<path d="m782.47 431.1h-1.4852c-1.1725 0-2.1106 0.15634-2.6577 0.46902-0.62535 0.39084-0.93803 1.0162-0.93803 1.9542v8.6768h-4.2993v-14.461h4.143v2.5796c0-0.70352 0.39084-1.407 1.1725-1.9542 0.85986-0.62535 1.6416-0.93803 2.5014-0.93803h1.5634v3.6739z" fill-rule="evenodd"/>
<path d="m785.05 438.92v3.2831h3.4394v-3.2831h-3.4394z" fill-rule="evenodd"/>
<path d="m795.53 425.32h-2.6578v-2.7359h2.6578v2.7359zm0 16.884h-2.6578v-14.461h2.6578v14.461z" fill-rule="evenodd"/>
<path d="m812.88 432.59v5.0028c0 0.93802-0.0782 1.6415-0.31267 2.2669-0.15634 0.62535-0.46902 1.0944-0.78169 1.4852-0.39085 0.31267-0.85986 0.54718-1.4852 0.70352-0.62535 0.2345-1.1725 0.31267-1.7979 0.39084h-2.1887c-1.2507 0-2.1887 0-2.8141-0.0782-0.70352-0.0782-1.3289-0.31267-1.9542-0.62535-0.70352-0.31268-1.1725-0.78169-1.4852-1.4852-0.23451-0.62535-0.39085-1.5634-0.39085-2.6577v-5.0028c0-0.93802 0.0782-1.7197 0.31268-2.3451 0.2345-0.70353 0.54718-1.1725 0.85986-1.5634 0.31267-0.39085 0.78169-0.62536 1.407-0.78169 0.62535-0.23451 1.2507-0.31268 1.7979-0.39085 0.54719 0 1.2507-0.0782 2.2669-0.0782 0.93803 0 1.6416 0.0782 2.1887 0.0782 0.54719 0.0782 1.1725 0.15634 1.7979 0.39085 0.62535 0.15633 1.0944 0.39084 1.407 0.78169 0.39084 0.39084 0.62535 0.85985 0.85986 1.5634 0.2345 0.62535 0.31267 1.407 0.31267 2.3451zm-2.7359 5.3937v-5.7845c0-1.3289-0.23451-2.1887-0.78169-2.5014-0.54718-0.31267-1.5634-0.46901-3.0486-0.46901-1.5634 0-2.5796 0.15634-3.1268 0.46901-0.54718 0.31268-0.78168 1.1725-0.78168 2.5014v5.7845c0 0.62535 0.0782 1.1725 0.2345 1.5634 0.0782 0.31268 0.39085 0.62535 0.70352 0.78169 0.39085 0.15634 0.78169 0.31267 1.1725 0.31267 0.39084 0.0782 1.0162 0.0782 1.7979 0.0782 0.70352 0 1.3289 0 1.7197-0.0782 0.39084 0 0.78169-0.15633 1.1725-0.31267 0.39085-0.15634 0.62535-0.46901 0.78169-0.78169 0.15634-0.39085 0.15634-0.93803 0.15634-1.5634z" fill-rule="evenodd"/>
<path d="m700.71 340.19v64.88h64.88v-64.88h-64.88z" fill-rule="evenodd"/>
<path d="m700.71 353.95v6.488l15.321-0.0782 10.162 10.162 4.6901-4.6901-12.038-12.038-18.135 0.15634z" fill-rule="evenodd" fill="#ffe100"/>
<path d="m740.03 375.05-4.6901 4.6901 11.647 11.647h18.604v-6.488h-15.712l-9.8493-9.8493z" fill-rule="evenodd" fill="#ffe100"/>
<path d="m747.45 353.87-30.955 31.111h-15.79v6.488h18.526l31.033-31.033h15.321v-6.5662h-18.135z" fill-rule="evenodd" fill="#ffe100"/>
<path stroke-linejoin="round" d="m183.31 390.53 441.81 1.407" stroke="#ffc000" stroke-linecap="round" stroke-width="3.5958px" fill="none"/>
<path d="m185.26 398.35-23.373-7.8951 23.451-7.7387-0.0782 15.634z" fill-rule="evenodd" fill="#ffc000"/>
<path d="m248.81 469.17v-35.567h108.03l81.608-42.289-24.858 42.289h108.03v94.819h-272.81v-59.252z" fill-rule="evenodd" fill="#fff"/>
<path stroke-linejoin="round" d="m248.81 469.17v-35.567h108.03l81.608-42.289-24.858 42.289h108.03v94.819h-272.81v-59.252z" stroke="#000" stroke-linecap="round" stroke-width=".39084px" fill="none"/>
<text xml:space="preserve" font-size="20.011px" y="462.76016" x="255.14343" font-family="Arial" fill="#000000">Real</text>
<text xml:space="preserve" font-size="20.011px" y="462.76016" x="296.41663" font-family="Arial" fill="#000000">-</text>
<text xml:space="preserve" font-size="20.011px" y="462.76016" x="302.67014" font-family="Arial" fill="#000000">time data updates and </text>
<text xml:space="preserve" font-size="20.011px" y="486.5235" x="255.14343" font-family="Arial" fill="#000000">notifications sent over </text>
<text xml:space="preserve" font-size="20.011px" y="511.53757" x="255.14343" font-family="Arial" fill="#000000">WAMP</text>
<text xml:space="preserve" font-size="20.011px" y="511.53757" x="317.67859" font-family="Arial" fill="#000000">/</text>
<text xml:space="preserve" font-size="20.011px" y="511.53757" x="322.6814" font-family="Arial" fill="#000000">WebSocket</text>
<path d="m243.42 29.001v-26.89h295.24v71.759h-119.29l13.132 42.68-69.805-42.68h-119.29v-44.869z" fill-rule="evenodd" fill="#fff"/>
<path stroke-linejoin="round" d="m243.42 29.001v-26.89h295.24v71.759h-119.29l13.132 42.68-69.805-42.68h-119.29v-44.869z" stroke="#000" stroke-linecap="round" stroke-width=".39084px" fill="none"/>
<text xml:space="preserve" font-size="20.011px" y="32.51828" x="250.14063" font-family="Arial" fill="#000000">Request</text>
<text xml:space="preserve" font-size="20.011px" y="32.51828" x="325.1828" font-family="Arial" fill="#000000">/</text>
<text xml:space="preserve" font-size="20.011px" y="32.51828" x="330.18561" font-family="Arial" fill="#000000">response interaction </text>
<text xml:space="preserve" font-size="20.011px" y="56.281639" x="250.14063" font-family="Arial" fill="#000000">over HTTP or Ajax</text>
<path d="m371.07 217.23v-35.489h226.92v35.489l137.03 35.411-137.03-11.804v35.411h-226.92v-59.018z" fill-rule="evenodd" fill="#fff"/>
<path stroke-linejoin="round" d="m371.07 217.23v-35.489h226.92v35.489l137.03 35.411-137.03-11.804v35.411h-226.92v-59.018z" stroke="#000" stroke-linecap="round" stroke-width=".39084px" fill="none"/>
<text xml:space="preserve" font-size="20.011px" y="211.36882" x="377.71234" font-family="Arial" fill="#000000">Inject WAMP events via </text>
<text xml:space="preserve" font-size="20.011px" y="235.13219" x="377.71234" font-family="Arial" fill="#000000">plain old HTTP</text>
<text xml:space="preserve" font-size="20.011px" y="235.13219" x="510.28687" font-family="Arial" fill="#000000">/</text>
<text xml:space="preserve" font-size="20.011px" y="235.13219" x="515.28967" font-family="Arial" fill="#000000">POST </text>
<text xml:space="preserve" font-size="20.011px" y="258.89554" x="377.71234" font-family="Arial" fill="#000000">requests</text>
</g>
</g>
</svg>
