<?xml version="1.0" encoding="UTF-8" standalone="no"?>
<svg xmlns:rdf="http://www.w3.org/1999/02/22-rdf-syntax-ns#" xmlns="http://www.w3.org/2000/svg" version="1.1" xmlns:cc="http://creativecommons.org/ns#" xmlns:dc="http://purl.org/dc/elements/1.1/" viewBox="0 0 1045.8 346">
<g transform="translate(738.99 -201.56)">
<g transform="translate(-730.87 209.59)">
<path d="m1.8761 50.966v236.38h425.47v-236.38h-425.47z" fill-rule="evenodd" fill="#729fdc"/>
<text font-weight="bold" xml:space="preserve" font-size="23.763px" y="327.6842" x="178.85054" font-family="Arial" fill="#404040">Host </text>
<text font-weight="bold" xml:space="preserve" font-size="23.763px" y="327.6842" x="237.63359" font-family="Arial" fill="#404040">1</text>
<path d="m521.86 50.966v236.38h505.83v-236.38h-505.83z" fill-rule="evenodd" fill="#729fdc"/>
<text font-weight="bold" xml:space="preserve" font-size="23.763px" y="327.6842" x="739.16553" font-family="Arial" fill="#404040">Host </text>
<text font-weight="bold" xml:space="preserve" font-size="23.763px" y="327.6842" x="797.94861" font-family="Arial" fill="#404040">2</text>
<path d="m981.96 263.35c13.054 0 23.607-10.553 23.607-23.607v-150.63c0-13.054-10.553-23.607-23.607-23.607h-174.79c-13.054 0-23.607 10.553-23.607 23.607v150.63c0 13.054 10.553 23.607 23.607 23.607h174.79z" fill-rule="evenodd" fill="#d9d9d9"/>
<text font-weight="bold" xml:space="preserve" font-size="20.011px" y="250.14063" x="807.95422" font-family="Arial" fill="#404040">Crossbar</text>
<text font-weight="bold" xml:space="preserve" font-size="20.011px" y="250.14063" x="895.50342" font-family="Arial" fill="#404040">.</text>
<text font-weight="bold" xml:space="preserve" font-size="20.011px" y="250.14063" x="901.75696" font-family="Arial" fill="#404040">io </text>
<text xml:space="preserve" font-size="20.011px" y="250.14063" x="925.52026" font-family="Arial" fill="#404040">Node</text>
<path d="m962.1 198.78c13.054 0 23.685-10.553 23.685-23.607v-62.301c0-13.054-10.631-23.607-23.685-23.607h-137.11c-13.054 0-23.607 10.553-23.607 23.607v62.301c0 13.054 10.553 23.607 23.607 23.607h137.11z" fill-rule="evenodd" fill="#ffe100"/>
<path stroke-linejoin="round" d="m962.1 198.78c13.054 0 23.685-10.553 23.685-23.607v0-62.301c0-13.054-10.631-23.607-23.685-23.607v0h-137.11c-13.054 0-23.607 10.553-23.607 23.607v0 62.301c0 13.054 10.553 23.607 23.607 23.607v0h137.11z" stroke="#ffc000" stroke-linecap="round" stroke-width="5.2373px" fill="none"/>
<path d="m864.78 116.47v54.406h54.406v-54.406h-54.406z" fill-rule="evenodd"/>
<path d="m864.78 127.96v5.4718h12.82l8.5204 8.5204 3.9866-3.9866-10.162-10.084-15.165 0.0782z" fill-rule="evenodd" fill="#ffe100"/>
<path d="m897.77 145.71-3.9084 3.9084 9.693 9.7711h15.634v-5.3937h-13.211l-8.2077-8.2859z" fill-rule="evenodd" fill="#ffe100"/>
<path d="m903.95 127.96-25.874 26.03h-13.289v5.4718h15.556l26.03-26.03h12.82v-5.4718h-15.243z" fill-rule="evenodd" fill="#ffe100"/>
<path d="m740.89 263.35c13.054 0 23.607-10.553 23.607-23.607v-150.63c0-13.054-10.553-23.607-23.607-23.607h-174.79c-13.054 0-23.607 10.553-23.607 23.607v150.63c0 13.054 10.553 23.607 23.607 23.607h174.79z" fill-rule="evenodd" fill="#d9d9d9"/>
<text font-weight="bold" xml:space="preserve" font-size="20.011px" y="250.14063" x="566.56848" font-family="Arial" fill="#404040">Crossbar</text>
<text font-weight="bold" xml:space="preserve" font-size="20.011px" y="250.14063" x="655.36841" font-family="Arial" fill="#404040">.</text>
<text font-weight="bold" xml:space="preserve" font-size="20.011px" y="250.14063" x="660.37122" font-family="Arial" fill="#404040">io </text>
<text xml:space="preserve" font-size="20.011px" y="250.14063" x="684.13458" font-family="Arial" fill="#404040">Node</text>
<path d="m721.03 198.78c13.054 0 23.607-10.553 23.607-23.607v-62.301c0-13.054-10.553-23.607-23.607-23.607h-137.11c-13.054 0-23.607 10.553-23.607 23.607v62.301c0 13.054 10.553 23.607 23.607 23.607h137.11z" fill-rule="evenodd" fill="#ffe100"/>
<path stroke-linejoin="round" d="m721.03 198.78c13.054 0 23.607-10.553 23.607-23.607v0-62.301c0-13.054-10.553-23.607-23.607-23.607h-137.11c-13.054 0-23.607 10.553-23.607 23.607v0 62.301c0 13.054 10.553 23.607 23.607 23.607v0h137.11z" stroke="#ffc000" stroke-linecap="round" stroke-width="5.2373px" fill="none"/>
<path d="m623.71 116.47v54.406h54.406v-54.406h-54.406z" fill-rule="evenodd"/>
<path d="m623.71 127.96v5.4718h12.82l8.5204 8.5204 3.9084-3.9866-10.084-10.084-15.165 0.0782z" fill-rule="evenodd" fill="#ffe100"/>
<path d="m656.7 145.71-3.9084 3.9084 9.693 9.7711h15.634v-5.3937h-13.211l-8.2077-8.2859z" fill-rule="evenodd" fill="#ffe100"/>
<path d="m662.87 127.96-25.952 26.03h-13.211v5.4718h15.556l26.03-26.03h12.82v-5.4718h-15.243z" fill-rule="evenodd" fill="#ffe100"/>
<path d="m216.14 263.35c13.054 0 23.685-10.553 23.685-23.607v-150.63c0-13.054-10.631-23.607-23.685-23.607h-174.71c-13.054 0-23.685 10.553-23.685 23.607v150.63c0 13.054 10.631 23.607 23.685 23.607h174.71z" fill-rule="evenodd" fill="#d9d9d9"/>
<text font-weight="bold" xml:space="preserve" font-size="20.011px" y="250.14063" x="42.523907" font-family="Arial" fill="#404040">Crossbar</text>
<text font-weight="bold" xml:space="preserve" font-size="20.011px" y="250.14063" x="130.07312" font-family="Arial" fill="#404040">.</text>
<text font-weight="bold" xml:space="preserve" font-size="20.011px" y="250.14063" x="136.32664" font-family="Arial" fill="#404040">io </text>
<text xml:space="preserve" font-size="20.011px" y="250.14063" x="158.83929" font-family="Arial" fill="#404040">Node</text>
<path d="m196.36 198.78c13.054 0 23.607-10.553 23.607-23.607v-62.301c0-13.054-10.553-23.607-23.607-23.607h-137.11c-13.054 0-23.607 10.553-23.607 23.607v62.301c0 13.054 10.553 23.607 23.607 23.607h137.11z" fill-rule="evenodd" fill="#ffe100"/>
<path stroke-linejoin="round" d="m196.36 198.78c13.054 0 23.607-10.553 23.607-23.607v0-62.301c0-13.054-10.553-23.607-23.607-23.607h-137.11c-13.054 0-23.607 10.553-23.607 23.607v0 62.301c0 13.054 10.553 23.607 23.607 23.607v0h137.11z" stroke="#ffc000" stroke-linecap="round" stroke-width="5.2373px" fill="none"/>
<path d="m99.04 116.47v54.406h54.327v-54.406h-54.327z" fill-rule="evenodd"/>
<path d="m99.04 127.96v5.4718h12.742l8.5986 8.5204 3.9084-3.9866-10.084-10.084-15.165 0.0782z" fill-rule="evenodd" fill="#ffe100"/>
<path d="m131.95 145.71-3.9084 3.9084 9.7711 9.7711h15.556v-5.3937h-13.132l-8.2859-8.2859z" fill-rule="evenodd" fill="#ffe100"/>
<path d="m138.2 127.96-25.952 26.03h-13.211v5.4718h15.477l26.03-26.03h12.82v-5.4718h-15.165z" fill-rule="evenodd" fill="#ffe100"/>
<path stroke-linejoin="round" d="m127.81 89.269v-85.517h524.67v85.517" stroke="#404040" stroke-linecap="round" stroke-width="3.5958px" fill="none"/>
<path stroke-linejoin="round" d="m127.81 89.269v-85.517h765.74v85.517" stroke="#404040" stroke-linecap="round" stroke-width="3.5958px" fill="none"/>
</g>
</g>
</svg>
