<?xml version="1.0" encoding="UTF-8" standalone="no"?>
<svg xmlns:rdf="http://www.w3.org/1999/02/22-rdf-syntax-ns#" xmlns="http://www.w3.org/2000/svg" version="1.1" xmlns:cc="http://creativecommons.org/ns#" xmlns:dc="http://purl.org/dc/elements/1.1/" viewBox="0 0 963.88 474.16">
<g transform="translate(623.1 -192.81)">
<g transform="translate(-615.07 200.91)">
<path d="m920.36 288.21c13.054 0 23.685-10.553 23.685-23.607v-120.69c0-13.054-10.631-23.607-23.685-23.607h-108.73c-13.054 0-23.607 10.553-23.607 23.607v120.69c0 13.054 10.553 23.607 23.607 23.607h108.73z" fill-rule="evenodd" fill="#f2f2f2"/>
<path stroke-linejoin="round" d="m920.36 288.21c13.054 0 23.685-10.553 23.685-23.607v0-120.69c0-13.054-10.631-23.607-23.685-23.607v0h-108.73c-13.054 0-23.607 10.553-23.607 23.607v0 120.69c0 13.054 10.553 23.607 23.607 23.607v0h108.73z" stroke="#000" stroke-linecap="round" stroke-width="3.5958px" fill="none"/>
<text xml:space="preserve" font-size="21.262px" y="197.61108" x="820.46124" font-family="Arial" fill="#000000">Backend</text>
<text xml:space="preserve" font-size="21.262px" y="197.61108" x="905.50903" font-family="Arial" fill="#000000">: </text>
<text font-weight="bold" xml:space="preserve" font-size="21.262px" y="223.87585" x="825.46405" font-family="Arial" fill="#000000">NodeJS</text>
<path d="m138.05 285.71c13.054 0 23.685-10.553 23.685-23.607v-118.19c0-13.054-10.631-23.607-23.685-23.607h-110.69c-13.054 0-23.607 10.553-23.607 23.607v118.19c0 13.054 10.553 23.607 23.607 23.607h110.69z" fill-rule="evenodd" fill="#f2f2f2"/>
<path stroke-linejoin="round" d="m138.05 285.71c13.054 0 23.685-10.553 23.685-23.607v0-118.19c0-13.054-10.631-23.607-23.685-23.607v0h-110.69c-13.054 0-23.607 10.553-23.607 23.607v0 118.19c0 13.054 10.553 23.607 23.607 23.607v0h110.69z" stroke="#000" stroke-linecap="round" stroke-width="3.5958px" fill="none"/>
<text xml:space="preserve" font-size="23.763px" y="196.3604" x="32.51828" font-family="Arial" fill="#000000">Frontend</text>
<text xml:space="preserve" font-size="23.763px" y="196.3604" x="126.32101" font-family="Arial" fill="#000000">: </text>
<text font-weight="bold" xml:space="preserve" font-size="23.763px" y="223.87585" x="36.27039" font-family="Arial" fill="#000000">Browser</text>
<path d="m560.47 288.68c13.054 0 23.607-10.553 23.607-23.607v-121.16c0-13.054-10.553-23.607-23.607-23.607h-172.6c-13.054 0-23.607 10.553-23.607 23.607v121.16c0 13.054 10.553 23.607 23.607 23.607h172.6z" fill-rule="evenodd" fill="#ffe100"/>
<path stroke-linejoin="round" d="m560.47 288.68c13.054 0 23.607-10.553 23.607-23.607v0-121.16c0-13.054-10.553-23.607-23.607-23.607v0h-172.6c-13.054 0-23.607 10.553-23.607 23.607v0 121.16c0 13.054 10.553 23.607 23.607 23.607v0h172.6z" stroke="#ffc000" stroke-linecap="round" stroke-width="5.2373px" fill="none"/>
<path d="m413.83 254.36c-2.1106 0.46902-4.2211 0.62535-6.1754 0.62535-0.78169 0-1.5634 0-2.2669-0.0782-0.70352-0.0782-1.4852-0.2345-2.3451-0.46901-0.85986-0.23451-1.6416-0.54718-2.1887-0.93803-0.62535-0.31267-1.1725-0.93802-1.5634-1.5634-0.39084-0.70352-0.62535-1.5634-0.62535-2.5014v-8.5204c0-3.9084 2.9704-5.7845 8.9894-5.7845 1.407 0 3.4394 0.15634 6.0972 0.62535v3.5176c-2.3451-0.62536-4.3775-0.85986-6.0972-0.85986-0.62535 0-1.1725 0-1.6416 0.0782-0.39084 0-0.85986 0.0782-1.3289 0.2345-0.46901 0.15634-0.78169 0.46902-1.0162 0.78169-0.2345 0.39085-0.39084 0.78169-0.39084 1.3289v8.2859c0 1.7197 1.6416 2.5796 4.8465 2.5796 1.407 0 3.2831-0.31268 5.7063-0.85986v3.5176z" fill-rule="evenodd"/>
<path d="m426.1 243.65h-1.4852c-1.1725 0-2.1106 0.15633-2.6577 0.46901-0.62535 0.39085-0.93803 1.0162-0.93803 1.9542v8.6768h-4.2993v-14.461h4.0648v2.5796c0.0782-0.70352 0.46902-1.407 1.2507-1.9542 0.78169-0.62535 1.6415-0.93802 2.5014-0.93802h1.5634v3.6739z" fill-rule="evenodd"/>
<path d="m442.67 245.53v4.2211c0 0.93803-0.15634 1.7197-0.46902 2.4232-0.2345 0.62535-0.62535 1.1725-1.0944 1.5634-0.39085 0.39085-1.0162 0.62535-1.7197 0.85986-0.70352 0.15634-1.3289 0.31267-1.876 0.31267-0.62535 0.0782-1.3289 0.0782-2.1106 0.0782-0.85986 0-1.5634 0-2.1887-0.0782-0.54719 0-1.1725-0.15633-1.8761-0.31267-0.70352-0.23451-1.3289-0.46901-1.7197-0.85986-0.46901-0.39084-0.85985-0.93803-1.0944-1.5634-0.31268-0.70352-0.46902-1.4852-0.46902-2.4232v-4.2211c0-1.0162 0.15634-1.876 0.46902-2.5796 0.31267-0.70352 0.70352-1.2507 1.0944-1.5634 0.46902-0.39085 1.0944-0.70352 1.7197-0.93803 0.78169-0.15634 1.407-0.31268 1.9542-0.39084 0.54719 0 1.2507-0.0782 2.1106-0.0782 0.78168 0 1.4852 0.0782 2.0324 0.0782 0.54718 0.0782 1.1725 0.2345 1.9542 0.39084 0.70352 0.23451 1.2507 0.54718 1.7197 0.93803 0.39084 0.31267 0.78169 0.85986 1.0944 1.5634 0.31268 0.70352 0.46902 1.5634 0.46902 2.5796zm-4.3775 4.7683v-5.4718c0-0.78169-0.15634-1.3289-0.54719-1.6416-0.39084-0.31267-1.1725-0.46901-2.3451-0.46901-1.2507 0-2.0324 0.15634-2.4232 0.46901-0.39085 0.31268-0.54718 0.85986-0.54718 1.6416v5.4718c0 0.70352 0.15633 1.2507 0.54718 1.5634 0.39084 0.31267 1.1725 0.46901 2.4232 0.46901 1.1725 0 1.9542-0.15634 2.3451-0.46901 0.39085-0.31268 0.54719-0.85986 0.54719-1.5634z" fill-rule="evenodd"/>
<path d="m458.46 249.12v1.7979c0 0.70352-0.15633 1.3289-0.39084 1.7979-0.31268 0.54719-0.62535 0.93803-1.0162 1.2507-0.39084 0.31267-0.93802 0.46901-1.5634 0.62535-0.70352 0.23451-1.3289 0.31267-1.9542 0.31267-0.54718 0.0782-1.2507 0.0782-2.1106 0.0782-1.5634 0-3.4394-0.15633-5.7063-0.39084v-2.8922c2.8141 0.39084 4.6901 0.62535 5.7845 0.62535 0.85986 0 1.4852-0.0782 1.9542-0.31268 0.46902-0.15633 0.70352-0.46901 0.70352-0.93802v-0.93803c0-0.46901-0.15634-0.78169-0.39084-1.0162-0.23451-0.2345-0.78169-0.31267-1.6416-0.31267h-1.8761c-1.4852 0-2.6577-0.31268-3.5176-0.93803-0.85986-0.62535-1.2507-1.4852-1.2507-2.6577v-1.7197c0-1.3289 0.62535-2.2669 1.876-2.7359 1.2507-0.46902 2.9704-0.78169 5.2373-0.78169 1.0162 0 2.6578 0.15633 5.1592 0.31267v2.7359c-3.1268-0.23451-4.8465-0.31268-5.2373-0.31268-1.2507 0-1.9542 0.0782-2.2669 0.23451-0.39084 0.15633-0.54718 0.46901-0.54718 0.93802v0.78169c0 0.23451 0.15634 0.46902 0.39085 0.70352 0.2345 0.15634 0.62535 0.23451 1.1725 0.23451h1.8761c3.5176 0 5.3155 1.1725 5.3155 3.5176z" fill-rule="evenodd"/>
<path d="m474.09 249.12v1.7979c0 0.70352-0.15634 1.3289-0.39084 1.7979-0.31268 0.54719-0.62535 0.93803-1.0162 1.2507-0.39084 0.31267-0.93803 0.46901-1.6416 0.62535-0.62535 0.23451-1.2507 0.31267-1.876 0.31267-0.54718 0.0782-1.3289 0.0782-2.1106 0.0782-1.5634 0-3.4394-0.15633-5.7063-0.39084v-2.8922c2.8141 0.39084 4.6901 0.62535 5.7845 0.62535 0.85985 0 1.4852-0.0782 1.9542-0.31268 0.46901-0.15633 0.70352-0.46901 0.70352-0.93802v-0.93803c0-0.46901-0.15634-0.78169-0.39084-1.0162-0.23451-0.2345-0.78169-0.31267-1.6416-0.31267h-1.8761c-1.4852 0-2.6577-0.31268-3.5176-0.93803-0.85986-0.62535-1.2507-1.4852-1.2507-2.6577v-1.7197c0-1.3289 0.62535-2.2669 1.876-2.7359 1.2507-0.46902 2.9704-0.78169 5.2373-0.78169 0.93803 0 2.6578 0.15633 5.1592 0.31267v2.7359c-3.1268-0.23451-4.8465-0.31268-5.2373-0.31268-1.2507 0-1.9542 0.0782-2.3451 0.23451-0.31267 0.15633-0.46901 0.46901-0.46901 0.93802v0.78169c0 0.23451 0.15634 0.46902 0.39085 0.70352 0.2345 0.15634 0.62535 0.23451 1.1725 0.23451h1.876c3.5176 0 5.3155 1.1725 5.3155 3.5176z" fill-rule="evenodd"/>
<path d="m492.07 244.83v4.7683c0 1.9542-0.62535 3.3613-1.7979 4.2211-1.1725 0.78169-3.0486 1.1725-5.7063 1.1725-2.7359 0-4.612-0.39084-5.7063-1.2507-1.0162-0.85986-1.5634-2.2669-1.5634-4.143v-15.712h4.3775v7.8169c0.23451-0.62535 0.70352-1.0944 1.407-1.3289 0.70352-0.23451 1.7979-0.39084 3.2049-0.39084 1.2507 0 2.2669 0.15633 3.0486 0.31267 0.70352 0.23451 1.3289 0.54718 1.7197 1.0162 0.39085 0.39084 0.70352 0.93803 0.78169 1.4852 0.15634 0.46901 0.23451 1.1725 0.23451 2.0324zm-4.3775 5.3155v-5.3155c0-0.93803-0.15634-1.4852-0.46902-1.7979-0.39084-0.23451-1.2507-0.31268-2.6577-0.31268-1.1725 0-1.9542 0.15634-2.3451 0.46901-0.39084 0.31268-0.54718 0.85986-0.54718 1.6416v5.3155c0 0.85986 0.15634 1.4852 0.54718 1.7197 0.31268 0.31267 1.1725 0.46901 2.4232 0.46901s2.1106-0.15634 2.5014-0.46901c0.39084-0.23451 0.54718-0.85986 0.54718-1.7197z" fill-rule="evenodd"/>
<path d="m508.41 254.75h-4.2993v-1.3289c-0.31268 0.54719-0.78169 0.93803-1.3289 1.2507-0.62535 0.2345-1.7197 0.31267-3.2831 0.31267-1.9542 0-3.2049-0.2345-3.9084-0.85985-0.62535-0.62536-0.93803-1.8761-0.93803-3.7521 0-1.6416 0.31268-2.8922 1.0162-3.5176 0.62535-0.70352 1.7979-1.0162 3.5176-1.0162h4.8465v-1.0162c0-0.85986-0.23451-1.407-0.62535-1.7197-0.39085-0.31267-1.2507-0.39084-2.5796-0.39084-1.1725 0-2.8922 0.0782-5.0028 0.31268v-2.7359c1.6416-0.15634 3.4394-0.31267 5.4718-0.31267 2.6578 0 4.5338 0.39084 5.55 1.0162 1.0162 0.62535 1.5634 1.8761 1.5634 3.8303v9.9275zm-4.3775-3.7521v-2.7359h-2.9704c-0.93803 0-1.5634 0.0782-1.7979 0.31268-0.2345 0.23451-0.31267 0.78169-0.31267 1.7197 0 0.93802 0.0782 1.4852 0.31267 1.7197 0.31268 0.15634 0.93803 0.31268 1.9542 0.31268h1.0944c0.23451-0.0782 0.46901-0.0782 0.78169-0.0782 0.23451-0.0782 0.46901-0.15634 0.54718-0.23451 0.0782-0.0782 0.15634-0.2345 0.31268-0.39084 0.0782-0.15634 0.0782-0.31268 0.0782-0.62535z" fill-rule="evenodd"/>
<path d="m521.62 243.65h-1.4852c-1.1725 0-2.1106 0.15633-2.6577 0.46901-0.62536 0.39085-0.93803 1.0162-0.93803 1.9542v8.6768h-4.3775v-14.461h4.143v2.5796c0.0782-0.70352 0.46902-1.407 1.2507-1.9542 0.78168-0.62535 1.6415-0.93802 2.5014-0.93802h1.5634v3.6739z" fill-rule="evenodd"/>
<path d="m524.2 251.47v3.2831h3.4394v-3.2831h-3.4394z" fill-rule="evenodd"/>
<path d="m534.68 237.87h-2.6577v-2.7359h2.6577v2.7359zm0 16.884h-2.6577v-14.461h2.6577v14.461z" fill-rule="evenodd"/>
<path d="m552.03 245.14v5.0028c0 0.93803-0.0782 1.6416-0.31268 2.2669-0.2345 0.62535-0.46901 1.0944-0.78169 1.4852-0.39084 0.31267-0.85985 0.54718-1.4852 0.70352-0.62535 0.23451-1.2507 0.31267-1.7979 0.39084h-2.1887c-1.2507 0-2.1887 0-2.8141-0.0782-0.70352-0.0782-1.3289-0.31267-2.0324-0.62535-0.62535-0.31267-1.0944-0.78169-1.407-1.4852-0.2345-0.62535-0.39084-1.5634-0.39084-2.6577v-5.0028c0-0.93803 0.0782-1.7197 0.31267-2.3451 0.23451-0.70352 0.46902-1.1725 0.85986-1.5634 0.31268-0.39085 0.78169-0.62535 1.407-0.78169 0.62535-0.23451 1.2507-0.31268 1.7979-0.39084 0.54718 0 1.2507-0.0782 2.2669-0.0782 0.93803 0 1.6416 0.0782 2.1887 0.0782 0.54718 0.0782 1.1725 0.15633 1.7979 0.39084 0.62536 0.15634 1.0944 0.39084 1.407 0.78169 0.31267 0.39084 0.62535 0.85986 0.85985 1.5634 0.23451 0.62535 0.31268 1.407 0.31268 2.3451zm-2.7359 5.3936v-5.7845c0-1.3289-0.23451-2.1887-0.78169-2.5014-0.54719-0.31268-1.5634-0.46902-3.0486-0.46902-1.5634 0-2.5796 0.15634-3.1268 0.46902-0.54718 0.31267-0.78169 1.1725-0.78169 2.5014v5.7845c0 0.62536 0 1.1725 0.15634 1.5634 0.15634 0.31268 0.39084 0.62535 0.78169 0.78169 0.39084 0.15634 0.78169 0.31268 1.1725 0.31268 0.39085 0.0782 1.0162 0.0782 1.7979 0.0782 0.70352 0 1.3289 0 1.7197-0.0782 0.39085 0 0.78169-0.15634 1.1725-0.31268 0.39084-0.15634 0.62535-0.46901 0.78169-0.78169 0.0782-0.39084 0.15634-0.93802 0.15634-1.5634z" fill-rule="evenodd"/>
<path d="m439.86 152.74v64.88h64.802v-64.88h-64.802z" fill-rule="evenodd"/>
<path d="m439.86 166.5v6.4098h15.243l10.162 10.162 4.7683-4.6901-12.038-12.038-18.135 0.15634z" fill-rule="evenodd" fill="#ffe100"/>
<path d="m479.18 187.61-4.6901 4.6901 11.647 11.647h18.526v-6.488h-15.634l-9.8493-9.8493z" fill-rule="evenodd" fill="#ffe100"/>
<path d="m486.6 166.42-30.955 31.111h-15.79v6.488h18.526l31.033-31.111h15.243v-6.488h-18.057z" fill-rule="evenodd" fill="#ffe100"/>
<path stroke-linejoin="round" d="m183.15 203.16 159.7 1.1725" stroke="#ffc000" stroke-linecap="round" stroke-width="3.5958px" fill="none"/>
<path d="m185.03 210.98-23.294-7.9732 23.451-7.6606-0.15634 15.634z" fill-rule="evenodd" fill="#ffc000"/>
<path d="m340.89 196.52 23.373 7.9732-23.451 7.6606 0.0782-15.634z" fill-rule="evenodd" fill="#ffc000"/>
<path d="m220.36 183.78v40.022h85.282v-40.022h-85.282z" fill-rule="evenodd" fill="#fff"/>
<text xml:space="preserve" font-size="16.259px" y="198.86179" x="236.38289" font-family="Arial" fill="#000000">WAMP</text>
<text xml:space="preserve" font-size="16.259px" y="218.87305" x="220.12373" font-family="Arial" fill="#000000">WebSocket</text>
<path d="m572.27 32.284v-30.173h264.68v80.358h-103.96l-148.91 61.441 92.161-61.441h-103.96v-50.184z" fill-rule="evenodd" fill="#fff"/>
<path stroke-linejoin="round" d="m572.27 32.284v-30.173h264.68v80.358h-103.96l-148.91 61.441 92.161-61.441h-103.96v-50.184z" stroke="#000" stroke-linecap="round" stroke-width=".39084px" fill="none"/>
<text xml:space="preserve" font-size="16.259px" y="27.515469" x="579.0755" font-family="Arial" fill="#000000">No application code here</text>
<text xml:space="preserve" font-size="16.259px" y="27.515469" x="762.92889" font-family="Arial" fill="#000000">! </text>
<text xml:space="preserve" font-size="16.259px" y="27.515469" x="772.93451" font-family="Arial" fill="#000000">But </text>
<text xml:space="preserve" font-size="16.259px" y="47.526718" x="579.0755" font-family="Arial" fill="#000000">takes care of scalable routing and </text>
<text xml:space="preserve" font-size="16.259px" y="67.537964" x="579.0755" font-family="Arial" fill="#000000">frontend WebSocket serving</text>
<text xml:space="preserve" font-size="16.259px" y="67.537964" x="787.94293" font-family="Arial" fill="#000000">.</text>
<path stroke-linejoin="round" d="m584.08 204.49h17.744v-0.23451h164.78" stroke="#ffc000" stroke-linecap="round" stroke-width="3.5958px" fill="none"/>
<path d="m607.53 212.31-23.451-7.8169 23.451-7.8169v15.634z" fill-rule="evenodd" fill="#ffc000"/>
<path d="m764.65 196.44 23.373 7.8169-23.373 7.8169v-15.634z" fill-rule="evenodd" fill="#ffc000"/>
<path d="m643.33 184.24v40.022h85.282v-40.022h-85.282z" fill-rule="evenodd" fill="#fff"/>
<text xml:space="preserve" font-size="16.259px" y="198.86179" x="660.37122" font-family="Arial" fill="#000000">WAMP</text>
<text xml:space="preserve" font-size="16.259px" y="218.87305" x="642.86139" font-family="Arial" fill="#000000">WebSocket</text>
<path d="m806.94 347.77v88.644c0 8.1296 26.421 14.774 59.096 14.774 32.596 0 59.096-6.6444 59.096-14.774v-88.644c0-8.1296-26.499-14.774-59.096-14.774-32.675 0-59.096 6.6444-59.096 14.774z" fill-rule="evenodd" fill="#fff"/>
<path stroke-linejoin="round" d="m806.94 347.77v88.644c0 8.1296 26.421 14.774 59.096 14.774 32.596 0 59.096-6.6444 59.096-14.774v0-88.644c0-8.1296-26.499-14.774-59.096-14.774-32.675 0-59.096 6.6444-59.096 14.774z" stroke="#000" stroke-linecap="round" stroke-width="1.1725px" fill="none"/>
<path stroke-linejoin="round" d="m806.94 347.77c0 8.1296 26.421 14.774 59.096 14.774 32.596 0 59.096-6.6444 59.096-14.774v0" stroke="#000" stroke-linecap="round" stroke-width="1.1725px" fill="none"/>
<text xml:space="preserve" font-size="20.011px" y="405.22781" x="822.96265" font-family="Arial" fill="#000000">Database</text>
<path stroke-linejoin="round" d="m866.03 315.96v-27.75" stroke="#262626" stroke-linecap="round" stroke-width="2.0324px" fill="none"/>
<path d="m872.21 314.4-6.1753 18.604-6.1754-18.604h12.351z" fill-rule="evenodd" fill="#262626"/>
<path d="m340.66 399.21v56.672h259.99v-56.672h-259.99z" fill-rule="evenodd" fill="#f2f2f2"/>
<path stroke-linejoin="round" d="m340.66 455.88h259.99v-56.672h-259.99v56.672z" stroke="#000" stroke-linecap="round" stroke-width=".39084px" fill="none"/>
<text xml:space="preserve" font-size="20.011px" y="421.48694" x="375.21094" font-family="Arial" fill="#000000">Use JavaScript for </text>
<text font-weight="bold" xml:space="preserve" font-size="20.011px" y="421.48694" x="544.05585" font-family="Arial" fill="#000000">all </text>
<text xml:space="preserve" font-size="20.011px" y="445.25031" x="395.22217" font-family="Arial" fill="#000000">application code</text>
<text xml:space="preserve" font-size="20.011px" y="445.25031" x="540.30371" font-family="Arial" fill="#000000">!</text>
<path stroke-linejoin="round" d="m600.65 399.21 182.92-110.38" stroke="#000" stroke-linecap="round" stroke-width="2.0324px" fill="none"/>
<path d="m779.97 285.16 15.399-3.4394-10.24 12.038-5.1592-8.5986z" fill-rule="evenodd"/>
<path stroke-linejoin="round" d="m340.66 399.21-172.91-114.52" stroke="#000" stroke-linecap="round" stroke-width="2.0324px" fill="none"/>
<path d="m166.03 289.62-9.693-12.507 15.243 4.143-5.55 8.3641z" fill-rule="evenodd"/>
</g>
</g>
</svg>
