<?xml version="1.0" encoding="UTF-8" standalone="no"?>
<svg
   xmlns:dc="http://purl.org/dc/elements/1.1/"
   xmlns:cc="http://creativecommons.org/ns#"
   xmlns:rdf="http://www.w3.org/1999/02/22-rdf-syntax-ns#"
   xmlns:svg="http://www.w3.org/2000/svg"
   xmlns="http://www.w3.org/2000/svg"
   xmlns:sodipodi="http://sodipodi.sourceforge.net/DTD/sodipodi-0.dtd"
   xmlns:inkscape="http://www.inkscape.org/namespaces/inkscape"
   width="200"
   height="33.956661"
   id="svg3336"
   version="1.1"
   inkscape:version="0.91 r13725"
   sodipodi:docname="crossbar.svg"
   inkscape:export-filename="/home/oberstet/scm/crossbario/crossbar-fabric-center/docs/_static/crossbar.png"
   inkscape:export-xdpi="90.114868"
   inkscape:export-ydpi="90.114868">
  <metadata
     id="metadata3367">
    <rdf:RDF>
      <cc:Work
         rdf:about="">
        <dc:format>image/svg+xml</dc:format>
        <dc:type
           rdf:resource="http://purl.org/dc/dcmitype/StillImage" />
        <dc:title />
      </cc:Work>
    </rdf:RDF>
  </metadata>
  <sodipodi:namedview
     pagecolor="#ffffff"
     bordercolor="#666666"
     borderopacity="1"
     objecttolerance="10"
     gridtolerance="10"
     guidetolerance="10"
     inkscape:pageopacity="0"
     inkscape:pageshadow="2"
     inkscape:window-width="1557"
     inkscape:window-height="876"
     id="namedview3365"
     showgrid="false"
     showguides="false"
     inkscape:guide-bbox="true"
     inkscape:zoom="1.6572815"
     inkscape:cx="-56.332765"
     inkscape:cy="-123.49871"
     inkscape:current-layer="g3355"
     inkscape:snap-intersection-paths="true"
     inkscape:object-nodes="true"
     fit-margin-top="0"
     fit-margin-left="0"
     fit-margin-right="0"
     fit-margin-bottom="0"
     inkscape:window-x="43"
     inkscape:window-y="24"
     inkscape:window-maximized="1">
    <sodipodi:guide
       position="92.320746,46.368809"
       orientation="0,1"
       id="guide3512" />
    <sodipodi:guide
       position="92.320746,-12.819031"
       orientation="0,1"
       id="guide3514" />
  </sodipodi:namedview>
  <desc
     id="desc3338">C:\idmanagement.org\tavendo\logo_CB\logo_CB_work_01.dxf - scale = 1.000000, origin = (0.000000, 0.000000), auto = False</desc>
  <defs
     id="defs3340" />
  <g
     inkscape:label="0"
     inkscape:groupmode="layer"
     id="g3355"
     transform="translate(-239.75403,-726.61648)">
    <g
       id="g4152"
       inkscape:export-xdpi="300"
       inkscape:export-ydpi="300">
      <path
         inkscape:connector-curvature="0"
         id="path3357"
         d="m 239.7541,726.61648 0,7.15252 9.4894,0 6.29103,6.29104 -2.40751,2.4075 -5.29406,-5.29406 -8.07886,0 0,12.83488 8.30703,0 16.23936,-16.23936 9.40964,0 0,-7.15252 -33.95603,0 z m 25.95693,10.557 -16.23935,16.23936 -9.71758,0 0,7.1603 33.95603,0 0,-7.1603 -9.63782,0 -6.13481,-6.13546 2.40751,-2.40751 5.13784,5.13849 8.22728,0 0,-12.83488 -7.9991,0 z"
         style="fill:#ffff00;fill-opacity:1;stroke:none;stroke-width:0.45117018;stroke-linecap:round" />
      <path
         inkscape:connector-curvature="0"
         id="path3359"
         d="m 239.75403,753.4127 9.71762,0 16.23936,-16.23937 7.9993,0 0,-3.40457 -9.40952,0 -16.23937,16.23936 -8.30739,0 0,3.40458 z"
         style="fill:#333333;fill-opacity:1;stroke:none;stroke-width:0.45117018;stroke-linecap:round" />
      <path
         inkscape:connector-curvature="0"
         id="path3361"
         d="m 257.93729,747.27746 2.40741,-2.4074 5.13806,5.13806 8.22755,0 0,3.40458 -9.63778,0 -6.13524,-6.13524 z"
         style="fill:#333333;fill-opacity:1;stroke:none;stroke-width:0.45117018;stroke-linecap:round" />
      <path
         inkscape:connector-curvature="0"
         id="path3363"
         d="m 247.83317,737.17333 -8.07914,0 0,-3.40457 9.48937,0 6.2913,6.2913 -2.4074,2.40741 -5.29413,-5.29414 z"
         style="fill:#333333;fill-opacity:1;stroke:none;stroke-width:0.45117018;stroke-linecap:round;stroke-opacity:1" />
      <g
         transform="matrix(0.33189155,0,0,0.33189155,214.65313,496.73037)"
         id="text3369"
         style="font-style:normal;font-variant:normal;font-weight:normal;font-stretch:normal;font-size:91.31777191px;line-height:125%;font-family:Play;-inkscape-font-specification:Play;text-align:start;writing-mode:lr-tb;text-anchor:start;opacity:1;fill:#ffffff;fill-opacity:1;stroke:none;stroke-width:0.0662799;stroke-linecap:butt;stroke-linejoin:round;stroke-miterlimit:4;stroke-dasharray:none;stroke-opacity:1">
        <path
           id="path3367"
           style="font-style:normal;font-variant:normal;font-weight:bold;font-stretch:normal;font-family:Play;-inkscape-font-specification:'Play Bold';fill:#ffffff;fill-opacity:1;stroke:none;stroke-width:0.0662799"
           d="m 253.79276,772.33522 q -10.04496,2.00899 -19.17674,2.00899 -3.65271,0 -6.94015,-0.36527 -3.19612,-0.27396 -7.2141,-1.27845 -3.92667,-1.09582 -6.75752,-2.83085 -2.73953,-1.82636 -4.6572,-5.02248 -1.91768,-3.28744 -1.91768,-7.67069 l 0,-26.02557 q 0,-17.89828 27.48665,-17.89828 6.75752,0 18.81146,2.00899 l 0,10.68418 q -10.86681,-2.5569 -18.62882,-2.5569 -3.1048,0 -5.1138,0.18264 -1.91767,0.18263 -4.1093,0.91317 -2.1003,0.73055 -3.19612,2.37427 -1.00449,1.5524 -1.00449,4.1093 l 0,25.2037 q 0,8.03597 14.70216,8.03597 6.48356,0 17.71565,-2.64822 l 0,10.7755 z"
           inkscape:connector-curvature="0" />
        <path
           id="path3369"
           style="font-style:normal;font-variant:normal;font-weight:bold;font-stretch:normal;font-family:Play;-inkscape-font-specification:'Play Bold';fill:#ffffff;fill-opacity:1;stroke:none;stroke-width:0.0662799"
           d="m 291.38429,739.3695 -4.56589,0 q -5.47907,0 -8.30992,1.73504 -2.73953,1.64372 -2.73953,5.75302 l 0,26.57347 -13.3324,0 0,-44.1978 12.69317,0 0,7.76201 q 0.0913,-3.28744 3.74403,-5.93566 3.74403,-2.73953 7.76201,-2.73953 l 4.74853,0 0,11.04945 z"
           inkscape:connector-curvature="0" />
        <path
           id="path3371"
           style="font-style:normal;font-variant:normal;font-weight:bold;font-stretch:normal;font-family:Play;-inkscape-font-specification:'Play Bold';fill:#ffffff;fill-opacity:1;stroke:none;stroke-width:0.0662799"
           d="m 342.29252,745.21384 0,13.05844 q 0,4.29194 -1.36977,7.39674 -1.36976,3.01349 -3.37876,4.74852 -2.00899,1.64372 -5.29643,2.5569 -3.19612,0.91318 -5.93565,1.09581 -2.64822,0.27396 -6.48356,0.27396 -3.83535,0 -6.57488,-0.27396 -2.64822,-0.18263 -5.93566,-1.09581 -3.19612,-0.91318 -5.20511,-2.5569 -2.00899,-1.73503 -3.37876,-4.74852 -1.36976,-3.1048 -1.36976,-7.39674 l 0,-13.05844 q 0,-4.56589 1.36976,-7.76201 1.46109,-3.28744 3.47008,-5.02248 2.10031,-1.73504 5.38775,-2.64821 3.28744,-1.0045 5.84433,-1.18714 2.64822,-0.27395 6.39225,-0.27395 3.74403,0 6.30092,0.27395 2.64822,0.18264 5.93566,1.18714 3.28744,0.91317 5.29643,2.64821 2.10031,1.73504 3.47007,5.02248 1.46109,3.19612 1.46109,7.76201 z m -13.3324,14.61084 0,-16.71115 q 0,-3.56139 -1.82635,-5.02248 -1.82636,-1.5524 -7.30542,-1.5524 -5.47907,0 -7.30542,1.5524 -1.82636,1.46109 -1.82636,5.02248 l 0,16.71115 q 0,3.47008 1.73504,4.83984 1.82635,1.36977 7.39674,1.36977 5.57038,0 7.30542,-1.36977 1.82635,-1.36976 1.82635,-4.83984 z"
           inkscape:connector-curvature="0" />
        <path
           id="path3373"
           style="font-style:normal;font-variant:normal;font-weight:bold;font-stretch:normal;font-family:Play;-inkscape-font-specification:'Play Bold';fill:#ffffff;fill-opacity:1;stroke:none;stroke-width:0.0662799"
           d="m 390.76371,756.17197 0,5.57039 q 0,3.28744 -1.27845,5.6617 -1.18713,2.37426 -3.10481,3.74403 -1.82635,1.27844 -4.83984,2.00899 -3.01348,0.73054 -5.84434,0.91317 -2.73953,0.27396 -6.48356,0.27396 -7.2141,0 -17.44169,-1.36977 l 0,-8.85782 q 12.69317,1.91767 17.62433,1.91767 3.92666,0 6.02697,-0.73054 2.19163,-0.82186 2.19163,-3.10481 l 0,-2.73953 q 0,-2.10031 -1.18713,-3.1048 -1.18713,-1.09582 -5.1138,-1.09582 l -5.75302,0 q -6.94015,0 -10.86681,-2.73953 -3.83535,-2.83085 -3.83535,-8.2186 l 0,-5.38775 q 0,-6.02697 5.75302,-8.30991 5.75302,-2.28295 16.25456,-2.28295 4.38326,0 15.70666,0.82186 l 0,8.49255 q -14.24557,-1.09581 -16.07193,-1.09581 -5.57038,0 -7.03147,0.82186 -1.46108,0.73054 -1.46108,2.92217 l 0,2.37426 q 0,1.09581 1.09581,2.00899 1.18713,0.91318 3.5614,0.91318 l 5.84433,0 q 16.25457,0 16.25457,10.59286 z"
           inkscape:connector-curvature="0" />
        <path
           id="path3375"
           style="font-style:normal;font-variant:normal;font-weight:bold;font-stretch:normal;font-family:Play;-inkscape-font-specification:'Play Bold';fill:#ffffff;fill-opacity:1;stroke:none;stroke-width:0.0662799"
           d="m 438.74122,756.17197 0,5.57039 q 0,3.28744 -1.27845,5.6617 -1.18713,2.37426 -3.10481,3.74403 -1.82635,1.27844 -4.83984,2.00899 -3.01349,0.73054 -5.84434,0.91317 -2.73953,0.27396 -6.48356,0.27396 -7.2141,0 -17.44169,-1.36977 l 0,-8.85782 q 12.69317,1.91767 17.62433,1.91767 3.92666,0 6.02697,-0.73054 2.19163,-0.82186 2.19163,-3.10481 l 0,-2.73953 q 0,-2.10031 -1.18713,-3.1048 -1.18714,-1.09582 -5.1138,-1.09582 l -5.75302,0 q -6.94015,0 -10.86681,-2.73953 -3.83535,-2.83085 -3.83535,-8.2186 l 0,-5.38775 q 0,-6.02697 5.75302,-8.30991 5.75302,-2.28295 16.25456,-2.28295 4.38326,0 15.70666,0.82186 l 0,8.49255 q -14.24557,-1.09581 -16.07193,-1.09581 -5.57038,0 -7.03147,0.82186 -1.46108,0.73054 -1.46108,2.92217 l 0,2.37426 q 0,1.09581 1.09581,2.00899 1.18713,0.91318 3.5614,0.91318 l 5.84433,0 q 16.25457,0 16.25457,10.59286 z"
           inkscape:connector-curvature="0" />
        <path
           id="path3377"
           style="font-style:normal;font-variant:normal;font-weight:bold;font-stretch:normal;font-family:Play;-inkscape-font-specification:'Play Bold';fill:#ffffff;fill-opacity:1;stroke:none;stroke-width:0.0662799"
           d="m 493.93281,743.20485 0,14.51952 q 0,9.04046 -5.47906,12.87581 -5.38775,3.74403 -17.4417,3.74403 -12.69317,0 -17.53301,-3.92667 -4.83984,-4.01798 -4.83984,-12.69317 l 0,-48.21578 13.33239,0 0,24.10789 q 1.18713,-3.01348 4.38326,-4.1093 3.28744,-1.18713 9.95363,-1.18713 5.6617,0 9.2231,0.91318 3.56139,0.91318 5.38775,3.01349 1.82635,2.00899 2.37426,4.47457 0.63922,2.46558 0.63922,6.48356 z m -13.33239,16.25456 0,-16.34588 q 0,-4.29194 -1.64372,-5.38775 -1.5524,-1.18713 -7.85333,-1.18713 -5.6617,0 -7.39674,1.46108 -1.73504,1.46109 -1.73504,5.1138 l 0,16.34588 q 0,3.92667 1.64372,5.29643 1.73504,1.27845 7.57938,1.27845 5.84434,0 7.57937,-1.27845 1.82636,-1.36976 1.82636,-5.29643 z"
           inkscape:connector-curvature="0" />
        <path
           id="path3379"
           style="font-style:normal;font-variant:normal;font-weight:bold;font-stretch:normal;font-family:Play;-inkscape-font-specification:'Play Bold';fill:#ffffff;fill-opacity:1;stroke:none;stroke-width:0.0662799"
           d="m 544.10052,773.43103 -13.05844,0 0,-4.01798 q -1.46108,2.64821 -4.20062,3.83534 -2.73953,1.09582 -10.04495,1.09582 -8.94914,0 -11.87131,-2.73954 -2.92217,-2.73953 -2.92217,-11.41472 0,-7.85333 3.01348,-10.86681 3.01349,-3.10481 10.7755,-3.10481 l 14.97612,0 0,-3.01348 q 0,-4.01798 -1.91768,-5.29643 -1.82635,-1.36977 -7.85333,-1.36977 -5.6617,0 -15.52402,1.09581 l 0,-8.40123 q 7.57938,-0.91318 16.89379,-0.91318 12.23658,0 16.98511,3.01349 4.74852,2.92217 4.74852,11.68867 l 0,30.40882 z m -13.33239,-11.3234 0,-8.58387 -9.13178,0 q -4.38325,0 -5.47907,1.00449 -1.09581,1.0045 -1.09581,5.38775 0,4.29194 1.09581,5.20511 1.18713,0.91318 5.84434,0.91318 2.28294,0 3.37876,0 1.09581,-0.0913 2.37426,-0.27395 1.27845,-0.18264 1.73504,-0.54791 0.5479,-0.45659 0.91318,-1.18713 0.36527,-0.73054 0.36527,-1.91767 z"
           inkscape:connector-curvature="0" />
        <path
           id="path3381"
           style="font-style:normal;font-variant:normal;font-weight:bold;font-stretch:normal;font-family:Play;-inkscape-font-specification:'Play Bold';fill:#ffffff;fill-opacity:1;stroke:none;stroke-width:0.0662799"
           d="m 584.77829,739.3695 -4.56589,0 q -5.47906,0 -8.30991,1.73504 -2.73954,1.64372 -2.73954,5.75302 l 0,26.57347 -13.33239,0 0,-44.1978 12.69317,0 0,7.76201 q 0.0913,-3.28744 3.74403,-5.93566 3.74403,-2.73953 7.76201,-2.73953 l 4.74852,0 0,11.04945 z"
           inkscape:connector-curvature="0" />
        <path
           id="path3383"
           style="fill:#ffffff;fill-opacity:1;stroke:none;stroke-width:0.0662799"
           d="m 603.17741,773.43103 -10.59286,0 0,-9.86232 10.59286,0 0,9.86232 z"
           inkscape:connector-curvature="0" />
        <path
           id="path3385"
           style="fill:#ffffff;fill-opacity:1;stroke:none;stroke-width:0.0662799"
           d="m 624.89819,721.83649 -8.2186,0 0,-8.58387 8.2186,0 0,8.58387 z m 0,51.59454 -8.2186,0 0,-44.1978 8.2186,0 0,44.1978 z"
           inkscape:connector-curvature="0" />
        <path
           id="path3387"
           style="fill:#ffffff;fill-opacity:1;stroke:none;stroke-width:0.0662799"
           d="m 678.23632,744.11803 0,15.34138 q 0,4.1093 -1.0045,6.94015 -1.00449,2.83085 -2.55689,4.38325 -1.55241,1.55241 -4.47458,2.37427 -2.83085,0.82186 -5.47906,1.00449 -2.5569,0.18264 -6.84883,0.18264 -5.47907,0 -8.58388,-0.36527 -3.01348,-0.36527 -6.11829,-1.73504 -3.01348,-1.46109 -4.38325,-4.56589 -1.27845,-3.1048 -1.27845,-8.2186 l 0,-15.34138 q 0,-4.38326 1.0045,-7.39674 1.09581,-3.01349 2.5569,-4.65721 1.5524,-1.64372 4.47457,-2.46558 2.92216,-0.91318 5.38774,-1.09581 2.5569,-0.18264 6.94016,-0.18264 4.38325,0 6.84883,0.18264 2.5569,0.18263 5.47906,1.09581 2.92217,0.82186 4.38326,2.46558 1.5524,1.64372 2.5569,4.65721 1.09581,3.01348 1.09581,7.39674 z m -8.40124,16.52851 0,-17.89828 q 0,-6.11829 -2.46558,-7.57938 -2.46558,-1.46108 -9.49704,-1.46108 -7.03147,0 -9.49705,1.46108 -2.46558,1.46109 -2.46558,7.57938 l 0,17.89828 q 0,2.92217 0.63922,4.65721 0.63923,1.73504 2.37426,2.5569 1.73504,0.73054 3.5614,0.91317 1.82635,0.18264 5.38775,0.18264 3.56139,0 5.38774,-0.18264 1.82636,-0.18263 3.5614,-0.91317 1.73503,-0.82186 2.37426,-2.5569 0.63922,-1.73504 0.63922,-4.65721 z"
           inkscape:connector-curvature="0" />
      </g>
    </g>
  </g>
</svg>
