<?xml version="1.0" encoding="UTF-8" standalone="no"?>
<svg
   xmlns:dc="http://purl.org/dc/elements/1.1/"
   xmlns:cc="http://creativecommons.org/ns#"
   xmlns:rdf="http://www.w3.org/1999/02/22-rdf-syntax-ns#"
   xmlns:svg="http://www.w3.org/2000/svg"
   xmlns="http://www.w3.org/2000/svg"
   xmlns:sodipodi="http://sodipodi.sourceforge.net/DTD/sodipodi-0.dtd"
   xmlns:inkscape="http://www.inkscape.org/namespaces/inkscape"
   version="1.1"
   id="svg3336"
   height="106.3125"
   width="641.22162"
   sodipodi:docname="crossbarfx.svg"
   inkscape:version="0.92.3 (2405546, 2018-03-11)"
   inkscape:export-filename="/home/oberstet/scm/crossbario/crossbarfx/docs/_static/crossbarfx.png"
   inkscape:export-xdpi="96"
   inkscape:export-ydpi="96">
  <sodipodi:namedview
     pagecolor="#ffffff"
     bordercolor="#666666"
     borderopacity="1"
     objecttolerance="10"
     gridtolerance="10"
     guidetolerance="10"
     inkscape:pageopacity="0"
     inkscape:pageshadow="2"
     inkscape:window-width="2503"
     inkscape:window-height="1385"
     id="namedview22"
     showgrid="false"
     inkscape:zoom="2.757237"
     inkscape:cx="115.46933"
     inkscape:cy="54.094188"
     inkscape:window-x="57"
     inkscape:window-y="27"
     inkscape:window-maximized="1"
     inkscape:current-layer="svg3336" />
  <metadata
     id="metadata3367">
    <rdf:RDF>
      <cc:Work
         rdf:about="">
        <dc:format>image/svg+xml</dc:format>
        <dc:type
           rdf:resource="http://purl.org/dc/dcmitype/StillImage" />
        <dc:title />
      </cc:Work>
    </rdf:RDF>
  </metadata>
  <desc
     id="desc3338">C:\idmanagement.org\tavendo\logo_CB\logo_CB_work_01.dxf - scale = 1.000000, origin = (0.000000, 0.000000), auto = False</desc>
  <defs
     id="defs3340" />
  <g
     transform="translate(-73.629834,309.77923)"
     id="g3355">
    <path
       id="path3357"
       d="m 75.630064,-307.77923 0,21.55078 28.591856,0 18.95508,18.95508 -7.25391,7.2539 -15.951174,-15.95117 -24.341852,0 0,38.67188 25.029356,0 48.92969,-48.92969 28.35156,0 0,-21.55078 -102.310606,0 z m 78.209046,31.80859 -48.92969,48.92969 -29.279356,0 0,21.57422 102.310606,0 0,-21.57422 -29.03906,0 -18.48438,-18.48633 7.25391,-7.25391 15.48047,15.48243 24.78906,0 0,-38.67188 -24.10156,0 z"
       style="fill:#ffff00;fill-opacity:1;stroke:none;stroke-width:0.45117018;stroke-linecap:round" />
    <path
       id="path3359"
       d="m 75.629834,-227.04137 29.279506,0 48.92973,-48.92972 24.10215,0 0,-10.25812 -28.3512,0 -48.92973,48.92973 -25.030456,0 0,10.25811 z"
       style="fill:#333333;fill-opacity:1;stroke:none;stroke-width:0.45117018;stroke-linecap:round" />
    <path
       id="path3361"
       d="m 130.41661,-245.52703 7.25359,-7.25358 15.48113,15.48113 24.78989,0 0,10.25811 -29.03895,0 -18.48566,-18.48566 z"
       style="fill:#333333;fill-opacity:1;stroke:none;stroke-width:0.45117018;stroke-linecap:round" />
    <path
       id="path3363"
       d="m 99.972546,-275.97109 -24.342712,0 0,-10.25812 28.591766,0 18.95592,18.95592 -7.25358,7.25359 -15.951394,-15.95139 z"
       style="fill:#333333;fill-opacity:1;stroke:none;stroke-width:0.45117018;stroke-linecap:round;stroke-opacity:1" />
    <g
       id="text3369"
       style="font-style:normal;font-variant:normal;font-weight:normal;font-stretch:normal;font-size:91.31777191px;line-height:125%;font-family:Play;-inkscape-font-specification:Play;text-align:start;writing-mode:lr-tb;text-anchor:start;opacity:1;fill:#ffffff;fill-opacity:1;stroke:none;stroke-width:0.0662799;stroke-linecap:butt;stroke-linejoin:round;stroke-miterlimit:4;stroke-dasharray:none;stroke-opacity:1">
      <path
         id="path5240"
         style="font-style:normal;font-variant:normal;font-weight:bold;font-stretch:normal;font-family:Play;-inkscape-font-specification:'Play Bold';fill:#ffffff;fill-opacity:1;stroke:none;stroke-width:0.0662799"
         d="m 234.61602,-226.08934 q -4.01798,0 -7.2141,-0.36527 -3.1048,-0.36527 -6.84883,-1.36977 -4.20062,-1.09581 -6.94015,-2.83085 -2.73954,-1.82635 -4.56589,-5.02248 -1.91768,-3.19612 -1.91768,-7.57937 l 0,-26.02557 q 0,-17.89828 27.48665,-17.89828 7.03147,0 18.81146,2.00899 l 0,10.68418 q -10.59286,-2.5569 -18.62882,-2.5569 -3.37876,0 -5.29643,0.18264 -1.82636,0.18263 -3.83535,0.91318 -4.29193,1.46108 -4.29193,6.48356 l 0,25.2037 q 0,8.03597 14.70216,8.03597 6.30092,0 17.71565,-2.64822 l 0,10.7755 q -9.77101,2.00899 -19.17674,2.00899 z" />
      <path
         id="path5242"
         style="font-style:normal;font-variant:normal;font-weight:bold;font-stretch:normal;font-family:Play;-inkscape-font-specification:'Play Bold';fill:#ffffff;fill-opacity:1;stroke:none;stroke-width:0.0662799"
         d="m 262.43655,-271.20032 12.69317,0 0,7.76201 q 0,-2.10031 1.73504,-4.1093 1.73504,-2.00899 4.38325,-3.28744 2.73954,-1.27845 5.38775,-1.27845 l 4.74853,0 0,11.04945 -4.56589,0 q -5.6617,0 -8.40124,1.73504 -2.64821,1.73504 -2.64821,5.75302 l 0,26.57347 -13.3324,0 0,-44.1978 z" />
      <path
         id="path5244"
         style="font-style:normal;font-variant:normal;font-weight:bold;font-stretch:normal;font-family:Play;-inkscape-font-specification:'Play Bold';fill:#ffffff;fill-opacity:1;stroke:none;stroke-width:0.0662799"
         d="m 319.82835,-226.08934 q -4.1093,0 -6.75752,-0.27395 -2.64821,-0.27396 -5.6617,-1.09582 -3.28744,-0.91317 -5.29643,-2.55689 -2.00899,-1.73504 -3.37876,-4.83985 -1.36976,-3.01348 -1.36976,-7.30542 l 0,-13.05844 q 0,-4.38325 1.36976,-7.67069 1.36977,-3.28744 3.56139,-5.1138 1.91768,-1.5524 5.02248,-2.55689 3.19612,-1.09582 6.20961,-1.36977 3.47008,-0.18264 6.30093,-0.18264 4.20061,0 6.66619,0.27396 2.5569,0.18263 5.57039,1.09581 3.28744,1.0045 5.29643,2.73953 2.10031,1.73504 3.56139,4.93116 1.36977,3.28744 1.36977,7.85333 l 0,13.05844 q 0,4.1093 -1.36977,7.21411 -1.27845,3.1048 -3.37876,4.83984 -1.82635,1.5524 -5.02247,2.5569 -3.10481,0.91317 -6.11829,1.18713 -2.73954,0.27395 -6.57488,0.27395 z m 0,-8.30992 q 3.74403,0 5.6617,-0.5479 1.91767,-0.63923 2.64821,-1.91768 0.82186,-1.27845 0.82186,-3.74403 l 0,-16.71115 q 0,-3.65271 -1.91767,-5.11379 -1.91767,-1.46109 -7.2141,-1.46109 -5.29643,0 -7.21411,1.46109 -1.91767,1.46108 -1.91767,5.11379 l 0,16.71115 q 0,2.46558 0.73054,3.74403 0.82186,1.27845 2.73954,1.91768 1.91767,0.5479 5.6617,0.5479 z" />
      <path
         id="path5246"
         style="font-style:normal;font-variant:normal;font-weight:bold;font-stretch:normal;font-family:Play;-inkscape-font-specification:'Play Bold';fill:#ffffff;fill-opacity:1;stroke:none;stroke-width:0.0662799"
         d="m 369.21271,-226.08934 q -7.12278,0 -17.44169,-1.36977 l 0,-8.85782 q 12.69317,1.91767 17.62433,1.91767 4.20062,0 6.20961,-0.82186 2.00899,-0.82186 2.00899,-3.01348 l 0,-2.73954 q 0,-2.28294 -1.27845,-3.19612 -1.27845,-1.00449 -5.02248,-1.00449 l -5.75302,0 q -7.03147,0 -10.86681,-2.73954 -3.83535,-2.83085 -3.83535,-8.2186 l 0,-5.38775 q 0,-5.75302 5.47907,-8.12728 5.47906,-2.46558 16.52851,-2.46558 4.38326,0 15.70666,0.82186 l 0,8.49256 q -14.24557,-1.09582 -16.07193,-1.09582 -5.38775,0 -7.03147,0.73054 -1.46108,0.82186 -1.46108,3.01349 l 0,2.37426 q 0,1.18713 1.18713,2.10031 1.18713,0.82186 3.47008,0.82186 l 5.84433,0 q 16.25457,0 16.25457,10.59286 l 0,5.57039 q 0,3.19612 -1.18713,5.57038 -1.18713,2.37426 -3.10481,3.74403 -1.82635,1.27845 -4.74852,2.00899 -2.83085,0.73054 -5.93566,1.0045 -2.83085,0.27395 -6.57488,0.27395 z" />
      <path
         id="path5248"
         style="font-style:normal;font-variant:normal;font-weight:bold;font-stretch:normal;font-family:Play;-inkscape-font-specification:'Play Bold';fill:#ffffff;fill-opacity:1;stroke:none;stroke-width:0.0662799"
         d="m 417.19022,-226.08934 q -7.12278,0 -17.44169,-1.36977 l 0,-8.85782 q 12.69317,1.91767 17.62433,1.91767 4.20061,0 6.20961,-0.82186 2.00899,-0.82186 2.00899,-3.01348 l 0,-2.73954 q 0,-2.28294 -1.27845,-3.19612 -1.27845,-1.00449 -5.02248,-1.00449 l -5.75302,0 q -7.03147,0 -10.86681,-2.73954 -3.83535,-2.83085 -3.83535,-8.2186 l 0,-5.38775 q 0,-5.75302 5.47907,-8.12728 5.47906,-2.46558 16.52851,-2.46558 4.38326,0 15.70666,0.82186 l 0,8.49256 q -14.24557,-1.09582 -16.07193,-1.09582 -5.38775,0 -7.03147,0.73054 -1.46108,0.82186 -1.46108,3.01349 l 0,2.37426 q 0,1.18713 1.18713,2.10031 1.18713,0.82186 3.47008,0.82186 l 5.84433,0 q 16.25457,0 16.25457,10.59286 l 0,5.57039 q 0,3.19612 -1.18714,5.57038 -1.18713,2.37426 -3.1048,3.74403 -1.82635,1.27845 -4.74852,2.00899 -2.83085,0.73054 -5.93566,1.0045 -2.83085,0.27395 -6.57488,0.27395 z" />
      <path
         id="path5250"
         style="font-style:normal;font-variant:normal;font-weight:bold;font-stretch:normal;font-family:Play;-inkscape-font-specification:'Play Bold';fill:#ffffff;fill-opacity:1;stroke:none;stroke-width:0.0662799"
         d="m 471.01205,-226.08934 q -8.40123,0 -13.33239,-1.73504 -4.83984,-1.73504 -6.94015,-5.29643 -2.10031,-3.65271 -2.10031,-9.58836 l 0,-48.21579 13.33239,0 0,24.10789 q 1.18713,-3.01348 4.38326,-4.1093 3.19612,-1.18713 9.95363,-1.18713 5.75302,0 9.2231,0.91318 3.56139,0.91318 5.38775,2.92217 1.73503,2.00899 2.37426,4.47457 0.63922,2.37426 0.63922,6.57488 l 0,14.51953 q 0,8.94914 -5.38775,12.78448 -5.38774,3.83535 -17.53301,3.83535 z m 0.18264,-8.30992 q 3.92666,0 5.93565,-0.5479 2.00899,-0.54791 2.73954,-1.91768 0.73054,-1.36976 0.73054,-4.1093 l 0,-16.34588 q 0,-3.01348 -0.63923,-4.29193 -0.63922,-1.36977 -2.55689,-1.82636 -1.91768,-0.45659 -6.30093,-0.45659 -3.74403,0 -5.75302,0.63923 -1.91767,0.63922 -2.64821,2.00899 -0.73055,1.36976 -0.73055,3.92666 l 0,16.34588 q 0,2.73954 0.63923,4.1093 0.73054,1.36977 2.64821,1.91768 2.00899,0.5479 5.93566,0.5479 z" />
      <path
         id="path5252"
         style="font-style:normal;font-variant:normal;font-weight:bold;font-stretch:normal;font-family:Play;-inkscape-font-specification:'Play Bold';fill:#ffffff;fill-opacity:1;stroke:none;stroke-width:0.0662799"
         d="m 516.79651,-226.08934 q -6.20961,0 -9.31442,-1.09581 -3.01348,-1.18713 -4.29193,-4.1093 -1.18713,-3.01349 -1.18713,-8.94914 0,-5.29644 1.27845,-8.30992 1.36976,-3.01349 4.29193,-4.29194 3.01349,-1.36976 8.2186,-1.36976 l 14.97612,0 0,-3.01349 q 0,-2.83085 -0.82186,-4.20062 -0.73055,-1.36976 -2.83085,-1.91767 -2.009,-0.54791 -6.1183,-0.54791 -5.6617,0 -15.52402,1.09582 l 0,-8.40124 q 7.21411,-0.91318 16.89379,-0.91318 8.49255,0 13.05844,1.27845 4.65721,1.27845 6.6662,4.38325 2.00899,3.10481 2.00899,9.04046 l 0,30.40882 -13.05844,0 0,-4.01798 q -1.5524,2.64822 -4.20062,3.74403 -2.64821,1.18713 -10.04495,1.18713 z m 5.20511,-8.30992 q 4.01798,0 5.75302,-0.27395 1.27845,-0.18264 1.73504,-0.54791 0.5479,-0.36527 0.91318,-1.18713 0.36527,-0.63922 0.36527,-1.91767 l 0,-8.58387 -9.13178,0 q -3.10481,0 -4.38325,0.45659 -1.27845,0.36527 -1.73504,1.64372 -0.45659,1.18713 -0.45659,4.29193 0,3.01349 0.45659,4.20062 0.45659,1.18713 1.73504,1.5524 1.36976,0.36527 4.74852,0.36527 z" />
      <path
         id="path5254"
         style="font-style:normal;font-variant:normal;font-weight:bold;font-stretch:normal;font-family:Play;-inkscape-font-specification:'Play Bold';fill:#ffffff;fill-opacity:1;stroke:none;stroke-width:0.0662799"
         d="m 555.83056,-271.20032 12.69317,0 0,7.76201 q 0,-2.10031 1.73504,-4.1093 1.73503,-2.00899 4.38325,-3.28744 2.73953,-1.27845 5.38775,-1.27845 l 4.74852,0 0,11.04945 -4.56589,0 q -5.6617,0 -8.40123,1.73504 -2.64822,1.73504 -2.64822,5.75302 l 0,26.57347 -13.33239,0 0,-44.1978 z" />
      <path
         id="path5256"
         style="fill:#ffffff;fill-opacity:1;stroke:none;stroke-width:0.0662799"
         d="m 614.9089,-286.26775 40.72772,0 0,6.20961 -31.8699,0 0,19.35936 28.85642,0 0,6.20961 -28.85642,0 0,27.48665 -8.85782,0 0,-59.26523 z" />
      <path
         id="path5258"
         style="fill:#ffffff;fill-opacity:1;stroke:none;stroke-width:0.0662799"
         d="m 680.98156,-257.2287 -20.91177,-29.03905 10.13627,0 15.79798,22.92076 15.79797,-22.92076 10.13628,0 -20.91177,29.03905 21.82494,30.22618 -10.13627,0 -16.71115,-24.10789 -16.71115,24.10789 -10.13628,0 21.82495,-30.22618 z" />
    </g>
  </g>
</svg>
