<?xml version="1.0" encoding="UTF-8" standalone="no"?>
<svg
   xmlns:dc="http://purl.org/dc/elements/1.1/"
   xmlns:cc="http://creativecommons.org/ns#"
   xmlns:rdf="http://www.w3.org/1999/02/22-rdf-syntax-ns#"
   xmlns:svg="http://www.w3.org/2000/svg"
   xmlns="http://www.w3.org/2000/svg"
   xmlns:sodipodi="http://sodipodi.sourceforge.net/DTD/sodipodi-0.dtd"
   xmlns:inkscape="http://www.inkscape.org/namespaces/inkscape"
   viewBox="0 0 1052.4 744.09"
   version="1.1"
   id="svg4599"
   sodipodi:docname="carousel_polyglot.svg"
   inkscape:version="0.92.0 r15299">
  <metadata
     id="metadata4605">
    <rdf:RDF>
      <cc:Work
         rdf:about="">
        <dc:format>image/svg+xml</dc:format>
        <dc:type
           rdf:resource="http://purl.org/dc/dcmitype/StillImage" />
      </cc:Work>
    </rdf:RDF>
  </metadata>
  <defs
     id="defs4603" />
  <sodipodi:namedview
     pagecolor="#ffffff"
     bordercolor="#666666"
     borderopacity="1"
     objecttolerance="10"
     gridtolerance="10"
     guidetolerance="10"
     inkscape:pageopacity="0"
     inkscape:pageshadow="2"
     inkscape:window-width="1366"
     inkscape:window-height="705"
     id="namedview4601"
     showgrid="false"
     inkscape:zoom="0.51125997"
     inkscape:cx="645.38926"
     inkscape:cy="408.13338"
     inkscape:window-x="-8"
     inkscape:window-y="-8"
     inkscape:window-maximized="1"
     inkscape:current-layer="svg4599" />
  <rect
     style="opacity:1;fill:#474341;fill-opacity:0.75376886;stroke:#0b0000;stroke-width:1.00157475;stroke-miterlimit:4;stroke-dasharray:none;stroke-opacity:1"
     id="rect4609"
     width="1055.3224"
     height="749.01465"
     x="-1.8885117"
     y="-1.0268803" />
  <g
     stroke-width="1.2404"
     fill="#fff"
     id="g4507">
    <path
       d="m933.89 107.36h-70.657v81.522h70.657zm-35.328 92.642c2.0644 0 3.7293-1.6596 3.7293-3.6845 0-2.058-1.6649-3.7176-3.7293-3.7176s-3.7293 1.6596-3.7293 3.7176c0 2.0248 1.6649 3.6845 3.7293 3.6845m40.889 3.7176h-81.78c-3.0967 0-5.594-2.4895-5.594-5.5765v-96.359c0-3.087 2.4973-5.5765 5.594-5.5765h81.778c3.0967 0 5.594 2.4895 5.594 5.5765v96.359c0 3.087-2.4973 5.5765-5.594 5.5765"
       fill-rule="evenodd"
       id="path4485" />
    <path
       d="m692.51 49.38 6.4289-0.85635c0.16606 4.0272 0.94891 6.7582 2.3011 8.2395 1.3758 1.4813 3.2737 2.2219 5.6934 2.2219 1.8029 0 3.3449-0.39346 4.626-1.2035 1.3048-0.78692 2.2062-1.8747 2.6806-3.2403 0.49817-1.3886 0.73539-3.5643 0.73539-6.5731v-36.175h7.1168v35.782c0 4.3744-0.54562 7.7766-1.6131 10.207-1.0912 2.407-2.823 4.2355-5.1953 5.5085-2.3486 1.2729-5.1241 1.8978-8.3029 1.8978-4.7208 0-8.3504-1.3193-10.841-3.9809-2.5145-2.6385-3.7244-6.5962-3.6295-11.827z"
       id="path4487" />
    <path
       d="m758.34 59.586c-2.4435 2.0367-4.8157 3.4718-7.0693 4.3049-2.2774 0.83321-4.697 1.2498-7.2829 1.2498-4.2938 0-7.5912-1.0184-9.8923-3.0551s-3.4398-4.6521-3.4398-7.823c0-1.8747 0.42701-3.5643 1.3048-5.1149 0.85401-1.5276 1.9927-2.7542 3.4161-3.7031 1.3997-0.92578 2.9891-1.6201 4.7445-2.1062 1.3048-0.32403 3.25-0.64805 5.8832-0.97208 5.3376-0.6249 9.2518-1.3656 11.766-2.2219 0.0474-0.87949 0.0474-1.435 0.0474-1.6665 0-2.6385-0.61679-4.4901-1.8741-5.5548-1.6843-1.4581-4.1989-2.1987-7.52-2.1987-3.1077 0-5.4088 0.53233-6.8795 1.597-1.4946 1.0647-2.5857 2.9394-3.2975 5.6473l-6.4526-0.85635c0.59306-2.7079 1.5419-4.8836 2.8941-6.5499 1.3522-1.6433 3.2975-2.9394 5.8357-3.8188 2.5384-0.90264 5.5036-1.3424 8.8485-1.3424 3.3212 0 6.0255 0.37031 8.1131 1.1341 2.0876 0.76378 3.6058 1.7358 4.6021 2.8931 0.97262 1.1572 1.6605 2.6154 2.0401 4.3744 0.21349 1.1109 0.33211 3.0783 0.33211 5.9482v8.6099c0 5.9945 0.14234 9.767 0.42701 11.364s0.83029 3.1014 1.6605 4.5595h-6.9033c-0.66423-1.3424-1.115-2.8931-1.3048-4.6984zm-0.56935-14.396c-2.396 0.97208-5.9781 1.7821-10.77 2.4534-2.7281 0.37031-4.6496 0.81007-5.7646 1.2729-1.1387 0.48604-1.9927 1.1804-2.6094 2.1062-0.61679 0.92578-0.92518 1.9442-0.92518 3.0551 0 1.7127 0.66424 3.1476 1.9927 4.3049 1.3522 1.1341 3.2975 1.7127 5.8595 1.7127 2.5384 0 4.8157-0.53233 6.7846-1.6201 1.9927-1.0878 3.4398-2.5691 4.3887-4.4669 0.71167-1.4581 1.0438-3.6106 1.0438-6.4342z"
       id="path4489" />
    <path
       d="m785.58 64.285-14.826-38.027h6.9744l8.3741 22.775c0.90145 2.4534 1.7317 5.0224 2.4908 7.6608 0.59307-1.9905 1.3997-4.4207 2.4435-7.2211l8.6824-23.214h6.7846l-14.756 38.027z"
       id="path4491" />
    <path
       d="m837.76 59.586c-2.4435 2.0367-4.7919 3.4718-7.0693 4.3049-2.2537 0.83321-4.6733 1.2498-7.2829 1.2498-4.2701 0-7.5674-1.0184-9.8686-3.0551-2.3011-2.0367-3.4398-4.6521-3.4398-7.823 0-1.8747 0.427-3.5643 1.281-5.1149 0.87774-1.5276 2.0164-2.7542 3.4161-3.7031 1.4234-0.92578 2.989-1.6201 4.7682-2.1062 1.2811-0.32403 3.25-0.64805 5.8595-0.97208 5.3376-0.6249 9.2755-1.3656 11.79-2.2219 0.0237-0.87949 0.0475-1.435 0.0475-1.6665 0-2.6385-0.64051-4.4901-1.8741-5.5548-1.6843-1.4581-4.1989-2.1987-7.5438-2.1987-3.1077 0-5.3851 0.53233-6.8795 1.597-1.4707 1.0647-2.562 2.9394-3.2737 5.6473l-6.4526-0.85635c0.56935-2.7079 1.5419-4.8836 2.8941-6.5499 1.3285-1.6433 3.2737-2.9394 5.8357-3.8188 2.5384-0.90264 5.48-1.3424 8.8485-1.3424 3.3212 0 6.0255 0.37031 8.1131 1.1341 2.0639 0.76378 3.6058 1.7358 4.5784 2.8931 0.97263 1.1572 1.6606 2.6154 2.0639 4.3744 0.21351 1.1109 0.33212 3.0783 0.33212 5.9482v8.6099c0 5.9945 0.14233 9.767 0.40329 11.364 0.28466 1.597 0.854 3.1014 1.6843 4.5595h-6.9033c-0.69-1.343-1.12-2.894-1.33-4.699zm-0.54578-14.396c-2.396 0.97208-6.0018 1.7821-10.794 2.4534-2.7043 0.37031-4.626 0.81007-5.7646 1.2729-1.115 0.48604-1.9927 1.1804-2.6094 2.1062-0.59308 0.92578-0.90146 1.9442-0.90146 3.0551 0 1.7127 0.66423 3.1476 1.9927 4.3049 1.3285 1.1341 3.2737 1.7127 5.8595 1.7127 2.5384 0 4.7919-0.53233 6.7846-1.6201s3.4398-2.5691 4.365-4.4669c0.71168-1.4581 1.0675-3.6106 1.0675-6.4342z"
       id="path4493" />
    <path
       d="m852.58 47.413 6.7372-0.55548c0.30839 2.6154 1.0438 4.7678 2.2062 6.4574 1.1624 1.6895 2.9653 3.0319 5.4088 4.0735 2.4672 1.0415 5.219 1.5738 8.2792 1.5738 2.7043 0 5.1004-0.39346 7.1879-1.1804 2.0876-0.78692 3.6295-1.8747 4.6496-3.2403 0.99635-1.3886 1.5182-2.8931 1.5182-4.5132 0-1.6433-0.49819-3.0783-1.4709-4.3049-0.97262-1.2267-2.5857-2.2682-4.8394-3.1014-1.447-0.55548-4.6496-1.4118-9.584-2.5691-4.958-1.1572-8.3978-2.245-10.39-3.2634-2.562-1.3193-4.4836-2.9394-5.7408-4.8836-1.2573-1.9442-1.8978-4.1429-1.8978-6.5499 0-2.6385 0.78284-5.1149 2.3248-7.4295 1.5419-2.2913 3.7719-4.0503 6.7372-5.2538 2.9653-1.1804 6.2628-1.7821 9.8923-1.7821 3.9854 0 7.4964 0.62491 10.533 1.8747 3.0602 1.2498 5.4088 3.1014 7.0456 5.5316 1.6368 2.4534 2.5145 5.2076 2.6332 8.2857l-6.8321 0.48604c-0.35585-3.3096-1.5894-5.8093-3.7244-7.522-2.1113-1.6895-5.2427-2.5227-9.3705-2.5227-4.3175 0-7.4488 0.76378-9.4179 2.2913-1.969 1.5507-2.9653 3.4023-2.9653 5.5778 0 1.8978 0.71168 3.4486 2.1113 4.6521 1.3522 1.2267 4.9343 2.4765 10.723 3.7495 5.7883 1.2729 9.7737 2.3839 11.909 3.356 3.1314 1.3886 5.4562 3.1939 6.9507 5.3464 1.4946 2.1525 2.2299 4.6521 2.2299 7.4758 0 2.7774-0.80657 5.4158-2.4435 7.8923-1.6605 2.4765-4.0091 4.3975-7.0693 5.763-3.0839 1.3656-6.5238 2.0599-10.367 2.0599-4.8868 0-8.9671-0.69434-12.265-2.083-3.2737-1.3886-5.8595-3.4718-7.7335-6.249-1.8741-2.7774-2.8467-5.925-2.9653-9.443z"
       id="path4495" />
    <path
       d="m929.84 50.351 6.5 0.83321c-0.71168 4.3744-2.5145 7.7766-5.4562 10.253-2.9179 2.4765-6.5 3.7031-10.77 3.7031-5.3376 0-9.6313-1.6895-12.858-5.0918-3.25-3.4023-4.8631-8.2857-4.8631-14.628 0-4.1197 0.68795-7.7072 2.0876-10.785 1.3997-3.0783 3.511-5.3928 6.3577-6.9203 2.8704-1.5507 5.9544-2.3145 9.323-2.3145 4.2226 0 7.6861 1.0415 10.39 3.1246 2.6806 2.083 4.4124 5.0686 5.1715 8.9107l-6.4288 0.94893c-0.61679-2.5459-1.6843-4.4669-3.25-5.763-1.5419-1.2729-3.4398-1.921-5.6459-1.921-3.3212 0-6.0255 1.1572-8.0894 3.4948-2.0876 2.3145-3.1314 5.9945-3.1314 11.04 0 5.1149 0.99634 8.8181 3.0128 11.133 1.9927 2.3145 4.6259 3.4718 7.8522 3.4718 2.5857 0 4.7682-0.76378 6.5-2.3145 1.7317-1.5507 2.8467-3.9345 3.2975-7.1748z"
       id="path4497" />
    <path
       d="m941.9 64.285v-38.027h5.9544v5.763c1.5182-2.7079 2.9179-4.4669 4.1989-5.3464 1.2811-0.85635 2.7043-1.2729 4.2464-1.2729 2.23 0 4.4836 0.69434 6.7846 2.0599l-2.2774 5.9945c-1.6132-0.92578-3.2263-1.3886-4.8394-1.3886-1.447 0-2.7518 0.4166-3.8905 1.2498-1.1624 0.85635-1.969 2.0367-2.4672 3.5411-0.73539 2.2913-1.0912 4.7909-1.0912 7.522v19.905z"
       id="path4499" />
    <path
       d="m967.12 19.198v-7.4063h6.6186v7.4063zm0 45.086v-38.026h6.6186v38.027z"
       id="path4501" />
    <path
       d="m983.82 78.865v-52.607h6.0255v4.9298c1.4234-1.921 3.0365-3.3791 4.8157-4.3512 1.7792-0.94893 3.9379-1.435 6.5-1.435 3.3212 0 6.2628 0.8332 8.8011 2.4997 2.5384 1.6665 4.4599 4.0272 5.7647 7.0823 1.3047 3.0319 1.9451 6.3647 1.9451 9.9985 0 3.8883-0.7116 7.4063-2.1349 10.508-1.4471 3.1246-3.511 5.5085-6.239 7.1748-2.7281 1.6433-5.5985 2.4765-8.6113 2.4765-2.2062 0-4.1752-0.43975-5.9306-1.3424-1.7554-0.92578-3.2026-2.0599-4.3175-3.4486v18.514zm6.0018-33.374c0 4.8836 0.99635 8.5172 3.0365 10.855 2.0402 2.3377 4.4836 3.4948 7.3777 3.4948 2.9416 0 5.4561-1.2035 7.5437-3.6338 2.0876-2.407 3.1314-6.1797 3.1314-11.248 0-4.8604-1.0201-8.4941-3.0602-10.901-2.0402-2.407-4.4835-3.6106-7.3303-3.6106-2.7992 0-5.2901 1.2729-7.4488 3.842-2.1825 2.5691-3.25 6.2954-3.25 11.202z"
       id="path4503" />
    <path
       d="m1040.1 58.522 0.9489 5.6936c-1.8741 0.39346-3.5347 0.57862-5.0055 0.57862-2.396 0-4.2464-0.37031-5.5749-1.111-1.3285-0.74063-2.2537-1.7127-2.7755-2.9162-0.5456-1.2035-0.8066-3.7495-0.8066-7.6146v-21.895h-4.8631v-4.9993h4.8631v-9.4198l6.5475-3.8652v13.285h6.666v4.9993h-6.666v22.241c0 1.8515 0.1186 3.0319 0.3558 3.5643 0.2373 0.50918 0.6168 0.92578 1.1387 1.2498 0.5219 0.30088 1.281 0.46289 2.2537 0.46289 0.7354 0 1.708-0.09258 2.9179-0.25459z"
       id="path4505" />
  </g>
  <g
     stroke-width="1.2404"
     fill="#fff"
     id="g4517">
    <path
       d="m947.81 563.58h-15.894c-2.8657 0-5.1981-2.3338-5.1981-5.201s2.3324-5.201 5.1981-5.201h15.894c2.8657 0 5.1981 2.3338 5.1981 5.201s-2.3324 5.201-5.1981 5.201zm-33.354-1.0669h-36.987c-1.7993 0-3.2655-1.4669-3.2655-3.2672s1.4662-3.2672 3.2655-3.2672h36.987c1.8327 0 3.2988 1.4669 3.2988 3.2672s-1.4662 3.2672-3.2988 3.2672zm-56.147 1.0669h-15.894c-2.8657 0-5.1981-2.3338-5.1981-5.201s2.3326-5.201 5.1981-5.201h15.894c2.8657 0 5.1981 2.3338 5.1981 5.201s-2.3324 5.201-5.1981 5.201zm-7.464-49.075c4.7316-13.403 8.5636-17.503 16.26-17.503h57.546c7.6639 0 11.929 4.5675 16.26 17.436l8.6969 17.636c-2.8323-1.0335-5.9646-1.6336-9.2634-1.6336h-90.101c-2.9657 0-5.7646 0.46675-8.397 1.3336l8.9969-17.27zm113.09 36.373c0-2.7005-0.63311-5.2676-1.7327-7.6348-0.1-0.60011-0.23325-1.2002-0.39986-1.8003l-11.896-29.572-0.1-0.26671c-4.1653-12.436-10.096-23.937-25.158-23.937h-57.546c-15.395 0-20.86 11.802-25.124 23.872l-12.462 29.639c-1.7993 2.9006-2.8323 6.2011-2.8323 9.7018v9.2017c0 1.4336 0.16661 2.8006 0.49982 4.1675-0.33321 0.80016-0.49982 1.667-0.49982 2.6005v27.338c0 4.0008 3.2655 7.268 7.2642 7.268h15.061c3.9986 0 7.2642-3.2672 7.2642-7.268v-13.669h78.939v13.669c0 4.0008 3.2322 7.268 7.2642 7.268h14.195c3.9986 0 7.2642-3.2672 7.2642-7.268v-27.372c0-0.90017-0.19993-1.767-0.49983-2.5671 0.33322-1.3669 0.49983-2.7338 0.49983-4.1675v-9.2017"
       id="path4509" />
    <path
       d="m853.75 688.29 10.772 2.6874c-2.2369 8.7425-6.2979 15.409-12.183 20.003-5.8505 4.5923-13.043 6.9056-21.51 6.9056-8.7758 0-15.934-1.7689-21.406-5.3067-5.5064-3.5379-9.705-8.6405-12.562-15.343-2.8564-6.7015-4.3018-13.879-4.3018-21.567 0-8.3684 1.6175-15.682 4.8524-21.907 3.235-6.2592 7.8465-10.988 13.834-14.22 5.9882-3.2657 12.562-4.8645 19.755-4.8645 8.1219 0 14.97 2.0411 20.546 6.1231 5.5407 4.1162 9.3953 9.8652 11.598 17.315l-10.6 2.4493c-1.8928-5.851-4.646-10.103-8.2251-12.791-3.5792-2.6533-8.1219-3.9801-13.56-3.9801-6.2635 0-11.495 1.4628-15.694 4.4223-4.1986 2.9595-7.1582 6.9395-8.8446 11.94-1.7207 5.0006-2.5467 10.171-2.5467 15.478 0 6.8376 0.99802 12.791 3.0286 17.893 1.996 5.1026 5.1278 8.9466 9.3953 11.464 4.2675 2.5173 8.879 3.7759 13.834 3.7759 6.0226 0 11.15-1.7008 15.314-5.1707 4.1986-3.4358 7.0207-8.5384 8.5005-15.308z"
       id="path4511" />
    <path
       d="m897.56 703.5v-22.043h-22.129v-9.2528h22.129v-21.873h9.464v21.873h22.129v9.2528h-22.129v22.043z"
       id="path4513" />
    <path
       d="m963.98 703.5v-22.043h-22.163v-9.2528h22.163v-21.873h9.464v21.873h22.129v9.2528h-22.129v22.043z"
       id="path4515" />
  </g>
  <g
     stroke-width="1.2404"
     fill="#fff"
     id="g4529">
    <path
       d="m135.16 520.5c0.20007 0.43328 0.40014 0.66659 0.53352 0.69992 0.13338-0.0334 0.33344-0.26664 0.53352-0.69992 0.10004-0.19998 0.20008-0.39996 0.3001-0.66659 0.3001-0.93323 0.60021-2.3331 0.60021-4.1661 0-1.8664-0.26676-3.2663-0.60021-4.1661-0.10004-0.29996-0.20008-0.53327-0.3001-0.69992-0.20008-0.43328-0.43348-0.66659-0.53352-0.69992-0.13338 0.0666-0.3001 0.26664-0.53352 0.69992-0.10004 0.19998-0.20008 0.39996-0.30011 0.69992-0.3001 0.89989-0.60021 2.2997-0.60021 4.1661 0 1.8331 0.3001 3.233 0.63356 4.1661 0.0667 0.2333 0.16672 0.46661 0.26676 0.66659m5.3018-4.8327c0-1.5331-0.90032-2.8331-2.2341-3.5996 0.26676 1.0999 0.3668 2.3664 0.3668 3.5996s-0.13338 2.4664-0.3668 3.5663c1.3338-0.73325 2.2341-2.0664 2.2341-3.5663m-7.2692 3.5663c-0.26676-1.0999-0.40014-2.3331-0.40014-3.5663s0.13338-2.4996 0.40014-3.5996c-1.3672 0.76658-2.2674 2.0664-2.2674 3.5996 0 1.4999 0.90032 2.833 2.2674 3.5663m40.381 26.164c-0.43348-0.26663-0.93365-0.43328-1.5005-0.43328-0.46684 0-0.90032 0.13332-1.2671 0.29997-0.16672 0.0666-0.3001 0.16664-0.43348 0.26663-0.60021 0.39996-0.93366 1.0332-0.96701 1.7665v0.0334c0 0.29997 0.0667 0.59994 0.16673 0.83324 0.26676 0.59992 0.73359 1.0665 1.4005 1.3332 0.23342 0.1 0.50018 0.13332 0.76694 0.16665 0.10004 0.0334 0.23342 0.0334 0.33345 0.0334 0.86697 0 1.6338-0.36663 2.1341-0.93323 0.1001-0.16665 0.20008-0.29996 0.30011-0.4666 0.13338-0.29997 0.23341-0.59993 0.23341-0.96656 0-0.63326-0.3001-1.1999-0.73358-1.6331-0.13338-0.1-0.26676-0.19997-0.4335-0.29996m2.701 3.6996c0.26676-0.53327 0.43348-1.1332 0.43348-1.7664 0-1.1999-0.56686-2.2997-1.5005-3.033-0.1001-0.0666-0.16674-0.13331-0.26676-0.19997-0.80029-0.53328-1.7673-0.86657-2.8343-0.86657-0.90032 0-1.7006 0.23331-2.4008 0.59993-0.10004 0.0666-0.20007 0.1-0.3001 0.16665-1.2004 0.73325-1.9674 1.9664-1.9674 3.333 0 0.29997 0.0333 0.53328 0.10004 0.83324 0 0 0.0333 0.0334 0.0333 0.0666 0.40014 1.5999 1.8339 2.8663 3.6346 3.1662h0.0667c0.26676 0.0334 0.53352 0.0666 0.83362 0.0666 1.734 0 3.2678-0.86657 4.0348-2.1331 0.0334-0.0666 0.0667-0.16665 0.13338-0.23331m29.11-1.4665c-0.23341 1.933-1.8673 3.2996-3.7014 3.1996-7.1025-0.19998-14.138-0.39996-21.108-1.1999-0.20007 0.63326-0.53352 1.1999-0.90031 1.7331 6.0022 3.1996 12.204 5.3661 19.441 6.7993 1.9007 0.26663 2.8343 1.6998 2.1675 3.333-3.1345 8.299-9.7034 12.365-18.807 14.798-2.3008 0.39996-4.5015-0.69992-5.0684-2.3664-2.1341-6.1993-4.1681-12.365-5.4686-18.698-0.6002 0-1.1671-0.0666-1.734-0.16665-1.4005 6.2326-1.6339 12.232-0.76694 18.897 0.33344 1.6331-1.0004 2.8331-3.0344 2.6997-8.2363-0.66659-16.939-3.7329-21.874-9.8655-1.2338-1.5331-0.86697-3.8328 0.73359-4.9661 5.9354-4.2662 11.904-8.3658 18.44-11.799-0.20008-0.49994-0.33345-0.99988-0.43348-1.5331-7.3692 0.69992-14.071 2.533-21.108 5.5327-1.7673 0.93321-3.5345 0.23331-3.9347-1.6998-1.5339-7.5324 0.43348-15.798 5.2352-22.131 1.1337-1.4665 3.4012-1.7998 5.0684-0.7999 6.2021 3.6996 12.271 7.4991 17.772 11.932 0.53352-0.39995 1.1004-0.76658 1.734-1.0332-3.1677-6.0659-7.436-11.099-13.105-16.031-1.6339-1.1665-1.7006-2.9663 0.13338-3.9996 7.9361-4.2995 18.306-4.3662 26.842-1.5331 1.9007 0.63326 2.8677 2.3664 2.2341 3.8996-2.2008 6.1327-4.4349 12.165-7.336 17.965 0.63354 0.36663 1.2004 0.76658 1.734 1.2332 5.3352-4.2329 9.4366-9.0656 13.105-14.998 0.83362-1.6331 2.6676-2.2665 4.2682-1.2332 7.7028 5.0328 10.57 13.832 9.47 22.031m4.8683-0.46661c0-18.931-17.273-34.296-38.58-34.296-21.341 0-38.614 15.365-38.614 34.296 0 18.964 17.273 34.329 38.614 34.329 21.308 0 38.58-15.365 38.58-34.329m-76.53-26.26c0.50018 0.99988 1.1337 1.5999 1.9674 1.5999 0.83363 0 1.4672-0.63326 1.934-1.5999 2.5009-0.73325 4.3015-2.7997 4.3015-5.266 0-2.433-1.8007-4.5328-4.3015-5.266-0.46682-0.99989-1.1004-1.5999-1.934-1.5999-0.83362 0-1.4671 0.63326-1.9674 1.5999-2.4675 0.73325-4.3014 2.833-4.3014 5.2994 0 2.433 1.8339 4.5328 4.3014 5.2328m84.463-12.865v78.292c0 1.2332-1.1004 2.1997-2.4675 2.1997h-88.098c-1.3672 0-2.4675-0.96655-2.4675-2.1997v-78.292c0-1.2332 1.1004-2.1997 2.4675-2.1997h88.098c1.3338-0.0334 2.4675 0.96655 2.4675 2.1997m-5.4019 81.791h-5.3686c-0.80028 5.6326 5.3686 5.6326 5.3686 0zm-82.262 0h5.3686c0.80028 5.6326-5.3686 5.6326-5.3686 0z"
       id="path4519" />
    <path
       d="m52.451 689.37 9.7247-1.3184c0.25933 6.1244 1.4479 10.314 3.5225 12.568 2.0746 2.2754 4.9488 3.4024 8.6009 3.4024 2.7013 0 5.0569-0.6167 7.0018-1.8288 1.9665-1.2334 3.328-2.8921 4.0628-4.9761 0.75636-2.1052 1.1237-5.4439 1.1237-10.037v-55.268h10.784v54.652c0 6.7199-0.82119 11.909-2.4851 15.587-1.6424 3.7001-4.2573 6.5071-7.823 8.4423-3.5874 1.9352-7.7798 2.8921-12.599 2.8921-7.153 0-12.642-2.0202-16.424-6.0819-3.8034-4.0404-5.6403-10.058-5.489-18.033z"
       id="path4521" />
    <path
       d="m152.15 704.95c-3.717 3.0835-7.2828 5.2738-10.697 6.5497-3.436 1.2759-7.1098 1.9139-11.043 1.9139-6.4831 0-11.475-1.5524-14.954-4.6783-3.4793-3.1047-5.2298-7.1026-5.2298-11.951 0-2.8282 0.66993-5.4439 1.9665-7.7831 1.3183-2.3605 3.047-4.2531 5.1865-5.6566 2.1179-1.4247 4.5166-2.5093 7.1963-3.2324 1.9665-0.51036 4.9271-0.99946 8.8819-1.4886 8.0823-0.93567 14.046-2.0628 17.851-3.3812 0.0432-1.361 0.0648-2.2116 0.0648-2.5731 0-4.0192-0.95086-6.8474-2.831-8.4848-2.5716-2.2116-6.3534-3.3387-11.41-3.3387-4.711 0-8.1688 0.80809-10.416 2.4454-2.2475 1.6161-3.9115 4.487-4.9704 8.6125l-9.7895-1.3184c0.88603-4.1254 2.3555-7.4429 4.3869-9.9734 2.0314-2.5519 4.992-4.487 8.8387-5.8692 3.8683-1.361 8.32-2.0414 13.399-2.0414 5.0353 0 9.1412 0.57417 12.296 1.7438 3.1335 1.1696 5.4674 2.6368 6.9369 4.4019 1.4911 1.7651 2.5284 4.0191 3.1119 6.6985 0.34576 1.68 0.49704 4.721 0.49704 9.0802v13.142c0 9.1441 0.2161 14.949 0.64831 17.374 0.4322 2.4242 1.275 4.7422 2.5284 6.975h-10.459c-1.0373-2.0414-1.6856-4.4445-1.9881-7.1664zm-0.84281-21.989c-3.6305 1.446-9.0764 2.6794-16.337 3.7001-4.106 0.59543-7.0234 1.2547-8.7306 1.9777-1.7072 0.72303-3.0255 1.8075-3.9548 3.211-0.90764 1.4035-1.383 2.9559-1.383 4.6783 0 2.6156 1.0157 4.8059 3.0255 6.5497 2.0314 1.765 4.992 2.6368 8.8819 2.6368 3.8466 0 7.2828-0.82934 10.287-2.488 2.9823-1.6587 5.1865-3.934 6.6128-6.8262 1.0589-2.2116 1.5991-5.5078 1.5991-9.8458z"
       id="path4523" />
    <path
       d="m193.4 712.12-22.475-58.097h10.567l12.686 34.79c1.3615 3.7427 2.6149 7.6555 3.7818 11.696 0.88603-3.0622 2.1179-6.7411 3.717-11.037l13.117-35.449h10.287l-22.346 58.097z"
       id="path4525" />
    <path
       d="m272.45 704.95c-3.717 3.0835-7.2828 5.2738-10.697 6.5497-3.436 1.2759-7.1098 1.9139-11.043 1.9139-6.4831 0-11.475-1.5524-14.954-4.6783-3.4793-3.1047-5.2298-7.1026-5.2298-11.951 0-2.8282 0.66992-5.4439 1.9665-7.7831 1.3183-2.3605 3.047-4.2531 5.1865-5.6566 2.1179-1.4247 4.5165-2.5093 7.1963-3.2324 1.9665-0.51036 4.9271-0.99946 8.8819-1.4886 8.0823-0.93567 14.046-2.0628 17.851-3.3812 0.0432-1.361 0.0649-2.2116 0.0649-2.5731 0-4.0192-0.95086-6.8474-2.831-8.4848-2.5716-2.2116-6.375-3.3387-11.41-3.3387-4.711 0-8.1688 0.80809-10.416 2.4454-2.2475 1.6161-3.9115 4.487-4.9704 8.6125l-9.7895-1.3184c0.88603-4.1254 2.3555-7.4429 4.3869-9.9734 2.0314-2.5519 4.992-4.487 8.8387-5.8692 3.8683-1.361 8.32-2.0414 13.399-2.0414 5.0353 0 9.1412 0.57417 12.296 1.7438 3.1335 1.1696 5.4674 2.6368 6.9369 4.4019 1.4911 1.7651 2.5284 4.0191 3.1119 6.6985 0.34578 1.68 0.49705 4.721 0.49705 9.0802v13.142c0 9.1441 0.2161 14.949 0.6483 17.374 0.43222 2.4242 1.275 4.7422 2.5284 6.975h-10.46c-1.0373-2.0414-1.6856-4.4445-1.9881-7.1664zm-0.84281-21.989c-3.6305 1.446-9.0764 2.6794-16.337 3.7001-4.106 0.59543-7.0234 1.2547-8.7307 1.9777-1.7073 0.72303-3.0255 1.8075-3.9548 3.211-0.90764 1.4035-1.383 2.9559-1.383 4.6783 0 2.6156 1.0157 4.8059 3.0254 6.5497 2.0314 1.765 4.992 2.6368 8.8819 2.6368 3.8466 0 7.2828-0.82934 10.287-2.488 2.9823-1.6587 5.1865-3.934 6.6128-6.8262 1.0589-2.2116 1.5991-5.5078 1.5991-9.8458z"
       id="path4527" />
  </g>
  <g
     fill="#fff"
     id="g4559">
    <path
       d="m28.275 10.723"
       stroke="#000"
       stroke-width="1.2404px"
       id="path4531" />
    <path
       d="m28.275 10.723"
       stroke="#000"
       stroke-width="1.2404px"
       id="path4533" />
    <path
       stroke-width="1.2404"
       d="m200.48 174.27h-84.935v-48.935h84.935zm-91.277-54.922v60.911h97.653v-60.911h-97.653"
       id="path4535" />
    <path
       stroke-width="1.2404"
       d="m166.49 211.73h-15.504c-3.1208 0-4.7652-2.3822-3.6913-5.36 1.0403-2.9777 3.6578-5.393 5.8727-5.393h10.973c2.1812 0 4.8324 2.4153 5.9398 5.393 1.0738 2.9777-0.50337 5.36-3.5907 5.36zm41.041-25.576h-99.06l-27.821 30.97h155.81l-28.927-30.969"
       id="path4537" />
    <path
       d="m28.275 10.723"
       stroke="#000"
       stroke-width="1.2404px"
       id="path4539" />
    <path
       d="m28.275 10.723"
       stroke="#000"
       stroke-width="1.2404px"
       id="path4541" />
    <path
       d="m28.275 10.723"
       stroke="#000"
       stroke-width="1.2404px"
       id="path4543" />
    <path
       d="m28.275 10.723"
       stroke="#000"
       stroke-width="1.2404px"
       id="path4545" />
    <path
       d="m28.275 10.723"
       stroke="#000"
       stroke-width="1.2404px"
       id="path4547" />
    <path
       stroke-width="1.2404"
       d="m147.3 72.114 11.675 2.9421c-2.4462 9.4881-6.8567 16.77-13.194 21.734-6.3749 5.0015-14.121 7.5022-23.313 7.5022-9.4882 0-17.234-1.9123-23.202-5.7738-5.9301-3.8246-10.452-9.3778-13.565-16.66-3.1133-7.2815-4.67-15.114-4.67-23.463 0-9.0836 1.742-17.064 5.263-23.831 3.521-6.7668 8.4876-11.915 14.974-15.445 6.486-3.5304 13.602-5.2956 21.386-5.2956 8.8211 0 16.234 2.2433 22.238 6.6932 6.0043 4.4498 10.192 10.702 12.564 18.792l-11.49 2.6846c-2.0385-6.3621-5.0035-10.996-8.8952-13.901-3.8916-2.9053-8.784-4.3395-14.678-4.3395-6.7455 0-12.416 1.5814-16.975 4.8176-4.5588 3.2362-7.7463 7.539-9.5995 12.982-1.8532 5.4428-2.7426 11.033-2.7426 16.806 0 7.4286 1.0748 13.901 3.2616 19.454 2.1867 5.5531 5.5966 9.7087 10.192 12.467 4.5958 2.7214 9.5994 4.1189 14.974 4.1189 6.5231 0 12.083-1.8755 16.604-5.6267 4.5218-3.7511 7.598-9.2674 9.1917-16.66z"
       id="path4549" />
    <path
       stroke-width="1.2404"
       d="m170.09 104.29 5.2259-25.412h-10.155v-8.8997h11.971l4.4476-21.661h-16.419v-8.8996h18.235l5.2259-25.596h9.0064l-5.2259 25.596h18.94l5.2259-25.596h9.0805l-5.2259 25.596h10.415v8.898h-12.23l-4.4847 21.661h16.716v8.8997h-18.532l-5.2259 25.412h-9.0064l5.1519-25.412h-18.865l-5.263 25.412zm16.048-34.312h18.902l4.4847-21.661h-18.94z"
       id="path4551" />
    <path
       d="m28.275 10.723"
       stroke="#000"
       stroke-width="1.2404px"
       id="path4553" />
    <path
       d="m28.275 10.723"
       stroke="#000"
       stroke-width="1.2404px"
       id="path4555" />
    <path
       stroke-width="1.2404"
       d="m237.33 216.33c0-1.6543-1.3759-2.9777-3.0538-2.9777h-151.75c-1.6779 0-3.0537 1.3235-3.0537 2.9777 0 1.5882 1.3759 2.9116 3.0537 2.9116h151.75c1.6779 0 3.0538-1.3235 3.0538-2.9116"
       id="path4557" />
  </g>
  <g
     transform="translate(9.7965 -2.7213)"
     fill="#fff"
     id="g4573">
    <path
       stroke-linejoin="round"
       d="m231.56 256.27 133.7 63.31"
       stroke="#fff"
       stroke-linecap="round"
       stroke-width="8.4356px"
       id="path4561" />
    <path
       d="m225.85 272.16-22.073-29.843 37.102 0.15191-15.028 29.691z"
       fill-rule="evenodd"
       stroke-width="1.2404"
       id="path4563" />
    <path
       d="m373.06 305.02 21.3 30.4-37.086-1.1036 15.784-29.296z"
       fill-rule="evenodd"
       stroke-width="1.2404"
       id="path4565" />
    <path
       stroke-linejoin="round"
       d="m232.42 471.61 131.05-61.64"
       stroke="#fff"
       stroke-linecap="round"
       stroke-width="8.4356px"
       id="path4567" />
    <path
       d="m227.27 455.71-21.474 30.387 37.107-1.0097z"
       fill-rule="evenodd"
       stroke-width="1.2404"
       id="path4569" />
    <path
       d="m370.93 424.92 23.661-28.601-37.055-1.8629 13.393 30.463z"
       fill-rule="evenodd"
       stroke-width="1.2404"
       id="path4571" />
  </g>
  <g
     id="g4583"
     stroke-width="2.2916"
     fill-rule="evenodd">
    <path
       d="m453.35 287.7v148.71h148.52v-148.71z"
       id="path4575"
       fill="#ff0" />
    <path
       d="m453.35 319.37v14.674h35.074l23.262 23.262 10.737-10.737-27.557-27.557-41.515 0.35789z"
       id="path4577"
       fill="#333" />
    <path
       d="m543.36 367.68-10.558 10.737 26.484 26.663h42.59v-14.852h-35.967l-22.547-22.547z"
       id="path4579"
       fill="#333" />
    <path
       d="m560.37 319.01-70.697 71.22h-36.32v15.032h42.411l71.22-71.22h34.895v-15.031h-41.515z"
       id="path4581"
       fill="#333" />
  </g>
  <g
     transform="matrix(-1 0 0 1 1030.8 -4.5717)"
     fill="#fff"
     id="g4597">
    <path
       stroke-linejoin="round"
       d="m231.56 256.27 133.7 63.31"
       stroke="#fff"
       stroke-linecap="round"
       stroke-width="8.4356px"
       id="path4585" />
    <path
       d="m225.85 272.16-22.073-29.843 37.102 0.15191-15.028 29.691z"
       fill-rule="evenodd"
       stroke-width="1.2404"
       id="path4587" />
    <path
       d="m373.06 305.02 21.3 30.4-37.086-1.1036 15.784-29.296z"
       fill-rule="evenodd"
       stroke-width="1.2404"
       id="path4589" />
    <path
       stroke-linejoin="round"
       d="m232.42 471.61 131.05-61.64"
       stroke="#fff"
       stroke-linecap="round"
       stroke-width="8.4356px"
       id="path4591" />
    <path
       d="m227.27 455.71-21.474 30.387 37.107-1.0097z"
       fill-rule="evenodd"
       stroke-width="1.2404"
       id="path4593" />
    <path
       d="m370.93 424.92 23.661-28.601-37.055-1.8629 13.393 30.463z"
       fill-rule="evenodd"
       stroke-width="1.2404"
       id="path4595" />
  </g>
</svg>
