<?xml version="1.0" encoding="UTF-8" standalone="no"?>
<svg
   xmlns:dc="http://purl.org/dc/elements/1.1/"
   xmlns:cc="http://creativecommons.org/ns#"
   xmlns:rdf="http://www.w3.org/1999/02/22-rdf-syntax-ns#"
   xmlns:svg="http://www.w3.org/2000/svg"
   xmlns="http://www.w3.org/2000/svg"
   xmlns:sodipodi="http://sodipodi.sourceforge.net/DTD/sodipodi-0.dtd"
   xmlns:inkscape="http://www.inkscape.org/namespaces/inkscape"
   width="59cm"
   height="30cm"
   viewBox="132 371 1172 584"
   version="1.1"
   id="svg58"
   sodipodi:docname="helloworld2.svg"
   inkscape:version="0.92.0 r15299">
  <metadata
     id="metadata64">
    <rdf:RDF>
      <cc:Work
         rdf:about="">
        <dc:format>image/svg+xml</dc:format>
        <dc:type
           rdf:resource="http://purl.org/dc/dcmitype/StillImage" />
      </cc:Work>
    </rdf:RDF>
  </metadata>
  <defs
     id="defs62" />
  <sodipodi:namedview
     pagecolor="#ffffff"
     bordercolor="#666666"
     borderopacity="1"
     objecttolerance="10"
     gridtolerance="10"
     guidetolerance="10"
     inkscape:pageopacity="0"
     inkscape:pageshadow="2"
     inkscape:window-width="1366"
     inkscape:window-height="705"
     id="namedview60"
     showgrid="false"
     inkscape:zoom="0.25740819"
     inkscape:cx="1133.5951"
     inkscape:cy="777.77492"
     inkscape:window-x="-8"
     inkscape:window-y="-8"
     inkscape:window-maximized="1"
     inkscape:current-layer="svg58" />
  <rect
     style="fill: none; fill-opacity:0; stroke-width: 2; stroke: #000000"
     x="133.1"
     y="372.511"
     width="1169.74"
     height="581.603"
     id="rect2" />
  <g
     id="g16">
    <polyline
       style="fill: none; fill-opacity:0; stroke-width: 4; stroke: #000000"
       points="1105.5,699.49 829.372,531.135 "
       id="polyline10" />
    <polygon
       style="fill: #000000"
       points="812.722,520.984 841.689,523.419 829.372,531.135 828.154,545.618 "
       id="polygon12" />
    <polygon
       style="fill: none; fill-opacity:0; stroke-width: 4; stroke: #000000"
       points="812.722,520.984 841.689,523.419 829.372,531.135 828.154,545.618 "
       id="polygon14" />
  </g>
  <g
     id="g24">
    <polyline
       style="fill: none; fill-opacity:0; stroke-width: 4; stroke: #000000"
       points="298.667,686.737 589.684,518.656 "
       id="polyline18" />
    <polygon
       style="fill: #000000"
       points="281.781,696.489 297.793,672.228 298.667,686.737 310.797,694.743 "
       id="polygon20" />
    <polygon
       style="fill: none; fill-opacity:0; stroke-width: 4; stroke: #000000"
       points="281.781,696.489 297.793,672.228 298.667,686.737 310.797,694.743 "
       id="polygon22" />
  </g>
  <g
     id="g32">
    <rect
       style="fill: #ffff00"
       x="602.582"
       y="633.82"
       width="190.55"
       height="39.4"
       id="rect26" />
    <text
       font-size="33.8667"
       style="fill: #000000;text-anchor:start;font-family:sans-serif;font-style:normal;font-weight:normal"
       x="602.582"
       y="665.22"
       id="text30">
      <tspan
         x="602.582"
         y="665.22"
         id="tspan28">Crossbar.io</tspan>
    </text>
  </g>
  <text
     font-size="19.7556"
     style="fill: #000000;text-anchor:start;font-family:sans-serif;font-style:normal;font-weight:normal"
     x="935.666"
     y="544.178"
     id="text38">
    <tspan
       x="935.666"
       y="544.178"
       id="tspan34">Publish Hello World to </tspan>
    <tspan
       x="935.666"
       y="568.872"
       id="tspan36"> topic &quot;com.myapp.hello&quot;</tspan>
  </text>
  <text
     font-size="19.7556"
     style="fill: #000000;text-anchor:start;font-family:sans-serif;font-style:normal;font-weight:normal"
     x="220.856"
     y="546.722"
     id="text44">
    <tspan
       x="220.856"
       y="546.722"
       id="tspan40">   Subscribe and receive from </tspan>
    <tspan
       x="220.856"
       y="571.417"
       id="tspan42">       topic &quot;com.myapp.hello&quot;</tspan>
  </text>
  <text
     font-size="33.8667"
     style="font-style:normal;font-weight:normal;font-size:33.86669922px;font-family:sans-serif;text-anchor:start;fill:#000000"
     x="152.38582"
     y="885.21069"
     id="text50">
    <tspan
       x="152.38582"
       y="885.21069"
       id="tspan46">Autobahn Javascript</tspan>
    <tspan
       x="152.38582"
       y="927.5437"
       id="tspan48">Subscribing client</tspan>
  </text>
  <text
     font-size="33.8667"
     style="font-style:normal;font-weight:normal;font-size:33.86669922px;font-family:sans-serif;text-anchor:start;fill:#000000"
     x="941.46918"
     y="894.1405"
     id="text56">
    <tspan
       x="941.46918"
       y="894.1405"
       id="tspan52">Autobahn Javascript</tspan>
    <tspan
       x="941.46918"
       y="936.47345"
       id="tspan54">Publishing client</tspan>
  </text>
  <g
     id="g4583"
     transform="matrix(1.5153552,0,0,1.5210157,-101.63365,-30.530143)"
     style="fill-rule:evenodd;stroke-width:2.29159999">
    <path
       d="M 453.35,287.7 V 436.41 H 601.87 V 287.7 Z"
       id="path4575"
       inkscape:connector-curvature="0"
       style="fill:#ffff00" />
    <path
       d="m 453.35,319.37 v 14.674 h 35.074 l 23.262,23.262 10.737,-10.737 -27.557,-27.557 -41.515,0.35789 z"
       id="path4577"
       inkscape:connector-curvature="0"
       style="fill:#333333" />
    <path
       d="m 543.36,367.68 -10.558,10.737 26.484,26.663 h 42.59 v -14.852 h -35.967 l -22.547,-22.547 z"
       id="path4579"
       inkscape:connector-curvature="0"
       style="fill:#333333" />
    <path
       d="m 560.37,319.01 -70.697,71.22 h -36.32 v 15.032 h 42.411 l 71.22,-71.22 h 34.895 v -15.031 h -41.515 z"
       id="path4581"
       inkscape:connector-curvature="0"
       style="fill:#333333" />
  </g>
  <path
     inkscape:connector-curvature="0"
     style="fill:#0273a0;fill-rule:nonzero;stroke-width:1.01978922"
     d="M 205.79379,693.91752 V 850.94509 H 356.31076 V 693.91752 Z m 63.97571,15.09085 h 6.67457 v 30.73751 H 263.4285 Z m 16.11881,0.27817 h 6.64122 l 6.37425,30.66792 h -13.01557 z m -51.6949,32.5462 h 93.24424 v 5.73728 h -4.53874 v 8.83195 h -10.71319 v -8.83195 h -62.64131 v 8.83195 h -10.51297 v -8.83195 h -4.83905 z m 25.16323,13.66551 h 17.08682 v 79.06958 h -32.97238 z m 26.53167,0 h 17.05379 l 15.9186,79.06958 h -32.97239 z"
     id="path4500" />
  <path
     inkscape:connector-curvature="0"
     style="fill:#0273a0;fill-rule:nonzero;stroke-width:1.01978922"
     d="m 1035.6995,699.55889 v 157.02757 h 150.517 V 699.55889 Z m 63.9757,15.09085 h 6.6746 v 30.73751 h -13.0156 z m 16.1188,0.27817 h 6.6412 l 6.3743,30.66792 h -13.0156 z m -51.6949,32.5462 h 93.2442 v 5.73728 h -4.5387 v 8.83195 h -10.7132 v -8.83195 h -62.6413 v 8.83195 h -10.513 v -8.83195 h -4.839 z m 25.1632,13.66551 h 17.0869 v 79.06958 h -32.9724 z m 26.5317,0 h 17.0538 l 15.9186,79.06958 h -32.9724 z"
     id="path4500-2" />
</svg>
