<?xml version="1.0" encoding="UTF-8" standalone="no"?>
<svg
   xmlns:dc="http://purl.org/dc/elements/1.1/"
   xmlns:cc="http://creativecommons.org/ns#"
   xmlns:rdf="http://www.w3.org/1999/02/22-rdf-syntax-ns#"
   xmlns:svg="http://www.w3.org/2000/svg"
   xmlns="http://www.w3.org/2000/svg"
   xmlns:sodipodi="http://sodipodi.sourceforge.net/DTD/sodipodi-0.dtd"
   xmlns:inkscape="http://www.inkscape.org/namespaces/inkscape"
   width="59cm"
   height="28cm"
   viewBox="47 36 1172 554"
   version="1.1"
   id="svg66"
   sodipodi:docname="helloworldrpc.svg"
   inkscape:version="0.92.3 (2405546, 2018-03-11)">
  <metadata
     id="metadata72">
    <rdf:RDF>
      <cc:Work
         rdf:about="">
        <dc:format>image/svg+xml</dc:format>
        <dc:type
           rdf:resource="http://purl.org/dc/dcmitype/StillImage" />
      </cc:Work>
    </rdf:RDF>
  </metadata>
  <defs
     id="defs70" />
  <sodipodi:namedview
     pagecolor="#ffffff"
     bordercolor="#666666"
     borderopacity="1"
     objecttolerance="10"
     gridtolerance="10"
     guidetolerance="10"
     inkscape:pageopacity="0"
     inkscape:pageshadow="2"
     inkscape:window-width="1920"
     inkscape:window-height="1015"
     id="namedview68"
     showgrid="false"
     inkscape:zoom="0.36403016"
     inkscape:cx="1111.0461"
     inkscape:cy="649.34769"
     inkscape:window-x="0"
     inkscape:window-y="0"
     inkscape:window-maximized="1"
     inkscape:current-layer="svg66" />
  <rect
     style="fill: none; fill-opacity:0; stroke-width: 2; stroke: #000000"
     x="48.5"
     y="37.3"
     width="1169.74"
     height="551.154"
     id="rect2" />
  <g
     id="g20">
    <polyline
       style="fill: none; fill-opacity:0; stroke-width: 4; stroke: #000000"
       points="1010.68,327.598 737.087,160.79 "
       id="polyline10" />
    <polygon
       style="fill: #000000"
       points="1017.09,331.502 1005.94,330.566 1010.68,327.598 1011.15,322.028 "
       id="polygon12" />
    <polygon
       style="fill: none; fill-opacity:0; stroke-width: 4; stroke: #000000"
       points="1017.09,331.502 1005.94,330.566 1010.68,327.598 1011.15,322.028 "
       id="polygon14" />
    <polygon
       style="fill: #000000"
       points="728.122,155.324 743.72,156.635 737.087,160.79 736.432,168.589 "
       id="polygon16" />
    <polygon
       style="fill: none; fill-opacity:0; stroke-width: 4; stroke: #000000"
       points="728.122,155.324 743.72,156.635 737.087,160.79 736.432,168.589 "
       id="polygon18" />
  </g>
  <g
     id="g32">
    <polyline
       style="fill: none; fill-opacity:0; stroke-width: 4; stroke: #000000"
       points="206.273,325.578 494.717,158.984 "
       id="polyline22" />
    <polygon
       style="fill: #000000"
       points="197.181,330.83 205.803,317.766 206.273,325.578 212.805,329.889 "
       id="polygon24" />
    <polygon
       style="fill: none; fill-opacity:0; stroke-width: 4; stroke: #000000"
       points="197.181,330.83 205.803,317.766 206.273,325.578 212.805,329.889 "
       id="polygon26" />
    <polygon
       style="fill: #000000"
       points="501.211,155.233 495.053,164.564 494.717,158.984 490.051,155.905 "
       id="polygon28" />
    <polygon
       style="fill: none; fill-opacity:0; stroke-width: 4; stroke: #000000"
       points="501.211,155.233 495.053,164.564 494.717,158.984 490.051,155.905 "
       id="polygon30" />
  </g>
  <g
     id="g40"
     transform="translate(0,3.1534746)">
    <rect
       style="fill:#ffff00"
       x="517.98199"
       y="268.16101"
       width="190.55"
       height="39.400002"
       id="rect34" />
    <text
       font-size="33.8667"
       style="font-style:normal;font-weight:normal;font-size:33.86669922px;font-family:sans-serif;text-anchor:start;fill:#000000"
       x="517.98199"
       y="299.561"
       id="text38">
      <tspan
         x="517.98199"
         y="299.561"
         id="tspan36">Crossbar.io</tspan>
    </text>
  </g>
  <text
     font-size="33.8667"
     style="font-style:normal;font-weight:normal;font-size:33.86669922px;font-family:sans-serif;text-anchor:start;fill:#000000"
     x="901.96198"
     y="523.00598"
     id="text52">
    <tspan
       x="901.96198"
       y="523.00598"
       id="tspan48">Autobahn Python</tspan>
    <tspan
       x="901.96198"
       y="565.34003"
       id="tspan50">Caller: RPC Date()</tspan>
  </text>
  <text
     font-size="19.7556"
     style="fill: #000000;text-anchor:start;font-family:sans-serif;font-style:normal;font-weight:normal"
     x="836.066"
     y="183.518"
     id="text58">
    <tspan
       x="836.066"
       y="183.518"
       id="tspan54">Request the function Date using </tspan>
    <tspan
       x="836.066"
       y="208.212"
       id="tspan56">the topic  &quot;com.myapp.date&quot;</tspan>
  </text>
  <text
     font-size="19.7556"
     style="fill: #000000;text-anchor:start;font-family:sans-serif;font-style:normal;font-weight:normal"
     x="58.2565"
     y="151.063"
     id="text64">
    <tspan
       x="58.2565"
       y="151.063"
       id="tspan60">1. Register Date() on topic &quot;com.myapp.date&quot;</tspan>
    <tspan
       x="58.2565"
       y="175.757"
       id="tspan62">2. Respond to the call and send output</tspan>
  </text>
  <g
     id="g4583"
     transform="matrix(1.5153552,0,0,1.5210157,-184.77169,-394.57429)"
     style="fill-rule:evenodd;stroke-width:2.29159999">
    <path
       d="M 453.35,287.7 V 436.41 H 601.87 V 287.7 Z"
       id="path4575"
       inkscape:connector-curvature="0"
       style="fill:#ffff00" />
    <path
       d="m 453.35,319.37 v 14.674 h 35.074 l 23.262,23.262 10.737,-10.737 -27.557,-27.557 -41.515,0.35789 z"
       id="path4577"
       inkscape:connector-curvature="0"
       style="fill:#333333" />
    <path
       d="m 543.36,367.68 -10.558,10.737 26.484,26.663 h 42.59 v -14.852 h -35.967 l -22.547,-22.547 z"
       id="path4579"
       inkscape:connector-curvature="0"
       style="fill:#333333" />
    <path
       d="m 560.37,319.01 -70.697,71.22 h -36.32 v 15.032 h 42.411 l 71.22,-71.22 h 34.895 v -15.031 h -41.515 z"
       id="path4581"
       inkscape:connector-curvature="0"
       style="fill:#333333" />
  </g>
  <path
     inkscape:connector-curvature="0"
     style="fill:#0273a0;fill-rule:nonzero;stroke-width:1.01978922"
     d="M 120.31154,335.24397 V 492.27154 H 270.82851 V 335.24397 Z m 63.97571,15.09085 h 6.67457 v 30.73751 h -13.01557 z m 16.11881,0.27817 h 6.64122 l 6.37425,30.66792 h -13.01557 z m -51.6949,32.5462 h 93.24424 v 5.73728 h -4.53874 v 8.83195 h -10.71319 v -8.83195 h -62.64131 v 8.83195 h -10.51297 v -8.83195 h -4.83905 z m 25.16323,13.66551 h 17.08682 v 79.06958 h -32.97238 z m 26.53167,0 h 17.05379 l 15.9186,79.06958 h -32.97239 z"
     id="path4500" />
  <path
     inkscape:connector-curvature="0"
     style="fill:#0273a0;fill-rule:nonzero;stroke-width:1.01978922"
     d="M 950.62373,334.5729 V 491.60047 H 1101.1407 V 334.5729 Z m 63.97567,15.09085 h 6.6746 v 30.73751 h -13.0156 z m 16.1189,0.27817 h 6.6412 l 6.3742,30.66792 h -13.0155 z m -51.69495,32.5462 h 93.24425 v 5.73728 h -4.5387 v 8.83195 h -10.7132 v -8.83195 h -62.64135 v 8.83195 h -10.51297 v -8.83195 h -4.83905 z m 25.16325,13.66551 h 17.0868 v 79.06958 h -32.97238 z m 26.5317,0 h 17.0537 l 15.9186,79.06958 h -32.9723 z"
     id="path4500-8" />
  <text
     xml:space="preserve"
     style="font-style:normal;font-weight:normal;font-size:21.02316475px;line-height:1.25;font-family:sans-serif;letter-spacing:0px;word-spacing:0px;fill:#000000;fill-opacity:1;stroke:none;stroke-width:0.52557909"
     x="75.343765"
     y="525.86578"
     id="text181"><tspan
       sodipodi:role="line"
       id="tspan179"
       x="75.343765"
       y="525.86578"
       style="font-size:33.86131287px;stroke-width:0.52557909">Autobahn Javascript</tspan><tspan
       sodipodi:role="line"
       x="75.343765"
       y="568.19244"
       style="font-size:33.86131287px;stroke-width:0.52557909"
       id="tspan183">Callee: RPC Date()</tspan></text>
</svg>
